<svg width="32" height="32" viewBox="0 0 32 32" fill="none" xmlns="http://www.w3.org/2000/svg">
<path d="M5.04631 8.32574C5.00667 8.22074 4.94236 7.82534 4.99424 7.51669C5.03341 7.28372 5.03552 7.1078 5.2476 6.63002C5.35311 6.39231 5.63889 6.16936 5.75652 6.09073C5.89646 5.99718 6.68269 6.00052 7.7393 6C8.42059 5.99967 8.91598 6.0999 9.64221 6.12531C9.91835 6.13498 10.0903 6.15057 10.2796 6.16605C10.5732 6.19005 11.4366 6.20541 12.5136 6.26498C13.1667 6.30111 14.2017 6.42405 14.9994 6.53723C15.5311 6.61267 16.4375 6.68732 17.1533 6.63002C17.3826 6.61167 17.6747 6.61082 18.3931 6.67849C19.1115 6.74616 20.2476 6.88702 21.4069 6.98664C22.5662 7.08626 23.7141 7.14038 24.3411 7.1732C25.2216 7.21929 25.5626 7.33868 25.8333 7.42753C26.556 7.66466 26.9791 7.67188 27.1899 7.91946C27.5316 8.32082 27.5924 9.12911 27.5682 9.83042C27.5279 10.9982 27.4826 10.572 27.5279 11.4623C27.5596 12.0855 27.5973 13.0574 27.5682 14.2413C27.5392 15.4253 27.4392 16.7919 27.3752 17.5604C27.3004 18.4589 27.3752 18.682 27.3752 19.7036C27.3752 20.1541 27.3584 20.9779 27.1899 21.1965C27.0299 21.4043 26.5 21.1965 25.5894 21.1965C25.1958 21.1965 24.7351 21.1734 24.6185 21.1965" stroke="black" stroke-width="1.5" stroke-linecap="round"/>
<path d="M28.1427 12.8555C28.2931 12.9124 29.8867 13.1493 29.9006 13.6524C29.9453 15.2628 29.8281 14.3265 29.9453 15.2628C30.0558 16.1456 29.977 16.8114 29.9006 17.56C29.8303 18.2494 29.7159 19.5691 29.5588 20.8706C29.4016 22.1721 29.2102 23.4159 29.0963 24.1077C28.9389 25.0637 28.5944 25.7946 28.3302 26.3499C28.2021 26.6189 27.7456 26.7117 27.4261 26.8941C27.198 27.0243 26.9245 27.0095 26.2382 26.98C26.0339 26.9712 25.6495 26.9192 24.8001 26.8252C23.5688 26.689 22.7706 26.5565 22.6318 26.5439C22.5119 26.5331 21.7577 26.3566 20.6412 26.111C20.1144 25.9952 19.7479 25.9789 19.2686 25.9276C18.8189 25.8796 18.4455 25.8486 18.0392 25.7647C17.7826 25.7117 17.4201 25.6565 16.6274 25.5001C15.8346 25.3437 14.6216 25.0926 13.9607 24.9602C13.0753 24.783 12.5311 24.7107 11.7699 24.6514C11.2251 24.6088 10.372 24.4253 9.24016 24.1752C8.8331 24.0819 8.76569 24.0566 8.6424 24.0163" stroke="black" stroke-width="1.5" stroke-linecap="round"/>
<path d="M2.01006 12.4939C1.96933 12.424 2.06588 12.005 2.0587 11.7197M2.0587 11.7197C2.05079 11.4055 2.04665 11.2629 2.21037 10.8511C2.38931 10.401 2.60406 10.0822 2.82523 9.77294C3.02095 9.49928 3.32651 9.38961 3.62635 9.29533C4.25622 9.09729 5.28209 9.1537 5.66691 9.17423C5.7238 9.17727 5.77808 9.17949 6.36253 9.1844C6.94699 9.1893 8.0598 9.19911 8.65991 9.20735C9.52473 9.21921 10.2204 9.27138 10.6573 9.30403C11.3594 9.3565 12.2539 9.38078 13.049 9.34534C13.7527 9.31397 15.0668 9.28209 15.7856 9.26754C16.5045 9.25299 16.5886 9.26354 17.4012 9.27797C18.2138 9.29241 19.7524 9.3104 20.6018 9.32248C21.7503 9.33881 22.0748 9.45252 22.4032 9.55319C22.6461 9.62766 22.877 9.67944 23.2642 9.85745C23.4575 9.94634 23.5797 10.0695 23.6617 10.1854C23.8841 10.4998 23.9174 11.1592 23.936 12.0152C23.9506 12.6882 23.9542 13.2371 23.9777 13.6297C24.037 14.6215 24.1916 14.7908 24.1916 16.0001C24.1916 17.2094 24.2075 17.5471 24.1916 18.0001C24.1821 18.2707 24.2719 18.6435 24.1916 19.1181C23.9779 20.3812 24.0058 21.0876 23.9672 21.4439C23.924 21.8425 23.84 22.1594 23.6844 22.8454C23.6167 23.1438 23.4455 23.3461 23.1929 23.4952C22.7836 23.7366 22.4052 23.677 21.843 23.7082C21.4779 23.7285 20.3216 23.7475 19.305 23.7589C18.8843 23.7636 18.5172 23.6735 17.6812 23.7057C17.2959 23.7205 16.7179 23.8308 15.7707 23.8861C14.8234 23.9414 13.5266 23.966 12.8308 23.9739C12.135 23.9818 12.0796 23.9722 11.6569 23.9672C10.4461 23.953 9.4806 23.958 9.19322 23.9494C8.94902 23.9421 8.68857 23.9314 7.86082 23.9178C7.18016 23.9066 5.97025 23.897 5.29902 23.8858C4.36068 23.8701 4.09035 23.8213 3.79906 23.7631C3.53257 23.7098 3.1477 23.6112 2.88968 23.4305C2.64942 23.2623 2.50919 22.9169 2.31474 22.606C2.03971 22.1661 1.99808 21.5667 2.04126 20.6967C2.05771 20.3651 2.03466 19.9173 2.02712 19.3194C2.01958 18.7216 2.0166 17.987 2.01771 17.5589C2.01881 17.1309 2.02408 17.0316 2.02939 16.4978C2.03471 15.9641 2.03991 14.999 2.04009 14.4442C2.04046 13.3182 2.03367 12.4654 2.0463 12.0739C2.04877 11.9611 2.0537 11.8345 2.0587 11.7197ZM2.0587 11.7197C2.06371 11.605 2.06864 11.506 2.08764 11.2962" stroke="black" stroke-width="1.5" stroke-linecap="round"/>
</svg>
