<svg width="25" height="24" viewBox="0 0 25 24" fill="none" xmlns="http://www.w3.org/2000/svg">
<path d="M9.62061 15.0487C9.40988 14.8379 8.98522 14.3079 8.4536 13.4586C7.97189 12.689 8.23489 11.4375 8.65955 10.1619C8.96084 9.25691 10.2496 8.45532 11.9498 7.6571C13.1331 7.10155 14.0875 7.49107 14.8298 7.75608C15.7928 8.09985 16.7472 8.76503 17.3857 9.66702C17.9812 10.5081 17.4975 11.6386 17.2325 12.4353C16.7241 13.9634 14.8442 14.8315 13.1392 15.3663C12.7113 15.4733 12.2899 15.5787 11.7567 15.633C11.2234 15.6872 10.5912 15.6872 9.9399 15.6872" stroke="black" stroke-width="2" stroke-linecap="round"/>
<path d="M14.0907 19.838C14.0907 20.0487 14.0907 20.2595 13.9854 20.7368C13.88 21.2142 13.6693 21.9517 13.4521 22.7116" stroke="black" stroke-width="2" stroke-linecap="round"/>
<path d="M6.10864 20.7959C6.10864 20.6905 6.10864 20.5852 6.31937 20.3729C6.5301 20.1605 6.95157 19.8444 7.3858 19.1995" stroke="black" stroke-width="2" stroke-linecap="round"/>
<path d="M1.95776 10.8979C2.48459 10.8979 3.01142 10.8979 3.44086 10.9506C3.87031 11.0033 4.18641 11.1087 4.83137 11.2172" stroke="black" stroke-width="2" stroke-linecap="round"/>
<path d="M6.74707 3.87354C7.06317 3.9789 7.37926 4.08427 7.70015 4.40196C8.02104 4.71965 8.33713 5.24648 8.9821 6.10856" stroke="black" stroke-width="2" stroke-linecap="round"/>
<path d="M15.6872 1L15.3679 2.59645" stroke="black" stroke-width="2" stroke-linecap="round"/>
<path d="M21.4344 7.06641C21.2237 7.17177 21.013 7.27714 20.5883 7.33142C20.1637 7.3857 19.5315 7.3857 18.8801 7.3857" stroke="black" stroke-width="2" stroke-linecap="round"/>
<path d="M20.7959 13.1329C21.2174 13.2383 21.6388 13.3437 22.014 13.5033C22.3892 13.663 22.7053 13.8737 23.3502 14.7294" stroke="black" stroke-width="2" stroke-linecap="round"/>
<path d="M18.2415 17.2837C18.4522 17.2837 18.8768 17.5998 19.4611 18.2368C19.7293 18.5577 19.9401 18.8738 20.2067 19.142C20.4733 19.4102 20.7894 19.6209 21.4344 20.1573" stroke="black" stroke-width="2" stroke-linecap="round"/>
</svg>
