<svg width="23" height="23" viewBox="0 0 23 23" fill="none" xmlns="http://www.w3.org/2000/svg">
<path fill-rule="evenodd" clip-rule="evenodd" d="M19.608 11.5943C19.608 10.988 19.5536 10.4051 19.4526 9.84546H11.4V13.1528H16.0015C15.8033 14.2215 15.2009 15.127 14.2954 15.7333V17.8786H17.0586C18.6753 16.3901 19.608 14.1982 19.608 11.5943Z" fill="#4285F4"/>
<path fill-rule="evenodd" clip-rule="evenodd" d="M11.4 19.9499C13.7085 19.9499 15.6439 19.1843 17.0585 17.8785L14.2953 15.7332C13.5297 16.2462 12.5504 16.5493 11.4 16.5493C9.1731 16.5493 7.28822 15.0453 6.61588 13.0244H3.7594V15.2396C5.16626 18.0339 8.05772 19.9499 11.4 19.9499Z" fill="#34A853"/>
<path fill-rule="evenodd" clip-rule="evenodd" d="M6.61586 13.0245C6.44486 12.5115 6.3477 11.9636 6.3477 11.4C6.3477 10.8365 6.44486 10.2885 6.61586 9.77553V7.5603H3.75938C3.18032 8.71455 2.84998 10.0204 2.84998 11.4C2.84998 12.7797 3.18032 14.0855 3.75938 15.2398L6.61586 13.0245Z" fill="#FBBC05"/>
<path fill-rule="evenodd" clip-rule="evenodd" d="M11.4 6.25067C12.6553 6.25067 13.7823 6.68205 14.6684 7.52928L17.1207 5.07698C15.64 3.69732 13.7046 2.8501 11.4 2.8501C8.05772 2.8501 5.16626 4.76608 3.7594 7.56037L6.61588 9.7756C7.28822 7.75469 9.1731 6.25067 11.4 6.25067Z" fill="#EA4335"/>
</svg>
