<svg width="16" height="16" viewBox="0 0 16 16" fill="none" xmlns="http://www.w3.org/2000/svg">
<g clip-path="url(#clip0_822_4268)">
<path d="M0.509779 15.4951C0.851576 15.8272 1.41798 15.8272 1.75001 15.4951L8.00001 9.24513L14.25 15.4951C14.5821 15.8272 15.1582 15.8369 15.4903 15.4951C15.8223 15.1533 15.8223 14.5967 15.4903 14.2647L9.24025 8.0049L15.4903 1.7549C15.8223 1.42287 15.8321 0.856458 15.4903 0.524427C15.1485 0.18263 14.5821 0.18263 14.25 0.524427L8.00001 6.77443L1.75001 0.524427C1.41798 0.18263 0.84181 0.172864 0.509779 0.524427C0.177748 0.866224 0.177748 1.42287 0.509779 1.7549L6.75978 8.0049L0.509779 14.2647C0.177748 14.5967 0.167982 15.1631 0.509779 15.4951Z" fill="black" fill-opacity="0.85"/>
</g>
<defs>
<clipPath id="clip0_822_4268">
<rect width="15.4859" height="15.4956" fill="white" transform="translate(0.25708 0.252197)"/>
</clipPath>
</defs>
</svg>
