<svg width="16" height="16" viewBox="0 0 16 16" fill="none" xmlns="http://www.w3.org/2000/svg">
<path d="M0 7.99999C0 8.47515 0.397576 8.86302 0.86303 8.86302H7.13696V15.1369C7.13696 15.6024 7.52483 16 7.99999 16C8.47515 16 8.87272 15.6024 8.87272 15.1369V8.86302H15.1369C15.6024 8.86302 16 8.47515 16 7.99999C16 7.52483 15.6024 7.12726 15.1369 7.12726H8.87272V0.86303C8.87272 0.397576 8.47515 0 7.99999 0C7.52483 0 7.13696 0.397576 7.13696 0.86303V7.12726H0.86303C0.397576 7.12726 0 7.52483 0 7.99999Z" fill="white"/>
</svg>
