<svg width="91" height="21" viewBox="0 0 91 21" fill="none" xmlns="http://www.w3.org/2000/svg">
<path d="M12.1891 1.07601L11.1127 2.18146H2.55997L1.48361 1.07601L2.55997 -0.000354767H11.1127L12.1891 1.07601ZM12.1891 17.7742L11.1127 18.8796L10.0363 17.7742V11.956L11.4036 10.5887L12.1891 11.4324V17.7742ZM2.18179 8.40692L0.814517 9.77419L-2.88486e-05 8.95965V2.58874L1.07633 1.48328L2.18179 2.58874V8.40692ZM1.07633 20.3633L-2.88486e-05 19.2869L1.07633 18.1815H9.62906L10.7054 19.2869L9.62906 20.3633H1.07633ZM9.89088 9.1051L10.9963 10.1815L9.89088 11.2578H2.29815L1.22179 10.1815L2.29815 9.1051H9.89088ZM31.8766 -0.000354767L29.7238 2.18146H21.8693L19.6875 -0.000354767H31.8766ZM26.8729 19.2869L25.7675 20.3633L24.6911 19.2869V13.0324L26.0584 11.6651L26.8729 12.4796V19.2869ZM26.8729 10.0651L26.0584 10.8506L24.6911 9.51237V3.6651L25.7675 2.58874L26.8729 3.6651V10.0651ZM51.1568 -0.000354767L49.0041 2.18146H41.935L39.7822 -0.000354767H51.1568ZM41.5568 11.956V18.1815L39.375 20.3633V11.4324L40.1895 10.5887L41.5568 11.956ZM39.375 8.95965V0.406918L41.5568 2.58874V8.40692L40.1895 9.77419L39.375 8.95965ZM51.5641 11.4324V20.3633L49.4113 18.1815V11.956L50.7786 10.5887L51.5641 11.4324ZM49.4113 8.40692V2.58874L51.5641 0.406918V8.95965L50.7786 9.77419L49.4113 8.40692ZM49.2659 9.1051L50.3713 10.1815L49.2659 11.2578H41.6732L40.5968 10.1815L41.6732 9.1051H49.2659ZM71.2516 8.95965L70.4661 9.77419L69.0988 8.40692V2.58874L70.1752 1.48328L71.2516 2.58874V8.95965ZM69.7679 1.07601L68.6916 2.18146H61.6225L59.4697 -0.000354767H68.6916L69.7679 1.07601ZM61.2443 8.40692L59.877 9.77419L59.0625 8.95965V0.406918L61.2443 2.58874V8.40692ZM61.2443 18.1815L59.0625 20.3633V11.4324L59.877 10.5887L61.2443 11.956V18.1815ZM62.7279 13.3524V11.8106H64.2697L71.2516 18.8215V20.3633H69.7097L62.7279 13.3524ZM68.9534 9.1051L70.0588 10.1815L68.9534 11.2578H61.3607L60.2843 10.1815L61.3607 9.1051H68.9534ZM90.9391 -0.000354767L88.7863 2.18146H80.9318L78.75 -0.000354767H90.9391ZM85.9354 19.2869L84.83 20.3633L83.7536 19.2869V13.0324L85.1209 11.6651L85.9354 12.4796V19.2869ZM85.9354 10.0651L85.1209 10.8506L83.7536 9.51237V3.6651L84.83 2.58874L85.9354 3.6651V10.0651Z" fill="white"/>
</svg>
