<svg width="63" height="51" viewBox="0 0 63 51" fill="none" xmlns="http://www.w3.org/2000/svg">
<path d="M60.2887 0.467136C60.4627 0.42558 60.7848 0.377812 61.1242 0.53261L61.2634 0.596096L61.4163 0.665536L61.4308 0.680288C61.588 0.730651 61.7359 0.820672 61.8566 0.949905C62.2331 1.35372 62.2113 1.98698 61.8076 2.36366L61.7348 2.43053L61.0447 3.07508L60.4937 2.54871L60.3585 2.61905L60.0203 2.79635C59.9526 2.83184 59.8827 2.88901 59.8119 2.99313L59.578 3.33621L59.3451 3.67832C59.1169 4.01403 58.8294 4.29995 58.4759 4.50912L58.1562 4.69729L57.8375 4.88645C57.6485 4.99828 57.4522 5.12458 57.2499 5.2661L56.9181 5.49814L56.7002 5.65187L56.708 5.93026L56.7227 6.3415C56.7373 6.76531 56.6588 7.17735 56.4875 7.56546L56.3218 7.94027L56.2146 8.18366L56.3914 8.44664L56.635 8.80774C56.7989 9.05062 56.931 9.36594 56.9243 9.73559C56.9174 10.1122 56.7685 10.4299 56.5739 10.6726L56.3178 10.9921L56.0616 11.3106C56.009 11.3761 55.9694 11.4583 55.9513 11.5803L55.8251 12.4388L55.7806 12.6543C55.7234 12.869 55.6245 13.0843 55.4676 13.2781C55.2558 13.5395 54.982 13.7073 54.6973 13.802L54.3087 13.9321L53.9201 14.0612C53.7613 14.1139 53.6342 14.1827 53.5309 14.2635L53.2304 14.4987L52.9299 14.7348C52.6032 14.9906 52.2295 15.1588 51.8228 15.2368L51.064 15.3818C50.9381 15.4059 50.8239 15.4512 50.7163 15.521L50.3935 15.7316L50.0688 15.9412C49.7282 16.1621 49.3513 16.3016 48.9477 16.3523L48.5694 16.3994L48.1921 16.4475C47.9731 16.475 47.7577 16.512 47.5478 16.5601L47.1829 16.6435L46.8171 16.7278C46.5152 16.7971 46.2089 16.8391 45.8992 16.8532L45.524 16.8701L45.1489 16.8879C44.8588 16.9011 44.5691 16.8959 44.2808 16.874L43.538 16.817C43.4125 16.8074 43.2789 16.8213 43.1334 16.862L42.7723 16.9629L42.872 17.367L42.9736 17.7749C43.0842 18.2178 43.0769 18.6711 42.9339 19.1116L42.8101 19.4906L42.6883 19.8696C42.5656 20.2472 42.3719 20.5907 42.1147 20.893L41.8557 21.1978L41.5957 21.5026C41.3426 21.7999 41.0419 22.0441 40.698 22.2287L40.349 22.4157L39.998 22.6036C39.8453 22.6856 39.7034 22.7881 39.572 22.9131L39.28 23.1913L38.986 23.4705C38.6082 23.8298 38.1336 24.0246 37.61 24.0282L36.8072 24.0323C36.4849 24.0344 36.1672 24.0105 35.8565 23.9582L35.2371 23.8532C35.4743 24.1801 35.6295 24.5481 35.7001 24.9454L35.7668 25.3189L35.8335 25.6934C35.8383 25.7206 35.8522 25.7691 35.9281 25.8464L36.5254 26.4561C36.867 26.8042 37.0939 27.2408 37.1432 27.7486L37.2179 28.5187C37.2425 28.772 37.268 29.0239 37.2946 29.2741L37.3358 29.6543L37.3761 30.0345C37.4146 30.3972 37.3927 30.7586 37.3119 31.1142L37.2272 31.4866L37.1435 31.8591C37.1384 31.8815 37.1338 31.9029 37.1294 31.9225C37.1312 31.9337 37.1336 31.9442 37.135 31.9538C37.1476 32.0355 37.1616 32.1451 37.1767 32.2744L37.2219 32.6556L37.2661 33.0358C37.3015 33.3383 37.314 33.6424 37.3045 33.9472L37.293 34.3319L37.2815 34.7156C37.2681 35.1479 37.1435 35.5548 36.9234 35.9231L36.7188 36.2654L36.5152 36.6067C36.4103 36.7821 36.3285 36.9543 36.2684 37.1226L36.1429 37.4742L36.0183 37.8249C35.8987 38.1599 35.7275 38.4698 35.5098 38.752L35.2772 39.0531L35.0466 39.3513C35.0451 39.3578 35.0427 39.3793 35.0451 39.4206L35.0704 39.8554L35.0966 40.2892C35.1297 40.8465 34.9464 41.3892 34.4961 41.7908L33.9104 42.314C33.7291 42.4757 33.5575 42.6384 33.3962 42.8007L33.1316 43.0654L32.868 43.3311C32.7058 43.4943 32.5494 43.6611 32.3996 43.8307L32.1545 44.1083L31.9103 44.3859C31.7607 44.5554 31.614 44.7313 31.4711 44.9141L31.0059 45.5084C30.8191 45.7471 30.6142 45.9706 30.3928 46.178L29.8403 46.6956C29.6667 46.8581 29.4935 47.0282 29.32 47.2046L29.0456 47.4829L28.7712 47.7622C28.4822 48.0561 28.1385 48.2758 27.749 48.4123L27.3838 48.5396L27.0177 48.6678C26.686 48.7841 26.3424 48.8535 25.9898 48.8764L25.5941 48.9019L25.1974 48.9275C24.9917 48.9408 24.8036 48.9715 24.6314 49.0162L24.2742 49.1084L23.9171 49.2016C23.706 49.2564 23.4965 49.3199 23.2888 49.3925L22.5878 49.6375C22.3817 49.7096 22.1718 49.7929 21.9581 49.888L21.2449 50.2052C20.865 50.3744 20.4603 50.451 20.0431 50.4262L19.6634 50.404L19.2837 50.3808C18.9703 50.3621 18.6604 50.3153 18.355 50.2405L17.9845 50.15L17.6131 50.0585C17.5805 50.0505 17.5288 50.0455 17.4313 50.0816L16.6382 50.3748C16.2 50.5369 15.7325 50.5751 15.2655 50.4511L14.5208 50.2524C14.1979 50.1666 13.8872 50.0448 13.5917 49.8875L13.2492 49.7054L12.9068 49.5223C12.7643 49.4464 12.6163 49.3938 12.4606 49.3629L11.7039 49.213C11.4062 49.1539 11.1132 49.0741 10.8256 48.9744L10.4593 48.8468L10.093 48.7201C9.77599 48.6101 9.4749 48.4647 9.1918 48.2851L8.53846 47.8703C8.29637 47.7166 8.06132 47.553 7.83391 47.379L7.22002 46.9098C6.94904 46.7024 6.70733 46.4632 6.49556 46.1947L6.25455 45.8892L6.01354 45.5828C5.88399 45.4186 5.74525 45.268 5.59778 45.1307L5.31836 44.8709L5.03991 44.6111C4.83455 44.4198 4.63663 44.22 4.44648 44.0122L3.92896 43.448C3.7037 43.2017 3.50957 42.9311 3.34775 42.6391L3.16261 42.3048L2.97649 41.9695C2.80463 41.6594 2.68087 41.3282 2.60457 40.9805L2.52036 40.5971L2.43615 40.2147C2.43407 40.205 2.43315 40.1828 2.3742 40.1361L1.7041 39.606C1.32749 39.3077 1.04838 38.9123 0.925296 38.4276L0.830291 38.0519L0.734311 37.6762C0.623005 37.2377 0.642459 36.7946 0.761127 36.3688L0.877351 35.9526L0.978555 35.589L0.768626 35.3073L0.518076 34.9695C0.186157 34.522 0.0555409 33.9785 0.193124 33.4135L0.380225 32.6414C0.416471 32.4924 0.424787 32.3572 0.410473 32.2304L0.368194 31.8561L0.325923 31.4808C0.297081 31.2253 0.269412 30.9663 0.244489 30.7048L0.171789 29.9367C0.141555 29.6191 0.140762 29.3009 0.169734 28.9835L0.204672 28.6L0.239602 28.2174C0.269551 27.8894 0.334619 27.5675 0.434891 27.2539L0.552716 26.8876L0.669565 26.5212C0.746631 26.2802 0.822602 26.0383 0.897349 25.7962L1.01128 25.4288L1.12423 25.0605C1.25986 24.6214 1.51539 24.2521 1.85664 23.9592L2.17106 23.6889L2.48644 23.4197C2.65866 23.2719 2.80362 23.1246 2.92413 22.9804L3.4028 22.4076C3.48073 22.3142 3.54252 22.2061 3.58679 22.0759L3.71046 21.7115L3.83414 21.3461C3.95018 21.005 4.11652 20.6884 4.33301 20.4014L4.55975 20.1012L4.78551 19.8011C4.89537 19.6554 4.9976 19.4895 5.08983 19.3013L5.26719 18.9402L5.44455 18.5782C5.66597 18.1263 6.02229 17.7817 6.48581 17.5796L6.85218 17.4201L7.21758 17.2606C7.30774 17.2213 7.37775 17.1676 7.43852 17.0893L7.68294 16.7736L7.92834 16.458C8.22746 16.0725 8.62834 15.8088 9.10178 15.6879L9.48726 15.5891L9.87371 15.4902C10.1513 15.4194 10.4279 15.358 10.7031 15.3066L11.0835 15.2361L11.463 15.1655C11.6521 15.1302 11.8272 15.0785 11.9894 15.012L12.3322 14.8709L12.6741 14.7307C12.8065 14.6764 12.9468 14.5952 13.0948 14.4778L13.7371 13.9687C14.1066 13.6756 14.5438 13.502 15.0267 13.4836L15.7984 13.4539C15.9543 13.4479 16.1093 13.4198 16.2658 13.3654L16.6379 13.2352L17.0099 13.106L17.2027 13.0498C17.6525 12.942 18.1037 13.0013 18.5171 13.1948L18.8987 13.3733L19.2812 13.5518C19.3834 13.5996 19.4477 13.6029 19.4938 13.5972L19.873 13.5501L20.2513 13.503C20.5179 13.4697 20.7889 13.4416 21.0634 13.4188L21.4553 13.3865L21.8471 13.3531C22.2024 13.3236 22.5562 13.3449 22.9043 13.4172L23.2836 13.4961L23.662 13.5749C23.9805 13.641 24.2899 13.738 24.5887 13.8666L24.944 14.0195L25.2994 14.1734C25.6015 14.3035 25.8878 14.4641 26.1564 14.6551L26.4741 14.8809L26.7909 15.1058C27.0336 15.2784 27.2649 15.4642 27.4843 15.6625L28.0548 16.1783C28.2338 16.34 28.4123 16.4944 28.5907 16.6411L29.1635 17.1119C29.2228 17.1606 29.3099 17.2091 29.4487 17.2419L30.2579 17.4331C30.7702 17.5541 31.2061 17.8495 31.49 18.3159L31.6937 18.6503L31.8974 18.9858C31.9876 19.1339 32.0906 19.2597 32.2053 19.3669L32.4808 19.6247L32.7573 19.8815C33.0614 20.1655 33.2837 20.5104 33.423 20.8999L33.5542 21.2661L33.6844 21.6332C33.7174 21.7254 33.757 21.8091 33.8008 21.886L34.0461 21.8623L34.4194 21.8249C34.7589 21.7907 35.0992 21.8026 35.4368 21.8595L35.8133 21.9217L36.1898 21.9859C36.3806 22.018 36.5818 22.0335 36.794 22.0322L37.5968 22.0281C37.5986 22.0281 37.6002 22.0281 37.6016 22.0281C37.6034 22.0266 37.6051 22.0237 37.6076 22.0213L38.1935 21.4649C38.4523 21.2187 38.7392 21.0102 39.0524 20.842L39.4024 20.6541L39.7524 20.4651C39.8745 20.3995 39.9807 20.3156 40.0736 20.2066L40.3326 19.9018L40.5925 19.596C40.6811 19.4919 40.744 19.3788 40.7854 19.2517L40.9082 18.8727L41.032 18.4946C41.0528 18.4304 41.0586 18.3594 41.0336 18.2593L40.932 17.8523L40.8304 17.4443C40.7644 17.1802 40.7512 16.9166 40.7871 16.6598L40.7764 16.649L40.5662 16.4141L40.354 16.1792C40.1858 15.9922 40.0287 15.7327 39.9844 15.4032C39.9394 15.0665 40.0268 14.7645 40.1615 14.5265L40.3069 14.2697L40.4513 14.0138C40.5911 13.7668 40.9299 13.3678 41.5173 13.3798C41.9884 13.3896 42.3059 13.6741 42.4401 13.8091L42.9676 14.3402C43.0994 14.4729 43.214 14.6345 43.2933 14.822C43.4246 14.8151 43.5565 14.8128 43.6888 14.8229L44.4326 14.8799C44.6395 14.8956 44.8478 14.8987 45.0575 14.8892L45.4336 14.8723L45.8078 14.8544C45.9979 14.8458 46.1853 14.8207 46.3699 14.7783L46.7347 14.695L47.1006 14.6106C47.3771 14.5472 47.6579 14.498 47.9425 14.4623L48.3207 14.4142L48.699 14.367C48.799 14.3544 48.8901 14.3225 48.981 14.2636L49.3048 14.053L49.6285 13.8433C49.9526 13.6332 50.3079 13.4909 50.6872 13.4182L51.0666 13.3447L51.4461 13.2722C51.5441 13.2533 51.6236 13.217 51.6969 13.1597L51.9974 12.9235L52.2979 12.6893C52.5949 12.4568 52.928 12.2828 53.2879 12.1631L53.6775 12.034L53.8733 11.969L53.9093 11.7182L53.9738 11.287C54.0405 10.8367 54.2137 10.4188 54.5021 10.0593L54.7572 9.74079L54.8095 9.6767L54.7341 9.56581L54.4905 9.20569C54.1505 8.70181 54.0677 8.09428 54.3267 7.50722L54.4925 7.13241L54.6572 6.75758C54.7063 6.6463 54.7283 6.53421 54.7241 6.41039L54.7095 5.99914L54.6958 5.58888C54.675 4.98289 54.9363 4.44451 55.4397 4.09215L55.7715 3.85913L56.1032 3.6271C56.3433 3.45915 56.582 3.30522 56.8184 3.16534L57.1381 2.97619L57.4568 2.78703C57.5287 2.74448 57.6087 2.67517 57.6909 2.5543L57.9238 2.21219L58.1577 1.86813C58.3973 1.51576 58.7083 1.22597 59.0914 1.0251L59.7677 0.670491C59.918 0.591729 60.097 0.512965 60.2887 0.467136ZM12.3595 36.0327C12.2376 36.1561 12.1454 36.2851 12.0775 36.4194L11.9021 36.7668L11.7259 37.1152C11.6732 37.2194 11.6461 37.3249 11.6415 37.4398L11.6261 37.8274L11.6107 38.216C11.6033 38.4022 11.6155 38.5893 11.6487 38.7778L11.7172 39.166L11.7858 39.5532C11.8442 39.885 11.8644 40.2176 11.8432 40.5487L11.8191 40.9206L11.795 41.2916C11.7872 41.4136 11.8019 41.537 11.8421 41.6659L12.0694 42.3941C12.1763 42.7366 12.2283 43.0892 12.2212 43.447L12.2137 43.818L12.2062 44.1881C12.2026 44.3665 12.2176 44.5425 12.2503 44.7167L12.318 45.0805L12.3868 45.4433C12.4317 45.6828 12.4901 46.0661 12.3897 46.416L12.3466 46.5651L12.3266 46.6372L12.2948 46.7054L12.2046 46.9049L11.492 46.5786L11.2995 46.589L10.3343 46.6378C10.4656 46.7148 10.6027 46.7797 10.748 46.8302L11.1153 46.9578L11.4816 47.0854C11.6826 47.1551 11.8869 47.2098 12.0937 47.2508L12.4721 47.3268L12.8505 47.4017C13.1993 47.471 13.5327 47.5901 13.847 47.7574L14.1895 47.9395L14.5319 48.1226C14.6932 48.2084 14.8607 48.2733 15.0345 48.3195L15.7792 48.5181C15.8088 48.526 15.854 48.5322 15.9444 48.4988L16.7375 48.2056C17.168 48.0463 17.628 48.0033 18.0897 48.1165L18.8306 48.2975C19.0193 48.3437 19.2098 48.373 19.4023 48.3845L19.782 48.4068L20.1617 48.4299C20.2506 48.4352 20.3365 48.4205 20.4317 48.3781L21.1448 48.0609C21.3968 47.9487 21.6486 47.8474 21.8999 47.7586C21.887 47.7111 21.8734 47.6619 21.86 47.6109L21.7649 47.2489L21.6688 46.8878C21.603 46.6382 21.5407 46.3872 21.4817 46.1355L21.3964 45.7716L21.3111 45.4067C21.2399 45.1033 21.1967 44.7916 21.18 44.4732L21.1593 44.0785L21.1387 43.6848C21.1381 43.674 21.1367 43.6669 21.1359 43.6633C21.1351 43.6599 21.1344 43.6575 21.134 43.6564C21.1334 43.6551 21.1286 43.646 21.1127 43.6289L20.8413 43.3379L20.5699 43.046C20.2375 42.6891 20.0449 42.2535 19.99 41.7762L19.9421 41.3647L19.9016 41.0168L19.6158 40.8361L19.2687 40.6178C18.9122 40.3926 18.6158 40.0965 18.3989 39.7308L18.2021 39.3973L18.0042 39.0639C17.9446 38.9634 17.872 38.8864 17.7823 38.824L17.1545 38.3879C16.883 38.1993 16.6342 37.9804 16.4081 37.7342L16.1406 37.4442L15.8731 37.1533C15.8465 37.1243 15.8257 37.1105 15.7759 37.1018L14.9858 36.9634C14.5759 36.8918 14.195 36.733 13.8583 36.4847L13.5474 36.256L13.2365 36.0262C13.2554 36.0401 13.2333 36.0195 13.1313 35.9893C13.0327 35.9603 12.8875 35.9313 12.6865 35.91L12.5002 35.8902L12.3595 36.0327ZM16.5581 29.9089C16.5065 29.9166 16.4375 29.9316 16.3508 29.9573L15.8634 30.1013L15.7072 30.3765C15.4653 30.8022 15.2253 31.1728 14.9887 31.4399L14.7386 31.7223L14.4886 32.0037C14.2917 32.2259 14.0759 32.4387 13.8434 32.6418L13.5398 32.9072L13.3354 33.0845L13.3837 33.4383L13.4431 33.8811C13.4488 33.9237 13.4508 33.9667 13.4539 34.0092C13.803 34.0861 14.1426 34.21 14.4227 34.4164L14.7346 34.6461L15.0455 34.8759C15.1234 34.9332 15.2135 34.9728 15.3298 34.9931L16.1199 35.1315C16.5966 35.2148 17.017 35.4416 17.3466 35.8004L17.6141 36.0904L17.8806 36.3813C18.0106 36.5228 18.1493 36.6437 18.296 36.7456L18.9238 37.1817C19.2522 37.4098 19.5207 37.7003 19.7244 38.0438L20.1201 38.7107C20.1665 38.7888 20.2326 38.8609 20.3373 38.927L20.6834 39.1453L21.0295 39.3646C21.4582 39.6354 21.7391 40.0371 21.8466 40.5159L21.8822 40.7261L21.9291 41.1366L21.977 41.5481C21.9851 41.6185 22.0044 41.6518 22.0337 41.6832L22.3051 41.9742L22.5765 42.2662C22.9157 42.6304 23.1093 43.0811 23.1355 43.5807L23.1768 44.3681C23.1877 44.5742 23.2151 44.7679 23.2577 44.9498L23.344 45.3147L23.4293 45.6786C23.4842 45.9125 23.5419 46.1461 23.6031 46.378L23.6982 46.7391L23.7933 47.1011C23.7989 47.1224 23.8051 47.1428 23.8104 47.1627L24.1284 47.08C24.4318 47.0012 24.7457 46.9523 25.068 46.9314L25.4646 46.9059L25.8603 46.8803C26.0361 46.8689 26.2003 46.8349 26.3562 46.7803L26.7223 46.653L27.0875 46.5247C27.1855 46.4904 27.2688 46.4376 27.3455 46.3596L27.619 46.0812L27.8934 45.8019C28.0855 45.6065 28.2792 45.4177 28.4736 45.2357L28.6496 45.0699L28.5508 45.0887L28.3816 45.1198L27.7783 45.6478L27.5913 45.4326L27.5468 45.3815L27.5091 45.3246L27.4067 45.1676C27.092 44.6887 27.1876 44.1423 27.2537 43.8657L27.3403 43.5011L27.4278 43.1374C27.4929 42.8655 27.5731 42.5853 27.6672 42.2983L27.7969 41.9017L27.8698 41.6776L27.6749 41.4741L27.3696 41.1555C27.0877 40.8609 26.8585 40.5203 26.7225 40.1304L26.6029 39.7858L26.4822 39.4412C26.3594 39.0887 26.3071 38.7182 26.3113 38.3423L26.3162 37.9302L26.321 37.5171C26.3227 37.3683 26.2964 37.2461 26.2524 37.1397L26.1045 36.7812L25.9557 36.4227C25.9048 36.2997 25.8351 36.1923 25.7422 36.096L25.4727 35.8168L25.2032 35.5365C25.1123 35.4423 24.9992 35.3611 24.8562 35.2938L24.4864 35.1194L24.1155 34.9449C23.7901 34.7918 23.491 34.5997 23.229 34.3634L22.9582 34.1193L22.6865 33.8742C22.493 33.6997 22.3038 33.5194 22.1181 33.334L21.8572 33.0734L21.5963 32.8137C21.438 32.6557 21.2725 32.5008 21.1006 32.3502L20.8191 32.1041L20.5367 31.857C20.3503 31.6938 20.1596 31.527 19.964 31.3578L19.6679 31.1028L19.3768 30.8497C19.3738 30.8497 19.3695 30.8495 19.365 30.8497L18.9606 30.8654L18.5552 30.882C18.0169 30.9031 17.5293 30.718 17.133 30.3778L16.8078 30.0972L16.5855 29.9062C16.5773 29.9071 16.568 29.9075 16.5581 29.9089ZM25.5915 16.9294L25.6745 17.2064L25.9607 18.1645L25.8648 18.1931L25.7033 18.2408L25.5354 18.2338L24.8149 18.2033C24.6368 18.1956 24.5259 18.2092 24.4661 18.2233C24.4556 18.2257 24.4474 18.2281 24.4416 18.2299L24.1469 18.4827L23.8256 18.7588C23.3141 19.1979 22.6808 19.2746 22.0899 19.0678L21.6564 18.9163L21.3622 18.8127L21.202 18.9649L20.9011 19.2479C20.6035 19.5277 20.2573 19.7427 19.8645 19.8695L19.15 20.1008C18.8857 20.1861 18.6146 20.261 18.3378 20.3265L17.9602 20.4166L17.5875 20.5038C17.584 20.5078 17.5786 20.515 17.5717 20.5252L17.3398 20.8703L17.1078 21.2163C16.8134 21.6539 16.3852 21.9533 15.8606 22.0659L15.4655 22.15L15.1417 22.219L14.9882 22.5256L14.804 22.8924C14.5816 23.3331 14.2319 23.6784 13.7706 23.8822L13.412 24.0408L13.0525 24.1994C12.9446 24.2471 12.8677 24.3071 12.8071 24.3784L12.5629 24.6647L12.3196 24.9511C12.1148 25.1917 11.886 25.4122 11.6362 25.6123L11.0293 26.0983C11.0158 26.1092 11.0116 26.1163 11.0096 26.1196C11.0071 26.1238 10.9994 26.1375 10.9926 26.1683L10.9059 26.5632L10.82 26.9591C10.7029 27.4955 10.3878 27.9227 9.94106 28.2117L9.58296 28.4436L9.3897 28.5682L9.42104 28.8311L9.47359 29.2719C9.52142 29.6758 9.50056 30.0836 9.38013 30.4754L9.27217 30.8272L9.16422 31.178C9.03356 31.6028 8.78841 31.9625 8.47688 32.2581L8.16424 32.5538L7.93812 32.767L7.99091 33.035L8.07009 33.4389C8.13734 33.781 8.1652 34.1231 8.14588 34.4619L8.1247 34.8328L8.10353 35.2028C8.08748 35.4835 8.05727 35.763 8.01265 36.0401L7.89421 36.7697C7.84722 37.0615 7.77838 37.3527 7.68883 37.6414L7.46097 38.3781C7.38636 38.6186 7.31183 38.8641 7.23897 39.1128L7.12788 39.4929L7.01581 39.874C6.97183 40.0244 6.9561 40.167 6.96296 40.3052L6.98175 40.6862L7.00054 41.0682C7.00138 41.0849 7.0055 41.1334 7.07853 41.226L7.35148 41.5717L7.62346 41.9174C7.72899 42.0512 7.85046 42.2202 7.93352 42.403C7.97405 42.4922 8.0358 42.6472 8.04859 42.8413C8.06242 43.0526 8.01916 43.3767 7.76259 43.6498L7.68388 43.7323L7.53825 43.8885L7.34138 43.9701L7.28457 43.9932C7.38834 44.1062 7.48811 44.2235 7.58385 44.3449L8.06588 44.9557C8.17527 45.0945 8.29779 45.2163 8.43537 45.3216L9.04926 45.7908C9.23021 45.9293 9.4171 46.0601 9.60998 46.1825L9.93666 46.3889L10.2633 46.5963C10.2751 46.6038 10.2874 46.6108 10.2993 46.618L10.2959 46.5409L10.283 46.2956L10.3852 46.0727L10.4408 45.9491C10.44 45.942 10.4401 45.9335 10.439 45.9247C10.4351 45.8947 10.4296 45.8572 10.4212 45.8122L10.3525 45.4494L10.2847 45.0857C10.2267 44.7764 10.2002 44.4635 10.2064 44.1486L10.2139 43.7775L10.2214 43.4074C10.2241 43.2717 10.2045 43.1341 10.1599 42.991L10.0463 42.6259L9.93261 42.2618C9.82123 41.9051 9.77589 41.5371 9.79974 41.1642L9.82287 40.7923L9.84698 40.4213C9.85749 40.2575 9.84793 40.0838 9.81551 39.8996L9.74793 39.5124L9.67937 39.1252C9.62171 38.7976 9.59899 38.4673 9.61214 38.1364L9.62758 37.7478L9.64302 37.3602C9.65903 36.958 9.75966 36.5721 9.94117 36.2129L10.1175 35.8645L10.2928 35.5171C10.4592 35.1879 10.6765 34.8903 10.9378 34.6262L11.226 34.3352L11.4551 34.1025L11.4023 33.7046L11.3419 33.2608C11.2635 32.6754 11.4351 32.0904 11.9206 31.6662L12.5279 31.1353C12.7004 30.9846 12.8546 30.8317 12.9911 30.6777L13.2411 30.3953L13.4922 30.1128C13.589 30.0034 13.7471 29.7773 13.968 29.3886L14.1569 29.056C14.1576 29.0426 14.158 29.0297 14.1591 29.0179C14.1759 28.8426 14.2343 28.7129 14.2573 28.6651C14.3094 28.5568 14.3722 28.4736 14.3985 28.4395C14.4634 28.3554 14.545 28.2668 14.621 28.1872L15.0461 27.7429C15.1153 27.6705 15.2022 27.555 15.2996 27.3804L15.6834 26.6917C15.9319 26.2459 16.3156 25.9285 16.7877 25.7561L17.1686 25.6172L17.5504 25.4773C17.727 25.4129 17.8741 25.3354 17.9964 25.2481L18.2997 25.0305L18.603 24.8139C18.7792 24.6879 18.9514 24.5522 19.1186 24.4073L19.4045 24.1593L19.6904 23.9123C19.9917 23.6513 20.4062 23.4245 20.8594 23.2194L21.3943 22.9761L21.5544 22.8542L21.7667 22.8049L21.8645 22.7822L22.0474 22.7395L22.231 22.6012C22.5539 22.356 22.9253 22.2199 23.3045 22.1595L23.6809 22.0997L24.0563 22.0398C24.3149 21.9986 24.5714 21.9619 24.8247 21.9281L25.1913 21.8789L25.5588 21.8297C25.5639 21.829 25.6152 21.8236 25.7157 21.7322L26.045 21.4318L26.3753 21.1314C26.788 20.7559 27.3268 20.5653 27.9097 20.6813L28.0267 20.7085L28.8065 20.9171C29.0809 20.9904 29.3484 21.0691 29.6086 21.1523L29.976 21.2691L30.3423 21.3869C30.3372 21.3853 30.3787 21.3978 30.4907 21.3978C30.6009 21.3977 30.7526 21.3851 30.952 21.3522L31.3333 21.2885L30.8404 20.8279C30.5876 20.5918 30.3701 20.3233 30.1889 20.0255L29.9852 19.69L29.795 19.3781L29.3943 19.2835L28.9897 19.1879C28.5896 19.0934 28.2162 18.9217 27.8938 18.6567L27.3209 18.1858C27.1175 18.0186 26.9145 17.8439 26.7133 17.662L26.429 17.4041L26.1437 17.1462C25.9828 17.0009 25.8119 16.8643 25.6319 16.7364L25.6008 16.7137L25.5915 16.9294ZM22.9523 24.7284L22.6552 24.7644C22.638 24.7742 22.6216 24.7861 22.6042 24.7952C22.5554 24.8207 22.4175 24.8912 22.2361 24.9186C22.1737 24.928 22.0725 24.935 21.95 24.9195L21.6835 25.0407C21.2829 25.222 21.0799 25.3545 21.0001 25.4236L20.7142 25.6716L20.4282 25.9186C20.2146 26.1037 19.9931 26.2784 19.7653 26.4412L19.462 26.6579L19.1597 26.8745C18.878 27.0758 18.5677 27.2353 18.2364 27.3562L17.8545 27.4952L17.4736 27.635C17.4603 27.6399 17.4515 27.6441 17.4472 27.6466C17.4438 27.6485 17.4417 27.6501 17.4413 27.6504C17.441 27.6507 17.4401 27.6515 17.4393 27.6524C17.4379 27.6542 17.4345 27.6587 17.4304 27.666L17.3929 27.7312L18.8625 27.4701L17.8222 28.3328L18.1105 28.58L18.4357 28.8596C18.4492 28.8712 18.4588 28.8783 18.4639 28.8813C18.4653 28.8822 18.4668 28.8828 18.4678 28.8833C18.469 28.8834 18.4721 28.8835 18.4766 28.8834L18.882 28.8677L19.2864 28.851C19.7996 28.8308 20.2846 28.9913 20.6814 29.3345L20.9765 29.5895L21.2726 29.8455C21.4711 30.0173 21.6654 30.1866 21.8549 30.3526L22.1364 30.5987L22.4189 30.8458C22.6228 31.0245 22.8192 31.2088 23.0087 31.3979L23.2696 31.6585L23.5304 31.9182C23.6924 32.0799 23.858 32.2368 24.0262 32.3885L24.2979 32.6336L24.5686 32.8787C24.6683 32.9685 24.7976 33.0561 24.9662 33.1354L25.3371 33.3089L25.7079 33.4834C26.059 33.6485 26.374 33.8696 26.6427 34.1482L26.9122 34.4275L27.1817 34.7077C27.4484 34.9842 27.657 35.3025 27.8039 35.6575L27.9528 36.0159L28.1006 36.3744C28.2544 36.746 28.3254 37.1387 28.3209 37.5401L28.3161 37.9521L28.3112 38.3652C28.3092 38.5395 28.3335 38.6757 28.3707 38.7826L28.4914 39.1272L28.611 39.4718C28.6352 39.5412 28.6906 39.6431 28.8149 39.7731L29.1193 40.0917L29.4247 40.4102C29.6234 40.6179 29.7908 40.8812 29.8693 41.2015C29.9486 41.5253 29.9211 41.8426 29.8276 42.128L29.6978 42.5245L29.5681 42.9201C29.4891 43.1612 29.4239 43.389 29.3728 43.6023L29.2863 43.967L29.2169 44.2536L29.2866 44.3332L29.3351 44.3892C29.3668 44.3516 29.4002 44.3154 29.4306 44.2766L29.8957 43.6822C30.0627 43.4688 30.2344 43.2617 30.4109 43.0618L30.655 42.7842L30.9001 42.5076C31.0764 42.3079 31.2595 42.1125 31.4492 41.9216L31.7138 41.6559L31.9774 41.3902C32.1682 41.1983 32.3695 41.0082 32.5791 40.8212L32.872 40.5606L33.096 40.359L33.0777 40.0474L33.0768 40.0474L32.9743 40.033C32.665 39.9874 32.4069 39.8114 32.2471 39.5718C32.1119 39.3689 32.0766 39.1672 32.0652 39.0568C32.0427 38.8388 32.0809 38.6316 32.1091 38.5024L32.1768 38.1904L32.2454 37.8783C32.2948 37.6521 32.3563 37.404 32.4284 37.1355L32.5317 36.7495L32.615 36.4366L32.4138 36.1588L32.173 35.827C31.9672 35.5428 31.7997 35.2406 31.6784 34.9211L31.548 34.5794L31.4185 34.2376C31.3256 33.9928 31.2393 33.7439 31.1592 33.4926L31.0464 33.1412L30.9346 32.7889C30.8836 32.6288 30.8144 32.478 30.7279 32.3343L30.5377 32.0175L30.3476 31.7017C30.1725 31.4111 30.0389 31.0985 29.945 30.7682L29.8383 30.3924L29.7315 30.0176C29.6839 29.85 29.6178 29.6954 29.5327 29.5533L29.3357 29.2257L29.1388 28.8972C29.0883 28.8129 29.0235 28.7444 28.9323 28.6858L28.6047 28.4754L28.2771 28.2641C28.0929 28.1458 27.9045 28.0414 27.7129 27.9496L27.0238 27.6185C26.7492 27.4868 26.4894 27.3367 26.2457 27.1677L25.9483 26.9625L25.6519 26.7563C25.3766 26.5653 25.1293 26.3358 24.9077 26.0752L24.651 25.7746L24.3944 25.473C24.2833 25.3425 24.158 25.2303 24.0159 25.1353L23.6873 24.9162L23.3977 24.7218C23.3893 24.7201 23.3768 24.7176 23.3606 24.7156C23.2834 24.7065 23.152 24.7043 22.9523 24.7284ZM6.79983 43.2133L6.47753 43.2179L6.68127 43.4078L6.9607 43.6666C6.99992 43.7032 7.03791 43.7412 7.07612 43.7788L6.83988 43.2127L6.79983 43.2133ZM17.2944 15.1247L16.9224 15.2539C16.5827 15.372 16.2323 15.4389 15.8741 15.4525L15.1024 15.4822C15.0714 15.4835 15.0378 15.4902 14.98 15.5361L14.6588 15.7906L14.3386 16.0452C14.0589 16.2672 13.7565 16.449 13.4325 16.5818L13.0907 16.722L12.7479 16.8621C12.4539 16.9826 12.1472 17.0718 11.8299 17.131L11.4505 17.2026L11.0701 17.2731C10.8389 17.3163 10.6046 17.3679 10.3678 17.4283L9.98236 17.5272L9.59592 17.625C9.5551 17.6355 9.53596 17.6487 9.50859 17.684L9.01779 18.3153C8.75199 18.6578 8.41465 18.9211 8.01714 19.0944L7.65077 19.2539L7.28538 19.4134C7.26734 19.4213 7.2611 19.4268 7.25988 19.4279C7.25958 19.4282 7.25139 19.4351 7.24014 19.4581L6.8854 20.1821C6.74127 20.4762 6.57418 20.7516 6.3825 21.0057L6.15577 21.3059L5.93001 21.6061C5.84484 21.719 5.77736 21.8455 5.72807 21.9904L5.60342 22.3548L5.47974 22.7201C5.35874 23.0758 5.17766 23.4016 4.93675 23.6899L4.45808 24.2627C4.25952 24.5004 4.03527 24.7248 3.78826 24.9367L3.15943 25.4772C3.08175 25.5439 3.05098 25.5999 3.03515 25.6512L2.9222 26.0185L2.80826 26.3869C2.73157 26.6352 2.65357 26.8831 2.57449 27.1304L2.45764 27.4967L2.33981 27.8631C2.28404 28.0375 2.24826 28.2157 2.23154 28.3985L2.16166 29.1656C2.14399 29.3592 2.14392 29.5533 2.16243 29.7476L2.19976 30.1317L2.23611 30.5157C2.25995 30.7659 2.28541 31.0129 2.31291 31.2565L2.35518 31.6319L2.39746 32.0062C2.43948 32.3785 2.41307 32.7501 2.32419 33.1151L2.22967 33.5011L2.15224 33.816L2.37474 34.1154L2.62529 34.4532C2.98224 34.9344 3.07797 35.5071 2.9205 36.0725L2.80427 36.4896L2.68804 36.9058C2.65193 37.0354 2.65756 37.1216 2.67338 37.184L2.76839 37.5597L2.86437 37.9354C2.86845 37.9515 2.87641 37.9837 2.94567 38.0385L3.28073 38.3026L3.6148 38.5677C4.00163 38.8739 4.2804 39.285 4.39039 39.7861L4.47363 40.1685L4.55784 40.5519C4.59357 40.7147 4.64988 40.8627 4.72558 40.9994L5.08334 41.6445C5.03991 41.492 5.01097 41.3331 5.00272 41.1674L4.98393 40.7854L4.96514 40.4044C4.94676 40.0343 4.99243 39.6683 5.09689 39.3116L5.20798 38.9305L5.32005 38.5504C5.39579 38.2919 5.47225 38.0363 5.55007 37.7854L5.66498 37.4171L5.77891 37.0488C5.84177 36.8461 5.88845 36.6469 5.91985 36.4521L5.97907 36.0873L6.03732 35.7214C6.07102 35.5121 6.09409 35.3007 6.10625 35.0881L6.14858 34.3482C6.15741 34.1937 6.14576 34.0198 6.10736 33.8244L6.02817 33.4215L5.94899 33.0176C5.82644 32.394 6.03282 31.819 6.47509 31.3992L6.78773 31.1036L7.10038 30.807C7.20486 30.7078 7.23882 30.6339 7.25231 30.5903L7.36124 30.2394L7.46919 29.8877C7.49276 29.811 7.50922 29.6902 7.48751 29.5069L7.43496 29.0661L7.38338 28.6263C7.34879 28.3347 7.37527 28.0144 7.51586 27.7053C7.65767 27.3938 7.88475 27.1604 8.13905 26.9958L8.49714 26.765L8.85523 26.5331C8.86021 26.5299 8.86396 26.5258 8.86702 26.5234L8.95178 26.1373L9.03856 25.7424C9.14265 25.2653 9.39101 24.848 9.77952 24.5367L10.082 24.2947L10.3855 24.0517C10.5396 23.9282 10.6765 23.7952 10.7965 23.6542L11.0398 23.3678L11.284 23.0814C11.5482 22.7711 11.8735 22.5343 12.2441 22.3704L12.6036 22.2118L12.9622 22.0523C12.9778 22.0454 12.9846 22.0406 12.9877 22.0378C12.991 22.0346 13.0029 22.0216 13.0183 21.9911L13.2025 21.6252L13.3877 21.2584L13.4925 21.0745C13.7568 20.6653 14.1567 20.385 14.6505 20.279L15.0457 20.1949L15.4398 20.1097C15.4418 20.1073 15.4449 20.1042 15.4477 20.1L15.6797 19.755L15.9126 19.409C16.1968 18.9866 16.6068 18.6821 17.1217 18.5601L17.4993 18.47L17.8769 18.3808C18.1037 18.3271 18.3235 18.2654 18.5355 18.197L18.8927 18.0823L19.25 17.9667C19.3333 17.9398 19.4265 17.8886 19.5305 17.7909L19.8324 17.5079L20.1342 17.2239L20.2216 17.1474C20.4316 16.9742 20.6854 16.8466 20.9771 16.7943C21.2221 16.7504 21.4579 16.7654 21.6742 16.8158L21.8837 16.8769L22.3172 17.0294L22.6387 17.142L22.8441 16.9657L23.1644 16.6906C23.6589 16.2657 24.3094 16.1832 24.871 16.2036C24.7546 16.1303 24.6351 16.0639 24.5091 16.0097L23.7983 15.7038C23.6232 15.6284 23.4422 15.5718 23.2556 15.533L22.8762 15.4542L22.4979 15.3753C22.3408 15.3427 22.1799 15.3326 22.0127 15.3465L21.229 15.4113C20.9811 15.4318 20.7374 15.4574 20.499 15.4872L20.1207 15.5343L19.7415 15.5814C19.2826 15.6387 18.8402 15.5536 18.4334 15.3632L17.6683 15.0062C17.6619 15.0032 17.6568 15.0008 17.6528 14.9993L17.2944 15.1247ZM27.3911 22.9111L27.0618 23.2115C26.7228 23.5198 26.3084 23.7474 25.8241 23.8121L25.5944 23.8427C25.7082 23.9476 25.8172 24.0583 25.9182 24.177L26.1739 24.4787L26.4306 24.7793C26.5505 24.9203 26.6714 25.0296 26.7915 25.1129L27.0889 25.3182L27.3853 25.5244C27.5369 25.6295 27.7046 25.7265 27.8891 25.815L28.5782 26.1461C28.8458 26.2744 29.1059 26.42 29.3583 26.5823L30.0136 27.0029C30.359 27.225 30.6435 27.516 30.8551 27.8692L31.052 28.1978L31.248 28.5263C31.4249 28.8219 31.5607 29.1377 31.6554 29.4706L31.7621 29.8454L31.8688 30.2212C31.9171 30.3912 31.9824 30.5394 32.061 30.6698L32.4413 31.3014C32.6083 31.5787 32.742 31.8728 32.8403 32.1812L32.9521 32.5336L33.0639 32.885C33.1331 33.1022 33.2079 33.3164 33.2879 33.5272L33.4183 33.8699L33.5477 34.2117C33.5994 34.3479 33.6789 34.4955 33.7936 34.6538L34.0334 34.9856L34.2743 35.3174C34.4232 35.5231 34.5249 35.7477 34.5811 35.9827C34.6467 35.8466 34.7191 35.7126 34.7978 35.5809L35.0024 35.2386L35.207 34.8972C35.2591 34.81 35.2794 34.733 35.2819 34.6536L35.2944 34.2699L35.3059 33.8852C35.3123 33.6786 35.3039 33.4732 35.28 33.2688L35.2348 32.8876L35.1906 32.5074C35.1855 32.4633 35.179 32.4246 35.1749 32.3911C35.1608 32.3586 35.1503 32.3355 35.147 32.3255C35.1005 32.186 35.0973 32.0689 35.0963 32.0399C35.0934 31.9584 35.1012 31.8913 35.1033 31.873C35.1094 31.8196 35.119 31.7666 35.1258 31.7306C35.1411 31.6501 35.1637 31.5421 35.1925 31.4156L35.3618 30.6707C35.3937 30.53 35.4025 30.3899 35.3873 30.246L35.3067 29.4857C35.2795 29.2293 35.2524 28.971 35.2272 28.7117L35.1899 28.3266L35.1526 27.9426C35.1516 27.9322 35.1501 27.9258 35.1469 27.9191C35.1429 27.9111 35.1306 27.89 35.0985 27.8572L34.7998 27.5524L34.5002 27.2475C34.178 26.9191 33.948 26.5153 33.8642 26.0438L33.7308 25.2948C33.7128 25.1936 33.6769 25.1079 33.6184 25.0274L33.396 24.7221L33.1735 24.4158C33.0282 24.2158 32.8831 24.0187 32.7382 23.8248L32.7034 23.7787C32.6222 23.7603 32.54 23.7425 32.4587 23.7213L31.7734 23.5416L31.8547 23.2287L31.2788 23.3252C30.7626 23.4106 30.2103 23.4439 29.7341 23.2919L29.3668 23.175L29.0004 23.0572C28.772 22.9842 28.535 22.9145 28.2899 22.849L27.9 22.7457L27.6466 22.6775L27.3911 22.9111Z" fill="black"/>
</svg>
