<svg width="32" height="32" viewBox="0 0 32 32" fill="none" xmlns="http://www.w3.org/2000/svg">
<path fill-rule="evenodd" clip-rule="evenodd" d="M15.6592 4.41992L15.9521 4.44141L16.2451 4.46191C16.5586 4.48412 16.8561 4.57782 17.124 4.74707L17.3633 4.89844L17.6016 5.04883C17.8614 5.21307 18.0729 5.4315 18.2383 5.6875L18.4062 5.94824L18.5752 6.20898C18.6358 6.30286 18.6961 6.40231 18.7402 6.49414C18.7602 6.53569 18.7945 6.61232 18.8164 6.70508C18.8272 6.751 18.8444 6.83639 18.8379 6.94238C18.8321 7.03551 18.8029 7.19779 18.6855 7.35449C18.6846 7.35786 18.6845 7.36166 18.6836 7.36523C18.6746 7.39847 18.664 7.43832 18.6523 7.48535L18.5762 7.79004L18.501 8.09473C18.3998 8.50181 18.147 8.82903 17.7705 9.02539L17.4971 9.16797L17.2246 9.31055C17.0711 9.39061 16.9101 9.44966 16.7441 9.49023C16.7436 9.59155 16.7435 9.67946 16.7432 9.75391L16.7412 10.2539C16.7411 10.2712 16.742 10.2874 16.7422 10.3027L16.7998 10.3047L17.1103 10.3115L17.4219 10.3193C17.6239 10.3243 17.8262 10.3275 18.0283 10.3281L18.6514 10.3301C18.8203 10.3306 18.9899 10.3175 19.1601 10.292L19.4717 10.2451L19.7822 10.1992C20.0329 10.1616 20.285 10.1463 20.5371 10.1533L20.8486 10.1611L21.1592 10.1699C21.3775 10.176 21.5962 10.1866 21.8144 10.2021L22.126 10.2246L22.4365 10.2471C22.6475 10.2621 22.8602 10.2788 23.0732 10.2969L23.7021 10.3496C24.1002 10.3835 24.4503 10.5575 24.7197 10.8506L24.9355 11.084L25.1504 11.3184C25.3961 11.5857 25.5499 11.9099 25.5957 12.2734L25.6348 12.5801L25.6738 12.8877C25.7017 13.1089 25.7222 13.3318 25.7353 13.5557L25.7529 13.8672L25.7715 14.1777C25.7722 14.1907 25.7726 14.2038 25.7734 14.2168C26.0833 14.1864 26.4225 14.1951 26.7236 14.3203L26.8828 14.4004L27.1377 14.5518L27.3916 14.7031C27.72 14.8986 27.95 15.1916 28.0723 15.5459L28.1728 15.8369L28.2734 16.1289C28.3747 16.4229 28.4117 16.7284 28.3857 17.0381L28.3594 17.3496L28.334 17.6602C28.317 17.8628 28.302 18.0659 28.2891 18.2686L28.2685 18.5801L28.249 18.8906C28.2373 19.0739 28.2342 19.2573 28.2402 19.4404L28.25 19.752L28.2607 20.0635C28.2718 20.4013 28.1963 20.7271 28.0332 21.0254L27.8877 21.292L27.7422 21.5576C27.5238 21.957 27.154 22.1933 26.7178 22.248L26.4033 22.2871L26.0889 22.3271C26.0065 22.3375 25.923 22.342 25.8408 22.3477C25.829 22.405 25.8184 22.4628 25.8018 22.5195L25.7119 22.8262L25.6221 23.1318C25.5648 23.3275 25.5125 23.5186 25.4648 23.7051L25.3896 23.999L25.3144 24.292C25.2117 24.6943 24.9606 25.008 24.6094 25.208L24.335 25.3643L24.0596 25.5215C23.7566 25.6938 23.4231 25.7768 23.0742 25.7646L22.7598 25.7529L22.4463 25.7422C22.2346 25.7348 22.0234 25.7262 21.8135 25.7168L21.5019 25.7031L21.1914 25.6895C21.0102 25.6813 20.8287 25.6824 20.6475 25.6934L20.3359 25.7119L20.0254 25.7314C19.8215 25.7438 19.617 25.7573 19.4131 25.7725L19.1016 25.7949L18.79 25.8184C18.547 25.8364 18.3036 25.8371 18.0605 25.8203L17.749 25.7988L17.4385 25.7773C17.2185 25.7621 16.9981 25.7412 16.7783 25.7148L16.1553 25.6406C16.0238 25.6249 15.8925 25.6286 15.7588 25.6533L15.4473 25.7109L15.1367 25.7686C14.8589 25.82 14.5781 25.8316 14.2978 25.8018L13.9863 25.7686L13.6758 25.7354C13.5303 25.7199 13.3845 25.7223 13.2383 25.7432L12.9268 25.7881L12.6162 25.832C12.3594 25.8688 12.1009 25.8795 11.8428 25.8643L11.5312 25.8467L11.2207 25.8281C11.0047 25.8154 10.7882 25.7985 10.5723 25.7783L10.2607 25.749L9.95019 25.7197C9.77364 25.7032 9.59597 25.6977 9.41796 25.7031L8.79101 25.7227C8.42216 25.7338 8.07397 25.631 7.7705 25.4199L7.51464 25.2412L7.2578 25.0635C6.94861 24.8483 6.72888 24.5466 6.62792 24.1768L6.54784 23.8867L6.46874 23.5967C6.39667 23.3326 6.36425 23.0615 6.36913 22.7861L6.37499 22.4766L6.3789 22.1787L6.36913 22.1797C5.96264 22.1896 5.52366 22.1656 5.18652 22.0049L4.69628 21.7705C4.36028 21.6103 4.13354 21.3396 4.01757 21.0146L3.9746 20.873L3.90331 20.5879L3.833 20.3018C3.76903 20.0446 3.74042 19.7806 3.74511 19.5117L3.74999 19.2002L3.75585 18.8887C3.75952 18.6797 3.76358 18.4707 3.76855 18.2617L3.77636 17.9502L3.7832 17.6396C3.78728 17.4677 3.78012 17.2947 3.75976 17.1221L3.72265 16.8115L3.68554 16.5C3.64062 16.1192 3.72613 15.7516 3.93847 15.4297L4.10937 15.1709L4.27929 14.9131C4.54301 14.5134 4.96347 14.3077 5.43847 14.3408L6.05956 14.3838C6.18511 14.3926 6.27667 14.3931 6.33984 14.3926C6.34518 14.3099 6.34696 14.2276 6.34081 14.1455L6.29394 13.5225C6.27188 13.2287 6.30012 12.9383 6.3828 12.6562L6.46777 12.3682L6.55175 12.0801C6.64565 11.7601 6.81804 11.4797 7.06249 11.252L7.28124 11.0488L7.49902 10.8457C7.68975 10.6681 7.91902 10.504 8.18749 10.416L8.38085 10.3525L8.57323 10.2891C8.64096 10.2669 8.71136 10.2454 8.77148 10.2305C8.79489 10.2247 8.85362 10.2102 8.92187 10.2041C8.94513 10.202 9.0446 10.193 9.16503 10.2207C9.17412 10.2228 9.18419 10.2281 9.19628 10.2314C9.21307 10.2302 9.23136 10.2291 9.25097 10.2275L9.56249 10.2021L9.87304 10.1768C10.0873 10.1595 10.3023 10.1452 10.5166 10.1338L10.8281 10.1182L11.1387 10.1016C11.4101 10.0872 11.6812 10.1073 11.9492 10.1611L12.2598 10.2236L12.5713 10.2861C12.7008 10.3121 12.8275 10.3164 12.9541 10.3008L13.2656 10.2627L13.5771 10.2236C13.832 10.1922 14.0882 10.1854 14.3437 10.2031L14.6543 10.2246L14.9658 10.2461C15.0575 10.2525 15.1495 10.2542 15.2412 10.2588C15.2412 10.2546 15.2412 10.2503 15.2412 10.2461L15.2432 9.74609C15.2435 9.67901 15.2436 9.60121 15.2441 9.5127C15.0917 9.4725 14.9445 9.41281 14.8047 9.33301L14.542 9.18262L14.2783 9.03223C13.9362 8.8369 13.6964 8.53509 13.5791 8.16211L13.4873 7.86914L13.3945 7.57617C13.2842 7.22538 13.2906 6.86054 13.4248 6.51172L13.6377 5.95898C13.7498 5.66747 13.9229 5.41126 14.1523 5.19922L14.3691 4.99805L14.5869 4.79785L14.7012 4.70215C14.9367 4.52386 15.2125 4.42568 15.5088 4.41699L15.6592 4.41992ZM10.5957 11.6318C10.3952 11.6425 10.1946 11.6557 9.99413 11.6719L9.37109 11.7227C9.26506 11.7312 9.17243 11.737 9.10155 11.7393C9.07014 11.7402 9.01996 11.7417 8.96874 11.7383L8.96777 11.7373L8.84765 11.7773L8.65429 11.8408C8.66222 11.8382 8.65443 11.8396 8.62987 11.8555C8.605 11.8716 8.5686 11.8995 8.52148 11.9434L8.30273 12.1465L8.08495 12.3496C8.03899 12.3924 8.00983 12.4394 7.9912 12.5029L7.90722 12.79L7.82226 13.0781C7.79242 13.1799 7.77997 13.289 7.78905 13.4102L7.83593 14.0332C7.8561 14.3023 7.84361 14.571 7.79784 14.8379L7.74511 15.1426C7.7412 15.1825 7.73475 15.2203 7.72558 15.2559L7.69042 15.4609C7.66706 15.5972 7.66436 15.7315 7.68066 15.8662L7.71777 16.1777L7.75585 16.4893C7.7819 16.7045 7.80417 16.9204 7.82323 17.1357L7.85058 17.4463L7.8789 17.7578C7.89896 17.9846 7.90981 18.2115 7.9121 18.4385L7.91796 19.0615C7.92027 19.2914 7.91285 19.5213 7.89452 19.751L7.86913 20.0625L7.84472 20.374C7.83079 20.5489 7.82801 20.7237 7.83691 20.8984L7.85253 21.21L7.86913 21.5205C7.88057 21.7451 7.88386 21.9696 7.87987 22.1934L7.87402 22.5029L7.86913 22.8125C7.86669 22.9498 7.88259 23.0786 7.91601 23.2012L7.99511 23.4922L8.07421 23.7822C8.07807 23.7963 8.0821 23.802 8.08398 23.8047C8.08607 23.8076 8.09359 23.8176 8.11425 23.832L8.37109 24.0098L8.62695 24.1885C8.665 24.2149 8.69721 24.2251 8.74609 24.2236L9.05859 24.2139L9.37206 24.2041C9.61173 24.1968 9.85152 24.2043 10.0898 24.2266L10.4004 24.2559L10.7119 24.2852C10.9107 24.3038 11.1098 24.3183 11.3086 24.3301L11.9316 24.3672C12.0883 24.3764 12.2454 24.3702 12.4033 24.3477L12.7148 24.3027L13.0264 24.2588C13.2949 24.2204 13.5646 24.2155 13.834 24.2441L14.1455 24.2764L14.457 24.3096C14.5915 24.3238 14.7263 24.3193 14.8633 24.2939L15.1748 24.2363L15.4853 24.1787C15.7666 24.1266 16.0505 24.1174 16.334 24.1514L16.6455 24.1885L16.956 24.2256C17.1509 24.249 17.3463 24.2678 17.541 24.2812L18.1641 24.3242C18.3358 24.3361 18.5079 24.335 18.6797 24.3223L18.9902 24.2998L19.3018 24.2764C19.5126 24.2607 19.7237 24.2461 19.9346 24.2334L20.2461 24.2148L20.5566 24.1963C20.7902 24.1822 21.0242 24.18 21.2578 24.1904L21.5693 24.2051L21.8809 24.2188C22.0856 24.2279 22.2914 24.236 22.498 24.2432L22.8125 24.2539L23.126 24.2656C23.1954 24.268 23.2552 24.2537 23.3184 24.2178L23.5928 24.0615L23.8652 23.9053L23.9365 23.6279L24.0117 23.334C24.0639 23.1297 24.1206 22.9216 24.1826 22.71L24.2725 22.4043L24.3613 22.0986C24.3753 22.0509 24.3828 22.0043 24.3857 21.958C24.3197 21.8628 24.2501 21.7199 24.25 21.5303V21.3389L24.2842 21.2695L24.2725 21.1953C24.2229 20.9043 24.2226 20.6113 24.2725 20.3203L24.3262 20.0088L24.3799 19.6982C24.4047 19.5535 24.4099 19.4102 24.3975 19.2676L24.3701 18.9561L24.3437 18.6445C24.324 18.4194 24.312 18.1941 24.3086 17.9688L24.2988 17.3457C24.2954 17.1149 24.3032 16.884 24.3213 16.6533L24.3457 16.3418L24.3701 16.0312C24.3833 15.8634 24.3827 15.6952 24.3691 15.5273L24.3437 15.2168L24.3193 14.9053C24.3021 14.6923 24.2869 14.4786 24.2744 14.2656L24.2559 13.9551L24.2373 13.6436C24.2261 13.4527 24.2092 13.2632 24.1855 13.0752L24.1465 12.7676L24.1074 12.4609C24.1016 12.4151 24.0868 12.3776 24.0459 12.333L23.831 12.0996L23.6162 11.8652C23.6089 11.8573 23.6032 11.8536 23.6006 11.8516C23.5983 11.8498 23.597 11.8488 23.5967 11.8486C23.5963 11.8485 23.5948 11.8482 23.5928 11.8477C23.59 11.8469 23.5844 11.8455 23.5752 11.8447L23.2607 11.8174L22.9463 11.791C22.74 11.7735 22.5341 11.7577 22.3301 11.7432L22.0195 11.7207L21.708 11.6992C21.5114 11.6852 21.3147 11.6754 21.1182 11.6699L20.4951 11.6523C20.3324 11.6478 20.169 11.658 20.0049 11.6826L19.6934 11.7285L19.3828 11.7754C19.1382 11.8121 18.8924 11.8308 18.6465 11.8301L18.335 11.8291L18.0244 11.8281C17.8117 11.8275 17.5984 11.8245 17.3857 11.8193L16.7627 11.8037C16.5554 11.7987 16.3479 11.7941 16.1406 11.7891L15.8291 11.7812L15.5185 11.7734C15.2998 11.7681 15.08 11.7584 14.8613 11.7432L14.5508 11.7217L14.2393 11.6992C14.08 11.6882 13.9207 11.6931 13.7607 11.7129L13.4492 11.751L13.1387 11.79C12.8505 11.8257 12.5616 11.8141 12.2764 11.7568L11.6533 11.6318C11.5065 11.6024 11.3621 11.5911 11.2187 11.5986L10.5957 11.6318ZM26.1103 15.7031C26.0589 15.6997 25.9825 15.7032 25.8769 15.7158C25.879 15.8601 25.8765 16.0044 25.8652 16.1484L25.8408 16.459L25.8164 16.7705C25.8019 16.9548 25.7961 17.1391 25.7988 17.3232L25.8037 17.6348L25.8086 17.9453C25.8114 18.1345 25.8213 18.3243 25.8379 18.5137L25.8652 18.8252L25.8916 19.1367C25.9154 19.409 25.9047 19.681 25.8584 19.9512L25.8047 20.2627L25.751 20.5732C25.7349 20.6671 25.731 20.7601 25.7393 20.8535C25.7824 20.8505 25.8364 20.8471 25.9023 20.8389L26.2168 20.7988L26.4639 20.7676L26.5723 20.5723L26.7178 20.3057C26.7488 20.2489 26.7642 20.1894 26.7617 20.1123L26.751 19.8008L26.7412 19.4902C26.7336 19.2585 26.7371 19.0265 26.7519 18.7949L26.7715 18.4834L26.792 18.1729C26.8056 17.9605 26.8211 17.7475 26.8389 17.5352L26.8652 17.2236L26.8906 16.9131C26.8994 16.808 26.8879 16.7113 26.8555 16.6172L26.6543 16.0352C26.6466 16.0129 26.6406 16.0042 26.6396 16.0029C26.6389 16.002 26.6372 16.0013 26.6357 16C26.6341 15.9986 26.6309 15.9957 26.625 15.9922L26.3701 15.8408L26.1475 15.708C26.1395 15.7068 26.1273 15.7043 26.1103 15.7031ZM19.6562 15.3994L19.9521 15.4209L20.249 15.4434C20.53 15.4641 20.8027 15.5309 21.0635 15.6406L21.3457 15.7588L21.6279 15.8779C21.9753 16.0241 22.231 16.2826 22.374 16.6162L22.4287 16.7637L22.5215 17.0625L22.6152 17.3613C22.6467 17.4625 22.6715 17.5456 22.6894 17.6074C22.6982 17.6376 22.707 17.6675 22.7139 17.6943C22.7172 17.7075 22.7215 17.7251 22.7256 17.7441L22.7422 17.8604L22.7461 17.9189C22.7544 18.0385 22.7314 18.1337 22.7275 18.1504C22.7194 18.1858 22.7102 18.2157 22.7041 18.2344C22.6915 18.2728 22.6767 18.3106 22.6641 18.3418C22.6377 18.4067 22.6011 18.4888 22.5586 18.582L22.4355 18.8516L22.3125 19.1221C22.1941 19.3814 22.0333 19.6147 21.835 19.8203L21.624 20.04L21.4121 20.2588C21.1156 20.5661 20.7266 20.7129 20.3057 20.6865L19.9961 20.667L19.6875 20.6475C19.3466 20.6261 19.0267 20.5164 18.7461 20.3164L18.5019 20.1416L18.2578 19.9678C17.9888 19.776 17.7811 19.5255 17.6377 19.2305L17.5019 18.9502L17.3652 18.6699C17.1828 18.2947 17.167 17.8869 17.3164 17.499L17.4287 17.2061L17.542 16.9141C17.6632 16.5993 17.8577 16.328 18.1221 16.1152L18.5967 15.7324C18.8987 15.4894 19.2637 15.3706 19.6562 15.3994ZM5.36132 15.9971L5.19042 16.2559C5.17987 16.2719 5.17678 16.281 5.17577 16.2852C5.1748 16.2893 5.17302 16.3009 5.17577 16.3242L5.21191 16.6357L5.24902 16.9463C5.27759 17.1886 5.28896 17.4318 5.2832 17.6748L5.27538 17.9863L5.26855 18.2979C5.26366 18.5036 5.25946 18.7093 5.25585 18.915L5.24999 19.2266L5.24511 19.5381C5.24258 19.6837 5.25757 19.8167 5.28808 19.9395L5.35937 20.2256L5.41698 20.4531L5.58691 20.5342L5.83202 20.6504C5.81241 20.6411 5.83499 20.655 5.93359 20.667C6.02629 20.6783 6.15689 20.6849 6.33202 20.6807L6.333 20.6797C6.33346 20.5377 6.33829 20.3957 6.3496 20.2539L6.37402 19.9434L6.39941 19.6318C6.41418 19.4466 6.41982 19.2612 6.41796 19.0762L6.41503 18.7656L6.4121 18.4541C6.41021 18.2662 6.4014 18.0777 6.38476 17.8896L6.35644 17.5791L6.32909 17.2676C6.31144 17.0681 6.29074 16.8685 6.26659 16.6689L6.22851 16.3574L6.1914 16.0469C6.18506 15.9945 6.18123 15.942 6.17773 15.8896C6.10555 15.8873 6.03097 15.8862 5.95507 15.8809L5.64452 15.8584L5.46093 15.8457L5.36132 15.9971ZM12.0723 15.2969C12.4838 15.1901 12.8881 15.2631 13.2383 15.4805L13.5176 15.6543L13.7969 15.8271C14.1336 16.0361 14.3742 16.3429 14.4941 16.7227L14.5918 17.0322L14.6894 17.3428C14.7238 17.4517 14.7536 17.5531 14.7734 17.6377C14.7828 17.6776 14.7951 17.7347 14.8018 17.7959C14.805 17.8257 14.8091 17.8769 14.8057 17.9385C14.8034 17.9784 14.795 18.132 14.6982 18.2939L14.6797 18.3242L14.6787 18.3252L14.6768 18.3291C14.6722 18.3384 14.6641 18.3538 14.6533 18.377C14.6319 18.423 14.6017 18.4901 14.5615 18.5791L14.4394 18.8506L14.3164 19.1211C14.1898 19.4017 14.0075 19.6468 13.7715 19.8457L13.3262 20.2207C13.038 20.4635 12.6894 20.586 12.3144 20.5801L11.7266 20.5703C11.4043 20.5651 11.098 20.4812 10.8174 20.3262L10.5527 20.1797L10.2881 20.0342C9.92233 19.8321 9.67668 19.5023 9.58984 19.0918L9.52831 18.7979L9.46581 18.5039C9.39928 18.1894 9.40937 17.8695 9.5078 17.5586L9.59374 17.2881L9.6787 17.0186C9.77953 16.7003 9.9643 16.4275 10.2226 16.2158L10.4414 16.0361L10.6601 15.8574C10.8982 15.6624 11.1725 15.5308 11.4678 15.4541L11.7705 15.376L12.0723 15.2969ZM19.5381 16.9014L19.2998 17.0928L19.0625 17.2832C19.01 17.3254 18.9705 17.3776 18.9414 17.4531L18.8291 17.7451L18.7197 18.0254L18.8506 18.2939L18.9873 18.5752C19.0256 18.6539 19.0724 18.7068 19.1289 18.7471L19.6172 19.0947C19.6619 19.1266 19.7105 19.1459 19.7812 19.1504L20.0908 19.1699L20.3623 19.1865L20.5439 18.998L20.7559 18.7793C20.839 18.693 20.9012 18.5999 20.9473 18.499L21.0713 18.2295L21.1943 17.959C21.2018 17.9426 21.2074 17.9265 21.2139 17.9121C21.2045 17.8814 21.1947 17.8464 21.1826 17.8076L21.0898 17.5088L21.0068 17.2441L20.7637 17.1416L20.4814 17.0225C20.3659 16.9738 20.2523 16.9468 20.1387 16.9385L19.8428 16.917L19.5459 16.8955L19.5381 16.9014ZM12.1475 16.8271L11.8447 16.9062C11.7374 16.9342 11.6637 16.9739 11.6103 17.0176L11.3926 17.1973L11.1738 17.376C11.1407 17.4031 11.1225 17.4301 11.1094 17.4717L11.0234 17.7412L10.9375 18.0117C10.9222 18.0604 10.9173 18.1163 10.9336 18.1934L10.9961 18.4873L11.0488 18.7402L11.2783 18.8672L11.543 19.0137C11.615 19.0534 11.6816 19.0692 11.751 19.0703L12.0449 19.0752L12.3379 19.0801C12.3451 19.0802 12.3497 19.0794 12.3516 19.0791C12.353 19.0781 12.3558 19.0763 12.3594 19.0732L12.8047 18.6982C12.8654 18.647 12.9128 18.5854 12.9492 18.5049L13.0723 18.2334L13.1943 17.9629C13.2208 17.9041 13.2437 17.8522 13.2637 17.8086C13.2622 17.804 13.2613 17.7987 13.2598 17.7939L13.1611 17.4844L13.0635 17.1738C13.0528 17.1403 13.0415 17.1237 13.0059 17.1016L12.7266 16.9287L12.4473 16.7549C12.4447 16.7533 12.4424 16.7521 12.4404 16.751L12.1475 16.8271ZM16.0469 10.252C15.9864 10.2539 15.9271 10.2651 15.8691 10.2812L16.0469 10.2852V10.252ZM15.3877 6.10059L15.1699 6.30078C15.1097 6.35646 15.0669 6.41963 15.0371 6.49707L14.9307 6.77344L14.8242 7.05078C14.8166 7.07076 14.8137 7.08628 14.8262 7.12598L15.0098 7.71191C15.0116 7.71785 15.0136 7.72231 15.0146 7.72461C15.0161 7.72565 15.0188 7.72741 15.0225 7.72949L15.2851 7.87988L15.5488 8.03027C15.6079 8.06393 15.6549 8.0731 15.7031 8.07129L16.2851 8.0498C16.3616 8.04691 16.4419 8.02705 16.5312 7.98047L16.8037 7.83789L17.0498 7.70898L17.1211 7.42773L17.1963 7.12402C17.2145 7.05072 17.2331 6.9828 17.25 6.92285L17.1465 6.76172L16.9775 6.50098C16.9186 6.40983 16.858 6.35416 16.7998 6.31738L16.5615 6.16602L16.3232 6.01562C16.2732 5.98398 16.2155 5.96345 16.1387 5.95801L15.8467 5.9375L15.583 5.91895L15.3877 6.10059Z" fill="black"/>
</svg>
