<svg width="23" height="70" viewBox="0 0 23 70" fill="none" xmlns="http://www.w3.org/2000/svg">
<path d="M1.95961 0.718322C1.80377 0.188479 1.24792 -0.114713 0.718078 0.0411228C0.188235 0.196959 -0.114958 0.752812 0.0408787 1.28265L1.00024 1.00049L1.95961 0.718322ZM1.02846 1.09642L0.0690953 1.37859L0.0922778 1.45741L0.128014 1.53139L1.02846 1.09642ZM2.28079 4.53269L1.32996 4.84242L2.28079 4.53269ZM2.39699 4.8894L3.34781 4.57967L2.39699 4.8894ZM2.61547 5.60691L3.57755 5.33417L2.61547 5.60691ZM2.82003 6.32851L1.85794 6.60125L2.82003 6.32851ZM3.1049 7.02649L3.98425 6.55033L3.1049 7.02649ZM3.47006 7.70086L2.5907 8.17702L3.47006 7.70086ZM3.44915 10.0523L2.71504 10.7313L3.44915 10.0523ZM3.73338 10.3596L4.46749 9.68056L3.73338 10.3596ZM4.01761 10.6669L3.2835 11.3459L4.01761 10.6669ZM4.3965 11.3372L5.36415 11.0849L4.3965 11.3372ZM4.58583 12.0633L3.61818 12.3156L4.58583 12.0633ZM4.4455 13.6681L3.46294 13.4822L4.4455 13.6681ZM4.71509 14.3706L5.35347 13.6009L4.71509 14.3706ZM5.06301 14.6591L4.42463 15.4288L5.06301 14.6591ZM5.41093 14.9477L4.77255 15.7174L5.41093 14.9477ZM5.69862 15.6448L6.68794 15.7906L5.69862 15.6448ZM5.6384 16.0534L4.64909 15.9076L5.6384 16.0534ZM5.57817 16.462L4.58886 16.3162L5.57817 16.462ZM5.63474 17.2272L4.68443 17.5385L5.63474 17.2272ZM5.75154 17.5837L6.70185 17.2724L5.75154 17.5837ZM5.86833 17.9402L6.81864 17.6289L5.86833 17.9402ZM6.24355 18.6116L7.01654 17.9772L6.24355 18.6116ZM6.7604 19.2414L5.9874 19.8758L6.7604 19.2414ZM6.90381 19.981L7.86904 20.2424L6.90381 19.981ZM6.67378 20.8304L7.63902 21.0918L6.67378 20.8304ZM6.69259 21.6066L7.62716 21.2508L6.69259 21.6066ZM6.96024 22.3097L6.02567 22.6655L6.96024 22.3097ZM7.3971 22.9629L6.6915 23.6716L7.3971 22.9629ZM8.00318 23.5665L7.29757 24.2751L8.00318 23.5665ZM8.52081 24.5869L7.56262 24.873L8.52081 24.5869ZM8.62811 24.9462L9.5863 24.6601L8.62811 24.9462ZM8.69101 25.7094L9.68503 25.8187L8.69101 25.7094ZM8.64662 26.1134L7.6526 26.0041L8.64662 26.1134ZM8.60222 26.5173L7.60821 26.4081L8.60222 26.5173ZM8.72585 27.2627L7.8286 27.7042L8.72585 27.2627ZM9.0619 27.9457L8.16464 28.3872L9.0619 27.9457ZM9.41273 28.6242L10.2918 28.1476L9.41273 28.6242ZM9.77835 29.2985L8.89928 29.7752L9.77835 29.2985ZM10.0074 30.0129L11 29.8913L10.0074 30.0129ZM10.0536 30.3902L9.06101 30.5118L10.0536 30.3902ZM10.0998 30.7675L11.0924 30.6459L10.0998 30.7675ZM10.1148 31.5448L9.11787 31.4671L10.1148 31.5448ZM10.1502 33.0979L11.0895 32.7548L10.1502 33.0979ZM10.4081 33.8039L11.3474 33.4608L10.4081 33.8039ZM10.6039 34.528L9.61976 34.7054V34.7054L10.6039 34.528ZM10.6708 34.8992L9.68664 35.0766L10.6708 34.8992ZM10.7377 35.2705L11.7218 35.0931L10.7377 35.2705ZM11.0293 35.9664L11.8516 35.3974L11.0293 35.9664ZM11.4788 36.616L10.6565 37.185L11.4788 36.616ZM11.8365 37.2926L12.7719 36.9391L11.8365 37.2926ZM12.1023 37.9961L11.1669 38.3497L12.1023 37.9961ZM12.3552 39.4853L13.3497 39.3805L12.3552 39.4853ZM12.4517 40.2387L11.463 40.3882L12.4517 40.2387ZM12.5649 40.9872L11.5761 41.1367L12.5649 40.9872ZM12.703 41.7283L13.6792 41.5113L12.703 41.7283ZM12.8662 42.4621L11.89 42.6791L12.8662 42.4621ZM13.2229 43.1389L13.9707 42.475L13.2229 43.1389ZM13.9699 44.4828L14.9523 44.6694L13.9699 44.4828ZM13.8126 45.3108L12.8301 45.1242L13.8126 45.3108ZM13.9211 46.0607L14.7946 45.5739L13.9211 46.0607ZM14.1082 46.3965L14.9817 45.9098L14.1082 46.3965ZM14.2953 46.7324L15.1689 46.2456L14.2953 46.7324ZM14.5014 47.4535L13.5026 47.5025L14.5014 47.4535ZM14.5391 48.2242L13.5403 48.2731L14.5391 48.2242ZM14.747 48.9448L15.6182 48.4539L14.747 48.9448ZM14.9359 49.2801L14.0647 49.771L14.9359 49.2801ZM15.1248 49.6155L14.2536 50.1063L15.1248 49.6155ZM15.543 50.2742L14.7273 50.8526L15.543 50.2742ZM16.0017 50.9211L16.8174 50.3427L16.0017 50.9211ZM16.3018 51.6146L17.284 51.4265L16.3018 51.6146ZM16.3727 51.9846L17.3549 51.7965L16.3727 51.9846ZM16.4436 52.3547L15.4614 52.5428L16.4436 52.3547ZM16.584 53.0951L17.5668 52.9107L16.584 53.0951ZM16.6535 53.4656L15.6706 53.65L16.6535 53.4656ZM16.723 53.836L15.7401 54.0204L16.723 53.836ZM17.0696 54.9067L17.9994 54.5387L17.0696 54.9067ZM17.2082 55.2568L16.2784 55.6248L17.2082 55.2568ZM17.2789 56.0178L16.2923 55.8548L17.2789 56.0178ZM17.211 56.4286L16.2244 56.2657L17.211 56.4286ZM17.1432 56.8395L18.1298 57.0025L17.1432 56.8395ZM17.2 57.6045L18.1433 57.2724L17.2 57.6045ZM17.4494 58.313L16.5062 58.645L17.4494 58.313ZM17.8885 59.3565L16.9787 59.7714L17.8885 59.3565ZM18.0457 59.7011L18.9555 59.2861L18.0457 59.7011ZM18.4524 60.3633L19.2387 59.7454L18.4524 60.3633ZM18.7019 60.6808L17.9156 61.2986L18.7019 60.6808ZM18.9514 60.9983L19.7377 60.3804L18.9514 60.9983ZM19.0649 61.7467L18.1112 61.4457L19.0649 61.7467ZM18.9289 62.1775L17.9753 61.8766L18.9289 62.1775ZM18.7929 62.6084L19.7465 62.9094L18.7929 62.6084ZM18.7808 63.3937L17.8369 63.7237L18.7808 63.3937ZM19.0287 64.1026L18.0847 64.4326L19.0287 64.1026ZM19.298 64.8052L20.2207 64.4198L19.298 64.8052ZM19.4434 65.1533L20.3661 64.7679L19.4434 65.1533ZM19.5887 65.5014L18.666 65.8868L19.5887 65.5014ZM19.9412 66.1795L19.0941 66.711L19.9412 66.1795ZM20.3552 66.8395L19.5082 67.371L20.3552 66.8395ZM20.7047 67.5185L21.6306 67.1406L20.7047 67.5185ZM20.9896 68.2165L20.0638 68.5943L20.9896 68.2165ZM21.0991 68.6742L20.1421 68.3842L21.0991 68.6742ZM21.0662 68.783L21.8569 69.3951L21.9697 69.2493L22.0232 69.0729L21.0662 68.783ZM20.972 68.9046L20.1813 68.2924L19.8685 68.6965L20.0127 69.1867L20.972 68.9046ZM20.0409 69.2827C20.1967 69.8125 20.7526 70.1157 21.2824 69.9599C21.8123 69.804 22.1154 69.2482 21.9596 68.7183L21.0002 69.0005L20.0409 69.2827ZM1.00024 1.00049L0.0408787 1.28265L0.0690953 1.37859L1.02846 1.09642L1.98783 0.814259L1.95961 0.718322L1.00024 1.00049ZM1.02846 1.09642L0.128014 1.53139L0.436629 2.17027L1.33708 1.7353L2.23752 1.30034L1.92891 0.661458L1.02846 1.09642ZM1.33708 1.7353L0.436629 2.17027C0.635026 2.58098 0.740284 2.85036 0.78307 3.0039L1.74637 2.73546L2.70966 2.46702C2.61822 2.13886 2.45061 1.74147 2.23752 1.30034L1.33708 1.7353ZM1.74637 2.73546L0.78307 3.0039L0.883745 3.36517L1.84704 3.09673L2.81034 2.82829L2.70966 2.46702L1.74637 2.73546ZM1.84704 3.09673L0.883745 3.36517L0.98442 3.72644L1.94772 3.458L2.91101 3.18956L2.81034 2.82829L1.84704 3.09673ZM1.94772 3.458L0.98442 3.72644C1.0554 3.98115 1.13185 4.23424 1.21377 4.48572L2.16459 4.17598L3.11541 3.86625C3.0424 3.64211 2.97427 3.41656 2.91101 3.18956L1.94772 3.458ZM2.16459 4.17598L1.21377 4.48572L1.32996 4.84242L2.28079 4.53269L3.23161 4.22296L3.11541 3.86625L2.16459 4.17598ZM2.28079 4.53269L1.32996 4.84242L1.44616 5.19913L2.39699 4.8894L3.34781 4.57967L3.23161 4.22296L2.28079 4.53269ZM2.39699 4.8894L1.44616 5.19913C1.51964 5.42468 1.58871 5.65152 1.65338 5.87965L2.61547 5.60691L3.57755 5.33417C3.50585 5.08123 3.42927 4.82972 3.34781 4.57967L2.39699 4.8894ZM2.61547 5.60691L1.65338 5.87965L1.75566 6.24045L2.71775 5.96771L3.67984 5.69497L3.57755 5.33417L2.61547 5.60691ZM2.71775 5.96771L1.75566 6.24045L1.85794 6.60125L2.82003 6.32851L3.78212 6.05577L3.67984 5.69497L2.71775 5.96771ZM2.82003 6.32851L1.85794 6.60125C1.9466 6.914 2.06965 7.21476 2.22554 7.50265L3.1049 7.02649L3.98425 6.55033C3.89671 6.38865 3.82984 6.22409 3.78212 6.05577L2.82003 6.32851ZM3.1049 7.02649L2.22554 7.50265L2.40812 7.83984L3.28748 7.36367L4.16683 6.88751L3.98425 6.55033L3.1049 7.02649ZM3.28748 7.36367L2.40812 7.83984L2.5907 8.17702L3.47006 7.70086L4.34942 7.22469L4.16683 6.88751L3.28748 7.36367ZM3.47006 7.70086L2.5907 8.17702C2.58877 8.17344 2.5859 8.16717 2.58346 8.15892C2.58102 8.15067 2.57999 8.14378 2.57965 8.13957C2.57893 8.13053 2.58212 8.14481 2.56919 8.19006L3.53071 8.46478L4.49223 8.73951C4.63315 8.24631 4.6153 7.71572 4.34942 7.22469L3.47006 7.70086ZM3.53071 8.46478L2.56919 8.19006L2.44726 8.6168L3.40878 8.89153L4.37031 9.16625L4.49223 8.73951L3.53071 8.46478ZM3.40878 8.89153L2.44726 8.6168L2.32533 9.04355L3.28685 9.31827L4.24838 9.593L4.37031 9.16625L3.40878 8.89153ZM3.28685 9.31827L2.32533 9.04355C2.15511 9.6393 2.27155 10.2519 2.71504 10.7313L3.44915 10.0523L4.18326 9.37328C4.1949 9.38586 4.22743 9.42937 4.24288 9.49926C4.25767 9.56617 4.24512 9.60438 4.24838 9.593L3.28685 9.31827ZM3.44915 10.0523L2.71504 10.7313L2.99927 11.0386L3.73338 10.3596L4.46749 9.68056L4.18326 9.37328L3.44915 10.0523ZM3.73338 10.3596L2.99927 11.0386L3.2835 11.3459L4.01761 10.6669L4.75172 9.98785L4.46749 9.68056L3.73338 10.3596ZM4.01761 10.6669L3.2835 11.3459C3.37435 11.4441 3.41191 11.5245 3.42886 11.5895L4.3965 11.3372L5.36415 11.0849C5.25488 10.6658 5.03984 10.2993 4.75172 9.98785L4.01761 10.6669ZM4.3965 11.3372L3.42886 11.5895L3.52352 11.9526L4.49116 11.7002L5.45881 11.4479L5.36415 11.0849L4.3965 11.3372ZM4.49116 11.7002L3.52352 11.9526L3.61818 12.3156L4.58583 12.0633L5.55347 11.811L5.45881 11.4479L4.49116 11.7002ZM4.58583 12.0633L3.61818 12.3156C3.6396 12.3978 3.6477 12.5058 3.6196 12.6543L4.60216 12.8403L5.58472 13.0262C5.66105 12.6228 5.65827 12.2129 5.55347 11.811L4.58583 12.0633ZM4.60216 12.8403L3.6196 12.6543L3.54127 13.0682L4.52383 13.2542L5.50639 13.4401L5.58472 13.0262L4.60216 12.8403ZM4.52383 13.2542L3.54127 13.0682L3.46294 13.4822L4.4455 13.6681L5.42806 13.854L5.50639 13.4401L4.52383 13.2542ZM4.4455 13.6681L3.46294 13.4822C3.40656 13.7801 3.42092 14.0984 3.54012 14.409C3.65782 14.7156 3.85522 14.9566 4.07671 15.1403L4.71509 14.3706L5.35347 13.6009C5.34301 13.5922 5.37951 13.6199 5.40734 13.6924C5.43668 13.7688 5.43222 13.832 5.42806 13.854L4.4455 13.6681ZM4.71509 14.3706L4.07671 15.1403L4.42463 15.4288L5.06301 14.6591L5.70139 13.8894L5.35347 13.6009L4.71509 14.3706ZM5.06301 14.6591L4.42463 15.4288L4.77255 15.7174L5.41093 14.9477L6.04931 14.178L5.70139 13.8894L5.06301 14.6591ZM5.41093 14.9477L4.77255 15.7174C4.78775 15.73 4.75795 15.7095 4.73243 15.6477C4.70513 15.5816 4.70568 15.5237 4.70931 15.499L5.69862 15.6448L6.68794 15.7906C6.78454 15.1352 6.51956 14.568 6.04931 14.178L5.41093 14.9477ZM5.69862 15.6448L4.70931 15.499L4.64909 15.9076L5.6384 16.0534L6.62771 16.1992L6.68794 15.7906L5.69862 15.6448ZM5.6384 16.0534L4.64909 15.9076L4.58886 16.3162L5.57817 16.462L6.56749 16.6078L6.62771 16.1992L5.6384 16.0534ZM5.57817 16.462L4.58886 16.3162C4.52843 16.7262 4.55361 17.1391 4.68443 17.5385L5.63474 17.2272L6.58505 16.9158C6.56015 16.8398 6.54762 16.7426 6.56749 16.6078L5.57817 16.462ZM5.63474 17.2272L4.68443 17.5385L4.80123 17.895L5.75154 17.5837L6.70185 17.2724L6.58505 16.9158L5.63474 17.2272ZM5.75154 17.5837L4.80123 17.895L4.91802 18.2515L5.86833 17.9402L6.81864 17.6289L6.70185 17.2724L5.75154 17.5837ZM5.86833 17.9402L4.91802 18.2515C5.03765 18.6167 5.22643 18.9486 5.47055 19.246L6.24355 18.6116L7.01654 17.9772C6.9161 17.8548 6.85474 17.7391 6.81864 17.6289L5.86833 17.9402ZM6.24355 18.6116L5.47055 19.246L5.72898 19.5609L6.50197 18.9265L7.27497 18.2921L7.01654 17.9772L6.24355 18.6116ZM6.50197 18.9265L5.72898 19.5609L5.9874 19.8758L6.7604 19.2414L7.53339 18.607L7.27497 18.2921L6.50197 18.9265ZM6.7604 19.2414L5.9874 19.8758C5.98369 19.8713 5.97487 19.8594 5.96551 19.84C5.956 19.8203 5.94833 19.7977 5.94375 19.7741C5.93409 19.7242 5.9437 19.7007 5.93858 19.7196L6.90381 19.981L7.86904 20.2424C8.02231 19.6764 7.92936 19.0894 7.53339 18.607L6.7604 19.2414ZM6.90381 19.981L5.93858 19.7196L5.82356 20.1443L6.7888 20.4057L7.75403 20.6671L7.86904 20.2424L6.90381 19.981ZM6.7888 20.4057L5.82356 20.1443L5.70855 20.569L6.67378 20.8304L7.63902 21.0918L7.75403 20.6671L6.7888 20.4057ZM6.67378 20.8304L5.70855 20.569C5.58636 21.0202 5.58151 21.4987 5.75802 21.9624L6.69259 21.6066L7.62716 21.2508C7.62525 21.2458 7.60785 21.2069 7.63902 21.0918L6.67378 20.8304ZM6.69259 21.6066L5.75802 21.9624L5.89185 22.3139L6.82642 21.9581L7.76098 21.6024L7.62716 21.2508L6.69259 21.6066ZM6.82642 21.9581L5.89185 22.3139L6.02567 22.6655L6.96024 22.3097L7.89481 21.9539L7.76098 21.6024L6.82642 21.9581ZM6.96024 22.3097L6.02567 22.6655C6.17181 23.0493 6.40275 23.384 6.6915 23.6716L7.3971 22.9629L8.10271 22.2543C7.9874 22.1395 7.9271 22.0387 7.89481 21.9539L6.96024 22.3097ZM7.3971 22.9629L6.6915 23.6716L6.99454 23.9733L7.70014 23.2647L8.40574 22.5561L8.10271 22.2543L7.3971 22.9629ZM7.70014 23.2647L6.99454 23.9733L7.29757 24.2751L8.00318 23.5665L8.70878 22.8578L8.40574 22.5561L7.70014 23.2647ZM8.00318 23.5665L7.29757 24.2751C7.39828 24.3753 7.43781 24.455 7.45532 24.5137L8.41351 24.2275L9.37171 23.9414C9.24616 23.521 9.01212 23.1599 8.70878 22.8578L8.00318 23.5665ZM8.41351 24.2275L7.45532 24.5137L7.56262 24.873L8.52081 24.5869L9.479 24.3007L9.37171 23.9414L8.41351 24.2275ZM8.52081 24.5869L7.56262 24.873L7.66991 25.2323L8.62811 24.9462L9.5863 24.6601L9.479 24.3007L8.52081 24.5869ZM8.62811 24.9462L7.66991 25.2323C7.7001 25.3334 7.71322 25.4526 7.697 25.6002L8.69101 25.7094L9.68503 25.8187C9.72799 25.4278 9.69917 25.0381 9.5863 24.6601L8.62811 24.9462ZM8.69101 25.7094L7.697 25.6002L7.6526 26.0041L8.64662 26.1134L9.64063 26.2226L9.68503 25.8187L8.69101 25.7094ZM8.64662 26.1134L7.6526 26.0041L7.60821 26.4081L8.60222 26.5173L9.59624 26.6266L9.64063 26.2226L8.64662 26.1134ZM8.60222 26.5173L7.60821 26.4081C7.55931 26.853 7.62685 27.2943 7.8286 27.7042L8.72585 27.2627L9.62311 26.8212C9.60082 26.7759 9.58595 26.7202 9.59624 26.6266L8.60222 26.5173ZM8.72585 27.2627L7.8286 27.7042L7.99662 28.0457L8.89388 27.6042L9.79113 27.1627L9.62311 26.8212L8.72585 27.2627ZM8.89388 27.6042L7.99662 28.0457L8.16464 28.3872L9.0619 27.9457L9.95916 27.5042L9.79113 27.1627L8.89388 27.6042ZM9.0619 27.9457L8.16464 28.3872C8.28253 28.6268 8.40554 28.8647 8.53366 29.1009L9.41273 28.6242L10.2918 28.1476C10.1762 27.9343 10.0653 27.7199 9.95916 27.5042L9.0619 27.9457ZM9.41273 28.6242L8.53366 29.1009L8.71647 29.4381L9.59554 28.9614L10.4746 28.4847L10.2918 28.1476L9.41273 28.6242ZM9.59554 28.9614L8.71647 29.4381L8.89928 29.7752L9.77835 29.2985L10.6574 28.8218L10.4746 28.4847L9.59554 28.9614ZM9.77835 29.2985L8.89928 29.7752C8.96193 29.8907 8.99936 30.0085 9.01479 30.1345L10.0074 30.0129L11 29.8913C10.9538 29.5142 10.8385 29.1557 10.6574 28.8218L9.77835 29.2985ZM10.0074 30.0129L9.01479 30.1345L9.06101 30.5118L10.0536 30.3902L11.0462 30.2686L11 29.8913L10.0074 30.0129ZM10.0536 30.3902L9.06101 30.5118L9.10722 30.8891L10.0998 30.7675L11.0924 30.6459L11.0462 30.2686L10.0536 30.3902ZM10.0998 30.7675L9.10722 30.8891C9.1295 31.0709 9.13376 31.2631 9.11787 31.4671L10.1148 31.5448L11.1118 31.6225C11.1375 31.2931 11.1317 30.9671 11.0924 30.6459L10.0998 30.7675ZM10.1148 31.5448L9.11787 31.4671L9.08669 31.8672L10.0837 31.9449L11.0806 32.0226L11.1118 31.6225L10.1148 31.5448ZM10.0837 31.9449L9.08669 31.8672L9.05551 32.2672L10.0525 32.3449L11.0495 32.4226L11.0806 32.0226L10.0837 31.9449ZM10.0525 32.3449L9.05551 32.2672C9.02437 32.6668 9.07257 33.0622 9.21094 33.441L10.1502 33.0979L11.0895 32.7548C11.056 32.663 11.039 32.5564 11.0495 32.4226L10.0525 32.3449ZM10.1502 33.0979L9.21094 33.441L9.33987 33.794L10.2792 33.4509L11.2185 33.1078L11.0895 32.7548L10.1502 33.0979ZM10.2792 33.4509L9.33987 33.794L9.4688 34.147L10.4081 33.8039L11.3474 33.4608L11.2185 33.1078L10.2792 33.4509ZM10.4081 33.8039L9.4688 34.147C9.535 34.3282 9.5853 34.5141 9.61976 34.7054L10.6039 34.528L11.5881 34.3507C11.5333 34.047 11.4531 33.7501 11.3474 33.4608L10.4081 33.8039ZM10.6039 34.528L9.61976 34.7054L9.68664 35.0766L10.6708 34.8992L11.6549 34.7219L11.5881 34.3507L10.6039 34.528ZM10.6708 34.8992L9.68664 35.0766L9.75353 35.4478L10.7377 35.2705L11.7218 35.0931L11.6549 34.7219L10.6708 34.8992ZM10.7377 35.2705L9.75353 35.4478C9.82465 35.8425 9.97976 36.2071 10.207 36.5355L11.0293 35.9664L11.8516 35.3974C11.7792 35.2928 11.7399 35.1934 11.7218 35.0931L10.7377 35.2705ZM11.0293 35.9664L10.207 36.5355L10.4317 36.8603L11.254 36.2912L12.0764 35.7222L11.8516 35.3974L11.0293 35.9664ZM11.254 36.2912L10.4317 36.8603L10.6565 37.185L11.4788 36.616L12.3011 36.047L12.0764 35.7222L11.254 36.2912ZM11.4788 36.616L10.6565 37.185C10.7623 37.338 10.8426 37.4915 10.901 37.6461L11.8365 37.2926L12.7719 36.9391C12.6531 36.6246 12.4949 36.3271 12.3011 36.047L11.4788 36.616ZM11.8365 37.2926L10.901 37.6461L11.034 37.9979L11.9694 37.6444L12.9048 37.2909L12.7719 36.9391L11.8365 37.2926ZM11.9694 37.6444L11.034 37.9979L11.1669 38.3497L12.1023 37.9961L13.0378 37.6426L12.9048 37.2909L11.9694 37.6444ZM12.1023 37.9961L11.1669 38.3497C11.2249 38.503 11.263 38.663 11.2808 38.8319L12.2752 38.7271L13.2697 38.6222C13.2343 38.2856 13.1571 37.9583 13.0378 37.6426L12.1023 37.9961ZM12.2752 38.7271L11.2808 38.8319L11.3207 39.211L12.3152 39.1062L13.3097 39.0014L13.2697 38.6222L12.2752 38.7271ZM12.3152 39.1062L11.3207 39.211L11.3607 39.5901L12.3552 39.4853L13.3497 39.3805L13.3097 39.0014L12.3152 39.1062ZM12.3552 39.4853L11.3607 39.5901C11.3889 39.8577 11.423 40.1238 11.463 40.3882L12.4517 40.2387L13.4405 40.0892C13.405 39.8546 13.3747 39.6184 13.3497 39.3805L12.3552 39.4853ZM12.4517 40.2387L11.463 40.3882L11.5195 40.7625L12.5083 40.6129L13.4971 40.4634L13.4405 40.0892L12.4517 40.2387ZM12.5083 40.6129L11.5195 40.7625L11.5761 41.1367L12.5649 40.9872L13.5537 40.8377L13.4971 40.4634L12.5083 40.6129ZM12.5649 40.9872L11.5761 41.1367C11.6173 41.4087 11.6675 41.6782 11.7269 41.9453L12.703 41.7283L13.6792 41.5113C13.6298 41.2892 13.588 41.0647 13.5537 40.8377L12.5649 40.9872ZM12.703 41.7283L11.7269 41.9453L11.8084 42.3122L12.7846 42.0952L13.7608 41.8782L13.6792 41.5113L12.703 41.7283ZM12.7846 42.0952L11.8084 42.3122L11.89 42.6791L12.8662 42.4621L13.8423 42.2451L13.7608 41.8782L12.7846 42.0952ZM12.8662 42.4621L11.89 42.6791C11.985 43.1063 12.1907 43.4825 12.4751 43.8029L13.2229 43.1389L13.9707 42.475C13.8882 42.3821 13.8561 42.3071 13.8423 42.2451L12.8662 42.4621ZM13.2229 43.1389L12.4751 43.8029L12.7503 44.1128L13.4981 43.4489L14.2459 42.7849L13.9707 42.475L13.2229 43.1389ZM13.4981 43.4489L12.7503 44.1128L13.0255 44.4228L13.7733 43.7588L14.5211 43.0949L14.2459 42.7849L13.4981 43.4489ZM13.7733 43.7588L13.0255 44.4228C13.0257 44.423 13.0068 44.4002 12.995 44.3568C12.9834 44.314 12.9889 44.2885 12.9874 44.2962L13.9699 44.4828L14.9523 44.6694C15.0614 44.0948 14.9144 43.5378 14.5211 43.0949L13.7733 43.7588ZM13.9699 44.4828L12.9874 44.2962L12.9088 44.7102L13.8912 44.8968L14.8736 45.0834L14.9523 44.6694L13.9699 44.4828ZM13.8912 44.8968L12.9088 44.7102L12.8301 45.1242L13.8126 45.3108L14.795 45.4974L14.8736 45.0834L13.8912 44.8968ZM13.8126 45.3108L12.8301 45.1242C12.7385 45.6068 12.7974 46.0986 13.0475 46.5474L13.9211 46.0607L14.7946 45.5739C14.7921 45.5694 14.7912 45.567 14.791 45.5663C14.7908 45.5656 14.7904 45.5645 14.7901 45.5621C14.7895 45.5583 14.7871 45.5388 14.795 45.4974L13.8126 45.3108ZM13.9211 46.0607L13.0475 46.5474L13.2347 46.8833L14.1082 46.3965L14.9817 45.9098L14.7946 45.5739L13.9211 46.0607ZM14.1082 46.3965L13.2347 46.8833L13.4218 47.2191L14.2953 46.7324L15.1689 46.2456L14.9817 45.9098L14.1082 46.3965ZM14.2953 46.7324L13.4218 47.2191C13.4714 47.3082 13.4975 47.3987 13.5026 47.5025L14.5014 47.4535L15.5002 47.4046C15.4801 46.9946 15.3688 46.6043 15.1689 46.2456L14.2953 46.7324ZM14.5014 47.4535L13.5026 47.5025L13.5214 47.8878L14.5203 47.8389L15.5191 47.7899L15.5002 47.4046L14.5014 47.4535ZM14.5203 47.8389L13.5214 47.8878L13.5403 48.2731L14.5391 48.2242L15.5379 48.1752L15.5191 47.7899L14.5203 47.8389ZM14.5391 48.2242L13.5403 48.2731C13.5605 48.6849 13.6733 49.0764 13.8757 49.4357L14.747 48.9448L15.6182 48.4539C15.5687 48.3661 15.5429 48.2773 15.5379 48.1752L14.5391 48.2242ZM14.747 48.9448L13.8757 49.4357L14.0647 49.771L14.9359 49.2801L15.8071 48.7893L15.6182 48.4539L14.747 48.9448ZM14.9359 49.2801L14.0647 49.771L14.2536 50.1063L15.1248 49.6155L15.996 49.1246L15.8071 48.7893L14.9359 49.2801ZM15.1248 49.6155L14.2536 50.1063C14.397 50.3609 14.555 50.6096 14.7273 50.8526L15.543 50.2742L16.3588 49.6959C16.2253 49.5076 16.1045 49.3171 15.996 49.1246L15.1248 49.6155ZM15.543 50.2742L14.7273 50.8526L14.9566 51.176L15.7724 50.5977L16.5881 50.0193L16.3588 49.6959L15.543 50.2742ZM15.7724 50.5977L14.9566 51.176L15.1859 51.4995L16.0017 50.9211L16.8174 50.3427L16.5881 50.0193L15.7724 50.5977ZM16.0017 50.9211L15.1859 51.4995C15.2604 51.6046 15.3007 51.7038 15.3197 51.8027L16.3018 51.6146L17.284 51.4265C17.2084 51.032 17.0486 50.6688 16.8174 50.3427L16.0017 50.9211ZM16.3018 51.6146L15.3197 51.8027L15.3906 52.1727L16.3727 51.9846L17.3549 51.7965L17.284 51.4265L16.3018 51.6146ZM16.3727 51.9846L15.3906 52.1727L15.4614 52.5428L16.4436 52.3547L17.4257 52.1666L17.3549 51.7965L16.3727 51.9846ZM16.4436 52.3547L15.4614 52.5428C15.5084 52.7882 15.555 53.0338 15.6011 53.2795L16.584 53.0951L17.5668 52.9107C17.5202 52.6625 17.4732 52.4145 17.4257 52.1666L16.4436 52.3547ZM16.584 53.0951L15.6011 53.2795L15.6706 53.65L16.6535 53.4656L17.6363 53.2812L17.5668 52.9107L16.584 53.0951ZM16.6535 53.4656L15.6706 53.65L15.7401 54.0204L16.723 53.836L17.7058 53.6516L17.6363 53.2812L16.6535 53.4656ZM16.723 53.836L15.7401 54.0204C15.7982 54.3301 15.8853 54.6318 16.0012 54.9246L16.931 54.5566L17.8609 54.1886C17.792 54.0146 17.7404 53.8359 17.7058 53.6516L16.723 53.836ZM16.931 54.5566L16.0012 54.9246L16.1398 55.2747L17.0696 54.9067L17.9994 54.5387L17.8609 54.1886L16.931 54.5566ZM17.0696 54.9067L16.1398 55.2747L16.2784 55.6248L17.2082 55.2568L18.138 54.8888L17.9994 54.5387L17.0696 54.9067ZM17.2082 55.2568L16.2784 55.6248C16.2971 55.6722 16.3112 55.7403 16.2923 55.8548L17.2789 56.0178L18.2655 56.1808C18.3371 55.7475 18.304 55.3083 18.138 54.8888L17.2082 55.2568ZM17.2789 56.0178L16.2923 55.8548L16.2244 56.2657L17.211 56.4286L18.1977 56.5916L18.2655 56.1808L17.2789 56.0178ZM17.211 56.4286L16.2244 56.2657L16.1565 56.6765L17.1432 56.8395L18.1298 57.0025L18.1977 56.5916L17.211 56.4286ZM17.1432 56.8395L16.1565 56.6765C16.0869 57.098 16.1118 57.525 16.2568 57.9366L17.2 57.6045L18.1433 57.2724C18.1219 57.2118 18.1089 57.1288 18.1298 57.0025L17.1432 56.8395ZM17.2 57.6045L16.2568 57.9366L16.3815 58.2908L17.3247 57.9587L18.268 57.6267L18.1433 57.2724L17.2 57.6045ZM17.3247 57.9587L16.3815 58.2908L16.5062 58.645L17.4494 58.313L18.3927 57.9809L18.268 57.6267L17.3247 57.9587ZM17.4494 58.313L16.5062 58.645C16.5993 58.9095 16.7044 59.1701 16.8215 59.4268L17.7313 59.0118L18.6411 58.5968C18.5486 58.3939 18.4658 58.1886 18.3927 57.9809L17.4494 58.313ZM17.7313 59.0118L16.8215 59.4268L16.9787 59.7714L17.8885 59.3565L18.7983 58.9415L18.6411 58.5968L17.7313 59.0118ZM17.8885 59.3565L16.9787 59.7714L17.1359 60.1161L18.0457 59.7011L18.9555 59.2861L18.7983 58.9415L17.8885 59.3565ZM18.0457 59.7011L17.1359 60.1161C17.2758 60.4227 17.4539 60.7111 17.6661 60.9811L18.4524 60.3633L19.2387 59.7454C19.1183 59.5921 19.0253 59.439 18.9555 59.2861L18.0457 59.7011ZM18.4524 60.3633L17.6661 60.9811L17.9156 61.2986L18.7019 60.6808L19.4882 60.0629L19.2387 59.7454L18.4524 60.3633ZM18.7019 60.6808L17.9156 61.2986L18.1651 61.6161L18.9514 60.9983L19.7377 60.3804L19.4882 60.0629L18.7019 60.6808ZM18.9514 60.9983L18.1651 61.6161C18.1587 61.608 18.148 61.5923 18.1376 61.5689C18.1271 61.5452 18.1197 61.5195 18.1158 61.4941C18.1078 61.4413 18.1194 61.4198 18.1112 61.4457L19.0649 61.7467L20.0185 62.0476C20.1948 61.4891 20.135 60.8861 19.7377 60.3804L18.9514 60.9983ZM19.0649 61.7467L18.1112 61.4457L17.9753 61.8766L18.9289 62.1775L19.8825 62.4785L20.0185 62.0476L19.0649 61.7467ZM18.9289 62.1775L17.9753 61.8766L17.8393 62.3074L18.7929 62.6084L19.7465 62.9094L19.8825 62.4785L18.9289 62.1775ZM18.7929 62.6084L17.8393 62.3074C17.6972 62.7576 17.6694 63.2449 17.8369 63.7237L18.7808 63.3937L19.7248 63.0637C19.7241 63.0615 19.7215 63.0544 19.7218 63.0355C19.7221 63.0149 19.7261 62.9742 19.7465 62.9094L18.7929 62.6084ZM18.7808 63.3937L17.8369 63.7237L17.9608 64.0782L18.9048 63.7482L19.8487 63.4181L19.7248 63.0637L18.7808 63.3937ZM18.9048 63.7482L17.9608 64.0782L18.0847 64.4326L19.0287 64.1026L19.9726 63.7726L19.8487 63.4181L18.9048 63.7482ZM19.0287 64.1026L18.0847 64.4326C18.1739 64.6877 18.2707 64.9403 18.3752 65.1905L19.298 64.8052L20.2207 64.4198C20.1314 64.2059 20.0487 63.9901 19.9726 63.7726L19.0287 64.1026ZM19.298 64.8052L18.3752 65.1905L18.5206 65.5387L19.4434 65.1533L20.3661 64.7679L20.2207 64.4198L19.298 64.8052ZM19.4434 65.1533L18.5206 65.5387L18.666 65.8868L19.5887 65.5014L20.5115 65.116L20.3661 64.7679L19.4434 65.1533ZM19.5887 65.5014L18.666 65.8868C18.7847 66.1712 18.9278 66.446 19.0941 66.711L19.9412 66.1795L20.7882 65.648C20.6785 65.4731 20.5866 65.2958 20.5115 65.116L19.5887 65.5014ZM19.9412 66.1795L19.0941 66.711L19.3011 67.041L20.1482 66.5095L20.9953 65.978L20.7882 65.648L19.9412 66.1795ZM20.1482 66.5095L19.3011 67.041L19.5082 67.371L20.3552 66.8395L21.2023 66.308L20.9953 65.978L20.1482 66.5095ZM20.3552 66.8395L19.5082 67.371C19.6166 67.5438 19.7064 67.7188 19.7789 67.8964L20.7047 67.5185L21.6306 67.1406C21.5131 66.8528 21.37 66.5752 21.2023 66.308L20.3552 66.8395ZM20.7047 67.5185L19.7789 67.8964L19.9213 68.2454L20.8472 67.8675L21.773 67.4896L21.6306 67.1406L20.7047 67.5185ZM20.8472 67.8675L19.9213 68.2454L20.0638 68.5943L20.9896 68.2165L21.9155 67.8386L21.773 67.4896L20.8472 67.8675ZM20.9896 68.2165L20.0638 68.5943C20.0817 68.6384 20.0946 68.6729 20.1035 68.6989C20.1078 68.7117 20.1109 68.7214 20.1129 68.7284C20.115 68.7354 20.1157 68.7384 20.1156 68.738C20.1156 68.7377 20.1142 68.732 20.1125 68.7217C20.1108 68.7116 20.1083 68.6936 20.1067 68.6692C20.1051 68.6452 20.1042 68.6091 20.1077 68.564C20.1113 68.5195 20.12 68.4571 20.1421 68.3842L21.0991 68.6742L22.0561 68.9642C22.1497 68.6555 22.0848 68.3733 22.0608 68.2728C22.0258 68.1266 21.9722 67.9776 21.9155 67.8386L20.9896 68.2165ZM21.0991 68.6742L20.1421 68.3842L20.1091 68.493L21.0662 68.783L22.0232 69.0729L22.0561 68.9642L21.0991 68.6742ZM21.0662 68.783L20.2754 68.1708L20.1813 68.2924L20.972 68.9046L21.7628 69.5167L21.8569 69.3951L21.0662 68.783ZM20.972 68.9046L20.0127 69.1867L20.0409 69.2827L21.0002 69.0005L21.9596 68.7183L21.9314 68.6224L20.972 68.9046Z" fill="black"/>
</svg>
