<svg width="32" height="32" viewBox="0 0 32 32" fill="none" xmlns="http://www.w3.org/2000/svg">
<path d="M15.8 8C15.8 7.55817 15.4418 7.2 15 7.2C14.5582 7.2 14.2 7.55817 14.2 8H15H15.8ZM15 8.1L15.7996 8.12656L15.8 8.11328V8.1H15ZM14.9571 9.3924L14.1575 9.36584L14.9571 9.3924ZM14.9595 9.6128L15.756 9.53787V9.53787L14.9595 9.6128ZM15.0246 10.304L14.2281 10.3789L15.0246 10.304ZM15.0896 10.9952L15.8861 10.9203V10.9203L15.0896 10.9952ZM15.0943 11.1488L14.2947 11.1223V11.1223L15.0943 11.1488ZM15.0713 11.84L15.8709 11.8665L15.0713 11.84ZM15.0484 12.5312L14.2489 12.5047V12.5047L15.0484 12.5312ZM15.0482 12.6848L15.8479 12.6604V12.6604L15.0482 12.6848ZM15.0693 13.376L14.2697 13.4003L15.0693 13.376ZM15.0903 14.0672L15.89 14.0429V14.0429L15.0903 14.0672ZM15.0847 14.2208L14.289 14.1382V14.1382L15.0847 14.2208ZM15.013 14.912L15.8087 14.9946V14.9946L15.013 14.912ZM14.9413 15.6032L14.1456 15.5206V15.5206L14.9413 15.6032ZM14.9294 15.7568L14.1304 15.716V15.716L14.9294 15.7568ZM14.8941 16.448L15.6931 16.4888L14.8941 16.448ZM14.8588 17.1392L14.0599 17.0984V17.0984L14.8588 17.1392ZM14.8694 17.2928L15.6555 17.1443H15.6555L14.8694 17.2928ZM15 17.984L14.2139 18.1325H14.2139L15 17.984ZM15.1305 18.6752L15.9166 18.5267L15.9166 18.5267L15.1305 18.6752ZM15.141 18.8288L14.3421 18.7872V18.7872L15.141 18.8288ZM15.105 19.52L15.9039 19.5616V19.5616L15.105 19.52ZM15.069 20.2112L14.2701 20.1696V20.1696L15.069 20.2112ZM15.0587 20.3648L14.2614 20.2999V20.2999L15.0587 20.3648ZM15.0024 21.056L15.7998 21.1209V21.1209L15.0024 21.056ZM14.9461 21.7472L14.1488 21.6823V21.6823L14.9461 21.7472ZM14.9429 21.8328L15.6999 21.5741L15.6999 21.5741L14.9429 21.8328ZM14.9699 21.912L14.2129 22.1707L14.485 22.9669L15.2665 22.655L14.9699 21.912ZM15 21.9H15.8V20.7194L14.7035 21.157L15 21.9ZM14.2 22C14.2 22.4418 14.5582 22.8 15 22.8C15.4418 22.8 15.8 22.4418 15.8 22H15H14.2ZM15 8H14.2V8.1H15H15.8V8H15ZM15 8.1L14.2004 8.07344L14.1575 9.36584L14.9571 9.3924L15.7566 9.41896L15.7996 8.12656L15 8.1ZM14.9571 9.3924L14.1575 9.36584C14.154 9.47189 14.1534 9.58549 14.163 9.68773L14.9595 9.6128L15.756 9.53787C15.7563 9.54129 15.7555 9.53356 15.7552 9.51039C15.755 9.48839 15.7553 9.45833 15.7566 9.41896L14.9571 9.3924ZM14.9595 9.6128L14.163 9.68773L14.2281 10.3789L15.0246 10.304L15.821 10.2291L15.756 9.53787L14.9595 9.6128ZM15.0246 10.304L14.2281 10.3789L14.2931 11.0701L15.0896 10.9952L15.8861 10.9203L15.821 10.2291L15.0246 10.304ZM15.0896 10.9952L14.2931 11.0701C14.2948 11.0878 14.2953 11.1051 14.2947 11.1223L15.0943 11.1488L15.8938 11.1753C15.8966 11.0901 15.894 11.005 15.8861 10.9203L15.0896 10.9952ZM15.0943 11.1488L14.2947 11.1223L14.2718 11.8135L15.0713 11.84L15.8709 11.8665L15.8938 11.1753L15.0943 11.1488ZM15.0713 11.84L14.2718 11.8135L14.2489 12.5047L15.0484 12.5312L15.848 12.5577L15.8709 11.8665L15.0713 11.84ZM15.0484 12.5312L14.2489 12.5047C14.2466 12.5728 14.2465 12.641 14.2486 12.7091L15.0482 12.6848L15.8479 12.6604C15.8468 12.6262 15.8469 12.592 15.848 12.5577L15.0484 12.5312ZM15.0482 12.6848L14.2486 12.7091L14.2697 13.4003L15.0693 13.376L15.8689 13.3517L15.8479 12.6604L15.0482 12.6848ZM15.0693 13.376L14.2697 13.4003L14.2907 14.0915L15.0903 14.0672L15.89 14.0429L15.8689 13.3517L15.0693 13.376ZM15.0903 14.0672L14.2907 14.0915C14.2912 14.1069 14.2906 14.1224 14.289 14.1382L15.0847 14.2208L15.8804 14.3034C15.8894 14.2168 15.8926 14.1299 15.89 14.0429L15.0903 14.0672ZM15.0847 14.2208L14.289 14.1382L14.2173 14.8294L15.013 14.912L15.8087 14.9946L15.8804 14.3034L15.0847 14.2208ZM15.013 14.912L14.2173 14.8294L14.1456 15.5206L14.9413 15.6032L15.737 15.6858L15.8087 14.9946L15.013 14.912ZM14.9413 15.6032L14.1456 15.5206C14.1388 15.5857 14.1338 15.6508 14.1304 15.716L14.9294 15.7568L15.7284 15.7976C15.7303 15.7604 15.7331 15.7231 15.737 15.6858L14.9413 15.6032ZM14.9294 15.7568L14.1304 15.716L14.0952 16.4072L14.8941 16.448L15.6931 16.4888L15.7284 15.7976L14.9294 15.7568ZM14.8941 16.448L14.0952 16.4072L14.0599 17.0984L14.8588 17.1392L15.6578 17.18L15.6931 16.4888L14.8941 16.448ZM14.8588 17.1392L14.0599 17.0984C14.054 17.214 14.0621 17.3288 14.0833 17.4413L14.8694 17.2928L15.6555 17.1443C15.6574 17.1544 15.6585 17.1668 15.6578 17.18L14.8588 17.1392ZM14.8694 17.2928L14.0833 17.4413L14.2139 18.1325L15 17.984L15.7861 17.8355L15.6555 17.1443L14.8694 17.2928ZM15 17.984L14.2139 18.1325L14.3444 18.8237L15.1305 18.6752L15.9166 18.5267L15.7861 17.8355L15 17.984ZM15.1305 18.6752L14.3444 18.8237C14.3425 18.8133 14.3414 18.8007 14.3421 18.7872L15.141 18.8288L15.9399 18.8704C15.946 18.7545 15.9379 18.6395 15.9166 18.5267L15.1305 18.6752ZM15.141 18.8288L14.3421 18.7872L14.3061 19.4784L15.105 19.52L15.9039 19.5616L15.9399 18.8704L15.141 18.8288ZM15.105 19.52L14.3061 19.4784L14.2701 20.1696L15.069 20.2112L15.8679 20.2528L15.9039 19.5616L15.105 19.52ZM15.069 20.2112L14.2701 20.1696C14.2678 20.213 14.2649 20.2564 14.2614 20.2999L15.0587 20.3648L15.8561 20.4297C15.8609 20.3708 15.8648 20.3118 15.8679 20.2528L15.069 20.2112ZM15.0587 20.3648L14.2614 20.2999L14.2051 20.9911L15.0024 21.056L15.7998 21.1209L15.8561 20.4297L15.0587 20.3648ZM15.0024 21.056L14.2051 20.9911L14.1488 21.6823L14.9461 21.7472L15.7435 21.8121L15.7998 21.1209L15.0024 21.056ZM14.9461 21.7472L14.1488 21.6823C14.1463 21.7119 14.1439 21.7452 14.1428 21.7767C14.1422 21.7914 14.1415 21.8165 14.1422 21.8456C14.1426 21.8599 14.1436 21.8846 14.1468 21.9146C14.1488 21.9335 14.1564 22.0052 14.1858 22.0915L14.9429 21.8328L15.6999 21.5741C15.7163 21.6223 15.7248 21.6622 15.729 21.6851C15.7337 21.71 15.7362 21.7306 15.7377 21.7445C15.7406 21.7716 15.7414 21.7927 15.7417 21.8027C15.7422 21.8232 15.7416 21.8368 15.7416 21.8373C15.7415 21.8403 15.7417 21.8337 15.7435 21.8121L14.9461 21.7472ZM14.9429 21.8328L14.1858 22.0915L14.2129 22.1707L14.9699 21.912L15.727 21.6533L15.6999 21.5741L14.9429 21.8328ZM14.9699 21.912L15.2665 22.655L15.2965 22.643L15 21.9L14.7035 21.157L14.6734 21.169L14.9699 21.912ZM15 21.9H14.2V22H15H15.8V21.9H15Z" fill="black"/>
<path d="M8 14.2C7.55817 14.2 7.2 14.5582 7.2 15C7.2 15.4418 7.55817 15.8 8 15.8V15V14.2ZM8.1 15L8.12686 14.2005L8.11343 14.2H8.1V15ZM9.378 15.0429L9.35114 15.8425L9.378 15.0429ZM9.596 15.0405L9.52029 14.2441V14.2441L9.596 15.0405ZM10.28 14.9754L10.3557 15.7719L10.28 14.9754ZM10.964 14.9104L10.8883 14.114V14.114L10.964 14.9104ZM11.116 14.9057L11.0892 15.7053H11.0892L11.116 14.9057ZM11.8 14.9287L11.8268 14.1291L11.8 14.9287ZM12.484 14.9516L12.4572 15.7511V15.7511L12.484 14.9516ZM12.636 14.9518L12.6114 14.1521V14.1521L12.636 14.9518ZM13.32 14.9307L13.3446 15.7303L13.32 14.9307ZM14.004 14.9097L13.9794 14.1101V14.1101L14.004 14.9097ZM14.156 14.9153L14.0726 15.7109V15.7109L14.156 14.9153ZM14.84 14.987L14.9234 14.1914V14.1914L14.84 14.987ZM15.524 15.0587L15.4406 15.8544V15.8544L15.524 15.0587ZM15.676 15.0706L15.6348 15.8695V15.8695L15.676 15.0706ZM16.36 15.1059L16.4012 14.307L16.36 15.1059ZM17.044 15.1412L17.0028 15.9401V15.9401L17.044 15.1412ZM17.196 15.1306L17.046 14.3448V14.3448L17.196 15.1306ZM17.88 15L18.03 15.7858V15.7858L17.88 15ZM18.564 14.8695L18.414 14.0837V14.0837L18.564 14.8695ZM18.716 14.859L18.6739 15.6579H18.6739L18.716 14.859ZM19.4 14.895L19.4421 14.0961V14.0961L19.4 14.895ZM20.084 14.931L20.0419 15.7299V15.7299L20.084 14.931ZM20.236 14.9413L20.1704 15.7386V15.7386L20.236 14.9413ZM20.92 14.9976L20.9856 14.2003V14.2003L20.92 14.9976ZM21.604 15.0539L21.5384 15.8512H21.5384L21.604 15.0539ZM21.696 15.0571L21.5482 14.2709L21.5482 14.2709L21.696 15.0571ZM21.84 15.0301L21.9878 15.8163L22.0981 15.7956L22.1984 15.7453L21.84 15.0301ZM21.9 15V14.2H21.7108L21.5416 14.2848L21.9 15ZM22 15.8C22.4418 15.8 22.8 15.4418 22.8 15C22.8 14.5582 22.4418 14.2 22 14.2V15V15.8ZM8 15V15.8H8.1V15V14.2H8V15ZM8.1 15L8.07314 15.7995L9.35114 15.8425L9.378 15.0429L9.40486 14.2434L8.12686 14.2005L8.1 15ZM9.378 15.0429L9.35114 15.8425C9.45626 15.846 9.56948 15.8466 9.67171 15.8369L9.596 15.0405L9.52029 14.2441C9.52426 14.2437 9.5171 14.2445 9.49449 14.2448C9.47306 14.245 9.4436 14.2447 9.40486 14.2434L9.378 15.0429ZM9.596 15.0405L9.67171 15.8369L10.3557 15.7719L10.28 14.9754L10.2043 14.179L9.52029 14.2441L9.596 15.0405ZM10.28 14.9754L10.3557 15.7719L11.0397 15.7068L10.964 14.9104L10.8883 14.114L10.2043 14.179L10.28 14.9754ZM10.964 14.9104L11.0397 15.7068C11.0565 15.7052 11.0729 15.7047 11.0892 15.7053L11.116 14.9057L11.1428 14.1062C11.0578 14.1033 10.9729 14.106 10.8883 14.114L10.964 14.9104ZM11.116 14.9057L11.0892 15.7053L11.7732 15.7282L11.8 14.9287L11.8268 14.1291L11.1428 14.1062L11.116 14.9057ZM11.8 14.9287L11.7732 15.7282L12.4572 15.7511L12.484 14.9516L12.5108 14.152L11.8268 14.1291L11.8 14.9287ZM12.484 14.9516L12.4572 15.7511C12.525 15.7534 12.5928 15.7535 12.6606 15.7514L12.636 14.9518L12.6114 14.1521C12.5779 14.1532 12.5443 14.1531 12.5108 14.152L12.484 14.9516ZM12.636 14.9518L12.6606 15.7514L13.3446 15.7303L13.32 14.9307L13.2954 14.1311L12.6114 14.1521L12.636 14.9518ZM13.32 14.9307L13.3446 15.7303L14.0286 15.7093L14.004 14.9097L13.9794 14.1101L13.2954 14.1311L13.32 14.9307ZM14.004 14.9097L14.0286 15.7093C14.043 15.7088 14.0576 15.7094 14.0726 15.7109L14.156 14.9153L14.2394 14.1197C14.153 14.1106 14.0663 14.1074 13.9794 14.1101L14.004 14.9097ZM14.156 14.9153L14.0726 15.7109L14.7566 15.7826L14.84 14.987L14.9234 14.1914L14.2394 14.1197L14.156 14.9153ZM14.84 14.987L14.7566 15.7826L15.4406 15.8544L15.524 15.0587L15.6074 14.2631L14.9234 14.1914L14.84 14.987ZM15.524 15.0587L15.4406 15.8544C15.5052 15.8611 15.57 15.8662 15.6348 15.8695L15.676 15.0706L15.7172 14.2717C15.6807 14.2698 15.6441 14.2669 15.6074 14.2631L15.524 15.0587ZM15.676 15.0706L15.6348 15.8695L16.3188 15.9048L16.36 15.1059L16.4012 14.307L15.7172 14.2717L15.676 15.0706ZM16.36 15.1059L16.3188 15.9048L17.0028 15.9401L17.044 15.1412L17.0852 14.3422L16.4012 14.307L16.36 15.1059ZM17.044 15.1412L17.0028 15.9401C17.1185 15.9461 17.2334 15.9379 17.346 15.9164L17.196 15.1306L17.046 14.3448C17.0573 14.3426 17.0708 14.3415 17.0852 14.3422L17.044 15.1412ZM17.196 15.1306L17.346 15.9164L18.03 15.7858L17.88 15L17.73 14.2142L17.046 14.3448L17.196 15.1306ZM17.88 15L18.03 15.7858L18.714 15.6553L18.564 14.8695L18.414 14.0837L17.73 14.2142L17.88 15ZM18.564 14.8695L18.714 15.6553C18.7025 15.6575 18.6886 15.6586 18.6739 15.6579L18.716 14.859L18.7581 14.0601C18.642 14.054 18.5269 14.0621 18.414 14.0837L18.564 14.8695ZM18.716 14.859L18.6739 15.6579L19.3579 15.6939L19.4 14.895L19.4421 14.0961L18.7581 14.0601L18.716 14.859ZM19.4 14.895L19.3579 15.6939L20.0419 15.7299L20.084 14.931L20.1261 14.1321L19.4421 14.0961L19.4 14.895ZM20.084 14.931L20.0419 15.7299C20.0847 15.7322 20.1275 15.7351 20.1704 15.7386L20.236 14.9413L20.3016 14.144C20.2431 14.1392 20.1846 14.1352 20.1261 14.1321L20.084 14.931ZM20.236 14.9413L20.1704 15.7386L20.8544 15.7949L20.92 14.9976L20.9856 14.2003L20.3016 14.144L20.236 14.9413ZM20.92 14.9976L20.8544 15.7949L21.5384 15.8512L21.604 15.0539L21.6696 14.2566L20.9856 14.2003L20.92 14.9976ZM21.604 15.0539L21.5384 15.8512C21.5692 15.8537 21.6035 15.8562 21.6368 15.8573C21.6408 15.8575 21.7379 15.8633 21.8438 15.8434L21.696 15.0571L21.5482 14.2709C21.5844 14.2641 21.6132 14.2614 21.6283 14.2602C21.6451 14.2589 21.6584 14.2584 21.6664 14.2583C21.682 14.2579 21.6921 14.2583 21.6932 14.2583C21.6958 14.2584 21.6894 14.2582 21.6696 14.2566L21.604 15.0539ZM21.696 15.0571L21.8438 15.8434L21.9878 15.8163L21.84 15.0301L21.6922 14.2438L21.5482 14.2709L21.696 15.0571ZM21.84 15.0301L22.1984 15.7453L22.2584 15.7152L21.9 15L21.5416 14.2848L21.4816 14.3149L21.84 15.0301ZM21.9 15V15.8H22V15V14.2H21.9V15Z" fill="black"/>
</svg>
