<svg width="32" height="32" viewBox="0 0 32 32" fill="none" xmlns="http://www.w3.org/2000/svg">
<path d="M4 26H3.25V26.75H4V26ZM4 25.9H4.75V25.8909L4.74978 25.8819L4 25.9ZM3.97583 24.9L3.22605 24.9181V24.9181L3.97583 24.9ZM3.97409 24.515L4.7237 24.5389V24.5389L3.97409 24.515ZM3.99129 23.975L3.24167 23.9511V23.9511L3.99129 23.975ZM4.0085 23.435L4.75812 23.4589V23.4589L4.0085 23.435ZM4.00948 23.165L3.2597 23.1835V23.1835L4.00948 23.165ZM3.99616 22.625L4.74593 22.6065V22.6065L3.99616 22.625ZM3.98284 22.085L3.23307 22.1035V22.1035L3.98284 22.085ZM3.98139 21.815L4.73131 21.8254V21.8254L3.98139 21.815ZM3.98887 21.275L3.23895 21.2646L3.98887 21.275ZM3.99636 20.735L4.74629 20.7454V20.7454L3.99636 20.735ZM3.99184 20.465L3.24268 20.5005V20.5005L3.99184 20.465ZM3.96627 19.925L4.71543 19.8895V19.8895L3.96627 19.925ZM3.9407 19.385L3.19154 19.4205V19.4205L3.9407 19.385ZM3.93644 19.115L4.68635 19.1268V19.1268L3.93644 19.115ZM3.94497 18.575L3.19507 18.5632L3.94497 18.575ZM3.95351 18.035L4.70341 18.0468V18.0468L3.95351 18.035ZM3.95329 17.765L3.20341 17.778V17.778L3.95329 17.765ZM3.94392 17.225L4.69381 17.212L3.94392 17.225ZM3.93455 16.685L3.18466 16.698V16.698L3.93455 16.685ZM3.93312 16.415L4.68311 16.4201L3.93312 16.415ZM3.9368 15.875L3.18682 15.8699L3.9368 15.875ZM3.94048 15.335L4.69047 15.3401V15.3401L3.94048 15.335ZM3.94848 15.065L4.69745 15.1043V15.1043L3.94848 15.065ZM3.97679 14.525L3.22782 14.4857V14.4857L3.97679 14.525ZM4.0051 13.985L4.75407 14.0243V14.0243L4.0051 13.985ZM4.01007 13.715L3.26016 13.7267L4.01007 13.715ZM4.00164 13.175L4.75154 13.1633L4.00164 13.175ZM3.99321 12.635L3.2433 12.6467V12.6467L3.99321 12.635ZM3.99387 12.365L4.74371 12.3804L3.99387 12.365ZM4.00495 11.825L3.2551 11.8096L4.00495 11.825ZM4.01603 11.285L4.76587 11.3004L4.01603 11.285ZM4.01058 11.015L3.26197 11.0606V11.0606L4.01058 11.015ZM3.97771 10.475L4.72633 10.4294L3.97771 10.475ZM3.94485 9.935L3.19623 9.98057V9.98057L3.94485 9.935ZM3.9494 9.66514L4.69606 9.73582V9.73582L3.9494 9.66514ZM4.00046 9.12571L3.25379 9.05503L4.00046 9.12571ZM4.05152 8.58628L4.79818 8.65696V8.65696L4.05152 8.58628ZM4.10661 8.3289L4.8155 8.57382L4.8155 8.57382L4.10661 8.3289ZM4.27594 7.83882L3.56705 7.5939V7.5939L4.27594 7.83882ZM4.44526 7.34874L5.15414 7.59366V7.59366L4.44526 7.34874ZM4.59859 7.15077L5.02023 7.77103V7.77103L4.59859 7.15077ZM5.04259 6.84895L4.62095 6.22869L4.62095 6.22869L5.04259 6.84895ZM5.48659 6.54713L5.90822 7.16739L5.90822 7.16739L5.48659 6.54713ZM5.73366 6.47345L5.74345 5.72351L5.73366 6.47345ZM6.27793 6.48055L6.26814 7.23049L6.27793 6.48055ZM6.82221 6.48766L6.832 5.73772L6.82221 6.48766ZM7.09328 6.49474L7.12274 5.74532V5.74532L7.09328 6.49474ZM7.63328 6.51597L7.60382 7.26539V7.26539L7.63328 6.51597ZM8.17328 6.53719L8.20274 5.78777V5.78777L8.17328 6.53719ZM8.44328 6.53307L8.49554 7.28125V7.28125L8.44328 6.53307ZM8.98328 6.49535L8.93102 5.74718V5.74718L8.98328 6.49535ZM9.52328 6.45764L9.57554 7.20581V7.20581L9.52328 6.45764ZM9.79328 6.44942L9.8 5.69945V5.69945L9.79328 6.44942ZM10.3333 6.45426L10.3266 7.20423L10.3333 6.45426ZM10.8733 6.4591L10.88 5.70913L10.8733 6.4591ZM11.1433 6.46643L11.1772 5.7172V5.7172L11.1433 6.46643ZM11.6833 6.49089L11.6493 7.24012V7.24012L11.6833 6.49089ZM12.2233 6.51536L12.2572 5.76613V5.76613L12.2233 6.51536ZM12.4933 6.51734L12.5162 7.26699V7.26699L12.4933 6.51734ZM13.0333 6.50081L13.0103 5.75116L13.0333 6.50081ZM13.5733 6.48427L13.5962 7.23392V7.23392L13.5733 6.48427ZM13.8371 6.51683L14.0426 5.79552V5.79552L13.8371 6.51683ZM14.3525 6.66362L14.147 7.38493V7.38493L14.3525 6.66362ZM14.8678 6.81041L15.0733 6.0891L15.0733 6.0891L14.8678 6.81041ZM15.0711 6.96018L15.6976 6.5478L15.6976 6.5478L15.0711 6.96018ZM15.3688 7.41245L14.7424 7.82483V7.82483L15.3688 7.41245ZM15.6665 7.86472L16.293 7.45234V7.45234L15.6665 7.86472ZM15.8623 8.02945L16.1561 7.3394V7.3394L15.8623 8.02945ZM16.3477 8.2361L16.0539 8.92616V8.92616L16.3477 8.2361ZM16.833 8.44275L17.1268 7.7527V7.7527L16.833 8.44275ZM17.0894 8.50188L17.048 9.25073V9.25073L17.0894 8.50188ZM17.6293 8.53171L17.6707 7.78285H17.6707L17.6293 8.53171ZM18.1693 8.56154L18.1279 9.3104V9.3104L18.1693 8.56154ZM18.4393 8.55893L18.4951 9.30685V9.30685L18.4393 8.55893ZM18.9793 8.51866L18.9235 7.77074V7.77074L18.9793 8.51866ZM19.5193 8.47839L19.5751 9.22631V9.22631L19.5193 8.47839ZM19.7893 8.47273L19.7648 9.22233H19.7648L19.7893 8.47273ZM20.3293 8.49038L20.3538 7.74078V7.74078L20.3293 8.49038ZM20.8693 8.50803L20.8448 9.25763V9.25763L20.8693 8.50803ZM21.1393 8.51139L21.1452 9.26136V9.26136L21.1393 8.51139ZM21.6793 8.50714L21.6734 7.75717V7.75717L21.6793 8.50714ZM22.2193 8.5029L22.2252 9.25288V9.25288L22.2193 8.5029ZM22.4893 8.49501L22.5272 9.24406V9.24406L22.4893 8.49501ZM23.0293 8.46771L22.9914 7.71867V7.71867L23.0293 8.46771ZM23.5693 8.44041L23.6072 9.18945V9.18945L23.5693 8.44041ZM23.8393 8.43849L23.8121 9.18799V9.18799L23.8393 8.43849ZM24.3793 8.45809L24.4065 7.70859V7.70859L24.3793 8.45809ZM24.9193 8.4777L24.8921 9.2272V9.2272L24.9193 8.4777ZM25.1863 8.50432L25.3081 7.76428V7.76428L25.1863 8.50432ZM25.7143 8.59122L25.5925 9.33126V9.33126L25.7143 8.59122ZM26.2423 8.67811L26.3641 7.93807V7.93807L26.2423 8.67811ZM26.4692 8.79321L26.9953 8.25866L26.9953 8.25866L26.4692 8.79321ZM26.8487 9.16668L26.3226 9.70123V9.70123L26.8487 9.16668ZM27.2282 9.54016L27.7542 9.00561L27.7542 9.00561L27.2282 9.54016ZM27.3373 9.76643L28.083 9.68662V9.68662L27.3373 9.76643ZM27.3942 10.2981L26.6484 10.3779V10.3779L27.3942 10.2981ZM27.4511 10.8297L28.1968 10.7499V10.7499L27.4511 10.8297ZM27.4723 11.0976L28.2213 11.0589V11.0589L27.4723 11.0976ZM27.5001 11.6376L26.7511 11.6763V11.6763L27.5001 11.6376ZM27.528 12.1776L28.277 12.1389V12.1389L27.528 12.1776ZM27.5333 12.4476L28.2832 12.457V12.457L27.5333 12.4476ZM27.5265 12.9876L26.7766 12.9782V12.9782L27.5265 12.9876ZM27.5197 13.5276L28.2697 13.537V13.537L27.5197 13.5276ZM27.5178 13.7963L28.2677 13.798V13.798L27.5178 13.7963ZM27.5166 14.3313L26.7666 14.3297V14.3297L27.5166 14.3313ZM27.5154 14.8663L28.2654 14.8679V14.8679L27.5154 14.8663ZM27.5136 15L27.5136 15.75H27.5137L27.5136 15ZM27.5076 15L26.7679 15.1239L26.8727 15.75L27.5075 15.75L27.5076 15ZM27.4909 14.9004L28.2306 14.7765L26.744 14.9688L27.4909 14.9004ZM4.04789 25.9122L4.70631 26.2713L4.71534 26.2548L4.72352 26.2378L4.04789 25.9122ZM4.48256 25.0102L5.1582 25.3358L5.1582 25.3358L4.48256 25.0102ZM4.65718 24.6669L5.31162 25.0333H5.31162L4.65718 24.6669ZM4.92096 24.1957L4.26652 23.8293H4.26652L4.92096 24.1957ZM5.18474 23.7245L5.83918 24.0908L5.83918 24.0908L5.18474 23.7245ZM5.3233 23.4925L5.95614 23.895H5.95614L5.3233 23.4925ZM5.61376 23.0358L4.98091 22.6333H4.98091L5.61376 23.0358ZM5.90421 22.5791L6.53706 22.9816H6.53706L5.90421 22.5791ZM6.03848 22.3448L6.70576 22.6872L6.70577 22.6872L6.03848 22.3448ZM6.28507 21.8642L5.61778 21.5218L5.61778 21.5218L6.28507 21.8642ZM6.53166 21.3836L7.19895 21.726L7.19895 21.726L6.53166 21.3836ZM6.65366 21.1426L7.32467 21.4776L7.32467 21.4776L6.65366 21.1426ZM6.89503 20.6591L6.22401 20.3241V20.3241L6.89503 20.6591ZM7.13639 20.1757L7.80741 20.5107L7.80741 20.5107L7.13639 20.1757ZM7.27129 19.9417L7.8975 20.3545L7.89751 20.3545L7.27129 19.9417ZM7.5695 19.4893L6.94328 19.0765H6.94328L7.5695 19.4893ZM7.86771 19.0368L8.49392 19.4496L8.49392 19.4496L7.86771 19.0368ZM8.00444 18.8039L8.67019 19.1492L8.67019 19.1492L8.00444 18.8039ZM8.25317 18.3244L7.58743 17.979H7.58743L8.25317 18.3244ZM8.5019 17.845L9.16764 18.1904H9.16764L8.5019 17.845ZM8.61926 17.6014L9.30418 17.907V17.907L8.61926 17.6014ZM8.83997 17.1067L8.15504 16.8012V16.8012L8.83997 17.1067ZM9.06068 16.612L9.74561 16.9176L9.74561 16.9176L9.06068 16.612ZM9.19991 16.3834L9.78518 16.8524L9.78518 16.8524L9.19991 16.3834ZM9.53615 15.9638L8.95088 15.4948V15.4948L9.53615 15.9638ZM9.87239 15.5442L10.4577 16.0133L10.4577 16.0132L9.87239 15.5442ZM10.081 15.3941L10.3373 16.0989L10.3373 16.0989L10.081 15.3941ZM10.5791 15.2129L10.3227 14.5081H10.3227L10.5791 15.2129ZM11.0772 15.0317L11.3336 15.7365H11.3336L11.0772 15.0317ZM11.3367 14.9915L11.3086 15.741H11.3086L11.3367 14.9915ZM11.8767 15.0117L11.9048 14.2623V14.2623L11.8767 15.0117ZM12.4167 15.032L12.3886 15.7815H12.3886L12.4167 15.032ZM12.6867 15.0261L12.7476 15.7736H12.7476L12.6867 15.0261ZM13.2267 14.9821L13.1659 14.2346H13.1659L13.2267 14.9821ZM13.7667 14.9381L13.8276 15.6856H13.8276L13.7667 14.9381ZM14.0367 14.9284L14.0299 15.6783H14.0299L14.0367 14.9284ZM14.5767 14.9333L14.5836 14.1833V14.1833L14.5767 14.9333ZM15.1167 14.9382L15.1099 15.6882H15.1099L15.1167 14.9382ZM15.3867 14.9504L15.3261 15.698V15.698L15.3867 14.9504ZM15.9267 14.9943L15.9874 14.2467H15.9874L15.9267 14.9943ZM16.4667 15.0381L16.4061 15.7856H16.4061L16.4667 15.0381ZM16.7367 15.0498L16.7327 15.7998H16.7327L16.7367 15.0498ZM17.2767 15.0527L17.2808 14.3027V14.3027L17.2767 15.0527ZM17.8167 15.0556L17.8127 15.8056H17.8127L17.8167 15.0556ZM18.0867 15.0507L18.1182 15.8H18.1182L18.0867 15.0507ZM18.6267 15.028L18.5953 14.2787V14.2787L18.6267 15.028ZM19.1667 15.0054L19.1982 15.7547H19.1982L19.1667 15.0054ZM19.4367 15.0016L19.4261 15.7516H19.4261L19.4367 15.0016ZM19.9767 15.0093L19.9874 14.2594H19.9874L19.9767 15.0093ZM20.5167 15.017L20.5061 15.7669H20.5061L20.5167 15.017ZM20.7867 15.0107L20.8321 15.7594H20.8321L20.7867 15.0107ZM21.3267 14.978L21.2814 14.2294V14.2294L21.3267 14.978ZM21.8667 14.9453L21.9121 15.6939V15.6939L21.8667 14.9453ZM22.1367 14.9429L22.1049 15.6922H22.1049L22.1367 14.9429ZM22.6767 14.9658L22.7086 14.2165V14.2165L22.6767 14.9658ZM23.2167 14.9888L23.1849 15.7381V15.7381L23.2167 14.9888ZM23.4867 14.9919L23.5013 15.7417V15.7417L23.4867 14.9919ZM24.0267 14.9814L24.0121 14.2315V14.2315L24.0267 14.9814ZM24.5667 14.9709L24.5813 15.7207V15.7207L24.5667 14.9709ZM24.8367 14.9653L24.8529 15.7152V15.7152L24.8367 14.9653ZM25.3767 14.9537L25.3606 14.2039V14.2039L25.3767 14.9537ZM25.9167 14.9421L25.9329 15.6919H25.9329L25.9167 14.9421ZM26.1867 14.9484L26.1353 15.6967V15.6967L26.1867 14.9484ZM26.7267 14.9856L26.7782 14.2373V14.2373L26.7267 14.9856ZM27.2667 15.0227L27.2153 15.7709V15.7709L27.2667 15.0227ZM27.4116 15.0288L27.6436 15.742L27.6437 15.742L27.4116 15.0288ZM27.4509 15.016L27.683 15.7292L29.9127 15.0036L27.6758 14.3005L27.4509 15.016ZM27.4 15V14.25L27.1751 15.7155L27.4 15ZM4.1 26L4.13682 25.2509L4.11842 25.25H4.1V26ZM5.1 26.0492L5.06318 26.7982H5.06318L5.1 26.0492ZM5.485 26.0519L5.53806 26.8H5.53807L5.485 26.0519ZM6.025 26.0136L5.97194 25.2654H5.97194L6.025 26.0136ZM6.565 25.9753L6.61807 26.7234L6.61807 26.7234L6.565 25.9753ZM6.835 25.9743L6.78723 26.7228H6.78723L6.835 25.9743ZM7.375 26.0088L7.42277 25.2603H7.42277L7.375 26.0088ZM7.915 26.0432L7.86723 26.7917H7.86723L7.915 26.0432ZM8.185 26.0447L8.22443 26.7937H8.22443L8.185 26.0447ZM8.725 26.0163L8.68557 25.2673H8.68557L8.725 26.0163ZM9.265 25.9879L9.30443 26.7368H9.30444L9.265 25.9879ZM9.535 25.9812L9.53269 26.7312H9.53269L9.535 25.9812ZM10.075 25.9829L10.0773 25.2329H10.0773L10.075 25.9829ZM10.615 25.9845L10.6127 26.7345H10.6127L10.615 25.9845ZM10.885 25.9902L10.8558 26.7396H10.8558L10.885 25.9902ZM11.425 26.0112L11.4542 25.2618H11.4542L11.425 26.0112ZM11.965 26.0323L11.9358 26.7817H11.9358L11.965 26.0323ZM12.235 26.037L12.2382 26.787H12.2382L12.235 26.037ZM12.775 26.0347L12.7718 25.2847H12.7718L12.775 26.0347ZM13.315 26.0324L13.3182 26.7824H13.3182L13.315 26.0324ZM13.585 26.0235L13.6311 26.7721H13.6311L13.585 26.0235ZM14.125 25.9902L14.0789 25.2416H14.0789L14.125 25.9902ZM14.665 25.957L14.7111 26.7055H14.7111L14.665 25.957ZM14.935 25.951L14.9218 26.7009H14.9218L14.935 25.951ZM15.475 25.9605L15.4882 25.2106H15.4882L15.475 25.9605ZM16.015 25.97L16.0018 26.7199L16.0018 26.7199L16.015 25.97ZM16.285 25.9807L16.2387 26.7293H16.2387L16.285 25.9807ZM16.825 26.0141L16.8713 25.2655V25.2655L16.825 26.0141ZM17.365 26.0475L17.3187 26.7961H17.3187L17.365 26.0475ZM17.635 26.0464L17.6875 26.7945H17.6875L17.635 26.0464ZM18.175 26.0085L18.1225 25.2603H18.1225L18.175 26.0085ZM18.715 25.9706L18.7675 26.7188H18.7675L18.715 25.9706ZM18.985 25.9627L18.9761 26.7127H18.9761L18.985 25.9627ZM19.525 25.9692L19.5339 25.2192H19.5339L19.525 25.9692ZM20.065 25.9756L20.0561 26.7255H20.0561L20.065 25.9756ZM20.335 25.9773L20.3343 26.7273H20.3343L20.335 25.9773ZM20.875 25.9778L20.8757 25.2278V25.2278L20.875 25.9778ZM21.415 25.9783L21.4143 26.7283H21.4143L21.415 25.9783ZM21.685 25.9858L21.6439 26.7347H21.6439L21.685 25.9858ZM22.225 26.0155L22.2661 25.2666H22.2661L22.225 26.0155ZM22.765 26.0451L22.7239 26.794H22.7239L22.765 26.0451ZM23.035 26.0507L23.0448 26.8007H23.0448L23.035 26.0507ZM23.575 26.0437L23.5652 25.2937H23.5652L23.575 26.0437ZM24.115 26.0366L24.1248 26.7866H24.1248L24.115 26.0366ZM24.385 26.0279L24.4237 26.7769H24.4237L24.385 26.0279ZM24.9248 25.9999L24.886 25.2509V25.2509L24.9248 25.9999ZM25.4646 25.972L25.5033 26.721H25.5033L25.4646 25.972ZM25.7092 25.8916L26.1267 26.5146H26.1267L25.7092 25.8916ZM26.1478 25.5976L25.7303 24.9746L25.7303 24.9746L26.1478 25.5976ZM26.5865 25.3037L27.0039 25.9268H27.0039L26.5865 25.3037ZM26.7528 25.1093L27.4319 25.4275L27.4319 25.4275L26.7528 25.1093ZM26.9794 24.6256L26.3003 24.3074V24.3074L26.9794 24.6256ZM27.2061 24.1419L27.8852 24.4601L27.8852 24.4601L27.2061 24.1419ZM27.3234 23.8999L27.9939 24.2359V24.2359L27.3234 23.8999ZM27.5661 23.4157L26.8956 23.0797V23.0797L27.5661 23.4157ZM27.8087 22.9315L28.4792 23.2676L28.4792 23.2676L27.8087 22.9315ZM27.9212 22.6859L28.6137 22.9739V22.9739L27.9212 22.6859ZM28.1286 22.1873L27.4362 21.8992V21.8992L28.1286 22.1873ZM28.3361 21.6887L29.0285 21.9767L29.0285 21.9767L28.3361 21.6887ZM28.4342 21.4371L29.1388 21.694V21.694L28.4342 21.4371ZM28.6193 20.9294L27.9147 20.6725V20.6725L28.6193 20.9294ZM28.8044 20.4217L29.509 20.6786L29.509 20.6786L28.8044 20.4217ZM28.8977 20.1681L29.6008 20.4291L29.6008 20.4291L28.8977 20.1681ZM29.0857 19.6616L28.3826 19.4006V19.4006L29.0857 19.6616ZM29.2737 19.1551L29.9768 19.4161V19.4161L29.2737 19.1551ZM29.3694 18.9025L30.069 19.1729V19.1729L29.3694 18.9025ZM29.5642 18.3987L28.8646 18.1283V18.1283L29.5642 18.3987ZM29.7589 17.895L30.4585 18.1654V18.1654L29.7589 17.895ZM29.8667 17.6473L30.5414 17.9748L30.5414 17.9748L29.8667 17.6473ZM30.1029 17.1605L29.4282 16.833L29.4282 16.833L30.1029 17.1605ZM30.3392 16.6738L31.0139 17.0013L31.0139 17.0013L30.3392 16.6738ZM30.382 16.4242L31.126 16.3296V16.3296L30.382 16.4242ZM30.317 15.9127L29.573 16.0073V16.0073L30.317 15.9127ZM30.252 15.4011L30.996 15.3065V15.3065L30.252 15.4011ZM30.1066 15.2472L29.9582 15.9823V15.9823L30.1066 15.2472ZM29.5904 15.1429L29.7389 14.4078V14.4078L29.5904 15.1429ZM29.0742 15.0386L28.9257 15.7738V15.7738L29.0742 15.0386ZM28.8101 15.0152L28.8244 15.765V15.765L28.8101 15.0152ZM28.2701 15.0254L28.2558 14.2756V14.2756L28.2701 15.0254ZM27.7301 15.0357L27.7444 15.7856V15.7856L27.7301 15.0357ZM27.5856 15.0345L27.8656 14.3387L27.8656 14.3387L27.5856 15.0345ZM27.5476 15.0191L27.8276 14.3234L26.6489 13.849L26.8031 15.1102L27.5476 15.0191ZM27.5554 15.0833L26.931 15.4988L28.2999 14.9922L27.5554 15.0833ZM4 26H4.75V25.9H4H3.25V26H4ZM4 25.9L4.74978 25.8819L4.72561 24.8819L3.97583 24.9L3.22605 24.9181L3.25022 25.9181L4 25.9ZM3.97583 24.9L4.72561 24.8819C4.72168 24.7196 4.72151 24.6078 4.7237 24.5389L3.97409 24.515L3.22447 24.4911C3.22092 24.6022 3.22191 24.7471 3.22605 24.9181L3.97583 24.9ZM3.97409 24.515L4.7237 24.5389L4.74091 23.9989L3.99129 23.975L3.24167 23.9511L3.22447 24.4911L3.97409 24.515ZM3.99129 23.975L4.74091 23.9989L4.75812 23.4589L4.0085 23.435L3.25888 23.4111L3.24167 23.9511L3.99129 23.975ZM4.0085 23.435L4.75812 23.4589C4.76144 23.3548 4.76182 23.2506 4.75925 23.1465L4.00948 23.165L3.2597 23.1835C3.26157 23.2594 3.2613 23.3352 3.25888 23.4111L4.0085 23.435ZM4.00948 23.165L4.75925 23.1465L4.74593 22.6065L3.99616 22.625L3.24639 22.6435L3.2597 23.1835L4.00948 23.165ZM3.99616 22.625L4.74593 22.6065L4.73262 22.0665L3.98284 22.085L3.23307 22.1035L3.24639 22.6435L3.99616 22.625ZM3.98284 22.085L4.73262 22.0665C4.73063 21.9861 4.7302 21.9058 4.73131 21.8254L3.98139 21.815L3.23146 21.8046C3.23008 21.9042 3.23061 22.0039 3.23307 22.1035L3.98284 22.085ZM3.98139 21.815L4.73131 21.8254L4.7388 21.2854L3.98887 21.275L3.23895 21.2646L3.23146 21.8046L3.98139 21.815ZM3.98887 21.275L4.7388 21.2854L4.74629 20.7454L3.99636 20.735L3.24643 20.7246L3.23895 21.2646L3.98887 21.275ZM3.99636 20.735L4.74629 20.7454C4.74775 20.6401 4.74599 20.5348 4.741 20.4295L3.99184 20.465L3.24268 20.5005C3.24622 20.5752 3.24747 20.6499 3.24643 20.7246L3.99636 20.735ZM3.99184 20.465L4.741 20.4295L4.71543 19.8895L3.96627 19.925L3.21711 19.9605L3.24268 20.5005L3.99184 20.465ZM3.96627 19.925L4.71543 19.8895L4.68986 19.3495L3.9407 19.385L3.19154 19.4205L3.21711 19.9605L3.96627 19.925ZM3.9407 19.385L4.68986 19.3495C4.68635 19.2753 4.68518 19.2011 4.68635 19.1268L3.93644 19.115L3.18654 19.1032C3.18487 19.2089 3.18654 19.3147 3.19154 19.4205L3.9407 19.385ZM3.93644 19.115L4.68635 19.1268L4.69488 18.5868L3.94497 18.575L3.19507 18.5632L3.18654 19.1032L3.93644 19.115ZM3.94497 18.575L4.69488 18.5868L4.70341 18.0468L3.95351 18.035L3.2036 18.0232L3.19507 18.5632L3.94497 18.575ZM3.95351 18.035L4.70341 18.0468C4.70496 17.9486 4.70489 17.8503 4.70318 17.752L3.95329 17.765L3.20341 17.778C3.20483 17.8597 3.20489 17.9414 3.2036 18.0232L3.95351 18.035ZM3.95329 17.765L4.70318 17.752L4.69381 17.212L3.94392 17.225L3.19403 17.238L3.20341 17.778L3.95329 17.765ZM3.94392 17.225L4.69381 17.212L4.68443 16.672L3.93455 16.685L3.18466 16.698L3.19403 17.238L3.94392 17.225ZM3.93455 16.685L4.68443 16.672C4.68298 16.588 4.68253 16.5041 4.68311 16.4201L3.93312 16.415L3.18314 16.4099C3.18249 16.5059 3.18299 16.602 3.18466 16.698L3.93455 16.685ZM3.93312 16.415L4.68311 16.4201L4.68679 15.8801L3.9368 15.875L3.18682 15.8699L3.18314 16.4099L3.93312 16.415ZM3.9368 15.875L4.68679 15.8801L4.69047 15.3401L3.94048 15.335L3.1905 15.3299L3.18682 15.8699L3.9368 15.875ZM3.94048 15.335L4.69047 15.3401C4.691 15.2615 4.69333 15.1829 4.69745 15.1043L3.94848 15.065L3.19951 15.0257C3.1942 15.1271 3.19119 15.2285 3.1905 15.3299L3.94048 15.335ZM3.94848 15.065L4.69745 15.1043L4.72576 14.5643L3.97679 14.525L3.22782 14.4857L3.19951 15.0257L3.94848 15.065ZM3.97679 14.525L4.72576 14.5643L4.75407 14.0243L4.0051 13.985L3.25613 13.9457L3.22782 14.4857L3.97679 14.525ZM4.0051 13.985L4.75407 14.0243C4.75968 13.9173 4.76165 13.8103 4.75998 13.7033L4.01007 13.715L3.26016 13.7267C3.2613 13.7997 3.25996 13.8727 3.25613 13.9457L4.0051 13.985ZM4.01007 13.715L4.75998 13.7033L4.75154 13.1633L4.00164 13.175L3.25173 13.1867L3.26016 13.7267L4.01007 13.715ZM4.00164 13.175L4.75154 13.1633L4.74311 12.6233L3.99321 12.635L3.2433 12.6467L3.25173 13.1867L4.00164 13.175ZM3.99321 12.635L4.74311 12.6233C4.74185 12.5423 4.74205 12.4614 4.74371 12.3804L3.99387 12.365L3.24403 12.3496C3.24199 12.4486 3.24175 12.5477 3.2433 12.6467L3.99321 12.635ZM3.99387 12.365L4.74371 12.3804L4.75479 11.8404L4.00495 11.825L3.2551 11.8096L3.24403 12.3496L3.99387 12.365ZM4.00495 11.825L4.75479 11.8404L4.76587 11.3004L4.01603 11.285L3.26618 11.2696L3.2551 11.8096L4.00495 11.825ZM4.01603 11.285L4.76587 11.3004C4.76813 11.19 4.76591 11.0797 4.75919 10.9694L4.01058 11.015L3.26197 11.0606C3.26621 11.1303 3.26761 11.2 3.26618 11.2696L4.01603 11.285ZM4.01058 11.015L4.75919 10.9694L4.72633 10.4294L3.97771 10.475L3.2291 10.5206L3.26197 11.0606L4.01058 11.015ZM3.97771 10.475L4.72633 10.4294L4.69346 9.88944L3.94485 9.935L3.19623 9.98057L3.2291 10.5206L3.97771 10.475ZM3.94485 9.935L4.69346 9.88944C4.69035 9.83824 4.6912 9.78715 4.69606 9.73582L3.9494 9.66514L3.20273 9.59447C3.19057 9.72295 3.18839 9.85177 3.19623 9.98057L3.94485 9.935ZM3.9494 9.66514L4.69606 9.73582L4.74712 9.19639L4.00046 9.12571L3.25379 9.05503L3.20273 9.59447L3.9494 9.66514ZM4.00046 9.12571L4.74712 9.19639L4.79818 8.65696L4.05152 8.58628L3.30486 8.5156L3.25379 9.05503L4.00046 9.12571ZM4.05152 8.58628L4.79818 8.65696C4.80132 8.62376 4.80761 8.59665 4.8155 8.57382L4.10661 8.3289L3.39773 8.08399C3.34918 8.22452 3.31873 8.36899 3.30486 8.5156L4.05152 8.58628ZM4.10661 8.3289L4.8155 8.57382L4.98482 8.08374L4.27594 7.83882L3.56705 7.5939L3.39773 8.08399L4.10661 8.3289ZM4.27594 7.83882L4.98482 8.08374L5.15414 7.59366L4.44526 7.34874L3.73637 7.10382L3.56705 7.5939L4.27594 7.83882ZM4.44526 7.34874L5.15414 7.59366C5.1425 7.62734 5.12398 7.66331 5.09771 7.69723C5.07162 7.73092 5.04374 7.75504 5.02023 7.77103L4.59859 7.15077L4.17695 6.53051C3.97433 6.66824 3.81936 6.86364 3.73637 7.10382L4.44526 7.34874ZM4.59859 7.15077L5.02023 7.77103L5.46423 7.46921L5.04259 6.84895L4.62095 6.22869L4.17695 6.53051L4.59859 7.15077ZM5.04259 6.84895L5.46423 7.46921L5.90822 7.16739L5.48659 6.54713L5.06495 5.92687L4.62095 6.22869L5.04259 6.84895ZM5.48659 6.54713L5.90822 7.16739C5.88422 7.1837 5.85375 7.1991 5.81819 7.2097C5.78272 7.22028 5.75013 7.22373 5.72387 7.22339L5.73366 6.47345L5.74345 5.72351C5.50132 5.72035 5.26795 5.78888 5.06495 5.92687L5.48659 6.54713ZM5.73366 6.47345L5.72387 7.22339L6.26814 7.23049L6.27793 6.48055L6.28772 5.73062L5.74345 5.72351L5.73366 6.47345ZM6.27793 6.48055L6.26814 7.23049L6.81242 7.23759L6.82221 6.48766L6.832 5.73772L6.28772 5.73062L6.27793 6.48055ZM6.82221 6.48766L6.81242 7.23759C6.89662 7.23869 6.98042 7.24088 7.06382 7.24416L7.09328 6.49474L7.12274 5.74532C7.02614 5.74152 6.92922 5.73899 6.832 5.73772L6.82221 6.48766ZM7.09328 6.49474L7.06382 7.24416L7.60382 7.26539L7.63328 6.51597L7.66274 5.76655L7.12274 5.74532L7.09328 6.49474ZM7.63328 6.51597L7.60382 7.26539L8.14382 7.28662L8.17328 6.53719L8.20274 5.78777L7.66274 5.76655L7.63328 6.51597ZM8.17328 6.53719L8.14382 7.28662C8.26111 7.29123 8.37839 7.28943 8.49554 7.28125L8.44328 6.53307L8.39102 5.78489C8.32817 5.78928 8.26545 5.79024 8.20274 5.78777L8.17328 6.53719ZM8.44328 6.53307L8.49554 7.28125L9.03554 7.24353L8.98328 6.49535L8.93102 5.74718L8.39102 5.78489L8.44328 6.53307ZM8.98328 6.49535L9.03554 7.24353L9.57554 7.20581L9.52328 6.45764L9.47102 5.70946L8.93102 5.74718L8.98328 6.49535ZM9.52328 6.45764L9.57554 7.20581C9.64596 7.2009 9.71628 7.19876 9.78656 7.19939L9.79328 6.44942L9.8 5.69945C9.69028 5.69846 9.58061 5.70181 9.47102 5.70946L9.52328 6.45764ZM9.79328 6.44942L9.78656 7.19939L10.3266 7.20423L10.3333 6.45426L10.34 5.70429L9.8 5.69945L9.79328 6.44942ZM10.3333 6.45426L10.3266 7.20423L10.8666 7.20907L10.8733 6.4591L10.88 5.70913L10.34 5.70429L10.3333 6.45426ZM10.8733 6.4591L10.8666 7.20907C10.9475 7.20979 11.0284 7.21199 11.1093 7.21566L11.1433 6.46643L11.1772 5.7172C11.0782 5.71271 10.9791 5.71002 10.88 5.70913L10.8733 6.4591ZM11.1433 6.46643L11.1093 7.21566L11.6493 7.24012L11.6833 6.49089L11.7172 5.74166L11.1772 5.7172L11.1433 6.46643ZM11.6833 6.49089L11.6493 7.24012L12.1893 7.26459L12.2233 6.51536L12.2572 5.76613L11.7172 5.74166L11.6833 6.49089ZM12.2233 6.51536L12.1893 7.26459C12.2983 7.26953 12.4073 7.27033 12.5162 7.26699L12.4933 6.51734L12.4703 5.76769C12.3993 5.76987 12.3283 5.76935 12.2572 5.76613L12.2233 6.51536ZM12.4933 6.51734L12.5162 7.26699L13.0562 7.25045L13.0333 6.50081L13.0103 5.75116L12.4703 5.76769L12.4933 6.51734ZM13.0333 6.50081L13.0562 7.25045L13.5962 7.23392L13.5733 6.48427L13.5503 5.73462L13.0103 5.75116L13.0333 6.50081ZM13.5733 6.48427L13.5962 7.23392C13.6097 7.2335 13.6206 7.235 13.6317 7.23814L13.8371 6.51683L14.0426 5.79552C13.8818 5.74974 13.7168 5.72952 13.5503 5.73462L13.5733 6.48427ZM13.8371 6.51683L13.6317 7.23814L14.147 7.38493L14.3525 6.66362L14.5579 5.94231L14.0426 5.79552L13.8371 6.51683ZM14.3525 6.66362L14.147 7.38493L14.6624 7.53172L14.8678 6.81041L15.0733 6.0891L14.5579 5.94231L14.3525 6.66362ZM14.8678 6.81041L14.6624 7.53172C14.6245 7.52092 14.5808 7.50139 14.5382 7.47001C14.4957 7.4387 14.465 7.40353 14.4447 7.37256L15.0711 6.96018L15.6976 6.5478C15.5503 6.32406 15.334 6.16335 15.0733 6.0891L14.8678 6.81041ZM15.0711 6.96018L14.4447 7.37256L14.7424 7.82483L15.3688 7.41245L15.9953 7.00007L15.6976 6.5478L15.0711 6.96018ZM15.3688 7.41245L14.7424 7.82483L15.0401 8.2771L15.6665 7.86472L16.293 7.45234L15.9953 7.00007L15.3688 7.41245ZM15.6665 7.86472L15.0401 8.2771C15.1686 8.47229 15.3481 8.62565 15.5685 8.71951L15.8623 8.02945L16.1561 7.3394C16.182 7.35041 16.2095 7.36666 16.2356 7.38857C16.2615 7.41037 16.2803 7.43308 16.293 7.45234L15.6665 7.86472ZM15.8623 8.02945L15.5685 8.71951L16.0539 8.92616L16.3477 8.2361L16.6415 7.54605L16.1561 7.3394L15.8623 8.02945ZM16.3477 8.2361L16.0539 8.92616L16.5392 9.13281L16.833 8.44275L17.1268 7.7527L16.6415 7.54605L16.3477 8.2361ZM16.833 8.44275L16.5392 9.13281C16.7022 9.20222 16.8733 9.24108 17.048 9.25073L17.0894 8.50188L17.1307 7.75302C17.1274 7.75283 17.1261 7.7525 17.1263 7.75255C17.1266 7.75261 17.1269 7.75273 17.1268 7.7527L16.833 8.44275ZM17.0894 8.50188L17.048 9.25073L17.588 9.28057L17.6293 8.53171L17.6707 7.78285L17.1307 7.75302L17.0894 8.50188ZM17.6293 8.53171L17.588 9.28057L18.1279 9.3104L18.1693 8.56154L18.2107 7.81268L17.6707 7.78285L17.6293 8.53171ZM18.1693 8.56154L18.1279 9.3104C18.2504 9.31716 18.3728 9.31597 18.4951 9.30685L18.4393 8.55893L18.3835 7.81101C18.3258 7.81531 18.2683 7.81586 18.2107 7.81268L18.1693 8.56154ZM18.4393 8.55893L18.4951 9.30685L19.0351 9.26658L18.9793 8.51866L18.9235 7.77074L18.3835 7.81101L18.4393 8.55893ZM18.9793 8.51866L19.0351 9.26658L19.5751 9.22631L19.5193 8.47839L19.4635 7.73046L18.9235 7.77074L18.9793 8.51866ZM19.5193 8.47839L19.5751 9.22631C19.6384 9.22159 19.7016 9.22027 19.7648 9.22233L19.7893 8.47273L19.8138 7.72313C19.697 7.71931 19.5802 7.72176 19.4635 7.73046L19.5193 8.47839ZM19.7893 8.47273L19.7648 9.22233L20.3048 9.23998L20.3293 8.49038L20.3538 7.74078L19.8138 7.72313L19.7893 8.47273ZM20.3293 8.49038L20.3048 9.23998L20.8448 9.25763L20.8693 8.50803L20.8938 7.75844L20.3538 7.74078L20.3293 8.49038ZM20.8693 8.50803L20.8448 9.25763C20.9449 9.26091 21.0451 9.26215 21.1452 9.26136L21.1393 8.51139L21.1334 7.76141C21.0536 7.76204 20.9737 7.76105 20.8938 7.75844L20.8693 8.50803ZM21.1393 8.51139L21.1452 9.26136L21.6852 9.25712L21.6793 8.50714L21.6734 7.75717L21.1334 7.76141L21.1393 8.51139ZM21.6793 8.50714L21.6852 9.25712L22.2252 9.25288L22.2193 8.5029L22.2134 7.75292L21.6734 7.75717L21.6793 8.50714ZM22.2193 8.5029L22.2252 9.25288C22.3259 9.25209 22.4265 9.24915 22.5272 9.24406L22.4893 8.49501L22.4514 7.74597C22.3721 7.74998 22.2927 7.7523 22.2134 7.75292L22.2193 8.5029ZM22.4893 8.49501L22.5272 9.24406L23.0672 9.21676L23.0293 8.46771L22.9914 7.71867L22.4514 7.74597L22.4893 8.49501ZM23.0293 8.46771L23.0672 9.21676L23.6072 9.18945L23.5693 8.44041L23.5314 7.69137L22.9914 7.71867L23.0293 8.46771ZM23.5693 8.44041L23.6072 9.18945C23.6755 9.186 23.7438 9.18551 23.8121 9.18799L23.8393 8.43849L23.8665 7.68898C23.7548 7.68492 23.6431 7.68572 23.5314 7.69137L23.5693 8.44041ZM23.8393 8.43849L23.8121 9.18799L24.3521 9.2076L24.3793 8.45809L24.4065 7.70859L23.8665 7.68898L23.8393 8.43849ZM24.3793 8.45809L24.3521 9.2076L24.8921 9.2272L24.9193 8.4777L24.9465 7.72819L24.4065 7.70859L24.3793 8.45809ZM24.9193 8.4777L24.8921 9.2272C24.9507 9.22933 25.0081 9.23509 25.0645 9.24437L25.1863 8.50432L25.3081 7.76428C25.1885 7.7446 25.0679 7.7326 24.9465 7.72819L24.9193 8.4777ZM25.1863 8.50432L25.0645 9.24437L25.5925 9.33126L25.7143 8.59122L25.8361 7.85117L25.3081 7.76428L25.1863 8.50432ZM25.7143 8.59122L25.5925 9.33126L26.1205 9.41816L26.2423 8.67811L26.3641 7.93807L25.8361 7.85117L25.7143 8.59122ZM26.2423 8.67811L26.1205 9.41816C26.0927 9.41359 26.0598 9.4039 26.0257 9.38661C25.9916 9.36929 25.9639 9.34821 25.9431 9.32776L26.4692 8.79321L26.9953 8.25866C26.8211 8.08725 26.604 7.97755 26.3641 7.93807L26.2423 8.67811ZM26.4692 8.79321L25.9431 9.32776L26.3226 9.70123L26.8487 9.16668L27.3747 8.63213L26.9953 8.25866L26.4692 8.79321ZM26.8487 9.16668L26.3226 9.70123L26.7021 10.0747L27.2282 9.54016L27.7542 9.00561L27.3747 8.63213L26.8487 9.16668ZM27.2282 9.54016L26.7021 10.0747C26.6759 10.049 26.6488 10.0137 26.6273 9.96914C26.6059 9.92466 26.5953 9.88182 26.5915 9.84625L27.3373 9.76643L28.083 9.68662C28.0551 9.42638 27.9416 9.19004 27.7542 9.00561L27.2282 9.54016ZM27.3373 9.76643L26.5915 9.84625L26.6484 10.3779L27.3942 10.2981L28.1399 10.2182L28.083 9.68662L27.3373 9.76643ZM27.3942 10.2981L26.6484 10.3779L26.7053 10.9095L27.4511 10.8297L28.1968 10.7499L28.1399 10.2182L27.3942 10.2981ZM27.4511 10.8297L26.7053 10.9095C26.7133 10.9843 26.7193 11.0599 26.7233 11.1363L27.4723 11.0976L28.2213 11.0589C28.2159 10.9553 28.2078 10.8523 28.1968 10.7499L27.4511 10.8297ZM27.4723 11.0976L26.7233 11.1363L26.7511 11.6763L27.5001 11.6376L28.2491 11.5989L28.2213 11.0589L27.4723 11.0976ZM27.5001 11.6376L26.7511 11.6763L26.779 12.2163L27.528 12.1776L28.277 12.1389L28.2491 11.5989L27.5001 11.6376ZM27.528 12.1776L26.779 12.2163C26.7828 12.2903 26.7843 12.3642 26.7834 12.4382L27.5333 12.4476L28.2832 12.457C28.2846 12.3509 28.2825 12.2449 28.277 12.1389L27.528 12.1776ZM27.5333 12.4476L26.7834 12.4382L26.7766 12.9782L27.5265 12.9876L28.2765 12.997L28.2832 12.457L27.5333 12.4476ZM27.5265 12.9876L26.7766 12.9782L26.7698 13.5182L27.5197 13.5276L28.2697 13.537L28.2765 12.997L27.5265 12.9876ZM27.5197 13.5276L26.7698 13.5182C26.7686 13.6107 26.768 13.7029 26.7678 13.7947L27.5178 13.7963L28.2677 13.798C28.2679 13.7114 28.2686 13.6244 28.2697 13.537L27.5197 13.5276ZM27.5178 13.7963L26.7678 13.7947L26.7666 14.3297L27.5166 14.3313L28.2666 14.3329L28.2677 13.798L27.5178 13.7963ZM27.5166 14.3313L26.7666 14.3297L26.7654 14.8646L27.5154 14.8663L28.2654 14.8679L28.2666 14.3329L27.5166 14.3313ZM27.5154 14.8663L26.7654 14.8646C26.7653 14.9086 26.7651 14.9386 26.7649 14.9564C26.7648 14.9663 26.7647 14.9678 26.7648 14.9646C26.7648 14.9634 26.7649 14.9607 26.7651 14.957C26.7653 14.9538 26.7657 14.9466 26.7664 14.9371C26.7668 14.9326 26.7689 14.9061 26.7746 14.8725C26.7765 14.8614 26.7849 14.8113 26.8064 14.7504C26.8155 14.7246 26.8433 14.648 26.9035 14.5639C26.9468 14.5032 27.1422 14.25 27.5136 14.25L27.5136 15L27.5137 15.75C27.8851 15.75 28.0805 15.4968 28.1239 15.436C28.184 15.3519 28.2119 15.2752 28.221 15.2494C28.2426 15.1882 28.251 15.1379 28.253 15.1265C28.2589 15.0922 28.261 15.0646 28.2615 15.0587C28.263 15.0399 28.2636 15.024 28.2638 15.0187C28.2643 15.0043 28.2646 14.9891 28.2648 14.9767C28.2651 14.95 28.2653 14.9131 28.2654 14.8679L27.5154 14.8663ZM27.5136 15L27.5136 14.25H27.5076L27.5076 15L27.5075 15.75H27.5136L27.5136 15ZM27.5076 15L28.2473 14.8761L28.2306 14.7765L27.4909 14.9004L26.7512 15.0243L26.7679 15.1239L27.5076 15ZM27.4909 14.9004L26.744 14.9688L26.7531 15.0683L27.5 15L28.2469 14.9317L28.2378 14.8321L27.4909 14.9004ZM4 26L4.65842 26.3591L4.70631 26.2713L4.04789 25.9122L3.38946 25.5531L3.34158 25.6409L4 26ZM4.04789 25.9122L4.72352 26.2378L5.1582 25.3358L4.48256 25.0102L3.80693 24.6846L3.37225 25.5866L4.04789 25.9122ZM4.48256 25.0102L5.1582 25.3358C5.22858 25.1898 5.27895 25.0916 5.31162 25.0333L4.65718 24.6669L4.00274 24.3006C3.94748 24.3993 3.88144 24.53 3.80693 24.6846L4.48256 25.0102ZM4.65718 24.6669L5.31162 25.0333L5.5754 24.562L4.92096 24.1957L4.26652 23.8293L4.00274 24.3006L4.65718 24.6669ZM4.92096 24.1957L5.5754 24.562L5.83918 24.0908L5.18474 23.7245L4.5303 23.3581L4.26652 23.8293L4.92096 24.1957ZM5.18474 23.7245L5.83918 24.0908C5.87627 24.0245 5.91525 23.9593 5.95614 23.895L5.3233 23.4925L4.69046 23.09C4.63453 23.1779 4.58114 23.2673 4.5303 23.3581L5.18474 23.7245ZM5.3233 23.4925L5.95614 23.895L6.2466 23.4383L5.61376 23.0358L4.98091 22.6333L4.69046 23.09L5.3233 23.4925ZM5.61376 23.0358L6.2466 23.4383L6.53706 22.9816L5.90421 22.5791L5.27137 22.1766L4.98091 22.6333L5.61376 23.0358ZM5.90421 22.5791L6.53706 22.9816C6.59784 22.8861 6.6541 22.7879 6.70576 22.6872L6.03848 22.3448L5.37119 22.0024C5.34066 22.0619 5.3074 22.12 5.27137 22.1766L5.90421 22.5791ZM6.03848 22.3448L6.70577 22.6872L6.95236 22.2066L6.28507 21.8642L5.61778 21.5218L5.37119 22.0024L6.03848 22.3448ZM6.28507 21.8642L6.95236 22.2066L7.19895 21.726L6.53166 21.3836L5.86438 21.0412L5.61778 21.5218L6.28507 21.8642ZM6.53166 21.3836L7.19895 21.726C7.24131 21.6434 7.28322 21.5607 7.32467 21.4776L6.65366 21.1426L5.98264 20.8076C5.94364 20.8857 5.90422 20.9636 5.86437 21.0412L6.53166 21.3836ZM6.65366 21.1426L7.32467 21.4776L7.56604 20.9942L6.89503 20.6591L6.22401 20.3241L5.98264 20.8076L6.65366 21.1426ZM6.89503 20.6591L7.56604 20.9942L7.80741 20.5107L7.13639 20.1757L6.46538 19.8407L6.22401 20.3241L6.89503 20.6591ZM7.13639 20.1757L7.80741 20.5107C7.83423 20.457 7.86423 20.405 7.8975 20.3545L7.27129 19.9417L6.64508 19.529C6.57895 19.6293 6.51901 19.7333 6.46538 19.8407L7.13639 20.1757ZM7.27129 19.9417L7.89751 20.3545L8.19571 19.902L7.5695 19.4893L6.94328 19.0765L6.64507 19.529L7.27129 19.9417ZM7.5695 19.4893L8.19571 19.902L8.49392 19.4496L7.86771 19.0368L7.24149 18.6241L6.94328 19.0765L7.5695 19.4893ZM7.86771 19.0368L8.49392 19.4496C8.55792 19.3525 8.6167 19.2523 8.67019 19.1492L8.00444 18.8039L7.3387 18.4585C7.30928 18.5152 7.27691 18.5704 7.24149 18.6241L7.86771 19.0368ZM8.00444 18.8039L8.67019 19.1492L8.91891 18.6698L8.25317 18.3244L7.58743 17.979L7.3387 18.4585L8.00444 18.8039ZM8.25317 18.3244L8.91891 18.6698L9.16764 18.1904L8.5019 17.845L7.83615 17.4996L7.58743 17.979L8.25317 18.3244ZM8.5019 17.845L9.16764 18.1904C9.2159 18.0973 9.26141 18.0029 9.30418 17.907L8.61926 17.6014L7.93433 17.2959C7.90353 17.3649 7.8708 17.4328 7.83615 17.4996L8.5019 17.845ZM8.61926 17.6014L9.30418 17.907L9.5249 17.4123L8.83997 17.1067L8.15504 16.8012L7.93433 17.2959L8.61926 17.6014ZM8.83997 17.1067L9.5249 17.4123L9.74561 16.9176L9.06068 16.612L8.37575 16.3064L8.15504 16.8012L8.83997 17.1067ZM9.06068 16.612L9.74561 16.9176C9.75648 16.8932 9.76951 16.872 9.78518 16.8524L9.19991 16.3834L8.61465 15.9144C8.51824 16.0347 8.43844 16.1659 8.37575 16.3064L9.06068 16.612ZM9.19991 16.3834L9.78518 16.8524L10.1214 16.4328L9.53615 15.9638L8.95088 15.4948L8.61465 15.9144L9.19991 16.3834ZM9.53615 15.9638L10.1214 16.4328L10.4577 16.0133L9.87239 15.5442L9.28712 15.0752L8.95088 15.4948L9.53615 15.9638ZM9.87239 15.5442L10.4577 16.0132C10.4452 16.0288 10.4276 16.0465 10.4048 16.0629C10.3819 16.0794 10.3586 16.0912 10.3373 16.0989L10.081 15.3941L9.82462 14.6892C9.61047 14.7671 9.42781 14.8997 9.28712 15.0752L9.87239 15.5442ZM10.081 15.3941L10.3373 16.0989L10.8354 15.9177L10.5791 15.2129L10.3227 14.5081L9.82462 14.6892L10.081 15.3941ZM10.5791 15.2129L10.8354 15.9177L11.3336 15.7365L11.0772 15.0317L10.8209 14.3269L10.3227 14.5081L10.5791 15.2129ZM11.0772 15.0317L11.3336 15.7365C11.3296 15.738 11.3247 15.7393 11.3192 15.7402C11.3139 15.741 11.3101 15.741 11.3086 15.741L11.3367 14.9915L11.3648 14.242C11.18 14.2351 10.9967 14.2629 10.8209 14.3269L11.0772 15.0317ZM11.3367 14.9915L11.3086 15.741L11.8486 15.7612L11.8767 15.0117L11.9048 14.2623L11.3648 14.242L11.3367 14.9915ZM11.8767 15.0117L11.8486 15.7612L12.3886 15.7815L12.4167 15.032L12.4448 14.2825L11.9048 14.2623L11.8767 15.0117ZM12.4167 15.032L12.3886 15.7815C12.5084 15.786 12.6281 15.7833 12.7476 15.7736L12.6867 15.0261L12.6259 14.2785C12.5654 14.2835 12.5051 14.2848 12.4448 14.2825L12.4167 15.032ZM12.6867 15.0261L12.7476 15.7736L13.2876 15.7296L13.2267 14.9821L13.1659 14.2346L12.6259 14.2785L12.6867 15.0261ZM13.2267 14.9821L13.2876 15.7296L13.8276 15.6856L13.7667 14.9381L13.7059 14.1906L13.1659 14.2346L13.2267 14.9821ZM13.7667 14.9381L13.8276 15.6856C13.8952 15.6801 13.9625 15.6777 14.0299 15.6783L14.0367 14.9284L14.0436 14.1784C13.9309 14.1774 13.8183 14.1814 13.7059 14.1906L13.7667 14.9381ZM14.0367 14.9284L14.0299 15.6783L14.5699 15.6833L14.5767 14.9333L14.5836 14.1833L14.0436 14.1784L14.0367 14.9284ZM14.5767 14.9333L14.5699 15.6833L15.1099 15.6882L15.1167 14.9382L15.1236 14.1883L14.5836 14.1833L14.5767 14.9333ZM15.1167 14.9382L15.1099 15.6882C15.1819 15.6889 15.2539 15.6921 15.3261 15.698L15.3867 14.9504L15.4474 14.2029C15.3396 14.1941 15.2316 14.1893 15.1236 14.1883L15.1167 14.9382ZM15.3867 14.9504L15.3261 15.698L15.8661 15.7418L15.9267 14.9943L15.9874 14.2467L15.4474 14.2029L15.3867 14.9504ZM15.9267 14.9943L15.8661 15.7418L16.4061 15.7856L16.4667 15.0381L16.5274 14.2906L15.9874 14.2467L15.9267 14.9943ZM16.4667 15.0381L16.4061 15.7856C16.5148 15.7945 16.6237 15.7992 16.7327 15.7998L16.7367 15.0498L16.7408 14.2998C16.6698 14.2994 16.5986 14.2963 16.5274 14.2906L16.4667 15.0381ZM16.7367 15.0498L16.7327 15.7998L17.2727 15.8027L17.2767 15.0527L17.2808 14.3027L16.7408 14.2998L16.7367 15.0498ZM17.2767 15.0527L17.2727 15.8027L17.8127 15.8056L17.8167 15.0556L17.8208 14.3056L17.2808 14.3027L17.2767 15.0527ZM17.8167 15.0556L17.8127 15.8056C17.9145 15.8062 18.0164 15.8043 18.1182 15.8L18.0867 15.0507L18.0553 14.3014C17.9771 14.3046 17.8989 14.3061 17.8208 14.3056L17.8167 15.0556ZM18.0867 15.0507L18.1182 15.8L18.6582 15.7774L18.6267 15.028L18.5953 14.2787L18.0553 14.3014L18.0867 15.0507ZM18.6267 15.028L18.6582 15.7774L19.1982 15.7547L19.1667 15.0054L19.1353 14.256L18.5953 14.2787L18.6267 15.028ZM19.1667 15.0054L19.1982 15.7547C19.2742 15.7515 19.3501 15.7505 19.4261 15.7516L19.4367 15.0016L19.4474 14.2517C19.3434 14.2502 19.2393 14.2517 19.1353 14.256L19.1667 15.0054ZM19.4367 15.0016L19.4261 15.7516L19.9661 15.7592L19.9767 15.0093L19.9874 14.2594L19.4474 14.2517L19.4367 15.0016ZM19.9767 15.0093L19.9661 15.7592L20.5061 15.7669L20.5167 15.017L20.5274 14.2671L19.9874 14.2594L19.9767 15.0093ZM20.5167 15.017L20.5061 15.7669C20.6148 15.7685 20.7235 15.7659 20.8321 15.7594L20.7867 15.0107L20.7414 14.2621C20.67 14.2664 20.5987 14.2681 20.5274 14.2671L20.5167 15.017ZM20.7867 15.0107L20.8321 15.7594L21.3721 15.7267L21.3267 14.978L21.2814 14.2294L20.7414 14.2621L20.7867 15.0107ZM21.3267 14.978L21.3721 15.7267L21.9121 15.6939L21.8667 14.9453L21.8214 14.1967L21.2814 14.2294L21.3267 14.978ZM21.8667 14.9453L21.9121 15.6939C21.9764 15.69 22.0406 15.6895 22.1049 15.6922L22.1367 14.9429L22.1686 14.1936C22.0528 14.1886 21.9371 14.1897 21.8214 14.1967L21.8667 14.9453ZM22.1367 14.9429L22.1049 15.6922L22.6449 15.7151L22.6767 14.9658L22.7086 14.2165L22.1686 14.1936L22.1367 14.9429ZM22.6767 14.9658L22.6449 15.7151L23.1849 15.7381L23.2167 14.9888L23.2486 14.2394L22.7086 14.2165L22.6767 14.9658ZM23.2167 14.9888L23.1849 15.7381C23.2904 15.7426 23.3958 15.7438 23.5013 15.7417L23.4867 14.9919L23.4722 14.242C23.3976 14.2435 23.3231 14.2426 23.2486 14.2394L23.2167 14.9888ZM23.4867 14.9919L23.5013 15.7417L24.0413 15.7312L24.0267 14.9814L24.0121 14.2315L23.4722 14.242L23.4867 14.9919ZM24.0267 14.9814L24.0413 15.7312L24.5813 15.7207L24.5667 14.9709L24.5522 14.221L24.0121 14.2315L24.0267 14.9814ZM24.5667 14.9709L24.5813 15.7207C24.6718 15.719 24.7624 15.7171 24.8529 15.7152L24.8367 14.9653L24.8206 14.2155C24.7311 14.2174 24.6416 14.2193 24.5521 14.221L24.5667 14.9709ZM24.8367 14.9653L24.8529 15.7152L25.3929 15.7035L25.3767 14.9537L25.3606 14.2039L24.8206 14.2155L24.8367 14.9653ZM25.3767 14.9537L25.3929 15.7035L25.9329 15.6919L25.9167 14.9421L25.9006 14.1922L25.3606 14.2039L25.3767 14.9537ZM25.9167 14.9421L25.9329 15.6919C26.0003 15.6904 26.0677 15.692 26.1353 15.6967L26.1867 14.9484L26.2382 14.2002C26.1257 14.1925 26.0132 14.1898 25.9006 14.1922L25.9167 14.9421ZM26.1867 14.9484L26.1353 15.6967L26.6753 15.7338L26.7267 14.9856L26.7782 14.2373L26.2382 14.2002L26.1867 14.9484ZM26.7267 14.9856L26.6753 15.7338L27.2153 15.7709L27.2667 15.0227L27.3182 14.2745L26.7782 14.2373L26.7267 14.9856ZM27.2667 15.0227L27.2153 15.7709C27.2623 15.7742 27.3047 15.7768 27.339 15.7782C27.3551 15.7789 27.3772 15.7796 27.4002 15.7796C27.4111 15.7796 27.4312 15.7794 27.4553 15.7778C27.4673 15.7771 27.4873 15.7755 27.5116 15.7722C27.5298 15.7697 27.5811 15.7623 27.6436 15.742L27.4116 15.0288L27.1795 14.3156C27.2137 14.3045 27.2423 14.2979 27.2607 14.2942C27.28 14.2902 27.2963 14.2877 27.3081 14.2861C27.3309 14.2829 27.3491 14.2816 27.359 14.2809C27.3789 14.2797 27.3934 14.2796 27.3974 14.2796C27.4068 14.2796 27.4099 14.2799 27.4019 14.2795C27.3879 14.2789 27.3612 14.2774 27.3182 14.2745L27.2667 15.0227ZM27.4116 15.0288L27.6437 15.742L27.683 15.7292L27.4509 15.016L27.2188 14.3028L27.1795 14.3156L27.4116 15.0288ZM27.4509 15.016L27.6758 14.3005L27.6249 14.2845L27.4 15L27.1751 15.7155L27.226 15.7315L27.4509 15.016ZM27.4 15V15.75H27.5V15V14.25H27.4V15ZM4 26V26.75H4.1V26V25.25H4V26ZM4.1 26L4.06318 26.7491L5.06318 26.7982L5.1 26.0492L5.13682 25.3001L4.13682 25.2509L4.1 26ZM5.1 26.0492L5.06318 26.7982C5.23923 26.8069 5.40293 26.8096 5.53806 26.8L5.485 26.0519L5.43194 25.3037C5.38707 25.3069 5.2941 25.3078 5.13682 25.3001L5.1 26.0492ZM5.485 26.0519L5.53807 26.8L6.07807 26.7617L6.025 26.0136L5.97194 25.2654L5.43194 25.3037L5.485 26.0519ZM6.025 26.0136L6.07806 26.7617L6.61807 26.7234L6.565 25.9753L6.51194 25.2271L5.97194 25.2654L6.025 26.0136ZM6.565 25.9753L6.61807 26.7234C6.67452 26.7194 6.73083 26.7192 6.78723 26.7228L6.835 25.9743L6.88278 25.2258C6.75918 25.2179 6.63549 25.2184 6.51193 25.2271L6.565 25.9753ZM6.835 25.9743L6.78723 26.7228L7.32723 26.7572L7.375 26.0088L7.42277 25.2603L6.88277 25.2258L6.835 25.9743ZM7.375 26.0088L7.32723 26.7572L7.86723 26.7917L7.915 26.0432L7.96277 25.2948L7.42277 25.2603L7.375 26.0088ZM7.915 26.0432L7.86723 26.7917C7.98624 26.7993 8.10536 26.8 8.22443 26.7937L8.185 26.0447L8.14557 25.2958C8.08464 25.299 8.02376 25.2986 7.96277 25.2948L7.915 26.0432ZM8.185 26.0447L8.22443 26.7937L8.76443 26.7653L8.725 26.0163L8.68557 25.2673L8.14557 25.2958L8.185 26.0447ZM8.725 26.0163L8.76443 26.7653L9.30443 26.7368L9.265 25.9879L9.22557 25.2389L8.68557 25.2673L8.725 26.0163ZM9.265 25.9879L9.30444 26.7368C9.38055 26.7328 9.45663 26.7309 9.53269 26.7312L9.535 25.9812L9.53731 25.2312C9.43337 25.2309 9.32945 25.2334 9.22556 25.2389L9.265 25.9879ZM9.535 25.9812L9.53269 26.7312L10.0727 26.7328L10.075 25.9829L10.0773 25.2329L9.53731 25.2312L9.535 25.9812ZM10.075 25.9829L10.0727 26.7328L10.6127 26.7345L10.615 25.9845L10.6173 25.2345L10.0773 25.2329L10.075 25.9829ZM10.615 25.9845L10.6127 26.7345C10.6937 26.7348 10.7747 26.7365 10.8558 26.7396L10.885 25.9902L10.9142 25.2408C10.8153 25.2369 10.7163 25.2348 10.6173 25.2345L10.615 25.9845ZM10.885 25.9902L10.8558 26.7396L11.3958 26.7607L11.425 26.0112L11.4542 25.2618L10.9142 25.2408L10.885 25.9902ZM11.425 26.0112L11.3958 26.7607L11.9358 26.7817L11.965 26.0323L11.9942 25.2828L11.4542 25.2618L11.425 26.0112ZM11.965 26.0323L11.9358 26.7817C12.0366 26.7856 12.1374 26.7874 12.2382 26.787L12.235 26.037L12.2318 25.287C12.1526 25.2873 12.0734 25.2859 11.9942 25.2828L11.965 26.0323ZM12.235 26.037L12.2382 26.787L12.7782 26.7847L12.775 26.0347L12.7718 25.2847L12.2318 25.287L12.235 26.037ZM12.775 26.0347L12.7782 26.7847L13.3182 26.7824L13.315 26.0324L13.3118 25.2824L12.7718 25.2847L12.775 26.0347ZM13.315 26.0324L13.3182 26.7824C13.4225 26.7819 13.5268 26.7785 13.6311 26.7721L13.585 26.0235L13.5389 25.2749C13.4632 25.2796 13.3875 25.282 13.3118 25.2824L13.315 26.0324ZM13.585 26.0235L13.6311 26.7721L14.1711 26.7388L14.125 25.9902L14.0789 25.2416L13.5389 25.2749L13.585 26.0235ZM14.125 25.9902L14.1711 26.7388L14.7111 26.7055L14.665 25.957L14.6189 25.2084L14.0789 25.2416L14.125 25.9902ZM14.665 25.957L14.7111 26.7055C14.7814 26.7012 14.8516 26.6997 14.9218 26.7009L14.935 25.951L14.9482 25.2011C14.8384 25.1992 14.7286 25.2016 14.6189 25.2084L14.665 25.957ZM14.935 25.951L14.9218 26.7009L15.4618 26.7104L15.475 25.9605L15.4882 25.2106L14.9482 25.2011L14.935 25.951ZM15.475 25.9605L15.4618 26.7104L16.0018 26.7199L16.015 25.97L16.0282 25.2201L15.4882 25.2106L15.475 25.9605ZM16.015 25.97L16.0018 26.7199C16.0808 26.7212 16.1597 26.7244 16.2387 26.7293L16.285 25.9807L16.3313 25.2321C16.2303 25.2259 16.1292 25.2219 16.0282 25.2201L16.015 25.97ZM16.285 25.9807L16.2387 26.7293L16.7787 26.7627L16.825 26.0141L16.8713 25.2655L16.3313 25.2321L16.285 25.9807ZM16.825 26.0141L16.7787 26.7627L17.3187 26.7961L17.365 26.0475L17.4113 25.2989L16.8713 25.2655L16.825 26.0141ZM17.365 26.0475L17.3187 26.7961C17.4416 26.8037 17.5646 26.8031 17.6875 26.7945L17.635 26.0464L17.5825 25.2982C17.5254 25.3022 17.4684 25.3024 17.4113 25.2989L17.365 26.0475ZM17.635 26.0464L17.6875 26.7945L18.2275 26.7566L18.175 26.0085L18.1225 25.2603L17.5825 25.2982L17.635 26.0464ZM18.175 26.0085L18.2275 26.7566L18.7675 26.7188L18.715 25.9706L18.6625 25.2224L18.1225 25.2603L18.175 26.0085ZM18.715 25.9706L18.7675 26.7188C18.8371 26.7139 18.9066 26.7119 18.9761 26.7127L18.985 25.9627L18.9939 25.2128C18.8834 25.2115 18.7729 25.2147 18.6625 25.2224L18.715 25.9706ZM18.985 25.9627L18.9761 26.7127L19.5161 26.7191L19.525 25.9692L19.5339 25.2192L18.9939 25.2128L18.985 25.9627ZM19.525 25.9692L19.5161 26.7191L20.0561 26.7255L20.065 25.9756L20.0739 25.2256L19.5339 25.2192L19.525 25.9692ZM20.065 25.9756L20.0561 26.7255C20.1488 26.7266 20.2416 26.7272 20.3343 26.7273L20.335 25.9773L20.3357 25.2273C20.2484 25.2272 20.1612 25.2267 20.0739 25.2256L20.065 25.9756ZM20.335 25.9773L20.3343 26.7273L20.8743 26.7278L20.875 25.9778L20.8757 25.2278L20.3357 25.2273L20.335 25.9773ZM20.875 25.9778L20.8743 26.7278L21.4143 26.7283L21.415 25.9783L21.4157 25.2283L20.8757 25.2278L20.875 25.9778ZM21.415 25.9783L21.4143 26.7283C21.4908 26.7284 21.5673 26.7305 21.6439 26.7347L21.685 25.9858L21.7261 25.237C21.6227 25.2313 21.5192 25.2284 21.4157 25.2283L21.415 25.9783ZM21.685 25.9858L21.6439 26.7347L22.1839 26.7643L22.225 26.0155L22.2661 25.2666L21.7261 25.237L21.685 25.9858ZM22.225 26.0155L22.1839 26.7643L22.7239 26.794L22.765 26.0451L22.8061 25.2962L22.2661 25.2666L22.225 26.0155ZM22.765 26.0451L22.7239 26.794C22.8308 26.7998 22.9378 26.8021 23.0448 26.8007L23.035 26.0507L23.0252 25.3008C22.9522 25.3018 22.8792 25.3002 22.8061 25.2962L22.765 26.0451ZM23.035 26.0507L23.0448 26.8007L23.5848 26.7936L23.575 26.0437L23.5652 25.2937L23.0252 25.3008L23.035 26.0507ZM23.575 26.0437L23.5848 26.7936L24.1248 26.7866L24.115 26.0366L24.1052 25.2867L23.5652 25.2937L23.575 26.0437ZM24.115 26.0366L24.1248 26.7866C24.2245 26.7852 24.3241 26.782 24.4237 26.7769L24.385 26.0279L24.3462 25.2789C24.2659 25.283 24.1855 25.2856 24.1052 25.2867L24.115 26.0366ZM24.385 26.0279L24.4237 26.7769L24.9635 26.7489L24.9248 25.9999L24.886 25.2509L24.3462 25.2789L24.385 26.0279ZM24.9248 25.9999L24.9635 26.7489L25.5033 26.721L25.4646 25.972L25.4258 25.223L24.886 25.2509L24.9248 25.9999ZM25.4646 25.972L25.5033 26.721C25.7252 26.7095 25.9382 26.6409 26.1267 26.5146L25.7092 25.8916L25.2917 25.2685C25.3104 25.256 25.3332 25.2444 25.3589 25.236C25.3844 25.2275 25.4076 25.224 25.4258 25.223L25.4646 25.972ZM25.7092 25.8916L26.1267 26.5146L26.5653 26.2207L26.1478 25.5976L25.7303 24.9746L25.2917 25.2685L25.7092 25.8916ZM26.1478 25.5976L26.5653 26.2207L27.0039 25.9268L26.5865 25.3037L26.169 24.6807L25.7303 24.9746L26.1478 25.5976ZM26.5865 25.3037L27.0039 25.9268C27.1918 25.801 27.337 25.6302 27.4319 25.4275L26.7528 25.1093L26.0736 24.7911C26.0821 24.773 26.0949 24.7519 26.113 24.7308C26.1311 24.7097 26.1506 24.693 26.169 24.6807L26.5865 25.3037ZM26.7528 25.1093L27.4319 25.4275L27.6586 24.9438L26.9794 24.6256L26.3003 24.3074L26.0736 24.7911L26.7528 25.1093ZM26.9794 24.6256L27.6586 24.9438L27.8852 24.4601L27.2061 24.1419L26.5269 23.8237L26.3003 24.3074L26.9794 24.6256ZM27.2061 24.1419L27.8852 24.4601C27.9202 24.3855 27.9564 24.3108 27.9939 24.2359L27.3234 23.8999L26.6529 23.5638C26.6095 23.6504 26.5676 23.737 26.5269 23.8237L27.2061 24.1419ZM27.3234 23.8999L27.9939 24.2359L28.2366 23.7518L27.5661 23.4157L26.8956 23.0797L26.6529 23.5639L27.3234 23.8999ZM27.5661 23.4157L28.2366 23.7518L28.4792 23.2676L27.8087 22.9315L27.1382 22.5955L26.8956 23.0797L27.5661 23.4157ZM27.8087 22.9315L28.4792 23.2676C28.5275 23.1712 28.5724 23.0733 28.6137 22.9739L27.9212 22.6859L27.2288 22.3978C27.201 22.4646 27.1708 22.5305 27.1382 22.5955L27.8087 22.9315ZM27.9212 22.6859L28.6137 22.9739L28.8211 22.4753L28.1286 22.1873L27.4362 21.8992L27.2288 22.3978L27.9212 22.6859ZM28.1286 22.1873L28.8211 22.4753L29.0285 21.9767L28.3361 21.6887L27.6436 21.4006L27.4362 21.8992L28.1286 22.1873ZM28.3361 21.6887L29.0285 21.9767C29.0674 21.8833 29.1041 21.7891 29.1388 21.694L28.4342 21.4371L27.7296 21.1802C27.7025 21.2543 27.6739 21.3278 27.6436 21.4006L28.3361 21.6887ZM28.4342 21.4371L29.1388 21.694L29.3239 21.1863L28.6193 20.9294L27.9147 20.6725L27.7296 21.1802L28.4342 21.4371ZM28.6193 20.9294L29.3239 21.1863L29.509 20.6786L28.8044 20.4217L28.0998 20.1648L27.9147 20.6725L28.6193 20.9294ZM28.8044 20.4217L29.509 20.6786C29.5394 20.5953 29.57 20.5122 29.6008 20.4291L28.8977 20.1681L28.1946 19.9071C28.1627 19.9929 28.1311 20.0788 28.0998 20.1648L28.8044 20.4217ZM28.8977 20.1681L29.6008 20.4291L29.7888 19.9226L29.0857 19.6616L28.3826 19.4006L28.1946 19.9071L28.8977 20.1681ZM29.0857 19.6616L29.7888 19.9226L29.9768 19.4161L29.2737 19.1551L28.5706 18.8941L28.3826 19.4006L29.0857 19.6616ZM29.2737 19.1551L29.9768 19.4161C30.007 19.3348 30.0377 19.2538 30.069 19.1729L29.3694 18.9025L28.6699 18.6321C28.6362 18.7192 28.6031 18.8065 28.5706 18.8941L29.2737 19.1551ZM29.3694 18.9025L30.069 19.1729L30.2637 18.6692L29.5642 18.3987L28.8646 18.1283L28.6699 18.6321L29.3694 18.9025ZM29.5642 18.3987L30.2637 18.6692L30.4585 18.1654L29.7589 17.895L29.0594 17.6245L28.8646 18.1283L29.5642 18.3987ZM29.7589 17.895L30.4585 18.1654C30.4834 18.1008 30.5111 18.0373 30.5414 17.9748L29.8667 17.6473L29.1919 17.3198C29.1435 17.4196 29.0993 17.5212 29.0594 17.6245L29.7589 17.895ZM29.8667 17.6473L30.5414 17.9748L30.7777 17.488L30.1029 17.1605L29.4282 16.833L29.1919 17.3198L29.8667 17.6473ZM30.1029 17.1605L30.7777 17.488L31.0139 17.0013L30.3392 16.6738L29.6645 16.3463L29.4282 16.833L30.1029 17.1605ZM30.3392 16.6738L31.0139 17.0013C31.1136 16.7959 31.1562 16.5666 31.126 16.3296L30.382 16.4242L29.638 16.5188C29.6342 16.4891 29.6346 16.4566 29.6402 16.4237C29.6458 16.3911 29.6555 16.3649 29.6645 16.3463L30.3392 16.6738ZM30.382 16.4242L31.126 16.3296L31.061 15.8181L30.317 15.9127L29.573 16.0073L29.638 16.5188L30.382 16.4242ZM30.317 15.9127L31.061 15.8181L30.996 15.3065L30.252 15.4011L29.5079 15.4957L29.573 16.0073L30.317 15.9127ZM30.252 15.4011L30.996 15.3065C30.975 15.1414 30.9081 14.9483 30.7529 14.7839C30.5988 14.6207 30.4126 14.5438 30.2551 14.512L30.1066 15.2472L29.9582 15.9823C29.8867 15.9679 29.7677 15.9254 29.6621 15.8135C29.5553 15.7004 29.5181 15.5757 29.5079 15.4957L30.252 15.4011ZM30.1066 15.2472L30.2551 14.512L29.7389 14.4078L29.5904 15.1429L29.4419 15.8781L29.9582 15.9823L30.1066 15.2472ZM29.5904 15.1429L29.7389 14.4078L29.2227 14.3035L29.0742 15.0386L28.9257 15.7738L29.4419 15.8781L29.5904 15.1429ZM29.0742 15.0386L29.2227 14.3035C29.0817 14.275 28.9391 14.2626 28.7958 14.2653L28.8101 15.0152L28.8244 15.765C28.8612 15.7643 28.8946 15.7675 28.9257 15.7738L29.0742 15.0386ZM28.8101 15.0152L28.7958 14.2653L28.2558 14.2756L28.2701 15.0254L28.2844 15.7753L28.8244 15.765L28.8101 15.0152ZM28.2701 15.0254L28.2558 14.2756L27.7158 14.2858L27.7301 15.0357L27.7444 15.7856L28.2844 15.7753L28.2701 15.0254ZM27.7301 15.0357L27.7158 14.2858C27.6729 14.2867 27.6466 14.2868 27.633 14.2867C27.6252 14.2866 27.629 14.2865 27.639 14.2871C27.6434 14.2873 27.6587 14.2882 27.6794 14.2907C27.6898 14.2919 27.7088 14.2944 27.7326 14.2991C27.7449 14.3015 27.7618 14.3052 27.7819 14.3106C27.8009 14.3158 27.8305 14.3246 27.8656 14.3387L27.5856 15.0345L27.3056 15.7302C27.3698 15.756 27.4231 15.767 27.4419 15.7707C27.4672 15.7757 27.488 15.7785 27.5005 15.78C27.5254 15.783 27.5463 15.7843 27.5574 15.7849C27.5811 15.7861 27.6037 15.7865 27.62 15.7867C27.6546 15.787 27.6973 15.7865 27.7444 15.7856L27.7301 15.0357ZM27.5856 15.0345L27.8656 14.3387L27.8276 14.3234L27.5476 15.0191L27.2675 15.7149L27.3056 15.7302L27.5856 15.0345ZM27.5476 15.0191L26.8031 15.1102L26.8109 15.1743L27.5554 15.0833L28.2999 14.9922L28.292 14.9281L27.5476 15.0191ZM27.5554 15.0833L28.1798 14.6678L28.1244 14.5845L27.5 15L26.8756 15.4155L26.931 15.4988L27.5554 15.0833Z" fill="black"/>
<circle cx="27" cy="7" r="4" fill="black"/>
</svg>
