<svg width="340" height="14" viewBox="0 0 340 14" fill="none" xmlns="http://www.w3.org/2000/svg">
<path d="M0.838623 11.7069L1.16447 12.2085C1.27308 12.3756 1.45239 12.4775 1.70239 12.5141L2.45239 12.6241C2.70239 12.6608 2.95239 12.6501 3.20239 12.5923L3.95239 12.4185C4.20239 12.3607 4.45239 12.2798 4.70239 12.1761L5.45239 11.865C5.70239 11.7612 5.95239 11.7346 6.20239 11.785L6.95239 11.9361C7.20239 11.9865 7.45239 12.0593 7.70239 12.1546L8.45239 12.4405C8.70239 12.5358 8.84066 12.4376 8.86719 12.1458L8.94678 11.2707C8.97331 10.979 9.03953 10.7186 9.14543 10.4897L9.46314 9.80307C9.56904 9.57419 9.68581 9.35653 9.81344 9.14999L10.1963 8.53037C10.324 8.32383 10.4226 8.09832 10.4923 7.85385L10.7013 7.12045C10.771 6.87599 10.8652 6.63517 10.9841 6.39804L11.3405 5.68674C11.4593 5.44961 11.6616 5.31107 11.9476 5.27121L12.8053 5.15158C13.0912 5.11172 13.3337 5.02482 13.5327 4.89084L14.1296 4.48898C14.3285 4.355 14.5307 4.20541 14.7362 4.04037L15.3526 3.54538C15.558 3.38035 15.7866 3.27545 16.0384 3.23068L16.7937 3.09628C17.0455 3.05152 17.2946 3.08736 17.5411 3.20371L18.2807 3.5527C18.5273 3.66905 18.7832 3.68363 19.0484 3.59653L19.8442 3.3353C20.1095 3.24819 20.3376 3.30673 20.5286 3.51108L21.1015 4.12412C21.2925 4.32846 21.5294 4.43018 21.8123 4.42917L22.6612 4.42612C22.9441 4.42511 23.1412 4.55437 23.2525 4.81381L23.5863 5.59213C23.6975 5.85158 23.8829 6.03036 24.1423 6.12851L24.9207 6.42294C25.1801 6.5211 25.3301 6.70474 25.3707 6.97397L25.4923 7.78171C25.5329 8.05094 25.6347 8.28396 25.7977 8.48068L26.2866 9.07077C26.4496 9.26749 26.545 9.49039 26.5727 9.73935L26.6558 10.4862C26.6835 10.7351 26.7269 11.0122 26.786 11.3171L26.9633 12.2319C27.0224 12.5368 27.177 12.6539 27.427 12.583L28.177 12.3703C28.427 12.2994 28.677 12.26 28.927 12.2519L29.677 12.2278C29.927 12.2197 30.0657 12.1368 30.0931 11.9793L30.1753 11.5069C30.2027 11.3494 30.2867 11.154 30.4273 10.9207L30.8493 10.2208C30.9899 9.9875 31.0808 9.74479 31.122 9.49265L31.2456 8.7363C31.2867 8.48415 31.3926 8.26255 31.5633 8.0715L32.0751 7.49826C32.2457 7.30722 32.4051 7.1129 32.5533 6.91513L32.9977 6.32175C33.1458 6.12398 33.3253 5.96004 33.536 5.8298L34.1684 5.43906C34.3791 5.30882 34.5743 5.15562 34.7539 4.97946L35.2928 4.45102C35.4724 4.27486 35.6709 4.11666 35.8881 3.97641L36.5399 3.55563C36.7571 3.41538 36.9907 3.31022 37.2407 3.24008L37.9905 3.02963C38.2405 2.95949 38.4942 2.96239 38.7517 3.03842L39.5242 3.26657C39.7817 3.3426 40.0406 3.35285 40.3009 3.29733L41.0818 3.13071C41.3421 3.07519 41.5929 3.09429 41.8341 3.18784L42.5577 3.46848C42.7989 3.56202 43.0084 3.70899 43.1861 3.90939L43.7194 4.51059C43.8972 4.71099 44.1216 4.83424 44.3926 4.88046L45.2057 5.01913C45.4767 5.06536 45.7217 5.16406 45.9407 5.31503L46.5977 5.76791C46.8167 5.91889 46.9666 6.12474 47.0473 6.38535L47.2893 7.16708C47.37 7.42769 47.417 7.68997 47.4302 7.95383L47.4699 8.74545C47.4831 9.00931 47.533 9.25103 47.6196 9.47079L47.8793 10.1301C47.9659 10.3499 48.0811 10.5751 48.225 10.8058L48.6565 11.4978C48.8004 11.7284 48.9477 11.8337 49.0984 11.8134L49.5505 11.7527C49.7013 11.7324 49.9016 11.7143 50.1516 11.6985L50.9016 11.6508C51.1516 11.635 51.3556 11.6407 51.5135 11.6679L51.9872 11.7497C52.1451 11.777 52.2052 11.6574 52.1675 11.3907L52.0545 10.5908C52.0168 10.3241 52.1126 10.0941 52.3419 9.90073L53.0296 9.32077C53.2588 9.12744 53.416 8.91764 53.5011 8.69138L53.7563 8.01254C53.8414 7.78628 53.967 7.5852 54.1332 7.40927L54.6317 6.88144C54.7979 6.70551 54.9181 6.47679 54.9925 6.19504L55.2154 5.3497C55.2897 5.06795 55.4598 4.89578 55.7258 4.8331L56.5235 4.64499C56.7895 4.58231 57.0458 4.53159 57.2927 4.49265L58.0332 4.37582C58.28 4.33688 58.5061 4.23383 58.7114 4.06674L59.3274 3.5654C59.5327 3.39831 59.761 3.32424 60.0122 3.34299L60.766 3.39914C61.0173 3.41789 61.2686 3.40866 61.5199 3.37131L62.2739 3.25925C62.5252 3.2219 62.7712 3.24029 63.012 3.31454L63.7343 3.53732C63.975 3.61158 64.2164 3.6856 64.4584 3.75949L65.1842 3.98117C65.4262 4.05506 65.6182 4.20807 65.7603 4.44016L66.1865 5.13644C66.3286 5.36853 66.539 5.51257 66.8179 5.56857L67.6545 5.73654C67.9334 5.79254 68.1 5.95717 68.1544 6.23032L68.3176 7.04977C68.372 7.32292 68.5268 7.53053 68.7818 7.67258L69.5469 8.09872C69.802 8.24077 69.8925 8.45649 69.8183 8.74606L69.596 9.61484C69.5219 9.90441 69.5877 10.1564 69.7935 10.3708L70.4108 11.0141C70.6166 11.2286 70.743 11.3758 70.79 11.4557L70.9309 11.6953C70.9778 11.7752 71.1263 11.8085 71.3763 11.7953L72.1263 11.7556C72.3763 11.7424 72.6263 11.7678 72.8763 11.8318L73.6263 12.0238C73.8763 12.0878 74.0041 12.0065 74.0098 11.78L74.0268 11.1004C74.0325 10.8739 74.0482 10.6316 74.0738 10.3735L74.1506 9.59921C74.1763 9.3411 74.2926 9.12081 74.4997 8.93845L75.121 8.39133C75.3282 8.20896 75.4554 7.98454 75.5029 7.71811L75.6452 6.91892C75.6926 6.65249 75.8108 6.43214 75.9998 6.25803L76.5667 5.73569C76.7557 5.56158 76.9316 5.36743 77.0944 5.15305L77.5829 4.50986C77.7457 4.29548 77.9645 4.17188 78.2392 4.13901L79.0636 4.04037C79.3384 4.00751 79.5988 3.97159 79.8447 3.93271L80.5827 3.81613C80.8287 3.77725 81.0664 3.67762 81.296 3.5173L81.9848 3.03635C82.2144 2.87603 82.4553 2.85291 82.7077 2.96701L83.4647 3.3093C83.7171 3.4234 83.9799 3.43745 84.2533 3.35129L85.0733 3.09274C85.3466 3.00658 85.5933 3.04159 85.8132 3.19785L86.4731 3.6666C86.6931 3.82285 86.9226 3.94922 87.1617 4.04562L87.8791 4.33481C88.1182 4.43121 88.3281 4.57137 88.5086 4.75534L89.0504 5.30734C89.231 5.49131 89.4246 5.66333 89.6313 5.82346L90.2513 6.3038C90.458 6.46392 90.592 6.67472 90.6535 6.93625L90.8378 7.72092C90.8993 7.98245 91.0146 8.21477 91.1839 8.41794L91.6916 9.02744C91.8609 9.2306 91.9574 9.46104 91.981 9.71884L92.0521 10.4923C92.0758 10.7501 92.0991 10.9636 92.1222 11.1328L92.1913 11.6404C92.2144 11.8096 92.3509 11.9276 92.6009 11.9944L93.3509 12.1945C93.6009 12.2613 93.8509 12.3273 94.1009 12.3925L94.8509 12.5882C95.1009 12.6534 95.298 12.5695 95.4421 12.3364L95.8746 11.6372C96.0187 11.4041 96.0438 11.1491 95.9498 10.8724L95.6679 10.0422C95.574 9.76547 95.653 9.54011 95.9051 9.36594L96.6614 8.84335C96.9135 8.66918 97.0297 8.43154 97.01 8.13034L96.951 7.22665C96.9313 6.92545 97.0067 6.67368 97.1771 6.47128L97.6883 5.86411C97.8587 5.66171 98.0849 5.53014 98.3668 5.46945L99.2126 5.28732C99.4946 5.22663 99.706 5.06859 99.847 4.81308L100.27 4.0466C100.411 3.79109 100.63 3.69799 100.928 3.76743L101.822 3.9758C102.12 4.04524 102.38 4.02382 102.603 3.91159L103.271 3.57492C103.494 3.46269 103.728 3.39519 103.975 3.37241L104.717 3.30405C104.964 3.28126 105.219 3.24322 105.483 3.19003L106.274 3.03049C106.538 2.9773 106.782 3.02216 107.008 3.16513L107.684 3.59409C107.909 3.73706 108.13 3.87048 108.347 3.99435L108.996 4.36594C109.213 4.48981 109.454 4.58594 109.72 4.65427L110.517 4.85934C110.782 4.92768 110.957 5.09901 111.04 5.37338L111.288 6.1965C111.371 6.47088 111.516 6.68713 111.721 6.84531L112.337 7.31979C112.542 7.47797 112.686 7.67675 112.77 7.91599L113.021 8.63364C113.105 8.87287 113.222 9.10397 113.373 9.32687L113.826 9.99557C113.977 10.2185 114.024 10.4621 113.966 10.7263L113.791 11.519C113.733 11.7832 113.808 11.9181 114.015 11.9237L114.639 11.9403C114.847 11.9458 115.075 11.969 115.325 12.0097L116.075 12.132C116.325 12.1728 116.498 12.1531 116.592 12.0727L116.875 11.8316C116.969 11.7513 117.08 11.5914 117.207 11.3517L117.588 10.6325C117.715 10.3928 117.773 10.1378 117.762 9.86752L117.728 9.05661C117.717 8.78633 117.772 8.53456 117.891 8.30124L118.25 7.60129C118.37 7.36797 118.523 7.15974 118.71 6.97665L119.272 6.42746C119.46 6.24438 119.668 6.0917 119.896 5.96945L120.581 5.60275C120.81 5.48051 121.02 5.34323 121.213 5.19089L121.79 4.73386C121.982 4.58151 122.179 4.42237 122.38 4.25656L122.982 3.75912C123.182 3.59332 123.411 3.50208 123.669 3.4852L124.442 3.43454C124.699 3.41766 124.952 3.38442 125.199 3.33481L125.94 3.18588C126.187 3.13627 126.443 3.0801 126.707 3.01718L127.5 2.82846C127.764 2.76555 128.003 2.83451 128.217 3.03537L128.857 3.63791C129.071 3.83877 129.305 3.95511 129.561 3.98703L130.327 4.08286C130.582 4.11477 130.821 4.19331 131.043 4.31845L131.71 4.69382C131.932 4.81896 132.104 4.99977 132.224 5.2363L132.586 5.94589C132.707 6.18242 132.842 6.39419 132.993 6.58102L133.446 7.14145C133.597 7.32828 133.762 7.51274 133.942 7.69479L134.479 8.24094C134.659 8.42299 134.807 8.62835 134.925 8.85703L135.279 9.54306C135.397 9.77174 135.416 10.0185 135.336 10.2832L135.096 11.0774C135.016 11.3421 135.076 11.4927 135.276 11.5294L135.875 11.6394C136.075 11.676 136.3 11.7787 136.55 11.9472L137.3 12.453C137.55 12.6215 137.83 12.6651 138.139 12.5835L139.066 12.3387C139.375 12.2571 139.526 12.0945 139.52 11.851L139.5 11.1207C139.493 10.8772 139.52 10.637 139.578 10.3999L139.754 9.68845C139.813 9.45132 139.858 9.20214 139.888 8.94089L139.978 8.1572C140.008 7.89595 140.127 7.68336 140.333 7.51938L140.953 7.02744C141.16 6.86345 141.335 6.68048 141.481 6.47861L141.916 5.87302C142.061 5.67115 142.252 5.52501 142.489 5.43466L143.201 5.16367C143.438 5.07332 143.641 4.92507 143.81 4.71896L144.316 4.10068C144.485 3.89457 144.689 3.74725 144.929 3.65878L145.647 3.3934C145.886 3.30493 146.132 3.23778 146.384 3.19186L147.141 3.05405C147.393 3.00813 147.649 2.9716 147.909 2.94455L148.689 2.8635C148.949 2.83645 149.211 2.83406 149.475 2.85629L150.269 2.92294C150.533 2.94518 150.777 3.03222 150.999 3.18405L151.666 3.6395C151.888 3.79133 152.078 3.9779 152.235 4.19907L152.705 4.86252C152.862 5.08368 153.039 5.26139 153.236 5.3956L153.826 5.79819C154.023 5.9324 154.191 6.09577 154.332 6.2883L154.753 6.86594C154.893 7.05846 155.089 7.22158 155.341 7.35544L156.098 7.75705C156.35 7.89091 156.472 8.09465 156.464 8.36813L156.44 9.18857C156.432 9.46205 156.492 9.71049 156.622 9.93405L157.012 10.6048C157.142 10.8284 157.223 11.0557 157.255 11.287L157.351 11.9808C157.384 12.2121 157.525 12.3616 157.775 12.4294L158.525 12.6329C158.775 12.7007 159.025 12.7102 159.275 12.6613L160.025 12.5146C160.275 12.4657 160.486 12.3423 160.657 12.1444L161.171 11.5506C161.343 11.3527 161.416 11.1279 161.391 10.8762L161.316 10.1212C161.291 9.86952 161.287 9.61058 161.303 9.34421L161.353 8.54501C161.369 8.27864 161.502 8.07434 161.752 7.9321L162.503 7.50534C162.753 7.3631 162.899 7.14559 162.939 6.85275L163.062 5.97434C163.102 5.6815 163.228 5.45713 163.44 5.30124L164.074 4.83359C164.286 4.6777 164.5 4.52582 164.716 4.37814L165.366 3.93515C165.583 3.78748 165.816 3.67176 166.064 3.58798L166.81 3.33664C167.058 3.25286 167.313 3.20437 167.573 3.19113L168.354 3.15146C168.615 3.13822 168.872 3.1123 169.128 3.07382L169.893 2.95834C170.149 2.91986 170.395 2.96544 170.631 3.09506L171.339 3.48398C171.576 3.6136 171.816 3.69634 172.062 3.73239L172.798 3.84055C173.044 3.87659 173.285 3.93774 173.522 4.0239L174.234 4.28232C174.471 4.36847 174.69 4.48793 174.892 4.64072L175.496 5.09909C175.697 5.25188 175.903 5.40423 176.113 5.55624L176.744 6.0123C176.954 6.16431 177.09 6.37225 177.151 6.63596L177.334 7.42697C177.395 7.69068 177.537 7.90956 177.76 8.08359L178.43 8.60568C178.653 8.77971 178.8 8.99364 178.872 9.24741L179.087 10.0086C179.159 10.2624 179.143 10.5221 179.04 10.7876L178.731 11.5838C178.628 11.8493 178.705 12.0435 178.963 12.1665L179.737 12.5354C179.995 12.6583 180.249 12.6588 180.499 12.5367L181.249 12.1706C181.499 12.0486 181.689 11.9605 181.818 11.9065L182.206 11.7444C182.335 11.6903 182.45 11.5444 182.549 11.3065L182.848 10.5926C182.948 10.3547 183.046 10.1243 183.144 9.90134L183.436 9.23227C183.534 9.00927 183.6 8.76714 183.634 8.50583L183.736 7.72189C183.77 7.46058 183.845 7.21109 183.961 6.97348L184.307 6.26071C184.423 6.0231 184.603 5.84719 184.848 5.73288L185.584 5.38986C185.829 5.27555 186.07 5.17693 186.309 5.09384L187.023 4.84457C187.261 4.76149 187.493 4.68141 187.718 4.60458L188.392 4.37412C188.617 4.29729 188.832 4.16598 189.036 3.98007L189.649 3.42233C189.853 3.23643 190.083 3.17215 190.339 3.22946L191.105 3.40146C191.361 3.45877 191.619 3.43549 191.88 3.33176L192.663 3.0206C192.924 2.91686 193.179 2.90571 193.428 2.98727L194.175 3.23203C194.424 3.31359 194.632 3.47234 194.799 3.70847L195.3 4.41684C195.467 4.65297 195.678 4.79721 195.932 4.84958L196.696 5.00668C196.95 5.05905 197.158 5.18067 197.319 5.37143L197.801 5.9437C197.962 6.13446 198.149 6.30543 198.363 6.45651L199.005 6.90976C199.219 7.06084 199.381 7.25239 199.49 7.48434L199.817 8.18015C199.927 8.4121 200.055 8.6405 200.201 8.86533L200.641 9.53976C200.788 9.76459 200.873 10.0088 200.898 10.2724L200.971 11.0632C200.996 11.3268 201.036 11.5277 201.093 11.666L201.264 12.0807C201.32 12.2189 201.474 12.2863 201.724 12.2827L202.474 12.2719C202.724 12.2684 202.971 12.2572 203.214 12.2385L203.945 12.1825C204.189 12.1638 204.322 12.0305 204.345 11.7827L204.415 11.0393C204.438 10.7915 204.472 10.5443 204.518 10.2976L204.656 9.55759C204.702 9.3109 204.763 9.06478 204.838 8.81931L205.063 8.08286C205.138 7.83738 205.25 7.61068 205.401 7.40256L205.852 6.77817C206.002 6.57005 206.208 6.42122 206.47 6.33188L207.257 6.06393C207.519 5.9746 207.7 5.79028 207.8 5.51108L208.099 4.67355C208.199 4.39435 208.366 4.19868 208.602 4.08664L209.309 3.75058C209.544 3.63854 209.793 3.57362 210.055 3.556L210.84 3.50314C211.102 3.48552 211.356 3.44889 211.601 3.39316L212.337 3.22592C212.582 3.17019 212.831 3.1453 213.084 3.15121L213.841 3.16904C214.093 3.17495 214.353 3.16756 214.619 3.14694L215.419 3.08505C215.686 3.06444 215.943 3.09976 216.191 3.19101L216.934 3.46481C217.181 3.55607 217.393 3.70628 217.568 3.91562L218.093 4.54367C218.268 4.75301 218.473 4.91411 218.709 5.02683L219.414 5.36496C219.65 5.47767 219.817 5.6575 219.916 5.90463L220.212 6.64609C220.311 6.89322 220.441 7.11197 220.603 7.30246L221.088 7.87399C221.25 8.06448 221.37 8.27808 221.448 8.51474L221.684 9.2247C221.762 9.46136 221.8 9.70427 221.798 9.95334L221.79 10.7005C221.788 10.9496 221.852 11.2113 221.983 11.4858L222.377 12.3093C222.508 12.5838 222.699 12.6457 222.949 12.4951L223.699 12.0432C223.949 11.8925 224.199 11.8191 224.449 11.823L225.199 11.8346C225.449 11.8384 225.655 11.7868 225.819 11.6797L226.309 11.3582C226.473 11.2511 226.575 11.0812 226.616 10.8487L226.741 10.1512C226.782 9.91869 226.832 9.68559 226.891 9.45187L227.067 8.7507C227.126 8.51699 227.205 8.28712 227.303 8.06113L227.597 7.38315C227.695 7.15716 227.826 6.9514 227.988 6.76572L228.476 6.20859C228.638 6.02291 228.791 5.81904 228.935 5.59689L229.365 4.93039C229.508 4.70824 229.718 4.58616 229.995 4.56406L230.824 4.49777C231.101 4.47567 231.337 4.37676 231.534 4.20102L232.124 3.67368C232.321 3.49793 232.541 3.35302 232.783 3.23886L233.51 2.89633C233.752 2.78217 234.001 2.81004 234.257 2.97983L235.026 3.48923C235.283 3.65901 235.543 3.68884 235.807 3.57883L236.601 3.24875C236.865 3.13873 237.094 3.18997 237.288 3.40244L237.867 4.03989C238.061 4.25235 238.284 4.37616 238.537 4.41135L239.298 4.51682C239.551 4.552 239.772 4.65012 239.961 4.811L240.528 5.29355C240.717 5.45443 240.87 5.64607 240.986 5.86838L241.333 6.53537C241.449 6.75768 241.643 6.92496 241.916 7.0372L242.735 7.37387C243.008 7.48611 243.162 7.67451 243.196 7.93918L243.299 8.73325C243.333 8.99792 243.373 9.25119 243.42 9.49313L243.561 10.219C243.608 10.4609 243.646 10.7033 243.675 10.946L243.762 11.6743C243.791 11.917 243.93 12.0652 244.179 12.119L244.925 12.2802C245.174 12.334 245.423 12.3132 245.673 12.2176L246.423 11.9309C246.673 11.8353 246.909 11.7755 247.13 11.7512L247.793 11.6783C248.014 11.654 248.122 11.5195 248.118 11.2744L248.103 10.539C248.099 10.2939 248.111 10.0452 248.141 9.79257L248.23 9.03464C248.259 8.78201 248.343 8.54971 248.481 8.33786L248.894 7.70236C249.032 7.49051 249.143 7.25473 249.226 6.99497L249.477 6.21567C249.561 5.9559 249.72 5.7612 249.954 5.63156L250.656 5.24265C250.89 5.11301 251.126 5.0029 251.366 4.91245L252.083 4.64108C252.322 4.55063 252.532 4.39526 252.713 4.1749L253.255 3.51376C253.436 3.2934 253.667 3.22055 253.949 3.29526L254.793 3.51938C255.074 3.59408 255.335 3.59772 255.576 3.53024L256.299 3.32785C256.54 3.26038 256.789 3.21196 257.046 3.18271L257.817 3.09494C258.074 3.06569 258.307 3.14194 258.516 3.32358L259.145 3.8685C259.354 4.05014 259.597 4.13482 259.872 4.12253L260.698 4.08566C260.973 4.07337 261.208 4.15167 261.401 4.32053L261.982 4.82712C262.175 4.99598 262.376 5.1547 262.585 5.30344L263.211 5.7496C263.42 5.89834 263.573 6.09412 263.669 6.33676L263.958 7.06467C264.055 7.30731 264.147 7.5424 264.236 7.76999L264.502 8.45273C264.591 8.68032 264.674 8.90774 264.751 9.13498L264.983 9.81674C265.06 10.044 265.172 10.2722 265.319 10.5014L265.76 11.1889C265.907 11.4181 266.025 11.6237 266.116 11.8054L266.387 12.3504C266.478 12.5321 266.648 12.6157 266.898 12.601L267.648 12.557C267.898 12.5423 268.177 12.4987 268.484 12.4262L269.406 12.2087C269.713 12.1362 269.826 11.9728 269.745 11.7182L269.501 10.9546C269.419 10.7 269.405 10.4477 269.458 10.1975L269.618 9.44687C269.671 9.19668 269.812 8.98944 270.041 8.82517L270.728 8.33237C270.957 8.16809 271.093 7.95431 271.138 7.69101L271.272 6.90109C271.316 6.63779 271.398 6.38326 271.515 6.13754L271.869 5.40048C271.987 5.15477 272.191 5.01378 272.481 4.97751L273.351 4.86874C273.641 4.83248 273.895 4.76378 274.114 4.66281L274.772 4.35996C274.991 4.25899 275.204 4.12047 275.41 3.94443L276.026 3.41635C276.232 3.24031 276.463 3.13488 276.718 3.10019L277.485 2.99619C277.741 2.9615 277.997 2.95264 278.254 2.9697L279.024 3.02097C279.28 3.03803 279.522 3.11402 279.749 3.24899L280.431 3.6539C280.658 3.78887 280.889 3.8877 281.126 3.95053L281.834 4.13913C282.071 4.20196 282.318 4.26175 282.577 4.3187L283.353 4.48959C283.611 4.54654 283.788 4.71077 283.883 4.98239L284.167 5.79733C284.262 6.06896 284.448 6.24772 284.727 6.33371L285.564 6.59177C285.842 6.67776 286.011 6.85097 286.069 7.11142L286.244 7.89279C286.302 8.15324 286.431 8.38115 286.631 8.57663L287.23 9.16306C287.43 9.35853 287.51 9.59178 287.471 9.86276L287.354 10.6758C287.314 10.9467 287.332 11.1385 287.408 11.2513L287.634 11.5897C287.71 11.7025 287.872 11.8227 288.122 11.9505L288.872 12.3341C289.122 12.4619 289.372 12.5175 289.622 12.5008L290.372 12.4509C290.622 12.4343 290.798 12.3797 290.899 12.2873L291.203 12.0101C291.304 11.9177 291.339 11.742 291.309 11.4828L291.217 10.705C291.186 10.4458 291.197 10.1884 291.25 9.93295L291.407 9.16647C291.46 8.91098 291.512 8.65745 291.563 8.40573L291.717 7.65048C291.768 7.39876 291.858 7.16174 291.986 6.9393L292.371 6.27194C292.499 6.04951 292.617 5.82142 292.726 5.58762L293.053 4.8862C293.162 4.6524 293.339 4.47847 293.585 4.36435L294.321 4.02194C294.566 3.90782 294.746 3.71882 294.86 3.4548L295.202 2.66269C295.316 2.39868 295.503 2.2368 295.764 2.17685L296.548 1.99692C296.809 1.93696 297.055 1.85301 297.287 1.74496L297.982 1.42087C298.214 1.31283 298.457 1.24571 298.711 1.21957L299.474 1.14121C299.728 1.11507 299.982 1.11201 300.234 1.13217L300.991 1.19272C301.243 1.21288 301.504 1.2001 301.774 1.15439L302.583 1.01718C302.852 0.971466 303.102 1.01697 303.331 1.15378L304.018 1.5643C304.247 1.70111 304.451 1.86526 304.631 2.05685L305.171 2.63168C305.351 2.82328 305.527 3.00356 305.701 3.17258L306.223 3.67966C306.396 3.84867 306.591 4.00114 306.805 4.13718L307.449 4.54538C307.663 4.68142 307.802 4.87372 307.866 5.12241L308.056 5.8685C308.119 6.11718 308.264 6.32859 308.49 6.50278L309.167 7.02536C309.392 7.19955 309.543 7.41212 309.618 7.66318L309.843 8.41635C309.918 8.66741 309.878 8.92264 309.724 9.1821L309.262 9.96054C309.108 10.22 309.054 10.4726 309.101 10.7184L309.241 11.4558C309.287 11.7016 309.409 11.8447 309.605 11.8851L310.193 12.0063C310.389 12.0467 310.612 12.0706 310.862 12.078L311.612 12.1001C311.862 12.1074 312.112 12.0842 312.362 12.0304L313.112 11.8687C313.362 11.8149 313.508 11.7296 313.549 11.6129L313.673 11.2625C313.715 11.1458 313.712 10.9558 313.665 10.6926L313.524 9.90292C313.477 9.6397 313.52 9.39254 313.653 9.16147L314.052 8.46823C314.185 8.23716 314.268 7.98695 314.303 7.71762L314.406 6.90964C314.44 6.64031 314.564 6.42176 314.778 6.254L315.418 5.7507C315.632 5.58294 315.798 5.37715 315.918 5.13327L316.278 4.40158C316.397 4.15771 316.604 4.02032 316.896 3.98935L317.775 3.89645C318.068 3.86548 318.305 3.75604 318.487 3.56821L319.034 3.00473C319.216 2.8169 319.423 2.66074 319.656 2.5361L320.352 2.16208C320.585 2.03744 320.833 1.99517 321.098 2.03513L321.892 2.155C322.157 2.19495 322.412 2.23858 322.658 2.28598L323.396 2.42819C323.642 2.47559 323.885 2.52045 324.125 2.56284L324.846 2.69003C325.086 2.73241 325.337 2.7621 325.598 2.77914L326.382 2.83029C326.644 2.84733 326.87 2.94231 327.062 3.11533L327.636 3.63437C327.828 3.80739 328.003 3.98935 328.163 4.18002L328.641 4.75204C328.8 4.94272 328.96 5.12822 329.12 5.30856L329.6 5.84958C329.761 6.02993 329.91 6.21977 330.05 6.41904L330.469 7.01682C330.608 7.21608 330.763 7.41702 330.933 7.61972L331.443 8.22788C331.613 8.43058 331.734 8.65697 331.806 8.90707L332.021 9.65744C332.092 9.90755 332.101 10.1618 332.048 10.42L331.887 11.1947C331.833 11.4529 331.872 11.5887 332.003 11.6018L332.397 11.6411C332.528 11.6542 332.719 11.6589 332.969 11.6556L333.719 11.6456C333.969 11.6423 334.219 11.6942 334.469 11.8012L335.219 12.1225C335.469 12.2296 335.719 12.2767 335.969 12.2639L336.719 12.2253C336.969 12.2124 337.219 12.2074 337.469 12.2102L338.219 12.2186C338.469 12.2214 338.622 12.2229 338.679 12.2229H338.848C338.905 12.2229 338.932 12.1201 338.93 11.9145L338.925 11.2978C338.923 11.0923 338.938 10.8646 338.97 10.6146" stroke="black" stroke-width="2"/>
</svg>
