<svg width="241" height="26" viewBox="0 0 241 26" fill="none" xmlns="http://www.w3.org/2000/svg">
<path d="M15.2364 11.1996L14.2545 12.2177L12.5454 10.5086V3.23592L13.8909 1.8541L15.2364 3.23592V11.1996ZM13.3818 1.34501L12.0364 2.72683H3.19999L0.509085 -0.000443459H12.0364L13.3818 1.34501ZM2.72727 10.5086L1.01818 12.2177L-5.54323e-06 11.1996V0.508647L2.72727 3.23592V10.5086ZM2.72727 22.7268L-5.54323e-06 25.4541V14.2905L1.01818 13.2359L2.72727 14.945V22.7268ZM4.58181 16.6905V14.7632H6.50909L15.2364 23.5268V25.4541H13.3091L4.58181 16.6905ZM12.3636 11.3814L13.7454 12.7268L12.3636 14.0723H2.87272L1.52727 12.7268L2.87272 11.3814H12.3636ZM34.8457 -0.000443459L32.1548 2.72683H22.8094L20.1185 -0.000443459H34.8457ZM34.8457 25.4541H20.1185L22.8094 22.7268H32.1548L34.8457 25.4541ZM22.3366 14.945V22.2177L19.6094 24.945V14.2905L20.6276 13.2359L22.3366 14.945ZM19.6094 11.1996V0.508647L22.3366 3.23592V10.5086L20.6276 12.2177L19.6094 11.1996ZM31.973 11.3814L33.3548 12.7268L31.973 14.0723H22.4821L21.1366 12.7268L22.4821 11.3814H31.973ZM53.946 -0.000443459L51.2551 2.72683H42.4187L39.7278 -0.000443459H53.946ZM41.946 14.945V22.7268L39.2187 25.4541V14.2905L40.2369 13.2359L41.946 14.945ZM39.2187 11.1996V0.508647L41.946 3.23592V10.5086L40.2369 12.2177L39.2187 11.1996ZM54.4551 14.2905V25.4541L51.7642 22.7268V14.945L53.4733 13.2359L54.4551 14.2905ZM51.7642 10.5086V3.23592L54.4551 0.508647V11.1996L53.4733 12.2177L51.7642 10.5086ZM51.5824 11.3814L52.9642 12.7268L51.5824 14.0723H42.0915L40.746 12.7268L42.0915 11.3814H51.5824ZM74.0645 22.2177L72.719 23.5996L71.3736 22.2177V14.945L73.0827 13.2359L74.0645 14.2905V22.2177ZM74.0645 11.1996L73.0827 12.2177L71.3736 10.5086V3.23592L72.719 1.8541L74.0645 3.23592V11.1996ZM72.2099 1.34501L70.8645 2.72683H62.0281L59.3372 -0.000443459H70.8645L72.2099 1.34501ZM72.2099 24.1086L70.8645 25.4541H59.3372L62.0281 22.7268H70.8645L72.2099 24.1086ZM61.5554 10.5086L59.8463 12.2177L58.8281 11.1996V0.508647L61.5554 3.23592V10.5086ZM61.5554 22.2177L58.8281 24.945V14.2905L59.8463 13.2359L61.5554 14.945V22.2177ZM93.6739 11.1996L92.692 12.2177L90.9829 10.5086V2.72683L93.6739 -0.000443459V11.1996ZM78.4375 11.1996L79.4557 12.2177L81.1648 10.5086V2.72683L78.4375 -0.000443459V11.1996ZM81.6375 25.4541L80.292 24.1086L81.6375 22.7268H90.4739L91.8193 24.1086L90.4739 25.4541H81.6375ZM93.6739 22.2177L92.3284 23.5996L90.9829 22.2177V14.945L92.692 13.2359L93.6739 14.2905V22.2177ZM90.8011 11.3814L92.1829 12.7268L90.8011 14.0723H81.3102L79.9648 12.7268L81.3102 11.3814H90.8011ZM122.736 -0.000443459L120.045 2.72683H110.227L107.5 -0.000443459H122.736ZM116.482 24.1086L115.1 25.4541L113.755 24.1086V16.2905L115.464 14.5814L116.482 15.5996V24.1086ZM116.482 12.5814L115.464 13.5632L113.755 11.8905V4.58138L115.1 3.23592L116.482 4.58138V12.5814ZM142.346 11.1996L141.364 12.2177L139.655 10.5086V3.23592L141 1.8541L142.346 3.23592V11.1996ZM140.491 1.34501L139.146 2.72683H130.309L128.964 1.34501L130.309 -0.000443459H139.146L140.491 1.34501ZM142.346 22.2177L141 23.5996L139.655 22.2177V14.945L141.364 13.2359L142.346 14.2905V22.2177ZM129.837 10.5086L128.128 12.2177L127.109 11.1996V3.23592L128.455 1.8541L129.837 3.23592V10.5086ZM127.109 22.2177L128.455 23.5996L129.837 22.2177V14.945L128.128 13.2359L127.109 14.2905V22.2177ZM130.309 25.4541L128.964 24.1086L130.309 22.7268H139.146L140.491 24.1086L139.146 25.4541H130.309ZM171.408 11.1996L170.426 12.2177L168.717 10.5086V3.23592L170.063 1.8541L171.408 3.23592V11.1996ZM169.554 1.34501L168.208 2.72683H159.372L156.681 -0.000443459H168.208L169.554 1.34501ZM158.899 10.5086L157.19 12.2177L156.172 11.1996V0.508647L158.899 3.23592V10.5086ZM158.899 22.7268L156.172 25.4541V14.2905L157.19 13.2359L158.899 14.945V22.7268ZM168.536 11.3814L169.917 12.7268L168.536 14.0723H159.045L157.699 12.7268L159.045 11.3814H168.536ZM191.018 11.1996L190.036 12.2177L188.327 10.5086V3.23592L189.672 1.8541L191.018 3.23592V11.1996ZM189.163 1.34501L187.818 2.72683H178.981L176.29 -0.000443459H187.818L189.163 1.34501ZM178.509 10.5086L176.799 12.2177L175.781 11.1996V0.508647L178.509 3.23592V10.5086ZM178.509 22.7268L175.781 25.4541V14.2905L176.799 13.2359L178.509 14.945V22.7268ZM180.363 16.6905V14.7632H182.29L191.018 23.5268V25.4541H189.09L180.363 16.6905ZM188.145 11.3814L189.527 12.7268L188.145 14.0723H178.654L177.309 12.7268L178.654 11.3814H188.145ZM199.791 11.1996L198.772 12.2177L197.063 10.5086V1.34501L198.409 -0.000443459L199.791 1.34501V11.1996ZM199.791 24.1086L198.409 25.4541L197.063 24.1086V14.945L198.772 13.2359L199.791 14.2905V24.1086ZM208.548 14.945V22.7268L205.82 25.4541V14.2905L206.838 13.2359L208.548 14.945ZM205.82 11.1996V-0.000443459L208.548 2.72683V10.5086L206.838 12.2177L205.82 11.1996ZM221.057 14.2905V25.4541L218.366 22.7268V14.945L220.075 13.2359L221.057 14.2905ZM218.366 10.5086V2.72683L221.057 -0.000443459V11.1996L220.075 12.2177L218.366 10.5086ZM209.166 4.69047V2.72683H211.093L217.711 9.34501V11.2723H215.784L209.166 4.69047ZM240.666 -0.000443459L237.975 2.72683H228.157L225.43 -0.000443459H240.666ZM234.412 24.1086L233.03 25.4541L231.684 24.1086V16.2905L233.393 14.5814L234.412 15.5996V24.1086ZM234.412 12.5814L233.393 13.5632L231.684 11.8905V4.58138L233.03 3.23592L234.412 4.58138V12.5814Z" fill="black"/>
</svg>
