<svg width="23" height="28" viewBox="0 0 23 28" fill="none" xmlns="http://www.w3.org/2000/svg">
<path d="M2.70654 1.01975C3.00335 1.01975 3.52639 0.982789 3.79743 1.01023C4.16121 1.04706 5.3464 1.07575 6.43729 1.16871C7.0914 1.22445 7.57746 1.29975 8.01454 1.34623C9.10241 1.46192 9.51731 1.29975 10.1146 1.25327C10.9725 1.18651 11.4213 1.29975 11.9262 1.34623C12.3551 1.38572 12.9143 1.41175 13.8929 1.50471C15.002 1.61007 15.4164 1.46775 15.707 1.36555C15.9915 1.26552 16.775 1.24375 17.2751 1.29023C17.5461 1.31823 17.7141 1.37423 17.8351 1.40223C17.9006 1.41175 17.9745 1.41175 18.0507 1.41175" stroke="black" stroke-width="1.75" stroke-linecap="round"/>
<path d="M18.2745 1.35583C18.2 1.46728 17.9037 1.9864 17.6405 2.4372C17.4205 2.81399 17.2676 3.07169 17.1082 3.36149C16.9852 3.58529 16.6717 4.07746 16.0837 4.83402C15.3666 5.75676 15.1026 6.05763 14.7571 6.47819C14.4026 6.90964 14.1696 7.40052 13.4425 8.53845C13.1503 8.9956 12.9186 9.39862 12.6937 9.69906C12.5815 9.92334 12.4695 10.1468 12.2925 10.4175C12.2455 10.4833 12.2085 10.5388 12.1704 10.5959" stroke="black" stroke-width="1.75" stroke-linecap="round"/>
<path d="M2.59424 1.01974C2.79864 1.29807 3.06016 1.85751 3.47932 2.6502C3.65813 2.98833 3.78817 3.25864 3.92845 3.48292C4.06365 3.69908 4.27313 3.93065 4.54389 4.21989C4.69033 4.37632 4.9625 4.78745 5.45586 5.43874C6.34411 6.61132 6.62291 7.30523 6.90571 7.78544C7.05453 8.03813 7.35203 8.48348 7.57744 8.83992C7.88845 9.33175 8.19316 9.53069 8.42668 9.76421C8.69772 10.0537 8.99509 10.3886 9.21097 10.6417C9.25773 10.6888 9.31317 10.7257 9.42629 10.8198" stroke="black" stroke-width="1.75" stroke-linecap="round"/>
<path d="M17.9945 2.30774C18.2908 2.23381 19.0003 2.00981 19.6628 1.98097C20.071 1.9632 20.3084 2.41862 20.5324 2.78234C20.6778 3.01833 20.5896 3.35158 20.4778 3.66911C20.3227 4.11004 19.7899 4.52535 19.4052 4.80843C18.947 5.14559 18.5377 5.20072 18.2199 5.23824C17.7064 5.29887 17.4916 5.46168 17.2209 5.6112C16.9779 5.74536 16.7636 5.87272 16.4929 5.93824C16.264 5.99363 16.0356 6.04072 15.8113 6.11548C15.6996 6.15272 15.5686 6.20872 15.4288 6.28321C15.363 6.32073 15.3076 6.35769 15.2505 6.39577" stroke="black" stroke-width="1.75" stroke-linecap="round"/>
<path d="M5.06575 11.0345C4.66507 10.9689 3.95386 10.932 3.15418 10.932C2.98394 10.876 2.87306 10.876 2.77953 10.9141C2.68601 10.9521 2.61209 11.0261 2.57513 11.1106C2.53817 11.1952 2.53185 11.2887 2.54769 11.3623C2.57569 11.4925 2.66001 11.5756 2.76301 11.6701C2.87474 11.7725 3.02403 11.863 3.25918 11.8747C3.8273 11.903 4.16116 11.9756 4.64295 11.9868C5.86236 12.015 6.19519 12.0182 6.5828 12.0052C7.43037 11.977 7.689 11.8897 8.3037 11.8932C9.98735 11.903 10.3213 11.9597 10.6784 11.9868C11.0514 12.015 11.429 12.0306 11.7794 12.1083C12.1165 12.183 12.6745 12.2609 13.4101 12.2668C14.5671 12.276 15.4 12.2423 15.6067 12.2292C16.0544 12.201 16.3121 12.1279 16.6914 12.1172C17.6975 12.089 18.0933 12.0848 18.2656 11.8739L18.2677 11.8714C18.3508 11.7696 18.4421 11.6579 18.4235 11.5471C18.4048 11.4354 18.3882 11.262 18.2642 11.1834C18.1617 11.1185 17.7053 11.1293 17.0862 11.0905C16.3445 11.044 15.525 10.9995 14.3235 11.1095C14.0177 11.1375 13.3126 11.2142 12.3343 11.1465C11.6629 11.1 11.2152 11.0804 10.9466 11.0345C10.675 10.988 10.3744 10.8227 8.2267 10.9415C7.38669 10.988 6.79204 11.0073 6.3728 11.0535C5.95084 11.1 5.50075 11.1056 5.06575 11.0345Z" stroke="black" stroke-width="1.75" stroke-linecap="round"/>
<path d="M4.05033 12.3879C3.92041 12.4249 3.65945 12.5369 3.35144 12.8345C3.19841 12.9824 3.1364 13.1714 3.04288 13.2923C2.84404 13.5495 3.60009 13.9537 3.87225 14.2816C4.04155 14.4855 4.21777 14.5529 4.28329 14.6366C4.47606 14.8829 4.01337 15.3358 3.89213 15.5791C3.72684 15.9108 3.50936 16.3628 3.37888 16.6428C3.234 16.9537 3.06136 17.2398 2.93088 17.5016C2.76989 17.8246 2.6884 18.2097 2.55736 18.5841C2.46891 18.8368 2.38936 19.1068 2.28688 19.4238C2.1129 19.9619 1.92343 20.4676 1.81983 20.8336C1.69863 21.2618 1.54935 21.9069 1.52107 22.1776C1.49527 22.4246 1.28839 22.7088 1.13887 23.2772C0.901638 24.179 1.02631 24.6498 1.09127 24.9312C1.18214 25.3248 1.75319 25.585 2.3944 25.8916C3.80016 26.5638 4.10521 26.5 4.47817 26.593C4.78895 26.6704 5.83338 26.668 6.54095 26.7145C6.77277 26.7297 6.98027 26.7425 7.60048 26.7705C8.14629 26.7951 9.16317 26.78 9.73297 26.7708C10.5655 26.7573 10.8992 26.6871 12.0777 26.6215C12.8642 26.5778 14.2883 26.612 15.0491 26.6028C16.1266 26.5897 16.6863 26.5191 17.5896 26.4908C17.9989 26.478 18.2173 26.388 18.9064 26.1464C19.1142 26.0735 19.2444 25.9596 19.3748 25.7642C19.6649 25.3297 19.6184 23.9341 19.5627 23.1599C19.5448 22.9108 19.4695 22.6192 19.2925 22.0133C19.1174 21.4136 19.0775 21.1811 18.938 20.6791C18.6064 19.4849 18.4436 19.0553 18.3587 18.6429C18.2349 18.0409 18.1445 17.7102 18.0135 17.3823C17.9176 17.1423 17.8824 16.8691 17.7802 16.6448C17.6809 16.4268 17.6215 16.1971 17.5467 15.9543C17.4335 15.5866 17.3045 15.1342 17.1735 14.8063C17.0842 14.583 17.0055 14.349 16.8842 14.0506C16.7163 13.6371 16.6135 13.285 16.5387 13.0608C16.5015 12.949 16.4639 12.818 16.4267 12.6783C16.4079 12.6125 16.3895 12.557 16.3704 12.4439" stroke="black" stroke-width="1.75" stroke-linecap="round"/>
<path d="M17.0425 14.1239C17.2284 14.0125 17.4894 13.8629 18.699 13.8531C19.1744 13.8493 19.4303 14.0298 19.8125 14.281C20.6196 14.8114 20.7374 15.1308 20.9152 15.3643C21.1179 15.6306 21.2235 15.8588 21.3447 16.0923C21.4783 16.3496 21.5595 16.6607 21.7364 17.0995C21.9092 17.5278 21.9515 17.7628 21.9798 18.0521C22.0262 18.5273 21.9896 19.0508 21.9056 19.3216C21.8275 19.5733 21.4878 20.1115 20.9922 20.693C20.7123 21.0215 20.4036 21.1979 20.1793 21.4404C19.9735 21.6274 19.8615 21.7954 19.7778 21.9071C19.7311 21.9634 19.6756 22.0189 19.5625 22.132" stroke="black" stroke-width="1.75" stroke-linecap="round"/>
<path d="M10.0422 13.62C10.0052 13.7499 9.8932 14.0108 9.74424 14.4393C9.52641 15.0657 9.3892 15.3918 9.36092 15.6816C9.33734 15.9232 9.2212 16.1389 9.19291 16.3631C9.15971 16.6265 9.10919 16.9229 9.15511 17.1472C9.20462 17.389 9.36904 17.6318 9.59332 17.8659C9.69002 17.9668 9.8176 18.0065 9.9478 18.0345C10.2597 18.1015 10.526 17.895 10.7786 17.811C10.9245 17.7625 11.0681 17.671 11.2078 17.5596C11.5445 17.291 11.3492 16.8321 11.2745 16.5331C11.1985 16.2292 11.0692 15.9361 10.9944 15.6186C10.8979 15.2084 10.8262 14.8352 10.724 14.5636C10.6212 14.2925 10.4722 14.0691 10.332 13.8448C10.3037 13.7885 10.2852 13.7331 10.2102 13.564" stroke="black" stroke-width="1.75" stroke-linecap="round"/>
<path d="M1.64258 22.468C1.7165 22.468 2.34594 22.4865 3.28815 22.5238C4.16037 22.5582 5.16724 22.5061 5.51501 22.4588C5.65588 22.4396 6.02629 22.3751 7.4907 22.3098C8.65861 22.2578 10.6922 22.2631 11.8041 22.2443C12.916 22.2256 13.0454 22.2071 13.4354 22.253C14.4769 22.3756 15.2496 22.561 15.935 22.6447C16.5072 22.7146 17.5445 22.7469 18.1053 22.7478C18.7216 22.6932 18.8896 22.636 19.0853 22.6268C19.1702 22.6176 19.2256 22.5991 19.2827 22.58" stroke="black" stroke-width="1.75" stroke-linecap="round"/>
</svg>
