<svg width="21" height="20" viewBox="0 0 21 20" fill="none" xmlns="http://www.w3.org/2000/svg">
<path d="M12.3762 18.8597C12.6955 18.1222 11.2204 13.253 8.76502 7.06517C7.84583 4.74867 7.05682 3.75094 6.47411 3.007C5.8297 2.18426 4.08423 2.25666 2.54206 2.41471C1.613 2.50993 1.3096 3.636 1.04299 4.48531C0.913766 4.89698 1.09248 5.33462 1.3575 5.6571C2.7943 6.72353 4.06826 7.78676 5.71101 8.42534C6.72156 8.64246 8.09132 8.64246 9.50258 8.64246" stroke="black" stroke-width="2" stroke-linecap="round"/>
<path d="M11.4185 12.4739C11.3131 11.2064 11.0992 8.43812 11.4169 6.73312C11.7256 5.07597 12.7978 3.85951 14.9737 2.10342C16.1783 1.13132 17.5871 1.40417 18.3838 1.72187C18.7842 1.88155 19.075 2.25029 19.2379 2.78191C19.4007 3.31352 19.4007 4.05108 19.2953 4.58909C19.19 5.12709 18.9792 5.44319 18.5019 5.76407C16.0003 6.72673 14.2984 6.8321 13.0772 6.99174C12.4881 7.04602 11.9612 7.04602 11.4185 7.04602" stroke="black" stroke-width="2" stroke-linecap="round"/>
</svg>
