<svg width="35" height="35" viewBox="0 0 35 35" fill="none" xmlns="http://www.w3.org/2000/svg">
<circle cx="17.407" cy="17.3736" r="16" transform="rotate(-9.92295 17.407 17.3736)" fill="black"/>
<path d="M33.2833 15.7347L32.2886 15.8375L33.2833 15.7347ZM33.228 16.4799L34.1978 16.7241L33.228 16.4799ZM33.0404 17.2248L32.0707 16.9806L33.0404 17.2248ZM32.9645 17.9649L31.9657 18.0135L32.9645 17.9649ZM32.9824 18.3325L33.9812 18.2839L32.9824 18.3325ZM33.0003 18.7002L33.9991 18.6516L33.0003 18.7002ZM33.0495 19.4492L32.0529 19.5312L33.0495 19.4492ZM33.1123 20.212L34.1089 20.13L33.1123 20.212ZM33.1236 20.9802L32.1249 20.9284L33.1236 20.9802ZM33.0834 21.7538L34.0821 21.8057L33.0834 21.7538ZM32.9355 22.5021L33.8782 22.8357L32.9355 22.5021ZM32.8076 22.8636L31.8648 22.5301L32.8076 22.8636ZM32.6797 23.2251L33.6224 23.5586L32.6797 23.2251ZM32.2788 23.8759L31.5515 23.1896L32.2788 23.8759ZM32.0059 24.1652L31.2785 23.4789L32.0059 24.1652ZM31.7329 24.4544L32.4602 25.1407L31.7329 24.4544ZM31.3603 25.122L30.3933 24.8674L31.3603 25.122ZM31.2607 25.5003L32.2277 25.7549L31.2607 25.5003ZM31.1611 25.8786L30.1941 25.624L31.1611 25.8786ZM30.8412 26.5688L30.0244 25.9919L30.8412 26.5688ZM30.4007 27.1925L31.2175 27.7694L30.4007 27.1925ZM29.7758 27.6452L29.447 26.7008L29.7758 27.6452ZM28.9665 27.9269L29.2953 28.8713L28.9665 27.9269ZM28.3845 28.4154L29.2753 28.8699L28.3845 28.4154ZM28.0298 29.1108L27.139 28.6564L28.0298 29.1108ZM27.5451 29.6713L28.1143 30.4934L27.5451 29.6713ZM26.9303 30.0969L27.4996 30.9191L26.9303 30.0969ZM26.3102 30.5112L26.8517 31.3519L26.3102 30.5112ZM25.6846 30.9142L26.2262 31.7549L25.6846 30.9142ZM25.0188 31.2372L24.6933 30.2916L25.0188 31.2372ZM24.6657 31.3587L24.9911 32.3043L24.6657 31.3587ZM24.3126 31.4803L23.9871 30.5347L24.3126 31.4803ZM23.6104 31.7136L23.9153 32.6659L23.6104 31.7136ZM22.9122 31.9371L22.6073 30.9848L22.9122 31.9371ZM22.2352 32.2385L21.7348 31.3727L22.2352 32.2385ZM21.9072 32.428L22.4076 33.2938L21.9072 32.428ZM21.5793 32.6176L21.0788 31.7518L21.5793 32.6176ZM20.8813 32.854L21.007 33.8461L20.8813 32.854ZM20.1413 32.9477L20.267 33.9398L20.1413 32.9477ZM19.408 33.1165L19.7262 34.0645L19.408 33.1165ZM19.0447 33.2384L18.7266 32.2904L19.0447 33.2384ZM18.6814 33.3603L18.3633 32.4123L18.6814 33.3603ZM17.9435 33.3973L17.7224 34.3726L17.9435 33.3973ZM17.1941 33.2274L16.9731 34.2027L17.1941 33.2274ZM16.4404 33.1936L16.574 34.1847L16.4404 33.1936ZM15.6823 33.2958L15.5487 32.3048L15.6823 33.2958ZM14.9189 33.3365L14.8919 34.3362L14.9189 33.3365ZM14.1501 33.3158L14.1771 32.3161L14.1501 33.3158ZM13.3772 33.2622L13.4877 32.2683L13.3772 33.2622ZM12.6002 33.1758L12.4897 34.1697L12.6002 33.1758ZM11.601 32.5913L12.2642 31.843L11.601 32.5913ZM11.2956 32.3207L11.9589 31.5723L11.2956 32.3207ZM10.682 31.833L10.1063 32.6507L10.682 31.833ZM10.3737 31.616L10.9494 30.7983L10.3737 31.616ZM10.0655 31.3989L10.6412 30.5813L10.0655 31.3989ZM9.37427 31.0873L9.61404 30.1165L9.37427 31.0873ZM8.99134 30.9927L8.75158 31.9636L8.99134 30.9927ZM8.60841 30.8981L8.84818 29.9273L8.60841 30.8981ZM7.99987 30.4793L7.17901 31.0504L7.99987 30.4793ZM7.54865 29.8308L6.72778 30.4019L7.54865 29.8308ZM6.99776 29.3095L6.47964 30.1648L6.99776 29.3095ZM6.34722 28.9154L6.86534 28.0601L6.34722 28.9154ZM5.79151 28.4208L5.00092 29.0332V29.0332L5.79151 28.4208ZM5.33065 27.8258L6.12125 27.2135V27.2135L5.33065 27.8258ZM4.87756 27.2282L4.07449 27.8241L4.87756 27.2282ZM4.6549 26.9281L3.85183 27.524L4.6549 26.9281ZM4.43225 26.628L5.23532 26.0322L4.43225 26.628ZM4.1205 25.9512L3.14733 26.1813L4.1205 25.9512ZM3.94232 25.1976L4.91549 24.9675L3.94232 25.1976ZM2.66113 23.3642L1.66114 23.3681L2.66113 23.3642ZM2.31055 21.8852L1.66213 22.6465L2.31055 21.8852ZM1.61855 21.2958L2.26696 20.5345L1.61855 21.2958ZM1.18989 20.6215L0.21279 20.8343L1.18989 20.6215ZM1.13793 19.0871L2.03395 19.5311L1.13793 19.0871ZM1.33396 18.6915L2.22998 19.1355L1.33396 18.6915ZM1.52999 18.2959L0.633969 17.8519L1.52999 18.2959ZM1.74581 17.5337L0.747261 17.4798L1.74581 17.5337ZM1.64719 16.0394L0.718871 16.4112L1.64719 16.0394ZM1.20751 14.4681L0.211393 14.38L1.20751 14.4681ZM1.2761 13.6923L2.27221 13.7804L1.2761 13.6923ZM1.42418 12.9325L0.467927 12.64L1.42418 12.9325ZM1.65173 12.1887L0.695484 11.8962L1.65173 12.1887ZM2.00573 11.5002L2.80236 12.1047L2.00573 11.5002ZM2.24595 11.1836L1.44932 10.5792L2.24595 11.1836ZM2.48617 10.867L1.68954 10.2626L2.48617 10.867ZM3.04265 10.2966L2.41662 9.51677L3.04265 10.2966ZM3.3589 10.0427L2.73288 9.26288L3.3589 10.0427ZM3.67516 9.78878L4.30119 10.5686L3.67516 9.78878ZM4.10833 9.1711L3.15628 8.86515L4.10833 9.1711ZM4.34214 8.44352L5.29419 8.74947L4.34214 8.44352ZM4.76426 7.85078L4.16418 7.05083L4.76426 7.85078ZM5.37468 7.39287L4.77461 6.59292L5.37468 7.39287ZM5.90197 6.86942L6.7004 7.47151L5.90197 6.86942ZM6.34612 6.28044L5.54769 5.67836L6.34612 6.28044ZM6.8448 5.74255L6.18418 4.99182L6.8448 5.74255ZM7.39801 5.25573L6.7374 4.50501L7.39801 5.25573ZM8.26792 4.57386L7.67359 3.76965L8.26792 4.57386ZM8.56457 4.35463L9.15891 5.15885L8.56457 4.35463ZM9.1458 3.88364L8.4832 3.13467L9.1458 3.88364ZM9.71496 3.38012L10.3776 4.12909L9.71496 3.38012ZM10.3234 2.92725L9.79582 2.07773L10.3234 2.92725ZM10.971 2.52506L11.4986 3.37458L10.971 2.52506ZM11.6291 2.11539L12.1585 2.96379L11.6291 2.11539ZM12.2976 1.69827L12.827 2.54666L12.2976 1.69827ZM13.0379 1.54097L12.9126 2.53309L13.0379 1.54097ZM14.6335 1.70149L14.6157 2.70133L14.6335 1.70149ZM16.1352 1.76151L16.0278 2.75573L16.1352 1.76151ZM16.5039 1.80134L16.3965 2.79556L16.5039 1.80134ZM16.8727 1.84117L16.9801 0.846956L16.8727 1.84117ZM18.0107 1.37278L17.4594 0.538431L18.0107 1.37278ZM18.3953 1.11867L17.844 0.28432L18.3953 1.11867ZM19.1221 1.15342L18.4771 1.9176L19.1221 1.15342ZM19.4644 1.44227L20.1094 0.67809L19.4644 1.44227ZM19.8066 1.73113L19.1616 2.49532L19.8066 1.73113ZM21.3676 1.72319L21.1309 0.751589L21.3676 1.72319ZM22.1095 1.81721L21.6112 2.68419L22.1095 1.81721ZM22.7809 2.20312L23.2792 1.33613L22.7809 2.20312ZM24.9481 2.9521L24.6947 3.91947L24.9481 2.9521ZM25.7144 3.15283L25.461 4.1202L25.7144 3.15283ZM26.3774 3.52661L27.0763 2.81139L26.3774 3.52661ZM27.4608 4.6457L26.6862 5.27816L27.4608 4.6457ZM27.9489 5.2434L28.7235 4.61093L27.9489 5.2434ZM28.7175 6.07798L28.0031 6.77766L28.7175 6.07798ZM28.9799 6.34585L29.6943 5.64617L28.9799 6.34585ZM29.442 6.93178L30.2888 6.39983L29.442 6.93178ZM29.6418 7.24985L28.795 7.7818L29.6418 7.24985ZM29.8416 7.56791L28.9948 8.09987L29.8416 7.56791ZM30.2822 8.17196L29.5171 8.81595L30.2822 8.17196ZM30.7636 8.74391L31.5287 8.09992L30.7636 8.74391ZM31.2196 9.34001L32.0411 8.76976L31.2196 9.34001ZM31.4349 9.65013L30.6134 10.2204V10.2204L31.4349 9.65013ZM31.6502 9.96026L32.4717 9.39001L31.6502 9.96026ZM32.1141 10.5793L31.3349 11.2062L32.1141 10.5793ZM32.3626 10.8883L31.5835 11.5152L32.3626 10.8883ZM32.6112 11.1972L33.3903 10.5704L32.6112 11.1972ZM32.8414 11.9124L31.8424 11.8672L32.8414 11.9124ZM32.8046 12.7249L33.8036 12.7701L32.8046 12.7249ZM32.7801 13.5115L31.7802 13.4954L32.7801 13.5115ZM32.7679 14.2722L33.7677 14.2883L32.7679 14.2722ZM32.8632 14.6436L32.9521 15.6396L32.8632 14.6436ZM32.9647 14.6345L33.0535 15.6305L32.9647 14.6345ZM33.0662 14.6255L33.155 15.6215L33.0662 14.6255ZM33.2447 15.3619L32.25 15.4648L32.2886 15.8375L33.2833 15.7347L34.278 15.6318L34.2394 15.259L33.2447 15.3619ZM33.2833 15.7347L32.2886 15.8375C32.302 15.9669 32.293 16.0978 32.2583 16.2356L33.228 16.4799L34.1978 16.7241C34.2881 16.3653 34.316 15.9995 34.278 15.6318L33.2833 15.7347ZM33.228 16.4799L32.2583 16.2356L32.1645 16.6081L33.1342 16.8523L34.104 17.0966L34.1978 16.7241L33.228 16.4799ZM33.1342 16.8523L32.1645 16.6081L32.0707 16.9806L33.0404 17.2248L34.0101 17.469L34.104 17.0966L33.1342 16.8523ZM33.0404 17.2248L32.0707 16.9806C31.9851 17.3203 31.9488 17.6657 31.9657 18.0135L32.9645 17.9649L33.9633 17.9163C33.9564 17.7739 33.9706 17.6259 34.0101 17.469L33.0404 17.2248ZM32.9645 17.9649L31.9657 18.0135L31.9836 18.3811L32.9824 18.3325L33.9812 18.2839L33.9633 17.9163L32.9645 17.9649ZM32.9824 18.3325L31.9836 18.3811L32.0015 18.7487L33.0003 18.7002L33.9991 18.6516L33.9812 18.2839L32.9824 18.3325ZM33.0003 18.7002L32.0015 18.7487C32.0139 19.0054 32.0311 19.2662 32.0529 19.5312L33.0495 19.4492L34.0462 19.3672C34.0261 19.1236 34.0104 18.8851 33.9991 18.6516L33.0003 18.7002ZM33.0495 19.4492L32.0529 19.5312L32.0843 19.9126L33.0809 19.8306L34.0775 19.7486L34.0462 19.3672L33.0495 19.4492ZM33.0809 19.8306L32.0843 19.9126L32.1157 20.294L33.1123 20.212L34.1089 20.13L34.0775 19.7486L33.0809 19.8306ZM33.1123 20.212L32.1157 20.294C32.1329 20.5032 32.136 20.7145 32.1249 20.9284L33.1236 20.9802L34.1222 21.032C34.1379 20.7301 34.1335 20.4293 34.1089 20.13L33.1123 20.212ZM33.1236 20.9802L32.1249 20.9284L32.1049 21.3152L33.1035 21.367L34.1022 21.4189L34.1222 21.032L33.1236 20.9802ZM33.1035 21.367L32.1049 21.3152L32.0848 21.702L33.0834 21.7538L34.0821 21.8057L34.1022 21.4189L33.1035 21.367ZM33.0834 21.7538L32.0848 21.702C32.0763 21.8648 32.0456 22.0193 31.9927 22.1686L32.9355 22.5021L33.8782 22.8357C33.9959 22.503 34.0638 22.1587 34.0821 21.8057L33.0834 21.7538ZM32.9355 22.5021L31.9927 22.1686L31.8648 22.5301L32.8076 22.8636L33.7503 23.1972L33.8782 22.8357L32.9355 22.5021ZM32.8076 22.8636L31.8648 22.5301L31.7369 22.8916L32.6797 23.2251L33.6224 23.5586L33.7503 23.1972L32.8076 22.8636ZM32.6797 23.2251L31.7369 22.8916C31.6999 22.9963 31.6415 23.0942 31.5515 23.1896L32.2788 23.8759L33.0061 24.5622C33.2801 24.2719 33.489 23.9359 33.6224 23.5586L32.6797 23.2251ZM32.2788 23.8759L31.5515 23.1896L31.2785 23.4789L32.0059 24.1652L32.7332 24.8514L33.0061 24.5622L32.2788 23.8759ZM32.0059 24.1652L31.2785 23.4789L31.0056 23.7681L31.7329 24.4544L32.4602 25.1407L32.7332 24.8514L32.0059 24.1652ZM31.7329 24.4544L31.0056 23.7681C30.7109 24.0805 30.503 24.4507 30.3933 24.8674L31.3603 25.122L32.3274 25.3766C32.3505 25.2889 32.391 25.2141 32.4602 25.1407L31.7329 24.4544ZM31.3603 25.122L30.3933 24.8674L30.2937 25.2457L31.2607 25.5003L32.2277 25.7549L32.3274 25.3766L31.3603 25.122ZM31.2607 25.5003L30.2937 25.2457L30.1941 25.624L31.1611 25.8786L32.1281 26.1332L32.2277 25.7549L31.2607 25.5003ZM31.1611 25.8786L30.1941 25.624C30.1573 25.7636 30.1006 25.884 30.0244 25.9919L30.8412 26.5688L31.658 27.1457C31.8755 26.8378 32.0321 26.4981 32.1281 26.1332L31.1611 25.8786ZM30.8412 26.5688L30.0244 25.9919L29.8042 26.3037L30.621 26.8806L31.4378 27.4576L31.658 27.1457L30.8412 26.5688ZM30.621 26.8806L29.8042 26.3037L29.5839 26.6156L30.4007 27.1925L31.2175 27.7694L31.4378 27.4576L30.621 26.8806ZM30.4007 27.1925L29.5839 26.6156C29.5719 26.6326 29.5449 26.6667 29.447 26.7008L29.7758 27.6452L30.1045 28.5896C30.5462 28.4359 30.9358 28.1682 31.2175 27.7694L30.4007 27.1925ZM29.7758 27.6452L29.447 26.7008L29.0424 26.8417L29.3712 27.7861L29.6999 28.7305L30.1045 28.5896L29.7758 27.6452ZM29.3712 27.7861L29.0424 26.8417L28.6378 26.9825L28.9665 27.9269L29.2953 28.8713L29.6999 28.7305L29.3712 27.7861ZM28.9665 27.9269L28.6378 26.9825C28.1505 27.1521 27.7411 27.4762 27.4937 27.961L28.3845 28.4154L29.2753 28.8699C29.2759 28.8687 29.2749 28.8709 29.2716 28.875C29.2683 28.8792 29.2647 28.8829 29.2616 28.8854C29.2587 28.8879 29.2584 28.8875 29.2628 28.8852C29.2673 28.8827 29.2775 28.8775 29.2953 28.8713L28.9665 27.9269ZM28.3845 28.4154L27.4937 27.961L27.3164 28.3087L28.2072 28.7631L29.0979 29.2176L29.2753 28.8699L28.3845 28.4154ZM28.2072 28.7631L27.3164 28.3087L27.139 28.6564L28.0298 29.1108L28.9206 29.5652L29.0979 29.2176L28.2072 28.7631ZM28.0298 29.1108L27.139 28.6564C27.0925 28.7476 27.0387 28.8056 26.9758 28.8491L27.5451 29.6713L28.1143 30.4934C28.4612 30.2532 28.7306 29.9376 28.9206 29.5652L28.0298 29.1108ZM27.5451 29.6713L26.9758 28.8491L26.6684 29.0619L27.2377 29.8841L27.807 30.7063L28.1143 30.4934L27.5451 29.6713ZM27.2377 29.8841L26.6684 29.0619L26.3611 29.2748L26.9303 30.0969L27.4996 30.9191L27.807 30.7063L27.2377 29.8841ZM26.9303 30.0969L26.3611 29.2748C26.1653 29.4103 25.9678 29.5423 25.7687 29.6705L26.3102 30.5112L26.8517 31.3519C27.0696 31.2115 27.2856 31.0672 27.4996 30.9191L26.9303 30.0969ZM26.3102 30.5112L25.7687 29.6705L25.4559 29.872L25.9974 30.7127L26.5389 31.5534L26.8517 31.3519L26.3102 30.5112ZM25.9974 30.7127L25.4559 29.872L25.1431 30.0735L25.6846 30.9142L26.2262 31.7549L26.5389 31.5534L25.9974 30.7127ZM25.6846 30.9142L25.1431 30.0735C25.0024 30.1642 24.853 30.2367 24.6933 30.2916L25.0188 31.2372L25.3442 32.1828C25.6553 32.0757 25.9498 31.9329 26.2262 31.7549L25.6846 30.9142ZM25.0188 31.2372L24.6933 30.2916L24.3402 30.4132L24.6657 31.3587L24.9911 32.3043L25.3442 32.1828L25.0188 31.2372ZM24.6657 31.3587L24.3402 30.4132L23.9871 30.5347L24.3126 31.4803L24.638 32.4258L24.9911 32.3043L24.6657 31.3587ZM24.3126 31.4803L23.9871 30.5347C23.7584 30.6134 23.5312 30.6889 23.3054 30.7612L23.6104 31.7136L23.9153 32.6659C24.1551 32.5892 24.3959 32.5091 24.638 32.4258L24.3126 31.4803ZM23.6104 31.7136L23.3054 30.7612L22.9564 30.873L23.2613 31.8253L23.5663 32.7777L23.9153 32.6659L23.6104 31.7136ZM23.2613 31.8253L22.9564 30.873L22.6073 30.9848L22.9122 31.9371L23.2172 32.8895L23.5663 32.7777L23.2613 31.8253ZM22.9122 31.9371L22.6073 30.9848C22.3042 31.0818 22.0132 31.2117 21.7348 31.3727L22.2352 32.2385L22.7356 33.1042C22.8944 33.0124 23.0547 32.9415 23.2172 32.8895L22.9122 31.9371ZM22.2352 32.2385L21.7348 31.3727L21.4068 31.5622L21.9072 32.428L22.4076 33.2938L22.7356 33.1042L22.2352 32.2385ZM21.9072 32.428L21.4068 31.5622L21.0788 31.7518L21.5793 32.6176L22.0797 33.4834L22.4076 33.2938L21.9072 32.428ZM21.5793 32.6176L21.0788 31.7518C20.9736 31.8126 20.8681 31.8477 20.7557 31.8619L20.8813 32.854L21.007 33.8461C21.3878 33.7978 21.7476 33.6753 22.0797 33.4834L21.5793 32.6176ZM20.8813 32.854L20.7557 31.8619L20.3857 31.9088L20.5113 32.9009L20.637 33.8929L21.007 33.8461L20.8813 32.854ZM20.5113 32.9009L20.3857 31.9088L20.0157 31.9556L20.1413 32.9477L20.267 33.9398L20.637 33.8929L20.5113 32.9009ZM20.1413 32.9477L20.0157 31.9556C19.7018 31.9954 19.3929 32.0668 19.0899 32.1684L19.408 33.1165L19.7262 34.0645C19.9075 34.0037 20.0876 33.9625 20.267 33.9398L20.1413 32.9477ZM19.408 33.1165L19.0899 32.1684L18.7266 32.2904L19.0447 33.2384L19.3629 34.1864L19.7262 34.0645L19.408 33.1165ZM19.0447 33.2384L18.7266 32.2904L18.3633 32.4123L18.6814 33.3603L18.9996 34.3084L19.3629 34.1864L19.0447 33.2384ZM18.6814 33.3603L18.3633 32.4123C18.2954 32.435 18.236 32.4382 18.1645 32.422L17.9435 33.3973L17.7224 34.3726C18.1505 34.4696 18.5831 34.4481 18.9996 34.3084L18.6814 33.3603ZM17.9435 33.3973L18.1645 32.422L17.7898 32.3371L17.5688 33.3124L17.3477 34.2876L17.7224 34.3726L17.9435 33.3973ZM17.5688 33.3124L17.7898 32.3371L17.4152 32.2522L17.1941 33.2274L16.9731 34.2027L17.3477 34.2876L17.5688 33.3124ZM17.1941 33.2274L17.4152 32.2522C17.0496 32.1693 16.6782 32.1525 16.3068 32.2026L16.4404 33.1936L16.574 34.1847C16.7079 34.1666 16.8391 34.1723 16.9731 34.2027L17.1941 33.2274ZM16.4404 33.1936L16.3068 32.2026L15.9278 32.2537L16.0614 33.2447L16.1949 34.2357L16.574 34.1847L16.4404 33.1936ZM16.0614 33.2447L15.9278 32.2537L15.5487 32.3048L15.6823 33.2958L15.8159 34.2868L16.1949 34.2357L16.0614 33.2447ZM15.6823 33.2958L15.5487 32.3048C15.3495 32.3316 15.1488 32.3424 14.9459 32.3369L14.9189 33.3365L14.8919 34.3362C15.2015 34.3445 15.5097 34.3281 15.8159 34.2868L15.6823 33.2958ZM14.9189 33.3365L14.9459 32.3369L14.5615 32.3265L14.5345 33.3261L14.5075 34.3258L14.8919 34.3362L14.9189 33.3365ZM14.5345 33.3261L14.5615 32.3265L14.1771 32.3161L14.1501 33.3158L14.1232 34.3154L14.5075 34.3258L14.5345 33.3261ZM14.1501 33.3158L14.1771 32.3161C13.9493 32.31 13.7195 32.2941 13.4877 32.2683L13.3772 33.2622L13.2667 34.2561C13.553 34.2879 13.8385 34.3077 14.1232 34.3154L14.1501 33.3158ZM13.3772 33.2622L13.4877 32.2683L13.0992 32.2251L12.9887 33.219L12.8782 34.2129L13.2667 34.2561L13.3772 33.2622ZM12.9887 33.219L13.0992 32.2251L12.7107 32.1819L12.6002 33.1758L12.4897 34.1697L12.8782 34.2129L12.9887 33.219ZM12.6002 33.1758L12.7107 32.1819C12.6662 32.177 12.6258 32.1635 12.5696 32.1136L11.9063 32.862L11.243 33.6103C11.5939 33.9213 12.0161 34.117 12.4897 34.1697L12.6002 33.1758ZM11.9063 32.862L12.5696 32.1136L12.2642 31.843L11.601 32.5913L10.9377 33.3397L11.243 33.6103L11.9063 32.862ZM11.601 32.5913L12.2642 31.843L11.9589 31.5723L11.2956 32.3207L10.6323 33.0691L10.9377 33.3397L11.601 32.5913ZM11.2956 32.3207L11.9589 31.5723C11.7297 31.3692 11.496 31.1832 11.2577 31.0154L10.682 31.833L10.1063 32.6507C10.279 32.7723 10.4544 32.9114 10.6323 33.0691L11.2956 32.3207ZM10.682 31.833L11.2577 31.0154L10.9494 30.7983L10.3737 31.616L9.79801 32.4336L10.1063 32.6507L10.682 31.833ZM10.3737 31.616L10.9494 30.7983L10.6412 30.5813L10.0655 31.3989L9.48975 32.2166L9.79801 32.4336L10.3737 31.616ZM10.0655 31.3989L10.6412 30.5813C10.3295 30.3618 9.9842 30.2079 9.61404 30.1165L9.37427 31.0873L9.13451 32.0581C9.27492 32.0928 9.3904 32.1466 9.48975 32.2166L10.0655 31.3989ZM9.37427 31.0873L9.61404 30.1165L9.23111 30.0219L8.99134 30.9927L8.75158 31.9636L9.13451 32.0581L9.37427 31.0873ZM8.99134 30.9927L9.23111 30.0219L8.84818 29.9273L8.60841 30.8981L8.36865 31.869L8.75158 31.9636L8.99134 30.9927ZM8.60841 30.8981L8.84818 29.9273C8.83802 29.9248 8.83284 29.9227 8.83133 29.922C8.82992 29.9214 8.83041 29.9215 8.83177 29.9224C8.83313 29.9233 8.83334 29.9237 8.83214 29.9225C8.83087 29.9212 8.82687 29.917 8.82074 29.9082L7.99987 30.4793L7.17901 31.0504C7.46791 31.4657 7.87715 31.7476 8.36865 31.869L8.60841 30.8981ZM7.99987 30.4793L8.82074 29.9082L8.59513 29.5839L7.77426 30.155L6.9534 30.7262L7.17901 31.0504L7.99987 30.4793ZM7.77426 30.155L8.59513 29.5839L8.36952 29.2596L7.54865 29.8308L6.72778 30.4019L6.9534 30.7262L7.77426 30.155ZM7.54865 29.8308L8.36952 29.2596C8.14236 28.9332 7.85708 28.6608 7.51589 28.4542L6.99776 29.3095L6.47964 30.1648C6.57215 30.2208 6.65413 30.296 6.72778 30.4019L7.54865 29.8308ZM6.99776 29.3095L7.51589 28.4542L7.19061 28.2571L6.67249 29.1124L6.15437 29.9677L6.47964 30.1648L6.99776 29.3095ZM6.67249 29.1124L7.19061 28.2571L6.86534 28.0601L6.34722 28.9154L5.8291 29.7707L6.15437 29.9677L6.67249 29.1124ZM6.34722 28.9154L6.86534 28.0601C6.75232 27.9916 6.65977 27.9088 6.58211 27.8085L5.79151 28.4208L5.00092 29.0332C5.2305 29.3296 5.50842 29.5764 5.8291 29.7707L6.34722 28.9154ZM5.79151 28.4208L6.58211 27.8085L6.35168 27.511L5.56108 28.1233L4.77049 28.7356L5.00092 29.0332L5.79151 28.4208ZM5.56108 28.1233L6.35168 27.511L6.12125 27.2135L5.33065 27.8258L4.54006 28.4381L4.77049 28.7356L5.56108 28.1233ZM5.33065 27.8258L6.12125 27.2135C5.97181 27.0205 5.82494 26.8268 5.68064 26.6323L4.87756 27.2282L4.07449 27.8241C4.22706 28.0297 4.38225 28.2344 4.54006 28.4381L5.33065 27.8258ZM4.87756 27.2282L5.68064 26.6323L5.45798 26.3323L4.6549 26.9281L3.85183 27.524L4.07449 27.8241L4.87756 27.2282ZM4.6549 26.9281L5.45798 26.3323L5.23532 26.0322L4.43225 26.628L3.62917 27.2239L3.85183 27.524L4.6549 26.9281ZM4.43225 26.628L5.23532 26.0322C5.17078 25.9452 5.12296 25.8449 5.09367 25.7211L4.1205 25.9512L3.14733 26.1813C3.23683 26.5598 3.39684 26.9108 3.62917 27.2239L4.43225 26.628ZM4.1205 25.9512L5.09367 25.7211L5.00458 25.3443L4.03141 25.5744L3.05824 25.8045L3.14733 26.1813L4.1205 25.9512ZM4.03141 25.5744L5.00458 25.3443L4.91549 24.9675L3.94232 25.1976L2.96915 25.4277L3.05824 25.8045L4.03141 25.5744ZM3.94232 25.1976L4.91549 24.9675C4.80742 24.5105 4.56773 24.1181 4.22117 23.809L3.55559 24.5554L2.89 25.3017C2.9403 25.3465 2.95843 25.3823 2.96915 25.4277L3.94232 25.1976ZM3.55559 24.5554L4.22117 23.809L3.92353 23.5436L3.25794 24.2899L2.59235 25.0362L2.89 25.3017L3.55559 24.5554ZM3.25794 24.2899L3.92353 23.5436L3.62589 23.2781L2.9603 24.0245L2.29471 24.7708L2.59235 25.0362L3.25794 24.2899ZM2.9603 24.0245L3.62589 23.2781C3.62221 23.2749 3.62445 23.2763 3.62963 23.2832C3.63496 23.2903 3.64154 23.3007 3.64754 23.3139C3.65354 23.3272 3.6573 23.3396 3.65935 23.3495C3.66136 23.3591 3.66113 23.3633 3.66112 23.3604L2.66113 23.3642L1.66114 23.3681C1.66327 23.9183 1.88701 24.4072 2.29471 24.7708L2.9603 24.0245ZM2.66113 23.3642L3.66112 23.3604L3.65959 22.9656L2.6596 22.9694L1.65961 22.9733L1.66114 23.3681L2.66113 23.3642ZM2.6596 22.9694L3.65959 22.9656L3.65806 22.5708L2.65807 22.5747L1.65808 22.5785L1.65961 22.9733L2.6596 22.9694ZM2.65807 22.5747L3.65806 22.5708C3.65574 21.9702 3.37433 21.4777 2.95896 21.1239L2.31055 21.8852L1.66213 22.6465C1.69374 22.6734 1.68915 22.6782 1.67745 22.655C1.6718 22.6438 1.66644 22.6298 1.66274 22.6142C1.65906 22.5986 1.65811 22.5861 1.65808 22.5785L2.65807 22.5747ZM2.31055 21.8852L2.95896 21.1239L2.61296 20.8292L1.96455 21.5905L1.31614 22.3518L1.66213 22.6465L2.31055 21.8852ZM1.96455 21.5905L2.61296 20.8292L2.26696 20.5345L1.61855 21.2958L0.970139 22.0571L1.31614 22.3518L1.96455 21.5905ZM1.61855 21.2958L2.26696 20.5345C2.17355 20.4549 2.16793 20.413 2.16699 20.4087L1.18989 20.6215L0.21279 20.8343C0.322071 21.3361 0.602224 21.7437 0.970139 22.0571L1.61855 21.2958ZM1.18989 20.6215L2.16699 20.4087L2.08433 20.0291L1.10723 20.2419L0.130128 20.4547L0.21279 20.8343L1.18989 20.6215ZM1.10723 20.2419L2.08433 20.0291L2.00167 19.6495L1.02457 19.8623L0.0474656 20.0751L0.130128 20.4547L1.10723 20.2419ZM1.02457 19.8623L2.00167 19.6495C2.00137 19.6481 1.98956 19.6207 2.03395 19.5311L1.13793 19.0871L0.241913 18.6431C0.0249325 19.0809 -0.0624523 19.5703 0.0474656 20.0751L1.02457 19.8623ZM1.13793 19.0871L2.03395 19.5311L2.22998 19.1355L1.33396 18.6915L0.437941 18.2475L0.241913 18.6431L1.13793 19.0871ZM1.33396 18.6915L2.22998 19.1355L2.42601 18.7399L1.52999 18.2959L0.633969 17.8519L0.437941 18.2475L1.33396 18.6915ZM1.52999 18.2959L2.42601 18.7399C2.60505 18.3786 2.72251 17.9922 2.74435 17.5876L1.74581 17.5337L0.747261 17.4798C0.742716 17.564 0.716303 17.6858 0.633969 17.8519L1.52999 18.2959ZM1.74581 17.5337L2.74435 17.5876L2.76414 17.221L1.7656 17.1671L0.767052 17.1132L0.747261 17.4798L1.74581 17.5337ZM1.7656 17.1671L2.76414 17.221L2.78394 16.8544L1.78539 16.8005L0.786843 16.7466L0.767052 17.1132L1.7656 17.1671ZM1.78539 16.8005L2.78394 16.8544C2.80612 16.4435 2.72646 16.0445 2.5755 15.6676L1.64719 16.0394L0.718871 16.4112C0.778576 16.5603 0.791049 16.6687 0.786843 16.7466L1.78539 16.8005ZM1.64719 16.0394L2.5755 15.6676L2.41751 15.2731L1.48919 15.6449L0.560878 16.0167L0.718871 16.4112L1.64719 16.0394ZM1.48919 15.6449L2.41751 15.2731L2.25952 14.8786L1.3312 15.2504L0.402886 15.6222L0.560878 16.0167L1.48919 15.6449ZM1.3312 15.2504L2.25952 14.8786C2.20716 14.7479 2.19582 14.6443 2.20362 14.5561L1.20751 14.4681L0.211393 14.38C0.173459 14.809 0.244584 15.227 0.402886 15.6222L1.3312 15.2504ZM1.20751 14.4681L2.20362 14.5561L2.23792 14.1683L1.2418 14.0802L0.24569 13.9921L0.211393 14.38L1.20751 14.4681ZM1.2418 14.0802L2.23792 14.1683L2.27221 13.7804L1.2761 13.6923L0.279987 13.6042L0.24569 13.9921L1.2418 14.0802ZM1.2761 13.6923L2.27221 13.7804C2.28895 13.5911 2.32497 13.4063 2.38043 13.2251L1.42418 12.9325L0.467927 12.64C0.371679 12.9546 0.308977 13.2764 0.279987 13.6042L1.2761 13.6923ZM1.42418 12.9325L2.38043 13.2251L2.49421 12.8532L1.53796 12.5606L0.581705 12.2681L0.467927 12.64L1.42418 12.9325ZM1.53796 12.5606L2.49421 12.8532L2.60798 12.4813L1.65173 12.1887L0.695484 11.8962L0.581705 12.2681L1.53796 12.5606ZM1.65173 12.1887L2.60798 12.4813C2.64864 12.3484 2.71178 12.2241 2.80236 12.1047L2.00573 11.5002L1.2091 10.8958C0.979387 11.1985 0.806528 11.5332 0.695484 11.8962L1.65173 12.1887ZM2.00573 11.5002L2.80236 12.1047L3.04258 11.7881L2.24595 11.1836L1.44932 10.5792L1.2091 10.8958L2.00573 11.5002ZM2.24595 11.1836L3.04258 11.7881L3.2828 11.4715L2.48617 10.867L1.68954 10.2626L1.44932 10.5792L2.24595 11.1836ZM2.48617 10.867L3.2828 11.4715C3.39246 11.327 3.52035 11.1954 3.66867 11.0764L3.04265 10.2966L2.41662 9.51677C2.14327 9.73621 1.90018 9.98498 1.68954 10.2626L2.48617 10.867ZM3.04265 10.2966L3.66867 11.0764L3.98493 10.8225L3.3589 10.0427L2.73288 9.26288L2.41662 9.51677L3.04265 10.2966ZM3.3589 10.0427L3.98493 10.8225L4.30119 10.5686L3.67516 9.78878L3.04914 9.00898L2.73288 9.26288L3.3589 10.0427ZM3.67516 9.78878L4.30119 10.5686C4.65491 10.2846 4.91876 9.91772 5.06037 9.47705L4.10833 9.1711L3.15628 8.86515C3.14201 8.90954 3.11709 8.95443 3.04914 9.00898L3.67516 9.78878ZM4.10833 9.1711L5.06037 9.47705L5.17728 9.11326L4.22523 8.80731L3.27318 8.50136L3.15628 8.86515L4.10833 9.1711ZM4.22523 8.80731L5.17728 9.11326L5.29419 8.74947L4.34214 8.44352L3.39009 8.13757L3.27318 8.50136L4.22523 8.80731ZM4.34214 8.44352L5.29419 8.74947C5.30888 8.70376 5.32676 8.6789 5.36433 8.65072L4.76426 7.85078L4.16418 7.05083C3.7948 7.32792 3.53128 7.69823 3.39009 8.13757L4.34214 8.44352ZM4.76426 7.85078L5.36433 8.65072L5.66955 8.42177L5.06947 7.62182L4.4694 6.82188L4.16418 7.05083L4.76426 7.85078ZM5.06947 7.62182L5.66955 8.42177L5.97476 8.19281L5.37468 7.39287L4.77461 6.59292L4.4694 6.82188L5.06947 7.62182ZM5.37468 7.39287L5.97476 8.19281C6.25071 7.98581 6.49392 7.74533 6.7004 7.47151L5.90197 6.86942L5.10354 6.26733C5.01393 6.38617 4.90561 6.49465 4.77461 6.59292L5.37468 7.39287ZM5.90197 6.86942L6.7004 7.47151L6.92247 7.17702L6.12404 6.57493L5.32561 5.97284L5.10354 6.26733L5.90197 6.86942ZM6.12404 6.57493L6.92247 7.17702L7.14454 6.88253L6.34612 6.28044L5.54769 5.67836L5.32561 5.97284L6.12404 6.57493ZM6.34612 6.28044L7.14454 6.88253C7.25185 6.74024 7.37191 6.61075 7.50541 6.49327L6.8448 5.74255L6.18418 4.99182C5.94887 5.19889 5.73648 5.428 5.54769 5.67836L6.34612 6.28044ZM6.8448 5.74255L7.50541 6.49327L7.78202 6.24987L7.12141 5.49914L6.46079 4.74842L6.18418 4.99182L6.8448 5.74255ZM7.12141 5.49914L7.78202 6.24987L8.05863 6.00646L7.39801 5.25573L6.7374 4.50501L6.46079 4.74842L7.12141 5.49914ZM7.39801 5.25573L8.05863 6.00646C8.22169 5.86297 8.39066 5.7266 8.56561 5.59731L7.97127 4.7931L7.37694 3.98888C7.15635 4.15189 6.94315 4.32395 6.7374 4.50501L7.39801 5.25573ZM7.97127 4.7931L8.56561 5.59731L8.86226 5.37808L8.26792 4.57386L7.67359 3.76965L7.37694 3.98888L7.97127 4.7931ZM8.26792 4.57386L8.86226 5.37808L9.15891 5.15885L8.56457 4.35463L7.97024 3.55042L7.67359 3.76965L8.26792 4.57386ZM8.56457 4.35463L9.15891 5.15885C9.38092 4.99478 9.5974 4.81928 9.8084 4.63261L9.1458 3.88364L8.4832 3.13467C8.31476 3.28368 8.14376 3.42218 7.97024 3.55042L8.56457 4.35463ZM9.1458 3.88364L9.8084 4.63261L10.093 4.38085L9.43038 3.63188L8.76778 2.88291L8.4832 3.13467L9.1458 3.88364ZM9.43038 3.63188L10.093 4.38085L10.3776 4.12909L9.71496 3.38012L9.05236 2.63114L8.76778 2.88291L9.43038 3.63188ZM9.71496 3.38012L10.3776 4.12909C10.525 3.99862 10.6826 3.88128 10.8509 3.77677L10.3234 2.92725L9.79582 2.07773C9.53232 2.24136 9.28433 2.42593 9.05236 2.63114L9.71496 3.38012ZM10.3234 2.92725L10.8509 3.77677L11.1748 3.57568L10.6472 2.72616L10.1196 1.87664L9.79582 2.07773L10.3234 2.92725ZM10.6472 2.72616L11.1748 3.57568L11.4986 3.37458L10.971 2.52506L10.4435 1.67554L10.1196 1.87664L10.6472 2.72616ZM10.971 2.52506L11.4986 3.37458C11.7151 3.24013 11.9351 3.1032 12.1585 2.96379L11.6291 2.11539L11.0998 1.267C10.8775 1.40568 10.6587 1.54186 10.4435 1.67554L10.971 2.52506ZM11.6291 2.11539L12.1585 2.96379L12.4927 2.75523L11.9634 1.90683L11.434 1.05843L11.0998 1.267L11.6291 2.11539ZM11.9634 1.90683L12.4927 2.75523L12.827 2.54666L12.2976 1.69827L11.7683 0.849867L11.434 1.05843L11.9634 1.90683ZM12.2976 1.69827L12.827 2.54666C12.8438 2.53621 12.8529 2.53384 12.8577 2.53282C12.863 2.53169 12.8793 2.52888 12.9126 2.53309L13.0379 1.54097L13.1632 0.548846C12.6738 0.487051 12.1943 0.584043 11.7683 0.849867L12.2976 1.69827ZM13.0379 1.54097L12.9126 2.53309L13.3186 2.58435L13.4439 1.59223L13.5691 0.600111L13.1632 0.548846L13.0379 1.54097ZM13.4439 1.59223L13.3186 2.58435L13.7246 2.63562L13.8498 1.6435L13.9751 0.651376L13.5691 0.600111L13.4439 1.59223ZM13.8498 1.6435L13.7246 2.63562C14.028 2.67393 14.3251 2.69616 14.6157 2.70133L14.6335 1.70149L14.6513 0.701652C14.4383 0.697856 14.213 0.681419 13.9751 0.651376L13.8498 1.6435ZM14.6335 1.70149L14.6157 2.70133L14.9933 2.70807L15.0111 1.70822L15.0289 0.708383L14.6513 0.701652L14.6335 1.70149ZM15.0111 1.70822L14.9933 2.70807L15.371 2.7148L15.3888 1.71495L15.4066 0.715113L15.0289 0.708383L15.0111 1.70822ZM15.3888 1.71495L15.371 2.7148C15.5933 2.71876 15.8123 2.73245 16.0278 2.75573L16.1352 1.76151L16.2426 0.767297C15.9664 0.737472 15.6877 0.720124 15.4066 0.715113L15.3888 1.71495ZM16.1352 1.76151L16.0278 2.75573L16.3965 2.79556L16.5039 1.80134L16.6113 0.807127L16.2426 0.767297L16.1352 1.76151ZM16.5039 1.80134L16.3965 2.79556L16.7653 2.83539L16.8727 1.84117L16.9801 0.846956L16.6113 0.807127L16.5039 1.80134ZM16.8727 1.84117L16.7653 2.83539C17.2945 2.89255 17.7752 2.72688 18.1773 2.46124L17.626 1.62689L17.0748 0.792543C17.0173 0.830506 16.9832 0.842434 16.9718 0.845668C16.963 0.848185 16.968 0.845657 16.9801 0.846956L16.8727 1.84117ZM17.626 1.62689L18.1773 2.46124L18.5619 2.20713L18.0107 1.37278L17.4594 0.538431L17.0748 0.792543L17.626 1.62689ZM18.0107 1.37278L18.5619 2.20713L18.9465 1.95302L18.3953 1.11867L17.844 0.28432L17.4594 0.538431L18.0107 1.37278ZM18.3953 1.11867L18.9465 1.95302C18.9452 1.95386 18.8632 2.00593 18.7216 1.99916C18.5765 1.99223 18.4913 1.92957 18.4771 1.9176L19.1221 1.15342L19.7671 0.389231C19.5248 0.184693 19.2044 0.0199563 18.8171 0.00144046C18.4332 -0.0169125 18.1017 0.114068 17.844 0.28432L18.3953 1.11867ZM19.1221 1.15342L18.4771 1.9176L18.8194 2.20646L19.4644 1.44227L20.1094 0.67809L19.7671 0.389231L19.1221 1.15342ZM19.4644 1.44227L18.8194 2.20646L19.1616 2.49532L19.8066 1.73113L20.4516 0.966949L20.1094 0.67809L19.4644 1.44227ZM19.8066 1.73113L19.1616 2.49532C19.6134 2.87667 20.1859 3.04021 20.7917 2.89266L20.5551 1.92106L20.3185 0.949456C20.3212 0.948792 20.3326 0.946395 20.3509 0.946302C20.3696 0.946206 20.3903 0.948547 20.4108 0.953763C20.4547 0.96489 20.4684 0.981124 20.4516 0.966949L19.8066 1.73113ZM20.5551 1.92106L20.7917 2.89266L21.1979 2.79373L20.9613 1.82213L20.7247 0.850523L20.3185 0.949456L20.5551 1.92106ZM20.9613 1.82213L21.1979 2.79373L21.6042 2.69479L21.3676 1.72319L21.1309 0.751589L20.7247 0.850523L20.9613 1.82213ZM21.3676 1.72319L21.6042 2.69479C21.6201 2.69091 21.6295 2.68997 21.6329 2.68974C21.6362 2.68952 21.635 2.68987 21.6305 2.6893C21.6258 2.68871 21.6205 2.68752 21.6157 2.68587C21.6109 2.68426 21.6093 2.68313 21.6112 2.68419L22.1095 1.81721L22.6078 0.950227C22.1428 0.682937 21.6293 0.630225 21.1309 0.751589L21.3676 1.72319ZM22.1095 1.81721L21.6112 2.68419L21.9468 2.87715L22.4452 2.01016L22.9435 1.14318L22.6078 0.950227L22.1095 1.81721ZM22.4452 2.01016L21.9468 2.87715L22.2825 3.0701L22.7809 2.20312L23.2792 1.33613L22.9435 1.14318L22.4452 2.01016ZM22.7809 2.20312L22.2825 3.0701C22.5678 3.23407 22.8668 3.3658 23.1786 3.46389L23.4787 2.50998L23.7788 1.55608C23.6078 1.50228 23.4415 1.42943 23.2792 1.33613L22.7809 2.20312ZM23.4787 2.50998L23.1786 3.46389L23.5406 3.57781L23.8407 2.6239L24.1409 1.67L23.7788 1.55608L23.4787 2.50998ZM23.8407 2.6239L23.5406 3.57781L23.9027 3.69172L24.2028 2.73782L24.5029 1.78391L24.1409 1.67L23.8407 2.6239ZM24.2028 2.73782L23.9027 3.69172C24.1602 3.77274 24.4243 3.84862 24.6947 3.91947L24.9481 2.9521L25.2015 1.98474C24.961 1.92176 24.7282 1.85479 24.5029 1.78391L24.2028 2.73782ZM24.9481 2.9521L24.6947 3.91947L25.0779 4.01983L25.3313 3.05247L25.5847 2.0851L25.2015 1.98474L24.9481 2.9521ZM25.3313 3.05247L25.0779 4.01983L25.461 4.1202L25.7144 3.15283L25.9678 2.18547L25.5847 2.0851L25.3313 3.05247ZM25.7144 3.15283L25.461 4.1202C25.5508 4.14372 25.6177 4.18242 25.6785 4.24184L26.3774 3.52661L27.0763 2.81139C26.764 2.50626 26.3889 2.29577 25.9678 2.18547L25.7144 3.15283ZM26.3774 3.52661L25.6785 4.24184L25.9583 4.51525L26.6572 3.80002L27.3561 3.0848L27.0763 2.81139L26.3774 3.52661ZM26.6572 3.80002L25.9583 4.51525L26.2381 4.78866L26.937 4.07343L27.6359 3.35821L27.3561 3.0848L26.6572 3.80002ZM26.937 4.07343L26.2381 4.78866C26.3983 4.94515 26.5476 5.10831 26.6862 5.27816L27.4608 4.6457L28.2354 4.01323C28.0487 3.78461 27.8488 3.56627 27.6359 3.35821L26.937 4.07343ZM27.4608 4.6457L26.6862 5.27816L26.9303 5.57701L27.7048 4.94455L28.4794 4.31208L28.2354 4.01323L27.4608 4.6457ZM27.7048 4.94455L26.9303 5.57701L27.1743 5.87586L27.9489 5.2434L28.7235 4.61093L28.4794 4.31208L27.7048 4.94455ZM27.9489 5.2434L27.1743 5.87586C27.3554 6.09772 27.5442 6.30912 27.7407 6.50979L28.4552 5.81011L29.1697 5.11043C29.0164 4.95396 28.8677 4.78754 28.7235 4.61093L27.9489 5.2434ZM28.4552 5.81011L27.7407 6.50979L28.0031 6.77766L28.7175 6.07798L29.432 5.3783L29.1697 5.11043L28.4552 5.81011ZM28.7175 6.07798L28.0031 6.77766L28.2654 7.04553L28.9799 6.34585L29.6943 5.64617L29.432 5.3783L28.7175 6.07798ZM28.9799 6.34585L28.2654 7.04553C28.3902 7.17299 28.4999 7.31205 28.5952 7.46373L29.442 6.93178L30.2888 6.39983C30.1176 6.12742 29.9193 5.87586 29.6943 5.64617L28.9799 6.34585ZM29.442 6.93178L28.5952 7.46373L28.795 7.7818L29.6418 7.24985L30.4886 6.7179L30.2888 6.39983L29.442 6.93178ZM29.6418 7.24985L28.795 7.7818L28.9948 8.09987L29.8416 7.56791L30.6884 7.03596L30.4886 6.7179L29.6418 7.24985ZM29.8416 7.56791L28.9948 8.09987C29.1526 8.35091 29.3267 8.58972 29.5171 8.81595L30.2822 8.17196L31.0472 7.52797C30.9167 7.3729 30.7971 7.209 30.6884 7.03596L29.8416 7.56791ZM30.2822 8.17196L29.5171 8.81595L29.7579 9.10193L30.5229 8.45794L31.2879 7.81394L31.0472 7.52797L30.2822 8.17196ZM30.5229 8.45794L29.7579 9.10193L29.9986 9.3879L30.7636 8.74391L31.5287 8.09992L31.2879 7.81394L30.5229 8.45794ZM30.7636 8.74391L29.9986 9.3879C30.1389 9.55463 30.2721 9.7287 30.3982 9.91026L31.2196 9.34001L32.0411 8.76976C31.8801 8.53783 31.7093 8.3145 31.5287 8.09992L30.7636 8.74391ZM31.2196 9.34001L30.3982 9.91026L30.6134 10.2204L31.4349 9.65013L32.2564 9.07989L32.0411 8.76976L31.2196 9.34001ZM31.4349 9.65013L30.6134 10.2204L30.8287 10.5305L31.6502 9.96026L32.4717 9.39001L32.2564 9.07989L31.4349 9.65013ZM31.6502 9.96026L30.8287 10.5305C30.9863 10.7576 31.1552 10.9828 31.3349 11.2062L32.1141 10.5793L32.8932 9.95247C32.7415 9.76395 32.6011 9.57645 32.4717 9.39001L31.6502 9.96026ZM32.1141 10.5793L31.3349 11.2062L31.5835 11.5152L32.3626 10.8883L33.1418 10.2614L32.8932 9.95247L32.1141 10.5793ZM32.3626 10.8883L31.5835 11.5152L31.8321 11.8241L32.6112 11.1972L33.3903 10.5704L33.1418 10.2614L32.3626 10.8883ZM32.6112 11.1972L31.8321 11.8241C31.8379 11.8314 31.8404 11.8356 31.841 11.8368C31.8416 11.8378 31.8414 11.8377 31.8411 11.8369C31.8409 11.8362 31.8414 11.8372 31.8418 11.841C31.8423 11.8449 31.8431 11.8533 31.8424 11.8672L32.8414 11.9124L33.8404 11.9577C33.8634 11.4503 33.713 10.9714 33.3903 10.5704L32.6112 11.1972ZM32.8414 11.9124L31.8424 11.8672L31.824 12.2734L32.823 12.3187L33.822 12.3639L33.8404 11.9577L32.8414 11.9124ZM32.823 12.3187L31.824 12.2734L31.8056 12.6797L32.8046 12.7249L33.8036 12.7701L33.822 12.3639L32.823 12.3187ZM32.8046 12.7249L31.8056 12.6797C31.793 12.9595 31.7845 13.2315 31.7802 13.4954L32.7801 13.5115L33.78 13.5276C33.7839 13.2843 33.7917 13.0319 33.8036 12.7701L32.8046 12.7249ZM32.7801 13.5115L31.7802 13.4954L31.7741 13.8758L32.774 13.8919L33.7739 13.9079L33.78 13.5276L32.7801 13.5115ZM32.774 13.8919L31.7741 13.8758L31.768 14.2562L32.7679 14.2722L33.7677 14.2883L33.7739 13.9079L32.774 13.8919ZM32.7679 14.2722L31.768 14.2562C31.7656 14.4027 31.7696 14.6074 31.8201 14.804C31.8439 14.8965 31.9018 15.0873 32.0552 15.2689C32.245 15.4937 32.5632 15.6743 32.9521 15.6396L32.8632 14.6436L32.7744 13.6475C32.9271 13.6339 33.0922 13.6568 33.2501 13.7279C33.4033 13.7969 33.5118 13.894 33.5832 13.9785C33.7117 14.1307 33.7494 14.2758 33.7572 14.3065C33.7759 14.3794 33.766 14.3953 33.7677 14.2883L32.7679 14.2722ZM32.8632 14.6436L32.9521 15.6396L33.0535 15.6305L32.9647 14.6345L32.8759 13.6385L32.7744 13.6475L32.8632 14.6436ZM32.9647 14.6345L33.0535 15.6305L33.155 15.6215L33.0662 14.6255L32.9773 13.6294L32.8759 13.6385L32.9647 14.6345ZM33.0662 14.6255L33.155 15.6215C32.8171 15.6516 32.5533 15.5005 32.4031 15.3492C32.2787 15.2238 32.2303 15.1014 32.2187 15.0711C32.1932 15.005 32.201 14.9906 32.2115 15.092L33.2062 14.9892L34.2009 14.8863C34.1857 14.7392 34.1573 14.5399 34.0851 14.3526C34.0502 14.2617 33.9758 14.0946 33.8228 13.9404C33.6441 13.7603 33.349 13.5963 32.9773 13.6294L33.0662 14.6255ZM33.2062 14.9892L32.2115 15.092L32.25 15.4648L33.2447 15.3619L34.2394 15.259L34.2009 14.8863L33.2062 14.9892Z" fill="black"/>
</svg>
