<svg width="40" height="26" viewBox="0 0 40 26" fill="none" xmlns="http://www.w3.org/2000/svg">
<path d="M6.62857 11.75L0.5 17.6897C0.5 21.7271 9.23045 25.0001 20 25.0001C30.7696 25.0001 39.5 21.7271 39.5 17.6897L33.3714 11.75" stroke="black"/>
<path d="M6.49994 5.69141V11.7494C6.49994 14.8856 12.5441 17.428 19.9999 17.428C27.4558 17.428 33.4999 14.8856 33.4999 11.7494V5.69141" stroke="black"/>
<path d="M20.0252 0.5C23.8184 0.5 27.2296 1.13 29.6736 2.12988C30.8969 2.63034 31.8537 3.21383 32.4969 3.83594C33.1384 4.45645 33.4381 5.08323 33.4383 5.69141C33.4383 6.29974 33.1386 6.92718 32.4969 7.54785C31.8537 8.16996 30.8969 8.75345 29.6736 9.25391C27.2296 10.2538 23.8184 10.8838 20.0252 10.8838C16.2323 10.8838 12.8217 10.2537 10.3777 9.25391C9.1546 8.75349 8.19766 8.16991 7.5545 7.54785C6.91282 6.92717 6.6131 6.29974 6.6131 5.69141C6.61326 5.08322 6.91299 4.45646 7.5545 3.83594C8.19766 3.21388 9.15459 2.6303 10.3777 2.12988C12.8217 1.13009 16.2323 0.500035 20.0252 0.5Z" fill="#FFFDF8" stroke="black"/>
</svg>
