<svg width="24" height="22" viewBox="0 0 24 22" fill="none" xmlns="http://www.w3.org/2000/svg">
<path d="M10.0369 12.474C9.61221 11.3086 9.60902 9.71215 10.0864 8.80856C10.3019 8.40046 10.6691 8.22107 11.0953 8.11251C12.0249 7.87577 13.0127 8.21468 13.8093 8.63934C14.1904 8.84249 14.5005 9.06399 14.6634 9.48865C14.8262 9.9133 14.8262 10.5455 14.6155 11.0292C13.9833 11.829 13.233 12.2601 12.596 12.4724C12.2751 12.5794 11.959 12.6847 10.6754 12.7933" stroke="black" stroke-width="2" stroke-linecap="round"/>
<path d="M11.9525 3.85318C11.9525 3.64244 12.0578 3.11242 12.4282 2.36848C13.238 0.741803 17.1441 0.979569 19.2913 1.34994C20.0174 1.47519 20.4647 2.3589 20.7313 3.15553C21.1804 4.49723 18.5618 5.76253 17.0659 6.45858C16.7409 6.60978 16.4289 6.82896 16.7402 6.83215C18.0167 6.84524 19.5037 6.40749 20.4599 6.46018C21.2209 6.5021 21.8472 6.93751 22.3789 7.41485C22.8738 7.85928 22.8083 8.85006 22.6503 9.80633C22.3731 11.4832 19.6282 11.9376 17.8625 12.3128C17.2797 12.4366 18.7629 13.4287 18.9752 14.171C19.2438 15.1098 19.0854 16.2991 18.6081 17.5204C18.1498 18.6929 17.3836 19.3898 16.5359 19.7618C15.3483 20.2829 13.7692 20.137 12.4937 20.0316C11.586 19.9566 10.9978 19.393 10.5189 18.7592C10.1855 18.3181 10.356 17.2825 10.3033 16.952C10.2783 16.7953 9.61526 17.5794 8.81863 18.1111C7.42066 19.044 5.04303 18.0105 2.91337 16.6838C2.11276 16.1851 1.84375 15.2454 1.52446 14.3961C1.36913 13.9829 1.4159 13.5468 1.57395 13.119C1.911 12.2065 3.11133 11.8354 4.01811 11.6247C5.71048 11.2314 2.48233 8.64891 2.69146 7.37015C2.74606 7.03634 2.90379 6.73317 3.11612 6.51765C3.54999 6.07725 4.39168 6.19357 5.18831 6.4059C5.88705 6.59214 6.52134 7.04288 6.89491 7.36377C7.70295 8.05785 6.20525 4.08306 6.89332 2.36688C7.41336 1.06979 9.71105 1.72671 10.9898 1.93584C11.3107 2.0428 11.6268 2.14817 11.895 2.3605C12.1632 2.57282 12.3739 2.88892 12.591 3.85318" stroke="black" stroke-width="2" stroke-linecap="round"/>
</svg>
