<svg width="13" height="20" viewBox="0 0 13 20" fill="none" xmlns="http://www.w3.org/2000/svg">
<path d="M8.06725 12.8823C8.2381 14.2398 6.66053 15.0727 5.87217 13.9737C5.14499 12.9628 5.8864 10.6983 6.50662 9.61508C6.79468 9.08875 7.16083 8.59969 7.44889 8.07337C7.81149 7.39085 8.42772 5.60502 8.12843 4.87215C7.98561 4.55322 7.71049 4.32604 7.41162 4.10228C7.00066 3.7734 6.49467 3.45817 5.95497 3.4145C5.56464 3.39785 5.16761 3.5034 4.79776 3.6293C4.61113 3.68036 4.40415 3.7586 4.22093 3.83343C4.09547 3.97269 3.99034 4.08478 3.92932 4.16629C3.80044 4.2818 3.70214 4.44141 3.62419 4.57384C3.49886 4.88281 3.40071 5.21212 3.27197 5.49734C3.24153 5.62295 3.21109 5.74855 3.18065 5.87416C3.07908 6.17972 2.80098 6.4379 2.50922 6.60106C2.0139 6.86622 1.29753 6.60547 0.967932 6.16791C0.611166 5.71 0.53933 5.04142 0.627099 4.47114C0.74844 3.45959 1.34163 2.52571 2.15915 1.97178C2.95632 1.44503 3.84866 1.07432 4.76149 0.846154C5.46392 0.672465 6.23436 0.634485 6.91332 0.803622C7.54136 0.955832 8.14237 1.2574 8.68236 1.64049C9.30726 2.10835 9.92207 2.67465 10.2858 3.34978C10.7481 4.20471 10.7796 5.26704 10.6242 6.21073C10.4757 7.20194 10.1812 8.18987 9.72718 9.07951C9.40527 9.70769 8.9815 10.302 8.60866 10.9133C8.35446 11.3377 8.20552 11.8198 8.13127 12.3154C8.0839 12.492 8.03994 12.6923 8.06725 12.8823ZM8.53526 16.4763C9.14366 17.5042 8.6391 18.886 7.46154 19.128C6.91857 19.2303 6.27673 18.8133 6.01499 18.3418C5.85183 18.05 5.68184 17.7107 5.68156 17.3713C5.64286 15.7524 7.72628 15.065 8.53526 16.4763Z" fill="white"/>
</svg>
