<svg width="15" height="30" viewBox="0 0 15 30" fill="none" xmlns="http://www.w3.org/2000/svg">
<path d="M1.91939 0.606569C1.70183 0.0989392 1.11395 -0.136212 0.606325 0.0813432C0.098695 0.298899 -0.136456 0.886778 0.0810991 1.39441L1.00024 1.00049L1.91939 0.606569ZM1.03964 1.0924L2.0391 1.05965L2.03293 0.871508L1.95878 0.698483L1.03964 1.0924ZM1.36072 2.88594L2.092 2.20386L1.36072 2.88594ZM1.63258 3.17741L0.901304 3.85949L1.63258 3.17741ZM2.3587 4.09018L3.23381 3.60626L2.3587 4.09018ZM2.72347 4.74983L1.84836 5.23375L2.72347 4.74983ZM2.93984 5.47307L3.93613 5.38702L2.93984 5.47307ZM3.00781 6.25992L2.01152 6.34598L3.00781 6.25992ZM3.52669 7.26151L4.30858 6.63809L3.52669 7.26151ZM3.76915 7.56559L2.98726 8.189L3.76915 7.56559ZM4.23522 8.18181L5.04814 7.59944L4.23522 8.18181ZM4.45885 8.49396L3.64593 9.07634L4.45885 8.49396ZM4.68247 8.80611L3.86955 9.38849L4.68247 8.80611ZM4.90863 10.3411L3.90863 10.3432L4.90863 10.3411ZM5.17158 11.0444L4.42329 11.7078L5.17158 11.0444ZM5.69579 11.6357L6.44408 10.9724L5.69579 11.6357ZM5.95939 12.3387L6.95938 12.3351L5.95939 12.3387ZM5.96087 12.7461L4.96088 12.7497L5.96087 12.7461ZM5.96236 13.1534L6.96235 13.1498L5.96236 13.1534ZM6.95168 15.1774L6.25063 15.8905L6.95168 15.1774ZM7.24069 15.4615L7.94174 14.7484L7.24069 15.4615ZM7.5297 15.7456L8.23075 15.0325L7.5297 15.7456ZM8.14973 17.1119L9.10599 16.8193L8.14973 17.1119ZM8.36878 17.834L7.41117 18.122L8.36878 17.834ZM8.47749 18.1953L9.4351 17.9073L8.47749 18.1953ZM8.70501 19.3218L9.7047 19.2968L8.70501 19.3218ZM8.71511 19.7255L7.71542 19.7505L8.71511 19.7255ZM8.72521 20.1291L7.72552 20.1541L8.72521 20.1291ZM8.9701 20.8401L9.76477 20.2331L8.9701 20.8401ZM9.20489 21.1475L9.99956 20.5405L9.20489 21.1475ZM9.43968 21.4549L8.645 22.0619L9.43968 21.4549ZM9.97144 22.0429L9.28451 22.7697L9.97144 22.0429ZM10.2684 22.3237L10.9553 21.5969L10.2684 22.3237ZM10.5654 22.6044L9.87845 23.3311L10.5654 22.6044ZM10.804 23.3181L11.7951 23.4516L10.804 23.3181ZM10.7457 23.7511L9.75466 23.6176L10.7457 23.7511ZM10.6874 24.184L9.69634 24.0505L10.6874 24.184ZM10.8761 24.9191L10.102 25.5522L10.8761 24.9191ZM11.1232 25.2212L11.8973 24.5882L11.1232 25.2212ZM11.3702 25.5233L10.5961 26.1564L11.3702 25.5233ZM11.8743 26.1233L11.1172 26.7766L11.8743 26.1233ZM12.1313 26.4211L12.8884 25.7678L12.1313 26.4211ZM12.3883 26.719L13.1454 26.0656L12.3883 26.719ZM12.801 27.3581L11.8912 27.7731L12.801 27.3581ZM13.1124 28.0406L14.0222 27.6255L13.1124 28.0406ZM13.2011 28.5365L14.1188 28.9339L13.2011 28.5365ZM13.1342 28.6912L13.9161 29.3146L13.999 29.2106L14.0518 29.0885L13.1342 28.6912ZM12.9609 28.9086L12.1789 28.2852L11.8061 28.7528L12.0417 29.3025L12.9609 28.9086ZM12.0811 29.3944C12.2987 29.902 12.8865 30.1372 13.3942 29.9196C13.9018 29.7021 14.1369 29.1142 13.9194 28.6066L13.0002 29.0005L12.0811 29.3944ZM1.00024 1.00049L0.0810991 1.39441L0.120491 1.48632L1.03964 1.0924L1.95878 0.698483L1.91939 0.606569L1.00024 1.00049ZM1.03964 1.0924L0.0401725 1.12515L0.064783 1.87618L1.06425 1.84343L2.06371 1.81068L2.0391 1.05965L1.03964 1.0924ZM1.06425 1.84343L0.064783 1.87618C0.0829628 2.43097 0.189122 3.09593 0.629441 3.56801L1.36072 2.88594L2.092 2.20386C2.14131 2.25672 2.1334 2.27943 2.11253 2.20603C2.09214 2.13432 2.07019 2.00839 2.06371 1.81068L1.06425 1.84343ZM1.36072 2.88594L0.629441 3.56801L0.901304 3.85949L1.63258 3.17741L2.36386 2.49533L2.092 2.20386L1.36072 2.88594ZM1.63258 3.17741L0.901304 3.85949L1.17317 4.15096L1.90445 3.46889L2.63573 2.78681L2.36386 2.49533L1.63258 3.17741ZM1.90445 3.46889L1.17317 4.15096C1.30174 4.28881 1.40385 4.42992 1.48359 4.57411L2.3587 4.09018L3.23381 3.60626C3.07036 3.31069 2.86964 3.0376 2.63573 2.78681L1.90445 3.46889ZM2.3587 4.09018L1.48359 4.57411L1.66598 4.90393L2.54109 4.42001L3.4162 3.93608L3.23381 3.60626L2.3587 4.09018ZM2.54109 4.42001L1.66598 4.90393L1.84836 5.23375L2.72347 4.74983L3.59858 4.2659L3.4162 3.93608L2.54109 4.42001ZM2.72347 4.74983L1.84836 5.23375C1.89889 5.32512 1.93237 5.42969 1.94355 5.55913L2.93984 5.47307L3.93613 5.38702C3.90201 4.9919 3.79124 4.61429 3.59858 4.2659L2.72347 4.74983ZM2.93984 5.47307L1.94355 5.55913L1.97754 5.95255L2.97383 5.8665L3.97012 5.78044L3.93613 5.38702L2.93984 5.47307ZM2.97383 5.8665L1.97754 5.95255L2.01152 6.34598L3.00781 6.25992L4.0041 6.17386L3.97012 5.78044L2.97383 5.8665ZM3.00781 6.25992L2.01152 6.34598C2.05086 6.80138 2.21587 7.22154 2.50236 7.58084L3.28424 6.95742L4.06613 6.33401C4.02935 6.28787 4.01007 6.24303 4.0041 6.17386L3.00781 6.25992ZM3.28424 6.95742L2.50236 7.58084L2.74481 7.88492L3.52669 7.26151L4.30858 6.63809L4.06613 6.33401L3.28424 6.95742ZM3.52669 7.26151L2.74481 7.88492L2.98726 8.189L3.76915 7.56559L4.55103 6.94217L4.30858 6.63809L3.52669 7.26151ZM3.76915 7.56559L2.98726 8.189C3.13834 8.37848 3.28334 8.57021 3.4223 8.76419L4.23522 8.18181L5.04814 7.59944C4.88894 7.37722 4.72322 7.15813 4.55103 6.94217L3.76915 7.56559ZM4.23522 8.18181L3.4223 8.76419L3.64593 9.07634L4.45885 8.49396L5.27176 7.91158L5.04814 7.59944L4.23522 8.18181ZM4.45885 8.49396L3.64593 9.07634L3.86955 9.38849L4.68247 8.80611L5.49539 8.22373L5.27176 7.91158L4.45885 8.49396ZM4.68247 8.80611L3.86955 9.38849C3.88971 9.41663 3.90678 9.45082 3.90694 9.52796L4.90694 9.52589L5.90694 9.52382C5.90597 9.05746 5.7734 8.61179 5.49539 8.22373L4.68247 8.80611ZM4.90694 9.52589L3.90694 9.52796L3.90778 9.93558L4.90778 9.93351L5.90778 9.93144L5.90694 9.52382L4.90694 9.52589ZM4.90778 9.93351L3.90778 9.93558L3.90863 10.3432L4.90863 10.3411L5.90862 10.3391L5.90778 9.93144L4.90778 9.93351ZM4.90863 10.3411L3.90863 10.3432C3.90968 10.8502 4.08132 11.3221 4.42329 11.7078L5.17158 11.0444L5.91986 10.381C5.91409 10.3745 5.91177 10.3708 5.9113 10.3701C5.91088 10.3694 5.91115 10.3697 5.91146 10.3706C5.91175 10.3713 5.91123 10.3703 5.91053 10.3663C5.90981 10.3621 5.90865 10.3534 5.90862 10.3391L4.90863 10.3411ZM5.17158 11.0444L4.42329 11.7078L4.6854 12.0035L5.43369 11.3401L6.18197 10.6767L5.91986 10.381L5.17158 11.0444ZM5.43369 11.3401L4.6854 12.0035L4.94751 12.2991L5.69579 11.6357L6.44408 10.9724L6.18197 10.6767L5.43369 11.3401ZM5.69579 11.6357L4.94751 12.2991C4.95338 12.3057 4.95579 12.3096 4.95635 12.3105C4.95686 12.3113 4.95666 12.3111 4.9564 12.3104C4.95616 12.3097 4.95671 12.3109 4.95743 12.315C4.95817 12.3193 4.95934 12.328 4.95939 12.3424L5.95939 12.3387L6.95938 12.3351C6.95753 11.8286 6.78555 11.3575 6.44408 10.9724L5.69579 11.6357ZM5.95939 12.3387L4.95939 12.3424L4.96088 12.7497L5.96087 12.7461L6.96087 12.7424L6.95938 12.3351L5.95939 12.3387ZM5.96087 12.7461L4.96088 12.7497L4.96236 13.1571L5.96236 13.1534L6.96235 13.1498L6.96087 12.7424L5.96087 12.7461ZM5.96236 13.1534L4.96236 13.1571C4.96389 13.5756 5.05583 13.9825 5.25295 14.3584L6.13855 13.8939L7.02414 13.4295C6.98833 13.3612 6.9628 13.2744 6.96235 13.1498L5.96236 13.1534ZM6.13855 13.8939L5.25295 14.3584L5.42766 14.6915L6.31325 14.227L7.19885 13.7626L7.02414 13.4295L6.13855 13.8939ZM6.31325 14.227L5.42766 14.6915L5.60236 15.0246L6.48796 14.5601L7.37355 14.0957L7.19885 13.7626L6.31325 14.227ZM6.48796 14.5601L5.60236 15.0246C5.77066 15.3455 5.98963 15.6339 6.25063 15.8905L6.95168 15.1774L7.65272 14.4643C7.52837 14.342 7.4382 14.2189 7.37355 14.0957L6.48796 14.5601ZM6.95168 15.1774L6.25063 15.8905L6.53964 16.1746L7.24069 15.4615L7.94174 14.7484L7.65272 14.4643L6.95168 15.1774ZM7.24069 15.4615L6.53964 16.1746L6.82866 16.4587L7.5297 15.7456L8.23075 15.0325L7.94174 14.7484L7.24069 15.4615ZM7.5297 15.7456L6.82866 16.4587C6.91166 16.5403 6.95156 16.6135 6.9728 16.683L7.92906 16.3905L8.88532 16.0979C8.75944 15.6864 8.5331 15.3297 8.23075 15.0325L7.5297 15.7456ZM7.92906 16.3905L6.9728 16.683L7.08313 17.0437L8.03939 16.7512L8.99565 16.4586L8.88532 16.0979L7.92906 16.3905ZM8.03939 16.7512L7.08313 17.0437L7.19347 17.4044L8.14973 17.1119L9.10599 16.8193L8.99565 16.4586L8.03939 16.7512ZM8.14973 17.1119L7.19347 17.4044C7.26658 17.6433 7.33914 17.8826 7.41117 18.122L8.36878 17.834L9.32639 17.5459C9.25347 17.3035 9.18001 17.0613 9.10599 16.8193L8.14973 17.1119ZM8.36878 17.834L7.41117 18.122L7.51988 18.4834L8.47749 18.1953L9.4351 17.9073L9.32639 17.5459L8.36878 17.834ZM8.47749 18.1953L7.51988 18.4834L7.62858 18.8448L8.5862 18.5567L9.54381 18.2687L9.4351 17.9073L8.47749 18.1953ZM8.5862 18.5567L7.62858 18.8448C7.67364 18.9946 7.70066 19.1607 7.70532 19.3468L8.70501 19.3218L9.7047 19.2968C9.69589 18.9447 9.64371 18.6008 9.54381 18.2687L8.5862 18.5567ZM8.70501 19.3218L7.70532 19.3468L7.71542 19.7505L8.71511 19.7255L9.7148 19.7004L9.7047 19.2968L8.70501 19.3218ZM8.71511 19.7255L7.71542 19.7505L7.72552 20.1541L8.72521 20.1291L9.7249 20.1041L9.7148 19.7004L8.71511 19.7255ZM8.72521 20.1291L7.72552 20.1541C7.73728 20.6241 7.88504 21.067 8.17542 21.4472L8.9701 20.8401L9.76477 20.2331C9.7421 20.2034 9.7266 20.1723 9.7249 20.1041L8.72521 20.1291ZM8.9701 20.8401L8.17542 21.4472L8.41021 21.7545L9.20489 21.1475L9.99956 20.5405L9.76477 20.2331L8.9701 20.8401ZM9.20489 21.1475L8.41021 21.7545L8.645 22.0619L9.43968 21.4549L10.2344 20.8478L9.99956 20.5405L9.20489 21.1475ZM9.43968 21.4549L8.645 22.0619C8.83594 22.3119 9.04964 22.5477 9.28451 22.7697L9.97144 22.0429L10.6584 21.3162C10.4973 21.164 10.3565 21.0077 10.2344 20.8478L9.43968 21.4549ZM9.97144 22.0429L9.28451 22.7697L9.58148 23.0504L10.2684 22.3237L10.9553 21.5969L10.6584 21.3162L9.97144 22.0429ZM10.2684 22.3237L9.58148 23.0504L9.87845 23.3311L10.5654 22.6044L11.2523 21.8777L10.9553 21.5969L10.2684 22.3237ZM10.5654 22.6044L9.87845 23.3311C9.87508 23.3279 9.86557 23.3181 9.85435 23.301C9.84293 23.2835 9.83266 23.2627 9.82515 23.2403C9.80921 23.1926 9.8153 23.1674 9.81299 23.1846L10.804 23.3181L11.7951 23.4516C11.8734 22.8698 11.7025 22.3032 11.2523 21.8777L10.5654 22.6044ZM10.804 23.3181L9.81299 23.1846L9.75466 23.6176L10.7457 23.7511L11.7368 23.8845L11.7951 23.4516L10.804 23.3181ZM10.7457 23.7511L9.75466 23.6176L9.69634 24.0505L10.6874 24.184L11.6784 24.3175L11.7368 23.8845L10.7457 23.7511ZM10.6874 24.184L9.69634 24.0505C9.62536 24.5775 9.74006 25.1096 10.102 25.5522L10.8761 24.9191L11.6502 24.2861C11.6525 24.2889 11.6574 24.2955 11.6626 24.3057C11.6678 24.316 11.6716 24.3264 11.674 24.3356C11.6763 24.3446 11.6764 24.3491 11.6763 24.3474C11.6762 24.3453 11.676 24.3358 11.6784 24.3175L10.6874 24.184ZM10.8761 24.9191L10.102 25.5522L10.3491 25.8543L11.1232 25.2212L11.8973 24.5882L11.6502 24.2861L10.8761 24.9191ZM11.1232 25.2212L10.3491 25.8543L10.5961 26.1564L11.3702 25.5233L12.1443 24.8903L11.8973 24.5882L11.1232 25.2212ZM11.3702 25.5233L10.5961 26.1564C10.7664 26.3647 10.9402 26.5714 11.1172 26.7766L11.8743 26.1233L12.6314 25.47C12.4658 25.278 12.3034 25.0848 12.1443 24.8903L11.3702 25.5233ZM11.8743 26.1233L11.1172 26.7766L11.3742 27.0744L12.1313 26.4211L12.8884 25.7678L12.6314 25.47L11.8743 26.1233ZM12.1313 26.4211L11.3742 27.0744L11.6313 27.3723L12.3883 26.719L13.1454 26.0656L12.8884 25.7678L12.1313 26.4211ZM12.3883 26.719L11.6313 27.3723C11.7437 27.5026 11.8287 27.636 11.8912 27.7731L12.801 27.3581L13.7108 26.943C13.5658 26.6251 13.3757 26.3325 13.1454 26.0656L12.3883 26.719ZM12.801 27.3581L11.8912 27.7731L12.0469 28.1144L12.9567 27.6993L13.8665 27.2843L13.7108 26.943L12.801 27.3581ZM12.9567 27.6993L12.0469 28.1144L12.2026 28.4557L13.1124 28.0406L14.0222 27.6255L13.8665 27.2843L12.9567 27.6993ZM13.1124 28.0406L12.2026 28.4557C12.2349 28.5265 12.2333 28.5407 12.2281 28.5113C12.225 28.4942 12.2189 28.452 12.2223 28.3915C12.2257 28.3299 12.2396 28.2404 12.2835 28.1392L13.2011 28.5365L14.1188 28.9339C14.249 28.6332 14.2301 28.3454 14.1968 28.1591C14.162 27.9644 14.0937 27.7822 14.0222 27.6255L13.1124 28.0406ZM13.2011 28.5365L12.2835 28.1392L12.2165 28.2938L13.1342 28.6912L14.0518 29.0885L14.1188 28.9339L13.2011 28.5365ZM13.1342 28.6912L12.3523 28.0678L12.1789 28.2852L12.9609 28.9086L13.7428 29.532L13.9161 29.3146L13.1342 28.6912ZM12.9609 28.9086L12.0417 29.3025L12.0811 29.3944L13.0002 29.0005L13.9194 28.6066L13.88 28.5147L12.9609 28.9086Z" fill="black"/>
</svg>
