<svg width="19" height="18" viewBox="0 0 19 18" fill="none" xmlns="http://www.w3.org/2000/svg">
<path d="M9.1855 7.96183C9.1855 7.01034 9.60697 4.88388 10.4595 3.49656C10.8603 2.84431 11.5227 2.42854 12.372 2.21621C13.2213 2.00388 13.9717 2.00069 14.6086 2.21302C15.2456 2.42534 15.8874 2.85 16.4717 3.53967C17.0717 4.24783 17.1677 5.29576 17.0097 6.51545C16.6368 9.39337 15.1498 10.7205 14.1393 12.2132C12.7658 14.2419 10.6862 15.4013 9.03225 16.2091C7.15925 17.1239 5.46897 14.7819 3.81665 13.2365C2.86091 12.3426 2.48361 10.8418 2.00468 9.30444C1.38882 7.32753 2.15794 5.20317 2.74224 3.76796C3.12945 2.81685 3.75439 2.32317 4.39137 1.9512C4.70148 1.7701 5.02835 1.68459 5.40192 1.73568C6.94728 2.42534 8.64271 4.74977 9.71553 7.47331C9.82408 8.16617 9.82408 9.0091 9.82408 9.87757" stroke="black" stroke-width="2" stroke-linecap="round"/>
</svg>
