<svg width="32" height="32" viewBox="0 0 32 32" fill="none" xmlns="http://www.w3.org/2000/svg">
<path d="M15.9707 9.44658C15.9707 9.43725 16.0092 9.64296 16.1024 11.4241C16.1844 12.9936 16.2266 15.9192 16.2593 17.9427C16.2921 19.9662 16.2859 21.0003 16.2719 21.6001C16.2017 22.611 16.1406 23.0529 16.0767 23.3245C16.0483 23.436 16.0283 23.4937 16.0077 23.595" stroke="black" stroke-width="1.5" stroke-linecap="round"/>
<path d="M16.083 9.20188C16.306 9.10058 16.9685 8.87179 17.9113 8.53486C18.8805 8.1885 19.158 7.98694 19.8234 7.90639C20.2893 7.84999 20.6223 7.78105 21.4313 7.7438C22.1605 7.71022 23.5363 7.63206 24.2816 7.59947C25.2693 7.55626 25.6762 7.62423 26.3288 7.80889C26.4569 7.84514 26.4721 7.92261 26.4839 8.02314C26.5527 8.60731 26.5008 9.19711 26.5051 10.7979C26.5069 11.4561 26.4847 12.3355 26.489 13.1137C26.4934 13.8918 26.5161 14.5421 26.5625 15.6563C26.609 16.7704 26.6784 18.3287 26.706 19.2547C26.7509 20.7623 26.6341 21.2819 26.5746 21.7449C26.4968 22.3512 26.4255 22.6086 26.3507 22.812C26.2758 23.0157 25.896 22.6901 25.5969 22.5926C25.2449 22.4779 24.7372 22.3087 24.3513 22.2624C24.1743 22.2411 23.7195 22.222 22.9543 22.172C22.0975 22.1161 21.2887 21.9833 20.6343 21.972C19.7696 21.957 19.4876 22.1363 18.4682 22.4444C17.9131 22.6122 17.3936 22.9297 16.9119 23.2261C16.641 23.4617 16.5142 23.5913 16.4343 23.6861C16.3918 23.7305 16.3451 23.7673 16.1557 23.8468" stroke="black" stroke-width="1.5" stroke-linecap="round"/>
<path d="M15.715 23.878C15.6455 23.819 15.2317 23.5459 13.878 22.8859C13.5235 22.713 13.1133 22.5887 12.2921 22.3327C11.1108 21.9645 10.2578 21.8612 10.0427 21.7736C9.61628 21.5998 8.7855 21.5601 7.65686 21.6252C7.11851 21.735 6.61995 21.9096 6.18626 22.0843C6.08097 22.1306 5.99537 22.1744 5.87891 22.2334" stroke="black" stroke-width="1.5" stroke-linecap="round"/>
<path d="M15.7224 9.47136C15.3909 9.21476 15.0422 9.07021 14.4795 8.88794C12.8284 8.35315 12.1092 8.07731 11.7705 8.00411C11.2477 7.89114 10.9259 7.90449 9.86477 7.80246C9.20903 7.73941 8.05816 7.74391 7.41424 7.7373C6.49428 7.7716 6.24139 7.82002 6.02675 7.87129C5.93525 7.89369 5.87912 7.90872 5.82129 7.93812" stroke="black" stroke-width="1.5" stroke-linecap="round"/>
<path d="M5.57383 8.21387C5.60137 8.32642 5.61512 8.76175 5.5993 9.43957C5.5873 9.95407 5.51467 10.5722 5.50318 11.8939C5.49519 12.8142 5.50007 14.2413 5.50652 15.0345C5.51392 15.944 5.57295 16.7321 5.6352 17.7741C5.67459 18.4335 5.74194 19.1809 5.74703 19.724C5.67314 20.5011 5.65105 21.5029 5.66059 22.221C5.6657 22.3215 5.67074 22.3892 5.67592 22.459" stroke="black" stroke-width="1.5" stroke-linecap="round"/>
<path d="M3 9C3.01556 9 3.17543 9 3.59345 9C3.85961 9 4.23548 9 4.47969 9C4.72389 9 4.82505 9 5 9" stroke="black" stroke-width="1.5" stroke-linecap="round"/>
<path d="M2.66361 9C2.74579 9.29598 2.65658 10.2676 2.6463 11.2105C2.63937 11.8468 2.64054 12.8035 2.66358 14.6537C2.68662 16.5038 2.73446 19.2184 2.75636 20.6564C2.77946 22.1734 2.76166 22.5952 2.75876 23.2607C2.77215 23.8858 2.78833 24.2709 2.80055 24.4188C2.80773 24.4906 2.81691 24.5558 2.84029 24.7091" stroke="black" stroke-width="1.5" stroke-linecap="round"/>
<path d="M27.6855 9.40777C27.739 9.40888 27.7925 9.40999 28.045 9.40764C28.2975 9.40529 28.7475 9.39944 29.0153 9.39894C29.2831 9.39844 29.3551 9.40348 29.5267 9.39453" stroke="black" stroke-width="1.5" stroke-linecap="round"/>
<path d="M29.7828 9.49512C29.7704 9.5662 29.726 9.78335 29.6481 11.429C29.5788 12.8931 29.5672 15.6385 29.5492 17.4426C29.5311 19.2468 29.5373 20.0276 29.5306 20.5243C29.5213 21.2102 29.4771 21.8417 29.4644 22.663C29.4525 23.8929 29.4727 24.4852 29.5028 24.7895C29.5098 24.8608 29.5144 24.9314 29.5192 25.0042" stroke="black" stroke-width="1.5" stroke-linecap="round"/>
<path d="M3.03125 24.9053C3.04043 24.9053 3.20762 24.9322 4.11781 24.973C4.86491 25.0064 6.19358 24.9865 6.9416 24.9931C7.68961 24.9998 7.81735 25.0132 8.31881 25.0853C8.82028 25.1573 9.6916 25.2875 10.3175 25.3663C11.2951 25.4893 11.911 25.5372 12.593 25.6045C13.0247 25.6471 13.6366 25.6274 14.5476 25.583C15.4586 25.5386 16.6518 25.4498 18.9268 25.49C21.2018 25.5302 24.5225 25.702 26.3094 25.7869C28.2484 25.8789 28.5487 25.831 28.8455 25.7661C28.9999 25.7268 29.1619 25.6749 29.2714 25.6195C29.381 25.5641 29.4333 25.5068 29.501 25.4337" stroke="black" stroke-width="1.5" stroke-linecap="round"/>
</svg>
