<svg width="33" height="32" viewBox="0 0 33 32" fill="none" xmlns="http://www.w3.org/2000/svg">
<path d="M4.70702 9.25383C4.29589 9.41564 4.09377 9.8801 4.25558 10.2912C4.41739 10.7024 4.88185 10.9045 5.29298 10.7427L5 9.99825L4.70702 9.25383ZM5.09305 9.96162L5.38603 10.706L5.65067 10.6019L5.79018 10.3541L5.09305 9.96162ZM6.00093 8.79857L5.76987 8.03266L6.00093 8.79857ZM6.30584 8.70658L6.07478 7.94067L6.30584 8.70658ZM6.61076 8.61459L6.84181 9.3805L6.61076 8.61459ZM7.19808 8.4093L6.90019 7.66683L7.19808 8.4093ZM7.76291 8.18268L8.0608 8.92515L7.76291 8.18268ZM8.3485 8.03784L8.43127 8.83355L8.3485 8.03784ZM8.65168 8.0063L8.56891 7.2106L8.65168 8.0063ZM8.95485 7.97477L8.87208 7.17906L8.95485 7.97477ZM9.84649 7.84731L9.71778 7.05773L9.84649 7.84731ZM10.1407 7.79934L10.012 7.00977L10.1407 7.79934ZM10.7234 7.85417L10.992 7.10059L10.7234 7.85417ZM11.3004 8.05976L11.0319 8.81335L11.3004 8.05976ZM11.901 8.08792L11.715 7.30985L11.901 8.08792ZM12.2132 8.01329L12.0271 7.23522L12.2132 8.01329ZM12.5253 7.93865L12.7114 8.71672L12.5253 7.93865ZM13.0724 8.06762L13.5964 7.46306L13.0724 8.06762ZM13.3074 8.27122L12.7834 8.87578L13.3074 8.27122ZM13.5423 8.47482L13.0184 9.07938L13.5423 8.47482ZM14.0244 8.81904L14.42 8.12371L14.0244 8.81904ZM14.2716 8.95967L13.8759 9.65501L14.2716 8.95967ZM14.5187 9.10029L14.9143 8.40496L14.5187 9.10029ZM14.9954 9.43375L14.4809 10.0463L14.9954 9.43375ZM15.225 9.62658L15.7396 9.01404L15.225 9.62658ZM15.4545 9.81941L14.9399 10.432L15.4545 9.81941ZM15.7739 10.3002L16.5376 10.062L15.7739 10.3002ZM15.8637 10.5881L16.6274 10.3499L15.8637 10.5881ZM15.9535 10.876L16.7172 10.6378L15.9535 10.876ZM16.2505 12.0908L15.4698 12.2654L16.2505 12.0908ZM15.9338 12.9245L15.2893 12.4505L15.9338 12.9245ZM15.7409 13.1868L16.3853 13.6608L15.7409 13.1868ZM15.3718 13.6659L14.751 13.1614L15.3718 13.6659ZM15.0196 14.0994L14.3988 13.5949L15.0196 14.0994ZM14.6518 14.4942L14.1074 13.9079L14.6518 14.4942ZM14.2682 14.8503L14.8126 15.4365L14.2682 14.8503ZM13.8532 15.2395L13.3035 14.6583L13.8532 15.2395ZM12.8809 15.8856L12.9144 16.6849L12.8809 15.8856ZM12.2755 15.911L12.309 16.7103L12.2755 15.911ZM11.6853 15.8401L11.4622 16.6084L11.6853 15.8401ZM11.1103 15.6732L11.3334 14.9049L11.1103 15.6732ZM10.5532 15.4577L10.905 14.7392L10.5532 15.4577ZM10.0141 15.1937L9.66227 15.9122L10.0141 15.1937ZM9.62745 14.7871L8.8915 15.1008L9.62745 14.7871ZM9.51042 14.5125L10.2464 14.1989L9.51042 14.5125ZM9.39339 14.2379L8.65744 14.5516L9.39339 14.2379ZM9.14552 13.7083L8.4337 14.0734L9.14552 13.7083ZM8.81042 12.6684L8.02737 12.5046L8.81042 12.6684ZM9.17545 11.5655L9.8338 12.02L9.17545 11.5655ZM9.56087 11.0072L10.2192 11.4617L9.56087 11.0072ZM10.0682 10.8514L9.77625 11.5962L10.0682 10.8514ZM10.3828 10.9747L10.0908 11.7195L10.3828 10.9747ZM10.6974 11.098L10.9893 10.3532L10.6974 11.098ZM11.2855 11.3422L11.6089 10.6105L11.2855 11.3422ZM11.8326 11.584L12.156 10.8523L11.8326 11.584ZM12.3866 11.7994L12.1314 12.5576L12.3866 11.7994ZM12.9476 11.9882L13.2028 11.23L12.9476 11.9882ZM14.0884 12.3798L13.8272 13.1359V13.1359L14.0884 12.3798ZM14.6228 12.6494L15.0765 11.9905L14.6228 12.6494ZM15.1181 12.9904L15.5718 12.3315L15.1181 12.9904ZM15.9868 13.3408L16.2093 12.5724L15.9868 13.3408ZM16.2973 13.4307L16.0748 14.1992L16.2973 13.4307ZM16.7262 13.85L15.9734 14.1206L16.7262 13.85ZM16.9629 14.5087L17.7158 14.2381L16.9629 14.5087ZM17.2697 15.0664L17.8869 14.5574L17.2697 15.0664ZM17.6465 15.5233L17.0294 16.0324L17.6465 15.5233ZM18.134 15.8837L17.811 16.6157L18.134 15.8837ZM18.433 16.0157L18.11 16.7476L18.433 16.0157ZM18.732 16.1476L19.055 15.4157L18.732 16.1476ZM19.167 16.5531L19.8834 16.197L19.167 16.5531ZM19.303 16.8266L18.5866 17.1827L19.303 16.8266ZM19.4389 17.1002L18.7225 17.4563L19.4389 17.1002ZM19.7228 17.6325L20.4173 17.2354L19.7228 17.6325ZM20.0187 18.15L19.3242 18.5471L20.0187 18.15ZM20.3255 18.6742L21.0119 18.2633L20.3255 18.6742ZM20.6433 19.2051L19.9568 19.6159L20.6433 19.2051ZM20.7976 19.7792L19.9977 19.7675L20.7976 19.7792ZM20.7931 20.0879L19.9932 20.0763L20.7931 20.0879ZM20.7886 20.3966L21.5885 20.4083L20.7886 20.3966ZM20.6852 20.9858L21.4396 21.252L20.6852 20.9858ZM20.5862 21.2662L21.3406 21.5324L20.5862 21.2662ZM20.4873 21.5466L19.7329 21.2804L20.4873 21.5466ZM20.2362 22.069L20.9136 22.4946L20.2362 22.069ZM19.9321 22.5531L20.6095 22.9787L19.9321 22.5531ZM19.6515 23.0895L18.9184 22.7694L19.6515 23.0895ZM19.523 23.3838L20.2562 23.7039L19.523 23.3838ZM19.3945 23.6782L20.1277 23.9983L19.3945 23.6782ZM19.0257 24.1786L18.505 23.5712L19.0257 24.1786ZM18.7854 24.3846L18.2647 23.7772L18.7854 24.3846ZM18.5451 24.5906L19.0658 25.198L18.5451 24.5906ZM18.0005 24.8774L17.7952 24.1041L18.0005 24.8774ZM17.6962 24.9581L17.9014 25.7314L17.6962 24.9581ZM17.3919 25.0389L17.5971 25.8121L17.3919 25.0389ZM16.7866 25.2001L16.58 24.4273L16.7866 25.2001ZM16.4857 25.2806L16.279 24.5078L16.4857 25.2806ZM16.1848 25.3611L16.3915 26.1339L16.1848 25.3611ZM15.6193 25.596L16.0224 26.2869L15.6193 25.596ZM15.0901 25.9047L14.6869 25.2138L15.0901 25.9047ZM14.5139 25.9246L14.831 25.1901L14.5139 25.9246ZM13.8907 25.6556L13.5736 26.39L13.8907 25.6556ZM13.5001 25.4481L12.9574 26.0358V26.0358L13.5001 25.4481ZM13.4211 25.3751L12.8783 25.9628V25.9628L13.4211 25.3751ZM13.3421 25.3021L13.8849 24.7144L13.3421 25.3021ZM13.4394 24.9972L14.0763 25.4813L13.4394 24.9972ZM13.7919 24.5334L13.155 24.0493L13.7919 24.5334ZM14.1094 24.0381L13.4043 23.6601L14.1094 24.0381ZM14.3918 23.5113L15.0968 23.8893L14.3918 23.5113ZM14.7642 23.0513L14.2459 22.4419L14.7642 23.0513ZM14.9954 22.8547L15.5137 23.4641L14.9954 22.8547ZM15.2266 22.6581L14.7083 22.0487L15.2266 22.6581ZM15.6511 22.2323L15.0398 21.7164L15.6511 22.2323ZM15.8445 22.0032L16.4559 22.5192L15.8445 22.0032ZM16.3466 21.2434L15.5993 20.9577L16.3466 21.2434ZM16.4619 20.9418L17.2091 21.2276L16.4619 20.9418ZM16.5772 20.6403L15.83 20.3545L16.5772 20.6403ZM16.9341 20.1529L16.4465 19.5187L16.9341 20.1529ZM17.1758 19.9671L17.6634 20.6013L17.1758 19.9671ZM17.4174 19.7813L17.9051 20.4154L17.4174 19.7813ZM17.8843 19.3947L17.3521 18.7974L17.8843 19.3947ZM18.335 18.9931L18.8672 19.5903L18.335 18.9931ZM18.7458 18.5544L19.3767 19.0464L18.7458 18.5544ZM19.1168 18.0787L18.486 17.5867L19.1168 18.0787ZM19.5541 17.6637L19.0938 17.0094L19.5541 17.6637ZM20.0577 17.3094L20.518 17.9637L20.0577 17.3094ZM20.5552 16.9484L21.0343 17.5891L20.5552 16.9484ZM20.801 16.7646L20.3219 16.124L20.801 16.7646ZM21.0468 16.5808L21.5259 17.2215L21.0468 16.5808ZM21.4724 16.154L22.1156 16.6297L21.4724 16.154ZM21.6522 15.9109L21.009 15.4352L21.6522 15.9109ZM22.2186 15.2044L22.8019 15.7519L22.2186 15.2044ZM22.6324 14.7636L22.0491 14.2161L22.6324 14.7636ZM23.0341 14.3109L23.6469 14.8252L23.0341 14.3109ZM23.2289 14.0787L23.8418 14.593L23.2289 14.0787ZM23.4238 13.8465L22.8109 13.3323L23.4238 13.8465ZM23.7006 13.296L22.9258 13.0965L23.7006 13.296ZM23.7825 12.9776L23.0077 12.7782L23.7825 12.9776ZM23.8644 12.6592L24.6392 12.8586L23.8644 12.6592ZM24.0757 12.0673L24.799 12.4093L24.0757 12.0673ZM24.3344 11.5202L25.0577 11.8621L24.3344 11.5202ZM24.7746 11.0879L25.1384 11.8004V11.8004L24.7746 11.0879ZM25.0855 10.9292L25.4492 11.6418L25.0855 10.9292ZM25.3963 10.7705L25.0326 10.058L25.3963 10.7705ZM25.6578 10.2484L26.4505 10.1407L25.6578 10.2484ZM25.5591 9.52157L26.3518 9.41388L25.5591 9.52157ZM25.8087 8.92967L25.3229 8.29401L25.8087 8.92967ZM26.4067 8.47272L26.8924 9.10837L26.4067 8.47272ZM26.5946 7.90613L25.8346 8.1557L26.5946 7.90613ZM26.3726 7.22991L27.1327 6.98035L26.3726 7.22991ZM25.991 6.70505L26.4454 6.04663L25.991 6.70505ZM25.7204 6.5183L25.266 7.17672L25.7204 6.5183ZM25.4498 6.33154L24.9954 6.98997L25.4498 6.33154ZM24.8691 6.08141L24.7089 6.86521L24.8691 6.08141ZM24.249 5.95466L24.4092 5.17087L24.249 5.95466ZM23.6348 5.86934L23.6924 5.07141L23.6348 5.86934ZM21.9003 6.32639L21.4709 5.65136L21.9003 6.32639ZM21.4374 6.60951L21.8368 7.30265L21.4374 6.60951ZM21.0597 6.82714L20.6603 6.134L21.0597 6.82714ZM20.6588 7.20955L21.291 7.69971L20.6588 7.20955ZM20.2346 7.75672L19.6023 7.26655L20.2346 7.75672ZM20.3436 8.21753L19.9407 8.90866L20.3436 8.21753ZM20.6648 8.40475L21.0677 7.71362L20.6648 8.40475ZM20.9859 8.59198L20.583 9.28311L20.9859 8.59198ZM21.405 9.06969L20.647 9.32527L21.405 9.06969ZM21.6009 9.65067L22.359 9.39509L21.6009 9.65067ZM21.9151 10.1499L21.3595 10.7255L21.9151 10.1499ZM22.1314 10.3587L22.687 9.78311L22.1314 10.3587ZM22.3476 10.5675L21.792 11.143L22.3476 10.5675ZM22.7557 11.0062L22.1413 11.5186L22.7557 11.0062ZM22.9475 11.2362L23.5619 10.7238L22.9475 11.2362ZM23.1393 11.4662L22.5249 11.9786L23.1393 11.4662ZM23.8774 11.9929L24.2592 11.2899L23.8774 11.9929ZM24.1506 12.1412L23.7688 12.8442L24.1506 12.1412ZM24.5355 12.6071L23.7809 12.8727V12.8727L24.5355 12.6071ZM24.6473 12.9247L23.8926 13.1903L24.6473 12.9247ZM24.759 13.2423L25.5136 12.9768L24.759 13.2423ZM25.1434 13.706L25.5213 13.0009L25.1434 13.706ZM25.6889 13.9983L25.311 14.7034L25.6889 13.9983ZM26.1866 14.342L26.7144 13.7408L26.1866 14.342ZM26.6367 14.7371L26.1089 15.3383L26.6367 14.7371ZM27.1032 15.1148L26.6247 15.756L27.1032 15.1148ZM27.586 15.4752L27.1076 16.1163L27.586 15.4752ZM27.8706 15.7439L28.5898 15.3935L27.8706 15.7439ZM27.9137 15.8324L28.7091 15.7468L28.6942 15.6078L28.6329 15.4821L27.9137 15.8324ZM27.9256 15.9427L27.1302 16.0284L27.163 16.3332L27.3911 16.538L27.9256 15.9427ZM27.4655 16.6048C27.7942 16.9 28.3 16.8728 28.5952 16.544C28.8904 16.2153 28.8632 15.7095 28.5345 15.4143L28 16.0095L27.4655 16.6048ZM5 9.99825L5.29298 10.7427L5.38603 10.706L5.09305 9.96162L4.80007 9.2172L4.70702 9.25383L5 9.99825ZM5.09305 9.96162L5.79018 10.3541L6.09166 9.81854L5.39453 9.42609L4.69741 9.03364L4.39593 9.56918L5.09305 9.96162ZM5.39453 9.42609L6.09166 9.81854C6.17115 9.67734 6.23341 9.59746 6.27216 9.55736C6.31183 9.5163 6.30066 9.54376 6.23199 9.56447L6.00093 8.79857L5.76987 8.03266C5.25147 8.18905 4.917 8.64357 4.69741 9.03364L5.39453 9.42609ZM6.00093 8.79857L6.23199 9.56447L6.5369 9.47249L6.30584 8.70658L6.07478 7.94067L5.76987 8.03266L6.00093 8.79857ZM6.30584 8.70658L6.5369 9.47249L6.84181 9.3805L6.61076 8.61459L6.3797 7.84869L6.07478 7.94067L6.30584 8.70658ZM6.61076 8.61459L6.84181 9.3805C7.06666 9.31267 7.28479 9.2365 7.49597 9.15177L7.19808 8.4093L6.90019 7.66683C6.73483 7.73318 6.56141 7.79387 6.3797 7.84869L6.61076 8.61459ZM7.19808 8.4093L7.49597 9.15177L7.77839 9.03846L7.4805 8.29599L7.18261 7.55352L6.90019 7.66683L7.19808 8.4093ZM7.4805 8.29599L7.77839 9.03846L8.0608 8.92515L7.76291 8.18268L7.46502 7.44021L7.18261 7.55352L7.4805 8.29599ZM7.76291 8.18268L8.0608 8.92515C8.18007 8.8773 8.30285 8.8469 8.43127 8.83355L8.3485 8.03784L8.26573 7.24213C7.98991 7.27082 7.72231 7.33699 7.46502 7.44021L7.76291 8.18268ZM8.3485 8.03784L8.43127 8.83355L8.73444 8.80201L8.65168 8.0063L8.56891 7.2106L8.26573 7.24213L8.3485 8.03784ZM8.65168 8.0063L8.73444 8.80201L9.03762 8.77048L8.95485 7.97477L8.87208 7.17906L8.56891 7.2106L8.65168 8.0063ZM8.95485 7.97477L9.03762 8.77048C9.25476 8.74789 9.46923 8.71937 9.68097 8.68485L9.55226 7.89527L9.42355 7.10569C9.24298 7.13513 9.05917 7.1596 8.87208 7.17906L8.95485 7.97477ZM9.55226 7.89527L9.68097 8.68485L9.9752 8.63689L9.84649 7.84731L9.71778 7.05773L9.42355 7.10569L9.55226 7.89527ZM9.84649 7.84731L9.9752 8.63689L10.2694 8.58892L10.1407 7.79934L10.012 7.00977L9.71778 7.05773L9.84649 7.84731ZM10.1407 7.79934L10.2694 8.58892C10.3285 8.57929 10.3862 8.58329 10.4549 8.60776L10.7234 7.85417L10.992 7.10059C10.676 6.988 10.3452 6.95545 10.012 7.00977L10.1407 7.79934ZM10.7234 7.85417L10.4549 8.60776L10.7434 8.71056L11.0119 7.95697L11.2804 7.20338L10.992 7.10059L10.7234 7.85417ZM11.0119 7.95697L10.7434 8.71056L11.0319 8.81335L11.3004 8.05976L11.5689 7.30618L11.2804 7.20338L11.0119 7.95697ZM11.3004 8.05976L11.0319 8.81335C11.3773 8.93646 11.7359 8.94996 12.0871 8.86599L11.901 8.08792L11.715 7.30985C11.65 7.3254 11.6081 7.32013 11.5689 7.30618L11.3004 8.05976ZM11.901 8.08792L12.0871 8.86599L12.3992 8.79136L12.2132 8.01329L12.0271 7.23522L11.715 7.30985L11.901 8.08792ZM12.2132 8.01329L12.3992 8.79136L12.7114 8.71672L12.5253 7.93865L12.3393 7.16058L12.0271 7.23522L12.2132 8.01329ZM12.5253 7.93865L12.7114 8.71672C12.7123 8.7165 12.7049 8.71835 12.6905 8.7186C12.6756 8.71886 12.6564 8.71736 12.6346 8.71223C12.587 8.70101 12.5573 8.67985 12.5485 8.67218L13.0724 8.06762L13.5964 7.46306C13.2375 7.15207 12.7886 7.05316 12.3393 7.16058L12.5253 7.93865ZM13.0724 8.06762L12.5485 8.67218L12.7834 8.87578L13.3074 8.27122L13.8313 7.66666L13.5964 7.46306L13.0724 8.06762ZM13.3074 8.27122L12.7834 8.87578L13.0184 9.07938L13.5423 8.47482L14.0662 7.87026L13.8313 7.66666L13.3074 8.27122ZM13.5423 8.47482L13.0184 9.07938C13.211 9.24636 13.4143 9.39238 13.6288 9.51438L14.0244 8.81904L14.42 8.12371C14.3049 8.05821 14.1868 7.97475 14.0662 7.87026L13.5423 8.47482ZM14.0244 8.81904L13.6288 9.51438L13.8759 9.65501L14.2716 8.95967L14.6672 8.26433L14.42 8.12371L14.0244 8.81904ZM14.2716 8.95967L13.8759 9.65501L14.1231 9.79563L14.5187 9.10029L14.9143 8.40496L14.6672 8.26433L14.2716 8.95967ZM14.5187 9.10029L14.1231 9.79563C14.2436 9.86419 14.3629 9.94721 14.4809 10.0463L14.9954 9.43375L15.51 8.82121C15.3219 8.66319 15.1234 8.5239 14.9143 8.40496L14.5187 9.10029ZM14.9954 9.43375L14.4809 10.0463L14.7104 10.2391L15.225 9.62658L15.7396 9.01404L15.51 8.82121L14.9954 9.43375ZM15.225 9.62658L14.7104 10.2391L14.9399 10.432L15.4545 9.81941L15.9691 9.20687L15.7396 9.01404L15.225 9.62658ZM15.4545 9.81941L14.9399 10.432C14.9751 10.4615 14.9955 10.4915 15.0101 10.5384L15.7739 10.3002L16.5376 10.062C16.4325 9.72492 16.24 9.43445 15.9691 9.20687L15.4545 9.81941ZM15.7739 10.3002L15.0101 10.5384L15.0999 10.8263L15.8637 10.5881L16.6274 10.3499L16.5376 10.062L15.7739 10.3002ZM15.8637 10.5881L15.0999 10.8263L15.1897 11.1142L15.9535 10.876L16.7172 10.6378L16.6274 10.3499L15.8637 10.5881ZM15.9535 10.876L15.1897 11.1142C15.2427 11.2841 15.2901 11.4618 15.3316 11.6475L16.1123 11.4729L16.8931 11.2983C16.8424 11.0719 16.7839 10.8517 16.7172 10.6378L15.9535 10.876ZM16.1123 11.4729L15.3316 11.6475L15.4007 11.9564L16.1814 11.7819L16.9621 11.6073L16.8931 11.2983L16.1123 11.4729ZM16.1814 11.7819L15.4007 11.9564L15.4698 12.2654L16.2505 12.0908L17.0312 11.9163L16.9621 11.6073L16.1814 11.7819ZM16.2505 12.0908L15.4698 12.2654C15.47 12.2662 15.4689 12.2615 15.4687 12.2521C15.4686 12.2425 15.4696 12.2309 15.4723 12.2187C15.4781 12.192 15.4874 12.1811 15.4822 12.1882L16.1267 12.6622L16.7712 13.1361C17.0323 12.781 17.1294 12.3552 17.0312 11.9163L16.2505 12.0908ZM16.1267 12.6622L15.4822 12.1882L15.2893 12.4505L15.9338 12.9245L16.5783 13.3984L16.7712 13.1361L16.1267 12.6622ZM15.9338 12.9245L15.2893 12.4505L15.0964 12.7129L15.7409 13.1868L16.3853 13.6608L16.5783 13.3984L15.9338 12.9245ZM15.7409 13.1868L15.0964 12.7129C14.9742 12.879 14.859 13.0284 14.751 13.1614L15.3718 13.6659L15.9927 14.1704C16.1194 14.0144 16.2503 13.8444 16.3853 13.6608L15.7409 13.1868ZM15.3718 13.6659L14.751 13.1614L14.5749 13.3781L15.1957 13.8826L15.8166 14.3871L15.9927 14.1704L15.3718 13.6659ZM15.1957 13.8826L14.5749 13.3781L14.3988 13.5949L15.0196 14.0994L15.6405 14.6038L15.8166 14.3871L15.1957 13.8826ZM15.0196 14.0994L14.3988 13.5949C14.3034 13.7123 14.2061 13.8163 14.1074 13.9079L14.6518 14.4942L15.1961 15.0804C15.3531 14.9346 15.5011 14.7754 15.6405 14.6038L15.0196 14.0994ZM14.6518 14.4942L14.1074 13.9079L13.9157 14.086L14.46 14.6722L15.0043 15.2585L15.1961 15.0804L14.6518 14.4942ZM14.46 14.6722L13.9157 14.086L13.7239 14.264L14.2682 14.8503L14.8126 15.4365L15.0043 15.2585L14.46 14.6722ZM14.2682 14.8503L13.7239 14.264C13.594 14.3847 13.4538 14.5161 13.3035 14.6583L13.8532 15.2395L14.4029 15.8207C14.5503 15.6813 14.6868 15.5533 14.8126 15.4365L14.2682 14.8503ZM13.8532 15.2395L13.3035 14.6583L13.0803 14.8694L13.63 15.4506L14.1797 16.0318L14.4029 15.8207L13.8532 15.2395ZM13.63 15.4506L13.0803 14.8694L12.857 15.0805L13.4068 15.6618L13.9565 16.243L14.1797 16.0318L13.63 15.4506ZM13.4068 15.6618L12.857 15.0805C12.8513 15.086 12.848 15.0882 12.8474 15.0886C12.847 15.0889 12.8481 15.0882 12.8504 15.0872C12.8527 15.0862 12.8546 15.0857 12.8551 15.0856C12.8556 15.0855 12.8533 15.086 12.8474 15.0863L12.8809 15.8856L12.9144 16.6849C13.3119 16.6682 13.6697 16.5142 13.9565 16.243L13.4068 15.6618ZM12.8809 15.8856L12.8474 15.0863L12.5447 15.099L12.5782 15.8983L12.6117 16.6976L12.9144 16.6849L12.8809 15.8856ZM12.5782 15.8983L12.5447 15.099L12.242 15.1117L12.2755 15.911L12.309 16.7103L12.6117 16.6976L12.5782 15.8983ZM12.2755 15.911L12.242 15.1117C12.1258 15.1165 12.0158 15.1031 11.9084 15.0719L11.6853 15.8401L11.4622 16.6084C11.7382 16.6885 12.0216 16.7223 12.309 16.7103L12.2755 15.911ZM11.6853 15.8401L11.9084 15.0719L11.6209 14.9884L11.3978 15.7567L11.1747 16.5249L11.4622 16.6084L11.6853 15.8401ZM11.3978 15.7567L11.6209 14.9884L11.3334 14.9049L11.1103 15.6732L10.8872 16.4414L11.1747 16.5249L11.3978 15.7567ZM11.1103 15.6732L11.3334 14.9049C11.1861 14.8621 11.0434 14.807 10.905 14.7392L10.5532 15.4577L10.2014 16.1762C10.4224 16.2844 10.6511 16.3729 10.8872 16.4414L11.1103 15.6732ZM10.5532 15.4577L10.905 14.7392L10.6354 14.6072L10.2836 15.3257L9.93184 16.0442L10.2014 16.1762L10.5532 15.4577ZM10.2836 15.3257L10.6354 14.6072L10.3658 14.4752L10.0141 15.1937L9.66227 15.9122L9.93184 16.0442L10.2836 15.3257ZM10.0141 15.1937L10.3658 14.4752C10.36 14.4723 10.3578 14.4707 10.3581 14.4709C10.3585 14.4712 10.3602 14.4725 10.3624 14.4748C10.3646 14.4771 10.3659 14.4791 10.3664 14.4798C10.3669 14.4805 10.3657 14.4788 10.3634 14.4735L9.62745 14.7871L8.8915 15.1008C9.04528 15.4616 9.3111 15.7403 9.66227 15.9122L10.0141 15.1937ZM9.62745 14.7871L10.3634 14.4735L10.2464 14.1989L9.51042 14.5125L8.77447 14.8262L8.8915 15.1008L9.62745 14.7871ZM9.51042 14.5125L10.2464 14.1989L10.1293 13.9243L9.39339 14.2379L8.65744 14.5516L8.77447 14.8262L9.51042 14.5125ZM9.39339 14.2379L10.1293 13.9243C10.0442 13.7245 9.95357 13.5307 9.85734 13.3431L9.14552 13.7083L8.4337 14.0734C8.51193 14.2259 8.58655 14.3853 8.65744 14.5516L9.39339 14.2379ZM9.14552 13.7083L9.85734 13.3431L9.72649 13.088L9.01467 13.4532L8.30286 13.8183L8.4337 14.0734L9.14552 13.7083ZM9.01467 13.4532L9.72649 13.088L9.59565 12.833L8.88383 13.1981L8.17201 13.5632L8.30286 13.8183L9.01467 13.4532ZM8.88383 13.1981L9.59565 12.833C9.59262 12.8271 9.59166 12.8241 9.59161 12.8239C9.59159 12.8239 9.59209 12.8255 9.59248 12.8283C9.59288 12.8312 9.59294 12.8337 9.59288 12.8352C9.59282 12.8367 9.59271 12.8359 9.59347 12.8322L8.81042 12.6684L8.02737 12.5046C7.95069 12.8712 8.00319 13.2341 8.17201 13.5632L8.88383 13.1981ZM8.81042 12.6684L9.59347 12.8322L9.65091 12.5576L8.86786 12.3938L8.08481 12.23L8.02737 12.5046L8.81042 12.6684ZM8.86786 12.3938L9.65091 12.5576L9.70835 12.2831L8.9253 12.1193L8.14225 11.9555L8.08481 12.23L8.86786 12.3938ZM8.9253 12.1193L9.70835 12.2831C9.72079 12.2236 9.75347 12.1364 9.8338 12.02L9.17545 11.5655L8.51709 11.111C8.34048 11.3669 8.2064 11.6488 8.14225 11.9555L8.9253 12.1193ZM9.17545 11.5655L9.8338 12.02L10.0265 11.7409L9.36816 11.2864L8.7098 10.8319L8.51709 11.111L9.17545 11.5655ZM9.36816 11.2864L10.0265 11.7409L10.2192 11.4617L9.56087 11.0072L8.90251 10.5528L8.7098 10.8319L9.36816 11.2864ZM9.56087 11.0072L10.2192 11.4617C10.2101 11.475 10.1494 11.5534 10.019 11.5934C9.88814 11.6336 9.79294 11.6028 9.77625 11.5962L10.0682 10.8514L10.3601 10.1066C10.1337 10.0178 9.84906 9.97185 9.54912 10.064C9.2496 10.156 9.04013 10.3534 8.90251 10.5528L9.56087 11.0072ZM10.0682 10.8514L9.77625 11.5962L10.0908 11.7195L10.3828 10.9747L10.6747 10.2299L10.3601 10.1066L10.0682 10.8514ZM10.3828 10.9747L10.0908 11.7195L10.4054 11.8428L10.6974 11.098L10.9893 10.3532L10.6747 10.2299L10.3828 10.9747ZM10.6974 11.098L10.4054 11.8428C10.6059 11.9214 10.7914 11.9985 10.9621 12.0739L11.2855 11.3422L11.6089 10.6105C11.4149 10.5248 11.2083 10.439 10.9893 10.3532L10.6974 11.098ZM11.2855 11.3422L10.9621 12.0739L11.2356 12.1948L11.5591 11.4631L11.8825 10.7314L11.6089 10.6105L11.2855 11.3422ZM11.5591 11.4631L11.2356 12.1948L11.5092 12.3157L11.8326 11.584L12.156 10.8523L11.8825 10.7314L11.5591 11.4631ZM11.8326 11.584L11.5092 12.3157C11.7136 12.4061 11.9211 12.4867 12.1314 12.5576L12.3866 11.7994L12.6419 11.0412C12.4782 10.9861 12.3163 10.9232 12.156 10.8523L11.8326 11.584ZM12.3866 11.7994L12.1314 12.5576L12.4119 12.652L12.6671 11.8938L12.9223 11.1356L12.6419 11.0412L12.3866 11.7994ZM12.6671 11.8938L12.4119 12.652L12.6924 12.7464L12.9476 11.9882L13.2028 11.23L12.9223 11.1356L12.6671 11.8938ZM12.9476 11.9882L12.6924 12.7464C12.8773 12.8086 13.0644 12.8725 13.2536 12.9378L13.5148 12.1817L13.7761 11.4255C13.5829 11.3588 13.3919 11.2936 13.2028 11.23L12.9476 11.9882ZM13.5148 12.1817L13.2536 12.9378L13.5404 13.0369L13.8016 12.2807L14.0628 11.5246L13.7761 11.4255L13.5148 12.1817ZM13.8016 12.2807L13.5404 13.0369L13.8272 13.1359L14.0884 12.3798L14.3496 11.6236L14.0628 11.5246L13.8016 12.2807ZM14.0884 12.3798L13.8272 13.1359C13.9507 13.1786 14.064 13.2359 14.1691 13.3083L14.6228 12.6494L15.0765 11.9905C14.8513 11.8355 14.6084 11.713 14.3496 11.6236L14.0884 12.3798ZM14.6228 12.6494L14.1691 13.3083L14.4167 13.4788L14.8704 12.8199L15.3241 12.161L15.0765 11.9905L14.6228 12.6494ZM14.8704 12.8199L14.4167 13.4788L14.6644 13.6493L15.1181 12.9904L15.5718 12.3315L15.3241 12.161L14.8704 12.8199ZM15.1181 12.9904L14.6644 13.6493C14.9053 13.8152 15.1705 13.9373 15.4537 14.0193L15.6763 13.2509L15.8988 12.4824C15.768 12.4446 15.6611 12.393 15.5718 12.3315L15.1181 12.9904ZM15.6763 13.2509L15.4537 14.0193L15.7642 14.1092L15.9868 13.3408L16.2093 12.5724L15.8988 12.4824L15.6763 13.2509ZM15.9868 13.3408L15.7642 14.1092L16.0748 14.1992L16.2973 13.4307L16.5199 12.6623L16.2093 12.5724L15.9868 13.3408ZM16.2973 13.4307L16.0748 14.1992C16.0701 14.1978 16.0589 14.194 16.0441 14.1855C16.0291 14.1769 16.014 14.1657 16.0006 14.1526C15.9723 14.1249 15.968 14.1057 15.9734 14.1206L16.7262 13.85L17.4791 13.5795C17.3218 13.1417 16.996 12.8002 16.5199 12.6623L16.2973 13.4307ZM16.7262 13.85L15.9734 14.1206L16.0917 14.4499L16.8446 14.1793L17.5974 13.9088L17.4791 13.5795L16.7262 13.85ZM16.8446 14.1793L16.0917 14.4499L16.2101 14.7792L16.9629 14.5087L17.7158 14.2381L17.5974 13.9088L16.8446 14.1793ZM16.9629 14.5087L16.2101 14.7792C16.3146 15.0701 16.4587 15.3405 16.6525 15.5755L17.2697 15.0664L17.8869 14.5574C17.8295 14.4878 17.7691 14.3863 17.7158 14.2381L16.9629 14.5087ZM17.2697 15.0664L16.6525 15.5755L16.8409 15.8039L17.4581 15.2949L18.0753 14.7859L17.8869 14.5574L17.2697 15.0664ZM17.4581 15.2949L16.8409 15.8039L17.0294 16.0324L17.6465 15.5233L18.2637 15.0143L18.0753 14.7859L17.4581 15.2949ZM17.6465 15.5233L17.0294 16.0324C17.2423 16.2905 17.5096 16.4826 17.811 16.6157L18.134 15.8837L18.4569 15.1518C18.3597 15.1089 18.302 15.0608 18.2637 15.0143L17.6465 15.5233ZM18.134 15.8837L17.811 16.6157L18.11 16.7476L18.433 16.0157L18.756 15.2838L18.4569 15.1518L18.134 15.8837ZM18.433 16.0157L18.11 16.7476L18.409 16.8796L18.732 16.1476L19.055 15.4157L18.756 15.2838L18.433 16.0157ZM18.732 16.1476L18.409 16.8796C18.4349 16.891 18.4439 16.8994 18.4448 16.9002C18.4456 16.9009 18.446 16.9014 18.4464 16.902C18.4469 16.9026 18.4484 16.9047 18.4506 16.9092L19.167 16.5531L19.8834 16.197C19.7035 15.8351 19.4124 15.5735 19.055 15.4157L18.732 16.1476ZM19.167 16.5531L18.4506 16.9092L18.5866 17.1827L19.303 16.8266L20.0193 16.4706L19.8834 16.197L19.167 16.5531ZM19.303 16.8266L18.5866 17.1827L18.7225 17.4563L19.4389 17.1002L20.1553 16.7441L20.0193 16.4706L19.303 16.8266ZM19.4389 17.1002L18.7225 17.4563C18.8199 17.6521 18.9218 17.8432 19.0283 18.0295L19.7228 17.6325L20.4173 17.2354C20.3266 17.0767 20.2392 16.9129 20.1553 16.7441L19.4389 17.1002ZM19.7228 17.6325L19.0283 18.0295L19.1762 18.2883L19.8708 17.8912L20.5653 17.4942L20.4173 17.2354L19.7228 17.6325ZM19.8708 17.8912L19.1762 18.2883L19.3242 18.5471L20.0187 18.15L20.7132 17.7529L20.5653 17.4942L19.8708 17.8912ZM20.0187 18.15L19.3242 18.5471C19.4256 18.7244 19.5305 18.9037 19.6391 19.0851L20.3255 18.6742L21.0119 18.2633C20.9087 18.0908 20.8091 17.9207 20.7132 17.7529L20.0187 18.15ZM20.3255 18.6742L19.6391 19.0851L19.798 19.3505L20.4844 18.9396L21.1708 18.5288L21.0119 18.2633L20.3255 18.6742ZM20.4844 18.9396L19.798 19.3505L19.9568 19.6159L20.6433 19.2051L21.3297 18.7942L21.1708 18.5288L20.4844 18.9396ZM20.6433 19.2051L19.9568 19.6159C19.9866 19.6656 19.9986 19.7107 19.9977 19.7675L20.7976 19.7792L21.5976 19.7909C21.6027 19.4361 21.5118 19.0984 21.3297 18.7942L20.6433 19.2051ZM20.7976 19.7792L19.9977 19.7675L19.9932 20.0763L20.7931 20.0879L21.593 20.0996L21.5976 19.7909L20.7976 19.7792ZM20.7931 20.0879L19.9932 20.0763L19.9887 20.385L20.7886 20.3966L21.5885 20.4083L21.593 20.0996L20.7931 20.0879ZM20.7886 20.3966L19.9887 20.385C19.9869 20.5074 19.9668 20.6175 19.9308 20.7196L20.6852 20.9858L21.4396 21.252C21.5355 20.9801 21.5843 20.6975 21.5885 20.4083L20.7886 20.3966ZM20.6852 20.9858L19.9308 20.7196L19.8318 21L20.5862 21.2662L21.3406 21.5324L21.4396 21.252L20.6852 20.9858ZM20.5862 21.2662L19.8318 21L19.7329 21.2804L20.4873 21.5466L21.2417 21.8128L21.3406 21.5324L20.5862 21.2662ZM20.4873 21.5466L19.7329 21.2804C19.6858 21.4137 19.6275 21.5342 19.5589 21.6434L20.2362 22.069L20.9136 22.4946C21.0477 22.2812 21.1568 22.0533 21.2417 21.8128L20.4873 21.5466ZM20.2362 22.069L19.5589 21.6434L19.4068 21.8854L20.0842 22.311L20.7616 22.7366L20.9136 22.4946L20.2362 22.069ZM20.0842 22.311L19.4068 21.8854L19.2547 22.1274L19.9321 22.5531L20.6095 22.9787L20.7616 22.7366L20.0842 22.311ZM19.9321 22.5531L19.2547 22.1274C19.1298 22.3264 19.0181 22.541 18.9184 22.7694L19.6515 23.0895L20.3847 23.4095C20.4564 23.2454 20.5318 23.1024 20.6095 22.9787L19.9321 22.5531ZM19.6515 23.0895L18.9184 22.7694L18.7899 23.0638L19.523 23.3838L20.2562 23.7039L20.3847 23.4095L19.6515 23.0895ZM19.523 23.3838L18.7899 23.0638L18.6613 23.3581L19.3945 23.6782L20.1277 23.9983L20.2562 23.7039L19.523 23.3838ZM19.3945 23.6782L18.6613 23.3581C18.6232 23.4455 18.5722 23.5136 18.505 23.5712L19.0257 24.1786L19.5463 24.786C19.7995 24.5689 19.9945 24.3034 20.1277 23.9983L19.3945 23.6782ZM19.0257 24.1786L18.505 23.5712L18.2647 23.7772L18.7854 24.3846L19.306 24.992L19.5463 24.786L19.0257 24.1786ZM18.7854 24.3846L18.2647 23.7772L18.0244 23.9832L18.5451 24.5906L19.0658 25.198L19.306 24.992L18.7854 24.3846ZM18.5451 24.5906L18.0244 23.9832C17.955 24.0427 17.8812 24.0813 17.7952 24.1041L18.0005 24.8774L18.2057 25.6506C18.5255 25.5657 18.8147 25.4132 19.0658 25.198L18.5451 24.5906ZM18.0005 24.8774L17.7952 24.1041L17.4909 24.1849L17.6962 24.9581L17.9014 25.7314L18.2057 25.6506L18.0005 24.8774ZM17.6962 24.9581L17.4909 24.1849L17.1866 24.2657L17.3919 25.0389L17.5971 25.8121L17.9014 25.7314L17.6962 24.9581ZM17.3919 25.0389L17.1866 24.2657C16.9833 24.3196 16.7811 24.3735 16.58 24.4273L16.7866 25.2001L16.9933 25.973C17.1935 25.9195 17.3947 25.8658 17.5971 25.8121L17.3919 25.0389ZM16.7866 25.2001L16.58 24.4273L16.279 24.5078L16.4857 25.2806L16.6924 26.0535L16.9933 25.973L16.7866 25.2001ZM16.4857 25.2806L16.279 24.5078L15.9781 24.5882L16.1848 25.3611L16.3915 26.1339L16.6924 26.0535L16.4857 25.2806ZM16.1848 25.3611L15.9781 24.5882C15.7098 24.66 15.4551 24.7655 15.2161 24.905L15.6193 25.596L16.0224 26.2869C16.1362 26.2205 16.2585 26.1695 16.3915 26.1339L16.1848 25.3611ZM15.6193 25.596L15.2161 24.905L14.9515 25.0594L15.3547 25.7504L15.7579 26.4413L16.0224 26.2869L15.6193 25.596ZM15.3547 25.7504L14.9515 25.0594L14.6869 25.2138L15.0901 25.9047L15.4933 26.5957L15.7579 26.4413L15.3547 25.7504ZM15.0901 25.9047L14.6869 25.2138C14.7056 25.2029 14.7416 25.1889 14.7862 25.1874C14.8276 25.186 14.8453 25.1963 14.831 25.1901L14.5139 25.9246L14.1968 26.6591C14.6088 26.837 15.0713 26.8419 15.4933 26.5957L15.0901 25.9047ZM14.5139 25.9246L14.831 25.1901L14.5194 25.0556L14.2023 25.7901L13.8852 26.5246L14.1968 26.6591L14.5139 25.9246ZM14.2023 25.7901L14.5194 25.0556L14.2078 24.9211L13.8907 25.6556L13.5736 26.39L13.8852 26.5246L14.2023 25.7901ZM13.8907 25.6556L14.2078 24.9211C14.1145 24.8808 14.0515 24.8506 14.0126 24.8299C13.9934 24.8197 13.9862 24.8151 13.9875 24.8159C13.9884 24.8165 13.9937 24.8199 14.002 24.8262C14.01 24.8321 14.0247 24.8435 14.0429 24.8604L13.5001 25.4481L12.9574 26.0358C13.0634 26.1337 13.186 26.2025 13.262 26.2429C13.3533 26.2914 13.4592 26.3407 13.5736 26.39L13.8907 25.6556ZM13.5001 25.4481L14.0429 24.8604L13.9639 24.7874L13.4211 25.3751L12.8783 25.9628L12.9574 26.0358L13.5001 25.4481ZM13.4211 25.3751L13.9639 24.7874L13.8849 24.7144L13.3421 25.3021L12.7993 25.8898L12.8783 25.9628L13.4211 25.3751ZM13.3421 25.3021L13.8849 24.7144C14.0167 24.8362 14.0906 24.9946 14.1114 25.1488C14.1298 25.2852 14.1033 25.3879 14.0891 25.4325C14.0635 25.5127 14.0352 25.5354 14.0763 25.4813L13.4394 24.9972L12.8024 24.5131C12.7261 24.6137 12.6227 24.7645 12.5648 24.9463C12.5064 25.1294 12.4409 25.5588 12.7993 25.8898L13.3421 25.3021ZM13.4394 24.9972L14.0763 25.4813L14.2526 25.2494L13.6156 24.7653L12.9787 24.2812L12.8024 24.5131L13.4394 24.9972ZM13.6156 24.7653L14.2526 25.2494L14.4288 25.0175L13.7919 24.5334L13.155 24.0493L12.9787 24.2812L13.6156 24.7653ZM13.7919 24.5334L14.4288 25.0175C14.5724 24.8285 14.7009 24.6278 14.8144 24.4161L14.1094 24.0381L13.4043 23.6601C13.3295 23.7995 13.2464 23.9291 13.155 24.0493L13.7919 24.5334ZM14.1094 24.0381L14.8144 24.4161L14.9556 24.1527L14.2506 23.7747L13.5455 23.3967L13.4043 23.6601L14.1094 24.0381ZM14.2506 23.7747L14.9556 24.1527L15.0968 23.8893L14.3918 23.5113L13.6867 23.1333L13.5455 23.3967L14.2506 23.7747ZM14.3918 23.5113L15.0968 23.8893C15.143 23.8033 15.2033 23.7281 15.2825 23.6607L14.7642 23.0513L14.2459 22.4419C14.0168 22.6367 13.8289 22.8682 13.6867 23.1333L14.3918 23.5113ZM14.7642 23.0513L15.2825 23.6607L15.5137 23.4641L14.9954 22.8547L14.4771 22.2453L14.2459 22.4419L14.7642 23.0513ZM14.9954 22.8547L15.5137 23.4641L15.7448 23.2675L15.2266 22.6581L14.7083 22.0487L14.4771 22.2453L14.9954 22.8547ZM15.2266 22.6581L15.7448 23.2675C15.9321 23.1082 16.1048 22.9351 16.2625 22.7483L15.6511 22.2323L15.0398 21.7164C14.9396 21.835 14.8293 21.9458 14.7083 22.0487L15.2266 22.6581ZM15.6511 22.2323L16.2625 22.7483L16.4559 22.5192L15.8445 22.0032L15.2331 21.4872L15.0398 21.7164L15.6511 22.2323ZM15.8445 22.0032L16.4559 22.5192L16.6492 22.29L16.0379 21.7741L15.4265 21.2581L15.2331 21.4872L15.8445 22.0032ZM16.0379 21.7741L16.6492 22.29C16.8403 22.0636 16.9873 21.8075 17.0938 21.5291L16.3466 21.2434L15.5993 20.9577C15.552 21.0813 15.4933 21.179 15.4265 21.2581L16.0379 21.7741ZM16.3466 21.2434L17.0938 21.5291L17.2091 21.2276L16.4619 20.9418L15.7147 20.6561L15.5993 20.9577L16.3466 21.2434ZM16.4619 20.9418L17.2091 21.2276L17.3244 20.926L16.5772 20.6403L15.83 20.3545L15.7147 20.6561L16.4619 20.9418ZM16.5772 20.6403L17.3244 20.926C17.3518 20.8543 17.3848 20.8156 17.4218 20.7871L16.9341 20.1529L16.4465 19.5187C16.1613 19.738 15.9563 20.0242 15.83 20.3545L16.5772 20.6403ZM16.9341 20.1529L17.4218 20.7871L17.6634 20.6013L17.1758 19.9671L16.6881 19.3329L16.4465 19.5187L16.9341 20.1529ZM17.1758 19.9671L17.6634 20.6013L17.9051 20.4154L17.4174 19.7813L16.9297 19.1471L16.6881 19.3329L17.1758 19.9671ZM17.4174 19.7813L17.9051 20.4154C18.0813 20.2799 18.2518 20.1388 18.4166 19.9919L17.8843 19.3947L17.3521 18.7974C17.2164 18.9183 17.0756 19.0349 16.9297 19.1471L17.4174 19.7813ZM17.8843 19.3947L18.4166 19.9919L18.6419 19.7911L18.1097 19.1939L17.5774 18.5966L17.3521 18.7974L17.8843 19.3947ZM18.1097 19.1939L18.6419 19.7911L18.8672 19.5903L18.335 18.9931L17.8028 18.3958L17.5774 18.5966L18.1097 19.1939ZM18.335 18.9931L18.8672 19.5903C19.0534 19.4244 19.2233 19.243 19.3767 19.0464L18.7458 18.5544L18.115 18.0624C18.021 18.183 17.917 18.294 17.8028 18.3958L18.335 18.9931ZM18.7458 18.5544L19.3767 19.0464L19.5622 18.8085L18.9313 18.3166L18.3005 17.8246L18.115 18.0624L18.7458 18.5544ZM18.9313 18.3166L19.5622 18.8085L19.7477 18.5707L19.1168 18.0787L18.486 17.5867L18.3005 17.8246L18.9313 18.3166ZM19.1168 18.0787L19.7477 18.5707C19.8218 18.4756 19.9098 18.3916 20.0145 18.318L19.5541 17.6637L19.0938 17.0094C18.8628 17.172 18.6592 17.3646 18.486 17.5867L19.1168 18.0787ZM19.5541 17.6637L20.0145 18.318L20.2663 18.1408L19.8059 17.4865L19.3455 16.8323L19.0938 17.0094L19.5541 17.6637ZM19.8059 17.4865L20.2663 18.1408L20.518 17.9637L20.0577 17.3094L19.5973 16.6551L19.3455 16.8323L19.8059 17.4865ZM20.0577 17.3094L20.518 17.9637C20.6922 17.8411 20.8643 17.7163 21.0343 17.5891L20.5552 16.9484L20.0761 16.3078C19.9185 16.4257 19.7589 16.5415 19.5973 16.6551L20.0577 17.3094ZM20.5552 16.9484L21.0343 17.5891L21.2801 17.4053L20.801 16.7646L20.3219 16.124L20.0761 16.3078L20.5552 16.9484ZM20.801 16.7646L21.2801 17.4053L21.5259 17.2215L21.0468 16.5808L20.5677 15.9401L20.3219 16.124L20.801 16.7646ZM21.0468 16.5808L21.5259 17.2215C21.7513 17.053 21.9487 16.8554 22.1156 16.6297L21.4724 16.154L20.8292 15.6782C20.7564 15.7766 20.6701 15.8636 20.5677 15.9401L21.0468 16.5808ZM21.4724 16.154L22.1156 16.6297L22.2954 16.3866L21.6522 15.9109L21.009 15.4352L20.8292 15.6782L21.4724 16.154ZM21.6522 15.9109L22.2954 16.3866L22.4751 16.1435L21.8319 15.6678L21.1888 15.1921L21.009 15.4352L21.6522 15.9109ZM21.8319 15.6678L22.4751 16.1435C22.5764 16.0066 22.6853 15.8761 22.8019 15.7519L22.2186 15.2044L21.6353 14.6569C21.476 14.8265 21.3271 15.005 21.1888 15.1921L21.8319 15.6678ZM22.2186 15.2044L22.8019 15.7519L23.0088 15.5315L22.4255 14.984L21.8422 14.4365L21.6353 14.6569L22.2186 15.2044ZM22.4255 14.984L23.0088 15.5315L23.2156 15.3111L22.6324 14.7636L22.0491 14.2161L21.8422 14.4365L22.4255 14.984ZM22.6324 14.7636L23.2156 15.3111C23.3638 15.1533 23.5075 14.9913 23.6469 14.8252L23.0341 14.3109L22.4212 13.7967C22.3008 13.9402 22.1768 14.08 22.0491 14.2161L22.6324 14.7636ZM23.0341 14.3109L23.6469 14.8252L23.8418 14.593L23.2289 14.0787L22.6161 13.5645L22.4212 13.7967L23.0341 14.3109ZM23.2289 14.0787L23.8418 14.593L24.0366 14.3607L23.4238 13.8465L22.8109 13.3323L22.6161 13.5645L23.2289 14.0787ZM23.4238 13.8465L24.0366 14.3607C24.2496 14.1069 24.3934 13.8134 24.4753 13.4954L23.7006 13.296L22.9258 13.0965C22.8984 13.203 22.8577 13.2766 22.8109 13.3323L23.4238 13.8465ZM23.7006 13.296L24.4753 13.4954L24.5572 13.177L23.7825 12.9776L23.0077 12.7782L22.9258 13.0965L23.7006 13.296ZM23.7825 12.9776L24.5572 13.177L24.6392 12.8586L23.8644 12.6592L23.0897 12.4598L23.0077 12.7782L23.7825 12.9776ZM23.8644 12.6592L24.6392 12.8586C24.6823 12.6913 24.7361 12.5421 24.799 12.4093L24.0757 12.0673L23.3525 11.7253C23.2429 11.9572 23.1559 12.2027 23.0897 12.4598L23.8644 12.6592ZM24.0757 12.0673L24.799 12.4093L24.9283 12.1357L24.2051 11.7937L23.4819 11.4518L23.3525 11.7253L24.0757 12.0673ZM24.2051 11.7937L24.9283 12.1357L25.0577 11.8621L24.3344 11.5202L23.6112 11.1782L23.4819 11.4518L24.2051 11.7937ZM24.3344 11.5202L25.0577 11.8621C25.0597 11.8579 25.0623 11.8534 25.0697 11.8461C25.078 11.838 25.0978 11.8212 25.1384 11.8004L24.7746 11.0879L24.4109 10.3754C24.0714 10.5487 23.7843 10.8121 23.6112 11.1782L24.3344 11.5202ZM24.7746 11.0879L25.1384 11.8004L25.4492 11.6418L25.0855 10.9292L24.7217 10.2167L24.4109 10.3754L24.7746 11.0879ZM25.0855 10.9292L25.4492 11.6418L25.7601 11.4831L25.3963 10.7705L25.0326 10.058L24.7217 10.2167L25.0855 10.9292ZM25.3963 10.7705L25.7601 11.4831C25.9851 11.3682 26.1984 11.1865 26.3324 10.9189C26.4646 10.6549 26.4831 10.3805 26.4505 10.1407L25.6578 10.2484L24.8651 10.3561C24.8654 10.3587 24.8567 10.2924 24.9018 10.2024C24.9487 10.1089 25.0147 10.0671 25.0326 10.058L25.3963 10.7705ZM25.6578 10.2484L26.4505 10.1407L26.4011 9.77731L25.6084 9.885L24.8157 9.99269L24.8651 10.3561L25.6578 10.2484ZM25.6084 9.885L26.4011 9.77731L26.3518 9.41388L25.5591 9.52157L24.7663 9.62926L24.8157 9.99269L25.6084 9.885ZM25.5591 9.52157L26.3518 9.41388C26.3516 9.41235 26.353 9.42162 26.351 9.43923C26.3489 9.45743 26.3437 9.47958 26.3339 9.50275C26.3128 9.55288 26.2863 9.57155 26.2944 9.56532L25.8087 8.92967L25.3229 8.29401C24.9025 8.61531 24.6935 9.09297 24.7663 9.62926L25.5591 9.52157ZM25.8087 8.92967L26.2944 9.56532L26.5934 9.33685L26.1077 8.70119L25.6219 8.06554L25.3229 8.29401L25.8087 8.92967ZM26.1077 8.70119L26.5934 9.33685L26.8924 9.10837L26.4067 8.47272L25.9209 7.83706L25.6219 8.06554L26.1077 8.70119ZM26.4067 8.47272L26.8924 9.10837C27.0864 8.96013 27.2688 8.75112 27.3624 8.46875C27.4576 8.18206 27.4346 7.89996 27.3547 7.65657L26.5946 7.90613L25.8346 8.1557C25.8286 8.13772 25.8114 8.06274 25.8438 7.96492C25.8749 7.87141 25.9263 7.83299 25.9209 7.83706L26.4067 8.47272ZM26.5946 7.90613L27.3547 7.65657L27.2437 7.31846L26.4836 7.56802L25.7235 7.81759L25.8346 8.1557L26.5946 7.90613ZM26.4836 7.56802L27.2437 7.31846L27.1327 6.98035L26.3726 7.22991L25.6125 7.47948L25.7235 7.81759L26.4836 7.56802ZM26.3726 7.22991L27.1327 6.98035C27.0089 6.60345 26.7817 6.27872 26.4454 6.04663L25.991 6.70505L25.5366 7.36347C25.5611 7.38039 25.5883 7.40557 25.6125 7.47948L26.3726 7.22991ZM25.991 6.70505L26.4454 6.04663L26.1748 5.85987L25.7204 6.5183L25.266 7.17672L25.5366 7.36347L25.991 6.70505ZM25.7204 6.5183L26.1748 5.85987L25.9042 5.67312L25.4498 6.33154L24.9954 6.98997L25.266 7.17672L25.7204 6.5183ZM25.4498 6.33154L25.9042 5.67312C25.6386 5.48988 25.3456 5.36227 25.0293 5.29762L24.8691 6.08141L24.7089 6.86521C24.806 6.88505 24.9001 6.92419 24.9954 6.98997L25.4498 6.33154ZM24.8691 6.08141L25.0293 5.29762L24.7192 5.23424L24.559 6.01804L24.3988 6.80183L24.7089 6.86521L24.8691 6.08141ZM24.559 6.01804L24.7192 5.23424L24.4092 5.17087L24.249 5.95466L24.0888 6.73846L24.3988 6.80183L24.559 6.01804ZM24.249 5.95466L24.4092 5.17087C24.1699 5.12196 23.9309 5.08863 23.6924 5.07141L23.6348 5.86934L23.5772 6.66726C23.7442 6.67932 23.9146 6.70287 24.0888 6.73846L24.249 5.95466ZM23.6348 5.86934L23.6924 5.07141L23.3882 5.04946L23.3307 5.84739L23.2731 6.64531L23.5772 6.66726L23.6348 5.86934ZM23.3307 5.84739L23.3882 5.04946L23.0841 5.02751L23.0265 5.82544L22.9689 6.62336L23.2731 6.64531L23.3307 5.84739ZM23.0265 5.82544L23.0841 5.02751C22.6986 4.99969 22.3366 5.10078 22.019 5.30276L22.4484 5.97779L22.8777 6.65282C22.9255 6.6224 22.949 6.62192 22.9689 6.62336L23.0265 5.82544ZM22.4484 5.97779L22.019 5.30276L21.745 5.47706L22.1743 6.15209L22.6037 6.82712L22.8777 6.65282L22.4484 5.97779ZM22.1743 6.15209L21.745 5.47706L21.4709 5.65136L21.9003 6.32639L22.3296 7.00142L22.6037 6.82712L22.1743 6.15209ZM21.9003 6.32639L21.4709 5.65136C21.2938 5.76401 21.1502 5.8517 21.038 5.91636L21.4374 6.60951L21.8368 7.30265C21.9764 7.22222 22.1413 7.12117 22.3296 7.00142L21.9003 6.32639ZM21.4374 6.60951L21.038 5.91636L20.8491 6.02518L21.2486 6.71832L21.648 7.41147L21.8368 7.30265L21.4374 6.60951ZM21.2486 6.71832L20.8491 6.02518L20.6603 6.134L21.0597 6.82714L21.4592 7.52029L21.648 7.41147L21.2486 6.71832ZM21.0597 6.82714L20.6603 6.134C20.4071 6.27994 20.1985 6.4976 20.0265 6.71938L20.6588 7.20955L21.291 7.69971C21.343 7.63264 21.3854 7.58646 21.4172 7.55606C21.4497 7.5251 21.464 7.51748 21.4592 7.52029L21.0597 6.82714ZM20.6588 7.20955L20.0265 6.71938L19.8144 6.99297L20.4467 7.48313L21.0789 7.9733L21.291 7.69971L20.6588 7.20955ZM20.4467 7.48313L19.8144 6.99297L19.6023 7.26655L20.2346 7.75672L20.8668 8.24689L21.0789 7.9733L20.4467 7.48313ZM20.2346 7.75672L19.6023 7.26655C19.4542 7.45757 19.2814 7.78761 19.3773 8.19294C19.4685 8.5782 19.7498 8.79738 19.9407 8.90866L20.3436 8.21753L20.7465 7.5264C20.7233 7.51286 20.8795 7.59284 20.9343 7.82449C20.9939 8.07622 20.8735 8.23826 20.8668 8.24689L20.2346 7.75672ZM20.3436 8.21753L19.9407 8.90866L20.2619 9.09589L20.6648 8.40475L21.0677 7.71362L20.7465 7.5264L20.3436 8.21753ZM20.6648 8.40475L20.2619 9.09589L20.583 9.28311L20.9859 8.59198L21.3889 7.90085L21.0677 7.71362L20.6648 8.40475ZM20.9859 8.59198L20.583 9.28311C20.6279 9.30927 20.6457 9.3278 20.6499 9.3326C20.6527 9.33575 20.6493 9.33223 20.647 9.32527L21.405 9.06969L22.1631 8.81411C22.0235 8.40007 21.733 8.10145 21.3889 7.90085L20.9859 8.59198ZM21.405 9.06969L20.647 9.32527L20.7449 9.61576L21.503 9.36018L22.261 9.1046L22.1631 8.81411L21.405 9.06969ZM21.503 9.36018L20.7449 9.61576L20.8428 9.90625L21.6009 9.65067L22.359 9.39509L22.261 9.1046L21.503 9.36018ZM21.6009 9.65067L20.8428 9.90625C20.9482 10.2187 21.1213 10.4956 21.3595 10.7255L21.9151 10.1499L22.4707 9.57435C22.4205 9.52591 22.3842 9.46992 22.359 9.39509L21.6009 9.65067ZM21.9151 10.1499L21.3595 10.7255L21.5757 10.9343L22.1314 10.3587L22.687 9.78311L22.4707 9.57435L21.9151 10.1499ZM22.1314 10.3587L21.5757 10.9343L21.792 11.143L22.3476 10.5675L22.9032 9.99187L22.687 9.78311L22.1314 10.3587ZM22.3476 10.5675L21.792 11.143C21.9156 11.2623 22.0319 11.3875 22.1413 11.5186L22.7557 11.0062L23.3701 10.4938C23.2237 10.3183 23.0681 10.151 22.9032 9.99187L22.3476 10.5675ZM22.7557 11.0062L22.1413 11.5186L22.3331 11.7486L22.9475 11.2362L23.5619 10.7238L23.3701 10.4938L22.7557 11.0062ZM22.9475 11.2362L22.3331 11.7486L22.5249 11.9786L23.1393 11.4662L23.7537 10.9538L23.5619 10.7238L22.9475 11.2362ZM23.1393 11.4662L22.5249 11.9786C22.72 12.2125 22.9549 12.4022 23.2225 12.5476L23.6043 11.8445L23.9861 11.1415C23.8894 11.089 23.8143 11.0265 23.7537 10.9538L23.1393 11.4662ZM23.6043 11.8445L23.2225 12.5476L23.4957 12.6959L23.8774 11.9929L24.2592 11.2899L23.9861 11.1415L23.6043 11.8445ZM23.8774 11.9929L23.4957 12.6959L23.7688 12.8442L24.1506 12.1412L24.5324 11.4382L24.2592 11.2899L23.8774 11.9929ZM24.1506 12.1412L23.7688 12.8442C23.7715 12.8457 23.7716 12.8461 23.7702 12.8449C23.7688 12.8437 23.7674 12.8423 23.7666 12.8414C23.7659 12.8405 23.767 12.8416 23.7693 12.8458C23.7717 12.8502 23.7759 12.8587 23.7809 12.8727L24.5355 12.6071L25.2901 12.3416C25.1558 11.9598 24.9038 11.6399 24.5324 11.4382L24.1506 12.1412ZM24.5355 12.6071L23.7809 12.8727L23.8926 13.1903L24.6473 12.9247L25.4019 12.6592L25.2901 12.3416L24.5355 12.6071ZM24.6473 12.9247L23.8926 13.1903L24.0044 13.5078L24.759 13.2423L25.5136 12.9768L25.4019 12.6592L24.6473 12.9247ZM24.759 13.2423L24.0044 13.5078C24.1388 13.8899 24.3915 14.2107 24.7656 14.4111L25.1434 13.706L25.5213 13.0009C25.5193 12.9998 25.5198 12.9999 25.5218 13.0015C25.5239 13.0032 25.5257 13.005 25.5269 13.0064C25.528 13.0078 25.5272 13.0071 25.5249 13.0031C25.5227 12.999 25.5185 12.9907 25.5136 12.9768L24.759 13.2423ZM25.1434 13.706L24.7656 14.4111L25.0383 14.5573L25.4162 13.8522L25.794 13.147L25.5213 13.0009L25.1434 13.706ZM25.4162 13.8522L25.0383 14.5573L25.311 14.7034L25.6889 13.9983L26.0667 13.2932L25.794 13.147L25.4162 13.8522ZM25.6889 13.9983L25.311 14.7034C25.4408 14.773 25.5561 14.8531 25.6588 14.9432L26.1866 14.342L26.7144 13.7408C26.517 13.5676 26.3005 13.4185 26.0667 13.2932L25.6889 13.9983ZM26.1866 14.342L25.6588 14.9432L25.8839 15.1408L26.4116 14.5396L26.9394 13.9384L26.7144 13.7408L26.1866 14.342ZM26.4116 14.5396L25.8839 15.1408L26.1089 15.3383L26.6367 14.7371L27.1645 14.1359L26.9394 13.9384L26.4116 14.5396ZM26.6367 14.7371L26.1089 15.3383C26.2749 15.4841 26.4469 15.6233 26.6247 15.756L27.1032 15.1148L27.5816 14.4737C27.4375 14.3662 27.2985 14.2536 27.1645 14.1359L26.6367 14.7371ZM27.1032 15.1148L26.6247 15.756L26.8661 15.9362L27.3446 15.295L27.823 14.6539L27.5816 14.4737L27.1032 15.1148ZM27.3446 15.295L26.8661 15.9362L27.1076 16.1163L27.586 15.4752L28.0645 14.834L27.823 14.6539L27.3446 15.295ZM27.586 15.4752L27.1076 16.1163C27.14 16.1406 27.1663 16.1611 27.1872 16.1782C27.2083 16.1956 27.2215 16.2074 27.2286 16.2141C27.232 16.2173 27.233 16.2184 27.2321 16.2174C27.2312 16.2165 27.2274 16.2125 27.2216 16.2055C27.2159 16.1986 27.2064 16.1866 27.1949 16.1698C27.1837 16.1533 27.1678 16.1279 27.1514 16.0943L27.8706 15.7439L28.5898 15.3935C28.5093 15.2284 28.3895 15.1096 28.3271 15.0508C28.2487 14.9767 28.158 14.9038 28.0645 14.834L27.586 15.4752ZM27.8706 15.7439L27.1514 16.0943L27.1945 16.1828L27.9137 15.8324L28.6329 15.4821L28.5898 15.3935L27.8706 15.7439ZM27.9137 15.8324L27.1183 15.9181L27.1302 16.0284L27.9256 15.9427L28.721 15.8571L28.7091 15.7468L27.9137 15.8324ZM27.9256 15.9427L27.3911 16.538L27.4655 16.6048L28 16.0095L28.5345 15.4143L28.4601 15.3475L27.9256 15.9427Z" fill="black"/>
</svg>
