<svg width="15" height="31" viewBox="0 0 15 31" fill="none" xmlns="http://www.w3.org/2000/svg">
<path d="M14.9176 1.40954C15.1435 0.905579 14.9181 0.313894 14.4141 0.087979C13.9102 -0.137936 13.3185 0.0874674 13.0926 0.591432L14.0051 1.00049L14.9176 1.40954ZM13.9642 1.09174L13.0517 0.682683L13.0249 0.742446L13.0061 0.805193L13.9642 1.09174ZM13.7619 1.76816L12.8038 1.48162L13.7619 1.76816ZM12.6555 4.0941L11.8633 3.48382L12.6555 4.0941ZM12.1849 4.70503L12.977 5.31531L12.1849 4.70503ZM11.9009 5.39966L12.8932 5.52362L11.9009 5.39966ZM11.8523 5.78882L10.86 5.66487L11.8523 5.78882ZM11.8037 6.17799L10.8114 6.05403L11.8037 6.17799ZM11.4242 6.8298L10.8025 6.04662L11.4242 6.8298ZM10.7626 7.3551L11.3844 8.13829L10.7626 7.3551ZM10.5339 8.07451L9.55804 8.29279L10.5339 8.07451ZM10.7383 8.98801L11.7141 8.76973L10.7383 8.98801ZM10.5623 9.73103L11.2794 10.4279L10.5623 9.73103ZM10.2841 10.0173L9.56691 9.32041L10.2841 10.0173ZM9.6622 10.9714L8.67666 10.802L9.6622 10.9714ZM9.53104 11.7345L10.5166 11.9039L9.53104 11.7345ZM9.11425 12.3696L8.52895 11.5587L9.11425 12.3696ZM8.41186 12.8766L8.99716 13.6874L8.41186 12.8766ZM7.88092 13.4605L8.75933 13.9384L7.88092 13.4605ZM7.52144 14.1213L8.39985 14.5992L7.52144 14.1213ZM7.27967 14.8348L6.29252 14.675L7.27967 14.8348ZM7.1556 15.6011L8.14275 15.7609L7.1556 15.6011ZM6.8677 16.2939L6.05975 15.7047L6.8677 16.2939ZM6.41596 16.9133L5.60801 16.3241L6.41596 16.9133ZM6.27601 17.6725L7.25822 17.4848L6.27601 17.6725ZM6.44784 18.5715L5.46562 18.7592L6.44784 18.5715ZM6.13834 19.2546L5.62954 18.3937L6.13834 19.2546ZM5.74292 19.4883L6.25171 20.3492L5.74292 19.4883ZM5.3475 19.722L5.85629 20.5829L5.3475 19.722ZM4.97257 20.3759L3.97375 20.4246L4.97257 20.3759ZM4.99306 20.796L5.99187 20.7473L4.99306 20.796ZM5.01354 21.2161L4.01473 21.2648L5.01354 21.2161ZM4.7105 21.9022L5.34548 22.6747L4.7105 21.9022ZM4.06345 22.434L3.42847 21.6615L4.06345 22.434ZM3.90718 24.0078L2.91526 24.1347L3.90718 24.0078ZM3.62959 24.7053L3.01234 23.9185L3.62959 24.7053ZM2.96289 25.2283L3.58014 26.0151L2.96289 25.2283ZM2.67393 25.9207L1.67919 26.0232L2.67393 25.9207ZM2.7183 26.3516L1.72357 26.454L2.7183 26.3516ZM2.76268 26.7824L3.75742 26.6799L2.76268 26.7824ZM2.65035 27.554L1.74184 27.1361L2.65035 27.554ZM2.49365 27.8947L1.58514 27.4768L2.49365 27.8947ZM2.33695 28.2354L3.24546 28.6532L2.33695 28.2354ZM1.30848 29.4182L0.613732 28.6989L1.30848 29.4182ZM1.01469 29.7743L0.0155925 29.7318L1.01469 29.7743ZM1.01148 29.8497L0.0123848 29.8072L-5.00679e-06 30.0984L0.146074 30.3507L1.01148 29.8497ZM1.04597 29.9092L1.95848 30.3183L2.16788 29.8512L1.91138 29.4082L1.04597 29.9092ZM0.0925566 29.5914C-0.133359 30.0954 0.092045 30.6871 0.59601 30.913C1.09997 31.1389 1.69166 30.9135 1.91758 30.4095L1.00507 30.0005L0.0925566 29.5914ZM14.0051 1.00049L13.0926 0.591432L13.0517 0.682683L13.9642 1.09174L14.8767 1.5008L14.9176 1.40954L14.0051 1.00049ZM13.9642 1.09174L13.0061 0.805193L12.8038 1.48162L13.7619 1.76816L14.7199 2.05471L14.9222 1.37829L13.9642 1.09174ZM13.7619 1.76816L12.8038 1.48162C12.6737 1.91665 12.5699 2.18883 12.4971 2.33515L13.3924 2.7806L14.2877 3.22605C14.4378 2.92436 14.5803 2.52157 14.7199 2.05471L13.7619 1.76816ZM13.3924 2.7806L12.4971 2.33515L12.3299 2.67116L13.2252 3.11661L14.1205 3.56206L14.2877 3.22605L13.3924 2.7806ZM13.2252 3.11661L12.3299 2.67116L12.1627 3.00718L13.058 3.45263L13.9533 3.89807L14.1205 3.56206L13.2252 3.11661ZM13.058 3.45263L12.1627 3.00718C12.081 3.17145 11.9816 3.33023 11.8633 3.48382L12.6555 4.0941L13.4477 4.70438C13.6431 4.45069 13.8121 4.18182 13.9533 3.89807L13.058 3.45263ZM12.6555 4.0941L11.8633 3.48382L11.628 3.78929L12.4202 4.39957L13.2124 5.00985L13.4477 4.70438L12.6555 4.0941ZM12.4202 4.39957L11.628 3.78929L11.3927 4.09475L12.1849 4.70503L12.977 5.31531L13.2124 5.00985L12.4202 4.39957ZM12.1849 4.70503L11.3927 4.09475C11.125 4.44227 10.9628 4.84238 10.9086 5.2757L11.9009 5.39966L12.8932 5.52362C12.9039 5.43805 12.931 5.37509 12.977 5.31531L12.1849 4.70503ZM11.9009 5.39966L10.9086 5.2757L10.86 5.66487L11.8523 5.78882L12.8446 5.91278L12.8932 5.52362L11.9009 5.39966ZM11.8523 5.78882L10.86 5.66487L10.8114 6.05403L11.8037 6.17799L12.796 6.30194L12.8446 5.91278L11.8523 5.78882ZM11.8037 6.17799L10.8114 6.05403C10.8111 6.05618 10.8113 6.05384 10.8131 6.04846C10.8149 6.04298 10.8174 6.03731 10.8203 6.03242C10.8231 6.02763 10.8246 6.02619 10.823 6.02806C10.8212 6.03009 10.8151 6.03656 10.8025 6.04662L11.4242 6.8298L12.046 7.61298C12.4542 7.28893 12.7285 6.8424 12.796 6.30194L11.8037 6.17799ZM11.4242 6.8298L10.8025 6.04662L10.4716 6.30927L11.0934 7.09245L11.7152 7.87564L12.046 7.61298L11.4242 6.8298ZM11.0934 7.09245L10.4716 6.30927L10.1408 6.57192L10.7626 7.3551L11.3844 8.13829L11.7152 7.87564L11.0934 7.09245ZM10.7626 7.3551L10.1408 6.57192C9.89408 6.7678 9.69236 7.03187 9.587 7.36336C9.48382 7.68797 9.49455 8.00894 9.55804 8.29279L10.5339 8.07451L11.5098 7.85623C11.5052 7.83558 11.52 7.8844 11.493 7.9692C11.4639 8.06089 11.4106 8.11751 11.3844 8.13829L10.7626 7.3551ZM10.5339 8.07451L9.55804 8.29279L9.6602 8.74954L10.6361 8.53126L11.612 8.31298L11.5098 7.85623L10.5339 8.07451ZM10.6361 8.53126L9.6602 8.74954L9.76236 9.20629L10.7383 8.98801L11.7141 8.76973L11.612 8.31298L10.6361 8.53126ZM10.7383 8.98801L9.76236 9.20629C9.77068 9.24345 9.75967 9.22479 9.77226 9.17165C9.77848 9.14541 9.78897 9.11753 9.80382 9.09086C9.81852 9.06445 9.83391 9.04563 9.84507 9.03415L10.5623 9.73103L11.2794 10.4279C11.7435 9.95038 11.8411 9.33742 11.7141 8.76973L10.7383 8.98801ZM10.5623 9.73103L9.84507 9.03415L9.56691 9.32041L10.2841 10.0173L11.0013 10.7142L11.2794 10.4279L10.5623 9.73103ZM10.2841 10.0173L9.56691 9.32041L9.28875 9.60668L10.0059 10.3036L10.7231 11.0004L11.0013 10.7142L10.2841 10.0173ZM10.0059 10.3036L9.28875 9.60668C8.96733 9.93748 8.75567 10.3423 8.67666 10.802L9.6622 10.9714L10.6478 11.1408C10.6562 11.0917 10.6737 11.0513 10.7231 11.0004L10.0059 10.3036ZM9.6622 10.9714L8.67666 10.802L8.61107 11.1835L9.59662 11.3529L10.5822 11.5223L10.6478 11.1408L9.6622 10.9714ZM9.59662 11.3529L8.61107 11.1835L8.54549 11.5651L9.53104 11.7345L10.5166 11.9039L10.5822 11.5223L9.59662 11.3529ZM9.53104 11.7345L8.54549 11.5651C8.54569 11.5639 8.54666 11.5592 8.54934 11.5524C8.55204 11.5455 8.55525 11.5396 8.55801 11.5354C8.56069 11.5313 8.56136 11.5312 8.55776 11.5349C8.55402 11.5387 8.54522 11.547 8.52895 11.5587L9.11425 12.3696L9.69956 13.1804C10.1184 12.878 10.4231 12.4478 10.5166 11.9039L9.53104 11.7345ZM9.11425 12.3696L8.52895 11.5587L8.17775 11.8123L8.76306 12.6231L9.34836 13.4339L9.69956 13.1804L9.11425 12.3696ZM8.76306 12.6231L8.17775 11.8123L7.82655 12.0658L8.41186 12.8766L8.99716 13.6874L9.34836 13.4339L8.76306 12.6231ZM8.41186 12.8766L7.82655 12.0658C7.48942 12.3092 7.20398 12.6123 7.0025 12.9826L7.88092 13.4605L8.75933 13.9384C8.79751 13.8682 8.86603 13.7821 8.99716 13.6874L8.41186 12.8766ZM7.88092 13.4605L7.0025 12.9826L6.82276 13.313L7.70118 13.7909L8.57959 14.2688L8.75933 13.9384L7.88092 13.4605ZM7.70118 13.7909L6.82276 13.313L6.64302 13.6434L7.52144 14.1213L8.39985 14.5992L8.57959 14.2688L7.70118 13.7909ZM7.52144 14.1213L6.64302 13.6434C6.46754 13.9659 6.35132 14.3118 6.29252 14.675L7.27967 14.8348L8.26681 14.9946C8.29072 14.847 8.33568 14.7171 8.39985 14.5992L7.52144 14.1213ZM7.27967 14.8348L6.29252 14.675L6.23049 15.0581L7.21763 15.2179L8.20478 15.3778L8.26681 14.9946L7.27967 14.8348ZM7.21763 15.2179L6.23049 15.0581L6.16846 15.4413L7.1556 15.6011L8.14275 15.7609L8.20478 15.3778L7.21763 15.2179ZM7.1556 15.6011L6.16846 15.4413C6.15191 15.5435 6.11646 15.6269 6.05975 15.7047L6.8677 16.2939L7.67565 16.8832C7.9201 16.548 8.07659 16.1696 8.14275 15.7609L7.1556 15.6011ZM6.8677 16.2939L6.05975 15.7047L5.83388 16.0144L6.64183 16.6036L7.44978 17.1929L7.67565 16.8832L6.8677 16.2939ZM6.64183 16.6036L5.83388 16.0144L5.60801 16.3241L6.41596 16.9133L7.22391 17.5026L7.44978 17.1929L6.64183 16.6036ZM6.41596 16.9133L5.60801 16.3241C5.26291 16.7973 5.19545 17.3458 5.29379 17.8603L6.27601 17.6725L7.25822 17.4848C7.24865 17.4347 7.25439 17.4234 7.25146 17.4393C7.25002 17.4471 7.247 17.4584 7.24144 17.4713C7.23588 17.4843 7.22947 17.495 7.22391 17.5026L6.41596 16.9133ZM6.27601 17.6725L5.29379 17.8603L5.37971 18.3097L6.36192 18.122L7.34414 17.9342L7.25822 17.4848L6.27601 17.6725ZM6.36192 18.122L5.37971 18.3097L5.46562 18.7592L6.44784 18.5715L7.43006 18.3837L7.34414 17.9342L6.36192 18.122ZM6.44784 18.5715L5.46562 18.7592C5.46418 18.7517 5.45171 18.6665 5.50254 18.5543C5.55322 18.4424 5.62478 18.3966 5.62954 18.3937L6.13834 19.2546L6.64713 20.1155C6.91551 19.9569 7.17045 19.7192 7.3243 19.3797C7.47831 19.0397 7.48877 18.6909 7.43006 18.3837L6.44784 18.5715ZM6.13834 19.2546L5.62954 18.3937L5.23412 18.6274L5.74292 19.4883L6.25171 20.3492L6.64713 20.1155L6.13834 19.2546ZM5.74292 19.4883L5.23412 18.6274L4.8387 18.8611L5.3475 19.722L5.85629 20.5829L6.25171 20.3492L5.74292 19.4883ZM5.3475 19.722L4.8387 18.8611C4.59032 19.0079 4.35413 19.2162 4.18856 19.5049C4.02022 19.7984 3.95873 20.1166 3.97375 20.4246L4.97257 20.3759L5.97138 20.3271C5.97274 20.3551 5.96691 20.4242 5.92355 20.4998C5.88296 20.5706 5.84106 20.5919 5.85629 20.5829L5.3475 19.722ZM4.97257 20.3759L3.97375 20.4246L3.99424 20.8447L4.99306 20.796L5.99187 20.7473L5.97138 20.3271L4.97257 20.3759ZM4.99306 20.796L3.99424 20.8447L4.01473 21.2648L5.01354 21.2161L6.01236 21.1674L5.99187 20.7473L4.99306 20.796ZM5.01354 21.2161L4.01473 21.2648C4.01491 21.2686 4.01364 21.2382 4.03329 21.1937C4.05301 21.149 4.07686 21.1286 4.07553 21.1297L4.7105 21.9022L5.34548 22.6747C5.80676 22.2956 6.04134 21.7617 6.01236 21.1674L5.01354 21.2161ZM4.7105 21.9022L4.07553 21.1297L3.752 21.3956L4.38698 22.1681L5.02195 22.9407L5.34548 22.6747L4.7105 21.9022ZM4.38698 22.1681L3.752 21.3956L3.42847 21.6615L4.06345 22.434L4.69842 23.2066L5.02195 22.9407L4.38698 22.1681ZM4.06345 22.434L3.42847 21.6615C2.93151 22.07 2.72555 22.6513 2.80375 23.2628L3.79567 23.1359L4.78759 23.0091C4.78634 22.9993 4.79239 23.0377 4.76905 23.0989C4.74485 23.1624 4.70904 23.1979 4.69842 23.2066L4.06345 22.434ZM3.79567 23.1359L2.80375 23.2628L2.8595 23.6987L3.85142 23.5719L4.84335 23.445L4.78759 23.0091L3.79567 23.1359ZM3.85142 23.5719L2.8595 23.6987L2.91526 24.1347L3.90718 24.0078L4.8991 23.881L4.84335 23.445L3.85142 23.5719ZM3.90718 24.0078L2.91526 24.1347C2.91603 24.1407 2.91015 24.0967 2.93654 24.0304C2.96366 23.9622 3.00276 23.926 3.01234 23.9185L3.62959 24.7053L4.24684 25.4921C4.75852 25.0906 4.9789 24.5049 4.8991 23.881L3.90718 24.0078ZM3.62959 24.7053L3.01234 23.9185L2.67899 24.18L3.29624 24.9668L3.91349 25.7536L4.24684 25.4921L3.62959 24.7053ZM3.29624 24.9668L2.67899 24.18L2.34564 24.4416L2.96289 25.2283L3.58014 26.0151L3.91349 25.7536L3.29624 24.9668ZM2.96289 25.2283L2.34564 24.4416C1.84603 24.8335 1.61538 25.4036 1.67919 26.0232L2.67393 25.9207L3.66866 25.8182C3.6683 25.8148 3.67226 25.8564 3.64683 25.9173C3.62098 25.9793 3.58585 26.0106 3.58014 26.0151L2.96289 25.2283ZM2.67393 25.9207L1.67919 26.0232L1.72357 26.454L2.7183 26.3516L3.71304 26.2491L3.66866 25.8182L2.67393 25.9207ZM2.7183 26.3516L1.72357 26.454L1.76794 26.8849L2.76268 26.7824L3.75742 26.6799L3.71304 26.2491L2.7183 26.3516ZM2.76268 26.7824L1.76794 26.8849C1.78207 27.0221 1.76058 27.0954 1.74184 27.1361L2.65035 27.554L3.55887 27.9718C3.74906 27.5583 3.80246 27.1172 3.75742 26.6799L2.76268 26.7824ZM2.65035 27.554L1.74184 27.1361L1.58514 27.4768L2.49365 27.8947L3.40217 28.3125L3.55887 27.9718L2.65035 27.554ZM2.49365 27.8947L1.58514 27.4768L1.42844 27.8175L2.33695 28.2354L3.24546 28.6532L3.40217 28.3125L2.49365 27.8947ZM2.33695 28.2354L1.42844 27.8175C1.37977 27.9233 1.30623 28.03 1.19491 28.1375L1.88966 28.8568L2.58441 29.576C2.86054 29.3093 3.08519 29.0017 3.24546 28.6532L2.33695 28.2354ZM1.88966 28.8568L1.19491 28.1375L0.904319 28.4182L1.59907 29.1375L2.29383 29.8567L2.58441 29.576L1.88966 28.8568ZM1.59907 29.1375L0.904319 28.4182L0.613732 28.6989L1.30848 29.4182L2.00324 30.1374L2.29383 29.8567L1.59907 29.1375ZM1.30848 29.4182L0.613732 28.6989C0.50662 28.8024 0.402617 28.909 0.318381 29.0111C0.277199 29.061 0.223105 29.1309 0.173824 29.2142C0.142925 29.2663 0.027091 29.4614 0.0155925 29.7318L1.01469 29.7743L2.01379 29.8168C2.00787 29.9558 1.97302 30.0603 1.95253 30.1132C1.93026 30.1708 1.90728 30.212 1.89468 30.2333C1.87042 30.2743 1.85332 30.2934 1.8611 30.2839C1.8748 30.2673 1.91662 30.2211 2.00324 30.1374L1.30848 29.4182ZM1.01469 29.7743L0.0155925 29.7318L0.0123848 29.8072L1.01148 29.8497L2.01058 29.8922L2.01379 29.8168L1.01469 29.7743ZM1.01148 29.8497L0.146074 30.3507L0.180565 30.4103L1.04597 29.9092L1.91138 29.4082L1.87689 29.3486L1.01148 29.8497ZM1.04597 29.9092L0.133462 29.5002L0.0925566 29.5914L1.00507 30.0005L1.91758 30.4095L1.95848 30.3183L1.04597 29.9092Z" fill="black"/>
</svg>
