<svg width="22" height="72" viewBox="0 0 22 72" fill="none" xmlns="http://www.w3.org/2000/svg">
<path d="M21.9607 1.27888C22.1145 0.748433 21.8091 0.193776 21.2786 0.0400219C20.7482 -0.113732 20.1935 0.191641 20.0398 0.722092L21.0002 1.00049L21.9607 1.27888ZM20.9724 1.09653L21.9229 1.40715L21.9282 1.39112L21.9329 1.37493L20.9724 1.09653ZM20.7549 1.76229L21.7054 2.0729L20.7549 1.76229ZM20.5681 2.82742L19.5711 2.90441L20.5681 2.82742ZM20.599 3.22679L19.6019 3.30378L20.599 3.22679ZM20.6298 3.62616L21.6268 3.54917L20.6298 3.62616ZM20.397 4.33955L19.6312 3.69649L20.397 4.33955ZM19.8696 4.96756L20.6354 5.61062L19.8696 4.96756ZM19.5128 5.64502L20.4816 5.89319L19.5128 5.64502ZM19.3266 6.37191L18.3579 6.12373L19.3266 6.37191ZM19.0549 7.07403L18.1704 6.60764L19.0549 7.07403ZM18.6978 7.75139L19.5824 8.21778L18.6978 7.75139ZM18.408 8.44826L19.363 8.74479L18.408 8.44826ZM18.1856 9.16466L19.1406 9.46119L18.1856 9.16466ZM17.9731 9.88395L18.936 10.1539L17.9731 9.88395ZM17.8719 10.245L18.8348 10.515L17.8719 10.245ZM17.7707 10.6061L16.8078 10.3362L17.7707 10.6061ZM17.5716 11.3293L18.5369 11.5903L17.5716 11.3293ZM17.3758 12.0534L16.4104 11.7924L17.3758 12.0534ZM17.3497 12.8267L16.3646 12.9987L17.3497 12.8267ZM17.4932 13.6492L18.4783 13.4773L17.4932 13.6492ZM17.2412 14.357L17.9167 15.0944L17.2412 14.357ZM16.5936 14.9502L17.2691 15.6876L16.5936 14.9502ZM16.4203 15.6808L17.3651 15.3533L16.4203 15.6808ZM16.5708 16.1149L17.5156 15.7873L16.5708 16.1149ZM16.7212 16.5489L15.7764 16.8764L16.7212 16.5489ZM16.6038 17.2958L17.3634 17.9461L16.6038 17.2958ZM16.336 17.6086L15.5764 16.9582L16.336 17.6086ZM16.0682 17.9214L16.8278 18.5717L16.0682 17.9214ZM15.748 19.3903L14.749 19.345L15.748 19.3903ZM15.5836 20.1235L14.6624 19.7343L15.5836 20.1235ZM15.2897 20.8192L16.2108 21.2084L15.2897 20.8192ZM15.0569 21.5326L14.0834 21.3039L15.0569 21.5326ZM14.8852 22.2637L15.8587 22.4923L14.8852 22.2637ZM14.7884 23.0165L15.788 23.0446L14.7884 23.0165ZM14.7666 23.7911L13.767 23.7629L14.7666 23.7911ZM14.4489 24.4798L15.1497 25.1932L14.4489 24.4798ZM13.8352 25.0828L13.1343 24.3695L13.8352 25.0828ZM13.5341 25.7764L14.534 25.7617L13.5341 25.7764ZM13.5399 26.1685L12.54 26.1833L13.5399 26.1685ZM13.5456 26.5606L12.5458 26.5754L13.5456 26.5606ZM13.29 27.2674L12.5209 26.6283L13.29 27.2674ZM13.0285 27.582L13.7976 28.2212L13.0285 27.582ZM12.8888 29.4937L11.9307 29.7801L12.8888 29.4937ZM12.7607 30.2375L13.5381 30.8665L12.7607 30.2375ZM12.5048 30.5537L11.7274 29.9247L12.5048 30.5537ZM12.2489 30.87L11.4715 30.241L12.2489 30.87ZM11.8566 31.5372L10.9246 31.1749L11.8566 31.5372ZM11.7203 31.8881L12.6524 32.2503L11.7203 31.8881ZM11.5839 32.239L12.516 32.6012L11.5839 32.239ZM11.3843 32.962L10.3984 32.7945L11.3843 32.962ZM11.3211 33.3341L10.3352 33.1666L11.3211 33.3341ZM11.2579 33.7062L12.2438 33.8737L11.2579 33.7062ZM11.1909 34.4677L12.1909 34.4773L11.1909 34.4677ZM11.1834 35.2464L10.1835 35.2368L11.1834 35.2464ZM11.0742 35.9956L12.0338 36.2769L11.0742 35.9956ZM10.9687 36.3555L10.0091 36.0742L10.9687 36.3555ZM10.8632 36.7153L11.8229 36.9966L10.8632 36.7153ZM10.701 37.4492L9.71229 37.299L10.701 37.4492ZM10.5874 38.1971L11.576 38.3472L10.5874 38.1971ZM10.2523 39.6617L9.28337 39.4145L10.2523 39.6617ZM9.96911 40.3605L9.09966 39.8665L9.96911 40.3605ZM9.77863 40.6957L10.6481 41.1898L9.77863 40.6957ZM9.58815 41.031L8.7187 40.5369L9.58815 41.031ZM9.15261 41.6856L9.94599 42.2943L9.15261 41.6856ZM8.90754 42.005L8.11416 41.3963L8.90754 42.005ZM8.66248 42.3244L9.45586 42.9331L8.66248 42.3244ZM8.38885 43.0259L9.38607 43.1005L8.38885 43.0259ZM8.36028 43.4081L9.3575 43.4826L8.36028 43.4081ZM8.33171 43.7902L7.33449 43.7157L8.33171 43.7902ZM8.34861 44.576L7.35489 44.688L8.34861 44.576ZM8.43955 45.3833L9.43326 45.2713L8.43955 45.3833ZM8.35699 46.1402L7.41681 45.7995L8.35699 46.1402ZM8.10095 46.8468L9.04113 47.1875L8.10095 46.8468ZM7.65344 47.498L8.33533 48.2295L7.65344 47.498ZM7.33396 47.7958L8.01585 48.5273L7.33396 47.7958ZM7.01448 48.0937L6.33259 47.3622L7.01448 48.0937ZM6.62063 48.7604L5.64035 48.5627L6.62063 48.7604ZM6.47187 49.4981L7.45214 49.6958L6.47187 49.4981ZM6.45071 50.2729L7.44222 50.1429L6.45071 50.2729ZM6.55714 51.0846L5.56563 51.2146L6.55714 51.0846ZM6.32423 51.798L5.59213 51.1168L6.32423 51.798ZM5.75199 52.413L5.01989 51.7318L5.75199 52.413ZM5.37309 53.084L4.40415 52.8367L5.37309 53.084ZM5.18754 53.8111L6.15649 54.0584L5.18754 53.8111ZM5.22482 54.6028L6.18165 54.3121L5.22482 54.6028ZM5.35487 55.0309L4.39804 55.3215L5.35487 55.0309ZM5.48493 55.459L6.44175 55.1684L5.48493 55.459ZM5.45339 56.2308L6.35831 56.6563L5.45339 56.2308ZM5.2918 56.5744L6.19672 56.9999L5.2918 56.5744ZM5.1302 56.9179L6.03513 57.3435L5.1302 56.9179ZM4.70833 57.5765L5.47921 58.2135L4.70833 57.5765ZM4.18777 58.2065L3.41689 57.5695L4.18777 58.2065ZM3.95911 58.9211L4.95599 58.8422L3.95911 58.9211ZM3.99073 59.3207L2.99385 59.3996L3.99073 59.3207ZM3.81597 60.4414L4.61964 61.0364L3.81597 60.4414ZM3.33995 61.0843L2.53627 60.4892L3.33995 61.0843ZM2.94802 61.7515L3.86161 62.1582L2.94802 61.7515ZM2.64017 62.4432L1.72658 62.0365L2.64017 62.4432ZM2.52931 63.5823L1.53078 63.6365L2.52931 63.5823ZM2.36356 64.7056L3.20855 65.2404L2.36356 64.7056ZM1.94596 65.3654L1.10097 64.8306L1.94596 65.3654ZM1.83066 66.1129L0.854822 66.3314L1.83066 66.1129ZM2.01765 66.9479L2.99348 66.7294L2.01765 66.9479ZM2.0657 67.7427L1.07288 67.6232L2.0657 67.7427ZM1.97482 68.4973L2.96765 68.6169L1.97482 68.4973ZM1.78165 69.1805L2.68218 69.6153L1.78165 69.1805ZM1.48618 69.7925L2.38671 70.2273L1.48618 69.7925ZM1.16934 70.0495L0.452909 70.7472L0.637213 70.9364L0.890946 71.01L1.16934 70.0495ZM1.02808 69.9044L1.74452 69.2068L0.545914 67.9759L0.0676174 69.626L1.02808 69.9044ZM0.0397778 69.7221C-0.113976 70.2525 0.191397 70.8072 0.721848 70.961C1.2523 71.1147 1.80696 70.8093 1.96071 70.2789L1.00024 70.0005L0.0397778 69.7221ZM21.0002 1.00049L20.0398 0.722092L20.0119 0.818139L20.9724 1.09653L21.9329 1.37493L21.9607 1.27888L21.0002 1.00049ZM20.9724 1.09653L20.0219 0.785921L19.8043 1.45167L20.7549 1.76229L21.7054 2.0729L21.9229 1.40715L20.9724 1.09653ZM20.7549 1.76229L19.8043 1.45167C19.6444 1.94095 19.5355 2.44378 19.5711 2.90441L20.5681 2.82742L21.5652 2.75043C21.5596 2.67855 21.5752 2.4713 21.7054 2.0729L20.7549 1.76229ZM20.5681 2.82742L19.5711 2.90441L19.6019 3.30378L20.599 3.22679L21.596 3.1498L21.5652 2.75043L20.5681 2.82742ZM20.599 3.22679L19.6019 3.30378L19.6328 3.70316L20.6298 3.62616L21.6268 3.54917L21.596 3.1498L20.599 3.22679ZM20.6298 3.62616L19.6328 3.70316C19.6333 3.70992 19.6328 3.71117 19.6332 3.70805C19.6335 3.70477 19.6345 3.69968 19.6364 3.69392C19.6382 3.6882 19.6401 3.68476 19.6404 3.68417C19.6407 3.68373 19.6384 3.68792 19.6312 3.69649L20.397 4.33955L21.1628 4.98261C21.5025 4.57807 21.6681 4.08327 21.6268 3.54917L20.6298 3.62616ZM20.397 4.33955L19.6312 3.69649L19.3675 4.01049L20.1333 4.65355L20.8991 5.29662L21.1628 4.98261L20.397 4.33955ZM20.1333 4.65355L19.3675 4.01049L19.1038 4.3245L19.8696 4.96756L20.6354 5.61062L20.8991 5.29662L20.1333 4.65355ZM19.8696 4.96756L19.1038 4.3245C18.8407 4.63779 18.6467 4.99629 18.5441 5.39684L19.5128 5.64502L20.4816 5.89319C20.5031 5.80915 20.5469 5.71601 20.6354 5.61062L19.8696 4.96756ZM19.5128 5.64502L18.5441 5.39684L18.451 5.76029L19.4197 6.00846L20.3884 6.25664L20.4816 5.89319L19.5128 5.64502ZM19.4197 6.00846L18.451 5.76029L18.3579 6.12373L19.3266 6.37191L20.2953 6.62009L20.3884 6.25664L19.4197 6.00846ZM19.3266 6.37191L18.3579 6.12373C18.3156 6.28871 18.2537 6.44963 18.1704 6.60764L19.0549 7.07403L19.9395 7.54042C20.0943 7.24687 20.2135 6.93971 20.2953 6.62009L19.3266 6.37191ZM19.0549 7.07403L18.1704 6.60764L17.9918 6.94632L18.8764 7.41271L19.761 7.8791L19.9395 7.54042L19.0549 7.07403ZM18.8764 7.41271L17.9918 6.94632L17.8132 7.285L18.6978 7.75139L19.5824 8.21778L19.761 7.8791L18.8764 7.41271ZM18.6978 7.75139L17.8132 7.285C17.6661 7.56399 17.5457 7.85306 17.453 8.15173L18.408 8.44826L19.363 8.74479C19.4186 8.56587 19.4914 8.39036 19.5824 8.21778L18.6978 7.75139ZM18.408 8.44826L17.453 8.15173L17.3418 8.50993L18.2968 8.80646L19.2518 9.10299L19.363 8.74479L18.408 8.44826ZM18.2968 8.80646L17.3418 8.50993L17.2306 8.86813L18.1856 9.16466L19.1406 9.46119L19.2518 9.10299L18.2968 8.80646ZM18.1856 9.16466L17.2306 8.86813C17.1537 9.11575 17.0802 9.36438 17.0103 9.61401L17.9731 9.88395L18.936 10.1539C19.001 9.92206 19.0692 9.69116 19.1406 9.46119L18.1856 9.16466ZM17.9731 9.88395L17.0103 9.61401L16.909 9.97511L17.8719 10.245L18.8348 10.515L18.936 10.1539L17.9731 9.88395ZM17.8719 10.245L16.909 9.97511L16.8078 10.3362L17.7707 10.6061L18.7336 10.8761L18.8348 10.515L17.8719 10.245ZM17.7707 10.6061L16.8078 10.3362C16.7395 10.5799 16.6723 10.8239 16.6062 11.0683L17.5716 11.3293L18.5369 11.5903C18.6014 11.3519 18.6669 11.1138 18.7336 10.8761L17.7707 10.6061ZM17.5716 11.3293L16.6062 11.0683L16.5083 11.4304L17.4737 11.6914L18.439 11.9523L18.5369 11.5903L17.5716 11.3293ZM17.4737 11.6914L16.5083 11.4304L16.4104 11.7924L17.3758 12.0534L18.3411 12.3144L18.439 11.9523L17.4737 11.6914ZM17.3758 12.0534L16.4104 11.7924C16.3029 12.1902 16.2944 12.5969 16.3646 12.9987L17.3497 12.8267L18.3348 12.6548C18.3092 12.5082 18.3181 12.3994 18.3411 12.3144L17.3758 12.0534ZM17.3497 12.8267L16.3646 12.9987L16.4363 13.4099L17.4214 13.238L18.4065 13.066L18.3348 12.6548L17.3497 12.8267ZM17.4214 13.238L16.4363 13.4099L16.5081 13.8211L17.4932 13.6492L18.4783 13.4773L18.4065 13.066L17.4214 13.238ZM17.4932 13.6492L16.5081 13.8211C16.5057 13.8075 16.5019 13.7585 16.524 13.6964C16.5453 13.6365 16.5737 13.6123 16.5658 13.6196L17.2412 14.357L17.9167 15.0944C18.3684 14.6806 18.5884 14.108 18.4783 13.4773L17.4932 13.6492ZM17.2412 14.357L16.5658 13.6196L16.242 13.9162L16.9174 14.6536L17.5929 15.391L17.9167 15.0944L17.2412 14.357ZM16.9174 14.6536L16.242 13.9162L15.9182 14.2128L16.5936 14.9502L17.2691 15.6876L17.5929 15.391L16.9174 14.6536ZM16.5936 14.9502L15.9182 14.2128C15.6882 14.4234 15.498 14.7024 15.4154 15.0503C15.3337 15.3946 15.377 15.7243 15.4755 16.0083L16.4203 15.6808L17.3651 15.3533C17.3633 15.348 17.3853 15.4112 17.3614 15.512C17.3366 15.6163 17.2832 15.6747 17.2691 15.6876L16.5936 14.9502ZM16.4203 15.6808L15.4755 16.0083L15.6259 16.4424L16.5708 16.1149L17.5156 15.7873L17.3651 15.3533L16.4203 15.6808ZM16.5708 16.1149L15.6259 16.4424L15.7764 16.8764L16.7212 16.5489L17.6661 16.2214L17.5156 15.7873L16.5708 16.1149ZM16.7212 16.5489L15.7764 16.8764C15.7842 16.8992 15.7684 16.8663 15.7792 16.7974C15.7845 16.7641 15.7947 16.7314 15.8086 16.7021C15.8223 16.6734 15.8363 16.6546 15.8442 16.6454L16.6038 17.2958L17.3634 17.9461C17.8035 17.4321 17.8665 16.7997 17.6661 16.2214L16.7212 16.5489ZM16.6038 17.2958L15.8442 16.6454L15.5764 16.9582L16.336 17.6086L17.0956 18.2589L17.3634 17.9461L16.6038 17.2958ZM16.336 17.6086L15.5764 16.9582L15.3086 17.271L16.0682 17.9214L16.8278 18.5717L17.0956 18.2589L16.336 17.6086ZM16.0682 17.9214L15.3086 17.271C14.9955 17.6367 14.8064 18.0791 14.7839 18.5743L15.7829 18.6195L16.7819 18.6648C16.7827 18.6462 16.7838 18.6231 16.8278 18.5717L16.0682 17.9214ZM15.7829 18.6195L14.7839 18.5743L14.7665 18.9597L15.7654 19.0049L16.7644 19.0502L16.7819 18.6648L15.7829 18.6195ZM15.7654 19.0049L14.7665 18.9597L14.749 19.345L15.748 19.3903L16.747 19.4356L16.7644 19.0502L15.7654 19.0049ZM15.748 19.3903L14.749 19.345C14.7426 19.4862 14.7133 19.6139 14.6624 19.7343L15.5836 20.1235L16.5047 20.5127C16.6498 20.1693 16.7301 19.8082 16.747 19.4356L15.748 19.3903ZM15.5836 20.1235L14.6624 19.7343L14.5154 20.0822L15.4366 20.4713L16.3578 20.8605L16.5047 20.5127L15.5836 20.1235ZM15.4366 20.4713L14.5154 20.0822L14.3685 20.43L15.2897 20.8192L16.2108 21.2084L16.3578 20.8605L15.4366 20.4713ZM15.2897 20.8192L14.3685 20.43C14.2487 20.7136 14.1536 21.005 14.0834 21.3039L15.0569 21.5326L16.0304 21.7612C16.0746 21.5727 16.1347 21.3886 16.2108 21.2084L15.2897 20.8192ZM15.0569 21.5326L14.0834 21.3039L13.9975 21.6695L14.971 21.8981L15.9445 22.1268L16.0304 21.7612L15.0569 21.5326ZM14.971 21.8981L13.9975 21.6695L13.9116 22.035L14.8852 22.2637L15.8587 22.4923L15.9445 22.1268L14.971 21.8981ZM14.8852 22.2637L13.9116 22.035C13.8385 22.3466 13.7979 22.6648 13.7888 22.9884L14.7884 23.0165L15.788 23.0446C15.7934 22.8518 15.8174 22.6682 15.8587 22.4923L14.8852 22.2637ZM14.7884 23.0165L13.7888 22.9884L13.7779 23.3757L14.7775 23.4038L15.7771 23.4319L15.788 23.0446L14.7884 23.0165ZM14.7775 23.4038L13.7779 23.3757L13.767 23.7629L14.7666 23.7911L15.7662 23.8192L15.7771 23.4319L14.7775 23.4038ZM14.7666 23.7911L13.767 23.7629C13.767 23.7631 13.767 23.7622 13.7673 23.7604C13.7675 23.7586 13.7679 23.7561 13.7686 23.7533C13.77 23.7473 13.7719 23.7418 13.7737 23.738C13.7754 23.7343 13.7758 23.7345 13.7727 23.7388C13.7695 23.7433 13.762 23.7527 13.748 23.7665L14.4489 24.4798L15.1497 25.1932C15.5165 24.8327 15.7509 24.3653 15.7662 23.8192L14.7666 23.7911ZM14.4489 24.4798L13.748 23.7665L13.4412 24.068L14.142 24.7813L14.8429 25.4946L15.1497 25.1932L14.4489 24.4798ZM14.142 24.7813L13.4412 24.068L13.1343 24.3695L13.8352 25.0828L14.536 25.7961L14.8429 25.4946L14.142 24.7813ZM13.8352 25.0828L13.1343 24.3695C12.7557 24.7415 12.5259 25.2284 12.5342 25.7912L13.5341 25.7764L14.534 25.7617C14.534 25.7629 14.5339 25.7689 14.5321 25.7783C14.5302 25.7877 14.5273 25.7971 14.5238 25.8051C14.5203 25.8131 14.5177 25.8166 14.5184 25.8157C14.5191 25.8146 14.5241 25.8078 14.536 25.7961L13.8352 25.0828ZM13.5341 25.7764L12.5342 25.7912L12.54 26.1833L13.5399 26.1685L14.5398 26.1538L14.534 25.7617L13.5341 25.7764ZM13.5399 26.1685L12.54 26.1833L12.5458 26.5754L13.5456 26.5606L14.5455 26.5459L14.5398 26.1538L13.5399 26.1685ZM13.5456 26.5606L12.5458 26.5754C12.5459 26.584 12.5453 26.5886 12.545 26.5903C12.5447 26.5919 12.5445 26.5926 12.5443 26.5932C12.544 26.5938 12.543 26.5966 12.54 26.6017C12.537 26.6069 12.5312 26.6159 12.5209 26.6283L13.29 27.2674L14.059 27.9065C14.3786 27.522 14.5531 27.0568 14.5455 26.5459L13.5456 26.5606ZM13.29 27.2674L12.5209 26.6283L12.2594 26.9429L13.0285 27.582L13.7976 28.2212L14.059 27.9065L13.29 27.2674ZM13.0285 27.582L12.2594 26.9429L11.9979 27.2575L12.767 27.8967L13.5361 28.5358L13.7976 28.2212L13.0285 27.582ZM12.767 27.8967L11.9979 27.2575C11.5877 27.7511 11.5044 28.3538 11.6751 28.9252L12.6333 28.6388L13.5914 28.3524C13.5856 28.3329 13.5972 28.3602 13.587 28.4169C13.5821 28.4439 13.5735 28.47 13.5625 28.4929C13.5517 28.5155 13.5412 28.5297 13.5361 28.5358L12.767 27.8967ZM12.6333 28.6388L11.6751 28.9252L11.8029 29.3526L12.761 29.0663L13.7192 28.7799L13.5914 28.3524L12.6333 28.6388ZM12.761 29.0663L11.8029 29.3526L11.9307 29.7801L12.8888 29.4937L13.8469 29.2074L13.7192 28.7799L12.761 29.0663ZM12.8888 29.4937L11.9307 29.7801C11.9371 29.8015 11.9259 29.7771 11.9352 29.7236C11.9396 29.6981 11.9475 29.6731 11.9578 29.6508C11.9681 29.6288 11.9781 29.6148 11.9832 29.6085L12.7607 30.2375L13.5381 30.8665C13.9388 30.3712 14.0159 29.7727 13.8469 29.2074L12.8888 29.4937ZM12.7607 30.2375L11.9832 29.6085L11.7274 29.9247L12.5048 30.5537L13.2822 31.1827L13.5381 30.8665L12.7607 30.2375ZM12.5048 30.5537L11.7274 29.9247L11.4715 30.241L12.2489 30.87L13.0263 31.499L13.2822 31.1827L12.5048 30.5537ZM12.2489 30.87L11.4715 30.241C11.2411 30.5258 11.0558 30.8372 10.9246 31.1749L11.8566 31.5372L12.7887 31.8994C12.8393 31.7693 12.9155 31.6359 13.0263 31.499L12.2489 30.87ZM11.8566 31.5372L10.9246 31.1749L10.7882 31.5258L11.7203 31.8881L12.6524 32.2503L12.7887 31.8994L11.8566 31.5372ZM11.7203 31.8881L10.7882 31.5258L10.6518 31.8768L11.5839 32.239L12.516 32.6012L12.6524 32.2503L11.7203 31.8881ZM11.5839 32.239L10.6518 31.8768C10.5364 32.1738 10.4519 32.4801 10.3984 32.7945L11.3843 32.962L12.3702 33.1295C12.4011 32.9478 12.4496 32.7721 12.516 32.6012L11.5839 32.239ZM11.3843 32.962L10.3984 32.7945L10.3352 33.1666L11.3211 33.3341L12.307 33.5016L12.3702 33.1295L11.3843 32.962ZM11.3211 33.3341L10.3352 33.1666L10.272 33.5387L11.2579 33.7062L12.2438 33.8737L12.307 33.5016L11.3211 33.3341ZM11.2579 33.7062L10.272 33.5387C10.2207 33.8406 10.194 34.1473 10.191 34.4581L11.1909 34.4677L12.1909 34.4773C12.1929 34.269 12.2107 34.068 12.2438 33.8737L11.2579 33.7062ZM11.1909 34.4677L10.191 34.4581L10.1872 34.8474L11.1872 34.857L12.1871 34.8666L12.1909 34.4773L11.1909 34.4677ZM11.1872 34.857L10.1872 34.8474L10.1835 35.2368L11.1834 35.2464L12.1834 35.256L12.1871 34.8666L11.1872 34.857ZM11.1834 35.2464L10.1835 35.2368C10.1818 35.4079 10.1581 35.566 10.1146 35.7143L11.0742 35.9956L12.0338 36.2769C12.131 35.9454 12.18 35.604 12.1834 35.256L11.1834 35.2464ZM11.0742 35.9956L10.1146 35.7143L10.0091 36.0742L10.9687 36.3555L11.9283 36.6368L12.0338 36.2769L11.0742 35.9956ZM10.9687 36.3555L10.0091 36.0742L9.90362 36.434L10.8632 36.7153L11.8229 36.9966L11.9283 36.6368L10.9687 36.3555ZM10.8632 36.7153L9.90362 36.434C9.82057 36.7173 9.75683 37.0058 9.71229 37.299L10.701 37.4492L11.6896 37.5993C11.7208 37.3939 11.7653 37.1931 11.8229 36.9966L10.8632 36.7153ZM10.701 37.4492L9.71229 37.299L9.6555 37.673L10.6442 37.8231L11.6328 37.9733L11.6896 37.5993L10.701 37.4492ZM10.6442 37.8231L9.6555 37.673L9.59871 38.047L10.5874 38.1971L11.576 38.3472L11.6328 37.9733L10.6442 37.8231ZM10.5874 38.1971L9.59871 38.047C9.56576 38.2639 9.52246 38.4773 9.46886 38.6874L10.4378 38.9346L11.4068 39.1818C11.4769 38.9072 11.5333 38.6289 11.576 38.3472L10.5874 38.1971ZM10.4378 38.9346L9.46886 38.6874L9.37612 39.051L10.3451 39.2982L11.314 39.5454L11.4068 39.1818L10.4378 38.9346ZM10.3451 39.2982L9.37612 39.051L9.28337 39.4145L10.2523 39.6617L11.2213 39.9089L11.314 39.5454L10.3451 39.2982ZM10.2523 39.6617L9.28337 39.4145C9.24417 39.5682 9.18385 39.7183 9.09966 39.8665L9.96911 40.3605L10.8385 40.8545C11.0083 40.5557 11.1368 40.24 11.2213 39.9089L10.2523 39.6617ZM9.96911 40.3605L9.09966 39.8665L8.90918 40.2017L9.77863 40.6957L10.6481 41.1898L10.8385 40.8545L9.96911 40.3605ZM9.77863 40.6957L8.90918 40.2017L8.7187 40.5369L9.58815 41.031L10.4576 41.525L10.6481 41.1898L9.77863 40.6957ZM9.58815 41.031L8.7187 40.5369C8.61538 40.7188 8.49587 40.8988 8.35922 41.0769L9.15261 41.6856L9.94599 42.2943C10.1361 42.0465 10.3069 41.7901 10.4576 41.525L9.58815 41.031ZM9.15261 41.6856L8.35922 41.0769L8.11416 41.3963L8.90754 42.005L9.70093 42.6137L9.94599 42.2943L9.15261 41.6856ZM8.90754 42.005L8.11416 41.3963L7.8691 41.7157L8.66248 42.3244L9.45586 42.9331L9.70093 42.6137L8.90754 42.005ZM8.66248 42.3244L7.8691 41.7157C7.59354 42.0748 7.42594 42.4924 7.39163 42.9514L8.38885 43.0259L9.38607 43.1005C9.38985 43.0499 9.40467 42.9998 9.45586 42.9331L8.66248 42.3244ZM8.38885 43.0259L7.39163 42.9514L7.36306 43.3335L8.36028 43.4081L9.3575 43.4826L9.38607 43.1005L8.38885 43.0259ZM8.36028 43.4081L7.36306 43.3335L7.33449 43.7157L8.33171 43.7902L9.32893 43.8648L9.3575 43.4826L8.36028 43.4081ZM8.33171 43.7902L7.33449 43.7157C7.31053 44.0362 7.31802 44.3606 7.35489 44.688L8.34861 44.576L9.34232 44.4641C9.31857 44.2532 9.31479 44.0538 9.32893 43.8648L8.33171 43.7902ZM8.34861 44.576L7.35489 44.688L7.40036 45.0916L8.39408 44.9796L9.38779 44.8677L9.34232 44.4641L8.34861 44.576ZM8.39408 44.9796L7.40036 45.0916L7.44583 45.4952L8.43955 45.3833L9.43326 45.2713L9.38779 44.8677L8.39408 44.9796ZM8.43955 45.3833L7.44583 45.4952C7.46033 45.6239 7.44556 45.7202 7.41681 45.7995L8.35699 46.1402L9.29718 46.4809C9.43913 46.0891 9.47939 45.6808 9.43326 45.2713L8.43955 45.3833ZM8.35699 46.1402L7.41681 45.7995L7.28878 46.1529L8.22897 46.4935L9.16915 46.8342L9.29718 46.4809L8.35699 46.1402ZM8.22897 46.4935L7.28878 46.1529L7.16076 46.5062L8.10095 46.8468L9.04113 47.1875L9.16915 46.8342L8.22897 46.4935ZM8.10095 46.8468L7.16076 46.5062C7.13748 46.5704 7.08753 46.6584 6.97155 46.7665L7.65344 47.498L8.33533 48.2295C8.64533 47.9405 8.89371 47.5944 9.04113 47.1875L8.10095 46.8468ZM7.65344 47.498L6.97155 46.7665L6.65207 47.0644L7.33396 47.7958L8.01585 48.5273L8.33533 48.2295L7.65344 47.498ZM7.33396 47.7958L6.65207 47.0644L6.33259 47.3622L7.01448 48.0937L7.69637 48.8251L8.01585 48.5273L7.33396 47.7958ZM7.01448 48.0937L6.33259 47.3622C5.99221 47.6795 5.73758 48.0805 5.64035 48.5627L6.62063 48.7604L7.6009 48.958C7.60284 48.9484 7.61078 48.9049 7.69637 48.8251L7.01448 48.0937ZM6.62063 48.7604L5.64035 48.5627L5.56598 48.9316L6.54625 49.1293L7.52652 49.3269L7.6009 48.958L6.62063 48.7604ZM6.54625 49.1293L5.56598 48.9316L5.4916 49.3005L6.47187 49.4981L7.45214 49.6958L7.52652 49.3269L6.54625 49.1293ZM6.47187 49.4981L5.4916 49.3005C5.41844 49.6633 5.41067 50.0328 5.4592 50.4029L6.45071 50.2729L7.44222 50.1429C7.4198 49.9718 7.42613 49.8248 7.45214 49.6958L6.47187 49.4981ZM6.45071 50.2729L5.4592 50.4029L5.51241 50.8087L6.50392 50.6787L7.49544 50.5487L7.44222 50.1429L6.45071 50.2729ZM6.50392 50.6787L5.51241 50.8087L5.56563 51.2146L6.55714 51.0846L7.54865 50.9546L7.49544 50.5487L6.50392 50.6787ZM6.55714 51.0846L5.56563 51.2146C5.56589 51.2166 5.56496 51.2108 5.56596 51.1987C5.56698 51.1864 5.56973 51.1714 5.5749 51.1555C5.58626 51.1207 5.60049 51.1078 5.59213 51.1168L6.32423 51.798L7.05633 52.4791C7.444 52.0625 7.62404 51.5295 7.54865 50.9546L6.55714 51.0846ZM6.32423 51.798L5.59213 51.1168L5.30601 51.4243L6.03811 52.1055L6.77021 52.7866L7.05633 52.4791L6.32423 51.798ZM6.03811 52.1055L5.30601 51.4243L5.01989 51.7318L5.75199 52.413L6.48409 53.0942L6.77021 52.7866L6.03811 52.1055ZM5.75199 52.413L5.01989 51.7318C4.72898 52.0444 4.51214 52.4135 4.40415 52.8367L5.37309 53.084L6.34204 53.3313C6.35775 53.2697 6.3935 53.1915 6.48409 53.0942L5.75199 52.413ZM5.37309 53.084L4.40415 52.8367L4.31137 53.2003L5.28032 53.4475L6.24926 53.6948L6.34204 53.3313L5.37309 53.084ZM5.28032 53.4475L4.31137 53.2003L4.2186 53.5638L5.18754 53.8111L6.15649 54.0584L6.24926 53.6948L5.28032 53.4475ZM5.18754 53.8111L4.2186 53.5638C4.10354 54.0147 4.13848 54.4671 4.26799 54.8934L5.22482 54.6028L6.18165 54.3121C6.13775 54.1676 6.14785 54.0922 6.15649 54.0584L5.18754 53.8111ZM5.22482 54.6028L4.26799 54.8934L4.39804 55.3215L5.35487 55.0309L6.3117 54.7402L6.18165 54.3121L5.22482 54.6028ZM5.35487 55.0309L4.39804 55.3215L4.5281 55.7497L5.48493 55.459L6.44175 55.1684L6.3117 54.7402L5.35487 55.0309ZM5.48493 55.459L4.5281 55.7497C4.54392 55.8018 4.54292 55.8249 4.5429 55.8252C4.54289 55.8255 4.54302 55.8225 4.54426 55.8174C4.54552 55.8123 4.54718 55.8079 4.54847 55.8052L5.45339 56.2308L6.35831 56.6563C6.58979 56.1641 6.58682 55.6459 6.44175 55.1684L5.48493 55.459ZM5.45339 56.2308L4.54847 55.8052L4.38687 56.1488L5.2918 56.5744L6.19672 56.9999L6.35831 56.6563L5.45339 56.2308ZM5.2918 56.5744L4.38687 56.1488L4.22528 56.4924L5.1302 56.9179L6.03513 57.3435L6.19672 56.9999L5.2918 56.5744ZM5.1302 56.9179L4.22528 56.4924C4.1558 56.6401 4.06165 56.7893 3.93746 56.9396L4.70833 57.5765L5.47921 58.2135C5.70205 57.9438 5.88915 57.6539 6.03513 57.3435L5.1302 56.9179ZM4.70833 57.5765L3.93746 56.9396L3.67717 57.2545L4.44805 57.8915L5.21893 58.5285L5.47921 58.2135L4.70833 57.5765ZM4.44805 57.8915L3.67717 57.2545L3.41689 57.5695L4.18777 58.2065L4.95864 58.8435L5.21893 58.5285L4.44805 57.8915ZM4.18777 58.2065L3.41689 57.5695C3.0815 57.9754 2.92022 58.4691 2.96223 59L3.95911 58.9211L4.95599 58.8422C4.9554 58.8348 4.95589 58.8328 4.95562 58.8352C4.95535 58.8378 4.95456 58.8422 4.95289 58.8474C4.95123 58.8526 4.94962 58.8557 4.94941 58.8561C4.94928 58.8563 4.95161 58.852 4.95864 58.8435L4.18777 58.2065ZM3.95911 58.9211L2.96223 59L2.99385 59.3996L3.99073 59.3207L4.98762 59.2418L4.95599 58.8422L3.95911 58.9211ZM3.99073 59.3207L2.99385 59.3996L3.02547 59.7992L4.02235 59.7203L5.01924 59.6414L4.98762 59.2418L3.99073 59.3207ZM4.02235 59.7203L3.02547 59.7992C3.02642 59.8112 3.02602 59.8183 3.02572 59.8215C3.02556 59.8232 3.02539 59.8241 3.02531 59.8246C3.02523 59.825 3.02518 59.8252 3.02518 59.8252C3.02518 59.8252 3.02514 59.8253 3.025 59.8257C3.02485 59.8261 3.0245 59.8269 3.02381 59.8283C3.02249 59.8309 3.01921 59.837 3.01229 59.8463L3.81597 60.4414L4.61964 61.0364C4.92229 60.6277 5.05931 60.1479 5.01924 59.6414L4.02235 59.7203ZM3.81597 60.4414L3.01229 59.8463L2.77428 60.1677L3.57796 60.7628L4.38163 61.3579L4.61964 61.0364L3.81597 60.4414ZM3.57796 60.7628L2.77428 60.1677L2.53627 60.4892L3.33995 61.0843L4.14362 61.6793L4.38163 61.3579L3.57796 60.7628ZM3.33995 61.0843L2.53627 60.4892C2.33664 60.7588 2.16832 61.0441 2.03442 61.3449L2.94802 61.7515L3.86161 62.1582C3.93294 61.9979 4.0259 61.8383 4.14362 61.6793L3.33995 61.0843ZM2.94802 61.7515L2.03442 61.3449L1.8805 61.6907L2.79409 62.0973L3.70769 62.504L3.86161 62.1582L2.94802 61.7515ZM2.79409 62.0973L1.8805 61.6907L1.72658 62.0365L2.64017 62.4432L3.55377 62.8498L3.70769 62.504L2.79409 62.0973ZM2.64017 62.4432L1.72658 62.0365C1.55635 62.419 1.48675 62.8253 1.50925 63.2398L2.50778 63.1857L3.50631 63.1315C3.50011 63.0171 3.51877 62.9284 3.55377 62.8498L2.64017 62.4432ZM2.50778 63.1857L1.50925 63.2398L1.53078 63.6365L2.52931 63.5823L3.52784 63.5281L3.50631 63.1315L2.50778 63.1857ZM2.52931 63.5823L1.53078 63.6365L1.5523 64.0332L2.55083 63.979L3.54936 63.9248L3.52784 63.5281L2.52931 63.5823ZM2.55083 63.979L1.5523 64.0332C1.5556 64.094 1.54457 64.1297 1.51857 64.1708L2.36356 64.7056L3.20855 65.2404C3.46095 64.8416 3.57477 64.3929 3.54936 63.9248L2.55083 63.979ZM2.36356 64.7056L1.51857 64.1708L1.30977 64.5007L2.15476 65.0355L2.99975 65.5703L3.20855 65.2404L2.36356 64.7056ZM2.15476 65.0355L1.30977 64.5007L1.10097 64.8306L1.94596 65.3654L2.79095 65.9002L2.99975 65.5703L2.15476 65.0355ZM1.94596 65.3654L1.10097 64.8306C0.80583 65.297 0.740707 65.8218 0.854822 66.3314L1.83066 66.1129L2.80649 65.8944C2.80265 65.8772 2.80192 65.8675 2.80178 65.8643C2.80164 65.8614 2.80199 65.8636 2.80104 65.8697C2.80008 65.876 2.79826 65.8831 2.79565 65.89C2.79307 65.8968 2.79087 65.9003 2.79095 65.9002L1.94596 65.3654ZM1.83066 66.1129L0.854822 66.3314L0.948316 66.7489L1.92415 66.5304L2.89999 66.3119L2.80649 65.8944L1.83066 66.1129ZM1.92415 66.5304L0.948316 66.7489L1.04181 67.1665L2.01765 66.9479L2.99348 66.7294L2.89999 66.3119L1.92415 66.5304ZM2.01765 66.9479L1.04181 67.1665C1.0824 67.3477 1.08798 67.4978 1.07288 67.6232L2.0657 67.7427L3.05853 67.8623C3.10401 67.4847 3.07755 67.1049 2.99348 66.7294L2.01765 66.9479ZM2.0657 67.7427L1.07288 67.6232L1.02744 68.0004L2.02026 68.12L3.01309 68.2396L3.05853 67.8623L2.0657 67.7427ZM2.02026 68.12L1.02744 68.0004L0.981996 68.3777L1.97482 68.4973L2.96765 68.6169L3.01309 68.2396L2.02026 68.12ZM1.97482 68.4973L0.981996 68.3777C0.963339 68.5326 0.926365 68.652 0.88111 68.7458L1.78165 69.1805L2.68218 69.6153C2.83391 69.3011 2.92572 68.965 2.96765 68.6169L1.97482 68.4973ZM1.78165 69.1805L0.88111 68.7458L0.733375 69.0517L1.63391 69.4865L2.53445 69.9213L2.68218 69.6153L1.78165 69.1805ZM1.63391 69.4865L0.733375 69.0517L0.58564 69.3577L1.48618 69.7925L2.38671 70.2273L2.53445 69.9213L1.63391 69.4865ZM1.48618 69.7925L0.58564 69.3577C0.54684 69.4381 0.54428 69.4263 0.582941 69.3794C0.600908 69.3576 0.670996 69.2744 0.798927 69.2003C0.939986 69.1186 1.20871 69.0198 1.53229 69.1135L1.25389 70.074L0.975495 71.0345C1.32726 71.1364 1.6268 71.032 1.8013 70.9309C1.96268 70.8375 2.06885 70.7211 2.12553 70.6524C2.24162 70.5117 2.32702 70.3509 2.38671 70.2273L1.48618 69.7925ZM1.25389 70.074L1.53229 69.1135L1.44774 69.089L1.16934 70.0495L0.890946 71.01L0.975495 71.0345L1.25389 70.074ZM1.16934 70.0495L1.88578 69.3518L1.74452 69.2068L1.02808 69.9044L0.311651 70.6021L0.452909 70.7472L1.16934 70.0495ZM1.02808 69.9044L0.0676174 69.626L0.0397778 69.7221L1.00024 70.0005L1.96071 70.2789L1.98855 70.1828L1.02808 69.9044Z" fill="black"/>
</svg>
