<svg width="72" height="68" viewBox="0 0 72 68" fill="none" xmlns="http://www.w3.org/2000/svg">
<path fill-rule="evenodd" clip-rule="evenodd" d="M16.0434 0.0289799C21.7226 -0.238055 27.4836 1.30868 32.8208 5.98796C34.2724 7.2607 35.2967 8.71691 36.0073 9.96843C36.0403 9.92908 36.0734 9.88875 36.1069 9.84929C37.1132 8.66294 38.4856 7.24731 39.9604 6.30437C45.7026 2.63323 51.0716 2.65007 54.6147 2.65007C57.1056 2.65017 60.4716 3.3822 63.5464 5.01238C66.6356 6.65028 69.6004 9.29021 70.9614 13.2028C72.7615 18.3782 71.9982 23.284 70.3715 27.6188C68.7661 31.8969 66.2363 35.8104 64.395 38.9264C60.4485 45.6052 53.4857 52.2047 49.5327 55.819C45.5035 59.503 42.0623 62.1274 40.184 63.5817C39.104 64.4382 38.3402 65.021 37.809 65.4284C37.2326 65.8705 37.0309 66.0329 36.9428 66.1198C36.9293 66.1331 36.9137 66.1451 36.8999 66.1579C36.8726 66.1831 36.845 66.2083 36.8159 66.2321C36.788 66.255 36.7588 66.2756 36.7299 66.2966C36.7108 66.3104 36.6931 66.3263 36.6733 66.3395C35.6077 67.0499 34.6695 67.3949 33.809 67.5134C33.0173 67.6222 32.275 67.5115 32.145 67.5026L32.0005 67.4919L31.8589 67.4596C30.8452 67.2257 29.8628 66.5421 29.1128 65.9372C28.1892 65.1922 25.6727 62.9481 22.8061 60.3024C22.2329 59.7734 18.8413 56.8373 16.7231 54.6149C16.4884 54.5827 16.2675 54.5513 16.063 54.5261C15.6192 54.4713 14.6836 54.3922 13.8178 54.1745C12.9707 53.9614 11.7755 53.5258 10.9829 52.4694C10.803 52.2296 10.565 51.891 10.3823 51.4958C10.1985 51.0983 10.0178 50.5311 10.0903 49.8669L10.1372 49.5485C10.1622 49.4178 10.1985 49.2665 10.2534 49.11C10.363 48.7981 10.602 48.303 11.1274 47.9372L11.1538 47.9196C10.9263 47.3101 10.8906 46.7121 10.9839 46.1589C10.9976 46.0776 11.0141 45.9991 11.0317 45.9245C10.6908 45.5653 10.2646 45.0951 9.76705 44.4831C8.51322 42.9409 6.83846 40.5434 4.89205 36.8005C2.92843 33.0243 1.17615 28.3928 0.409632 23.6794C-0.354347 18.9809 -0.163805 14.0342 1.96334 9.77996C4.84085 4.02536 10.0497 0.310861 16.0434 0.0289799ZM50.268 50.1344C47.2451 51.3931 43.8414 52.617 40.9096 53.1667C37.612 53.7849 33.189 54.313 29.4702 54.6774C27.6044 54.8602 25.8995 55.0034 24.5815 55.0964C23.809 55.1508 23.1108 55.1891 22.5854 55.2067C23.8014 56.3154 24.8767 57.2564 25.2768 57.6257C28.1598 60.2864 30.587 62.4465 31.3999 63.1022C32.0015 63.5875 32.4052 63.8109 32.6001 63.8854C32.9603 63.9164 33.0563 63.9403 33.313 63.905C33.5331 63.8746 33.9254 63.7733 34.5493 63.3737C34.8261 63.1261 35.1872 62.8492 35.5932 62.5378C36.1296 62.1264 36.8756 61.5572 37.938 60.7145L37.9458 60.7077L37.9546 60.7018C39.8371 59.2442 43.1688 56.7028 47.0747 53.1315C48.0189 52.2682 49.1069 51.2561 50.268 50.1344ZM30.4194 8.72722C25.8483 4.7195 21.031 3.44018 16.2143 3.66668C11.7123 3.87843 7.59188 6.66784 5.22116 11.4089C3.5581 14.735 3.31057 18.8276 4.00436 23.0944C4.69572 27.346 6.29696 31.6073 8.1235 35.1198C9.96719 38.6653 11.5096 40.8523 12.5932 42.1852C13.046 42.7421 13.4255 43.1569 13.7231 43.4684C13.9724 43.4363 14.2094 43.4196 14.3794 43.4196C14.6026 43.4196 14.8213 43.4392 15.0297 43.4655C15.0229 43.0012 15.1341 42.4797 15.4858 41.9499L15.6079 41.7829C16.2397 40.9904 17.1894 40.8504 17.5962 40.8112C17.9415 40.778 18.2974 40.7859 18.6274 40.8102C18.6567 40.5769 18.7058 40.3438 18.7778 40.1178C18.9415 39.6039 19.3301 38.8087 20.2055 38.3952L20.3774 38.3219C21.2387 37.9924 22.0977 38.2158 22.5512 38.36C23.1329 38.5451 23.7501 38.8424 24.3188 39.1384C25.5747 39.792 26.6951 40.4767 27.9682 41.0612C28.9735 41.5227 30.6537 41.8201 32.5737 42.0016C34.4751 42.1814 36.2332 42.2229 37.5298 42.3063C38.5975 42.375 41.1213 42.3425 43.8169 42.1315C46.5621 41.9166 49.1785 41.5371 50.5678 41.0124C50.8156 40.9188 51.0481 40.8296 51.2651 40.7448C51.0545 40.58 50.7957 40.3082 50.6528 39.8884C50.4277 39.2267 50.6121 38.6919 50.8276 38.3434C50.8771 38.2399 50.9313 38.1413 50.9878 38.0485C50.8715 38.0624 50.7163 38.0759 50.5444 38.0671C50.3953 38.0594 49.9764 38.0273 49.5532 37.7477C48.9758 37.3662 48.6944 36.7347 48.7143 36.1247C48.716 36.0729 48.7196 36.0226 48.7251 35.9743C48.4861 36.029 48.2426 36.0724 48.0092 36.0876C47.7073 36.1072 47.0457 36.116 46.4311 35.696C45.7079 35.2016 45.4965 34.4512 45.5014 33.8552C45.0959 33.9866 44.6303 34.1292 44.1352 34.2702C42.9469 34.6085 41.4273 34.9976 39.7778 35.3493C36.5463 36.0383 32.5713 36.6412 29.6333 36.318C25.8593 35.9028 21.3991 34.2339 17.7758 32.6081C14.1258 30.9702 11.1102 29.2768 10.1626 28.6696C9.31575 28.127 9.06923 27.0008 9.61178 26.154C10.1544 25.3071 11.2806 25.0606 12.1274 25.6032C12.8902 26.0919 15.7404 27.7023 19.2671 29.2848C22.8209 30.8795 26.8503 32.3479 30.0317 32.6979C32.3417 32.952 35.8187 32.469 39.018 31.7868C40.5838 31.4529 42.0243 31.0844 43.1381 30.7673C43.6952 30.6087 44.1632 30.4651 44.519 30.3473C44.6971 30.2884 44.841 30.2375 44.9497 30.1969C45.0618 30.1551 45.1087 30.1339 45.1118 30.1325C45.6095 29.8931 46.1329 29.7912 46.6401 29.8112L46.8569 29.8268L47.1108 29.8669C47.6137 29.9696 48.0841 30.2109 48.4565 30.5612L48.6342 30.7458L48.7729 30.9157C49.0379 31.2669 49.1891 31.6332 49.271 31.9802C49.6113 31.8595 49.9821 31.7322 50.2973 31.6452C50.4871 31.5928 50.7345 31.5315 51.0024 31.4987C51.3852 31.1833 51.6665 30.897 52.6333 30.0436C52.8165 29.8819 52.9316 29.7612 53.227 29.4645C53.5133 29.177 53.9005 28.796 54.5542 28.1999C55.2973 27.5227 56.4488 27.5753 57.1264 28.318C57.8039 29.0611 57.7511 30.2136 57.0083 30.8913C56.4028 31.4434 56.0579 31.7829 55.8081 32.0339C55.5675 32.2755 55.3397 32.5125 55.0434 32.7741C54.6111 33.1557 54.2694 33.4704 53.9663 33.7448C54.1019 33.7452 54.2407 33.754 54.3794 33.7741C54.709 33.822 55.1391 33.9469 55.5376 34.2624C55.9045 34.553 56.1431 34.9249 56.2768 35.3102L56.3276 35.4762L56.3686 35.6501C56.5413 36.5118 56.254 37.2497 55.9858 37.7233C55.7919 38.0657 55.5477 38.3727 55.3217 38.6305C55.7678 39.0776 56.1691 39.7378 56.143 40.6755C56.1205 41.4806 55.7445 42.0976 55.3667 42.5094C55.0012 42.9077 54.5611 43.2 54.1821 43.4137C53.4355 43.8348 52.5114 44.1717 51.8549 44.4196C49.9249 45.1485 46.8305 45.5497 44.101 45.7634C41.3222 45.9809 38.6064 46.0254 37.2954 45.9411C36.2134 45.8715 34.1808 45.812 32.2309 45.6276C30.2999 45.445 28.0673 45.1147 26.4487 44.3718C25.1497 43.7754 23.7076 42.9366 22.7485 42.4303C22.9462 43.2268 22.5861 44.084 21.8266 44.4811C21.7695 44.511 21.7114 44.537 21.6528 44.5602C21.4672 44.6597 21.2622 44.7311 21.0415 44.7614C20.8154 44.7924 20.6205 44.7778 20.5503 44.7721C20.4516 44.7642 20.3567 44.7512 20.2807 44.7399C20.1297 44.7175 19.953 44.685 19.7944 44.6559C19.6269 44.6252 19.4547 44.594 19.2807 44.5641C19.3107 44.6714 19.3377 44.7859 19.3559 44.9069L19.3794 45.113L19.3852 45.3971C19.3757 45.7063 19.3099 46.0844 19.101 46.4606C18.7904 47.0196 18.2984 47.3361 17.8335 47.4772C17.4314 47.5992 17.0612 47.5893 16.8256 47.569C16.9478 47.6552 17.1692 47.8333 17.3462 48.1344C17.5759 48.5255 17.6907 49.0659 17.5073 49.6257C17.3512 50.1015 17.0482 50.3765 16.8999 50.4928C16.6191 50.713 16.3415 50.7922 16.2983 50.8053C16.2026 50.8344 16.1231 50.8505 16.0815 50.8581C16.0778 50.8587 16.0735 50.8584 16.0698 50.8591C16.213 50.8754 16.3592 50.8933 16.5092 50.9118C16.8491 50.9538 17.1975 51.0019 17.5532 51.0514C17.7404 51.0481 17.9275 51.0729 18.1079 51.1266C19.3646 51.3043 20.6994 51.4951 22.0561 51.5778C22.0561 51.5778 22.1098 51.5794 22.2456 51.5768C22.3711 51.5745 22.536 51.5686 22.7397 51.5593C23.1469 51.5406 23.6839 51.5087 24.3247 51.4636C25.6052 51.3733 27.277 51.2335 29.1147 51.0534C32.8036 50.6919 37.1005 50.1749 40.2387 49.5866C43.5133 48.9727 47.6689 47.3474 51.1264 45.7995C52.8354 45.0344 54.3392 44.3045 55.4301 43.7565C56.2598 43.3398 56.8185 43.0425 57.0522 42.9177C58.6335 41.0172 60.0974 39.0401 61.2592 37.0739C63.2079 33.7762 65.4998 30.2341 66.9614 26.3395C68.4018 22.5011 68.9518 18.5128 67.521 14.3991C66.5494 11.6065 64.3873 9.58059 61.8403 8.23015C59.2788 6.87209 56.4971 6.29275 54.6147 6.29265C51.1408 6.29265 46.7119 6.31065 41.9223 9.37273C40.9017 10.0253 39.8072 11.1188 38.8852 12.2057C38.4359 12.7355 38.0493 13.2368 37.7592 13.6384C37.6144 13.8389 37.4972 14.011 37.4096 14.1442C37.3661 14.2105 37.331 14.2646 37.3061 14.3053C37.2858 14.3386 37.2756 14.3572 37.2729 14.362C37.2662 14.3746 37.2574 14.3867 37.2505 14.3991C37.2289 14.4376 37.2064 14.4755 37.1821 14.5124C37.1733 14.5257 37.1638 14.5384 37.1548 14.5514C37.1302 14.5867 37.1047 14.6214 37.0776 14.655C37.0651 14.6705 37.0525 14.6858 37.0395 14.7009C37.0132 14.7313 36.9859 14.7609 36.9575 14.7897C36.9445 14.8029 36.9308 14.8151 36.9174 14.8278C36.8871 14.8567 36.8562 14.8849 36.8237 14.9118C36.8087 14.9242 36.7932 14.936 36.7778 14.9479C36.7492 14.9701 36.7201 14.9918 36.6899 15.0124C36.6653 15.0292 36.64 15.0447 36.6147 15.0602C36.5889 15.076 36.5634 15.0925 36.5366 15.1071C36.5129 15.12 36.4885 15.1314 36.4643 15.1432C36.4396 15.1553 36.4156 15.1693 36.3901 15.1803C36.3828 15.1835 36.3749 15.1851 36.3676 15.1882C36.3535 15.1941 36.339 15.1992 36.3247 15.2048C36.2831 15.221 36.2417 15.2367 36.1997 15.2497C36.1923 15.252 36.1846 15.2534 36.1772 15.2555C36.0129 15.3041 35.8464 15.3292 35.6811 15.3307C35.5956 15.3317 35.51 15.3245 35.4243 15.3132C35.3923 15.3089 35.3602 15.3064 35.3286 15.3005C35.2341 15.2828 35.1408 15.2557 35.0483 15.2223C35.0287 15.2153 35.0091 15.2086 34.9897 15.2009C34.963 15.1902 34.937 15.1777 34.9106 15.1657C34.8814 15.1524 34.8522 15.1395 34.8237 15.1247C34.8196 15.1225 34.8151 15.121 34.811 15.1188C34.7923 15.1089 34.7745 15.0971 34.7563 15.0866C34.7257 15.069 34.6951 15.0513 34.6655 15.0319C34.6431 15.0173 34.6216 15.0015 34.6001 14.986C34.5745 14.9677 34.5485 14.95 34.5239 14.9303C34.4993 14.9106 34.476 14.8896 34.4526 14.8688C34.4315 14.85 34.4104 14.8311 34.3901 14.8112C34.3643 14.786 34.34 14.7596 34.3159 14.7331C34.2995 14.715 34.2828 14.6972 34.2671 14.6784C34.2446 14.6516 34.2243 14.6233 34.2036 14.5954C34.1913 14.5788 34.1783 14.5627 34.1665 14.5456C34.1413 14.5092 34.1175 14.4722 34.0952 14.4343C34.087 14.4203 34.0786 14.4065 34.0708 14.3923C34.0498 14.3543 34.0313 14.3153 34.0131 14.2761C34.007 14.2629 33.9994 14.2504 33.9936 14.237C33.5467 13.2099 32.6574 10.6895 30.4194 8.72722ZM30.1245 26.9948C30.728 26.1905 31.8698 26.0272 32.6743 26.6305C34.2893 27.8418 36.6782 27.6925 38.2202 26.7848C39.0867 26.275 40.2031 26.5641 40.7133 27.4303C41.2235 28.297 40.9343 29.4132 40.0678 29.9235C37.5636 31.3976 33.5386 31.832 30.4887 29.5446C29.6841 28.9411 29.521 27.7994 30.1245 26.9948ZM46.7885 20.8151C47.5817 20.1967 48.7267 20.3384 49.3452 21.1315C49.9634 21.9246 49.8218 23.0698 49.0288 23.6882C47.4416 24.9258 45.7247 25.5484 43.9741 25.4977C42.2375 25.4474 40.6631 24.7403 39.3305 23.6735C38.5455 23.0449 38.4188 21.8981 39.0473 21.113C39.676 20.328 40.8228 20.2012 41.6079 20.8298C42.4666 21.5171 43.3005 21.8336 44.0796 21.8561C44.8446 21.8782 45.752 21.6234 46.7885 20.8151ZM18.4975 20.5348C19.1262 19.7501 20.2731 19.6231 21.0581 20.2516C21.9168 20.9391 22.7507 21.2554 23.5297 21.278C24.2948 21.3001 25.2022 21.0452 26.2387 20.237C27.0319 19.6188 28.177 19.7603 28.7954 20.5534C29.4137 21.3464 29.2718 22.4915 28.479 23.11C26.8918 24.3476 25.1749 24.9702 23.4243 24.9196C21.6876 24.8693 20.1133 24.1623 18.7807 23.0954C17.9957 22.4667 17.869 21.3199 18.4975 20.5348Z" fill="black"/>
</svg>
