<svg width="31" height="31" viewBox="0 0 31 31" fill="none" xmlns="http://www.w3.org/2000/svg">
<path d="M22.5981 12.5841L23.3013 12.8448L22.5981 12.5841ZM22.3797 13.3081L21.6492 13.1382L22.3797 13.3081ZM22.2111 14.0335L22.9416 14.2034L22.2111 14.0335ZM21.9813 14.7629L22.6785 15.0393L21.9813 14.7629ZM21.8358 15.1296L21.1386 14.8531L21.8358 15.1296ZM21.6904 15.4964L22.3876 15.7729L21.6904 15.4964ZM21.2597 16.1392L21.7812 16.6782L21.2597 16.1392ZM20.9744 16.4152L21.4959 16.9542L20.9744 16.4152ZM20.6891 16.6913L20.1676 16.1523L20.6891 16.6913ZM19.9997 17.0224L19.8985 16.2792L19.9997 17.0224ZM19.5956 17.0774L19.6969 17.8206L19.5956 17.0774ZM19.1915 17.1325L19.2928 17.8756L19.1915 17.1325ZM18.447 17.3534L18.1185 16.6791L18.447 17.3534ZM18.1066 17.5192L18.4351 18.1935L18.1066 17.5192ZM17.7662 17.685L17.4378 17.0108L17.7662 17.685ZM17.0354 17.9676L16.8206 17.249L17.0354 17.9676ZM16.6451 18.0843L16.8599 18.8028L16.6451 18.0843ZM16.2547 18.201L16.0398 17.4824L16.2547 18.201ZM15.4949 18.1523L15.8014 17.4678L15.4949 18.1523ZM14.7561 17.8214L15.0626 17.1369L14.7561 17.8214ZM12.8207 16.5469L13.1581 15.8771L12.8207 16.5469ZM12.4753 16.3729L12.1378 17.0427L12.4753 16.3729ZM12.1299 16.1989L11.7924 16.8687L12.1299 16.1989ZM11.6099 15.6813L10.9413 16.0211L11.6099 15.6813ZM11.2607 14.9942L11.9293 14.6544L11.2607 14.9942ZM10.2267 13.7526L10.7686 13.2341L10.2267 13.7526ZM9.88362 10.6402L9.14358 10.7621L9.88362 10.6402ZM10.0451 9.90616L9.42321 9.48696L10.0451 9.90616ZM10.499 9.23283L11.1209 9.65202L10.499 9.23283ZM10.8939 8.55443L10.2207 8.22363L10.8939 8.55443ZM12.3864 6.93782L12.0014 6.29419L12.3864 6.93782ZM13.5651 6.01974L13.0796 5.44803L13.5651 6.01974ZM14.1939 5.61597L13.8734 4.9379L14.1939 5.61597ZM14.8856 5.28904L15.2061 5.96711L14.8856 5.28904ZM16.3955 4.75803L16.1697 4.04284L16.3955 4.75803ZM17.1434 4.84819L16.7618 5.49385L17.1434 4.84819ZM17.5032 5.06087L17.8848 4.41521L17.5032 5.06087ZM17.863 5.27354L18.2446 4.62789L17.863 5.27354ZM20.2413 5.73509L20.6991 5.14099L20.2413 5.73509ZM20.8894 6.23444L21.3472 5.64034L20.8894 6.23444ZM21.3861 6.8553L20.7061 7.1716L21.3861 6.8553ZM21.5587 7.22649L22.2388 6.9102L21.5587 7.22649ZM22.4666 8.97864L21.8114 9.34364L22.4666 8.97864ZM22.7613 9.69061L22.0401 9.8965L22.7613 9.69061ZM22.9756 10.4414L23.6968 10.2355L22.9756 10.4414ZM23.0621 10.9875L22.3175 10.8974L23.0621 10.9875ZM23.0414 11.1584L23.7859 11.2485L23.0414 11.1584ZM23.0207 11.3292L23.7652 11.4194L23.0207 11.3292ZM22.866 11.8614L22.1628 11.6006L22.866 11.8614ZM22.732 12.2227L22.0288 11.962L21.8948 12.3234L22.5981 12.5841L23.3013 12.8448L23.4353 12.4835L22.732 12.2227ZM22.5981 12.5841L21.8948 12.3234C21.7949 12.5929 21.7129 12.8646 21.6492 13.1382L22.3797 13.3081L23.1103 13.478C23.1591 13.2681 23.2226 13.0571 23.3013 12.8448L22.5981 12.5841ZM22.3797 13.3081L21.6492 13.1382L21.5649 13.5009L22.2954 13.6708L23.0259 13.8407L23.1103 13.478L22.3797 13.3081ZM22.2954 13.6708L21.5649 13.5009L21.4806 13.8636L22.2111 14.0335L22.9416 14.2034L23.0259 13.8407L22.2954 13.6708ZM22.2111 14.0335L21.4806 13.8636C21.4333 14.0669 21.3681 14.2745 21.2841 14.4864L21.9813 14.7629L22.6785 15.0393C22.7883 14.7622 22.8764 14.4835 22.9416 14.2034L22.2111 14.0335ZM21.9813 14.7629L21.2841 14.4864L21.1386 14.8531L21.8358 15.1296L22.533 15.4061L22.6785 15.0393L21.9813 14.7629ZM21.8358 15.1296L21.1386 14.8531L20.9932 15.2199L21.6904 15.4964L22.3876 15.7729L22.533 15.4061L21.8358 15.1296ZM21.6904 15.4964L20.9932 15.2199C20.9357 15.3648 20.8523 15.4897 20.7381 15.6002L21.2597 16.1392L21.7812 16.6782C22.0474 16.4206 22.2511 16.117 22.3876 15.7729L21.6904 15.4964ZM21.2597 16.1392L20.7381 15.6002L20.4529 15.8763L20.9744 16.4152L21.4959 16.9542L21.7812 16.6782L21.2597 16.1392ZM20.9744 16.4152L20.4529 15.8763L20.1676 16.1523L20.6891 16.6913L21.2107 17.2302L21.4959 16.9542L20.9744 16.4152ZM20.6891 16.6913L20.1676 16.1523C20.0955 16.222 20.0143 16.2635 19.8985 16.2792L19.9997 17.0224L20.101 17.7655C20.524 17.7079 20.9024 17.5286 21.2107 17.2302L20.6891 16.6913ZM19.9997 17.0224L19.8985 16.2792L19.4944 16.3343L19.5956 17.0774L19.6969 17.8206L20.101 17.7655L19.9997 17.0224ZM19.5956 17.0774L19.4944 16.3343L19.0903 16.3894L19.1915 17.1325L19.2928 17.8756L19.6969 17.8206L19.5956 17.0774ZM19.1915 17.1325L19.0903 16.3894C18.748 16.436 18.4224 16.5311 18.1185 16.6791L18.447 17.3534L18.7755 18.0276C18.9255 17.9546 19.0962 17.9024 19.2928 17.8756L19.1915 17.1325ZM18.447 17.3534L18.1185 16.6791L17.7782 16.8449L18.1066 17.5192L18.4351 18.1935L18.7755 18.0276L18.447 17.3534ZM18.1066 17.5192L17.7782 16.8449L17.4378 17.0108L17.7662 17.685L18.0947 18.3593L18.4351 18.1935L18.1066 17.5192ZM17.7662 17.685L17.4378 17.0108C17.2501 17.1022 17.0448 17.182 16.8206 17.249L17.0354 17.9676L17.2503 18.6861C17.5466 18.5975 17.8285 18.4889 18.0947 18.3593L17.7662 17.685ZM17.0354 17.9676L16.8206 17.249L16.4302 17.3657L16.6451 18.0843L16.8599 18.8028L17.2503 18.6861L17.0354 17.9676ZM16.6451 18.0843L16.4302 17.3657L16.0398 17.4824L16.2547 18.201L16.4695 18.9196L16.8599 18.8028L16.6451 18.0843ZM16.2547 18.201L16.0398 17.4824C15.9506 17.5091 15.8824 17.504 15.8014 17.4678L15.4949 18.1523L15.1883 18.8368C15.5999 19.0211 16.0383 19.0485 16.4695 18.9196L16.2547 18.201ZM15.4949 18.1523L15.8014 17.4678L15.432 17.3023L15.1255 17.9868L14.8189 18.6713L15.1883 18.8368L15.4949 18.1523ZM15.1255 17.9868L15.432 17.3023L15.0626 17.1369L14.7561 17.8214L14.4495 18.5059L14.8189 18.6713L15.1255 17.9868ZM14.7561 17.8214L15.0626 17.1369C14.8666 17.0491 14.6924 16.9454 14.5376 16.8268L14.0815 17.4222L13.6254 18.0176C13.8774 18.2107 14.1529 18.3731 14.4495 18.5059L14.7561 17.8214ZM14.0815 17.4222L14.5376 16.8268L14.2324 16.5931L13.7764 17.1885L13.3203 17.7838L13.6254 18.0176L14.0815 17.4222ZM13.7764 17.1885L14.2324 16.5931L13.9273 16.3593L13.4712 16.9547L13.0151 17.5501L13.3203 17.7838L13.7764 17.1885ZM13.4712 16.9547L13.9273 16.3593C13.6865 16.1749 13.4299 16.0141 13.1581 15.8771L12.8207 16.5469L12.4832 17.2167C12.672 17.3118 12.8491 17.4229 13.0151 17.5501L13.4712 16.9547ZM12.8207 16.5469L13.1581 15.8771L12.8127 15.7031L12.4753 16.3729L12.1378 17.0427L12.4832 17.2167L12.8207 16.5469ZM12.4753 16.3729L12.8127 15.7031L12.4673 15.5291L12.1299 16.1989L11.7924 16.8687L12.1378 17.0427L12.4753 16.3729ZM12.1299 16.1989L12.4673 15.5291C12.3792 15.4847 12.3222 15.4275 12.2785 15.3415L11.6099 15.6813L10.9413 16.0211C11.1303 16.3931 11.42 16.681 11.7924 16.8687L12.1299 16.1989ZM11.6099 15.6813L12.2785 15.3415L12.1039 14.9979L11.4353 15.3377L10.7667 15.6775L10.9413 16.0211L11.6099 15.6813ZM11.4353 15.3377L12.1039 14.9979L11.9293 14.6544L11.2607 14.9942L10.5921 15.334L10.7667 15.6775L11.4353 15.3377ZM11.2607 14.9942L11.9293 14.6544C11.7772 14.3551 11.5794 14.0814 11.3415 13.8327L10.7996 14.3513L10.2578 14.8698C10.4018 15.0203 10.5113 15.1751 10.5921 15.334L11.2607 14.9942ZM10.7996 14.3513L11.3415 13.8327L11.055 13.5334L10.5132 14.052L9.97131 14.5705L10.2578 14.8698L10.7996 14.3513ZM10.5132 14.052L11.055 13.5334L10.7686 13.2341L10.2267 13.7526L9.68485 14.2712L9.97131 14.5705L10.5132 14.052ZM10.2267 13.7526L10.7686 13.2341C10.7381 13.2023 10.7297 13.1825 10.7269 13.1746C10.7243 13.1672 10.7192 13.1498 10.7224 13.1125L9.97516 13.0481L9.22792 12.9837C9.18575 13.4732 9.348 13.9192 9.68485 14.2712L10.2267 13.7526ZM9.97516 13.0481L10.7224 13.1125L10.7573 12.7072L10.0101 12.6429L9.26284 12.5785L9.22792 12.9837L9.97516 13.0481ZM10.0101 12.6429L10.7573 12.7072L10.7922 12.302L10.045 12.2376L9.29775 12.1733L9.26284 12.5785L10.0101 12.6429ZM10.045 12.2376L10.7922 12.302C10.8208 11.9704 10.8084 11.6403 10.7545 11.3132L10.0145 11.435L9.27443 11.5569C9.30782 11.7597 9.31573 11.9646 9.29775 12.1733L10.045 12.2376ZM10.0145 11.435L10.7545 11.3132L10.6891 10.9158L9.94905 11.0376L9.20901 11.1595L9.27443 11.5569L10.0145 11.435ZM9.94905 11.0376L10.6891 10.9158L10.6237 10.5184L9.88362 10.6402L9.14358 10.7621L9.20901 11.1595L9.94905 11.0376ZM9.88362 10.6402L10.6237 10.5184C10.6114 10.444 10.6217 10.3926 10.667 10.3254L10.0451 9.90616L9.42321 9.48696C9.16594 9.86865 9.0686 10.3066 9.14358 10.7621L9.88362 10.6402ZM10.0451 9.90616L10.667 10.3254L10.894 9.98869L10.2721 9.56949L9.65014 9.15029L9.42321 9.48696L10.0451 9.90616ZM10.2721 9.56949L10.894 9.98869L11.1209 9.65202L10.499 9.23283L9.87707 8.81363L9.65014 9.15029L10.2721 9.56949ZM10.499 9.23283L11.1209 9.65202C11.29 9.40116 11.439 9.14559 11.567 8.88524L10.8939 8.55443L10.2207 8.22363C10.1248 8.41892 10.0105 8.6156 9.87707 8.81363L10.499 9.23283ZM10.8939 8.55443L11.567 8.88524L11.7349 8.54351L11.0618 8.21271L10.3887 7.88191L10.2207 8.22363L10.8939 8.55443ZM11.0618 8.21271L11.7349 8.54351L11.9028 8.20179L11.2297 7.87098L10.5566 7.54018L10.3887 7.88191L11.0618 8.21271ZM11.2297 7.87098L11.9028 8.20179C11.9504 8.10505 12.0156 8.03357 12.1123 7.97575L11.7273 7.33211L11.3423 6.68848C10.9995 6.89352 10.733 7.18129 10.5566 7.54018L11.2297 7.87098ZM11.7273 7.33211L12.1123 7.97575L12.4419 7.77861L12.0568 7.13497L11.6718 6.49133L11.3423 6.68848L11.7273 7.33211ZM12.0568 7.13497L12.4419 7.77861L12.7714 7.58146L12.3864 6.93782L12.0014 6.29419L11.6718 6.49133L12.0568 7.13497ZM12.3864 6.93782L12.7714 7.58146C13.0253 7.42959 13.2633 7.25988 13.4845 7.07208L12.999 6.50037L12.5136 5.92866C12.3574 6.06127 12.187 6.1832 12.0014 6.29419L12.3864 6.93782ZM12.999 6.50037L13.4845 7.07208L13.7675 6.83177L13.2821 6.26005L12.7966 5.68834L12.5136 5.92866L12.999 6.50037ZM13.2821 6.26005L13.7675 6.83177L14.0505 6.59145L13.5651 6.01974L13.0796 5.44803L12.7966 5.68834L13.2821 6.26005ZM13.5651 6.01974L14.0505 6.59145C14.1876 6.47504 14.3415 6.37579 14.5144 6.29404L14.1939 5.61597L13.8734 4.9379C13.5853 5.0741 13.3199 5.24403 13.0796 5.44803L13.5651 6.01974ZM14.1939 5.61597L14.5144 6.29404L14.8603 6.13057L14.5397 5.45251L14.2192 4.77444L13.8734 4.9379L14.1939 5.61597ZM14.5397 5.45251L14.8603 6.13057L15.2061 5.96711L14.8856 5.28904L14.5651 4.61098L14.2192 4.77444L14.5397 5.45251ZM14.8856 5.28904L15.2061 5.96711C15.4041 5.87353 15.6169 5.79037 15.8452 5.71827L15.6194 5.00307L15.3936 4.28787C15.1046 4.37912 14.8282 4.48661 14.5651 4.61098L14.8856 5.28904ZM15.6194 5.00307L15.8452 5.71827L16.2333 5.59575L16.0075 4.88055L15.7816 4.16535L15.3936 4.28787L15.6194 5.00307ZM16.0075 4.88055L16.2333 5.59575L16.6213 5.47323L16.3955 4.75803L16.1697 4.04284L15.7816 4.16535L16.0075 4.88055ZM16.3955 4.75803L16.6213 5.47323C16.6706 5.45766 16.6996 5.45711 16.7618 5.49385L17.1434 4.84819L17.525 4.20254C17.1074 3.95571 16.6377 3.89505 16.1697 4.04284L16.3955 4.75803ZM17.1434 4.84819L16.7618 5.49385L17.1216 5.70653L17.5032 5.06087L17.8848 4.41521L17.525 4.20254L17.1434 4.84819ZM17.5032 5.06087L17.1216 5.70653L17.4814 5.9192L17.863 5.27354L18.2446 4.62789L17.8848 4.41521L17.5032 5.06087ZM17.863 5.27354L17.4814 5.9192C17.8386 6.13032 18.232 6.23622 18.6468 6.23602L18.6465 5.48602L18.6461 4.73602C18.4962 4.73609 18.3672 4.70034 18.2446 4.62789L17.863 5.27354ZM18.6465 5.48602L18.6468 6.23602L19.0704 6.23582L19.0701 5.48582L19.0697 4.73582L18.6461 4.73602L18.6465 5.48602ZM19.0701 5.48582L19.0704 6.23582L19.4941 6.23561L19.4937 5.48561L19.4933 4.73561L19.0697 4.73582L19.0701 5.48582ZM19.4937 5.48561L19.4941 6.23561C19.6171 6.23555 19.7038 6.2677 19.7836 6.32919L20.2413 5.73509L20.6991 5.14099C20.3469 4.86957 19.9351 4.7354 19.4933 4.73561L19.4937 5.48561ZM20.2413 5.73509L19.7836 6.32919L20.1076 6.57886L20.5654 5.98476L21.0231 5.39066L20.6991 5.14099L20.2413 5.73509ZM20.5654 5.98476L20.1076 6.57886L20.4317 6.82854L20.8894 6.23444L21.3472 5.64034L21.0231 5.39066L20.5654 5.98476ZM20.8894 6.23444L20.4317 6.82854C20.5523 6.9215 20.6417 7.03315 20.7061 7.1716L21.3861 6.8553L22.0661 6.53901C21.9003 6.18255 21.6586 5.88028 21.3472 5.64034L20.8894 6.23444ZM21.3861 6.8553L20.7061 7.1716L20.8787 7.54278L21.5587 7.22649L22.2388 6.9102L22.0661 6.53901L21.3861 6.8553ZM21.5587 7.22649L20.8787 7.54278L21.0513 7.91397L21.7314 7.59768L22.4114 7.28138L22.2388 6.9102L21.5587 7.22649ZM21.7314 7.59768L21.0513 7.91397C21.1737 8.17694 21.3019 8.42918 21.4364 8.67046L22.0915 8.30545L22.7467 7.94045C22.6311 7.73294 22.5193 7.51332 22.4114 7.28138L21.7314 7.59768ZM22.0915 8.30545L21.4364 8.67046L21.6239 9.00705L22.2791 8.64205L22.9342 8.27704L22.7467 7.94045L22.0915 8.30545ZM22.2791 8.64205L21.6239 9.00705L21.8114 9.34364L22.4666 8.97864L23.1218 8.61363L22.9342 8.27704L22.2791 8.64205ZM22.4666 8.97864L21.8114 9.34364C21.908 9.51705 21.9842 9.70091 22.0401 9.8965L22.7613 9.69061L23.4824 9.48471C23.3954 9.1798 23.2752 8.88902 23.1218 8.61363L22.4666 8.97864ZM22.7613 9.69061L22.0401 9.8965L22.1472 10.2719L22.8684 10.066L23.5896 9.86009L23.4824 9.48471L22.7613 9.69061ZM22.8684 10.066L22.1472 10.2719L22.2544 10.6472L22.9756 10.4414L23.6968 10.2355L23.5896 9.86009L22.8684 10.066ZM22.9756 10.4414L22.2544 10.6472C22.2849 10.7541 22.3018 10.8311 22.31 10.8829C22.314 10.9082 22.3151 10.9224 22.3154 10.9274C22.3157 10.9333 22.3146 10.9216 22.3175 10.8974L23.0621 10.9875L23.8066 11.0777C23.8402 10.8008 23.7695 10.4903 23.6968 10.2355L22.9756 10.4414ZM23.0621 10.9875L22.3175 10.8974L22.2968 11.0682L23.0414 11.1584L23.7859 11.2485L23.8066 11.0777L23.0621 10.9875ZM23.0414 11.1584L22.2968 11.0682L22.2761 11.239L23.0207 11.3292L23.7652 11.4194L23.7859 11.2485L23.0414 11.1584ZM23.0207 11.3292L22.2761 11.239C22.2761 11.2389 22.2719 11.2682 22.2515 11.3383C22.2323 11.4045 22.2034 11.4911 22.1628 11.6006L22.866 11.8614L23.5692 12.1221C23.6602 11.8768 23.74 11.6279 23.7652 11.4194L23.0207 11.3292ZM22.866 11.8614L22.1628 11.6006L22.0288 11.962L22.732 12.2227L23.4353 12.4835L23.5692 12.1221L22.866 11.8614Z" fill="#6F6F6F"/>
<path d="M18.8357 19.6415L18.0934 19.5347L18.8357 19.6415ZM18.6848 20.4003L17.9579 20.2154L18.6848 20.4003ZM18.5886 20.7786L19.3155 20.9634L18.5886 20.7786ZM18.4924 21.1568L19.2193 21.3417L18.4924 21.1568ZM18.2037 21.8847L18.8607 22.2465L18.2037 21.8847ZM18.0112 22.2343L17.3542 21.8726L18.0112 22.2343ZM17.8187 22.5839L18.4757 22.9457L17.8187 22.5839ZM17.2293 23.0642L16.9947 22.3519L17.2293 23.0642ZM16.8323 23.195L17.0669 23.9073L16.8323 23.195ZM16.4354 23.3257L16.67 24.0381L16.4354 23.3257ZM15.4856 24.0025L16.0126 24.5361L15.4856 24.0025ZM15.2092 24.2755L14.6821 23.7419L15.2092 24.2755ZM13.7966 24.7338L13.6759 23.9935L13.7966 24.7338ZM13.0376 24.8379L12.9545 24.0925L13.0376 24.8379ZM12.277 24.9227L12.194 24.1773L12.277 24.9227ZM11.5289 24.8598L11.3225 25.5808L11.5289 24.8598ZM10.793 24.6491L10.9994 23.9281L10.793 24.6491ZM10.0901 24.3698L10.4359 23.7042L10.0901 24.3698ZM9.75511 24.1957L9.40928 24.8612L9.75511 24.1957ZM9.4201 24.0216L9.76593 23.3561L9.4201 24.0216ZM8.72123 23.679L8.40603 24.3595L8.72123 23.679ZM8.35738 23.5105L8.67258 22.8299L8.35738 23.5105ZM7.99352 23.3419L7.67832 24.0225H7.67832L7.99352 23.3419ZM7.52406 22.775L8.24902 22.5829L7.52406 22.775ZM7.31286 21.9783L6.5879 22.1705L7.31286 21.9783ZM6.88128 21.301L7.36887 20.7312L6.88128 21.301ZM6.22931 20.7432L5.74172 21.3131L6.22931 20.7432ZM5.98385 20.0545L5.24792 19.9099L5.98385 20.0545ZM6.06437 19.6446L5.32844 19.5L6.06437 19.6446ZM6.37123 17.7228L5.62771 17.6244L6.37123 17.7228ZM6.69985 15.0073L6.07175 14.5975L6.69985 15.0073ZM7.52858 14.174L7.809 14.8696L7.52858 14.174ZM7.91528 14.0181L7.63487 13.3225L7.91528 14.0181ZM8.98392 13.4862L8.53563 12.885L8.98392 13.4862ZM9.57442 13.046L9.12613 12.4447L9.57442 13.046ZM10.8915 12.3034L11.2329 12.9712L10.8915 12.3034ZM14.6532 12.3227L14.1951 12.9166L14.6532 12.3227ZM15.2816 12.8076L15.7397 12.2137L15.2816 12.8076ZM15.9218 13.242L15.5411 13.8882L15.9218 13.242ZM16.2477 13.434L15.8671 14.0802L16.2477 13.434ZM16.5737 13.626L16.9544 12.9798L16.5737 13.626ZM17.1603 14.0994L16.6101 14.6091L17.1603 14.0994ZM17.421 14.3809L17.9712 13.8712L17.421 14.3809ZM17.6817 14.6623L17.1315 15.172L17.6817 14.6623ZM18.5421 15.9489L17.8981 16.3332L18.5421 15.9489ZM18.9033 16.6594L18.2142 16.9554L18.9033 16.6594ZM19.2258 17.4101L19.9149 17.1141L19.2258 17.4101ZM19.2903 17.9641L18.6308 17.6069L19.2903 17.9641ZM19.0968 18.3214L19.7562 18.6786L19.0968 18.3214ZM18.9452 18.8805L19.6876 18.9873L18.9452 18.8805ZM18.8905 19.261L18.1481 19.1542L18.0934 19.5347L18.8357 19.6415L19.5781 19.7483L19.6329 19.3678L18.8905 19.261ZM18.8357 19.6415L18.0934 19.5347C18.0607 19.7617 18.0156 19.9886 17.9579 20.2154L18.6848 20.4003L19.4117 20.5851C19.4822 20.3076 19.5378 20.0286 19.5781 19.7483L18.8357 19.6415ZM18.6848 20.4003L17.9579 20.2154L17.8617 20.5937L18.5886 20.7786L19.3155 20.9634L19.4117 20.5851L18.6848 20.4003ZM18.5886 20.7786L17.8617 20.5937L17.7655 20.972L18.4924 21.1568L19.2193 21.3417L19.3155 20.9634L18.5886 20.7786ZM18.4924 21.1568L17.7655 20.972C17.7174 21.1611 17.645 21.3444 17.5467 21.523L18.2037 21.8847L18.8607 22.2465C19.019 21.9589 19.1391 21.6569 19.2193 21.3417L18.4924 21.1568ZM18.2037 21.8847L17.5467 21.523L17.3542 21.8726L18.0112 22.2343L18.6682 22.5961L18.8607 22.2465L18.2037 21.8847ZM18.0112 22.2343L17.3542 21.8726L17.1617 22.2222L17.8187 22.5839L18.4757 22.9457L18.6682 22.5961L18.0112 22.2343ZM17.8187 22.5839L17.1617 22.2222C17.1295 22.2807 17.0886 22.3209 16.9947 22.3519L17.2293 23.0642L17.4639 23.7766C17.8992 23.6332 18.2513 23.3532 18.4757 22.9457L17.8187 22.5839ZM17.2293 23.0642L16.9947 22.3519L16.5977 22.4826L16.8323 23.195L17.0669 23.9073L17.4639 23.7766L17.2293 23.0642ZM16.8323 23.195L16.5977 22.4826L16.2008 22.6133L16.4354 23.3257L16.67 24.0381L17.0669 23.9073L16.8323 23.195ZM16.4354 23.3257L16.2008 22.6133C15.8347 22.7339 15.5077 22.9264 15.235 23.1959L15.762 23.7295L16.2891 24.263C16.3848 24.1684 16.5068 24.0918 16.67 24.0381L16.4354 23.3257ZM15.762 23.7295L15.235 23.1959L14.9585 23.4689L15.4856 24.0025L16.0126 24.5361L16.2891 24.263L15.762 23.7295ZM15.4856 24.0025L14.9585 23.4689L14.6821 23.7419L15.2092 24.2755L15.7362 24.8091L16.0126 24.5361L15.4856 24.0025ZM15.2092 24.2755L14.6821 23.7419C14.6071 23.8161 14.5301 23.8543 14.4333 23.8701L14.554 24.6103L14.6747 25.3505C15.0828 25.284 15.4427 25.0991 15.7362 24.8091L15.2092 24.2755ZM14.554 24.6103L14.4333 23.8701L14.0546 23.9318L14.1753 24.672L14.2959 25.4123L14.6747 25.3505L14.554 24.6103ZM14.1753 24.672L14.0546 23.9318L13.6759 23.9935L13.7966 24.7338L13.9172 25.474L14.2959 25.4123L14.1753 24.672ZM13.7966 24.7338L13.6759 23.9935C13.4358 24.0327 13.1954 24.0657 12.9545 24.0925L13.0376 24.8379L13.1207 25.5833C13.3868 25.5536 13.6523 25.5172 13.9172 25.474L13.7966 24.7338ZM13.0376 24.8379L12.9545 24.0925L12.5742 24.1349L12.6573 24.8803L12.7404 25.6257L13.1207 25.5833L13.0376 24.8379ZM12.6573 24.8803L12.5742 24.1349L12.194 24.1773L12.277 24.9227L12.3601 25.6681L12.7404 25.6257L12.6573 24.8803ZM12.277 24.9227L12.194 24.1773C12.0376 24.1947 11.8866 24.182 11.7353 24.1387L11.5289 24.8598L11.3225 25.5808C11.6617 25.6779 12.0095 25.7072 12.3601 25.6681L12.277 24.9227ZM11.5289 24.8598L11.7353 24.1387L11.3673 24.0334L11.161 24.7544L10.9546 25.4755L11.3225 25.5808L11.5289 24.8598ZM11.161 24.7544L11.3673 24.0334L10.9994 23.9281L10.793 24.6491L10.5867 25.3702L10.9546 25.4755L11.161 24.7544ZM10.793 24.6491L10.9994 23.9281C10.8017 23.8715 10.6142 23.7969 10.4359 23.7042L10.0901 24.3698L9.74429 25.0353C10.0127 25.1748 10.2938 25.2864 10.5867 25.3702L10.793 24.6491ZM10.0901 24.3698L10.4359 23.7042L10.1009 23.5302L9.75511 24.1957L9.40928 24.8612L9.74429 25.0353L10.0901 24.3698ZM9.75511 24.1957L10.1009 23.5302L9.76593 23.3561L9.4201 24.0216L9.07427 24.6871L9.40928 24.8612L9.75511 24.1957ZM9.4201 24.0216L9.76593 23.3561C9.53189 23.2345 9.2887 23.1153 9.03643 22.9984L8.72123 23.679L8.40603 24.3595C8.63892 24.4674 8.86163 24.5766 9.07427 24.6871L9.4201 24.0216ZM8.72123 23.679L9.03643 22.9984L8.67258 22.8299L8.35738 23.5105L8.04218 24.191L8.40603 24.3595L8.72123 23.679ZM8.35738 23.5105L8.67258 22.8299L8.30872 22.6614L7.99352 23.3419L7.67832 24.0225L8.04218 24.191L8.35738 23.5105ZM7.99352 23.3419L8.30872 22.6614C8.27967 22.6479 8.27258 22.6385 8.27187 22.6376C8.27075 22.6362 8.25976 22.6234 8.24902 22.5829L7.52406 22.775L6.7991 22.9672C6.92483 23.4415 7.22693 23.8134 7.67832 24.0225L7.99352 23.3419ZM7.52406 22.775L8.24902 22.5829L8.14342 22.1845L7.41846 22.3767L6.6935 22.5689L6.7991 22.9672L7.52406 22.775ZM7.41846 22.3767L8.14342 22.1845L8.03782 21.7861L7.31286 21.9783L6.5879 22.1705L6.6935 22.5689L7.41846 22.3767ZM7.31286 21.9783L8.03782 21.7861C7.92677 21.3672 7.69676 21.0117 7.36887 20.7312L6.88128 21.301L6.39368 21.8709C6.50044 21.9622 6.55814 22.0582 6.5879 22.1705L7.31286 21.9783ZM6.88128 21.301L7.36887 20.7312L7.04288 20.4522L6.55529 21.0221L6.0677 21.592L6.39368 21.8709L6.88128 21.301ZM6.55529 21.0221L7.04288 20.4522L6.7169 20.1733L6.22931 20.7432L5.74172 21.3131L6.0677 21.592L6.55529 21.0221ZM6.22931 20.7432L6.7169 20.1733C6.70281 20.1613 6.69902 20.1555 6.7004 20.1574C6.70213 20.1598 6.70704 20.1675 6.71143 20.1798C6.7135 20.1856 6.71507 20.1914 6.71615 20.1968C6.71722 20.2022 6.71766 20.2065 6.71782 20.2093C6.71815 20.2151 6.71716 20.2124 6.71978 20.1991L5.98385 20.0545L5.24792 19.9099C5.14033 20.4574 5.32573 20.9571 5.74172 21.3131L6.22931 20.7432ZM5.98385 20.0545L6.71978 20.1991L6.8003 19.7892L6.06437 19.6446L5.32844 19.5L5.24792 19.9099L5.98385 20.0545ZM6.06437 19.6446L6.8003 19.7892L6.88082 19.3794L6.1449 19.2348L5.40897 19.0902L5.32844 19.5L6.06437 19.6446ZM6.1449 19.2348L6.88082 19.3794C6.93715 19.0928 6.98286 18.8182 7.01755 18.556L6.27402 18.4576L5.5305 18.3592C5.50038 18.5869 5.46001 18.8305 5.40897 19.0902L6.1449 19.2348ZM6.27402 18.4576L7.01755 18.556L7.06615 18.1885L6.32263 18.0902L5.5791 17.9918L5.5305 18.3592L6.27402 18.4576ZM6.32263 18.0902L7.06615 18.1885L7.11475 17.8211L6.37123 17.7228L5.62771 17.6244L5.5791 17.9918L6.32263 18.0902ZM6.37123 17.7228L7.11475 17.8211C7.15556 17.5127 7.15763 17.1932 7.12583 16.8653L6.37933 16.9377L5.63283 17.0101C5.65503 17.239 5.65171 17.443 5.62771 17.6244L6.37123 17.7228ZM6.37933 16.9377L7.12583 16.8653L7.08532 16.4476L6.33882 16.52L5.59233 16.5924L5.63283 17.0101L6.37933 16.9377ZM6.33882 16.52L7.08532 16.4476L7.04481 16.03L6.29832 16.1024L5.55182 16.1748L5.59233 16.5924L6.33882 16.52ZM6.29832 16.1024L7.04481 16.03C7.03359 15.9142 7.05638 15.8334 7.10693 15.7559L6.47883 15.346L5.85073 14.9362C5.60659 15.3103 5.50904 15.7337 5.55182 16.1748L6.29832 16.1024ZM6.47883 15.346L7.10693 15.7559L7.32795 15.4172L6.69985 15.0073L6.07175 14.5975L5.85073 14.9362L6.47883 15.346ZM6.69985 15.0073L7.32795 15.4172L7.54897 15.0785L6.92087 14.6686L6.29276 14.2587L6.07175 14.5975L6.69985 15.0073ZM6.92087 14.6686L7.54897 15.0785C7.60968 14.9854 7.68893 14.918 7.809 14.8696L7.52858 14.174L7.24817 13.4784C6.85264 13.6379 6.52674 13.9002 6.29276 14.2587L6.92087 14.6686ZM7.52858 14.174L7.809 14.8696L8.1957 14.7137L7.91528 14.0181L7.63487 13.3225L7.24817 13.4784L7.52858 14.174ZM7.91528 14.0181L8.1957 14.7137L8.58239 14.5578L8.30198 13.8622L8.02156 13.1666L7.63487 13.3225L7.91528 14.0181ZM8.30198 13.8622L8.58239 14.5578C8.89224 14.4329 9.17743 14.2775 9.43221 14.0875L8.98392 13.4862L8.53563 12.885C8.39676 12.9885 8.22732 13.0837 8.02156 13.1666L8.30198 13.8622ZM8.98392 13.4862L9.43221 14.0875L9.72746 13.8674L9.27917 13.2661L8.83088 12.6648L8.53563 12.885L8.98392 13.4862ZM9.27917 13.2661L9.72746 13.8674L10.0227 13.6473L9.57442 13.046L9.12613 12.4447L8.83088 12.6648L9.27917 13.2661ZM9.57442 13.046L10.0227 13.6473C10.1846 13.5266 10.3606 13.4172 10.5517 13.3195L10.2103 12.6517L9.86884 11.9839C9.60579 12.1184 9.35792 12.2719 9.12613 12.4447L9.57442 13.046ZM10.2103 12.6517L10.5517 13.3195L10.8923 13.1453L10.5509 12.4775L10.2095 11.8098L9.86884 11.9839L10.2103 12.6517ZM10.5509 12.4775L10.8923 13.1453L11.2329 12.9712L10.8915 12.3034L10.5501 11.6356L10.2095 11.8098L10.5509 12.4775ZM10.8915 12.3034L11.2329 12.9712C11.3671 12.9026 11.5072 12.8643 11.6599 12.8554L11.6159 12.1067L11.5718 11.3579C11.2128 11.3791 10.8701 11.472 10.5501 11.6356L10.8915 12.3034ZM11.6159 12.1067L11.6599 12.8554L12.0437 12.8328L11.9996 12.0841L11.9556 11.3354L11.5718 11.3579L11.6159 12.1067ZM11.9996 12.0841L12.0437 12.8328L12.4274 12.8102L12.3834 12.0615L12.3393 11.3128L11.9556 11.3354L11.9996 12.0841ZM12.3834 12.0615L12.4274 12.8102C12.6616 12.7964 12.8992 12.7927 13.1403 12.799L13.1601 12.0493L13.1798 11.2995C12.8971 11.2921 12.6169 11.2965 12.3393 11.3128L12.3834 12.0615ZM13.1601 12.0493L13.1403 12.799L13.5333 12.8094L13.553 12.0596L13.5728 11.3099L13.1798 11.2995L13.1601 12.0493ZM13.553 12.0596L13.5333 12.8094L13.9262 12.8197L13.946 12.07L13.9657 11.3202L13.5728 11.3099L13.553 12.0596ZM13.946 12.07L13.9262 12.8197C14.0276 12.8224 14.1102 12.8511 14.1951 12.9166L14.6532 12.3227L15.1113 11.7289C14.7772 11.4712 14.3883 11.3314 13.9657 11.3202L13.946 12.07ZM14.6532 12.3227L14.1951 12.9166L14.5093 13.159L14.9674 12.5651L15.4255 11.9713L15.1113 11.7289L14.6532 12.3227ZM14.9674 12.5651L14.5093 13.159L14.8235 13.4014L15.2816 12.8076L15.7397 12.2137L15.4255 11.9713L14.9674 12.5651ZM15.2816 12.8076L14.8235 13.4014C15.0565 13.5811 15.2957 13.7436 15.5411 13.8882L15.9218 13.242L16.3025 12.5958C16.1134 12.4844 15.9258 12.3572 15.7397 12.2137L15.2816 12.8076ZM15.9218 13.242L15.5411 13.8882L15.8671 14.0802L16.2477 13.434L16.6284 12.7878L16.3025 12.5958L15.9218 13.242ZM16.2477 13.434L15.8671 14.0802L16.193 14.2722L16.5737 13.626L16.9544 12.9798L16.6284 12.7878L16.2477 13.434ZM16.5737 13.626L16.193 14.2722C16.3465 14.3627 16.4852 14.4742 16.6101 14.6091L17.1603 14.0994L17.7105 13.5897C17.4878 13.3494 17.2354 13.1453 16.9544 12.9798L16.5737 13.626ZM17.1603 14.0994L16.6101 14.6091L16.8708 14.8905L17.421 14.3809L17.9712 13.8712L17.7105 13.5897L17.1603 14.0994ZM17.421 14.3809L16.8708 14.8905L17.1315 15.172L17.6817 14.6623L18.2319 14.1526L17.9712 13.8712L17.421 14.3809ZM17.6817 14.6623L17.1315 15.172C17.2691 15.3205 17.3914 15.4839 17.4983 15.6631L18.1423 15.2788L18.7864 14.8945C18.6268 14.6269 18.4419 14.3793 18.2319 14.1526L17.6817 14.6623ZM18.1423 15.2788L17.4983 15.6631L17.6982 15.9981L18.3422 15.6139L18.9863 15.2296L18.7864 14.8945L18.1423 15.2788ZM18.3422 15.6139L17.6982 15.9981L17.8981 16.3332L18.5421 15.9489L19.1862 15.5647L18.9863 15.2296L18.3422 15.6139ZM18.5421 15.9489L17.8981 16.3332C18.0136 16.5269 18.1191 16.7341 18.2142 16.9554L18.9033 16.6594L19.5924 16.3634C19.4725 16.0841 19.3372 15.8177 19.1862 15.5647L18.5421 15.9489ZM18.9033 16.6594L18.2142 16.9554L18.3754 17.3308L19.0646 17.0348L19.7537 16.7387L19.5924 16.3634L18.9033 16.6594ZM19.0646 17.0348L18.3754 17.3308L18.5367 17.7062L19.2258 17.4101L19.9149 17.1141L19.7537 16.7387L19.0646 17.0348ZM19.2258 17.4101L18.5367 17.7062C18.5542 17.7469 18.565 17.7775 18.5713 17.7988C18.5777 17.8204 18.5781 17.8278 18.5776 17.823C18.577 17.8178 18.5668 17.7252 18.6308 17.6069L19.2903 17.9641L19.9497 18.3214C20.0783 18.084 20.0896 17.8395 20.0675 17.6496C20.0455 17.4601 19.9853 17.278 19.9149 17.1141L19.2258 17.4101ZM19.2903 17.9641L18.6308 17.6069L18.5341 17.7855L19.1935 18.1428L19.853 18.5L19.9497 18.3214L19.2903 17.9641ZM19.1935 18.1428L18.5341 17.7855L18.4373 17.9641L19.0968 18.3214L19.7562 18.6786L19.853 18.5L19.1935 18.1428ZM19.0968 18.3214L18.4373 17.9641C18.3081 18.2027 18.2428 18.4962 18.2029 18.7737L18.9452 18.8805L19.6876 18.9873C19.7028 18.8815 19.7192 18.8027 19.7344 18.7466C19.7503 18.6879 19.7605 18.6706 19.7562 18.6786L19.0968 18.3214ZM18.9452 18.8805L18.2029 18.7737L18.1481 19.1542L18.8905 19.261L19.6329 19.3678L19.6876 18.9873L18.9452 18.8805Z" fill="#6F6F6F"/>
<path d="M26.875 19.2572L27.6149 19.3794L26.875 19.2572ZM26.8124 19.6359L26.0725 19.5137L26.8124 19.6359ZM26.6635 20.3957L27.3949 20.5615L26.6635 20.3957ZM26.5771 20.7769L25.8456 20.611L26.5771 20.7769ZM26.0731 21.7696L25.6448 21.1539L26.0731 21.7696ZM25.4109 22.2302L25.8392 22.8459L25.4109 22.2302ZM24.8622 22.7693L25.4753 23.2013L24.8622 22.7693ZM24.4271 23.3868L23.814 22.9548L24.4271 23.3868ZM23.8999 23.9327L24.356 24.5281L23.8999 23.9327ZM23.2808 24.407L23.7368 25.0024L23.2808 24.407ZM22.5872 24.712L22.4565 23.9735L22.5872 24.712ZM21.8192 24.8479L21.9499 25.5864L21.8192 24.8479ZM21.0449 24.99L21.185 25.7268L21.0449 24.99ZM19.5244 25.0086L19.1463 25.6563L19.5244 25.0086ZM19.1748 24.8046L19.553 24.1569L19.1748 24.8046ZM18.1285 24.2585L18.4054 23.5615L18.1285 24.2585ZM17.4341 23.9826L17.711 23.2856L17.4341 23.9826ZM16.8119 23.5911L16.3034 24.1424L16.8119 23.5911ZM16.2621 23.0839L16.7706 22.5326L16.2621 23.0839ZM15.7079 22.5669L16.2225 22.0213L15.7079 22.5669ZM15.1494 22.04L14.6347 22.5856L15.1494 22.04ZM14.6181 21.4516L15.2109 20.9921L14.6181 21.4516ZM14.1142 20.8015L13.5215 21.261L14.1142 20.8015ZM14.0343 19.243L13.2915 19.1394L14.0343 19.243ZM14.001 18.4304L13.2695 18.5956L14.001 18.4304ZM13.9104 18.029L13.1788 18.1942L13.9104 18.029ZM13.881 16.8497L13.1855 16.569L13.881 16.8497ZM15.1554 14.8449L14.6076 14.3327L15.1554 14.8449ZM16.797 13.2698L16.6272 12.5393L16.797 13.2698ZM17.5665 13.0909L17.7363 13.8215L17.5665 13.0909ZM18.2907 12.8808L18.0394 12.1741L18.2907 12.8808ZM18.9697 12.6393L18.7183 11.9326L18.9697 12.6393ZM20.0312 12.4502L19.9605 11.7035L20.0312 12.4502ZM21.1423 12.3322L21.0474 11.5882L21.1423 12.3322ZM22.6289 12.4039L22.2027 13.0211L22.6289 12.4039ZM23.9607 13.2052L24.2232 12.5026L23.9607 13.2052ZM24.3344 13.3448L24.5969 12.6423L24.3344 13.3448ZM24.7081 13.4845L24.4456 14.187L24.7081 13.4845ZM25.3809 13.8991L25.8885 13.347L25.3809 13.8991ZM25.979 14.449L25.4714 15.0011L25.979 14.449ZM26.3807 15.1187L25.6549 15.3075L26.3807 15.1187ZM26.4834 15.5134L27.2093 15.3246L26.4834 15.5134ZM26.5861 15.9082L25.8603 16.097L26.5861 15.9082ZM26.7563 16.6845L26.0177 16.8151L26.7563 16.6845ZM26.8912 17.4478L27.6297 17.3173L26.8912 17.4478ZM26.969 17.9971L26.2204 18.0433L26.969 17.9971ZM26.9897 18.3324L27.7382 18.2862L26.9897 18.3324ZM26.9375 18.8786L27.6775 19.0008L26.9375 18.8786ZM26.875 19.2572L26.135 19.135L26.0725 19.5137L26.8124 19.6359L27.5524 19.7581L27.6149 19.3794L26.875 19.2572ZM26.8124 19.6359L26.0725 19.5137C26.0332 19.7512 25.9864 19.9899 25.932 20.2298L26.6635 20.3957L27.3949 20.5615C27.4558 20.2932 27.5083 20.0254 27.5524 19.7581L26.8124 19.6359ZM26.6635 20.3957L25.932 20.2298L25.8456 20.611L26.5771 20.7769L27.3085 20.9427L27.3949 20.5615L26.6635 20.3957ZM26.5771 20.7769L25.8456 20.611L25.7592 20.9922L26.4906 21.1581L27.2221 21.3239L27.3085 20.9427L26.5771 20.7769ZM26.4906 21.1581L25.7592 20.9922C25.7444 21.0575 25.7173 21.1034 25.6448 21.1539L26.0731 21.7696L26.5014 22.3852C26.8704 22.1286 27.1216 21.7669 27.2221 21.3239L26.4906 21.1581ZM26.0731 21.7696L25.6448 21.1539L25.3137 21.3842L25.742 21.9999L26.1703 22.6156L26.5014 22.3852L26.0731 21.7696ZM25.742 21.9999L25.3137 21.3842L24.9826 21.6145L25.4109 22.2302L25.8392 22.8459L26.1703 22.6156L25.742 21.9999ZM25.4109 22.2302L24.9826 21.6145C24.695 21.8146 24.448 22.0552 24.2492 22.3372L24.8622 22.7693L25.4753 23.2013C25.5666 23.0717 25.6854 22.9529 25.8392 22.8459L25.4109 22.2302ZM24.8622 22.7693L24.2492 22.3372L24.0316 22.646L24.6446 23.078L25.2577 23.5101L25.4753 23.2013L24.8622 22.7693ZM24.6446 23.078L24.0316 22.646L23.814 22.9548L24.4271 23.3868L25.0401 23.8188L25.2577 23.5101L24.6446 23.078ZM24.4271 23.3868L23.814 22.9548C23.7141 23.0965 23.5919 23.2239 23.4438 23.3373L23.8999 23.9327L24.356 24.5281C24.6207 24.3253 24.8499 24.0888 25.0401 23.8188L24.4271 23.3868ZM23.8999 23.9327L23.4438 23.3373L23.1342 23.5744L23.5903 24.1698L24.0464 24.7652L24.356 24.5281L23.8999 23.9327ZM23.5903 24.1698L23.1342 23.5744L22.8247 23.8116L23.2808 24.407L23.7368 25.0024L24.0464 24.7652L23.5903 24.1698ZM23.2808 24.407L22.8247 23.8116C22.7137 23.8966 22.5942 23.9492 22.4565 23.9735L22.5872 24.712L22.7178 25.4506C23.0922 25.3843 23.435 25.2336 23.7368 25.0024L23.2808 24.407ZM22.5872 24.712L22.4565 23.9735L22.0726 24.0414L22.2032 24.78L22.3338 25.5185L22.7178 25.4506L22.5872 24.712ZM22.2032 24.78L22.0726 24.0414L21.6886 24.1094L21.8192 24.8479L21.9499 25.5864L22.3338 25.5185L22.2032 24.78ZM21.8192 24.8479L21.6886 24.1094C21.4293 24.1552 21.1681 24.2032 20.9048 24.2532L21.0449 24.99L21.185 25.7268C21.4421 25.6779 21.6971 25.6311 21.9499 25.5864L21.8192 24.8479ZM21.0449 24.99L20.9048 24.2532L20.5145 24.3275L20.6546 25.0643L20.7947 25.8011L21.185 25.7268L21.0449 24.99ZM20.6546 25.0643L20.5145 24.3275L20.1242 24.4017L20.2643 25.1385L20.4044 25.8753L20.7947 25.8011L20.6546 25.0643ZM20.2643 25.1385L20.1242 24.4017C20.0454 24.4167 19.9825 24.4076 19.9025 24.3609L19.5244 25.0086L19.1463 25.6563C19.5324 25.8818 19.9627 25.9593 20.4044 25.8753L20.2643 25.1385ZM19.5244 25.0086L19.9025 24.3609L19.553 24.1569L19.1748 24.8046L18.7967 25.4523L19.1463 25.6563L19.5244 25.0086ZM19.1748 24.8046L19.553 24.1569L19.2034 23.9528L18.8253 24.6005L18.4472 25.2482L18.7967 25.4523L19.1748 24.8046ZM18.8253 24.6005L19.2034 23.9528C18.9406 23.7993 18.6746 23.6684 18.4054 23.5615L18.1285 24.2585L17.8516 24.9555C18.0454 25.0325 18.2439 25.1295 18.4472 25.2482L18.8253 24.6005ZM18.1285 24.2585L18.4054 23.5615L18.0582 23.4235L17.7813 24.1206L17.5044 24.8176L17.8516 24.9555L18.1285 24.2585ZM17.7813 24.1206L18.0582 23.4235L17.711 23.2856L17.4341 23.9826L17.1572 24.6797L17.5044 24.8176L17.7813 24.1206ZM17.4341 23.9826L17.711 23.2856C17.5651 23.2277 17.4362 23.1466 17.3204 23.0398L16.8119 23.5911L16.3034 24.1424C16.5543 24.3738 16.8401 24.5537 17.1572 24.6797L17.4341 23.9826ZM16.8119 23.5911L17.3204 23.0398L17.0455 22.7862L16.537 23.3375L16.0285 23.8888L16.3034 24.1424L16.8119 23.5911ZM16.537 23.3375L17.0455 22.7862L16.7706 22.5326L16.2621 23.0839L15.7536 23.6352L16.0285 23.8888L16.537 23.3375ZM16.2621 23.0839L16.7706 22.5326C16.5894 22.3655 16.4067 22.1951 16.2225 22.0213L15.7079 22.5669L15.1932 23.1124C15.3814 23.2899 15.5681 23.4642 15.7536 23.6352L16.2621 23.0839ZM15.7079 22.5669L16.2225 22.0213L15.9433 21.7579L15.4286 22.3035L14.914 22.849L15.1932 23.1124L15.7079 22.5669ZM15.4286 22.3035L15.9433 21.7579L15.664 21.4945L15.1494 22.04L14.6347 22.5856L14.914 22.849L15.4286 22.3035ZM15.1494 22.04L15.664 21.4945C15.508 21.3473 15.3568 21.1802 15.2109 20.9921L14.6181 21.4516L14.0254 21.9111C14.2155 22.1563 14.4184 22.3815 14.6347 22.5856L15.1494 22.04ZM14.6181 21.4516L15.2109 20.9921L14.9589 20.667L14.3662 21.1265L13.7734 21.5861L14.0254 21.9111L14.6181 21.4516ZM14.3662 21.1265L14.9589 20.667L14.707 20.342L14.1142 20.8015L13.5215 21.261L13.7734 21.5861L14.3662 21.1265ZM14.1142 20.8015L14.707 20.342C14.6642 20.2868 14.6518 20.2449 14.6624 20.169L13.9196 20.0653L13.1768 19.9617C13.1109 20.4339 13.2283 20.8828 13.5215 21.261L14.1142 20.8015ZM13.9196 20.0653L14.6624 20.169L14.7198 19.7578L13.977 19.6542L13.2342 19.5505L13.1768 19.9617L13.9196 20.0653ZM13.977 19.6542L14.7198 19.7578L14.7771 19.3466L14.0343 19.243L13.2915 19.1394L13.2342 19.5505L13.977 19.6542ZM14.0343 19.243L14.7771 19.3466C14.8278 18.9838 14.8132 18.6218 14.7326 18.2652L14.001 18.4304L13.2695 18.5956C13.3098 18.7742 13.3174 18.954 13.2915 19.1394L14.0343 19.243ZM14.001 18.4304L14.7326 18.2652L14.642 17.8638L13.9104 18.029L13.1788 18.1942L13.2695 18.5956L14.001 18.4304ZM13.9104 18.029L14.642 17.8638L14.5513 17.4623L13.8197 17.6276L13.0881 17.7928L13.1788 18.1942L13.9104 18.029ZM13.8197 17.6276L14.5513 17.4623C14.524 17.3414 14.5331 17.2378 14.5765 17.1304L13.881 16.8497L13.1855 16.569C13.0263 16.9635 12.9946 17.3785 13.0881 17.7928L13.8197 17.6276ZM13.881 16.8497L14.5765 17.1304L14.7284 16.754L14.0329 16.4733L13.3375 16.1926L13.1855 16.569L13.881 16.8497ZM14.0329 16.4733L14.7284 16.754L14.8804 16.3776L14.1849 16.0968L13.4894 15.8161L13.3375 16.1926L14.0329 16.4733ZM14.1849 16.0968L14.8804 16.3776C14.9477 16.2108 15.0397 16.0669 15.1575 15.9408L14.6097 15.4286L14.0619 14.9163C13.8159 15.1794 13.6247 15.481 13.4894 15.8161L14.1849 16.0968ZM14.6097 15.4286L15.1575 15.9408L15.4304 15.649L14.8826 15.1368L14.3347 14.6245L14.0619 14.9163L14.6097 15.4286ZM14.8826 15.1368L15.4304 15.649L15.7033 15.3572L15.1554 14.8449L14.6076 14.3327L14.3347 14.6245L14.8826 15.1368ZM15.1554 14.8449L15.7033 15.3572C15.8955 15.1516 16.0788 14.9431 16.2531 14.7316L15.6743 14.2546L15.0955 13.7777C14.9418 13.9642 14.7792 14.1492 14.6076 14.3327L15.1554 14.8449ZM15.6743 14.2546L16.2531 14.7316L16.4991 14.4332L15.9203 13.9562L15.3415 13.4792L15.0955 13.7777L15.6743 14.2546ZM15.9203 13.9562L16.4991 14.4332L16.7451 14.1347L16.1663 13.6577L15.5875 13.1807L15.3415 13.4792L15.9203 13.9562ZM16.1663 13.6577L16.7451 14.1347C16.8019 14.0657 16.8671 14.0235 16.9668 14.0003L16.797 13.2698L16.6272 12.5393C16.2139 12.6353 15.8587 12.8517 15.5875 13.1807L16.1663 13.6577ZM16.797 13.2698L16.9668 14.0003L17.3516 13.9109L17.1818 13.1804L17.012 12.4498L16.6272 12.5393L16.797 13.2698ZM17.1818 13.1804L17.3516 13.9109L17.7363 13.8215L17.5665 13.0909L17.3967 12.3604L17.012 12.4498L17.1818 13.1804ZM17.5665 13.0909L17.7363 13.8215C18.0178 13.756 18.2866 13.6782 18.542 13.5874L18.2907 12.8808L18.0394 12.1741C17.8422 12.2443 17.6282 12.3066 17.3967 12.3604L17.5665 13.0909ZM18.2907 12.8808L18.542 13.5874L18.8815 13.4666L18.6302 12.76L18.3789 12.0534L18.0394 12.1741L18.2907 12.8808ZM18.6302 12.76L18.8815 13.4666L19.221 13.3459L18.9697 12.6393L18.7183 11.9326L18.3789 12.0534L18.6302 12.76ZM18.9697 12.6393L19.221 13.3459C19.3886 13.2863 19.5614 13.248 19.7409 13.231L19.6702 12.4843L19.5995 11.7377C19.2976 11.7663 19.0034 11.8313 18.7183 11.9326L18.9697 12.6393ZM19.6702 12.4843L19.7409 13.231L20.1019 13.1968L20.0312 12.4502L19.9605 11.7035L19.5995 11.7377L19.6702 12.4843ZM20.0312 12.4502L20.1019 13.1968L20.4629 13.1626L20.3922 12.416L20.3215 11.6693L19.9605 11.7035L20.0312 12.4502ZM20.3922 12.416L20.4629 13.1626C20.7123 13.139 20.9704 13.1102 21.2371 13.0762L21.1423 12.3322L21.0474 11.5882C20.7954 11.6203 20.5535 11.6473 20.3215 11.6693L20.3922 12.416ZM21.1423 12.3322L21.2371 13.0762L21.6262 13.0265L21.5313 12.2826L21.4365 11.5386L21.0474 11.5882L21.1423 12.3322ZM21.5313 12.2826L21.6262 13.0265L22.0153 12.9769L21.9204 12.233L21.8255 11.489L21.4365 11.5386L21.5313 12.2826ZM21.9204 12.233L22.0153 12.9769C22.0934 12.967 22.1436 12.9803 22.2027 13.0211L22.6289 12.4039L23.055 11.7868C22.6882 11.5335 22.2662 11.4328 21.8255 11.489L21.9204 12.233ZM22.6289 12.4039L22.2027 13.0211L22.5221 13.2416L22.9482 12.6245L23.3744 12.0073L23.055 11.7868L22.6289 12.4039ZM22.9482 12.6245L22.5221 13.2416L22.8415 13.4622L23.2676 12.845L23.6938 12.2279L23.3744 12.0073L22.9482 12.6245ZM23.2676 12.845L22.8415 13.4622C23.1066 13.6453 23.3928 13.7936 23.6982 13.9078L23.9607 13.2052L24.2232 12.5026C24.0303 12.4306 23.8545 12.3388 23.6938 12.2279L23.2676 12.845ZM23.9607 13.2052L23.6982 13.9078L24.0719 14.0474L24.3344 13.3448L24.5969 12.6423L24.2232 12.5026L23.9607 13.2052ZM24.3344 13.3448L24.0719 14.0474L24.4456 14.187L24.7081 13.4845L24.9707 12.7819L24.5969 12.6423L24.3344 13.3448ZM24.7081 13.4845L24.4456 14.187C24.6025 14.2456 24.7438 14.3321 24.8733 14.4512L25.3809 13.8991L25.8885 13.347C25.6193 13.0994 25.3121 12.9095 24.9707 12.7819L24.7081 13.4845ZM25.3809 13.8991L24.8733 14.4512L25.1723 14.7261L25.68 14.174L26.1876 13.6219L25.8885 13.347L25.3809 13.8991ZM25.68 14.174L25.1723 14.7261L25.4714 15.0011L25.979 14.449L26.4866 13.8969L26.1876 13.6219L25.68 14.174ZM25.979 14.449L25.4714 15.0011C25.5641 15.0864 25.6226 15.1833 25.6549 15.3075L26.3807 15.1187L27.1066 14.9299C27.002 14.5278 26.7926 14.1782 26.4866 13.8969L25.979 14.449ZM26.3807 15.1187L25.6549 15.3075L25.7576 15.7023L26.4834 15.5134L27.2093 15.3246L27.1066 14.9299L26.3807 15.1187ZM26.4834 15.5134L25.7576 15.7023L25.8603 16.097L26.5861 15.9082L27.312 15.7193L27.2093 15.3246L26.4834 15.5134ZM26.5861 15.9082L25.8603 16.097C25.924 16.3419 25.9764 16.5812 26.0177 16.8151L26.7563 16.6845L27.4948 16.554C27.4462 16.279 27.3852 16.0007 27.312 15.7193L26.5861 15.9082ZM26.7563 16.6845L26.0177 16.8151L26.0852 17.1967L26.8237 17.0662L27.5623 16.9356L27.4948 16.554L26.7563 16.6845ZM26.8237 17.0662L26.0852 17.1967L26.1526 17.5784L26.8912 17.4478L27.6297 17.3173L27.5623 16.9356L26.8237 17.0662ZM26.8912 17.4478L26.1526 17.5784C26.1973 17.8314 26.2164 17.9778 26.2204 18.0433L26.969 17.9971L27.7175 17.9509C27.7078 17.7929 27.675 17.5731 27.6297 17.3173L26.8912 17.4478ZM26.969 17.9971L26.2204 18.0433L26.2307 18.2109L26.9793 18.1647L27.7279 18.1185L27.7175 17.9509L26.969 17.9971ZM26.9793 18.1647L26.2307 18.2109L26.2411 18.3786L26.9897 18.3324L27.7382 18.2862L27.7279 18.1185L26.9793 18.1647ZM26.9897 18.3324L26.2411 18.3786C26.2409 18.3761 26.2414 18.3831 26.2408 18.4026C26.2401 18.4214 26.2384 18.4473 26.2352 18.4814C26.2286 18.5502 26.2166 18.641 26.1975 18.7564L26.9375 18.8786L27.6775 19.0008C27.7197 18.7452 27.7508 18.4899 27.7382 18.2862L26.9897 18.3324ZM26.9375 18.8786L26.1975 18.7564L26.135 19.135L26.875 19.2572L27.6149 19.3794L27.6775 19.0008L26.9375 18.8786Z" fill="#6F6F6F"/>
</svg>
