<svg width="19" height="26" viewBox="0 0 19 26" fill="none" xmlns="http://www.w3.org/2000/svg">
<path d="M7.90991 14.8651C8.14176 15.5607 8.37361 16.2562 8.55102 16.9043C8.72842 17.5525 8.84434 18.1321 8.90406 19.4161C8.96378 20.7 8.96378 22.6708 8.96378 24.7012" stroke="black" stroke-width="2" stroke-linecap="round"/>
<path d="M6.856 19.0806C6.3923 19.5443 5.57379 19.7832 4.46372 19.6093C1.51564 19.1475 1.58666 13.8183 1.76054 12.7644C1.82538 12.3714 2.28221 12.4061 2.28748 12.3481C2.3883 11.2391 1.00352 9.95409 1 8.48921C0.998978 8.06217 1.34778 7.6145 1.64111 7.2597C1.93443 6.90489 2.28221 6.67304 2.69322 6.66953C4.5315 6.65382 5.3314 8.41895 5.79862 8.71755C8.49968 10.4438 6.856 3.51846 7.20553 1.87267C7.28285 1.50864 7.43914 1.17185 7.78868 1.05065C8.66658 0.746253 10.0106 1.86037 11.1224 3.14609C12.7132 4.98569 11.4263 7.8323 11.3051 8.48043C10.6975 11.7294 16.1019 6.08288 16.9784 6.25676C17.4177 6.34393 17.739 6.77843 17.8022 7.30536C18.0891 9.6966 15.8771 10.9939 13.8923 12.3411C13.0877 12.8873 11.9146 13.6778 11.5492 14.0378C10.7213 14.8538 14.5773 14.6262 15.9263 15.9137C16.2592 16.2314 16.4532 16.6145 16.5147 17.0255C16.6444 17.8923 16.109 18.8417 15.5258 19.7182C15.1745 20.1309 14.7108 20.4787 13.9503 20.6579C13.1898 20.837 12.1464 20.837 10.3689 20.4858" stroke="black" stroke-width="2" stroke-linecap="round"/>
</svg>
