<svg width="32" height="32" viewBox="0 0 32 32" fill="none" xmlns="http://www.w3.org/2000/svg">
<path d="M15.9607 16.6255C18.2588 16.7395 20.4402 17.7027 22.075 19.3374C23.2773 20.5398 24.1162 22.038 24.5212 23.6606C24.8254 24.8792 23.7801 25.9124 22.5242 25.9126H8.47534L8.24194 25.9009C7.17027 25.7905 6.31417 24.9299 6.43628 23.8872L6.47729 23.6606C6.85706 22.1393 7.6184 20.7273 8.70288 19.5659L8.92456 19.3374C10.6683 17.5936 13.0337 16.6138 15.4998 16.6138L15.9607 16.6255ZM15.4998 18.2642C13.4713 18.2642 11.5259 19.0701 10.0916 20.5044C9.10255 21.4934 8.41212 22.7252 8.07886 24.0601C8.07178 24.0884 8.07625 24.0907 8.07397 24.0825C8.07394 24.0827 8.0784 24.0978 8.10132 24.1226C8.15939 24.1852 8.29193 24.2621 8.47534 24.2622H22.5242C22.7073 24.2621 22.839 24.1852 22.8972 24.1226C22.9219 24.096 22.9252 24.0805 22.9246 24.0825C22.9243 24.0784 22.9234 24.071 22.9207 24.0601C22.5874 22.7253 21.8969 21.4934 20.908 20.5044C19.4736 19.0702 17.5281 18.2642 15.4998 18.2642ZM15.4998 6.6001C17.8698 6.60016 19.7917 8.52191 19.7917 10.8921L19.7859 11.1128C19.6708 13.3802 17.7956 15.1831 15.4998 15.1831C13.204 15.1829 11.3297 13.3801 11.2146 11.1128L11.2087 10.8921C11.2087 8.52201 13.1299 6.60031 15.4998 6.6001ZM15.4998 8.25049C14.0412 8.2507 12.8591 9.43319 12.8591 10.8921C12.8593 12.3508 14.0413 13.5335 15.4998 13.5337C16.9583 13.5336 18.1412 12.3509 18.1414 10.8921C18.1414 9.43309 16.9584 8.25055 15.4998 8.25049Z" fill="black"/>
</svg>
