<svg width="51" height="28" viewBox="0 0 51 28" fill="none" xmlns="http://www.w3.org/2000/svg">
<path d="M49.5117 18.0194L48.5123 17.9852L49.5117 18.0194ZM49.1828 18.6542L48.5673 17.866L49.1828 18.6542ZM48.8671 18.9007L49.4826 19.6888L48.8671 18.9007ZM48.5515 19.1472L49.167 19.9353L48.5515 19.1472ZM48.0888 19.7609L47.1605 19.3891L48.0888 19.7609ZM47.9418 20.128L47.0134 19.7562L47.9418 20.128ZM47.7947 20.4952L48.7231 20.8669L47.7947 20.4952ZM47.3817 21.1462L46.6519 20.4626L47.3817 21.1462ZM46.8498 21.7141L47.5796 22.3978L46.8498 21.7141ZM46.2007 22.1011L46.4603 23.0668L46.2007 22.1011ZM44.7152 22.575L44.2748 21.6772L44.7152 22.575ZM44.379 22.7399L43.9386 21.842L44.379 22.7399ZM44.0428 22.9048L44.4832 23.8026L44.0428 22.9048ZM43.4003 23.3147L44.0248 24.0957L43.4003 23.3147ZM42.7875 23.8047L42.163 23.0237L42.7875 23.8047ZM42.1114 24.1399L41.8745 23.1683L42.1114 24.1399ZM41.7416 24.23L41.9785 25.2016L41.7416 24.23ZM41.3719 24.3202L41.6088 25.2917L41.3719 24.3202ZM40.5939 24.3555L40.4607 25.3466L40.5939 24.3555ZM40.1857 24.3006L40.0525 25.2917L40.1857 24.3006ZM39.7774 24.2458L39.9106 23.2547L39.7774 24.2458ZM39.0688 24.5203L39.8076 25.1942L39.0688 24.5203ZM38.7684 24.8497L39.5072 25.5236L38.7684 24.8497ZM38.468 25.1791L37.7291 24.5052L38.468 25.1791ZM37.7819 25.5165L37.7609 24.5168L37.7819 25.5165ZM37.3962 25.5247L37.3752 24.5249L37.3962 25.5247ZM37.0106 25.5328L37.0316 26.5326L37.0106 25.5328ZM36.2722 25.7066L35.8471 24.8014L36.2722 25.7066ZM34.8133 26.0867L34.5335 27.0468L34.8133 26.0867ZM34.0118 25.8532L34.2916 24.8931L34.0118 25.8532ZM32.8818 25.9293L33.1374 26.896L32.8818 25.9293ZM32.5171 26.0257L32.2614 25.0589L32.5171 26.0257ZM31.7836 26.2078L31.5572 25.2338L31.7836 26.2078ZM31.4147 26.2936L31.1883 25.3195L31.4147 26.2936ZM31.0458 26.3793L30.8195 25.4053L31.0458 26.3793ZM30.3073 26.5849L30.6157 27.5361L30.3073 26.5849ZM29.5679 26.8247L29.2594 25.8735L29.5679 26.8247ZM28.8096 26.705L29.3345 25.8538L28.8096 26.705ZM28.421 26.4654L27.8962 27.3165L28.421 26.4654ZM28.0325 26.2257L27.5076 27.0769L28.0325 26.2257ZM27.2759 26.2536L26.6879 25.4447L27.2759 26.2536ZM26.9079 26.5211L26.32 25.7122L26.9079 26.5211ZM26.5399 26.7886L27.1279 27.5975L26.5399 26.7886ZM25.7939 26.9189L26.135 25.9789L25.7939 26.9189ZM25.0378 26.6445L24.6967 27.5845L25.0378 26.6445ZM24.2821 26.5785L24.4674 27.5612L24.2821 26.5785ZM23.5267 26.721L23.3415 25.7383L23.5267 26.721ZM22.7848 26.5653L22.2561 27.4141L22.7848 26.5653ZM22.0563 26.1116L22.585 25.2628L22.0563 26.1116ZM21.2984 26.1296L21.8265 26.9788L21.2984 26.1296ZM20.5109 26.6195L21.0391 27.4686L20.5109 26.6195ZM19.7482 26.7515L19.4557 27.7078L19.7482 26.7515ZM19.3792 26.6387L19.6716 25.6824L19.3792 26.6387ZM19.0101 26.5258L19.3026 25.5695L19.0101 26.5258ZM18.2715 26.3351L18.4775 25.3566L18.2715 26.3351ZM17.5322 26.1794L17.3261 27.158L17.5322 26.1794ZM16.7871 26.0686L16.6995 27.0647L16.7871 26.0686ZM16.4116 26.0355L16.4993 25.0394L16.4116 26.0355ZM15.3254 25.7221L15.919 24.9174L15.3254 25.7221ZM14.9901 25.4748L14.3965 26.2795L14.9901 25.4748ZM14.6548 25.2275L15.2484 24.4227L14.6548 25.2275ZM13.9266 25.0313L14.0558 26.0229L13.9266 25.0313ZM13.1407 25.1337L13.2699 26.1253L13.1407 25.1337ZM12.3807 25.1022L12.161 26.0778L12.3807 25.1022ZM12.0135 25.0195L12.2332 24.044L12.0135 25.0195ZM10.6616 24.3225L11.3139 23.5646L10.6616 24.3225ZM10.3527 24.0567L9.70035 24.8146L10.3527 24.0567ZM9.61787 23.8755L9.81262 24.8563L9.61787 23.8755ZM9.19186 23.9601L8.99711 22.9792L9.19186 23.9601ZM8.01805 23.9197L8.56371 23.0817L8.01805 23.9197ZM7.69628 23.7102L8.24195 22.8722L7.69628 23.7102ZM7.37451 23.5007L6.82885 24.3387L7.37451 23.5007ZM6.75469 23.0533L6.13099 23.835L6.75469 23.0533ZM6.15859 22.5777L5.53489 23.3593L6.15859 22.5777ZM5.4784 22.2526L5.25569 23.2275L5.4784 22.2526ZM5.09627 22.1653L4.87356 23.1402L5.09627 22.1653ZM4.71413 22.078L4.93684 21.1031L4.71413 22.078ZM3.39395 21.3354L2.82131 22.1552L3.39395 21.3354ZM2.96062 20.7188L3.91765 20.4289L2.96062 20.7188ZM2.71932 19.9224L1.76228 20.2124L2.71932 19.9224ZM2.17434 19.3564L2.54211 18.4265L2.17434 19.3564ZM1.75001 19.1886L1.38224 20.1185L1.75001 19.1886ZM1.32569 19.0208L0.957917 19.9507L1.32569 19.0208ZM1.02979 18.4315L0.0732127 18.14L1.02979 18.4315ZM1.54962 16.9429L2.40696 17.4576L1.54962 16.9429ZM1.68415 16.7188L0.826813 16.204L1.68415 16.7188ZM1.81869 16.4947L2.67603 17.0095L1.81869 16.4947ZM2.05513 15.846L1.08275 15.6127L2.05513 15.846ZM2.62661 14.3075L3.33229 15.0161L2.62661 14.3075ZM3.8391 13.395L3.56457 12.4334L3.8391 13.395ZM6.15303 11.4615L5.42315 10.7779L6.15303 11.4615ZM7.21281 10.3998L7.8502 11.1703L7.21281 10.3998ZM7.79398 9.91904L7.15659 9.1485L7.79398 9.91904ZM8.37883 9.57569L8.04851 8.63182L8.37883 9.57569ZM8.96734 9.36973L9.29766 10.3136L8.96734 9.36973ZM9.6366 9.3163L9.50559 10.3077L9.6366 9.3163ZM17.1366 9.1273L17.2472 10.1212L17.1366 9.1273ZM20.8866 8.77498L20.6978 7.79296L20.8866 8.77498ZM27.6366 8.75626L27.5096 7.76436L27.6366 8.75626ZM28.3866 8.66026L28.2596 7.66836L28.3866 8.66026ZM30.6366 8.67871L30.5644 9.67611L30.6366 8.67871ZM35.1366 9.14294L35.5109 10.0702L35.1366 9.14294ZM35.5116 8.99155L35.8859 9.91884L35.5116 8.99155ZM40.3866 9.22767L40.2691 10.2207L40.3866 9.22767ZM41.0483 9.33437L41.2608 8.35721L41.0483 9.33437ZM41.6217 9.45906L41.4092 10.4362L41.6217 9.45906ZM42.1508 9.80885L42.9152 9.16418L42.1508 9.80885ZM42.6356 10.3837L41.8711 11.0284L42.6356 10.3837ZM43.1765 10.9038L43.7911 10.1149L43.1765 10.9038ZM43.4751 11.1363L44.0896 10.3475L43.4751 11.1363ZM43.7736 11.3689L43.159 12.1578L43.7736 11.3689ZM44.3203 11.8834L43.5696 12.5441L44.3203 11.8834ZM44.8165 12.4472L45.5671 11.7865L44.8165 12.4472ZM45.2811 13.0417L44.459 13.6111L45.2811 13.0417ZM45.7142 13.667L46.5363 13.0977L45.7142 13.667ZM46.3161 14.1276L45.9578 15.0612L46.3161 14.1276ZM47.0867 14.4233L47.445 13.4897L47.0867 14.4233ZM47.7963 14.7787L47.2571 15.6209L47.7963 14.7787ZM48.1205 14.9863L48.6596 14.1441L48.1205 14.9863ZM48.4447 15.1938L47.9055 16.036L48.4447 15.1938ZM48.983 15.7164L48.156 16.2786L48.983 15.7164ZM49.4113 16.3464L50.2383 15.7843L49.4113 16.3464ZM49.607 16.7097L50.5407 17.0676L49.607 16.7097ZM49.57 16.8061L48.6362 16.4483L49.57 16.8061ZM49.5382 17.2427L48.5388 17.2085L49.5382 17.2427ZM49.525 17.631L48.5256 17.5969L48.5123 17.9852L49.5117 18.0194L50.5111 18.0535L50.5244 17.6652L49.525 17.631ZM49.5117 18.0194L48.5123 17.9852C48.5125 17.9792 48.5156 17.9495 48.5349 17.9122C48.5538 17.8757 48.5729 17.8617 48.5673 17.866L49.1828 18.6542L49.7983 19.4423C50.2337 19.1023 50.4918 18.6185 50.5111 18.0535L49.5117 18.0194ZM49.1828 18.6542L48.5673 17.866L48.2516 18.1126L48.8671 18.9007L49.4826 19.6888L49.7983 19.4423L49.1828 18.6542ZM48.8671 18.9007L48.2516 18.1126L47.936 18.3591L48.5515 19.1472L49.167 19.9353L49.4826 19.6888L48.8671 18.9007ZM48.5515 19.1472L47.936 18.3591C47.5882 18.6307 47.325 18.9782 47.1605 19.3891L48.0888 19.7609L49.0171 20.1326C49.0486 20.054 49.0939 19.9924 49.167 19.9353L48.5515 19.1472ZM48.0888 19.7609L47.1605 19.3891L47.0134 19.7562L47.9418 20.128L48.8701 20.4998L49.0171 20.1326L48.0888 19.7609ZM47.9418 20.128L47.0134 19.7562L46.8664 20.1234L47.7947 20.4952L48.7231 20.8669L48.8701 20.4998L47.9418 20.128ZM47.7947 20.4952L46.8664 20.1234C46.8138 20.2547 46.7428 20.3656 46.6519 20.4626L47.3817 21.1462L48.1116 21.8299C48.3753 21.5484 48.5796 21.2251 48.7231 20.8669L47.7947 20.4952ZM47.3817 21.1462L46.6519 20.4626L46.3859 20.7466L47.1158 21.4302L47.8456 22.1138L48.1116 21.8299L47.3817 21.1462ZM47.1158 21.4302L46.3859 20.7466L46.12 21.0305L46.8498 21.7141L47.5796 22.3978L47.8456 22.1138L47.1158 21.4302ZM46.8498 21.7141L46.12 21.0305C46.0727 21.081 46.0203 21.1141 45.9411 21.1354L46.2007 22.1011L46.4603 23.0668C46.8919 22.9507 47.2723 22.7259 47.5796 22.3978L46.8498 21.7141ZM46.2007 22.1011L45.9411 21.1354L45.558 21.2384L45.8176 22.2041L46.0772 23.1698L46.4603 23.0668L46.2007 22.1011ZM45.8176 22.2041L45.558 21.2384L45.1748 21.3413L45.4345 22.3071L45.6941 23.2728L46.0772 23.1698L45.8176 22.2041ZM45.4345 22.3071L45.1748 21.3413C44.8608 21.4258 44.5601 21.5372 44.2748 21.6772L44.7152 22.575L45.1556 23.4728C45.3184 23.3929 45.4973 23.3257 45.6941 23.2728L45.4345 22.3071ZM44.7152 22.575L44.2748 21.6772L43.9386 21.842L44.379 22.7399L44.8194 23.6377L45.1556 23.4728L44.7152 22.575ZM44.379 22.7399L43.9386 21.842L43.6024 22.0069L44.0428 22.9048L44.4832 23.8026L44.8194 23.6377L44.379 22.7399ZM44.0428 22.9048L43.6024 22.0069C43.3098 22.1505 43.0342 22.327 42.7757 22.5337L43.4003 23.3147L44.0248 24.0957C44.1749 23.9757 44.3276 23.8789 44.4832 23.8026L44.0428 22.9048ZM43.4003 23.3147L42.7757 22.5337L42.4694 22.7787L43.0939 23.5597L43.7184 24.3407L44.0248 24.0957L43.4003 23.3147ZM43.0939 23.5597L42.4694 22.7787L42.163 23.0237L42.7875 23.8047L43.4121 24.5857L43.7184 24.3407L43.0939 23.5597ZM42.7875 23.8047L42.163 23.0237C42.0689 23.0989 41.975 23.1438 41.8745 23.1683L42.1114 24.1399L42.3483 25.1114C42.7407 25.0157 43.0976 24.8371 43.4121 24.5857L42.7875 23.8047ZM42.1114 24.1399L41.8745 23.1683L41.5047 23.2585L41.7416 24.23L41.9785 25.2016L42.3483 25.1114L42.1114 24.1399ZM41.7416 24.23L41.5047 23.2585L41.135 23.3486L41.3719 24.3202L41.6088 25.2917L41.9785 25.2016L41.7416 24.23ZM41.3719 24.3202L41.135 23.3486C41.0191 23.3769 40.8859 23.3857 40.727 23.3644L40.5939 24.3555L40.4607 25.3466C40.8462 25.3984 41.2316 25.3837 41.6088 25.2917L41.3719 24.3202ZM40.5939 24.3555L40.727 23.3644L40.3188 23.3095L40.1857 24.3006L40.0525 25.2917L40.4607 25.3466L40.5939 24.3555ZM40.1857 24.3006L40.3188 23.3095L39.9106 23.2547L39.7774 24.2458L39.6443 25.2369L40.0525 25.2917L40.1857 24.3006ZM39.7774 24.2458L39.9106 23.2547C39.2831 23.1704 38.7299 23.408 38.33 23.8464L39.0688 24.5203L39.8076 25.1942C39.8216 25.1789 39.8064 25.2005 39.7574 25.2195C39.7342 25.2285 39.7101 25.2342 39.6875 25.2366C39.6654 25.239 39.6502 25.2377 39.6443 25.2369L39.7774 24.2458ZM39.0688 24.5203L38.33 23.8464L38.0296 24.1758L38.7684 24.8497L39.5072 25.5236L39.8076 25.1942L39.0688 24.5203ZM38.7684 24.8497L38.0296 24.1758L37.7291 24.5052L38.468 25.1791L39.2068 25.8529L39.5072 25.5236L38.7684 24.8497ZM38.468 25.1791L37.7291 24.5052C37.6995 24.5377 37.69 24.5381 37.7049 24.5308C37.712 24.5273 37.7219 24.5235 37.7336 24.5206C37.7452 24.5178 37.7548 24.5169 37.7609 24.5168L37.7819 25.5165L37.803 26.5163C38.3771 26.5042 38.8534 26.2405 39.2068 25.8529L38.468 25.1791ZM37.7819 25.5165L37.7609 24.5168L37.3752 24.5249L37.3962 25.5247L37.4173 26.5244L37.803 26.5163L37.7819 25.5165ZM37.3962 25.5247L37.3752 24.5249L36.9895 24.533L37.0106 25.5328L37.0316 26.5326L37.4173 26.5244L37.3962 25.5247ZM37.0106 25.5328L36.9895 24.533C36.5911 24.5414 36.2075 24.6321 35.8471 24.8014L36.2722 25.7066L36.6973 26.6117C36.8072 26.5601 36.9158 26.535 37.0316 26.5326L37.0106 25.5328ZM36.2722 25.7066L35.8471 24.8014L35.4944 24.9671L35.9195 25.8722L36.3446 26.7774L36.6973 26.6117L36.2722 25.7066ZM35.9195 25.8722L35.4944 24.9671L35.1416 25.1327L35.5667 26.0379L35.9918 26.943L36.3446 26.7774L35.9195 25.8722ZM35.5667 26.0379L35.1416 25.1327C35.1366 25.1351 35.1346 25.1355 35.1352 25.1354C35.1354 25.1353 35.1358 25.1352 35.1363 25.1351C35.1366 25.1351 35.1368 25.1351 35.137 25.135C35.1371 25.135 35.1372 25.135 35.1372 25.135C35.1373 25.135 35.1373 25.135 35.1373 25.135C35.1373 25.135 35.1372 25.135 35.1372 25.135C35.1371 25.135 35.137 25.135 35.1369 25.135C35.1366 25.135 35.1361 25.135 35.1355 25.135C35.1342 25.135 35.1319 25.1349 35.1286 25.1345C35.122 25.1337 35.1104 25.1317 35.0931 25.1267L34.8133 26.0867L34.5335 27.0468C35.0164 27.1875 35.5198 27.1647 35.9918 26.943L35.5667 26.0379ZM34.8133 26.0867L35.0931 25.1267L34.6923 25.0099L34.4125 25.97L34.1327 26.93L34.5335 27.0468L34.8133 26.0867ZM34.4125 25.97L34.6923 25.0099L34.2916 24.8931L34.0118 25.8532L33.732 26.8132L34.1327 26.93L34.4125 25.97ZM34.0118 25.8532L34.2916 24.8931C33.869 24.77 33.428 24.7504 32.9907 24.8661L33.2464 25.8328L33.5021 26.7996C33.5511 26.7866 33.6202 26.7807 33.732 26.8132L34.0118 25.8532ZM33.2464 25.8328L32.9907 24.8661L32.6261 24.9625L32.8818 25.9293L33.1374 26.896L33.5021 26.7996L33.2464 25.8328ZM32.8818 25.9293L32.6261 24.9625L32.2614 25.0589L32.5171 26.0257L32.7728 26.9924L33.1374 26.896L32.8818 25.9293ZM32.5171 26.0257L32.2614 25.0589C32.0281 25.1206 31.7934 25.1789 31.5572 25.2338L31.7836 26.2078L32.01 27.1819C32.2656 27.1225 32.5199 27.0593 32.7728 26.9924L32.5171 26.0257ZM31.7836 26.2078L31.5572 25.2338L31.1883 25.3195L31.4147 26.2936L31.6411 27.2676L32.01 27.1819L31.7836 26.2078ZM31.4147 26.2936L31.1883 25.3195L30.8195 25.4053L31.0458 26.3793L31.2722 27.3533L31.6411 27.2676L31.4147 26.2936ZM31.0458 26.3793L30.8195 25.4053C30.5452 25.469 30.2716 25.5452 29.9988 25.6337L30.3073 26.5849L30.6157 27.5361C30.8359 27.4648 31.0547 27.4039 31.2722 27.3533L31.0458 26.3793ZM30.3073 26.5849L29.9988 25.6337L29.6291 25.7536L29.9376 26.7048L30.246 27.656L30.6157 27.5361L30.3073 26.5849ZM29.9376 26.7048L29.6291 25.7536L29.2594 25.8735L29.5679 26.8247L29.8763 27.7759L30.246 27.656L29.9376 26.7048ZM29.5679 26.8247L29.2594 25.8735C29.2694 25.8702 29.284 25.8668 29.3019 25.8654C29.32 25.8639 29.3363 25.8649 29.3494 25.8669C29.3761 25.8712 29.3722 25.8771 29.3345 25.8538L28.8096 26.705L28.2847 27.5561C28.7452 27.8401 29.3011 27.9625 29.8763 27.7759L29.5679 26.8247ZM28.8096 26.705L29.3345 25.8538L28.9459 25.6142L28.421 26.4654L27.8962 27.3165L28.2847 27.5561L28.8096 26.705ZM28.421 26.4654L28.9459 25.6142L28.5573 25.3746L28.0325 26.2257L27.5076 27.0769L27.8962 27.3165L28.421 26.4654ZM28.0325 26.2257L28.5573 25.3746C28.2945 25.2125 27.9737 25.1003 27.6122 25.1136C27.2505 25.1269 26.9384 25.2627 26.6879 25.4447L27.2759 26.2536L27.8639 27.0625C27.8588 27.0662 27.7954 27.1082 27.6859 27.1122C27.5766 27.1163 27.5113 27.0792 27.5076 27.0769L28.0325 26.2257ZM27.2759 26.2536L26.6879 25.4447L26.32 25.7122L26.9079 26.5211L27.4959 27.33L27.8639 27.0625L27.2759 26.2536ZM26.9079 26.5211L26.32 25.7122L25.952 25.9797L26.5399 26.7886L27.1279 27.5975L27.4959 27.33L26.9079 26.5211ZM26.5399 26.7886L25.952 25.9797C25.9281 25.997 25.9442 25.9791 25.9974 25.9698C26.0232 25.9653 26.0508 25.9642 26.0778 25.9668C26.1044 25.9693 26.124 25.9749 26.135 25.9789L25.7939 26.9189L25.4528 27.8589C26.062 28.08 26.655 27.9412 27.1279 27.5975L26.5399 26.7886ZM25.7939 26.9189L26.135 25.9789L25.757 25.8417L25.4159 26.7817L25.0748 27.7217L25.4528 27.8589L25.7939 26.9189ZM25.4159 26.7817L25.757 25.8417L25.3789 25.7045L25.0378 26.6445L24.6967 27.5845L25.0748 27.7217L25.4159 26.7817ZM25.0378 26.6445L25.3789 25.7045C24.9666 25.5549 24.5331 25.5136 24.0968 25.5959L24.2821 26.5785L24.4674 27.5612C24.5347 27.5485 24.605 27.5513 24.6967 27.5845L25.0378 26.6445ZM24.2821 26.5785L24.0968 25.5959L23.7192 25.6671L23.9044 26.6497L24.0897 27.6324L24.4674 27.5612L24.2821 26.5785ZM23.9044 26.6497L23.7192 25.6671L23.3415 25.7383L23.5267 26.721L23.712 27.7036L24.0897 27.6324L23.9044 26.6497ZM23.5267 26.721L23.3415 25.7383C23.3408 25.7384 23.3431 25.7379 23.3476 25.738C23.3521 25.738 23.3558 25.7385 23.3577 25.7389C23.3627 25.74 23.3485 25.7383 23.3135 25.7165L22.7848 26.5653L22.2561 27.4141C22.685 27.6812 23.1845 27.8031 23.712 27.7036L23.5267 26.721ZM22.7848 26.5653L23.3135 25.7165L22.9492 25.4896L22.4206 26.3384L21.8919 27.1873L22.2561 27.4141L22.7848 26.5653ZM22.4206 26.3384L22.9492 25.4896L22.585 25.2628L22.0563 26.1116L21.5277 26.9604L21.8919 27.1873L22.4206 26.3384ZM22.0563 26.1116L22.585 25.2628C22.3206 25.0981 22.0071 24.9947 21.6609 25.003C21.3201 25.0111 21.0193 25.1255 20.7702 25.2805L21.2984 26.1296L21.8265 26.9788C21.8398 26.9705 21.7967 27.0003 21.7085 27.0024C21.615 27.0046 21.5492 26.9739 21.5277 26.9604L22.0563 26.1116ZM21.2984 26.1296L20.7702 25.2805L20.3764 25.5254L20.9046 26.3745L21.4328 27.2237L21.8265 26.9788L21.2984 26.1296ZM20.9046 26.3745L20.3764 25.5254L19.9827 25.7703L20.5109 26.6195L21.0391 27.4686L21.4328 27.2237L20.9046 26.3745ZM20.5109 26.6195L19.9827 25.7703C19.9396 25.7971 19.9306 25.7934 19.9528 25.7896C19.9638 25.7877 19.9789 25.7864 19.9965 25.7875C20.0141 25.7886 20.0293 25.7918 20.0406 25.7952L19.7482 26.7515L19.4557 27.7078C20.0335 27.8845 20.5855 27.7508 21.0391 27.4686L20.5109 26.6195ZM19.7482 26.7515L20.0406 25.7952L19.6716 25.6824L19.3792 26.6387L19.0867 27.5949L19.4557 27.7078L19.7482 26.7515ZM19.3792 26.6387L19.6716 25.6824L19.3026 25.5695L19.0101 26.5258L18.7177 27.4821L19.0867 27.5949L19.3792 26.6387ZM19.0101 26.5258L19.3026 25.5695C19.0287 25.4858 18.7537 25.4147 18.4775 25.3566L18.2715 26.3351L18.0654 27.3137C18.2821 27.3593 18.4995 27.4154 18.7177 27.4821L19.0101 26.5258ZM18.2715 26.3351L18.4775 25.3566L18.1079 25.2787L17.9018 26.2573L17.6957 27.2358L18.0654 27.3137L18.2715 26.3351ZM17.9018 26.2573L18.1079 25.2787L17.7383 25.2009L17.5322 26.1794L17.3261 27.158L17.6957 27.2358L17.9018 26.2573ZM17.5322 26.1794L17.7383 25.2009C17.4528 25.1408 17.1649 25.0979 16.8747 25.0724L16.7871 26.0686L16.6995 27.0647C16.9099 27.0832 17.1187 27.1143 17.3261 27.158L17.5322 26.1794ZM16.7871 26.0686L16.8747 25.0724L16.4993 25.0394L16.4116 26.0355L16.324 27.0317L16.6995 27.0647L16.7871 26.0686ZM16.4116 26.0355L16.4993 25.0394L16.1238 25.0063L16.0362 26.0025L15.9485 26.9987L16.324 27.0317L16.4116 26.0355ZM16.0362 26.0025L16.1238 25.0063C16.0755 25.0021 16.0108 24.9851 15.919 24.9174L15.3254 25.7221L14.7318 26.5269C15.0871 26.789 15.4963 26.9589 15.9485 26.9987L16.0362 26.0025ZM15.3254 25.7221L15.919 24.9174L15.5837 24.67L14.9901 25.4748L14.3965 26.2795L14.7318 26.5269L15.3254 25.7221ZM14.9901 25.4748L15.5837 24.67L15.2484 24.4227L14.6548 25.2275L14.0612 26.0322L14.3965 26.2795L14.9901 25.4748ZM14.6548 25.2275L15.2484 24.4227C14.8289 24.1133 14.3296 23.9704 13.7974 24.0397L13.9266 25.0313L14.0558 26.0229C14.0607 26.0223 14.061 26.0227 14.0576 26.0225C14.0541 26.0222 14.0495 26.0216 14.045 26.0203C14.0406 26.0191 14.039 26.0182 14.0407 26.0191C14.0427 26.02 14.0496 26.0236 14.0612 26.0322L14.6548 25.2275ZM13.9266 25.0313L13.7974 24.0397L13.4045 24.0909L13.5337 25.0825L13.6628 26.0741L14.0558 26.0229L13.9266 25.0313ZM13.5337 25.0825L13.4045 24.0909L13.0115 24.1421L13.1407 25.1337L13.2699 26.1253L13.6628 26.0741L13.5337 25.0825ZM13.1407 25.1337L13.0115 24.1421C12.8597 24.1618 12.7247 24.1546 12.6003 24.1266L12.3807 25.1022L12.161 26.0778C12.5262 26.16 12.8979 26.1738 13.2699 26.1253L13.1407 25.1337ZM12.3807 25.1022L12.6003 24.1266L12.2332 24.044L12.0135 25.0195L11.7939 25.9951L12.161 26.0778L12.3807 25.1022ZM12.0135 25.0195L12.2332 24.044L11.866 23.9613L11.6464 24.9369L11.4267 25.9124L11.7939 25.9951L12.0135 25.0195ZM11.6464 24.9369L11.866 23.9613C11.7942 23.9451 11.715 23.9098 11.6228 23.8305L10.9704 24.5884L10.318 25.3463C10.6376 25.6214 11.009 25.8184 11.4267 25.9124L11.6464 24.9369ZM10.9704 24.5884L11.6228 23.8305L11.3139 23.5646L10.6616 24.3225L10.0092 25.0804L10.318 25.3463L10.9704 24.5884ZM10.6616 24.3225L11.3139 23.5646L11.0051 23.2988L10.3527 24.0567L9.70035 24.8146L10.0092 25.0804L10.6616 24.3225ZM10.3527 24.0567L11.0051 23.2988C10.5489 22.9062 9.98581 22.7829 9.42313 22.8946L9.61787 23.8755L9.81262 24.8563C9.83211 24.8525 9.8145 24.8591 9.77513 24.8494C9.75674 24.8449 9.73944 24.8381 9.7247 24.8303C9.71022 24.8227 9.7022 24.8162 9.70035 24.8146L10.3527 24.0567ZM9.61787 23.8755L9.42313 22.8946L8.99711 22.9792L9.19186 23.9601L9.3866 24.9409L9.81262 24.8563L9.61787 23.8755ZM9.19186 23.9601L8.99711 22.9792L8.57109 23.0638L8.76584 24.0446L8.96058 25.0255L9.3866 24.9409L9.19186 23.9601ZM8.76584 24.0446L8.57109 23.0638C8.55053 23.0679 8.5377 23.0688 8.53171 23.0689C8.52592 23.0691 8.52601 23.0686 8.53067 23.0694C8.5355 23.0702 8.54222 23.0719 8.54958 23.0747C8.55691 23.0776 8.56178 23.0804 8.56371 23.0817L8.01805 23.9197L7.47239 24.7577C7.93489 25.0589 8.45703 25.1255 8.96058 25.0255L8.76584 24.0446ZM8.01805 23.9197L8.56371 23.0817L8.24195 22.8722L7.69628 23.7102L7.15062 24.5482L7.47239 24.7577L8.01805 23.9197ZM7.69628 23.7102L8.24195 22.8722L7.92018 22.6627L7.37451 23.5007L6.82885 24.3387L7.15062 24.5482L7.69628 23.7102ZM7.37451 23.5007L7.92018 22.6627C7.73238 22.5404 7.55183 22.41 7.37839 22.2717L6.75469 23.0533L6.13099 23.835C6.35496 24.0137 6.58763 24.1816 6.82885 24.3387L7.37451 23.5007ZM6.75469 23.0533L7.37839 22.2717L7.08034 22.0338L6.45664 22.8155L5.83294 23.5972L6.13099 23.835L6.75469 23.0533ZM6.45664 22.8155L7.08034 22.0338L6.78229 21.796L6.15859 22.5777L5.53489 23.3593L5.83294 23.5972L6.45664 22.8155ZM6.15859 22.5777L6.78229 21.796C6.46279 21.5411 6.09812 21.3684 5.70111 21.2777L5.4784 22.2526L5.25569 23.2275C5.36819 23.2532 5.45698 23.2972 5.53489 23.3593L6.15859 22.5777ZM5.4784 22.2526L5.70111 21.2777L5.31898 21.1904L5.09627 22.1653L4.87356 23.1402L5.25569 23.2275L5.4784 22.2526ZM5.09627 22.1653L5.31898 21.1904L4.93684 21.1031L4.71413 22.078L4.49142 23.0529L4.87356 23.1402L5.09627 22.1653ZM4.71413 22.078L4.93684 21.1031C4.80407 21.0728 4.69189 21.0223 4.59196 20.9525L4.01932 21.7723L3.44668 22.5921C3.76365 22.8135 4.11468 22.9668 4.49142 23.0529L4.71413 22.078ZM4.01932 21.7723L4.59196 20.9525L4.27928 20.734L3.70664 21.5539L3.13399 22.3737L3.44668 22.5921L4.01932 21.7723ZM3.70664 21.5539L4.27928 20.734L3.96659 20.5156L3.39395 21.3354L2.82131 22.1552L3.13399 22.3737L3.70664 21.5539ZM3.39395 21.3354L3.96659 20.5156C3.95912 20.5104 3.93932 20.5004 3.91765 20.4289L2.96062 20.7188L2.00359 21.0088C2.14279 21.4682 2.41188 21.8693 2.82131 22.1552L3.39395 21.3354ZM2.96062 20.7188L3.91765 20.4289L3.797 20.0307L2.83997 20.3206L1.88293 20.6106L2.00359 21.0088L2.96062 20.7188ZM2.83997 20.3206L3.797 20.0307L3.67635 19.6325L2.71932 19.9224L1.76228 20.2124L1.88293 20.6106L2.83997 20.3206ZM2.71932 19.9224L3.67635 19.6325C3.49809 19.0441 3.0774 18.6382 2.54211 18.4265L2.17434 19.3564L1.80657 20.2863C1.83627 20.2981 1.8256 20.2995 1.80238 20.2754C1.79148 20.2641 1.78164 20.251 1.7739 20.2376C1.76628 20.2244 1.76307 20.215 1.76228 20.2124L2.71932 19.9224ZM2.17434 19.3564L2.54211 18.4265L2.11778 18.2587L1.75001 19.1886L1.38224 20.1185L1.80657 20.2863L2.17434 19.3564ZM1.75001 19.1886L2.11778 18.2587L1.69346 18.0909L1.32569 19.0208L0.957917 19.9507L1.38224 20.1185L1.75001 19.1886ZM1.32569 19.0208L1.69346 18.0909C1.69522 18.0916 1.72932 18.105 1.77662 18.1433C1.82685 18.1838 1.88692 18.2486 1.93323 18.3408C2.03353 18.5406 1.99261 18.7025 1.98637 18.7229L1.02979 18.4315L0.0732127 18.14C-0.0186451 18.4415 -0.053061 18.842 0.145871 19.2383C0.341531 19.628 0.675931 19.8392 0.957917 19.9507L1.32569 19.0208ZM1.02979 18.4315L1.98637 18.7229L2.11481 18.3014L1.15823 18.01L0.201646 17.7185L0.0732127 18.14L1.02979 18.4315ZM1.15823 18.01L2.11481 18.3014L2.24324 17.8799L1.28666 17.5884L0.330078 17.297L0.201646 17.7185L1.15823 18.01ZM1.28666 17.5884L2.24324 17.8799C2.31891 17.6316 2.37831 17.5053 2.40696 17.4576L1.54962 16.9429L0.692282 16.4281C0.541557 16.6792 0.425654 16.9833 0.330078 17.297L1.28666 17.5884ZM1.54962 16.9429L2.40696 17.4576L2.54149 17.2335L1.68415 16.7188L0.826813 16.204L0.692282 16.4281L1.54962 16.9429ZM1.68415 16.7188L2.54149 17.2335L2.67603 17.0095L1.81869 16.4947L0.961344 15.98L0.826813 16.204L1.68415 16.7188ZM1.81869 16.4947L2.67603 17.0095C2.84161 16.7337 2.94946 16.4046 3.02752 16.0794L2.05513 15.846L1.08275 15.6127C1.02491 15.8536 0.975135 15.957 0.961344 15.98L1.81869 16.4947ZM2.05513 15.846L3.02752 16.0794L3.12943 15.6548L2.15705 15.4214L1.18467 15.188L1.08275 15.6127L2.05513 15.846ZM2.15705 15.4214L3.12943 15.6548L3.23135 15.2302L2.25897 14.9968L1.28658 14.7634L1.18467 15.188L2.15705 15.4214ZM2.25897 14.9968L3.23135 15.2302C3.2633 15.0971 3.30661 15.0416 3.33229 15.0161L2.62661 14.3075L1.92093 13.599C1.5923 13.9263 1.39052 14.3304 1.28658 14.7634L2.25897 14.9968ZM2.62661 14.3075L3.33229 15.0161L3.59801 14.7514L2.89233 14.0429L2.18665 13.3343L1.92093 13.599L2.62661 14.3075ZM2.89233 14.0429L3.59801 14.7514L3.86374 14.4868L3.15806 13.7782L2.45238 13.0697L2.18665 13.3343L2.89233 14.0429ZM3.15806 13.7782L3.86374 14.4868C3.90379 14.4469 3.97464 14.3963 4.11363 14.3566L3.8391 13.395L3.56457 12.4334C3.14981 12.5518 2.76663 12.7567 2.45238 13.0697L3.15806 13.7782ZM3.8391 13.395L4.11363 14.3566L4.52895 14.238L4.25442 13.2764L3.97989 12.3148L3.56457 12.4334L3.8391 13.395ZM4.25442 13.2764L4.52895 14.238L4.94427 14.1194L4.66974 13.1578L4.3952 12.1963L3.97989 12.3148L4.25442 13.2764ZM4.66974 13.1578L4.94427 14.1194C5.42773 13.9814 5.85398 13.6963 6.13695 13.2416L5.28795 12.7133L4.43894 12.1849C4.43859 12.1854 4.43969 12.1836 4.44234 12.1808C4.445 12.1779 4.44729 12.1761 4.4481 12.1755C4.45045 12.1739 4.43742 12.1842 4.3952 12.1963L4.66974 13.1578ZM5.28795 12.7133L6.13695 13.2416L6.33985 12.9156L5.49084 12.3872L4.64184 11.8589L4.43894 12.1849L5.28795 12.7133ZM5.49084 12.3872L6.33985 12.9156L6.54274 12.5896L5.69374 12.0612L4.84473 11.5329L4.64184 11.8589L5.49084 12.3872ZM5.69374 12.0612L6.54274 12.5896C6.64429 12.4265 6.75772 12.2787 6.88291 12.145L6.15303 11.4615L5.42315 10.7779C5.20648 11.0092 5.01372 11.2613 4.84473 11.5329L5.69374 12.0612ZM6.15303 11.4615L6.88291 12.145L7.13931 11.8713L6.40943 11.1877L5.67955 10.5041L5.42315 10.7779L6.15303 11.4615ZM6.40943 11.1877L7.13931 11.8713L7.3957 11.5975L6.66582 10.9139L5.93594 10.2304L5.67955 10.5041L6.40943 11.1877ZM6.66582 10.9139L7.3957 11.5975C7.53752 11.4461 7.68894 11.3037 7.8502 11.1703L7.21281 10.3998L6.57542 9.62925C6.34923 9.81636 6.13599 10.0168 5.93594 10.2304L6.66582 10.9139ZM7.21281 10.3998L7.8502 11.1703L8.14079 10.93L7.5034 10.1594L6.866 9.38888L6.57542 9.62925L7.21281 10.3998ZM7.5034 10.1594L8.14079 10.93L8.43138 10.6896L7.79398 9.91904L7.15659 9.1485L6.866 9.38888L7.5034 10.1594ZM7.79398 9.91904L8.43138 10.6896C8.5524 10.5895 8.64549 10.5418 8.70915 10.5196L8.37883 9.57569L8.04851 8.63182C7.71983 8.74685 7.42302 8.92811 7.15659 9.1485L7.79398 9.91904ZM8.37883 9.57569L8.70915 10.5196L9.00341 10.4166L8.67309 9.47271L8.34276 8.52884L8.04851 8.63182L8.37883 9.57569ZM8.67309 9.47271L9.00341 10.4166L9.29766 10.3136L8.96734 9.36973L8.63702 8.42586L8.34276 8.52884L8.67309 9.47271ZM8.96734 9.36973L9.29766 10.3136C9.31762 10.3066 9.37825 10.2909 9.50559 10.3077L9.6366 9.3163L9.76761 8.32492C9.39495 8.27568 9.00941 8.29554 8.63702 8.42586L8.96734 9.36973ZM9.6366 9.3163L9.50559 10.3077L9.88059 10.3572L10.0116 9.36586L10.1426 8.37448L9.76761 8.32492L9.6366 9.3163ZM10.0116 9.36586L9.88059 10.3572L10.2556 10.4068L10.3866 9.41541L10.5176 8.42403L10.1426 8.37448L10.0116 9.36586ZM10.3866 9.41541L10.2556 10.4068C10.7332 10.4699 11.1891 10.3698 11.599 10.1561L11.1366 9.2694L10.6742 8.38274C10.5841 8.42973 10.54 8.42699 10.5176 8.42403L10.3866 9.41541ZM11.1366 9.2694L11.599 10.1561L11.974 9.9605L11.5116 9.07384L11.0492 8.18717L10.6742 8.38274L11.1366 9.2694ZM11.5116 9.07384L11.974 9.9605L12.349 9.76494L11.8866 8.87827L11.4242 7.9916L11.0492 8.18717L11.5116 9.07384ZM11.8866 8.87827L12.349 9.76494C12.4219 9.72693 12.4438 9.73586 12.4483 9.73672L12.6366 8.75462L12.8249 7.77251C12.3294 7.67749 11.8513 7.76885 11.4242 7.9916L11.8866 8.87827ZM12.6366 8.75462L12.4483 9.73672L12.8233 9.80864L13.0116 8.82653L13.1999 7.84443L12.8249 7.77251L12.6366 8.75462ZM13.0116 8.82653L12.8233 9.80864L13.1983 9.88055L13.3866 8.89845L13.5749 7.91634L13.1999 7.84443L13.0116 8.82653ZM13.3866 8.89845L13.1983 9.88055C13.6165 9.96076 14.0349 9.93275 14.4384 9.80503L14.1366 8.85166L13.8348 7.89828C13.7383 7.92883 13.6567 7.93202 13.5749 7.91634L13.3866 8.89845ZM14.1366 8.85166L14.4384 9.80503L14.8134 9.68632L14.5116 8.73295L14.2098 7.77957L13.8348 7.89828L14.1366 8.85166ZM14.5116 8.73295L14.8134 9.68632L15.1884 9.56761L14.8866 8.61424L14.5848 7.66087L14.2098 7.77957L14.5116 8.73295ZM14.8866 8.61424L15.1884 9.56761C15.192 9.56648 15.1945 9.56585 15.196 9.56552C15.1975 9.56518 15.1983 9.56509 15.1983 9.56509C15.1983 9.56508 15.198 9.56513 15.1973 9.56515C15.1966 9.56517 15.196 9.56515 15.1955 9.56512C15.1943 9.56503 15.1954 9.56495 15.1996 9.56605C15.204 9.56718 15.213 9.56991 15.227 9.57617L15.6366 8.66391L16.0462 7.75164C15.5832 7.54377 15.0802 7.50404 14.5848 7.66087L14.8866 8.61424ZM15.6366 8.66391L15.227 9.57617L15.602 9.74454L16.0116 8.83228L16.4212 7.92001L16.0462 7.75164L15.6366 8.66391ZM16.0116 8.83228L15.602 9.74454L15.977 9.91292L16.3866 9.00065L16.7962 8.08838L16.4212 7.92001L16.0116 8.83228ZM16.3866 9.00065L15.977 9.91292C16.3749 10.0916 16.8039 10.1705 17.2472 10.1212L17.1366 9.1273L17.026 8.13343C16.9693 8.13975 16.8983 8.13421 16.7962 8.08838L16.3866 9.00065ZM17.1366 9.1273L17.2472 10.1212L17.6222 10.0795L17.5116 9.08558L17.401 8.09172L17.026 8.13343L17.1366 9.1273ZM17.5116 9.08558L17.6222 10.0795L17.9972 10.0377L17.8866 9.04387L17.776 8.05L17.401 8.09172L17.5116 9.08558ZM17.8866 9.04387L17.9972 10.0377C18.2131 10.0137 18.4286 10.001 18.6439 9.99939L18.6366 8.99942L18.6293 7.99944C18.3446 8.00152 18.0601 8.01839 17.776 8.05L17.8866 9.04387ZM18.6366 8.99942L18.6439 9.99939L19.0189 9.99666L19.0116 8.99669L19.0043 7.99671L18.6293 7.99944L18.6366 8.99942ZM19.0116 8.99669L19.0189 9.99666L19.3939 9.99393L19.3866 8.99396L19.3793 7.99398L19.0043 7.99671L19.0116 8.99669ZM19.3866 8.99396L19.3939 9.99393C19.7059 9.99166 20.0166 9.96051 20.3254 9.90117L20.1366 8.91915L19.9478 7.93712C19.7566 7.97389 19.5673 7.99262 19.3793 7.99398L19.3866 8.99396ZM20.1366 8.91915L20.3254 9.90117L20.7004 9.82908L20.5116 8.84706L20.3228 7.86504L19.9478 7.93712L20.1366 8.91915ZM20.5116 8.84706L20.7004 9.82908L21.0754 9.757L20.8866 8.77498L20.6978 7.79296L20.3228 7.86504L20.5116 8.84706ZM20.8866 8.77498L21.0754 9.757C21.2395 9.72546 21.4004 9.71641 21.5604 9.72863L21.6366 8.73153L21.7127 7.73444C21.3728 7.70848 21.0337 7.72839 20.6978 7.79296L20.8866 8.77498ZM21.6366 8.73153L21.5604 9.72863L21.9354 9.75727L22.0116 8.76017L22.0877 7.76308L21.7127 7.73444L21.6366 8.73153ZM22.0116 8.76017L21.9354 9.75727L22.3104 9.78591L22.3866 8.78881L22.4627 7.79172L22.0877 7.76308L22.0116 8.76017ZM22.3866 8.78881L22.3104 9.78591C22.559 9.80489 22.8076 9.82441 23.0562 9.84445L23.1366 8.84768L23.217 7.85092C22.9656 7.83065 22.7141 7.81092 22.4627 7.79172L22.3866 8.78881ZM23.1366 8.84768L23.0562 9.84445L23.4312 9.87468L23.5116 8.87791L23.592 7.88115L23.217 7.85092L23.1366 8.84768ZM23.5116 8.87791L23.4312 9.87468L23.8062 9.90491L23.8866 8.90814L23.967 7.91138L23.592 7.88115L23.5116 8.87791ZM23.8866 8.90814L23.8062 9.90491C24.0676 9.92598 24.3289 9.94257 24.5903 9.95469L24.6366 8.95576L24.6829 7.95683C24.4443 7.94577 24.2056 7.93062 23.967 7.91138L23.8866 8.90814ZM24.6366 8.95576L24.5903 9.95469L24.9653 9.97207L25.0116 8.97315L25.0579 7.97422L24.6829 7.95683L24.6366 8.95576ZM25.0116 8.97315L24.9653 9.97207L25.3403 9.98946L25.3866 8.99054L25.4329 7.99161L25.0579 7.97422L25.0116 8.97315ZM25.3866 8.99054L25.3403 9.98946C25.6512 10.0039 25.9617 9.98993 26.2711 9.94792L26.1366 8.95701L26.0021 7.9661C25.8115 7.99197 25.622 8.00038 25.4329 7.99161L25.3866 8.99054ZM26.1366 8.95701L26.2711 9.94792L26.6461 9.897L26.5116 8.90609L26.3771 7.91518L26.0021 7.9661L26.1366 8.95701ZM26.5116 8.90609L26.6461 9.897L27.0211 9.84609L26.8866 8.85518L26.7521 7.86427L26.3771 7.91518L26.5116 8.90609ZM26.8866 8.85518L27.0211 9.84609C27.2686 9.81249 27.5161 9.77985 27.7636 9.74817L27.6366 8.75626L27.5096 7.76436C27.2571 7.79668 27.0046 7.82998 26.7521 7.86427L26.8866 8.85518ZM27.6366 8.75626L27.7636 9.74817L28.1386 9.70017L28.0116 8.70826L27.8846 7.71636L27.5096 7.76436L27.6366 8.75626ZM28.0116 8.70826L28.1386 9.70017L28.5136 9.65217L28.3866 8.66026L28.2596 7.66836L27.8846 7.71636L28.0116 8.70826ZM28.3866 8.66026L28.5136 9.65217C28.7132 9.62662 28.912 9.61655 29.1104 9.62175L29.1366 8.62209L29.1628 7.62244C28.8612 7.61453 28.56 7.62991 28.2596 7.66836L28.3866 8.66026ZM29.1366 8.62209L29.1104 9.62175L29.4854 9.63158L29.5116 8.63192L29.5378 7.63227L29.1628 7.62244L29.1366 8.62209ZM29.5116 8.63192L29.4854 9.63158L29.8604 9.64141L29.8866 8.64175L29.9128 7.6421L29.5378 7.63227L29.5116 8.63192ZM29.8866 8.64175L29.8604 9.64141C30.095 9.64756 30.3297 9.65912 30.5644 9.67611L30.6366 8.67871L30.7088 7.68132C30.4435 7.66213 30.1782 7.64905 29.9128 7.6421L29.8866 8.64175ZM30.6366 8.67871L30.5644 9.67611L30.9394 9.70324L31.0116 8.70584L31.0838 7.70845L30.7088 7.68132L30.6366 8.67871ZM31.0116 8.70584L30.9394 9.70324L31.3144 9.73037L31.3866 8.73297L31.4588 7.73558L31.0838 7.70845L31.0116 8.70584ZM31.3866 8.73297L31.3144 9.73037C31.4368 9.73922 31.5726 9.77181 31.7256 9.8408L32.1366 8.92916L32.5476 8.01753C32.2006 7.8611 31.8364 7.7629 31.4588 7.73558L31.3866 8.73297ZM32.1366 8.92916L31.7256 9.8408L32.1006 10.0099L32.5116 9.09823L32.9226 8.18659L32.5476 8.01753L32.1366 8.92916ZM32.5116 9.09823L32.1006 10.0099L32.4756 10.1789L32.8866 9.26729L33.2976 8.35565L32.9226 8.18659L32.5116 9.09823ZM32.8866 9.26729L32.4756 10.1789C32.8689 10.3562 33.2924 10.4379 33.7309 10.3964L33.6366 9.40084L33.5423 8.40529C33.4808 8.41112 33.4043 8.40375 33.2976 8.35565L32.8866 9.26729ZM33.6366 9.40084L33.7309 10.3964L34.1059 10.3609L34.0116 9.36534L33.9173 8.36979L33.5423 8.40529L33.6366 9.40084ZM34.0116 9.36534L34.1059 10.3609L34.4809 10.3254L34.3866 9.32983L34.2923 8.33429L33.9173 8.36979L34.0116 9.36534ZM34.3866 9.32983L34.4809 10.3254C34.8338 10.292 35.1779 10.2047 35.5109 10.0702L35.1366 9.14294L34.7622 8.21565C34.5952 8.28307 34.4394 8.32037 34.2923 8.33429L34.3866 9.32983ZM35.1366 9.14294L35.5109 10.0702L35.8859 9.91884L35.5116 8.99155L35.1372 8.06426L34.7622 8.21565L35.1366 9.14294ZM35.5116 8.99155L35.8859 9.91884L36.2609 9.76745L35.8866 8.84016L35.5122 7.91287L35.1372 8.06426L35.5116 8.99155ZM35.8866 8.84016L36.2609 9.76745C36.4033 9.70999 36.5289 9.68702 36.6432 9.68626L36.6366 8.68628L36.63 7.68631C36.2443 7.68887 35.8699 7.76848 35.5122 7.91287L35.8866 8.84016ZM36.6366 8.68628L36.6432 9.68626L37.0182 9.68377L37.0116 8.6838L37.005 7.68382L36.63 7.68631L36.6366 8.68628ZM37.0116 8.6838L37.0182 9.68377L37.3932 9.68129L37.3866 8.68131L37.38 7.68133L37.005 7.68382L37.0116 8.6838ZM37.3866 8.68131L37.3932 9.68129C37.5473 9.68026 37.7052 9.7009 37.8695 9.74643L38.1366 8.78277L38.4037 7.81911C38.068 7.72604 37.7259 7.67904 37.38 7.68133L37.3866 8.68131ZM38.1366 8.78277L37.8695 9.74643L38.2445 9.85038L38.5116 8.88672L38.7787 7.92305L38.4037 7.81911L38.1366 8.78277ZM38.5116 8.88672L38.2445 9.85038L38.6195 9.95433L38.8866 8.99066L39.1537 8.027L38.7787 7.92305L38.5116 8.88672ZM38.8866 8.99066L38.6195 9.95433C38.917 10.0368 39.2171 10.0963 39.5191 10.132L39.6366 9.13896L39.7541 8.14589C39.5561 8.12248 39.3561 8.08311 39.1537 8.027L38.8866 8.99066ZM39.6366 9.13896L39.5191 10.132L39.8941 10.1764L40.0116 9.18332L40.1291 8.19024L39.7541 8.14589L39.6366 9.13896ZM40.0116 9.18332L39.8941 10.1764L40.2691 10.2207L40.3866 9.22767L40.5041 8.23459L40.1291 8.19024L40.0116 9.18332ZM40.3866 9.22767L40.2691 10.2207C40.4958 10.2476 40.6835 10.2784 40.8358 10.3115L41.0483 9.33437L41.2608 8.35721C41.0309 8.30721 40.7774 8.26693 40.5041 8.23459L40.3866 9.22767ZM41.0483 9.33437L40.8358 10.3115L41.1225 10.3739L41.335 9.39672L41.5475 8.41956L41.2608 8.35721L41.0483 9.33437ZM41.335 9.39672L41.1225 10.3739L41.4092 10.4362L41.6217 9.45906L41.8342 8.4819L41.5475 8.41956L41.335 9.39672ZM41.6217 9.45906L41.4092 10.4362C41.3929 10.4327 41.3786 10.4279 41.3669 10.4229C41.3554 10.4179 41.3484 10.4136 41.3458 10.4119C41.3412 10.4088 41.356 10.4176 41.3863 10.4535L42.1508 9.80885L42.9152 9.16418C42.6518 8.85182 42.2951 8.58214 41.8342 8.4819L41.6217 9.45906ZM42.1508 9.80885L41.3863 10.4535L41.6287 10.741L42.3932 10.0963L43.1576 9.45161L42.9152 9.16418L42.1508 9.80885ZM42.3932 10.0963L41.6287 10.741L41.8711 11.0284L42.6356 10.3837L43.4 9.73905L43.1576 9.45161L42.3932 10.0963ZM42.6356 10.3837L41.8711 11.0284C42.0778 11.2735 42.3084 11.4951 42.5619 11.6926L43.1765 10.9038L43.7911 10.1149C43.6465 10.0023 43.5165 9.87718 43.4 9.73905L42.6356 10.3837ZM43.1765 10.9038L42.5619 11.6926L42.8605 11.9252L43.4751 11.1363L44.0896 10.3475L43.7911 10.1149L43.1765 10.9038ZM43.4751 11.1363L42.8605 11.9252L43.159 12.1578L43.7736 11.3689L44.3882 10.5801L44.0896 10.3475L43.4751 11.1363ZM43.7736 11.3689L43.159 12.1578C43.3092 12.2748 43.4458 12.4034 43.5696 12.5441L44.3203 11.8834L45.0709 11.2227C44.8639 10.9876 44.6361 10.7732 44.3882 10.5801L43.7736 11.3689ZM44.3203 11.8834L43.5696 12.5441L43.8177 12.826L44.5684 12.1653L45.319 11.5046L45.0709 11.2227L44.3203 11.8834ZM44.5684 12.1653L43.8177 12.826L44.0658 13.1079L44.8165 12.4472L45.5671 11.7865L45.319 11.5046L44.5684 12.1653ZM44.8165 12.4472L44.0658 13.1079C44.2053 13.2664 44.3364 13.434 44.459 13.6111L45.2811 13.0417L46.1032 12.4723C45.9371 12.2325 45.7584 12.0038 45.5671 11.7865L44.8165 12.4472ZM45.2811 13.0417L44.459 13.6111L44.6756 13.9237L45.4977 13.3544L46.3198 12.785L46.1032 12.4723L45.2811 13.0417ZM45.4977 13.3544L44.6756 13.9237L44.8922 14.2364L45.7142 13.667L46.5363 13.0977L46.3198 12.785L45.4977 13.3544ZM45.7142 13.667L44.8922 14.2364C45.1608 14.6243 45.53 14.897 45.9578 15.0612L46.3161 14.1276L46.6744 13.194C46.5885 13.161 46.5564 13.1267 46.5363 13.0977L45.7142 13.667ZM46.3161 14.1276L45.9578 15.0612L46.3431 15.2091L46.7014 14.2754L47.0597 13.3418L46.6744 13.194L46.3161 14.1276ZM46.7014 14.2754L46.3431 15.2091L46.7284 15.3569L47.0867 14.4233L47.445 13.4897L47.0597 13.3418L46.7014 14.2754ZM47.0867 14.4233L46.7284 15.3569C46.9266 15.433 47.1019 15.5216 47.2571 15.6209L47.7963 14.7787L48.3354 13.9365C48.0583 13.7591 47.7606 13.6108 47.445 13.4897L47.0867 14.4233ZM47.7963 14.7787L47.2571 15.6209L47.5813 15.8285L48.1205 14.9863L48.6596 14.1441L48.3354 13.9365L47.7963 14.7787ZM48.1205 14.9863L47.5813 15.8285L47.9055 16.036L48.4447 15.1938L48.9838 14.3516L48.6596 14.1441L48.1205 14.9863ZM48.4447 15.1938L47.9055 16.036C48.009 16.1023 48.0901 16.1816 48.156 16.2786L48.983 15.7164L49.81 15.1542C49.5904 14.8311 49.3126 14.5621 48.9838 14.3516L48.4447 15.1938ZM48.983 15.7164L48.156 16.2786L48.3702 16.5936L49.1972 16.0314L50.0242 15.4692L49.81 15.1542L48.983 15.7164ZM49.1972 16.0314L48.3702 16.5936L48.5843 16.9086L49.4113 16.3464L50.2383 15.7843L50.0242 15.4692L49.1972 16.0314ZM49.4113 16.3464L48.5843 16.9086C48.6496 17.0047 48.6788 17.054 48.6869 17.069C48.6926 17.0796 48.6754 17.0501 48.6564 16.9952C48.647 16.968 48.6272 16.9063 48.6163 16.8223C48.6072 16.7522 48.5902 16.5683 48.6732 16.3518L49.607 16.7097L50.5407 17.0676C50.6268 16.843 50.6105 16.6483 50.5996 16.5647C50.587 16.467 50.5629 16.3889 50.5469 16.3426C50.5148 16.2494 50.4746 16.1705 50.4477 16.1205C50.3906 16.0145 50.3158 15.8982 50.2383 15.7843L49.4113 16.3464ZM49.607 16.7097L48.6732 16.3518L48.6547 16.4L49.5885 16.7579L50.5223 17.1158L50.5407 17.0676L49.607 16.7097ZM49.5885 16.7579L48.6547 16.4L48.6362 16.4483L49.57 16.8061L50.5038 17.164L50.5223 17.1158L49.5885 16.7579ZM49.57 16.8061L48.6362 16.4483C48.5849 16.5821 48.5712 16.7091 48.5693 16.7236C48.5631 16.772 48.5587 16.8219 48.5555 16.8668C48.5488 16.9585 48.5434 17.0744 48.5388 17.2085L49.5382 17.2427L50.5377 17.2769C50.5419 17.1521 50.5463 17.0658 50.5502 17.012C50.5522 16.9842 50.5534 16.9755 50.5529 16.9794C50.5526 16.9813 50.5509 16.9952 50.5467 17.0164C50.5445 17.0273 50.5409 17.0447 50.5352 17.0663C50.53 17.0864 50.5201 17.1213 50.5038 17.164L49.57 16.8061ZM49.5382 17.2427L48.5388 17.2085L48.5256 17.5969L49.525 17.631L50.5244 17.6652L50.5377 17.2769L49.5382 17.2427Z" fill="black"/>
<ellipse cx="25.2332" cy="9.02793" rx="16.8357" ry="7.48252" fill="#FFFDF8"/>
<path d="M41.997 10.1929L40.9989 10.1312L41.997 10.1929ZM41.6429 10.8076L42.2086 11.6322L41.6429 10.8076ZM40.9827 11.2605L40.417 10.4359L40.9827 11.2605ZM40.4788 11.842L39.5807 11.4023L40.4788 11.842ZM40.3049 12.197L41.2031 12.6368L40.3049 12.197ZM40.1311 12.5521L39.233 12.1123L40.1311 12.5521ZM39.6694 13.1697L40.3433 13.9085L39.6694 13.1697ZM39.0937 13.6948L38.4198 12.9559L39.0937 13.6948ZM38.4154 14.029L38.2347 13.0455L38.4154 14.029ZM37.6346 14.1725L37.4539 13.189L37.6346 14.1725ZM36.1976 14.6522L36.5608 15.5839L36.1976 14.6522ZM35.5224 15.005L34.969 14.1721L35.5224 15.005ZM35.1962 15.2218L35.7496 16.0547L35.1962 15.2218ZM34.8699 15.4386L34.3165 14.6057L34.8699 15.4386ZM34.1663 15.7108L34.3116 16.7002L34.1663 15.7108ZM33.4118 15.8216L33.2665 14.8322L33.4118 15.8216ZM32.6339 15.7818L32.4027 16.7547L32.6339 15.7818ZM32.2333 15.6866L32.0021 16.6595L32.2333 15.6866ZM31.8328 15.5914L32.064 14.6185L31.8328 15.5914ZM31.0986 15.7918L30.4355 15.0433L31.0986 15.7918ZM30.7649 16.0874L30.1018 15.3388L30.7649 16.0874ZM30.4313 16.3829L31.0944 17.1314L30.4313 16.3829ZM29.7127 16.6427L29.6202 17.6384L29.7127 16.6427ZM29.3278 16.607L29.2354 17.6027L29.3278 16.607ZM28.943 16.5712L29.0354 15.5755L28.943 16.5712ZM28.1868 16.6568L27.8761 15.7063L28.1868 16.6568ZM27.8155 16.7781L28.1261 17.7287L27.8155 16.7781ZM27.4442 16.8995L27.7548 17.85L27.4442 16.8995ZM26.6913 16.8524L26.2875 17.7672L26.6913 16.8524ZM26.3097 16.684L26.7135 15.7691L26.3097 16.684ZM25.9281 16.5155L26.3319 15.6007L25.9281 16.5155ZM25.171 16.3909L25.0551 15.3977L25.171 16.3909ZM24.42 16.4786L24.3041 15.4854L24.42 16.4786ZM23.6665 16.5505L23.5925 15.5532L23.6665 16.5505ZM22.9105 16.6066L22.9844 17.6038L22.9105 16.6066ZM21.7608 16.7464L21.9042 17.7361L21.7608 16.7464ZM21.375 16.8023L21.2316 15.8126L21.375 16.8023ZM20.6516 16.5507L19.9781 17.2898L20.6516 16.5507ZM20.3141 16.2431L20.9877 15.504L20.3141 16.2431ZM19.9766 15.9356L20.6502 15.1964L19.9766 15.9356ZM19.223 15.8135L18.8159 14.9001L19.223 15.8135ZM18.8069 15.9989L19.214 16.9123L18.8069 15.9989ZM18.3908 16.1844L18.7979 17.0978L18.3908 16.1844ZM17.3007 15.9269L17.8499 15.0912L17.3007 15.9269ZM16.9636 15.7054L16.4144 16.541L16.9636 15.7054ZM16.2421 15.4524L16.3235 14.4558L16.2421 15.4524ZM15.4731 15.3896L15.3917 16.3863L15.4731 15.3896ZM14.811 15.0319L15.5726 14.3839L14.811 15.0319ZM14.2557 14.3793L13.4941 15.0273L14.2557 14.3793ZM13.5221 14.1415L13.3314 13.1599L13.5221 14.1415ZM12.6102 14.3186L12.8009 15.3003L12.6102 14.3186ZM11.8602 14.1439L11.1931 14.8889L11.8602 14.1439ZM11.272 13.6173L11.9391 12.8723L11.272 13.6173ZM10.6979 13.0901L10.0122 13.818L10.6979 13.0901ZM10.4179 12.8263L11.1037 12.0985L10.4179 12.8263ZM10.1379 12.5625L9.45218 13.2903L10.1379 12.5625ZM9.59208 12.0163L10.3202 11.3308L9.59208 12.0163ZM9.06038 11.4514L8.33223 12.1368L9.06038 11.4514ZM8.8042 9.21062L7.85573 9.52749H7.85573L8.8042 9.21062ZM8.68597 8.85673L9.63445 8.53986L8.68597 8.85673ZM8.56775 8.50283L7.61927 8.81969L8.56775 8.50283ZM8.60204 7.80018L7.68582 7.39949L8.60204 7.80018ZM9.42451 6.59526L9.82325 7.51232L9.42451 6.59526ZM10.1543 6.27792L10.5531 7.19498L10.1543 6.27792ZM10.6812 5.72128L11.6074 6.09815L10.6812 5.72128ZM11.005 4.92534L10.0788 4.54847L11.005 4.92534ZM11.5327 4.40218L11.2089 3.45606L11.5327 4.40218ZM13.0042 3.95145L12.8072 2.97105L13.0042 3.95145ZM13.3784 3.87626L13.1813 2.89586L13.3784 3.87626ZM13.7525 3.80106L13.5555 2.82067L13.7525 3.80106ZM15.7355 2.66443L15.4355 1.71048L15.7355 2.66443ZM16.4566 2.43764L16.1566 1.4837L16.4566 2.43764ZM17.2247 2.43576L16.9607 3.40029L17.2247 2.43576ZM18.0396 2.65877L18.3035 1.69423L18.0396 2.65877ZM18.77 2.44442L18.0598 1.74046L18.77 2.44442ZM19.416 1.79272L20.1262 2.49669L19.416 1.79272ZM20.1417 1.65858L20.5715 0.75563L20.1417 1.65858ZM20.9473 2.04199L21.3771 1.13904L20.9473 2.04199ZM22.4492 2.02658L22.264 1.04388L22.4492 2.02658ZM23.1814 1.71739L23.7302 2.55339L23.1814 1.71739ZM23.9132 1.23708L23.3645 0.401077L23.9132 1.23708ZM24.6598 1.00025L24.6511 2.00022L24.6598 1.00025ZM26.1707 1.23727L26.6952 0.385829L26.1707 1.23727ZM26.5393 1.46428L26.0148 2.31572L26.5393 1.46428ZM28.4117 1.75467L28.2691 0.764897L28.4117 1.75467ZM29.1636 1.73601L29.2593 0.7406L29.1636 1.73601ZM30.6473 1.94331L30.9118 0.978919L30.6473 1.94331ZM31.0105 2.04293L30.7461 3.00732L31.0105 2.04293ZM31.3738 2.14255L31.1093 3.10694L31.3738 2.14255ZM32.0952 2.34986L32.3831 1.39222L32.0952 2.34986ZM32.4533 2.45755L32.1654 3.41519L32.4533 2.45755ZM32.8115 2.56525L33.0994 1.60761L32.8115 2.56525ZM33.514 2.81721L33.1276 3.73956L33.514 2.81721ZM34.9648 3.18451L35.1197 4.17243L34.9648 3.18451ZM35.7998 3.05352L35.6448 2.0656L35.7998 3.05352ZM36.5388 3.20126L37.0916 2.36791L36.5388 3.20126ZM37.1818 3.62773L37.7346 2.79438L37.1818 3.62773ZM37.8966 3.91612L38.0843 2.93389L37.8966 3.91612ZM38.6833 4.06642L38.4956 5.04865L38.6833 4.06642ZM39.2924 4.49727L40.1473 3.97851L39.2924 4.49727ZM40.2331 5.79694L40.8546 5.01353L40.2331 5.79694ZM40.5262 6.02952L39.9047 6.81293L40.5262 6.02952ZM40.8194 6.2621L41.4409 5.47869L40.8194 6.2621ZM41.304 6.81826L42.1647 6.3091L41.304 6.81826ZM41.6868 7.46541L40.8262 7.97457L41.6868 7.46541ZM42.0072 8.09873L41.0839 8.48293L42.0072 8.09873ZM42.0449 9.41624L43.043 9.47785L42.0449 9.41624ZM42.021 9.80455L41.0229 9.74294L40.9989 10.1312L41.997 10.1929L42.9951 10.2545L43.0191 9.86617L42.021 9.80455ZM41.997 10.1929L40.9989 10.1312C40.9995 10.1218 41.0047 10.0854 41.0299 10.0416C41.0547 9.99865 41.0798 9.98121 41.0772 9.98299L41.6429 10.8076L42.2086 11.6322C42.674 11.313 42.9595 10.8309 42.9951 10.2545L41.997 10.1929ZM41.6429 10.8076L41.0772 9.98299L40.7471 10.2094L41.3128 11.0341L41.8785 11.8587L42.2086 11.6322L41.6429 10.8076ZM41.3128 11.0341L40.7471 10.2094L40.417 10.4359L40.9827 11.2605L41.5484 12.0851L41.8785 11.8587L41.3128 11.0341ZM40.9827 11.2605L40.417 10.4359C40.0567 10.6831 39.7733 11.0087 39.5807 11.4023L40.4788 11.842L41.3769 12.2817C41.416 12.2019 41.4686 12.1399 41.5484 12.0851L40.9827 11.2605ZM40.4788 11.842L39.5807 11.4023L39.4068 11.7573L40.3049 12.197L41.2031 12.6368L41.3769 12.2817L40.4788 11.842ZM40.3049 12.197L39.4068 11.7573L39.233 12.1123L40.1311 12.5521L41.0292 12.9918L41.2031 12.6368L40.3049 12.197ZM40.1311 12.5521L39.233 12.1123C39.1716 12.2378 39.0932 12.3418 38.9955 12.4308L39.6694 13.1697L40.3433 13.9085C40.6295 13.6475 40.8589 13.3397 41.0292 12.9918L40.1311 12.5521ZM39.6694 13.1697L38.9955 12.4308L38.7077 12.6934L39.3815 13.4322L40.0554 14.1711L40.3433 13.9085L39.6694 13.1697ZM39.3815 13.4322L38.7077 12.6934L38.4198 12.9559L39.0937 13.6948L39.7675 14.4336L40.0554 14.1711L39.3815 13.4322ZM39.0937 13.6948L38.4198 12.9559C38.3689 13.0024 38.3146 13.0308 38.2347 13.0455L38.4154 14.029L38.5961 15.0126C39.0367 14.9316 39.4346 14.7372 39.7675 14.4336L39.0937 13.6948ZM38.4154 14.029L38.2347 13.0455L37.8443 13.1172L38.025 14.1008L38.2057 15.0843L38.5961 15.0126L38.4154 14.029ZM38.025 14.1008L37.8443 13.1172L37.4539 13.189L37.6346 14.1725L37.8153 15.156L38.2057 15.0843L38.025 14.1008ZM37.6346 14.1725L37.4539 13.189C37.135 13.2475 36.8272 13.3335 36.5321 13.4485L36.8953 14.3802L37.2585 15.3119C37.4286 15.2456 37.6136 15.1931 37.8153 15.156L37.6346 14.1725ZM36.8953 14.3802L36.5321 13.4485L36.1832 13.5845L36.5464 14.5162L36.9096 15.4479L37.2585 15.3119L36.8953 14.3802ZM36.5464 14.5162L36.1832 13.5845L35.8344 13.7205L36.1976 14.6522L36.5608 15.5839L36.9096 15.4479L36.5464 14.5162ZM36.1976 14.6522L35.8344 13.7205C35.532 13.8383 35.2435 13.9897 34.969 14.1721L35.5224 15.005L36.0758 15.8379C36.2364 15.7312 36.3979 15.6474 36.5608 15.5839L36.1976 14.6522ZM35.5224 15.005L34.969 14.1721L34.6427 14.3889L35.1962 15.2218L35.7496 16.0547L36.0758 15.8379L35.5224 15.005ZM35.1962 15.2218L34.6427 14.3889L34.3165 14.6057L34.8699 15.4386L35.4233 16.2715L35.7496 16.0547L35.1962 15.2218ZM34.8699 15.4386L34.3165 14.6057C34.2183 14.6709 34.1226 14.7065 34.021 14.7214L34.1663 15.7108L34.3116 16.7002C34.7131 16.6412 35.0864 16.4953 35.4233 16.2715L34.8699 15.4386ZM34.1663 15.7108L34.021 14.7214L33.6437 14.7768L33.7891 15.7662L33.9344 16.7556L34.3116 16.7002L34.1663 15.7108ZM33.7891 15.7662L33.6437 14.7768L33.2665 14.8322L33.4118 15.8216L33.5571 16.811L33.9344 16.7556L33.7891 15.7662ZM33.4118 15.8216L33.2665 14.8322C33.15 14.8493 33.0187 14.8454 32.8651 14.8089L32.6339 15.7818L32.4027 16.7547C32.7832 16.8451 33.1705 16.8678 33.5571 16.811L33.4118 15.8216ZM32.6339 15.7818L32.8651 14.8089L32.4645 14.7137L32.2333 15.6866L32.0021 16.6595L32.4027 16.7547L32.6339 15.7818ZM32.2333 15.6866L32.4645 14.7137L32.064 14.6185L31.8328 15.5914L31.6016 16.5643L32.0021 16.6595L32.2333 15.6866ZM31.8328 15.5914L32.064 14.6185C31.4506 14.4728 30.8781 14.6512 30.4355 15.0433L31.0986 15.7918L31.7617 16.5403C31.7776 16.5262 31.7613 16.5453 31.7122 16.5586C31.689 16.565 31.6652 16.5681 31.6432 16.5682C31.6215 16.5684 31.6071 16.5656 31.6016 16.5643L31.8328 15.5914ZM31.0986 15.7918L30.4355 15.0433L30.1018 15.3388L30.7649 16.0874L31.428 16.8359L31.7617 16.5403L31.0986 15.7918ZM30.7649 16.0874L30.1018 15.3388L29.7682 15.6344L30.4313 16.3829L31.0944 17.1314L31.428 16.8359L30.7649 16.0874ZM30.4313 16.3829L29.7682 15.6344C29.736 15.6628 29.7276 15.6614 29.7448 15.6552C29.753 15.6523 29.7639 15.6494 29.7765 15.6478C29.789 15.6462 29.799 15.6464 29.8052 15.647L29.7127 16.6427L29.6202 17.6384C30.195 17.6918 30.6997 17.481 31.0944 17.1314L30.4313 16.3829ZM29.7127 16.6427L29.8052 15.647L29.4203 15.6112L29.3278 16.607L29.2354 17.6027L29.6202 17.6384L29.7127 16.6427ZM29.3278 16.607L29.4203 15.6112L29.0354 15.5755L28.943 16.5712L28.8505 17.5669L29.2354 17.6027L29.3278 16.607ZM28.943 16.5712L29.0354 15.5755C28.6413 15.5389 28.2521 15.5834 27.8761 15.7063L28.1868 16.6568L28.4974 17.6073C28.6165 17.5684 28.7314 17.5559 28.8505 17.5669L28.943 16.5712ZM28.1868 16.6568L27.8761 15.7063L27.5048 15.8276L27.8155 16.7781L28.1261 17.7287L28.4974 17.6073L28.1868 16.6568ZM27.8155 16.7781L27.5048 15.8276L27.1335 15.9489L27.4442 16.8995L27.7548 17.85L28.1261 17.7287L27.8155 16.7781ZM27.4442 16.8995L27.1335 15.9489C27.1285 15.9506 27.1269 15.9506 27.1282 15.9505C27.1296 15.9503 27.1314 15.9502 27.1327 15.9503C27.134 15.9504 27.1323 15.9504 27.1269 15.9491C27.1214 15.9477 27.1109 15.9445 27.0951 15.9375L26.6913 16.8524L26.2875 17.7672C26.7508 17.9717 27.2561 18.013 27.7548 17.85L27.4442 16.8995ZM26.6913 16.8524L27.0951 15.9375L26.7135 15.7691L26.3097 16.684L25.9059 17.5988L26.2875 17.7672L26.6913 16.8524ZM26.3097 16.684L26.7135 15.7691L26.3319 15.6007L25.9281 16.5155L25.5243 17.4304L25.9059 17.5988L26.3097 16.684ZM25.9281 16.5155L26.3319 15.6007C25.9317 15.424 25.5005 15.3457 25.0551 15.3977L25.171 16.3909L25.287 17.3842C25.3423 17.3777 25.4158 17.3825 25.5243 17.4304L25.9281 16.5155ZM25.171 16.3909L25.0551 15.3977L24.6796 15.4415L24.7955 16.4348L24.9115 17.428L25.287 17.3842L25.171 16.3909ZM24.7955 16.4348L24.6796 15.4415L24.3041 15.4854L24.42 16.4786L24.536 17.4719L24.9115 17.428L24.7955 16.4348ZM24.42 16.4786L24.3041 15.4854C24.0677 15.513 23.8306 15.5356 23.5925 15.5532L23.6665 16.5505L23.7405 17.5478C24.0065 17.528 24.2716 17.5027 24.536 17.4719L24.42 16.4786ZM23.6665 16.5505L23.5925 15.5532L23.2145 15.5813L23.2885 16.5785L23.3624 17.5758L23.7405 17.5478L23.6665 16.5505ZM23.2885 16.5785L23.2145 15.5813L22.8365 15.6093L22.9105 16.6066L22.9844 17.6038L23.3624 17.5758L23.2885 16.5785ZM22.9105 16.6066L22.8365 15.6093C22.5606 15.6298 22.2828 15.6603 22.0032 15.7008L22.1466 16.6905L22.29 17.6802C22.5248 17.6461 22.7563 17.6207 22.9844 17.6038L22.9105 16.6066ZM22.1466 16.6905L22.0032 15.7008L21.6174 15.7567L21.7608 16.7464L21.9042 17.7361L22.29 17.6802L22.1466 16.6905ZM21.7608 16.7464L21.6174 15.7567L21.2316 15.8126L21.375 16.8023L21.5183 17.792L21.9042 17.7361L21.7608 16.7464ZM21.375 16.8023L21.2316 15.8126C21.2426 15.811 21.2587 15.8101 21.2782 15.8119C21.2978 15.8137 21.3155 15.8179 21.3298 15.8229C21.359 15.833 21.3566 15.8402 21.3252 15.8115L20.6516 16.5507L19.9781 17.2898C20.382 17.6579 20.9129 17.8797 21.5183 17.792L21.375 16.8023ZM20.6516 16.5507L21.3252 15.8115L20.9877 15.504L20.3141 16.2431L19.6406 16.9823L19.9781 17.2898L20.6516 16.5507ZM20.3141 16.2431L20.9877 15.504L20.6502 15.1964L19.9766 15.9356L19.3031 16.6747L19.6406 16.9823L20.3141 16.2431ZM19.9766 15.9356L20.6502 15.1964C20.4227 14.9891 20.1315 14.8212 19.7794 14.7641C19.4271 14.7071 19.0975 14.7746 18.8159 14.9001L19.223 15.8135L19.6301 16.7269C19.6259 16.7287 19.5607 16.7548 19.4596 16.7384C19.3587 16.7221 19.3056 16.677 19.3031 16.6747L19.9766 15.9356ZM19.223 15.8135L18.8159 14.9001L18.3998 15.0856L18.8069 15.9989L19.214 16.9123L19.6301 16.7269L19.223 15.8135ZM18.8069 15.9989L18.3998 15.0856L17.9837 15.271L18.3908 16.1844L18.7979 17.0978L19.214 16.9123L18.8069 15.9989ZM18.3908 16.1844L17.9837 15.271C17.9584 15.2823 17.9823 15.2664 18.0423 15.2693C18.0714 15.2707 18.1013 15.2762 18.1293 15.2857C18.157 15.2949 18.1763 15.3057 18.1869 15.3127L17.6377 16.1484L17.0885 16.984C17.6388 17.3457 18.2569 17.3389 18.7979 17.0978L18.3908 16.1844ZM17.6377 16.1484L18.1869 15.3127L17.8499 15.0912L17.3007 15.9269L16.7514 16.7625L17.0885 16.984L17.6377 16.1484ZM17.3007 15.9269L17.8499 15.0912L17.5129 14.8697L16.9636 15.7054L16.4144 16.541L16.7514 16.7625L17.3007 15.9269ZM16.9636 15.7054L17.5129 14.8697C17.1548 14.6343 16.7545 14.491 16.3235 14.4558L16.2421 15.4524L16.1607 16.4491C16.2424 16.4558 16.3231 16.481 16.4144 16.541L16.9636 15.7054ZM16.2421 15.4524L16.3235 14.4558L15.9391 14.4244L15.8576 15.421L15.7762 16.4177L16.1607 16.4491L16.2421 15.4524ZM15.8576 15.421L15.9391 14.4244L15.5546 14.3929L15.4731 15.3896L15.3917 16.3863L15.7762 16.4177L15.8576 15.421ZM15.4731 15.3896L15.5546 14.3929C15.5561 14.3931 15.5615 14.3937 15.5695 14.3961C15.5776 14.3984 15.5849 14.4016 15.5907 14.4047C15.5963 14.4077 15.5978 14.4093 15.5951 14.4071C15.5923 14.4048 15.5846 14.3979 15.5726 14.3839L14.811 15.0319L14.0494 15.6799C14.3853 16.0747 14.8411 16.3413 15.3917 16.3863L15.4731 15.3896ZM14.811 15.0319L15.5726 14.3839L15.295 14.0575L14.5334 14.7056L13.7717 15.3536L14.0494 15.6799L14.811 15.0319ZM14.5334 14.7056L15.295 14.0575L15.0173 13.7312L14.2557 14.3793L13.4941 15.0273L13.7717 15.3536L14.5334 14.7056ZM14.2557 14.3793L15.0173 13.7312C14.5752 13.2116 13.9533 13.039 13.3314 13.1599L13.5221 14.1415L13.7128 15.1232C13.7324 15.1193 13.6939 15.1302 13.6252 15.1079C13.552 15.0842 13.5079 15.0435 13.4941 15.0273L14.2557 14.3793ZM13.5221 14.1415L13.3314 13.1599L12.8755 13.2484L13.0662 14.2301L13.2568 15.2117L13.7128 15.1232L13.5221 14.1415ZM13.0662 14.2301L12.8755 13.2484L12.4195 13.337L12.6102 14.3186L12.8009 15.3003L13.2568 15.2117L13.0662 14.2301ZM12.6102 14.3186L12.4195 13.337C12.3778 13.3451 12.3843 13.3366 12.4216 13.3453C12.44 13.3496 12.4608 13.357 12.4816 13.3678C12.5022 13.3786 12.5175 13.3902 12.5272 13.3989L11.8602 14.1439L11.1931 14.8889C11.6652 15.3116 12.251 15.4071 12.8009 15.3003L12.6102 14.3186ZM11.8602 14.1439L12.5272 13.3989L12.2332 13.1356L11.5661 13.8806L10.899 14.6256L11.1931 14.8889L11.8602 14.1439ZM11.5661 13.8806L12.2332 13.1356L11.9391 12.8723L11.272 13.6173L10.605 14.3623L10.899 14.6256L11.5661 13.8806ZM11.272 13.6173L11.9391 12.8723C11.7492 12.7022 11.564 12.5322 11.3837 12.3623L10.6979 13.0901L10.0122 13.818C10.2052 13.9998 10.4028 14.1812 10.605 14.3623L11.272 13.6173ZM10.6979 13.0901L11.3837 12.3623L11.1037 12.0985L10.4179 12.8263L9.73218 13.5542L10.0122 13.818L10.6979 13.0901ZM10.4179 12.8263L11.1037 12.0985L10.8237 11.8347L10.1379 12.5625L9.45218 13.2903L9.73218 13.5542L10.4179 12.8263ZM10.1379 12.5625L10.8237 11.8347C10.6517 11.6726 10.4839 11.5047 10.3202 11.3308L9.59208 12.0163L8.86393 12.7017C9.05476 12.9044 9.25084 13.1006 9.45218 13.2903L10.1379 12.5625ZM9.59208 12.0163L10.3202 11.3308L10.0544 11.0484L9.32623 11.7338L8.59808 12.4193L8.86393 12.7017L9.59208 12.0163ZM9.32623 11.7338L10.0544 11.0484L9.78854 10.766L9.06038 11.4514L8.33223 12.1368L8.59808 12.4193L9.32623 11.7338ZM9.06038 11.4514L9.78854 10.766C9.78836 10.7658 9.79263 10.7704 9.79854 10.78C9.80457 10.7898 9.8105 10.802 9.81514 10.8156C9.82527 10.8452 9.82232 10.8602 9.82335 10.8473L8.82651 10.7679L7.82967 10.6884C7.78687 11.2253 7.9534 11.7344 8.33223 12.1368L9.06038 11.4514ZM8.82651 10.7679L9.82335 10.8473L9.85532 10.4462L8.85848 10.3668L7.86165 10.2873L7.82967 10.6884L8.82651 10.7679ZM8.85848 10.3668L9.85532 10.4462L9.8873 10.0451L8.89046 9.96564L7.89362 9.88618L7.86165 10.2873L8.85848 10.3668ZM8.89046 9.96564L9.8873 10.0451C9.91845 9.6543 9.87735 9.26694 9.75268 8.89376L8.8042 9.21062L7.85573 9.52749C7.8887 9.62617 7.9051 9.74216 7.89362 9.88618L8.89046 9.96564ZM8.8042 9.21062L9.75268 8.89376L9.63445 8.53986L8.68597 8.85673L7.7375 9.17359L7.85573 9.52749L8.8042 9.21062ZM8.68597 8.85673L9.63445 8.53986L9.51622 8.18597L8.56775 8.50283L7.61927 8.81969L7.7375 9.17359L8.68597 8.85673ZM8.56775 8.50283L9.51622 8.18597C9.51464 8.18126 9.51495 8.18089 9.51544 8.18432C9.51594 8.18786 9.5163 8.19303 9.51602 8.19896C9.51573 8.20487 9.51492 8.20895 9.51456 8.21041C9.51424 8.21174 9.51484 8.20867 9.51825 8.20087L8.60204 7.80018L7.68582 7.39949C7.48711 7.85388 7.46024 8.34366 7.61927 8.81969L8.56775 8.50283ZM8.60204 7.80018L9.51825 8.20087L9.67077 7.85212L8.75456 7.45143L7.83834 7.05074L7.68582 7.39949L8.60204 7.80018ZM8.75456 7.45143L9.67077 7.85212L9.82329 7.50336L8.90707 7.10268L7.99086 6.70199L7.83834 7.05074L8.75456 7.45143ZM8.90707 7.10268L9.82329 7.50336C9.82484 7.49981 9.82487 7.50054 9.82254 7.50395C9.82015 7.50746 9.81678 7.51158 9.81286 7.51543C9.80898 7.51923 9.8065 7.52086 9.8069 7.5206C9.80743 7.52024 9.81229 7.51708 9.82325 7.51232L9.42451 6.59526L9.02576 5.67819C8.56258 5.87959 8.19862 6.22692 7.99086 6.70199L8.90707 7.10268ZM9.42451 6.59526L9.82325 7.51232L10.1882 7.35365L9.78942 6.43659L9.39067 5.51953L9.02576 5.67819L9.42451 6.59526ZM9.78942 6.43659L10.1882 7.35365L10.5531 7.19498L10.1543 6.27792L9.75559 5.36086L9.39067 5.51953L9.78942 6.43659ZM10.1543 6.27792L10.5531 7.19498C11.0563 6.97619 11.4096 6.5843 11.6074 6.09815L10.6812 5.72128L9.75491 5.34441C9.74828 5.3607 9.74316 5.36953 9.74102 5.37292C9.739 5.37614 9.7392 5.37522 9.74222 5.37203C9.74531 5.36876 9.74921 5.36539 9.75314 5.36266C9.75699 5.35998 9.75838 5.35965 9.75559 5.36086L10.1543 6.27792ZM10.6812 5.72128L11.6074 6.09815L11.7694 5.70018L10.8431 5.32331L9.91683 4.94644L9.75491 5.34441L10.6812 5.72128ZM10.8431 5.32331L11.7694 5.70018L11.9313 5.30221L11.005 4.92534L10.0788 4.54847L9.91683 4.94644L10.8431 5.32331ZM11.005 4.92534L11.9313 5.30221C11.9423 5.27513 11.9436 5.28426 11.9219 5.30573C11.9117 5.31592 11.8993 5.3257 11.886 5.33391C11.8727 5.34204 11.8621 5.34639 11.8565 5.34831L11.5327 4.40218L11.2089 3.45606C10.659 3.64427 10.2821 4.04862 10.0788 4.54847L11.005 4.92534ZM11.5327 4.40218L11.8565 5.34831L12.2223 5.22313L11.8985 4.277L11.5747 3.33087L11.2089 3.45606L11.5327 4.40218ZM11.8985 4.277L12.2223 5.22313L12.5881 5.09795L12.2643 4.15182L11.9405 3.20569L11.5747 3.33087L11.8985 4.277ZM12.2643 4.15182L12.5881 5.09795C12.791 5.0285 12.9953 4.97323 13.2013 4.93184L13.0042 3.95145L12.8072 2.97105C12.5142 3.02992 12.2253 3.10823 11.9405 3.20569L12.2643 4.15182ZM13.0042 3.95145L13.2013 4.93184L13.5754 4.85665L13.3784 3.87626L13.1813 2.89586L12.8072 2.97105L13.0042 3.95145ZM13.3784 3.87626L13.5754 4.85665L13.9495 4.78146L13.7525 3.80106L13.5555 2.82067L13.1813 2.89586L13.3784 3.87626ZM13.7525 3.80106L13.9495 4.78146C14.3511 4.70076 14.7185 4.53205 15.0435 4.28521L14.4387 3.48886L13.8339 2.69251C13.7428 2.76169 13.6528 2.80111 13.5555 2.82067L13.7525 3.80106ZM14.4387 3.48886L15.0435 4.28521L15.3556 4.0482L14.7508 3.25185L14.1459 2.45549L13.8339 2.69251L14.4387 3.48886ZM14.7508 3.25185L15.3556 4.0482L15.6677 3.81118L15.0628 3.01483L14.458 2.21848L14.1459 2.45549L14.7508 3.25185ZM15.0628 3.01483L15.6677 3.81118C15.7874 3.72028 15.909 3.65813 16.0355 3.61837L15.7355 2.66443L15.4355 1.71048C15.0812 1.82191 14.7544 1.99336 14.458 2.21848L15.0628 3.01483ZM15.7355 2.66443L16.0355 3.61837L16.396 3.50498L16.0961 2.55103L15.7961 1.59709L15.4355 1.71048L15.7355 2.66443ZM16.0961 2.55103L16.396 3.50498L16.7566 3.39158L16.4566 2.43764L16.1566 1.4837L15.7961 1.59709L16.0961 2.55103ZM16.4566 2.43764L16.7566 3.39158C16.7929 3.38018 16.8517 3.37045 16.9607 3.40029L17.2247 2.43576L17.4886 1.47122C17.0544 1.35238 16.6011 1.34392 16.1566 1.4837L16.4566 2.43764ZM17.2247 2.43576L16.9607 3.40029L17.3682 3.5118L17.6321 2.54726L17.8961 1.58273L17.4886 1.47122L17.2247 2.43576ZM17.6321 2.54726L17.3682 3.5118L17.7756 3.6233L18.0396 2.65877L18.3035 1.69423L17.8961 1.58273L17.6321 2.54726ZM18.0396 2.65877L17.7756 3.6233C18.4304 3.80247 19.0377 3.59489 19.4803 3.14839L18.77 2.44442L18.0598 1.74046C18.0468 1.75358 18.0737 1.72213 18.1444 1.70139C18.2196 1.67931 18.2808 1.68801 18.3035 1.69423L18.0396 2.65877ZM18.77 2.44442L19.4803 3.14839L19.8032 2.82254L19.093 2.11857L18.3828 1.41461L18.0598 1.74046L18.77 2.44442ZM19.093 2.11857L19.8032 2.82254L20.1262 2.49669L19.416 1.79272L18.7057 1.08876L18.3828 1.41461L19.093 2.11857ZM19.416 1.79272L20.1262 2.49669C20.1255 2.4974 20.0643 2.55675 19.9407 2.57961C19.8142 2.60298 19.7274 2.56886 19.712 2.56153L20.1417 1.65858L20.5715 0.75563C20.2876 0.620495 19.9456 0.544827 19.5772 0.612918C19.2116 0.68049 18.9218 0.870815 18.7057 1.08876L19.416 1.79272ZM20.1417 1.65858L19.712 2.56153L20.1148 2.75324L20.5445 1.85029L20.9743 0.947336L20.5715 0.75563L20.1417 1.65858ZM20.5445 1.85029L20.1148 2.75324L20.5176 2.94494L20.9473 2.04199L21.3771 1.13904L20.9743 0.947336L20.5445 1.85029ZM20.9473 2.04199L20.5176 2.94494C20.9389 3.14545 21.4108 3.23987 21.9017 3.14736L21.7165 2.16466L21.5313 1.18196C21.5273 1.18271 21.5182 1.18413 21.4985 1.18099C21.4772 1.17759 21.4374 1.16774 21.3771 1.13904L20.9473 2.04199ZM21.7165 2.16466L21.9017 3.14736L22.268 3.07832L22.0828 2.09562L21.8976 1.11292L21.5313 1.18196L21.7165 2.16466ZM22.0828 2.09562L22.268 3.07832L22.6344 3.00928L22.4492 2.02658L22.264 1.04388L21.8976 1.11292L22.0828 2.09562ZM22.4492 2.02658L22.6344 3.00928C23.0288 2.93495 23.3948 2.77348 23.7302 2.55339L23.1814 1.71739L22.6327 0.881386C22.4802 0.981493 22.358 1.02615 22.264 1.04388L22.4492 2.02658ZM23.1814 1.71739L23.7302 2.55339L24.096 2.31323L23.5473 1.47723L22.9986 0.641232L22.6327 0.881386L23.1814 1.71739ZM23.5473 1.47723L24.096 2.31323L24.4619 2.07308L23.9132 1.23708L23.3645 0.401077L22.9986 0.641232L23.5473 1.47723ZM23.9132 1.23708L24.4619 2.07308C24.5658 2.00492 24.6236 1.99998 24.6511 2.00022L24.6598 1.00025L24.6686 0.000292897C24.1884 -0.00390863 23.7485 0.14903 23.3645 0.401077L23.9132 1.23708ZM24.6598 1.00025L24.6511 2.00022L25.0319 2.00355L25.0406 1.00359L25.0494 0.0036248L24.6686 0.000292897L24.6598 1.00025ZM25.0406 1.00359L25.0319 2.00355L25.4127 2.00688L25.4214 1.00692L25.4302 0.00695658L25.0494 0.0036248L25.0406 1.00359ZM25.4214 1.00692L25.4127 2.00688C25.4604 2.0073 25.5341 2.01958 25.6463 2.0887L26.1707 1.23727L26.6952 0.385829C26.316 0.152262 25.8901 0.0109812 25.4302 0.00695658L25.4214 1.00692ZM26.1707 1.23727L25.6463 2.0887L26.0148 2.31572L26.5393 1.46428L27.0637 0.612844L26.6952 0.385829L26.1707 1.23727ZM26.5393 1.46428L26.0148 2.31572L26.3834 2.54273L26.9078 1.69129L27.4323 0.839859L27.0637 0.612844L26.5393 1.46428ZM26.9078 1.69129L26.3834 2.54273C26.8005 2.79965 27.283 2.9277 27.7975 2.85353L27.6548 1.86376L27.5122 0.873991C27.5088 0.87448 27.5081 0.87454 27.5038 0.873552C27.4979 0.872179 27.4745 0.865826 27.4323 0.839859L26.9078 1.69129ZM27.6548 1.86376L27.7975 2.85353L28.1759 2.79899L28.0333 1.80922L27.8906 0.819444L27.5122 0.873991L27.6548 1.86376ZM28.0333 1.80922L28.1759 2.79899L28.5544 2.74444L28.4117 1.75467L28.2691 0.764897L27.8906 0.819444L28.0333 1.80922ZM28.4117 1.75467L28.5544 2.74444C28.7293 2.71923 28.8999 2.71527 29.068 2.73143L29.1636 1.73601L29.2593 0.7406C28.9294 0.708897 28.5988 0.717373 28.2691 0.764897L28.4117 1.75467ZM29.1636 1.73601L29.068 2.73143L29.4414 2.76732L29.5371 1.77191L29.6328 0.776493L29.2593 0.7406L29.1636 1.73601ZM29.5371 1.77191L29.4414 2.76732L29.8149 2.80321L29.9106 1.8078L30.0062 0.812386L29.6328 0.776493L29.5371 1.77191ZM29.9106 1.8078L29.8149 2.80321C30.0066 2.82164 30.1957 2.85639 30.3828 2.9077L30.6473 1.94331L30.9118 0.978919C30.6145 0.897407 30.3125 0.841819 30.0062 0.812386L29.9106 1.8078ZM30.6473 1.94331L30.3828 2.9077L30.7461 3.00732L31.0105 2.04293L31.275 1.07854L30.9118 0.978919L30.6473 1.94331ZM31.0105 2.04293L30.7461 3.00732L31.1093 3.10694L31.3738 2.14255L31.6383 1.17815L31.275 1.07854L31.0105 2.04293ZM31.3738 2.14255L31.1093 3.10694C31.3437 3.17121 31.5763 3.23807 31.8072 3.3075L32.0952 2.34986L32.3831 1.39222C32.1365 1.31806 31.8882 1.2467 31.6383 1.17815L31.3738 2.14255ZM32.0952 2.34986L31.8072 3.3075L32.1654 3.41519L32.4533 2.45755L32.7413 1.49991L32.3831 1.39222L32.0952 2.34986ZM32.4533 2.45755L32.1654 3.41519L32.5235 3.52289L32.8115 2.56525L33.0994 1.60761L32.7413 1.49991L32.4533 2.45755ZM32.8115 2.56525L32.5235 3.52289C32.7289 3.58466 32.9303 3.65687 33.1276 3.73956L33.514 2.81721L33.9004 1.89486C33.6386 1.78519 33.3715 1.68943 33.0994 1.60761L32.8115 2.56525ZM33.514 2.81721L33.1276 3.73956L33.472 3.88382L33.8584 2.96148L34.2448 2.03913L33.9004 1.89486L33.514 2.81721ZM33.8584 2.96148L33.472 3.88382L33.8165 4.02809L34.2028 3.10574L34.5892 2.1834L34.2448 2.03913L33.8584 2.96148ZM34.2028 3.10574L33.8165 4.02809C34.2386 4.20495 34.6831 4.24093 35.1197 4.17243L34.9648 3.18451L34.8098 2.1966C34.6897 2.21543 34.6262 2.1989 34.5892 2.1834L34.2028 3.10574ZM34.9648 3.18451L35.1197 4.17243L35.5373 4.10693L35.3823 3.11902L35.2273 2.1311L34.8098 2.1966L34.9648 3.18451ZM35.3823 3.11902L35.5373 4.10693L35.9548 4.04144L35.7998 3.05352L35.6448 2.0656L35.2273 2.1311L35.3823 3.11902ZM35.7998 3.05352L35.9548 4.04144C35.9736 4.03848 35.9857 4.03807 35.9919 4.03813C35.998 4.0382 35.9994 4.03872 35.9973 4.0383C35.9951 4.03785 35.9918 4.03692 35.9884 4.03552C35.9851 4.03413 35.9842 4.03334 35.9861 4.0346L36.5388 3.20126L37.0916 2.36791C36.6483 2.0739 36.1445 1.98721 35.6448 2.0656L35.7998 3.05352ZM36.5388 3.20126L35.9861 4.0346L36.3076 4.24784L36.8603 3.41449L37.4131 2.58115L37.0916 2.36791L36.5388 3.20126ZM36.8603 3.41449L36.3076 4.24784L36.6291 4.46108L37.1818 3.62773L37.7346 2.79438L37.4131 2.58115L36.8603 3.41449ZM37.1818 3.62773L36.6291 4.46108C36.9582 4.67939 37.3214 4.82431 37.7089 4.89835L37.8966 3.91612L38.0843 2.93389C37.9474 2.90773 37.8341 2.86039 37.7346 2.79438L37.1818 3.62773ZM37.8966 3.91612L37.7089 4.89835L38.1023 4.9735L38.2899 3.99127L38.4776 3.00904L38.0843 2.93389L37.8966 3.91612ZM38.2899 3.99127L38.1023 4.9735L38.4956 5.04865L38.6833 4.06642L38.8709 3.08419L38.4776 3.00904L38.2899 3.99127ZM38.6833 4.06642L38.4956 5.04865C38.4977 5.04906 38.4933 5.04839 38.4844 5.04471C38.4754 5.04095 38.465 5.03539 38.4548 5.02814C38.4446 5.02093 38.4377 5.01432 38.4342 5.01049C38.4309 5.00685 38.4325 5.00776 38.4375 5.01603L39.2924 4.49727L40.1473 3.97851C39.8631 3.51014 39.4232 3.18971 38.8709 3.08419L38.6833 4.06642ZM39.2924 4.49727L38.4375 5.01603L38.6533 5.37172L39.5082 4.85297L40.3632 4.33421L40.1473 3.97851L39.2924 4.49727ZM39.5082 4.85297L38.6533 5.37172L38.8692 5.72742L39.7241 5.20866L40.579 4.6899L40.3632 4.33421L39.5082 4.85297ZM39.7241 5.20866L38.8692 5.72742C39.0677 6.05463 39.3134 6.34383 39.6116 6.58035L40.2331 5.79694L40.8546 5.01353C40.7618 4.93994 40.6682 4.83696 40.579 4.6899L39.7241 5.20866ZM40.2331 5.79694L39.6116 6.58035L39.9047 6.81293L40.5262 6.02952L41.1477 5.24611L40.8546 5.01353L40.2331 5.79694ZM40.5262 6.02952L39.9047 6.81293L40.1979 7.04551L40.8194 6.2621L41.4409 5.47869L41.1477 5.24611L40.5262 6.02952ZM40.8194 6.2621L40.1979 7.04551C40.2971 7.12418 40.3777 7.21647 40.4433 7.32742L41.304 6.81826L42.1647 6.3091C41.9751 5.98861 41.7326 5.71012 41.4409 5.47869L40.8194 6.2621ZM41.304 6.81826L40.4433 7.32742L40.6348 7.65099L41.4954 7.14184L42.3561 6.63268L42.1647 6.3091L41.304 6.81826ZM41.4954 7.14184L40.6348 7.65099L40.8262 7.97457L41.6868 7.46541L42.5475 6.95626L42.3561 6.63268L41.4954 7.14184ZM41.6868 7.46541L40.8262 7.97457C40.9328 8.15487 41.0179 8.32428 41.0839 8.48293L42.0072 8.09873L42.9304 7.71452C42.8246 7.46019 42.6961 7.2074 42.5475 6.95626L41.6868 7.46541ZM42.0072 8.09873L41.0839 8.48293L41.2128 8.79267L42.1361 8.40846L43.0593 8.02425L42.9304 7.71452L42.0072 8.09873ZM42.1361 8.40846L41.2128 8.79267L41.3417 9.1024L42.265 8.71819L43.1882 8.33399L43.0593 8.02425L42.1361 8.40846ZM42.265 8.71819L41.3417 9.1024C41.3806 9.19575 41.3646 9.17856 41.353 9.10258C41.3504 9.08614 41.3157 8.89508 41.4024 8.66101C41.4541 8.52157 41.5586 8.34303 41.7538 8.20553C41.9503 8.06712 42.157 8.02793 42.3126 8.02793V9.02793V10.0279C42.4818 10.0279 42.6998 9.98551 42.9055 9.84065C43.1099 9.69669 43.2213 9.50848 43.2778 9.35613C43.3741 9.09625 43.3402 8.86647 43.3297 8.79841C43.3021 8.61919 43.2353 8.44713 43.1882 8.33399L42.265 8.71819ZM42.3126 9.02793V8.02793H42.2314V9.02793V10.0279H42.3126V9.02793ZM42.2314 9.02793V8.02793H42.1501V9.02793V10.0279H42.2314V9.02793ZM42.1501 9.02793V8.02793C41.6761 8.02793 41.3977 8.32806 41.2898 8.48465C41.1846 8.63727 41.1386 8.78766 41.118 8.8635C41.0732 9.0288 41.0559 9.20785 41.0468 9.35462L42.0449 9.41624L43.043 9.47785C43.05 9.36576 43.0581 9.35065 43.0484 9.38651C43.0454 9.39764 43.0193 9.49948 42.9364 9.61975C42.8508 9.74398 42.5971 10.0279 42.1501 10.0279V9.02793ZM42.0449 9.41624L41.0468 9.35462L41.0229 9.74294L42.021 9.80455L43.0191 9.86617L43.043 9.47785L42.0449 9.41624Z" fill="black"/>
</svg>
