<svg width="85" height="36" viewBox="0 0 85 36" fill="none" xmlns="http://www.w3.org/2000/svg">
<path d="M1.5726 1.5083H82.5726V33.5083H1.5726V1.5083Z" fill="#FFFDF8"/>
<path d="M6.4476 1.04744L6.42655 2.04722L6.4476 1.04744ZM18.4476 1.88297L18.5366 2.879L18.4476 1.88297ZM19.1976 1.81597L19.1086 0.819934L19.1976 1.81597ZM28.9476 1.81942L28.7436 0.840447L28.9476 1.81942ZM37.1976 1.16812L37.1331 0.170203L37.1976 1.16812ZM39.4476 1.50587L38.9841 0.619764L39.4476 1.50587ZM40.1976 1.11357L39.7341 0.227469L40.1976 1.11357ZM46.1976 1.95601L45.8436 2.89127L46.1976 1.95601ZM55.1976 1.6041L55.1146 2.60064L55.1976 1.6041ZM55.9476 1.47554L55.5556 0.555594L55.9476 1.47554ZM56.3226 1.31573L55.9306 0.395782L56.3226 1.31573ZM57.4476 1.17346L57.0201 2.07745V2.07745L57.4476 1.17346ZM59.6976 1.15288L59.2567 0.255332L59.6976 1.15288ZM69.4476 1.86465L69.445 2.86465L69.4476 1.86465ZM71.6976 1.78287L71.6225 0.785695L71.6976 1.78287ZM72.4476 1.83783L72.6642 0.861563L72.4476 1.83783ZM73.1976 2.00421L72.981 2.98048L73.1976 2.00421ZM76.1976 1.73598L75.8573 2.67631L76.1976 1.73598ZM81.8226 1.29363L81.6862 0.302977L81.8226 1.29363ZM82.6477 1.64485L81.661 1.8078L82.6477 1.64485ZM82.7978 2.55382L83.7844 2.39088L82.7978 2.55382ZM83.0024 3.7583L82.017 3.9285L83.0024 3.7583ZM83.0671 4.1333L84.0526 3.9631L83.0671 4.1333ZM83.1338 4.8833L84.1338 4.87828L83.1338 4.8833ZM83.1376 5.6333L82.1376 5.63832L83.1376 5.6333ZM83.0876 6.3833L82.097 6.24631L83.0876 6.3833ZM82.9839 7.1333L83.9744 7.27029L82.9839 7.1333ZM82.7396 7.8833L81.8499 7.42684L82.7396 7.8833ZM82.3548 8.6333L83.2446 9.08977L82.3548 8.6333ZM82.3184 9.7583L83.2974 9.55478L82.3184 9.7583ZM82.3963 10.1333L81.4172 10.3368L82.3963 10.1333ZM82.5497 10.8833L83.5301 10.6861L82.5497 10.8833ZM82.7006 11.6333L83.6809 11.4361L82.7006 11.6333ZM82.6761 12.3833L81.7098 12.1258L82.6761 12.3833ZM82.5761 12.7583L83.5424 13.0158L82.5761 12.7583ZM82.4762 13.1333L81.5099 12.8758L82.4762 13.1333ZM82.5078 13.8833L81.5642 14.2144L82.5078 13.8833ZM82.771 14.6333L83.7146 14.3022L82.771 14.6333ZM82.8856 15.3833L83.8846 15.4285L82.8856 15.3833ZM82.8686 15.7583L83.8676 15.8035L82.8686 15.7583ZM82.8517 16.1333L81.8527 16.0881L82.8517 16.1333ZM82.6524 18.3833L81.6902 18.6558L82.6524 18.3833ZM82.9577 19.8833L83.9571 19.9187L82.9577 19.8833ZM82.9311 20.6333L81.9318 20.5979L82.9311 20.6333ZM82.6841 21.3833L83.5328 21.9122L82.6841 21.3833ZM82.2167 22.1333L81.368 21.6044L82.2167 22.1333ZM82.0457 22.8833L81.0594 23.0483L82.0457 22.8833ZM82.1712 23.6333L83.1575 23.4683L82.1712 23.6333ZM82.4085 24.3833L81.5019 24.8053L82.4085 24.3833ZM82.7576 25.1333L83.6642 24.7113L82.7576 25.1333ZM82.011 27.3833L81.0159 27.4821L82.011 27.3833ZM82.0855 28.1333L81.0904 28.2321L82.0855 28.1333ZM82.2608 28.8833L83.1992 28.5377L82.2608 28.8833ZM82.537 29.6333L83.4754 29.2877L82.537 29.6333ZM82.7259 30.3833L83.7168 30.2491L82.7259 30.3833ZM82.8274 31.1333L81.8365 31.2675L82.8274 31.1333ZM82.8205 31.8833L81.8321 31.7311L82.8205 31.8833ZM82.7627 32.2583L83.7511 32.4105L82.7627 32.2583ZM82.705 32.6333L81.7166 32.4811L82.705 32.6333ZM82.3786 33.0442L82.2462 32.053L82.3786 33.0442ZM81.8413 33.1159L81.7089 32.1247L81.8413 33.1159ZM79.6976 33.9084L79.3248 34.8363L79.6976 33.9084ZM78.9476 33.6071L79.3204 32.6792L78.9476 33.6071ZM78.1976 33.4423L78.2352 32.443L78.1976 33.4423ZM77.4476 33.4141L77.41 34.4134L77.4476 33.4141ZM76.6976 33.5765L77.1236 34.4813L76.6976 33.5765ZM75.9476 33.9296L76.3736 34.8344L75.9476 33.9296ZM75.1976 34.0902L75.2401 33.0911L75.1976 34.0902ZM74.4476 34.0584L74.4051 35.0575L74.4476 34.0584ZM73.6976 33.7673L73.1061 34.5736L73.6976 33.7673ZM73.3226 33.4922L73.9141 32.6859L73.3226 33.4922ZM72.9476 33.2171L72.3561 34.0235L72.9476 33.2171ZM72.1976 33.0924L72.5698 34.0206L72.1976 33.0924ZM71.8226 33.2428L71.4504 32.3146L71.8226 33.2428ZM68.8226 33.2561L69.0786 34.2228L68.8226 33.2561ZM68.4476 33.3554L68.1916 32.3888L68.4476 33.3554ZM67.6976 33.4864L67.6136 32.4899L67.6976 33.4864ZM67.3226 33.5179L67.4066 34.5144L67.3226 33.5179ZM66.9476 33.5495L66.8636 32.5531L66.9476 33.5495ZM66.1976 33.4557L66.5148 32.5073L66.1976 33.4557ZM64.6976 33.2231L64.3396 32.2894L64.6976 33.2231ZM63.9476 33.5107L63.5896 32.577L63.9476 33.5107ZM63.1976 33.4784L62.7726 34.3836L63.1976 33.4784ZM62.4476 33.1262L62.8726 32.221L62.4476 33.1262ZM61.3226 33.0569L61.1817 32.0669L61.3226 33.0569ZM60.9476 33.1103L61.0885 34.1003L60.9476 33.1103ZM60.1976 33.1607L60.1897 34.1607L60.1976 33.1607ZM59.4476 33.1548L59.4555 32.1548L59.4476 33.1548ZM58.6976 33.1078L58.8142 32.1146L58.6976 33.1078ZM57.9476 33.0198L57.831 34.0129L57.9476 33.0198ZM57.1976 32.9743L57.2015 31.9743L57.1976 32.9743ZM56.8226 32.9728L56.8187 33.9728L56.8226 32.9728ZM56.4476 32.9713L56.4437 33.9713L56.4476 32.9713ZM55.6976 33.1837L56.193 34.0524L55.6976 33.1837ZM54.9476 33.6114L54.4522 32.7428L54.9476 33.6114ZM54.1976 33.863L54.2975 34.858L54.1976 33.863ZM53.4476 33.9383L53.3477 32.9433L53.4476 33.9383ZM51.1976 33.311L51.0328 32.3246L51.1976 33.311ZM50.8226 33.3736L50.9874 34.36L50.8226 33.3736ZM50.4476 33.4363L50.2828 32.4499L50.4476 33.4363ZM49.6976 33.5371L49.7989 34.5319L49.6976 33.5371ZM48.1976 33.5975L48.0549 34.5873L48.1976 33.5975ZM47.4476 33.4894L47.3049 34.4792L47.4476 33.4894ZM46.6976 33.5093L46.504 32.5282V32.5282L46.6976 33.5093ZM45.9476 33.6573L46.1412 34.6384L45.9476 33.6573ZM45.1976 33.6282L45.4626 32.664L45.1976 33.6282ZM44.8226 33.5252L44.5576 34.4894L44.8226 33.5252ZM44.4476 33.4221L44.7126 32.4579L44.4476 33.4221ZM43.6976 33.2713L43.5712 34.2632L43.6976 33.2713ZM42.9476 33.1757L43.074 32.1837L42.9476 33.1757ZM42.1976 33.3582L41.6743 32.506L42.1976 33.3582ZM41.8226 33.5885L42.3459 34.4406L41.8226 33.5885ZM41.4476 33.8187L40.9243 32.9666L41.4476 33.8187ZM40.6976 33.9464L40.9616 32.9819L40.6976 33.9464ZM39.9476 33.7411L39.6836 34.7056L39.9476 33.7411ZM39.1976 33.6977L39.3537 34.6855L39.1976 33.6977ZM38.4476 33.8162L38.2915 32.8285L38.4476 33.8162ZM37.6976 33.7057L38.1101 32.7947L37.6976 33.7057ZM37.3226 33.5359L36.9101 34.4469L37.3226 33.5359ZM36.9476 33.3661L37.3601 32.4551L36.9476 33.3661ZM36.1976 33.2333L36.2957 34.2285L36.1976 33.2333ZM35.8226 33.2702L35.7245 32.2751L35.8226 33.2702ZM35.4476 33.3072L35.5457 34.3024L35.4476 33.3072ZM34.6976 33.2843L34.5401 34.2719L34.6976 33.2843ZM33.9476 33.1647L34.1051 32.1772L33.9476 33.1647ZM33.1976 33.1885L33.4153 34.1645L33.1976 33.1885ZM32.4476 33.3558L32.2299 32.3798L32.4476 33.3558ZM31.6976 33.5466L31.9724 34.5081L31.6976 33.5466ZM30.9476 33.7609L30.6728 32.7994L30.9476 33.7609ZM30.1976 33.649L30.7021 32.7856L30.1976 33.649ZM29.4476 33.2107L29.9521 32.3473L29.4476 33.2107ZM28.6976 33.0048L28.7328 34.0041L28.6976 33.0048ZM27.9476 33.0312L27.9124 32.0318L27.9476 33.0312ZM27.1976 33.2019L27.5848 34.1238L27.1976 33.2019ZM25.6976 33.6267L25.8238 32.6347L25.6976 33.6267ZM24.9476 33.5313L25.0738 32.5393L24.9476 33.5313ZM24.1976 33.617L23.8625 32.6748L24.1976 33.617ZM23.8226 33.7503L24.1577 34.6925L23.8226 33.7503ZM23.4476 33.8837L23.7827 34.8259L23.4476 33.8837ZM21.9476 33.2192L21.3691 34.0349L21.9476 33.2192ZM21.1976 33.1281L20.7751 32.2217L21.1976 33.1281ZM20.4476 33.4777L20.8701 34.3841L20.4476 33.4777ZM19.6976 33.6072L19.5777 34.6L19.6976 33.6072ZM18.1976 33.5726L18.4582 34.5381L18.1976 33.5726ZM17.8226 33.6738L18.0832 34.6393L17.8226 33.6738ZM17.4476 33.775L17.187 32.8096L17.4476 33.775ZM16.6976 33.7602L16.4019 34.7154L16.6976 33.7602ZM15.9476 33.528L16.2433 32.5727L15.9476 33.528ZM15.1976 33.4858L15.3908 34.4669L15.1976 33.4858ZM14.8226 33.5596L14.6294 32.5784L14.8226 33.5596ZM14.4476 33.6334L14.2544 32.6523L14.4476 33.6334ZM13.6976 33.5413L13.2929 34.4557L13.6976 33.5413ZM12.9476 33.2093L13.3524 32.2949L12.9476 33.2093ZM12.1976 33.1275L12.4166 34.1032L12.1976 33.1275ZM11.4476 33.2959L11.2286 32.3201L11.4476 33.2959ZM10.6976 33.3807L10.6993 34.3807L10.6976 33.3807ZM9.9476 33.382L9.94588 32.382L9.9476 33.382ZM9.1976 33.322L9.03808 34.3092L9.1976 33.322ZM8.4476 33.2008L8.60713 32.2136L8.4476 33.2008ZM7.6976 33.3419L7.22394 32.4612L7.6976 33.3419ZM7.3226 33.5436L7.79627 34.4243L7.3226 33.5436ZM6.9476 33.7453L6.47394 32.8646L6.9476 33.7453ZM6.1976 33.7534L5.73891 34.642L6.1976 33.7534ZM5.4476 33.3662L5.90629 32.4776L5.4476 33.3662ZM4.6976 33.2283L4.84447 34.2175L4.6976 33.2283ZM4.3226 33.284L4.17573 32.2949L4.3226 33.284ZM2.8226 33.359L2.77419 34.3579L2.8226 33.359ZM2.4476 33.3409L2.49601 32.342L2.4476 33.3409ZM2.09639 33.1191L3.08963 33.2351L2.09639 33.1191ZM2.12017 32.9155L1.12693 32.7994L2.12017 32.9155ZM2.14396 32.7119L3.13721 32.8279L2.14396 32.7119ZM1.94372 32.1333L1.08525 32.6462L1.94372 32.1333ZM1.4477 30.6333L2.35291 31.0583L1.4477 30.6333ZM1.62376 30.2583L2.52896 30.6833L1.62376 30.2583ZM1.79981 29.8833L0.8946 29.4583L1.79981 29.8833ZM1.32642 28.3833L0.460371 28.8833L1.32642 28.3833ZM1.11095 23.8833L0.129377 24.0744L1.11095 23.8833ZM2.00815 17.8833L1.06815 17.5421L2.00815 17.8833ZM1.11673 14.1333L0.119405 14.0602L1.11673 14.1333ZM1.37174 12.6333L2.28019 13.0513L1.37174 12.6333ZM1.71681 11.8833L2.62527 12.3013L1.71681 11.8833ZM1.90573 11.1333L0.906682 11.0897L1.90573 11.1333ZM1.35771 5.1333L0.371659 5.29974L1.35771 5.1333ZM1.39152 3.6333L2.25033 4.14561L1.39152 3.6333ZM1.83893 2.8833L0.980125 2.37099L1.83893 2.8833ZM2.0885 2.2583L1.09381 2.15536L2.0885 2.2583ZM2.3226 1.44907L2.40133 2.44596L2.77633 2.41635L2.6976 1.41945L2.61887 0.422554L2.24387 0.452171L2.3226 1.44907ZM2.6976 1.41945L2.77633 2.41635C3.02347 2.39683 3.27061 2.37838 3.51774 2.361L3.4476 1.36346L3.37746 0.365928C3.12459 0.383708 2.87173 0.402583 2.61887 0.422554L2.6976 1.41945ZM3.4476 1.36346L3.51774 2.361L3.89274 2.33463L3.8226 1.3371L3.75246 0.33956L3.37746 0.365928L3.4476 1.36346ZM3.8226 1.3371L3.89274 2.33463L4.26774 2.30827L4.1976 1.31073L4.12746 0.313192L3.75246 0.33956L3.8226 1.3371ZM4.1976 1.31073L4.26774 2.30827C4.54853 2.28852 4.82887 2.25577 5.10868 2.2101L4.9476 1.22316L4.78652 0.236215C4.56633 0.272153 4.34668 0.297778 4.12746 0.313192L4.1976 1.31073ZM4.9476 1.22316L5.10868 2.2101L5.48368 2.14889L5.3226 1.16195L5.16152 0.175011L4.78652 0.236215L4.9476 1.22316ZM5.3226 1.16195L5.48368 2.14889L5.85868 2.08769L5.6976 1.10075L5.53652 0.113806L5.16152 0.175011L5.3226 1.16195ZM5.6976 1.10075L5.85868 2.08769C6.04928 2.05658 6.23832 2.04325 6.42655 2.04722L6.4476 1.04744L6.46865 0.0476604C6.15689 0.0410957 5.84593 0.0633069 5.53652 0.113806L5.6976 1.10075ZM6.4476 1.04744L6.42655 2.04722L6.80155 2.05511L6.8226 1.05533L6.84365 0.0555564L6.46865 0.0476604L6.4476 1.04744ZM6.8226 1.05533L6.80155 2.05511L7.17655 2.06301L7.1976 1.06323L7.21865 0.0634526L6.84365 0.0555564L6.8226 1.05533ZM7.1976 1.06323L7.17655 2.06301C7.22482 2.06403 7.30632 2.07801 7.43195 2.15361L7.9476 1.29682L8.46326 0.440021C8.08888 0.214705 7.67038 0.0729643 7.21865 0.0634526L7.1976 1.06323ZM7.9476 1.29682L7.43195 2.15361L7.80695 2.3793L8.3226 1.52251L8.83826 0.665711L8.46326 0.440021L7.9476 1.29682ZM8.3226 1.52251L7.80695 2.3793L8.18195 2.60499L8.6976 1.7482L9.21326 0.891402L8.83826 0.665711L8.3226 1.52251ZM8.6976 1.7482L8.18195 2.60499C8.66215 2.894 9.22604 2.98223 9.78967 2.77706L9.4476 1.83738L9.10554 0.897703C9.11028 0.895978 9.12161 0.892487 9.13845 0.890423C9.15552 0.888331 9.17351 0.888292 9.19068 0.890334C9.227 0.894653 9.23605 0.905117 9.21326 0.891402L8.6976 1.7482ZM9.4476 1.83738L9.78967 2.77706L10.1647 2.64055L9.8226 1.70087L9.48054 0.761194L9.10554 0.897703L9.4476 1.83738ZM9.8226 1.70087L10.1647 2.64055L10.5397 2.50404L10.1976 1.56436L9.85554 0.624686L9.48054 0.761194L9.8226 1.70087ZM10.1976 1.56436L10.5397 2.50404C10.6199 2.47484 10.6781 2.47383 10.7361 2.48638L10.9476 1.509L11.1591 0.531619C10.7171 0.435975 10.2753 0.471873 9.85554 0.624686L10.1976 1.56436ZM10.9476 1.509L10.7361 2.48638L11.1111 2.56752L11.3226 1.59014L11.5341 0.612764L11.1591 0.531619L10.9476 1.509ZM11.3226 1.59014L11.1111 2.56752L11.4861 2.64867L11.6976 1.67129L11.9091 0.693909L11.5341 0.612764L11.3226 1.59014ZM11.6976 1.67129L11.4861 2.64867C11.8087 2.71847 12.1345 2.75163 12.4623 2.74682L12.4476 1.74693L12.4329 0.74704C12.2607 0.749567 12.0865 0.732303 11.9091 0.693909L11.6976 1.67129ZM12.4476 1.74693L12.4623 2.74682L12.8373 2.74132L12.8226 1.74143L12.8079 0.741539L12.4329 0.74704L12.4476 1.74693ZM12.8226 1.74143L12.8373 2.74132L13.2123 2.73582L13.1976 1.73593L13.1829 0.736038L12.8079 0.741539L12.8226 1.74143ZM13.1976 1.73593L13.2123 2.73582C13.5575 2.73076 13.8982 2.6769 14.2321 2.57783L13.9476 1.61915L13.6631 0.660469C13.497 0.709772 13.3377 0.733768 13.1829 0.736038L13.1976 1.73593ZM13.9476 1.61915L14.2321 2.57783L14.6071 2.46655L14.3226 1.50787L14.0381 0.54919L13.6631 0.660469L13.9476 1.61915ZM14.3226 1.50787L14.6071 2.46655L14.9821 2.35527L14.6976 1.39659L14.4131 0.437911L14.0381 0.54919L14.3226 1.50787ZM14.6976 1.39659L14.9821 2.35527C15.0739 2.32802 15.1531 2.32614 15.2352 2.344L15.4476 1.36681L15.66 0.389614C15.2421 0.298816 14.8213 0.316792 14.4131 0.437911L14.6976 1.39659ZM15.4476 1.36681L15.2352 2.344L15.6102 2.42549L15.8226 1.4483L16.035 0.471107L15.66 0.389614L15.4476 1.36681ZM15.8226 1.4483L15.6102 2.42549L15.9852 2.50698L16.1976 1.52979L16.41 0.5526L16.035 0.471107L15.8226 1.4483ZM16.1976 1.52979L15.9852 2.50698C16.2396 2.56225 16.4939 2.61576 16.7482 2.66751L16.9476 1.68758L17.147 0.707658C16.9013 0.657678 16.6556 0.605992 16.41 0.5526L16.1976 1.52979ZM16.9476 1.68758L16.7482 2.66751L17.1232 2.7438L17.3226 1.76388L17.522 0.783955L17.147 0.707658L16.9476 1.68758ZM17.3226 1.76388L17.1232 2.7438L17.4982 2.8201L17.6976 1.84018L17.897 0.860252L17.522 0.783955L17.3226 1.76388ZM17.6976 1.84018L17.4982 2.8201C17.8415 2.88994 18.1886 2.91009 18.5366 2.879L18.4476 1.88297L18.3586 0.886938C18.2066 0.900519 18.0537 0.892143 17.897 0.860252L17.6976 1.84018ZM18.4476 1.88297L18.5366 2.879L18.9116 2.8455L18.8226 1.84947L18.7336 0.853436L18.3586 0.886938L18.4476 1.88297ZM18.8226 1.84947L18.9116 2.8455L19.2866 2.812L19.1976 1.81597L19.1086 0.819934L18.7336 0.853436L18.8226 1.84947ZM19.1976 1.81597L19.2866 2.812C19.5221 2.79096 19.7576 2.77509 19.993 2.76438L19.9476 1.76542L19.9022 0.766447C19.6376 0.778478 19.3731 0.796309 19.1086 0.819934L19.1976 1.81597ZM19.9476 1.76542L19.993 2.76438L20.368 2.74733L20.3226 1.74836L20.2772 0.749397L19.9022 0.766447L19.9476 1.76542ZM20.3226 1.74836L20.368 2.74733L20.743 2.73028L20.6976 1.73131L20.6522 0.732346L20.2772 0.749397L20.3226 1.74836ZM20.6976 1.73131L20.743 2.73028C20.926 2.72196 21.1096 2.73187 21.2948 2.7605L21.4476 1.77225L21.6004 0.783991C21.2856 0.735309 20.9692 0.717933 20.6522 0.732346L20.6976 1.73131ZM21.4476 1.77225L21.2948 2.7605L21.6698 2.81849L21.8226 1.83023L21.9754 0.841974L21.6004 0.783991L21.4476 1.77225ZM21.8226 1.83023L21.6698 2.81849L22.0448 2.87647L22.1976 1.88821L22.3504 0.899958L21.9754 0.841974L21.8226 1.83023ZM22.1976 1.88821L22.0448 2.87647C22.5428 2.95348 23.0159 2.84391 23.4334 2.61179L22.9476 1.73775L22.4618 0.863705C22.3793 0.909522 22.3524 0.900258 22.3504 0.899958L22.1976 1.88821ZM22.9476 1.73775L23.4334 2.61179L23.8084 2.40335L23.3226 1.5293L22.8368 0.655258L22.4618 0.863705L22.9476 1.73775ZM23.3226 1.5293L23.8084 2.40335L24.1834 2.1949L23.6976 1.32085L23.2118 0.44681L22.8368 0.655258L23.3226 1.5293ZM23.6976 1.32085L24.1834 2.1949C24.1977 2.18696 24.1807 2.1992 24.1389 2.20198C24.1194 2.20327 24.1008 2.20202 24.0846 2.19914C24.0687 2.19631 24.0596 2.19268 24.058 2.19202L24.4476 1.27103L24.8372 0.350042C24.2865 0.117102 23.714 0.167613 23.2118 0.44681L23.6976 1.32085ZM24.4476 1.27103L24.058 2.19202L24.433 2.35065L24.8226 1.42966L25.2122 0.508668L24.8372 0.350042L24.4476 1.27103ZM24.8226 1.42966L24.433 2.35065L24.808 2.50928L25.1976 1.58829L25.5872 0.667295L25.2122 0.508668L24.8226 1.42966ZM25.1976 1.58829L24.808 2.50928C25.2269 2.68646 25.6768 2.74496 26.1337 2.65843L25.9476 1.67589L25.7615 0.693357C25.7184 0.701515 25.6683 0.70161 25.5872 0.667295L25.1976 1.58829ZM25.9476 1.67589L26.1337 2.65843L26.5087 2.58741L26.3226 1.60487L26.1365 0.622337L25.7615 0.693357L25.9476 1.67589ZM26.3226 1.60487L26.5087 2.58741L26.8837 2.51639L26.6976 1.53385L26.5115 0.551316L26.1365 0.622337L26.3226 1.60487ZM26.6976 1.53385L26.8837 2.51639C26.9756 2.49897 27.0666 2.50223 27.1692 2.53199L27.4476 1.57151L27.726 0.611037C27.3286 0.495881 26.9196 0.47404 26.5115 0.551316L26.6976 1.53385ZM27.4476 1.57151L27.1692 2.53199L27.5442 2.64067L27.8226 1.6802L28.101 0.71972L27.726 0.611037L27.4476 1.57151ZM27.8226 1.6802L27.5442 2.64067L27.9192 2.74935L28.1976 1.78888L28.476 0.828403L28.101 0.71972L27.8226 1.6802ZM28.1976 1.78888L27.9192 2.74935C28.323 2.86636 28.7385 2.88446 29.1516 2.79839L28.9476 1.81942L28.7436 0.840447C28.6567 0.858563 28.5722 0.856307 28.476 0.828403L28.1976 1.78888ZM28.9476 1.81942L29.1516 2.79839L29.5266 2.72024L29.3226 1.74127L29.1186 0.762303L28.7436 0.840447L28.9476 1.81942ZM29.3226 1.74127L29.5266 2.72024L29.9016 2.6421L29.6976 1.66313L29.4936 0.68416L29.1186 0.762303L29.3226 1.74127ZM29.6976 1.66313L29.9016 2.6421C29.9931 2.62304 30.0816 2.62515 30.1806 2.65257L30.4476 1.68887L30.7146 0.725158C30.3136 0.614076 29.9021 0.599034 29.4936 0.68416L29.6976 1.66313ZM30.4476 1.68887L30.1806 2.65257L30.5556 2.75645L30.8226 1.79275L31.0896 0.829037L30.7146 0.725158L30.4476 1.68887ZM30.8226 1.79275L30.5556 2.75645L30.9306 2.86033L31.1976 1.89662L31.4646 0.932916L31.0896 0.829037L30.8226 1.79275ZM31.1976 1.89662L30.9306 2.86033C31.3612 2.9796 31.8012 2.97559 32.2293 2.84989L31.9476 1.89039L31.6659 0.9309C31.594 0.952014 31.534 0.952155 31.4646 0.932916L31.1976 1.89662ZM31.9476 1.89039L32.2293 2.84989L32.6043 2.73978L32.3226 1.78028L32.0409 0.82079L31.6659 0.9309L31.9476 1.89039ZM32.3226 1.78028L32.6043 2.73978L32.9793 2.62967L32.6976 1.67017L32.4159 0.71068L32.0409 0.82079L32.3226 1.78028ZM32.6976 1.67017L32.9793 2.62967C33.0307 2.61458 33.0716 2.61426 33.1302 2.63387L33.4476 1.68558L33.765 0.737295C33.3236 0.589541 32.8645 0.578949 32.4159 0.71068L32.6976 1.67017ZM33.4476 1.68558L33.1302 2.63387L33.5052 2.75939L33.8226 1.8111L34.14 0.862815L33.765 0.737295L33.4476 1.68558ZM33.8226 1.8111L33.5052 2.75939L33.8802 2.88491L34.1976 1.93662L34.515 0.988335L34.14 0.862815L33.8226 1.8111ZM34.1976 1.93662L33.8802 2.88491C34.4174 3.06473 34.9556 2.9925 35.4278 2.73397L34.9476 1.85683L34.4674 0.97969C34.4545 0.986726 34.4486 0.988574 34.4493 0.988321C34.4504 0.987984 34.4565 0.986143 34.4668 0.985047C34.4773 0.983935 34.4883 0.983988 34.4985 0.98516C34.5086 0.986314 34.5144 0.988141 34.515 0.988335L34.1976 1.93662ZM34.9476 1.85683L35.4278 2.73397L35.8028 2.52865L35.3226 1.65151L34.8424 0.774375L34.4674 0.97969L34.9476 1.85683ZM35.3226 1.65151L35.8028 2.52865L36.1778 2.32333L35.6976 1.4462L35.2174 0.569059L34.8424 0.774375L35.3226 1.65151ZM35.6976 1.4462L36.1778 2.32333C36.3174 2.24692 36.4267 2.22007 36.5121 2.21454L36.4476 1.21663L36.3831 0.218711C35.9685 0.245524 35.5778 0.371721 35.2174 0.569059L35.6976 1.4462ZM36.4476 1.21663L36.5121 2.21454L36.8871 2.19029L36.8226 1.19237L36.7581 0.194457L36.3831 0.218711L36.4476 1.21663ZM36.8226 1.19237L36.8871 2.19029L37.2621 2.16603L37.1976 1.16812L37.1331 0.170203L36.7581 0.194457L36.8226 1.19237ZM37.1976 1.16812L37.2621 2.16603C37.3627 2.15953 37.4721 2.17346 37.5989 2.22062L37.9476 1.2834L38.2963 0.346183C37.9231 0.207292 37.5325 0.144366 37.1331 0.170203L37.1976 1.16812ZM37.9476 1.2834L37.5989 2.22062L37.9739 2.36016L38.3226 1.42294L38.6713 0.485721L38.2963 0.346183L37.9476 1.2834ZM38.3226 1.42294L37.9739 2.36016L38.3489 2.4997L38.6976 1.56248L39.0463 0.625259L38.6713 0.485721L38.3226 1.42294ZM38.6976 1.56248L38.3489 2.4997C38.8814 2.69787 39.4262 2.64559 39.9111 2.39197L39.4476 1.50587L38.9841 0.619764C38.9736 0.625269 38.9701 0.625928 38.9734 0.624943C38.977 0.623879 38.9853 0.621841 38.9973 0.620931C39.0095 0.620014 39.0214 0.620549 39.0318 0.622087C39.042 0.623596 39.0471 0.625539 39.0463 0.625259L38.6976 1.56248ZM39.4476 1.50587L39.9111 2.39197L40.2861 2.19583L39.8226 1.30972L39.3591 0.423617L38.9841 0.619764L39.4476 1.50587ZM39.8226 1.30972L40.2861 2.19583L40.6611 1.99968L40.1976 1.11357L39.7341 0.227469L39.3591 0.423617L39.8226 1.30972ZM40.1976 1.11357L40.6611 1.99968C40.6711 1.99444 40.674 1.99406 40.6699 1.99527C40.6656 1.99655 40.6565 1.99872 40.6436 1.99963C40.6306 2.00055 40.618 1.99991 40.6072 1.99823C40.5965 1.99658 40.5911 1.99449 40.5918 1.99476L40.9476 1.06019L41.3034 0.125629C40.7698 -0.0775151 40.222 -0.0277085 39.7341 0.227469L40.1976 1.11357ZM40.9476 1.06019L40.5918 1.99476L40.9668 2.13752L41.3226 1.20296L41.6784 0.268394L41.3034 0.125629L40.9476 1.06019ZM41.3226 1.20296L40.9668 2.13752L41.3418 2.28029L41.6976 1.34572L42.0534 0.41116L41.6784 0.268394L41.3226 1.20296ZM41.6976 1.34572L41.3418 2.28029C41.6108 2.38271 41.8805 2.47597 42.1508 2.55998L42.4476 1.60503L42.7444 0.650087C42.5147 0.578702 42.2844 0.499091 42.0534 0.41116L41.6976 1.34572ZM42.4476 1.60503L42.1508 2.55998L42.5258 2.67652L42.8226 1.72158L43.1194 0.76663L42.7444 0.650087L42.4476 1.60503ZM42.8226 1.72158L42.5258 2.67652L42.9008 2.79306L43.1976 1.83812L43.4944 0.883173L43.1194 0.76663L42.8226 1.72158ZM43.1976 1.83812L42.9008 2.79306C43.3343 2.92778 43.782 2.93468 44.2199 2.81078L43.9476 1.84856L43.6753 0.886334C43.6132 0.903908 43.5609 0.903849 43.4944 0.883173L43.1976 1.83812ZM43.9476 1.84856L44.2199 2.81078L44.5949 2.70468L44.3226 1.74245L44.0503 0.780229L43.6753 0.886334L43.9476 1.84856ZM44.3226 1.74245L44.5949 2.70468L44.9699 2.59857L44.6976 1.63635L44.4253 0.674125L44.0503 0.780229L44.3226 1.74245ZM44.6976 1.63635L44.9699 2.59857C45.0073 2.58797 45.0379 2.58633 45.0936 2.60743L45.4476 1.67217L45.8016 0.736906C45.3573 0.568775 44.8879 0.543256 44.4253 0.674125L44.6976 1.63635ZM45.4476 1.67217L45.0936 2.60743L45.4686 2.74935L45.8226 1.81409L46.1766 0.878828L45.8016 0.736906L45.4476 1.67217ZM45.8226 1.81409L45.4686 2.74935L45.8436 2.89127L46.1976 1.95601L46.5516 1.02075L46.1766 0.878828L45.8226 1.81409ZM46.1976 1.95601L45.8436 2.89127C46.2314 3.03804 46.6395 3.09656 47.0559 3.05119L46.9476 2.05707L46.8393 1.06295C46.7557 1.07207 46.6638 1.06322 46.5516 1.02075L46.1976 1.95601ZM46.9476 2.05707L47.0559 3.05119L47.4309 3.01032L47.3226 2.01621L47.2143 1.02209L46.8393 1.06295L46.9476 2.05707ZM47.3226 2.01621L47.4309 3.01032L47.8059 2.96946L47.6976 1.97534L47.5893 0.981228L47.2143 1.02209L47.3226 2.01621ZM47.6976 1.97534L47.8059 2.96946C48.1741 2.92933 48.5293 2.82494 48.8687 2.66738L48.4476 1.76037L48.0265 0.853363C47.8659 0.927942 47.7211 0.966866 47.5893 0.981228L47.6976 1.97534ZM48.4476 1.76037L48.8687 2.66738L49.2437 2.49327L48.8226 1.58626L48.4015 0.679256L48.0265 0.853363L48.4476 1.76037ZM48.8226 1.58626L49.2437 2.49327L49.6187 2.31917L49.1976 1.41216L48.7765 0.505148L48.4015 0.679256L48.8226 1.58626ZM49.1976 1.41216L49.6187 2.31917C49.6188 2.31911 49.6106 2.32289 49.5948 2.32628C49.5787 2.32975 49.5589 2.33186 49.5374 2.3311C49.4906 2.32945 49.4675 2.31589 49.476 2.32041L49.9476 1.43861L50.4192 0.556806C49.9014 0.27988 49.3209 0.25237 48.7765 0.505148L49.1976 1.41216ZM49.9476 1.43861L49.476 2.32041L49.851 2.52098L50.3226 1.63917L50.7942 0.757367L50.4192 0.556806L49.9476 1.43861ZM50.3226 1.63917L49.851 2.52098L50.226 2.72154L50.6976 1.83973L51.1692 0.957928L50.7942 0.757367L50.3226 1.63917ZM50.6976 1.83973L50.226 2.72154C50.639 2.94244 51.1017 3.04609 51.5872 2.97761L51.4476 1.98741L51.308 0.997208C51.2935 0.99924 51.2562 1.00444 51.1692 0.957928L50.6976 1.83973ZM51.4476 1.98741L51.5872 2.97761L51.9622 2.92473L51.8226 1.93453L51.683 0.944324L51.308 0.997208L51.4476 1.98741ZM51.8226 1.93453L51.9622 2.92473L52.3372 2.87184L52.1976 1.88164L52.058 0.89144L51.683 0.944324L51.8226 1.93453ZM52.1976 1.88164L52.3372 2.87184C52.6103 2.83333 52.883 2.78515 53.1553 2.72736L52.9476 1.74915L52.7399 0.77095C52.5122 0.819297 52.2849 0.859438 52.058 0.89144L52.1976 1.88164ZM52.9476 1.74915L53.1553 2.72736L53.5303 2.64775L53.3226 1.66955L53.1149 0.691347L52.7399 0.77095L52.9476 1.74915ZM53.3226 1.66955L53.5303 2.64775L53.9053 2.56815L53.6976 1.58995L53.4899 0.611743L53.1149 0.691347L53.3226 1.66955ZM53.6976 1.58995L53.9053 2.56815C54.0616 2.53497 54.2137 2.52556 54.3645 2.53814L54.4476 1.54159L54.5307 0.545049C54.1815 0.515955 53.8336 0.538789 53.4899 0.611743L53.6976 1.58995ZM54.4476 1.54159L54.3645 2.53814L54.7396 2.56939L54.8226 1.57285L54.9057 0.576301L54.5307 0.545049L54.4476 1.54159ZM54.8226 1.57285L54.7396 2.56939L55.1146 2.60064L55.1976 1.6041L55.2807 0.607553L54.9057 0.576301L54.8226 1.57285ZM55.1976 1.6041L55.1146 2.60064C55.5401 2.63611 55.9527 2.56041 56.3396 2.39548L55.9476 1.47554L55.5556 0.555594C55.4426 0.603751 55.3551 0.613759 55.2807 0.607553L55.1976 1.6041ZM55.9476 1.47554L56.3396 2.39548L56.7146 2.23567L56.3226 1.31573L55.9306 0.395782L55.5556 0.555594L55.9476 1.47554ZM56.3226 1.31573L56.7146 2.23567L57.0896 2.07586L56.6976 1.15591L56.3056 0.23597L55.9306 0.395782L56.3226 1.31573ZM56.6976 1.15591L57.0896 2.07586C57.0936 2.07419 57.091 2.07569 57.0825 2.0774C57.0738 2.07915 57.0623 2.08043 57.0492 2.08012C57.0362 2.07982 57.0258 2.07804 57.0192 2.07641C57.0129 2.07485 57.0131 2.07415 57.0201 2.07745L57.4476 1.17346L57.8751 0.269464C57.372 0.0314997 56.8237 0.0151378 56.3056 0.23597L56.6976 1.15591ZM57.4476 1.17346L57.0201 2.07745L57.3951 2.25481L57.8226 1.35081L58.2501 0.44682L57.8751 0.269464L57.4476 1.17346ZM57.8226 1.35081L57.3951 2.25481L57.7701 2.43217L58.1976 1.52817L58.6251 0.624176L58.2501 0.44682L57.8226 1.35081ZM58.1976 1.52817L57.7701 2.43217C58.2977 2.68172 58.8674 2.67485 59.3885 2.41886L58.9476 1.52131L58.5067 0.623762C58.5006 0.626729 58.5223 0.615552 58.5635 0.615176C58.6048 0.614798 58.6283 0.62569 58.6251 0.624176L58.1976 1.52817ZM58.9476 1.52131L59.3885 2.41886L59.7635 2.23465L59.3226 1.3371L58.8817 0.439547L58.5067 0.623762L58.9476 1.52131ZM59.3226 1.3371L59.7635 2.23465L60.1385 2.05043L59.6976 1.15288L59.2567 0.255332L58.8817 0.439547L59.3226 1.3371ZM59.6976 1.15288L60.1385 2.05043C60.2377 2.0017 60.2988 1.99868 60.3409 2.00319L60.4476 1.0089L60.5543 0.0146029C60.0964 -0.0345215 59.6575 0.0584432 59.2567 0.255332L59.6976 1.15288ZM60.4476 1.0089L60.3409 2.00319L60.7159 2.04342L60.8226 1.04913L60.9293 0.0548331L60.5543 0.0146029L60.4476 1.0089ZM60.8226 1.04913L60.7159 2.04342L61.0909 2.08365L61.1976 1.08936L61.3043 0.0950632L60.9293 0.0548331L60.8226 1.04913ZM61.1976 1.08936L61.0909 2.08365C61.3148 2.10766 61.539 2.14065 61.7637 2.18269L61.9476 1.19974L62.1315 0.216793C61.8562 0.165294 61.5804 0.124691 61.3043 0.0950632L61.1976 1.08936ZM61.9476 1.19974L61.7637 2.18269L62.1387 2.25284L62.3226 1.26989L62.5065 0.286946L62.1315 0.216793L61.9476 1.19974ZM62.3226 1.26989L62.1387 2.25284L62.5137 2.32299L62.6976 1.34005L62.8815 0.357098L62.5065 0.286946L62.3226 1.26989ZM62.6976 1.34005L62.5137 2.32299C62.8654 2.38879 63.2205 2.39942 63.575 2.35389L63.4476 1.36203L63.3202 0.370182C63.1747 0.388865 63.0298 0.384839 62.8815 0.357098L62.6976 1.34005ZM63.4476 1.36203L63.575 2.35389L63.95 2.30572L63.8226 1.31387L63.6952 0.322017L63.3202 0.370182L63.4476 1.36203ZM63.8226 1.31387L63.95 2.30572L64.325 2.25756L64.1976 1.2657L64.0702 0.273852L63.6952 0.322017L63.8226 1.31387ZM64.1976 1.2657L64.325 2.25756C64.3792 2.2506 64.4462 2.25474 64.544 2.2979L64.9476 1.38296L65.3512 0.468023C64.949 0.290615 64.516 0.216593 64.0702 0.273852L64.1976 1.2657ZM64.9476 1.38296L64.544 2.2979L64.919 2.46332L65.3226 1.54838L65.7262 0.633444L65.3512 0.468023L64.9476 1.38296ZM65.3226 1.54838L64.919 2.46332L65.294 2.62874L65.6976 1.7138L66.1012 0.798864L65.7262 0.633444L65.3226 1.54838ZM65.6976 1.7138L65.294 2.62874C65.8458 2.87216 66.4247 2.82763 66.9334 2.54484L66.4476 1.67078L65.9618 0.796729C65.9497 0.803453 65.9699 0.790004 66.0153 0.787397C66.0365 0.786185 66.0565 0.787785 66.0735 0.79106C66.0903 0.794268 66.0998 0.798227 66.1012 0.798864L65.6976 1.7138ZM66.4476 1.67078L66.9334 2.54484L67.3084 2.3364L66.8226 1.46234L66.3368 0.588291L65.9618 0.796729L66.4476 1.67078ZM66.8226 1.46234L67.3084 2.3364L67.6834 2.12796L67.1976 1.25391L66.7118 0.379853L66.3368 0.588291L66.8226 1.46234ZM67.1976 1.25391L67.6834 2.12796C67.6845 2.12734 67.675 2.13278 67.6552 2.13834C67.6348 2.14406 67.6083 2.14855 67.5778 2.1487C67.5473 2.14886 67.5204 2.14465 67.4993 2.13895C67.4788 2.13342 67.4685 2.12776 67.4687 2.12791L67.9476 1.25002L68.4265 0.372131C67.8739 0.0707191 67.2598 0.0752329 66.7118 0.379853L67.1976 1.25391ZM67.9476 1.25002L67.4687 2.12791L67.8437 2.33246L68.3226 1.45457L68.8015 0.576682L68.4265 0.372131L67.9476 1.25002ZM68.3226 1.45457L67.8437 2.33246L68.2187 2.53701L68.6976 1.65912L69.1765 0.781233L68.8015 0.576682L68.3226 1.45457ZM68.6976 1.65912L68.2187 2.53701C68.5943 2.74187 69.0066 2.86351 69.445 2.86465L69.4476 1.86465L69.4502 0.864653C69.3886 0.864492 69.3009 0.849111 69.1765 0.781233L68.6976 1.65912ZM69.4476 1.86465L69.445 2.86465L69.82 2.86562L69.8226 1.86562L69.8252 0.865628L69.4502 0.864653L69.4476 1.86465ZM69.8226 1.86562L69.82 2.86562L70.195 2.8666L70.1976 1.8666L70.2002 0.866604L69.8252 0.865628L69.8226 1.86562ZM70.1976 1.8666L70.195 2.8666C70.471 2.86732 70.7469 2.85728 71.0227 2.83652L70.9476 1.83934L70.8725 0.842164C70.6483 0.859046 70.4242 0.867187 70.2002 0.866604L70.1976 1.8666ZM70.9476 1.83934L71.0227 2.83652L71.3977 2.80828L71.3226 1.81111L71.2475 0.81393L70.8725 0.842164L70.9476 1.83934ZM71.3226 1.81111L71.3977 2.80828L71.7727 2.78005L71.6976 1.78287L71.6225 0.785695L71.2475 0.81393L71.3226 1.81111ZM71.6976 1.78287L71.7727 2.78005C71.9229 2.76874 72.0746 2.7794 72.231 2.81409L72.4476 1.83783L72.6642 0.861563C72.3206 0.785339 71.9723 0.759357 71.6225 0.785695L71.6976 1.78287ZM72.4476 1.83783L72.231 2.81409L72.606 2.89728L72.8226 1.92102L73.0392 0.944753L72.6642 0.861563L72.4476 1.83783ZM72.8226 1.92102L72.606 2.89728L72.981 2.98048L73.1976 2.00421L73.4142 1.02794L73.0392 0.944753L72.8226 1.92102ZM73.1976 2.00421L72.981 2.98048C73.4783 3.09079 73.9633 3.01039 74.3989 2.79017L73.9476 1.89778L73.4963 1.00538C73.4583 1.02462 73.4377 1.02832 73.4321 1.02912C73.4277 1.02974 73.4236 1.03004 73.4142 1.02794L73.1976 2.00421ZM73.9476 1.89778L74.3989 2.79017L74.7739 2.60055L74.3226 1.70815L73.8713 0.815755L73.4963 1.00538L73.9476 1.89778ZM74.3226 1.70815L74.7739 2.60055L75.1489 2.41092L74.6976 1.51853L74.2463 0.626131L73.8713 0.815755L74.3226 1.70815ZM74.6976 1.51853L75.1489 2.41092C75.1599 2.40534 75.1644 2.40427 75.1626 2.40479C75.1605 2.40538 75.1541 2.40695 75.1443 2.40766C75.1345 2.40837 75.1248 2.40792 75.1166 2.40674C75.1086 2.40557 75.1053 2.40418 75.1073 2.40493L75.4476 1.46459L75.7879 0.524261C75.2635 0.334512 74.7275 0.382843 74.2463 0.626131L74.6976 1.51853ZM75.4476 1.46459L75.1073 2.40493L75.4823 2.54062L75.8226 1.60029L76.1629 0.659953L75.7879 0.524261L75.4476 1.46459ZM75.8226 1.60029L75.4823 2.54062L75.8573 2.67631L76.1976 1.73598L76.5379 0.795645L76.1629 0.659953L75.8226 1.60029ZM76.1976 1.73598L75.8573 2.67631C76.2481 2.81771 76.6578 2.86889 77.0739 2.81594L76.9476 1.82394L76.8214 0.831946C76.7374 0.842628 76.6471 0.835171 76.5379 0.795645L76.1976 1.73598ZM76.9476 1.82394L77.0739 2.81594L77.4489 2.76822L77.3226 1.77622L77.1964 0.78422L76.8214 0.831946L76.9476 1.82394ZM77.3226 1.77622L77.4489 2.76822L77.8239 2.72049L77.6976 1.72849L77.5714 0.736495L77.1964 0.78422L77.3226 1.77622ZM77.6976 1.72849L77.8239 2.72049C78.0101 2.69679 78.1953 2.69129 78.3805 2.70374L78.4476 1.706L78.5147 0.708255C78.1999 0.68707 77.8851 0.696565 77.5714 0.736495L77.6976 1.72849ZM78.4476 1.706L78.3805 2.70374L78.7555 2.72897L78.8226 1.73123L78.8897 0.733486L78.5147 0.708255L78.4476 1.706ZM78.8226 1.73123L78.7555 2.72897L79.1305 2.75421L79.1976 1.75646L79.2647 0.758718L78.8897 0.733486L78.8226 1.73123ZM79.1976 1.75646L79.1305 2.75421C79.4897 2.77838 79.8462 2.74388 80.1961 2.65413L79.9476 1.68549L79.6991 0.716858C79.549 0.755374 79.4055 0.768187 79.2647 0.758718L79.1976 1.75646ZM79.9476 1.68549L80.1961 2.65413L80.5711 2.55793L80.3226 1.58929L80.0741 0.620658L79.6991 0.716858L79.9476 1.68549ZM80.3226 1.58929L80.5711 2.55793L80.9461 2.46173L80.6976 1.49309L80.4491 0.524458L80.0741 0.620658L80.3226 1.58929ZM80.6976 1.49309L80.9461 2.46173C81.16 2.40685 81.3726 2.36502 81.584 2.33592L81.4476 1.34526L81.3112 0.354608C81.0226 0.394343 80.7352 0.451069 80.4491 0.524458L80.6976 1.49309ZM81.4476 1.34526L81.584 2.33592L81.959 2.28429L81.8226 1.29363L81.6862 0.302977L81.3112 0.354608L81.4476 1.34526ZM81.8226 1.29363L81.959 2.28429L82.334 2.23265L82.1976 1.242L82.0612 0.251346L81.6862 0.302977L81.8226 1.29363ZM82.1976 1.242L82.334 2.23265C82.248 2.24449 82.0281 2.23873 81.8307 2.062C81.667 1.91548 81.6546 1.76867 81.661 1.8078L82.6477 1.64485L83.6343 1.48191C83.5907 1.21804 83.4783 0.852604 83.1646 0.571795C82.8171 0.260778 82.3972 0.205092 82.0612 0.251346L82.1976 1.242ZM82.6477 1.64485L81.661 1.8078L81.7361 2.26228L82.7227 2.09934L83.7094 1.93639L83.6343 1.48191L82.6477 1.64485ZM82.7227 2.09934L81.7361 2.26228L81.8111 2.71676L82.7978 2.55382L83.7844 2.39088L83.7094 1.93639L82.7227 2.09934ZM82.7978 2.55382L81.8111 2.71676C81.8615 3.02169 81.9085 3.30064 81.9522 3.5535L82.9376 3.3833L83.923 3.2131C83.8803 2.96596 83.8341 2.69193 83.7844 2.39088L82.7978 2.55382ZM82.9376 3.3833L81.9522 3.5535L82.017 3.9285L83.0024 3.7583L83.9878 3.5881L83.923 3.2131L82.9376 3.3833ZM83.0024 3.7583L82.017 3.9285L82.0817 4.3035L83.0671 4.1333L84.0526 3.9631L83.9878 3.5881L83.0024 3.7583ZM83.0671 4.1333L82.0817 4.3035C82.1156 4.49975 82.1328 4.6945 82.1338 4.88832L83.1338 4.8833L84.1338 4.87828C84.1322 4.5721 84.105 4.26686 84.0526 3.9631L83.0671 4.1333ZM83.1338 4.8833L82.1338 4.88832L82.1357 5.26332L83.1357 5.2583L84.1357 5.25328L84.1338 4.87828L83.1338 4.8833ZM83.1357 5.2583L82.1357 5.26332L82.1376 5.63832L83.1376 5.6333L84.1375 5.62828L84.1357 5.25328L83.1357 5.2583ZM83.1376 5.6333L82.1376 5.63832C82.1386 5.84037 82.1251 6.04292 82.097 6.24631L83.0876 6.3833L84.0782 6.52029C84.1192 6.22369 84.139 5.92623 84.1375 5.62828L83.1376 5.6333ZM83.0876 6.3833L82.097 6.24631L82.0452 6.62131L83.0357 6.7583L84.0263 6.89529L84.0782 6.52029L83.0876 6.3833ZM83.0357 6.7583L82.0452 6.62131L81.9933 6.99631L82.9839 7.1333L83.9744 7.27029L84.0263 6.89529L83.0357 6.7583ZM82.9839 7.1333L81.9933 6.99631C81.9758 7.12303 81.9326 7.26564 81.8499 7.42684L82.7396 7.8833L83.6294 8.33977C83.8032 8.00096 83.9228 7.64357 83.9744 7.27029L82.9839 7.1333ZM82.7396 7.8833L81.8499 7.42684L81.6575 7.80184L82.5472 8.2583L83.437 8.71477L83.6294 8.33977L82.7396 7.8833ZM82.5472 8.2583L81.6575 7.80184L81.4651 8.17684L82.3548 8.6333L83.2446 9.08977L83.437 8.71477L82.5472 8.2583ZM82.3548 8.6333L81.4651 8.17684C81.2437 8.60842 81.1581 9.09028 81.2613 9.58683L82.2404 9.3833L83.2195 9.17978C83.2175 9.17023 83.2177 9.16523 83.2186 9.15913C83.2197 9.1518 83.2242 9.12944 83.2446 9.08977L82.3548 8.6333ZM82.2404 9.3833L81.2613 9.58683L81.3393 9.96183L82.3184 9.7583L83.2974 9.55478L83.2195 9.17978L82.2404 9.3833ZM82.3184 9.7583L81.3393 9.96183L81.4172 10.3368L82.3963 10.1333L83.3754 9.92978L83.2974 9.55478L82.3184 9.7583ZM82.3963 10.1333L81.4172 10.3368C81.4688 10.5847 81.5195 10.8326 81.5693 11.0805L82.5497 10.8833L83.5301 10.6861C83.4793 10.434 83.4278 10.1819 83.3754 9.92978L82.3963 10.1333ZM82.5497 10.8833L81.5693 11.0805L81.6448 11.4555L82.6251 11.2583L83.6055 11.0611L83.5301 10.6861L82.5497 10.8833ZM82.6251 11.2583L81.6448 11.4555L81.7202 11.8305L82.7006 11.6333L83.6809 11.4361L83.6055 11.0611L82.6251 11.2583ZM82.7006 11.6333L81.7202 11.8305C81.7397 11.9276 81.7374 12.022 81.7098 12.1258L82.6761 12.3833L83.6423 12.6408C83.7479 12.2446 83.762 11.839 83.6809 11.4361L82.7006 11.6333ZM82.6761 12.3833L81.7098 12.1258L81.6098 12.5008L82.5761 12.7583L83.5424 13.0158L83.6423 12.6408L82.6761 12.3833ZM82.5761 12.7583L81.6098 12.5008L81.5099 12.8758L82.4762 13.1333L83.4424 13.3908L83.5424 13.0158L82.5761 12.7583ZM82.4762 13.1333L81.5099 12.8758C81.3902 13.3247 81.4117 13.7798 81.5642 14.2144L82.5078 13.8833L83.4514 13.5522C83.4285 13.4868 83.4288 13.4419 83.4424 13.3908L82.4762 13.1333ZM82.5078 13.8833L81.5642 14.2144L81.6958 14.5894L82.6394 14.2583L83.583 13.9272L83.4514 13.5522L82.5078 13.8833ZM82.6394 14.2583L81.6958 14.5894L81.8274 14.9644L82.771 14.6333L83.7146 14.3022L83.583 13.9272L82.6394 14.2583ZM82.771 14.6333L81.8274 14.9644C81.8753 15.1008 81.8918 15.2233 81.8866 15.3381L82.8856 15.3833L83.8846 15.4285C83.902 15.0433 83.8421 14.6658 83.7146 14.3022L82.771 14.6333ZM82.8856 15.3833L81.8866 15.3381L81.8697 15.7131L82.8686 15.7583L83.8676 15.8035L83.8846 15.4285L82.8856 15.3833ZM82.8686 15.7583L81.8697 15.7131L81.8527 16.0881L82.8517 16.1333L83.8506 16.1785L83.8676 15.8035L82.8686 15.7583ZM82.8517 16.1333L81.8527 16.0881C81.8436 16.289 81.8197 16.491 81.7806 16.6944L82.7626 16.8833L83.7446 17.0722C83.8016 16.7756 83.8371 16.4776 83.8506 16.1785L82.8517 16.1333ZM82.7626 16.8833L81.7806 16.6944L81.7085 17.0694L82.6905 17.2583L83.6725 17.4472L83.7446 17.0722L82.7626 16.8833ZM82.6905 17.2583L81.7085 17.0694L81.6363 17.4444L82.6183 17.6333L83.6003 17.8222L83.6725 17.4472L82.6905 17.2583ZM82.6183 17.6333L81.6363 17.4444C81.5582 17.8509 81.5778 18.2589 81.6902 18.6558L82.6524 18.3833L83.6146 18.1108C83.5854 18.0077 83.5824 17.9157 83.6003 17.8222L82.6183 17.6333ZM82.6524 18.3833L81.6902 18.6558L81.7964 19.0308L82.7586 18.7583L83.7208 18.4858L83.6146 18.1108L82.6524 18.3833ZM82.7586 18.7583L81.7964 19.0308L81.9026 19.4058L82.8648 19.1333L83.827 18.8608L83.7208 18.4858L82.7586 18.7583ZM82.8648 19.1333L81.9026 19.4058C81.9462 19.5596 81.9634 19.7058 81.9583 19.8479L82.9577 19.8833L83.9571 19.9187C83.9698 19.5608 83.925 19.207 83.827 18.8608L82.8648 19.1333ZM82.9577 19.8833L81.9583 19.8479L81.9451 20.2229L82.9444 20.2583L83.9438 20.2937L83.9571 19.9187L82.9577 19.8833ZM82.9444 20.2583L81.9451 20.2229L81.9318 20.5979L82.9311 20.6333L83.9305 20.6687L83.9438 20.2937L82.9444 20.2583ZM82.9311 20.6333L81.9318 20.5979C81.9301 20.6442 81.9153 20.7263 81.8355 20.8544L82.6841 21.3833L83.5328 21.9122C83.7646 21.5403 83.9144 21.1224 83.9305 20.6687L82.9311 20.6333ZM82.6841 21.3833L81.8355 20.8544L81.6017 21.2294L82.4504 21.7583L83.2991 22.2872L83.5328 21.9122L82.6841 21.3833ZM82.4504 21.7583L81.6017 21.2294L81.368 21.6044L82.2167 22.1333L83.0653 22.6622L83.2991 22.2872L82.4504 21.7583ZM82.2167 22.1333L81.368 21.6044C81.1055 22.0256 80.9709 22.5196 81.0594 23.0483L82.0457 22.8833L83.032 22.7183C83.0322 22.7194 83.0325 22.7223 83.0324 22.7261C83.0323 22.7298 83.0318 22.7316 83.0321 22.7306C83.0324 22.7289 83.0377 22.7066 83.0653 22.6622L82.2167 22.1333ZM82.0457 22.8833L81.0594 23.0483L81.1222 23.4233L82.1085 23.2583L83.0947 23.0933L83.032 22.7183L82.0457 22.8833ZM82.1085 23.2583L81.1222 23.4233L81.1849 23.7983L82.1712 23.6333L83.1575 23.4683L83.0947 23.0933L82.1085 23.2583ZM82.1712 23.6333L81.1849 23.7983C81.2429 24.1446 81.3509 24.4808 81.5019 24.8053L82.4085 24.3833L83.3151 23.9613C83.2334 23.7858 83.1832 23.622 83.1575 23.4683L82.1712 23.6333ZM82.4085 24.3833L81.5019 24.8053L81.6765 25.1803L82.5831 24.7583L83.4897 24.3363L83.3151 23.9613L82.4085 24.3833ZM82.5831 24.7583L81.6765 25.1803L81.8511 25.5553L82.7576 25.1333L83.6642 24.7113L83.4897 24.3363L82.5831 24.7583ZM82.7576 25.1333L81.8511 25.5553C81.8429 25.5377 81.8267 25.4882 81.8324 25.4219C81.8378 25.3591 81.8587 25.3312 81.8499 25.3449L82.6926 25.8833L83.5353 26.4217C83.8624 25.9097 83.9376 25.2985 83.6642 24.7113L82.7576 25.1333ZM82.6926 25.8833L81.8499 25.3449L81.6103 25.7199L82.453 26.2583L83.2957 26.7967L83.5353 26.4217L82.6926 25.8833ZM82.453 26.2583L81.6103 25.7199L81.3707 26.0949L82.2134 26.6333L83.0561 27.1717L83.2957 26.7967L82.453 26.2583ZM82.2134 26.6333L81.3707 26.0949C81.1128 26.4985 80.9651 26.9699 81.0159 27.4821L82.011 27.3833L83.0061 27.2845C83.0061 27.2838 83.0053 27.2805 83.0085 27.2688C83.0121 27.2553 83.0232 27.2231 83.0561 27.1717L82.2134 26.6333ZM82.011 27.3833L81.0159 27.4821L81.0531 27.8571L82.0482 27.7583L83.0434 27.6595L83.0061 27.2845L82.011 27.3833ZM82.0482 27.7583L81.0531 27.8571L81.0904 28.2321L82.0855 28.1333L83.0806 28.0345L83.0434 27.6595L82.0482 27.7583ZM82.0855 28.1333L81.0904 28.2321C81.124 28.5714 81.2028 28.9041 81.3224 29.2289L82.2608 28.8833L83.1992 28.5377C83.1347 28.3625 83.0965 28.1952 83.0806 28.0345L82.0855 28.1333ZM82.2608 28.8833L81.3224 29.2289L81.4605 29.6039L82.3989 29.2583L83.3373 28.9127L83.1992 28.5377L82.2608 28.8833ZM82.3989 29.2583L81.4605 29.6039L81.5986 29.9789L82.537 29.6333L83.4754 29.2877L83.3373 28.9127L82.3989 29.2583ZM82.537 29.6333L81.5986 29.9789C81.6669 30.1643 81.7114 30.3436 81.7349 30.5175L82.7259 30.3833L83.7168 30.2491C83.6727 29.923 83.5912 29.6023 83.4754 29.2877L82.537 29.6333ZM82.7259 30.3833L81.7349 30.5175L81.7857 30.8925L82.7766 30.7583L83.7676 30.6241L83.7168 30.2491L82.7259 30.3833ZM82.7766 30.7583L81.7857 30.8925L81.8365 31.2675L82.8274 31.1333L83.8184 30.9991L83.7676 30.6241L82.7766 30.7583ZM82.8274 31.1333L81.8365 31.2675C81.8574 31.4221 81.856 31.5757 81.8321 31.7311L82.8205 31.8833L83.8088 32.0355C83.8619 31.6909 83.8652 31.3445 83.8184 30.9991L82.8274 31.1333ZM82.8205 31.8833L81.8321 31.7311L81.7744 32.1061L82.7627 32.2583L83.7511 32.4105L83.8088 32.0355L82.8205 31.8833ZM82.7627 32.2583L81.7744 32.1061L81.7166 32.4811L82.705 32.6333L83.6933 32.7855L83.7511 32.4105L82.7627 32.2583ZM82.705 32.6333L81.7166 32.4811C81.7127 32.5062 81.7201 32.4165 81.8115 32.3015C81.8604 32.2399 81.9273 32.1794 82.0119 32.1321C82.096 32.0851 82.1781 32.0621 82.2462 32.053L82.3786 33.0442L82.5109 34.0354C82.8475 33.9904 83.1563 33.8239 83.3775 33.5455C83.5777 33.2935 83.6587 33.0104 83.6933 32.7855L82.705 32.6333ZM82.3786 33.0442L82.2462 32.053L81.9776 32.0888L82.1099 33.08L82.2422 34.0712L82.5109 34.0354L82.3786 33.0442ZM82.1099 33.08L81.9776 32.0888L81.7089 32.1247L81.8413 33.1159L81.9736 34.1071L82.2422 34.0712L82.1099 33.08ZM81.8413 33.1159L81.7089 32.1247C81.335 32.1746 80.9838 32.3392 80.6801 32.5229L81.1976 33.3786L81.7151 34.2343C81.8064 34.179 81.8755 34.1451 81.9239 34.1254C81.9734 34.1052 81.9881 34.1052 81.9736 34.1071L81.8413 33.1159ZM81.1976 33.3786L80.6801 32.5229L80.3051 32.7498L80.8226 33.6054L81.3401 34.4611L81.7151 34.2343L81.1976 33.3786ZM80.8226 33.6054L80.3051 32.7498L79.9301 32.9766L80.4476 33.8322L80.9651 34.6879L81.3401 34.4611L80.8226 33.6054ZM80.4476 33.8322L79.9301 32.9766C79.9113 32.9879 79.927 32.9743 79.9716 32.9698C79.9927 32.9677 80.014 32.9683 80.0335 32.9712C80.0528 32.9741 80.0655 32.9785 80.0704 32.9805L79.6976 33.9084L79.3248 34.8363C79.8938 35.0649 80.4725 34.9859 80.9651 34.6879L80.4476 33.8322ZM79.6976 33.9084L80.0704 32.9805L79.6954 32.8298L79.3226 33.7577L78.9498 34.6856L79.3248 34.8363L79.6976 33.9084ZM79.3226 33.7577L79.6954 32.8298L79.3204 32.6792L78.9476 33.6071L78.5748 34.535L78.9498 34.6856L79.3226 33.7577ZM78.9476 33.6071L79.3204 32.6792C78.9718 32.5391 78.6088 32.4571 78.2352 32.443L78.1976 33.4423L78.16 34.4416C78.2864 34.4464 78.4234 34.4741 78.5748 34.535L78.9476 33.6071ZM78.1976 33.4423L78.2352 32.443L77.8602 32.4289L77.8226 33.4282L77.785 34.4275L78.16 34.4416L78.1976 33.4423ZM77.8226 33.4282L77.8602 32.4289L77.4852 32.4148L77.4476 33.4141L77.41 34.4134L77.785 34.4275L77.8226 33.4282ZM77.4476 33.4141L77.4852 32.4148C77.0592 32.3988 76.651 32.4932 76.2716 32.6718L76.6976 33.5765L77.1236 34.4813C77.2442 34.4245 77.336 34.4106 77.41 34.4134L77.4476 33.4141ZM76.6976 33.5765L76.2716 32.6718L75.8966 32.8483L76.3226 33.7531L76.7486 34.6578L77.1236 34.4813L76.6976 33.5765ZM76.3226 33.7531L75.8966 32.8483L75.5216 33.0249L75.9476 33.9296L76.3736 34.8344L76.7486 34.6578L76.3226 33.7531ZM75.9476 33.9296L75.5216 33.0249C75.4023 33.0811 75.3123 33.0942 75.2401 33.0911L75.1976 34.0902L75.1551 35.0893C75.5829 35.1075 75.9929 35.0136 76.3736 34.8344L75.9476 33.9296ZM75.1976 34.0902L75.2401 33.0911L74.8651 33.0752L74.8226 34.0743L74.7801 35.0734L75.1551 35.0893L75.1976 34.0902ZM74.8226 34.0743L74.8651 33.0752L74.4901 33.0593L74.4476 34.0584L74.4051 35.0575L74.7801 35.0734L74.8226 34.0743ZM74.4476 34.0584L74.4901 33.0593C74.4809 33.0589 74.4177 33.0553 74.2891 32.961L73.6976 33.7673L73.1061 34.5736C73.4775 34.8461 73.9143 35.0366 74.4051 35.0575L74.4476 34.0584ZM73.6976 33.7673L74.2891 32.961L73.9141 32.6859L73.3226 33.4922L72.7311 34.2986L73.1061 34.5736L73.6976 33.7673ZM73.3226 33.4922L73.9141 32.6859L73.5391 32.4108L72.9476 33.2171L72.3561 34.0235L72.7311 34.2986L73.3226 33.4922ZM72.9476 33.2171L73.5391 32.4108C73.0602 32.0595 72.4494 31.9141 71.8254 32.1643L72.1976 33.0924L72.5698 34.0206C72.556 34.0261 72.5328 34.0334 72.5016 34.037C72.4701 34.0407 72.4382 34.0398 72.4086 34.0349C72.3482 34.0248 72.3297 34.0041 72.3561 34.0235L72.9476 33.2171ZM72.1976 33.0924L71.8254 32.1643L71.4504 32.3146L71.8226 33.2428L72.1948 34.171L72.5698 34.0206L72.1976 33.0924ZM71.8226 33.2428L71.4504 32.3146L71.0754 32.465L71.4476 33.3932L71.8198 34.3213L72.1948 34.171L71.8226 33.2428ZM71.4476 33.3932L71.0754 32.465C71.0486 32.4757 71.0362 32.4762 71.0341 32.4763C71.0325 32.4764 71.0247 32.4768 71.0058 32.4707L70.6976 33.422L70.3894 34.3733C70.8679 34.5284 71.3586 34.5063 71.8198 34.3213L71.4476 33.3932ZM70.6976 33.422L71.0058 32.4707L70.6308 32.3492L70.3226 33.3005L70.0144 34.2518L70.3894 34.3733L70.6976 33.422ZM70.3226 33.3005L70.6308 32.3492L70.2558 32.2277L69.9476 33.179L69.6394 34.1303L70.0144 34.2518L70.3226 33.3005ZM69.9476 33.179L70.2558 32.2277C69.8263 32.0885 69.3804 32.074 68.9416 32.1902L69.1976 33.1568L69.4536 34.1235C69.5148 34.1073 69.5689 34.1075 69.6394 34.1303L69.9476 33.179ZM69.1976 33.1568L68.9416 32.1902L68.5666 32.2895L68.8226 33.2561L69.0786 34.2228L69.4536 34.1235L69.1976 33.1568ZM68.8226 33.2561L68.5666 32.2895L68.1916 32.3888L68.4476 33.3554L68.7036 34.3221L69.0786 34.2228L68.8226 33.2561ZM68.4476 33.3554L68.1916 32.3888C67.9962 32.4405 67.8038 32.4739 67.6136 32.4899L67.6976 33.4864L67.7816 34.4828C68.0914 34.4567 68.399 34.4028 68.7036 34.3221L68.4476 33.3554ZM67.6976 33.4864L67.6136 32.4899L67.2386 32.5215L67.3226 33.5179L67.4066 34.5144L67.7816 34.4828L67.6976 33.4864ZM67.3226 33.5179L67.2386 32.5215L66.8636 32.5531L66.9476 33.5495L67.0316 34.546L67.4066 34.5144L67.3226 33.5179ZM66.9476 33.5495L66.8636 32.5531C66.7561 32.5621 66.6424 32.55 66.5148 32.5073L66.1976 33.4557L65.8804 34.404C66.2528 34.5286 66.6391 34.5791 67.0316 34.546L66.9476 33.5495ZM66.1976 33.4557L66.5148 32.5073L66.1398 32.3819L65.8226 33.3302L65.5054 34.2786L65.8804 34.404L66.1976 33.4557ZM65.8226 33.3302L66.1398 32.3819L65.7648 32.2565L65.4476 33.2048L65.1304 34.1532L65.5054 34.2786L65.8226 33.3302ZM65.4476 33.2048L65.7648 32.2565C65.2911 32.098 64.8025 32.1119 64.3396 32.2894L64.6976 33.2231L65.0556 34.1569C65.0816 34.1469 65.094 34.1464 65.097 34.1464C65.0999 34.1463 65.1094 34.1461 65.1304 34.1532L65.4476 33.2048ZM64.6976 33.2231L64.3396 32.2894L63.9646 32.4332L64.3226 33.3669L64.6806 34.3006L65.0556 34.1569L64.6976 33.2231ZM64.3226 33.3669L63.9646 32.4332L63.5896 32.577L63.9476 33.5107L64.3056 34.4444L64.6806 34.3006L64.3226 33.3669ZM63.9476 33.5107L63.5896 32.577C63.5852 32.5786 63.5864 32.5778 63.5923 32.5768C63.5985 32.5757 63.6067 32.575 63.6156 32.5754C63.6246 32.5758 63.6308 32.5771 63.6334 32.5777C63.6357 32.5784 63.6323 32.5777 63.6226 32.5732L63.1976 33.4784L62.7726 34.3836C63.2601 34.6125 63.7927 34.6411 64.3056 34.4444L63.9476 33.5107ZM63.1976 33.4784L63.6226 32.5732L63.2476 32.3971L62.8226 33.3023L62.3976 34.2075L62.7726 34.3836L63.1976 33.4784ZM62.8226 33.3023L63.2476 32.3971L62.8726 32.221L62.4476 33.1262L62.0226 34.0314L62.3976 34.2075L62.8226 33.3023ZM62.4476 33.1262L62.8726 32.221C62.4635 32.0289 62.0176 31.9479 61.5567 32.0135L61.6976 33.0035L61.8385 33.9935C61.8776 33.988 61.9317 33.9888 62.0226 34.0314L62.4476 33.1262ZM61.6976 33.0035L61.5567 32.0135L61.1817 32.0669L61.3226 33.0569L61.4635 34.0469L61.8385 33.9935L61.6976 33.0035ZM61.3226 33.0569L61.1817 32.0669L60.8067 32.1203L60.9476 33.1103L61.0885 34.1003L61.4635 34.0469L61.3226 33.0569ZM60.9476 33.1103L60.8067 32.1203C60.6055 32.1489 60.4052 32.1623 60.2055 32.1607L60.1976 33.1607L60.1897 34.1607C60.49 34.163 60.7897 34.1428 61.0885 34.1003L60.9476 33.1103ZM60.1976 33.1607L60.2055 32.1607L59.8305 32.1578L59.8226 33.1577L59.8147 34.1577L60.1897 34.1607L60.1976 33.1607ZM59.8226 33.1577L59.8305 32.1578L59.4555 32.1548L59.4476 33.1548L59.4397 34.1547L59.8147 34.1577L59.8226 33.1577ZM59.4476 33.1548L59.4555 32.1548C59.2421 32.1531 59.0283 32.1397 58.8142 32.1146L58.6976 33.1078L58.581 34.101C58.8669 34.1345 59.1531 34.1525 59.4397 34.1547L59.4476 33.1548ZM58.6976 33.1078L58.8142 32.1146L58.4392 32.0706L58.3226 33.0638L58.206 34.0569L58.581 34.101L58.6976 33.1078ZM58.3226 33.0638L58.4392 32.0706L58.0642 32.0266L57.9476 33.0198L57.831 34.0129L58.206 34.0569L58.3226 33.0638ZM57.9476 33.0198L58.0642 32.0266C57.777 31.9929 57.4894 31.9754 57.2015 31.9743L57.1976 32.9743L57.1937 33.9743C57.4058 33.9751 57.6182 33.9879 57.831 34.0129L57.9476 33.0198ZM57.1976 32.9743L57.2015 31.9743L56.8265 31.9728L56.8226 32.9728L56.8187 33.9728L57.1937 33.9743L57.1976 32.9743ZM56.8226 32.9728L56.8265 31.9728L56.4515 31.9713L56.4476 32.9713L56.4437 33.9713L56.8187 33.9728L56.8226 32.9728ZM56.4476 32.9713L56.4515 31.9713C56.0015 31.9696 55.581 32.099 55.2022 32.315L55.6976 33.1837L56.193 34.0524C56.3142 33.9832 56.3937 33.9711 56.4437 33.9713L56.4476 32.9713ZM55.6976 33.1837L55.2022 32.315L54.8272 32.5289L55.3226 33.3976L55.818 34.2662L56.193 34.0524L55.6976 33.1837ZM55.3226 33.3976L54.8272 32.5289L54.4522 32.7428L54.9476 33.6114L55.443 34.4801L55.818 34.2662L55.3226 33.3976ZM54.9476 33.6114L54.4522 32.7428C54.3061 32.8261 54.1896 32.8587 54.0977 32.868L54.1976 33.863L54.2975 34.858C54.7056 34.817 55.0891 34.682 55.443 34.4801L54.9476 33.6114ZM54.1976 33.863L54.0977 32.868L53.7227 32.9056L53.8226 33.9006L53.9225 34.8956L54.2975 34.858L54.1976 33.863ZM53.8226 33.9006L53.7227 32.9056L53.3477 32.9433L53.4476 33.9383L53.5475 34.9333L53.9225 34.8956L53.8226 33.9006ZM53.4476 33.9383L53.3477 32.9433C53.301 32.948 53.2357 32.9436 53.134 32.8943L52.6976 33.794L52.2612 34.6938C52.6595 34.887 53.0942 34.9788 53.5475 34.9333L53.4476 33.9383ZM52.6976 33.794L53.134 32.8943L52.759 32.7124L52.3226 33.6121L51.8862 34.5119L52.2612 34.6938L52.6976 33.794ZM52.3226 33.6121L52.759 32.7124L52.384 32.5305L51.9476 33.4302L51.5112 34.33L51.8862 34.5119L52.3226 33.6121ZM51.9476 33.4302L52.384 32.5305C51.9663 32.3279 51.5071 32.2454 51.0328 32.3246L51.1976 33.311L51.3624 34.2973C51.3881 34.293 51.4289 34.2901 51.5112 34.33L51.9476 33.4302ZM51.1976 33.311L51.0328 32.3246L50.6578 32.3873L50.8226 33.3736L50.9874 34.36L51.3624 34.2973L51.1976 33.311ZM50.8226 33.3736L50.6578 32.3873L50.2828 32.4499L50.4476 33.4363L50.6124 34.4226L50.9874 34.36L50.8226 33.3736ZM50.4476 33.4363L50.2828 32.4499C50.0537 32.4882 49.8249 32.519 49.5963 32.5422L49.6976 33.5371L49.7989 34.5319C50.0703 34.5043 50.3415 34.4679 50.6124 34.4226L50.4476 33.4363ZM49.6976 33.5371L49.5963 32.5422L49.2213 32.5804L49.3226 33.5753L49.4239 34.5701L49.7989 34.5319L49.6976 33.5371ZM49.3226 33.5753L49.2213 32.5804L48.8463 32.6186L48.9476 33.6134L49.0489 34.6083L49.4239 34.5701L49.3226 33.5753ZM48.9476 33.6134L48.8463 32.6186C48.678 32.6357 48.5099 32.6322 48.3403 32.6078L48.1976 33.5975L48.0549 34.5873C48.3853 34.6349 48.7172 34.642 49.0489 34.6083L48.9476 33.6134ZM48.1976 33.5975L48.3403 32.6078L47.9653 32.5537L47.8226 33.5435L47.6799 34.5332L48.0549 34.5873L48.1976 33.5975ZM47.8226 33.5435L47.9653 32.5537L47.5903 32.4996L47.4476 33.4894L47.3049 34.4792L47.6799 34.5332L47.8226 33.5435ZM47.4476 33.4894L47.5903 32.4996C47.2275 32.4473 46.8638 32.4572 46.504 32.5282L46.6976 33.5093L46.8912 34.4904C47.0314 34.4627 47.1677 34.4594 47.3049 34.4792L47.4476 33.4894ZM46.6976 33.5093L46.504 32.5282L46.129 32.6022L46.3226 33.5833L46.5162 34.5644L46.8912 34.4904L46.6976 33.5093ZM46.3226 33.5833L46.129 32.6022L45.754 32.6762L45.9476 33.6573L46.1412 34.6384L46.5162 34.5644L46.3226 33.5833ZM45.9476 33.6573L45.754 32.6762C45.6589 32.695 45.5658 32.6924 45.4626 32.664L45.1976 33.6282L44.9326 34.5925C45.3294 34.7015 45.7364 34.7183 46.1412 34.6384L45.9476 33.6573ZM45.1976 33.6282L45.4626 32.664L45.0876 32.5609L44.8226 33.5252L44.5576 34.4894L44.9326 34.5925L45.1976 33.6282ZM44.8226 33.5252L45.0876 32.5609L44.7126 32.4579L44.4476 33.4221L44.1826 34.3863L44.5576 34.4894L44.8226 33.5252ZM44.4476 33.4221L44.7126 32.4579C44.4184 32.377 44.1221 32.3173 43.824 32.2793L43.6976 33.2713L43.5712 34.2632C43.7731 34.289 43.9768 34.3298 44.1826 34.3863L44.4476 33.4221ZM43.6976 33.2713L43.824 32.2793L43.449 32.2315L43.3226 33.2235L43.1962 34.2155L43.5712 34.2632L43.6976 33.2713ZM43.3226 33.2235L43.449 32.2315L43.074 32.1837L42.9476 33.1757L42.8212 34.1677L43.1962 34.2155L43.3226 33.2235ZM42.9476 33.1757L43.074 32.1837C42.5618 32.1184 42.0852 32.2537 41.6743 32.506L42.1976 33.3582L42.7209 34.2103C42.7693 34.1806 42.7984 34.1717 42.809 34.1691C42.8179 34.1669 42.8199 34.1675 42.8212 34.1677L42.9476 33.1757ZM42.1976 33.3582L41.6743 32.506L41.2993 32.7363L41.8226 33.5885L42.3459 34.4406L42.7209 34.2103L42.1976 33.3582ZM41.8226 33.5885L41.2993 32.7363L40.9243 32.9666L41.4476 33.8187L41.9709 34.6709L42.3459 34.4406L41.8226 33.5885ZM41.4476 33.8187L40.9243 32.9666C40.8913 32.9869 40.8857 32.9832 40.9048 32.98C40.9138 32.9784 40.9249 32.9776 40.9368 32.9782C40.9486 32.9788 40.9572 32.9807 40.9616 32.9819L40.6976 33.9464L40.4336 34.9109C40.9867 35.0623 41.5195 34.9481 41.9709 34.6709L41.4476 33.8187ZM40.6976 33.9464L40.9616 32.9819L40.5866 32.8792L40.3226 33.8438L40.0586 34.8083L40.4336 34.9109L40.6976 33.9464ZM40.3226 33.8438L40.5866 32.8792L40.2116 32.7766L39.9476 33.7411L39.6836 34.7056L40.0586 34.8083L40.3226 33.8438ZM39.9476 33.7411L40.2116 32.7766C39.8282 32.6717 39.435 32.6478 39.0415 32.71L39.1976 33.6977L39.3537 34.6855C39.4602 34.6687 39.567 34.6737 39.6836 34.7056L39.9476 33.7411ZM39.1976 33.6977L39.0415 32.71L38.6665 32.7692L38.8226 33.757L38.9787 34.7447L39.3537 34.6855L39.1976 33.6977ZM38.8226 33.757L38.6665 32.7692L38.2915 32.8285L38.4476 33.8162L38.6037 34.804L38.9787 34.7447L38.8226 33.757ZM38.4476 33.8162L38.2915 32.8285C38.2508 32.8349 38.1978 32.8344 38.1101 32.7947L37.6976 33.7057L37.2851 34.6167C37.6974 34.8033 38.1444 34.8765 38.6037 34.804L38.4476 33.8162ZM37.6976 33.7057L38.1101 32.7947L37.7351 32.6249L37.3226 33.5359L36.9101 34.4469L37.2851 34.6167L37.6976 33.7057ZM37.3226 33.5359L37.7351 32.6249L37.3601 32.4551L36.9476 33.3661L36.5351 34.2771L36.9101 34.4469L37.3226 33.5359ZM36.9476 33.3661L37.3601 32.4551C36.9654 32.2765 36.54 32.1947 36.0995 32.2381L36.1976 33.2333L36.2957 34.2285C36.3552 34.2226 36.4298 34.2294 36.5351 34.2771L36.9476 33.3661ZM36.1976 33.2333L36.0995 32.2381L35.7245 32.2751L35.8226 33.2702L35.9207 34.2654L36.2957 34.2285L36.1976 33.2333ZM35.8226 33.2702L35.7245 32.2751L35.3495 32.312L35.4476 33.3072L35.5457 34.3024L35.9207 34.2654L35.8226 33.2702ZM35.4476 33.3072L35.3495 32.312C35.1854 32.3282 35.0213 32.3233 34.8551 32.2968L34.6976 33.2843L34.5401 34.2719C34.8739 34.3251 35.2098 34.3355 35.5457 34.3024L35.4476 33.3072ZM34.6976 33.2843L34.8551 32.2968L34.4801 32.237L34.3226 33.2245L34.1651 34.212L34.5401 34.2719L34.6976 33.2843ZM34.3226 33.2245L34.4801 32.237L34.1051 32.1772L33.9476 33.1647L33.7901 34.1522L34.1651 34.212L34.3226 33.2245ZM33.9476 33.1647L34.1051 32.1772C33.729 32.1172 33.3516 32.1296 32.9799 32.2125L33.1976 33.1885L33.4153 34.1645C33.5436 34.1359 33.6662 34.1325 33.7901 34.1522L33.9476 33.1647ZM33.1976 33.1885L32.9799 32.2125L32.6049 32.2961L32.8226 33.2722L33.0403 34.2482L33.4153 34.1645L33.1976 33.1885ZM32.8226 33.2722L32.6049 32.2961L32.2299 32.3798L32.4476 33.3558L32.6653 34.3318L33.0403 34.2482L32.8226 33.2722ZM32.4476 33.3558L32.2299 32.3798C31.9605 32.4399 31.6914 32.5083 31.4228 32.5851L31.6976 33.5466L31.9724 34.5081C32.2038 34.442 32.4348 34.3832 32.6653 34.3318L32.4476 33.3558ZM31.6976 33.5466L31.4228 32.5851L31.0478 32.6923L31.3226 33.6538L31.5974 34.6153L31.9724 34.5081L31.6976 33.5466ZM31.3226 33.6538L31.0478 32.6923L30.6728 32.7994L30.9476 33.7609L31.2224 34.7225L31.5974 34.6153L31.3226 33.6538ZM30.9476 33.7609L30.6728 32.7994C30.6752 32.7988 30.682 32.7971 30.692 32.7965C30.7022 32.7958 30.712 32.7963 30.7203 32.7975C30.7283 32.7987 30.7317 32.8001 30.7295 32.7993C30.7271 32.7984 30.718 32.7948 30.7021 32.7856L30.1976 33.649L29.6931 34.5124C30.1491 34.7789 30.679 34.8778 31.2224 34.7225L30.9476 33.7609ZM30.1976 33.649L30.7021 32.7856L30.3271 32.5665L29.8226 33.4298L29.3181 34.2932L29.6931 34.5124L30.1976 33.649ZM29.8226 33.4298L30.3271 32.5665L29.9521 32.3473L29.4476 33.2107L28.9431 34.0741L29.3181 34.2932L29.8226 33.4298ZM29.4476 33.2107L29.9521 32.3473C29.565 32.1211 29.1298 31.9889 28.6624 32.0054L28.6976 33.0048L28.7328 34.0041C28.7654 34.003 28.8302 34.0081 28.9431 34.0741L29.4476 33.2107ZM28.6976 33.0048L28.6624 32.0054L28.2874 32.0186L28.3226 33.018L28.3578 34.0173L28.7328 34.0041L28.6976 33.0048ZM28.3226 33.018L28.2874 32.0186L27.9124 32.0318L27.9476 33.0312L27.9828 34.0305L28.3578 34.0173L28.3226 33.018ZM27.9476 33.0312L27.9124 32.0318C27.5316 32.0452 27.1626 32.1319 26.8104 32.2799L27.1976 33.2019L27.5848 34.1238C27.7326 34.0618 27.8636 34.0347 27.9828 34.0305L27.9476 33.0312ZM27.1976 33.2019L26.8104 32.2799L26.4354 32.4374L26.8226 33.3594L27.2098 34.2813L27.5848 34.1238L27.1976 33.2019ZM26.8226 33.3594L26.4354 32.4374L26.0604 32.5949L26.4476 33.5169L26.8348 34.4388L27.2098 34.2813L26.8226 33.3594ZM26.4476 33.5169L26.0604 32.5949C25.9596 32.6372 25.8862 32.6426 25.8238 32.6347L25.6976 33.6267L25.5714 34.6187C26.009 34.6743 26.4356 34.6065 26.8348 34.4388L26.4476 33.5169ZM25.6976 33.6267L25.8238 32.6347L25.4488 32.587L25.3226 33.579L25.1964 34.571L25.5714 34.6187L25.6976 33.6267ZM25.3226 33.579L25.4488 32.587L25.0738 32.5393L24.9476 33.5313L24.8214 34.5233L25.1964 34.571L25.3226 33.579ZM24.9476 33.5313L25.0738 32.5393C24.66 32.4867 24.2522 32.5362 23.8625 32.6748L24.1976 33.617L24.5327 34.5592C24.643 34.5199 24.7352 34.5123 24.8214 34.5233L24.9476 33.5313ZM24.1976 33.617L23.8625 32.6748L23.4875 32.8081L23.8226 33.7503L24.1577 34.6925L24.5327 34.5592L24.1976 33.617ZM23.8226 33.7503L23.4875 32.8081L23.1125 32.9415L23.4476 33.8837L23.7827 34.8259L24.1577 34.6925L23.8226 33.7503ZM23.4476 33.8837L23.1125 32.9415C23.1249 32.9371 23.145 32.9317 23.171 32.9294C23.1974 32.927 23.2234 32.9283 23.2467 32.9325C23.2944 32.9409 23.305 32.9559 23.2761 32.9354L22.6976 33.7511L22.1191 34.5668C22.5874 34.8989 23.1747 35.0421 23.7827 34.8259L23.4476 33.8837ZM22.6976 33.7511L23.2761 32.9354L22.9011 32.6694L22.3226 33.4851L21.7441 34.3008L22.1191 34.5668L22.6976 33.7511ZM22.3226 33.4851L22.9011 32.6694L22.5261 32.4035L21.9476 33.2192L21.3691 34.0349L21.7441 34.3008L22.3226 33.4851ZM21.9476 33.2192L22.5261 32.4035C22.0224 32.0463 21.3924 31.9339 20.7751 32.2217L21.1976 33.1281L21.6201 34.0344C21.5924 34.0473 21.53 34.0656 21.452 34.0561C21.3799 34.0474 21.3505 34.0217 21.3691 34.0349L21.9476 33.2192ZM21.1976 33.1281L20.7751 32.2217L20.4001 32.3965L20.8226 33.3029L21.2451 34.2092L21.6201 34.0344L21.1976 33.1281ZM20.8226 33.3029L20.4001 32.3965L20.0251 32.5713L20.4476 33.4777L20.8701 34.3841L21.2451 34.2092L20.8226 33.3029ZM20.4476 33.4777L20.0251 32.5713C19.9276 32.6168 19.8647 32.6201 19.8175 32.6144L19.6976 33.6072L19.5777 34.6C20.0305 34.6547 20.4676 34.5717 20.8701 34.3841L20.4476 33.4777ZM19.6976 33.6072L19.8175 32.6144L19.4425 32.5692L19.3226 33.562L19.2027 34.5547L19.5777 34.6L19.6976 33.6072ZM19.3226 33.562L19.4425 32.5692L19.0675 32.5239L18.9476 33.5167L18.8277 34.5095L19.2027 34.5547L19.3226 33.562ZM18.9476 33.5167L19.0675 32.5239C18.6865 32.4779 18.3073 32.5072 17.937 32.6072L18.1976 33.5726L18.4582 34.5381C18.5879 34.5031 18.7088 34.4951 18.8277 34.5095L18.9476 33.5167ZM18.1976 33.5726L17.937 32.6072L17.562 32.7084L17.8226 33.6738L18.0832 34.6393L18.4582 34.5381L18.1976 33.5726ZM17.8226 33.6738L17.562 32.7084L17.187 32.8096L17.4476 33.775L17.7082 34.7405L18.0832 34.6393L17.8226 33.6738ZM17.4476 33.775L17.187 32.8096C17.1217 32.8272 17.0646 32.827 16.9933 32.8049L16.6976 33.7602L16.4019 34.7154C16.8306 34.8481 17.2735 34.8578 17.7082 34.7405L17.4476 33.775ZM16.6976 33.7602L16.9933 32.8049L16.6183 32.6888L16.3226 33.6441L16.0269 34.5994L16.4019 34.7154L16.6976 33.7602ZM16.3226 33.6441L16.6183 32.6888L16.2433 32.5727L15.9476 33.528L15.6519 34.4833L16.0269 34.5994L16.3226 33.6441ZM15.9476 33.528L16.2433 32.5727C15.8395 32.4477 15.4215 32.4225 15.0044 32.5046L15.1976 33.4858L15.3908 34.4669C15.4737 34.4506 15.5557 34.4535 15.6519 34.4833L15.9476 33.528ZM15.1976 33.4858L15.0044 32.5046L14.6294 32.5784L14.8226 33.5596L15.0158 34.5407L15.3908 34.4669L15.1976 33.4858ZM14.8226 33.5596L14.6294 32.5784L14.2544 32.6523L14.4476 33.6334L14.6408 34.6146L15.0158 34.5407L14.8226 33.5596ZM14.4476 33.6334L14.2544 32.6523C14.2208 32.6589 14.1791 32.6608 14.1024 32.6268L13.6976 33.5413L13.2929 34.4557C13.7161 34.6431 14.1744 34.7064 14.6408 34.6146L14.4476 33.6334ZM13.6976 33.5413L14.1024 32.6268L13.7274 32.4609L13.3226 33.3753L12.9179 34.2897L13.2929 34.4557L13.6976 33.5413ZM13.3226 33.3753L13.7274 32.4609L13.3524 32.2949L12.9476 33.2093L12.5428 34.1237L12.9179 34.2897L13.3226 33.3753ZM12.9476 33.2093L13.3524 32.2949C12.9203 32.1036 12.4521 32.0455 11.9786 32.1518L12.1976 33.1275L12.4166 34.1032C12.4431 34.0973 12.4749 34.0936 12.5428 34.1237L12.9476 33.2093ZM12.1976 33.1275L11.9786 32.1518L11.6036 32.236L11.8226 33.2117L12.0416 34.1874L12.4166 34.1032L12.1976 33.1275ZM11.8226 33.2117L11.6036 32.236L11.2286 32.3201L11.4476 33.2959L11.6666 34.2716L12.0416 34.1874L11.8226 33.2117ZM11.4476 33.2959L11.2286 32.3201C11.0481 32.3607 10.871 32.3804 10.6959 32.3807L10.6976 33.3807L10.6993 34.3807C11.0242 34.3801 11.3471 34.3433 11.6666 34.2716L11.4476 33.2959ZM10.6976 33.3807L10.6959 32.3807L10.3209 32.3813L10.3226 33.3813L10.3243 34.3813L10.6993 34.3807L10.6976 33.3807ZM10.3226 33.3813L10.3209 32.3813L9.94588 32.382L9.9476 33.382L9.94932 34.382L10.3243 34.3813L10.3226 33.3813ZM9.9476 33.382L9.94588 32.382C9.75059 32.3823 9.55451 32.3667 9.35713 32.3348L9.1976 33.322L9.03808 34.3092C9.3407 34.3581 9.64462 34.3825 9.94932 34.382L9.9476 33.382ZM9.1976 33.322L9.35713 32.3348L8.98213 32.2742L8.8226 33.2614L8.66308 34.2486L9.03808 34.3092L9.1976 33.322ZM8.8226 33.2614L8.98213 32.2742L8.60713 32.2136L8.4476 33.2008L8.28808 34.188L8.66308 34.2486L8.8226 33.2614ZM8.4476 33.2008L8.60713 32.2136C8.11401 32.1339 7.64292 32.2359 7.22394 32.4612L7.6976 33.3419L8.17127 34.2226C8.25229 34.179 8.2812 34.1869 8.28808 34.188L8.4476 33.2008ZM7.6976 33.3419L7.22394 32.4612L6.84894 32.6629L7.3226 33.5436L7.79627 34.4243L8.17127 34.2226L7.6976 33.3419ZM7.3226 33.5436L6.84894 32.6629L6.47394 32.8646L6.9476 33.7453L7.42127 34.626L7.79627 34.4243L7.3226 33.5436ZM6.9476 33.7453L6.47394 32.8646C6.47185 32.8657 6.5044 32.8488 6.56179 32.8482C6.58819 32.8479 6.61163 32.8513 6.6301 32.8559C6.64806 32.8605 6.65699 32.8652 6.65629 32.8648L6.1976 33.7534L5.73891 34.642C6.28512 34.9239 6.88392 34.915 7.42127 34.626L6.9476 33.7453ZM6.1976 33.7534L6.65629 32.8648L6.28129 32.6712L5.8226 33.5598L5.36391 34.4484L5.73891 34.642L6.1976 33.7534ZM5.8226 33.5598L6.28129 32.6712L5.90629 32.4776L5.4476 33.3662L4.98891 34.2548L5.36391 34.4484L5.8226 33.5598ZM5.4476 33.3662L5.90629 32.4776C5.49204 32.2638 5.03142 32.1678 4.55073 32.2392L4.6976 33.2283L4.84447 34.2175C4.86378 34.2146 4.90315 34.2106 4.98891 34.2548L5.4476 33.3662ZM4.6976 33.2283L4.55073 32.2392L4.17573 32.2949L4.3226 33.284L4.46947 34.2732L4.84447 34.2175L4.6976 33.2283ZM4.3226 33.284L4.17573 32.2949L3.80073 32.3505L3.9476 33.3397L4.09447 34.3289L4.46947 34.2732L4.3226 33.284ZM3.9476 33.3397L3.80073 32.3505C3.61472 32.3782 3.43012 32.3873 3.24601 32.3784L3.1976 33.3772L3.14919 34.376C3.46508 34.3913 3.78048 34.3755 4.09447 34.3289L3.9476 33.3397ZM3.1976 33.3772L3.24601 32.3784L2.87101 32.3602L2.8226 33.359L2.77419 34.3579L3.14919 34.376L3.1976 33.3772ZM2.8226 33.359L2.87101 32.3602L2.49601 32.342L2.4476 33.3409L2.39919 34.3397L2.77419 34.3579L2.8226 33.359ZM2.4476 33.3409L2.49601 32.342C2.42443 32.3386 2.54346 32.328 2.70621 32.4308C2.80488 32.4931 2.92696 32.6026 3.00997 32.7745C3.09339 32.9473 3.10381 33.1138 3.08963 33.2351L2.09639 33.1191L1.10314 33.003C1.08103 33.1923 1.10015 33.4188 1.20887 33.644C1.31718 33.8684 1.48118 34.0226 1.63839 34.1219C1.91821 34.2986 2.22077 34.331 2.39919 34.3397L2.4476 33.3409ZM2.09639 33.1191L3.08963 33.2351L3.11342 33.0315L2.12017 32.9155L1.12693 32.7994L1.10314 33.003L2.09639 33.1191ZM2.12017 32.9155L3.11342 33.0315L3.13721 32.8279L2.14396 32.7119L1.15072 32.5959L1.12693 32.7994L2.12017 32.9155ZM2.14396 32.7119L3.13721 32.8279C3.19494 32.3338 2.96074 31.8858 2.8022 31.6204L1.94372 32.1333L1.08525 32.6462C1.11064 32.6887 1.12886 32.7226 1.14153 32.7486C1.15436 32.7749 1.15963 32.7892 1.16079 32.7925C1.16212 32.7963 1.15674 32.7821 1.15215 32.7524C1.14758 32.7229 1.14225 32.6683 1.15072 32.5959L2.14396 32.7119ZM1.94372 32.1333L2.8022 31.6204L2.57818 31.2454L1.7197 31.7583L0.861222 32.2712L1.08525 32.6462L1.94372 32.1333ZM1.7197 31.7583L2.57818 31.2454L2.35415 30.8704L1.49568 31.3833L0.637199 31.8962L0.861222 32.2712L1.7197 31.7583ZM1.49568 31.3833L2.35415 30.8704C2.34774 30.8597 2.36595 30.8869 2.36963 30.9445C2.37346 31.0044 2.35833 31.0467 2.35291 31.0583L1.4477 30.6333L0.542496 30.2083C0.274924 30.7783 0.328404 31.3793 0.637199 31.8962L1.49568 31.3833ZM1.4477 30.6333L2.35291 31.0583L2.52896 30.6833L1.62376 30.2583L0.718548 29.8333L0.542496 30.2083L1.4477 30.6333ZM1.62376 30.2583L2.52896 30.6833L2.70502 30.3083L1.79981 29.8833L0.8946 29.4583L0.718548 29.8333L1.62376 30.2583ZM1.79981 29.8833L2.70502 30.3083C2.96871 29.7466 2.92454 29.1515 2.62543 28.6334L1.75938 29.1333L0.893328 29.6333C0.898916 29.6429 0.882114 29.6166 0.879176 29.5621C0.876138 29.5058 0.890504 29.4671 0.8946 29.4583L1.79981 29.8833ZM1.75938 29.1333L2.62543 28.6334L2.40896 28.2584L1.5429 28.7583L0.676849 29.2583L0.893328 29.6333L1.75938 29.1333ZM1.5429 28.7583L2.40896 28.2584L2.19248 27.8834L1.32642 28.3833L0.460371 28.8833L0.676849 29.2583L1.5429 28.7583ZM1.32642 28.3833L2.19248 27.8834C2.17058 27.8454 2.16882 27.8296 2.16953 27.8336C2.16981 27.8351 2.17023 27.8387 2.17013 27.8433C2.17003 27.8478 2.16947 27.8505 2.16949 27.8504L1.19334 27.6333L0.217184 27.4162C0.10024 27.9421 0.20803 28.4461 0.460371 28.8833L1.32642 28.3833ZM1.19334 27.6333L2.16949 27.8504L2.25289 27.4754L1.27673 27.2583L0.300576 27.0412L0.217184 27.4162L1.19334 27.6333ZM1.27673 27.2583L2.25289 27.4754L2.33628 27.1004L1.36012 26.8833L0.383968 26.6662L0.300576 27.0412L1.27673 27.2583ZM1.36012 26.8833L2.33628 27.1004C2.41275 26.7565 2.43878 26.4079 2.41227 26.0578L1.41513 26.1333L0.417979 26.2088C0.429325 26.3587 0.418687 26.5101 0.383968 26.6662L1.36012 26.8833ZM1.41513 26.1333L2.41227 26.0578L2.38389 25.6828L1.38674 25.7583L0.389592 25.8338L0.417979 26.2088L1.41513 26.1333ZM1.38674 25.7583L2.38389 25.6828L2.3555 25.3078L1.35835 25.3833L0.361204 25.4588L0.389592 25.8338L1.38674 25.7583ZM1.35835 25.3833L2.3555 25.3078C2.33359 25.0184 2.29452 24.7298 2.23853 24.4422L1.25696 24.6333L0.275386 24.8244C0.316737 25.0368 0.345263 25.2482 0.361204 25.4588L1.35835 25.3833ZM1.25696 24.6333L2.23853 24.4422L2.16553 24.0672L1.18395 24.2583L0.202381 24.4494L0.275386 24.8244L1.25696 24.6333ZM1.18395 24.2583L2.16553 24.0672L2.09252 23.6922L1.11095 23.8833L0.129377 24.0744L0.202381 24.4494L1.18395 24.2583ZM1.11095 23.8833L2.09252 23.6922C2.07548 23.6047 2.0785 23.5182 2.10807 23.419L1.14976 23.1333L0.191455 22.8476C0.0719352 23.2484 0.0490823 23.6619 0.129377 24.0744L1.11095 23.8833ZM1.14976 23.1333L2.10807 23.419L2.21988 23.044L1.26158 22.7583L0.303272 22.4726L0.191455 22.8476L1.14976 23.1333ZM1.26158 22.7583L2.21988 23.044L2.3317 22.669L1.37339 22.3833L0.415089 22.0976L0.303272 22.4726L1.26158 22.7583ZM1.37339 22.3833L2.3317 22.669C2.41076 22.4039 2.48307 22.1384 2.54859 21.8727L1.57766 21.6333L0.606736 21.3939C0.548986 21.6282 0.485115 21.8627 0.415089 22.0976L1.37339 22.3833ZM1.57766 21.6333L2.54859 21.8727L2.64104 21.4977L1.67012 21.2583L0.699188 21.0189L0.606736 21.3939L1.57766 21.6333ZM1.67012 21.2583L2.64104 21.4977L2.7335 21.1227L1.76257 20.8833L0.791641 20.6439L0.699188 21.0189L1.67012 21.2583ZM1.76257 20.8833L2.7335 21.1227C2.82746 20.7415 2.84296 20.353 2.77705 19.9656L1.79122 20.1333L0.805385 20.301C0.824542 20.4136 0.820945 20.5251 0.791641 20.6439L1.76257 20.8833ZM1.79122 20.1333L2.77705 19.9656L2.71325 19.5906L1.72741 19.7583L0.741581 19.926L0.805385 20.301L1.79122 20.1333ZM1.72741 19.7583L2.71325 19.5906L2.64944 19.2156L1.66361 19.3833L0.677777 19.551L0.741581 19.926L1.72741 19.7583ZM1.66361 19.3833L2.64944 19.2156C2.6374 19.1448 2.64127 19.0699 2.67591 18.9745L1.73592 18.6333L0.795926 18.2921C0.649083 18.6967 0.604752 19.1218 0.677777 19.551L1.66361 19.3833ZM1.73592 18.6333L2.67591 18.9745L2.81203 18.5995L1.87203 18.2583L0.93204 17.9171L0.795926 18.2921L1.73592 18.6333ZM1.87203 18.2583L2.81203 18.5995L2.94814 18.2245L2.00815 17.8833L1.06815 17.5421L0.93204 17.9171L1.87203 18.2583ZM2.00815 17.8833L2.94814 18.2245C3.18046 17.5845 2.99947 16.9788 2.64003 16.5181L1.85165 17.1333L1.06326 17.7485C1.08894 17.7814 1.06996 17.7691 1.05816 17.7126C1.05229 17.6844 1.0498 17.6522 1.05237 17.6189C1.05492 17.5858 1.06182 17.5596 1.06815 17.5421L2.00815 17.8833ZM1.85165 17.1333L2.64003 16.5181L2.34741 16.1431L1.55903 16.7583L0.770645 17.3735L1.06326 17.7485L1.85165 17.1333ZM1.55903 16.7583L2.34741 16.1431L2.05479 15.7681L1.26641 16.3833L0.478028 16.9985L0.770645 17.3735L1.55903 16.7583ZM1.26641 16.3833L2.05479 15.7681C2.01122 15.7123 1.99926 15.6815 1.99753 15.6765C1.99676 15.6743 1.998 15.6773 1.99902 15.6847C2.00005 15.6923 2.00039 15.7011 1.99971 15.71L1.00266 15.6333L0.00560415 15.5566C-0.037443 16.1159 0.171698 16.6059 0.478028 16.9985L1.26641 16.3833ZM1.00266 15.6333L1.99971 15.71L2.02857 15.335L1.03152 15.2583L0.034465 15.1816L0.00560415 15.5566L1.00266 15.6333ZM1.03152 15.2583L2.02857 15.335L2.05743 14.96L1.06038 14.8833L0.0633258 14.8066L0.034465 15.1816L1.03152 15.2583ZM1.06038 14.8833L2.05743 14.96C2.07676 14.7088 2.09564 14.4576 2.11405 14.2064L1.11673 14.1333L0.119405 14.0602C0.101167 14.309 0.0824734 14.5578 0.0633258 14.8066L1.06038 14.8833ZM1.11673 14.1333L2.11405 14.2064L2.14154 13.8314L1.14422 13.7583L0.146896 13.6852L0.119405 14.0602L1.11673 14.1333ZM1.14422 13.7583L2.14154 13.8314L2.16903 13.4564L1.17171 13.3833L0.174387 13.3102L0.146896 13.6852L1.14422 13.7583ZM1.17171 13.3833L2.16903 13.4564C2.1778 13.3369 2.2103 13.2032 2.28019 13.0513L1.37174 12.6333L0.46328 12.2153C0.303128 12.5634 0.20228 12.9297 0.174387 13.3102L1.17171 13.3833ZM1.37174 12.6333L2.28019 13.0513L2.45273 12.6763L1.54427 12.2583L0.635816 11.8403L0.46328 12.2153L1.37174 12.6333ZM1.54427 12.2583L2.45273 12.6763L2.62527 12.3013L1.71681 11.8833L0.808351 11.4653L0.635816 11.8403L1.54427 12.2583ZM1.71681 11.8833L2.62527 12.3013C2.78904 11.9453 2.88766 11.5688 2.90478 11.177L1.90573 11.1333L0.906682 11.0897C0.901956 11.1978 0.874628 11.3213 0.808351 11.4653L1.71681 11.8833ZM1.90573 11.1333L2.90478 11.177L2.92116 10.802L1.92211 10.7583L0.923067 10.7147L0.906682 11.0897L1.90573 11.1333ZM1.92211 10.7583L2.92116 10.802L2.93755 10.427L1.9385 10.3833L0.939451 10.3397L0.923067 10.7147L1.92211 10.7583ZM1.9385 10.3833L2.93755 10.427C2.95896 9.93676 2.80851 9.48709 2.5603 9.09674L1.71644 9.6333L0.872581 10.1699C0.942298 10.2795 0.93988 10.3298 0.939451 10.3397L1.9385 10.3833ZM1.71644 9.6333L2.5603 9.09674L2.32186 8.72174L1.478 9.2583L0.634139 9.79486L0.872581 10.1699L1.71644 9.6333ZM1.478 9.2583L2.32186 8.72174L2.08342 8.34674L1.23956 8.8833L0.395697 9.41986L0.634139 9.79486L1.478 9.2583ZM1.23956 8.8833L2.08342 8.34674C2.05295 8.29882 2.04494 8.27183 2.04319 8.26485C2.04227 8.26121 2.04244 8.26061 2.04254 8.26232C2.04258 8.26303 2.04259 8.26385 2.04256 8.26466C2.04255 8.26504 2.04252 8.26536 2.0425 8.2656C2.04248 8.26584 2.04247 8.26596 2.04247 8.26596L1.05131 8.1333L0.0601441 8.00064C-0.00985169 8.52361 0.13353 9.00755 0.395697 9.41986L1.23956 8.8833ZM1.05131 8.1333L2.04247 8.26596L2.09266 7.89096L1.1015 7.7583L0.110335 7.62564L0.0601441 8.00064L1.05131 8.1333ZM1.1015 7.7583L2.09266 7.89096L2.14285 7.51596L1.15169 7.3833L0.160526 7.25064L0.110335 7.62564L1.1015 7.7583ZM1.15169 7.3833L2.14285 7.51596C2.17578 7.26993 2.21021 7.0239 2.24616 6.77785L1.25666 6.6333L0.267163 6.48875C0.230064 6.7427 0.194518 6.99667 0.160526 7.25064L1.15169 7.3833ZM1.25666 6.6333L2.24616 6.77785L2.30094 6.40285L1.31144 6.2583L0.321946 6.11375L0.267163 6.48875L1.25666 6.6333ZM1.31144 6.2583L2.30094 6.40285L2.35572 6.02785L1.36622 5.8833L0.376728 5.73875L0.321946 6.11375L1.31144 6.2583ZM1.36622 5.8833L2.35572 6.02785C2.40737 5.67428 2.40326 5.31935 2.34376 4.96687L1.35771 5.1333L0.371659 5.29974C0.396558 5.44725 0.398118 5.59232 0.376728 5.73875L1.36622 5.8833ZM1.35771 5.1333L2.34376 4.96687L2.28047 4.59187L1.29441 4.7583L0.308362 4.92474L0.371659 5.29974L1.35771 5.1333ZM1.29441 4.7583L2.28047 4.59187L2.21717 4.21687L1.23112 4.3833L0.245066 4.54974L0.308362 4.92474L1.29441 4.7583ZM1.23112 4.3833L2.21717 4.21687C2.21701 4.21591 2.21719 4.21668 2.21715 4.21834C2.21712 4.21998 2.21692 4.21994 2.21746 4.21744C2.2184 4.21301 2.22411 4.18956 2.25033 4.14561L1.39152 3.6333L0.532722 3.12099C0.281019 3.54293 0.157549 4.03124 0.245066 4.54974L1.23112 4.3833ZM1.39152 3.6333L2.25033 4.14561L2.47403 3.77061L1.61523 3.2583L0.756423 2.74599L0.532722 3.12099L1.39152 3.6333ZM1.61523 3.2583L2.47403 3.77061L2.69773 3.39561L1.83893 2.8833L0.980125 2.37099L0.756423 2.74599L1.61523 3.2583ZM1.83893 2.8833L2.69773 3.39561C2.87426 3.09968 3.04374 2.74243 3.08319 2.36125L2.0885 2.2583L1.09381 2.15536C1.0973 2.12171 1.1026 2.12331 1.08448 2.1687C1.06717 2.21204 1.03518 2.27869 0.980125 2.37099L1.83893 2.8833ZM2.0885 2.2583L3.08319 2.36125L3.10906 2.11125L2.11438 2.0083L1.11969 1.90536L1.09381 2.15536L2.0885 2.2583ZM2.11438 2.0083L3.10906 2.11125L3.13494 1.86125L2.14025 1.7583L1.14556 1.65536L1.11969 1.90536L2.11438 2.0083ZM2.14025 1.7583L3.13494 1.86125C3.14946 1.72094 3.16638 1.42838 3.02054 1.13077C2.93737 0.96104 2.79969 0.788161 2.59318 0.665026C2.39053 0.544184 2.18387 0.508301 2.01774 0.508301V1.5083V2.5083C1.90107 2.5083 1.73662 2.48283 1.5689 2.38283C1.39733 2.28052 1.28733 2.13889 1.22458 2.01084C1.16649 1.89229 1.15137 1.79217 1.14672 1.74285C1.14183 1.69106 1.1452 1.65888 1.14556 1.65536L2.14025 1.7583ZM2.01774 1.5083V0.508301H1.86936V1.5083V2.5083H2.01774V1.5083ZM1.86936 1.5083V0.508301H1.72098V1.5083V2.5083H1.86936V1.5083ZM1.72098 1.5083V0.508301C1.7139 0.508301 1.7215 0.508157 1.73665 0.508832C1.74309 0.50912 1.76471 0.51012 1.79359 0.513311C1.80786 0.514889 1.83494 0.518183 1.86887 0.524669C1.89118 0.528934 1.97185 0.5444 2.0685 0.585209C2.11521 0.604936 2.21591 0.651082 2.3226 0.74078C2.42696 0.828517 2.62169 1.03135 2.66904 1.36575C2.71922 1.7201 2.57263 1.98872 2.46143 2.12844C2.3586 2.25763 2.24865 2.32951 2.20003 2.35916C2.0986 2.42102 2.00975 2.44943 1.98807 2.45643C1.95252 2.46791 1.92391 2.47487 1.90923 2.47828C1.8793 2.48522 1.85664 2.48889 1.85005 2.48995C1.84076 2.49145 1.83453 2.49227 1.83303 2.49246C1.83123 2.4927 1.84453 2.49107 1.88342 2.48753C1.91866 2.48432 1.96595 2.48035 2.02633 2.47558L1.9476 1.47868L1.86887 0.481788C1.74988 0.491186 1.64177 0.500453 1.57386 0.509329C1.56303 0.510744 1.5135 0.516974 1.45737 0.529992C1.44069 0.533861 1.41042 0.541273 1.37356 0.553175C1.35057 0.560597 1.26074 0.589412 1.15868 0.651653C1.10975 0.681495 0.99956 0.753567 0.896588 0.88294C0.785238 1.02284 0.638591 1.29164 0.688796 1.64617C0.736175 1.98074 0.93101 2.18374 1.03556 2.27164C1.14245 2.3615 1.24343 2.40781 1.29051 2.42769C1.38789 2.46881 1.46962 2.48456 1.49335 2.4891C1.52869 2.49585 1.55752 2.4994 1.57389 2.50121C1.60695 2.50486 1.63412 2.50625 1.64748 2.50684C1.67645 2.50814 1.70333 2.5083 1.72098 2.5083V1.5083ZM1.9476 1.47868L2.02633 2.47558L2.40133 2.44596L2.3226 1.44907L2.24387 0.452171L1.86887 0.481788L1.9476 1.47868Z" fill="black"/>
</svg>
