<svg width="42" height="42" viewBox="0 0 42 42" fill="none" xmlns="http://www.w3.org/2000/svg">
<path d="M38.9984 22.3545L37.9984 22.3534L38.9984 22.3545ZM38.8917 23.2452L39.8637 23.4801L38.8917 23.2452ZM38.6794 24.1235L37.7074 23.8886L38.6794 24.1235ZM38.4963 25.0071L37.511 24.8364L38.4963 25.0071ZM38.4192 25.4517L39.4046 25.6224L38.4192 25.4517ZM38.1365 26.7759L37.1776 26.4925L38.1365 26.7759ZM38.0079 27.2111L38.9669 27.4946L38.0079 27.2111ZM37.8792 27.6464L36.9203 27.3629L37.8792 27.6464ZM37.5401 28.4838L36.6541 28.0201L37.5401 28.4838ZM37.1191 29.2881L36.2331 28.8244L37.1191 29.2881ZM36.6455 30.0585L37.4591 30.6398L36.6455 30.0585ZM36.1194 30.7948L35.3057 30.2134L36.1194 30.7948ZM35.5719 31.5107L36.3461 32.1437L35.5719 31.5107ZM35.2875 31.8586L34.5134 31.2256L35.2875 31.8586ZM35.0031 32.2064L34.229 31.5734L35.0031 32.2064ZM34.4143 32.8834L33.6801 32.2045L34.4143 32.8834ZM34.1099 33.2126L34.8441 33.8915L34.1099 33.2126ZM33.1948 34.2052L32.4576 33.5295L33.1948 34.2052ZM32.5819 34.8737L31.8448 34.198L32.5819 34.8737ZM31.0754 35.8527L30.6022 34.9718L31.0754 35.8527ZM30.2909 36.2972L29.7782 35.4386L30.2909 36.2972ZM29.9063 36.5268L29.3937 35.6682L29.9063 36.5268ZM29.5218 36.7564L29.0092 35.8978L29.5218 36.7564ZM28.7339 37.1837L28.2937 36.2858L28.7339 37.1837ZM27.9272 37.5791L27.487 36.6812L27.9272 37.5791ZM27.0975 37.9203L27.4165 38.8681L27.0975 37.9203ZM26.6712 38.0638L26.9902 39.0116L26.6712 38.0638ZM26.2449 38.2073L25.9259 37.2595L26.2449 38.2073ZM25.3833 38.471L25.1171 37.5071L25.3833 38.471ZM24.5128 38.7114L24.7791 39.6754L24.5128 38.7114ZM23.6273 38.866L23.5512 37.8689L23.6273 38.866ZM22.7268 38.9348L22.803 39.9319L22.7268 38.9348ZM21.8254 38.9968L21.7643 37.9986L21.8254 38.9968ZM20.9229 39.052L20.984 40.0501L20.9229 39.052ZM20.0219 39.038L19.93 40.0338L20.0219 39.038ZM19.1224 38.955L19.2143 37.9592L19.1224 38.955ZM17.3277 38.7261L17.1898 39.7166L17.3277 38.7261ZM16.4584 38.4962L16.8281 37.567L16.4584 38.4962ZM15.6163 38.1611L15.9861 37.2319L15.6163 38.1611ZM14.7637 37.8598L14.4677 38.815L14.7637 37.8598ZM14.3321 37.726L14.0361 38.6812L14.3321 37.726ZM13.9005 37.5923L14.1965 36.6371L13.9005 37.5923ZM13.0706 37.2451L12.5983 38.1266L13.0706 37.2451ZM12.2738 36.8182L11.8015 37.6996L12.2738 36.8182ZM11.4797 36.3818L10.9888 37.253L11.4797 36.3818ZM11.084 36.1588L11.5748 35.2876L11.084 36.1588ZM9.99381 35.3657L9.23567 36.0178L9.99381 35.3657ZM9.69511 35.0184L10.4532 34.3663L9.69511 35.0184ZM9.39641 34.6711L10.1546 34.019L9.39641 34.6711ZM8.76009 34.0284L9.41866 33.2759L8.76009 34.0284ZM8.42246 33.7329L7.76388 34.4854L8.42246 33.7329ZM8.08483 33.4374L8.74341 32.6849L8.08483 33.4374ZM7.47832 32.7828L8.27884 32.1835L7.47832 32.7828ZM7.20944 32.4236L6.40892 33.0229L7.20944 32.4236ZM6.94056 32.0645L6.14004 32.6638L6.94056 32.0645ZM6.38078 31.3595L5.61547 32.0031L6.38078 31.3595ZM6.08988 31.0136L6.85519 30.3699L6.08988 31.0136ZM5.79898 30.6677L6.56429 30.024L5.79898 30.6677ZM4.6192 28.2506L5.54183 27.865L4.6192 28.2506ZM4.27363 27.4239L3.35099 27.8096L4.27363 27.4239ZM3.97496 26.5807L4.93465 26.2997L3.97496 26.5807ZM3.84907 26.1508L2.88937 26.4319L3.84907 26.1508ZM3.72318 25.7209L4.68288 25.4399L3.72318 25.7209ZM3.54091 24.8473L2.54889 24.9734L3.54091 24.8473ZM3.10882 22.1926L4.08966 21.9977L3.10882 22.1926ZM3.10886 20.4056L2.11097 20.3406L3.10886 20.4056ZM3.90593 16.0228L2.94498 15.7461L3.90593 16.0228ZM4.1526 15.1662L3.19165 14.8895L4.1526 15.1662ZM4.4275 14.3158L3.48633 13.9778L4.4275 14.3158ZM4.73063 13.4715L3.78946 13.1336L4.73063 13.4715ZM5.25179 12.2225L4.33884 11.8144L5.25179 12.2225ZM5.43658 11.8091L6.34953 12.2172L5.43658 11.8091ZM5.8675 11.014L6.70794 11.5559L5.8675 11.014ZM6.35974 10.2506L5.5193 9.70865L6.35974 10.2506ZM6.95446 9.57353L6.30808 8.81052L6.95446 9.57353ZM7.65165 8.98292L8.29802 9.74594L7.65165 8.98292ZM8.30318 8.35468L9.04282 9.02768L8.30318 8.35468ZM8.60612 8.02174L7.86648 7.34874L8.60612 8.02174ZM9.55876 7.06664L10.1993 7.83458L9.55876 7.06664ZM10.9923 5.97719L11.4835 6.84822L10.9923 5.97719ZM11.3856 5.75541L10.8944 4.88437L11.3856 5.75541ZM11.7788 5.53363L12.27 6.40467L11.7788 5.53363ZM12.5547 5.06574L13.0957 5.90676L12.5547 5.06574ZM13.3199 4.5735L13.8609 5.41452L13.3199 4.5735ZM14.1576 4.25862L14.0082 3.26985L14.1576 4.25862ZM15.9336 3.84919L16.3768 4.74561L15.9336 3.84919ZM16.3445 3.64604L15.9013 2.74963L16.3445 3.64604ZM16.7554 3.4429L17.1986 4.33932L16.7554 3.4429ZM20.3272 3.06709L20.2029 2.07485L20.3272 3.06709ZM21.2221 3.03279L21.1742 4.03165L21.2221 3.03279ZM23.0137 3.16613L22.8605 4.15434L23.0137 3.16613ZM23.4571 3.23485L23.304 4.22305L23.4571 3.23485ZM23.9006 3.30356L24.0537 2.31536L23.9006 3.30356ZM24.7789 3.48037L25.0201 2.50989L24.7789 3.48037ZM28.6975 4.53916L29.121 3.63326L28.6975 4.53916ZM29.1094 4.73168L28.6859 5.63758L29.1094 4.73168ZM29.8802 5.20419L30.4952 4.41565L29.8802 5.20419ZM30.2392 5.48418L29.6242 6.27272L30.2392 5.48418ZM30.5982 5.76417L29.9832 6.55271L30.5982 5.76417ZM31.3164 6.3133L31.916 5.513L31.3164 6.3133ZM32.0349 6.85159L31.4353 7.65189L32.0349 6.85159ZM32.7528 7.39609L33.3618 6.60287L32.7528 7.39609ZM33.4702 7.94681L34.0791 7.15359L33.4702 7.94681ZM34.1103 8.57587L34.8928 7.95333L34.1103 8.57587ZM34.673 9.28329L33.8904 9.90583L34.673 9.28329ZM35.2268 9.99529L34.4309 10.6006L35.2268 9.99529ZM35.7718 10.7119L34.9758 11.3172L35.7718 10.7119ZM36.3025 11.4426L35.4807 12.0124L36.3025 11.4426ZM36.819 12.1875L37.6408 11.6177L36.819 12.1875ZM37.2165 12.9924L36.2646 13.2989L37.2165 12.9924ZM37.495 13.8573L38.4468 13.5508L37.495 13.8573ZM37.8746 15.1519L38.8379 14.8834L37.8746 15.1519ZM37.9948 15.5831L37.0315 15.8516L37.9948 15.5831ZM38.28 16.436L39.2113 16.0715L38.28 16.436ZM38.6103 17.2796L37.6791 17.6441L38.6103 17.2796ZM38.7841 18.1534L37.7843 18.1727L38.7841 18.1534ZM38.7928 18.6053L37.793 18.6246L38.7928 18.6053ZM38.8016 19.0572L39.8014 19.0379L38.8016 19.0572ZM38.8561 19.8819L37.8635 20.0038L38.8561 19.8819ZM38.9019 20.2546L39.8944 20.1326L38.9019 20.2546ZM38.9477 20.6273L37.9551 20.7493L38.9477 20.6273ZM38.9995 21.4515L39.9995 21.4527L38.9995 21.4515ZM38.9989 21.903L37.9989 21.9018L37.9984 22.3534L38.9984 22.3545L39.9984 22.3557L39.9989 21.9042L38.9989 21.903ZM38.9984 22.3545L37.9984 22.3534C37.9981 22.5756 37.972 22.794 37.9197 23.0103L38.8917 23.2452L39.8637 23.4801C39.953 23.1109 39.9979 22.7355 39.9984 22.3557L38.9984 22.3545ZM38.8917 23.2452L37.9197 23.0103L37.8136 23.4494L38.7856 23.6843L39.7576 23.9193L39.8637 23.4801L38.8917 23.2452ZM38.7856 23.6843L37.8136 23.4494L37.7074 23.8886L38.6794 24.1235L39.6515 24.3584L39.7576 23.9193L38.7856 23.6843ZM38.6794 24.1235L37.7074 23.8886C37.6315 24.2025 37.5661 24.5185 37.511 24.8364L38.4963 25.0071L39.4816 25.1779C39.5292 24.9031 39.5858 24.63 39.6515 24.3584L38.6794 24.1235ZM38.4963 25.0071L37.511 24.8364L37.4339 25.2809L38.4192 25.4517L39.4046 25.6224L39.4816 25.1779L38.4963 25.0071ZM38.4192 25.4517L37.4339 25.2809L37.3569 25.7254L38.3422 25.8962L39.3275 26.0669L39.4046 25.6224L38.4192 25.4517ZM38.3422 25.8962L37.3569 25.7254C37.3122 25.9835 37.2524 26.2391 37.1776 26.4925L38.1365 26.7759L39.0955 27.0594C39.1922 26.7324 39.2695 26.4015 39.3275 26.0669L38.3422 25.8962ZM38.1365 26.7759L37.1776 26.4925L37.0489 26.9277L38.0079 27.2111L38.9669 27.4946L39.0955 27.0594L38.1365 26.7759ZM38.0079 27.2111L37.0489 26.9277L36.9203 27.3629L37.8792 27.6464L38.8382 27.9298L38.9669 27.4946L38.0079 27.2111ZM37.8792 27.6464L36.9203 27.3629C36.8529 27.5908 36.7643 27.8095 36.6541 28.0201L37.5401 28.4838L38.4261 28.9476C38.5965 28.6219 38.734 28.2823 38.8382 27.9298L37.8792 27.6464ZM37.5401 28.4838L36.6541 28.0201L36.4436 28.4222L37.3296 28.886L38.2155 29.3497L38.4261 28.9476L37.5401 28.4838ZM37.3296 28.886L36.4436 28.4222L36.2331 28.8244L37.1191 29.2881L38.005 29.7519L38.2155 29.3497L37.3296 28.886ZM37.1191 29.2881L36.2331 28.8244C36.1141 29.0518 35.9804 29.2693 35.8319 29.4771L36.6455 30.0585L37.4591 30.6398C37.6614 30.3568 37.8434 30.0607 38.005 29.7519L37.1191 29.2881ZM36.6455 30.0585L35.8319 29.4771L35.5688 29.8452L36.3824 30.4266L37.1961 31.008L37.4591 30.6398L36.6455 30.0585ZM36.3824 30.4266L35.5688 29.8452L35.3057 30.2134L36.1194 30.7948L36.933 31.3761L37.1961 31.008L36.3824 30.4266ZM36.1194 30.7948L35.3057 30.2134C35.1429 30.4413 34.9735 30.6628 34.7978 30.8778L35.5719 31.5107L36.3461 32.1437C36.5495 31.895 36.7451 31.6391 36.933 31.3761L36.1194 30.7948ZM35.5719 31.5107L34.7978 30.8778L34.5134 31.2256L35.2875 31.8586L36.0617 32.4916L36.3461 32.1437L35.5719 31.5107ZM35.2875 31.8586L34.5134 31.2256L34.229 31.5734L35.0031 32.2064L35.7773 32.8394L36.0617 32.4916L35.2875 31.8586ZM35.0031 32.2064L34.229 31.5734C34.0522 31.7896 33.8692 32 33.6801 32.2045L34.4143 32.8834L35.1485 33.5623C35.3653 33.328 35.5749 33.087 35.7773 32.8394L35.0031 32.2064ZM34.4143 32.8834L33.6801 32.2045L33.3757 32.5336L34.1099 33.2126L34.8441 33.8915L35.1485 33.5623L34.4143 32.8834ZM34.1099 33.2126L33.3757 32.5336L33.0714 32.8628L33.8056 33.5417L34.5398 34.2207L34.8441 33.8915L34.1099 33.2126ZM33.8056 33.5417L33.0714 32.8628C32.8674 33.0833 32.6628 33.3055 32.4576 33.5295L33.1948 34.2052L33.9319 34.8809C34.1352 34.6591 34.3378 34.439 34.5398 34.2207L33.8056 33.5417ZM33.1948 34.2052L32.4576 33.5295L32.1512 33.8637L32.8883 34.5394L33.6255 35.2152L33.9319 34.8809L33.1948 34.2052ZM32.8883 34.5394L32.1512 33.8637L31.8448 34.198L32.5819 34.8737L33.3191 35.5494L33.6255 35.2152L32.8883 34.5394ZM32.5819 34.8737L31.8448 34.198C31.7164 34.338 31.5702 34.4517 31.4022 34.542L31.8755 35.4229L32.3488 36.3038C32.7142 36.1075 33.0389 35.8551 33.3191 35.5494L32.5819 34.8737ZM31.8755 35.4229L31.4022 34.542L31.0022 34.7569L31.4755 35.6378L31.9487 36.5187L32.3488 36.3038L31.8755 35.4229ZM31.4755 35.6378L31.0022 34.7569L30.6022 34.9718L31.0754 35.8527L31.5487 36.7337L31.9487 36.5187L31.4755 35.6378ZM31.0754 35.8527L30.6022 34.9718C30.3224 35.1221 30.0477 35.2777 29.7782 35.4386L30.2909 36.2972L30.8035 37.1558C31.0467 37.0106 31.2951 36.8699 31.5487 36.7337L31.0754 35.8527ZM30.2909 36.2972L29.7782 35.4386L29.3937 35.6682L29.9063 36.5268L30.4189 37.3854L30.8035 37.1558L30.2909 36.2972ZM29.9063 36.5268L29.3937 35.6682L29.0092 35.8978L29.5218 36.7564L30.0344 37.615L30.4189 37.3854L29.9063 36.5268ZM29.5218 36.7564L29.0092 35.8978C28.7765 36.0367 28.538 36.166 28.2937 36.2858L28.7339 37.1837L29.174 38.0816C29.4675 37.9377 29.7543 37.7822 30.0344 37.615L29.5218 36.7564ZM28.7339 37.1837L28.2937 36.2858L27.8904 36.4835L28.3305 37.3814L28.7707 38.2793L29.174 38.0816L28.7339 37.1837ZM28.3305 37.3814L27.8904 36.4835L27.487 36.6812L27.9272 37.5791L28.3673 38.4771L28.7707 38.2793L28.3305 37.3814ZM27.9272 37.5791L27.487 36.6812C27.2574 36.7938 27.0214 36.8908 26.7785 36.9726L27.0975 37.9203L27.4165 38.8681C27.7421 38.7585 28.0591 38.6281 28.3673 38.4771L27.9272 37.5791ZM27.0975 37.9203L26.7785 36.9726L26.3522 37.116L26.6712 38.0638L26.9902 39.0116L27.4165 38.8681L27.0975 37.9203ZM26.6712 38.0638L26.3522 37.116L25.9259 37.2595L26.2449 38.2073L26.5639 39.155L26.9902 39.0116L26.6712 38.0638ZM26.2449 38.2073L25.9259 37.2595C25.6592 37.3493 25.3896 37.4318 25.1171 37.5071L25.3833 38.471L25.6496 39.4349C25.9574 39.3499 26.2622 39.2566 26.5639 39.155L26.2449 38.2073ZM25.3833 38.471L25.1171 37.5071L24.6818 37.6273L24.9481 38.5912L25.2143 39.5551L25.6496 39.4349L25.3833 38.471ZM24.9481 38.5912L24.6818 37.6273L24.2466 37.7475L24.5128 38.7114L24.7791 39.6754L25.2143 39.5551L24.9481 38.5912ZM24.5128 38.7114L24.2466 37.7475C24.0186 37.8105 23.7871 37.8509 23.5512 37.8689L23.6273 38.866L23.7034 39.8631C24.0679 39.8353 24.4267 39.7727 24.7791 39.6754L24.5128 38.7114ZM23.6273 38.866L23.5512 37.8689L23.101 37.9033L23.1771 38.9004L23.2532 39.8975L23.7034 39.8631L23.6273 38.866ZM23.1771 38.9004L23.101 37.9033L22.6507 37.9377L22.7268 38.9348L22.803 39.9319L23.2532 39.8975L23.1771 38.9004ZM22.7268 38.9348L22.6507 37.9377C22.3556 37.9602 22.0601 37.9805 21.7643 37.9986L21.8254 38.9968L21.8865 39.9949C22.1923 39.9762 22.4978 39.9552 22.803 39.9319L22.7268 38.9348ZM21.8254 38.9968L21.7643 37.9986L21.3131 38.0262L21.3742 39.0244L21.4352 40.0225L21.8865 39.9949L21.8254 38.9968ZM21.3742 39.0244L21.3131 38.0262L20.8619 38.0538L20.9229 39.052L20.984 40.0501L21.4352 40.0225L21.3742 39.0244ZM20.9229 39.052L20.8619 38.0538C20.612 38.0691 20.3628 38.0653 20.1139 38.0423L20.0219 39.038L19.93 40.0338C20.2807 40.0662 20.6322 40.0716 20.984 40.0501L20.9229 39.052ZM20.0219 39.038L20.1139 38.0423L19.6641 38.0007L19.5721 38.9965L19.4802 39.9923L19.93 40.0338L20.0219 39.038ZM19.5721 38.9965L19.6641 38.0007L19.2143 37.9592L19.1224 38.955L19.0304 39.9507L19.4802 39.9923L19.5721 38.9965ZM19.1224 38.955L19.2143 37.9592C18.9299 37.9329 18.6458 37.9001 18.3622 37.8606L18.2243 38.851L18.0864 39.8414C18.4005 39.8852 18.7152 39.9216 19.0304 39.9507L19.1224 38.955ZM18.2243 38.851L18.3622 37.8606L17.914 37.7981L17.776 38.7886L17.6381 39.779L18.0864 39.8414L18.2243 38.851ZM17.776 38.7886L17.914 37.7981L17.4657 37.7357L17.3277 38.7261L17.1898 39.7166L17.6381 39.779L17.776 38.7886ZM17.3277 38.7261L17.4657 37.7357C17.2464 37.7052 17.0344 37.6491 16.8281 37.567L16.4584 38.4962L16.0887 39.4253C16.4438 39.5666 16.8114 39.6639 17.1898 39.7166L17.3277 38.7261ZM16.4584 38.4962L16.8281 37.567L16.4071 37.3995L16.0374 38.3286L15.6676 39.2577L16.0887 39.4253L16.4584 38.4962ZM16.0374 38.3286L16.4071 37.3995L15.9861 37.2319L15.6163 38.1611L15.2466 39.0902L15.6676 39.2577L16.0374 38.3286ZM15.6163 38.1611L15.9861 37.2319C15.6812 37.1106 15.3724 37.0015 15.0596 36.9046L14.7637 37.8598L14.4677 38.815C14.7304 38.8964 14.99 38.9881 15.2466 39.0902L15.6163 38.1611ZM14.7637 37.8598L15.0596 36.9046L14.6281 36.7709L14.3321 37.726L14.0361 38.6812L14.4677 38.815L14.7637 37.8598ZM14.3321 37.726L14.6281 36.7709L14.1965 36.6371L13.9005 37.5923L13.6045 38.5475L14.0361 38.6812L14.3321 37.726ZM13.9005 37.5923L14.1965 36.6371C13.9698 36.5669 13.7522 36.4759 13.5429 36.3637L13.0706 37.2451L12.5983 38.1266C12.9201 38.299 13.2558 38.4395 13.6045 38.5475L13.9005 37.5923ZM13.0706 37.2451L13.5429 36.3637L13.1445 36.1502L12.6722 37.0317L12.1999 37.9131L12.5983 38.1266L13.0706 37.2451ZM12.6722 37.0317L13.1445 36.1502L12.7461 35.9368L12.2738 36.8182L11.8015 37.6996L12.1999 37.9131L12.6722 37.0317ZM12.2738 36.8182L12.7461 35.9368C12.4867 35.7978 12.2282 35.6557 11.9705 35.5105L11.4797 36.3818L10.9888 37.253C11.2588 37.4051 11.5296 37.554 11.8015 37.6996L12.2738 36.8182ZM11.4797 36.3818L11.9705 35.5105L11.5748 35.2876L11.084 36.1588L10.5931 37.0301L10.9888 37.253L11.4797 36.3818ZM11.084 36.1588L11.5748 35.2876L11.1791 35.0647L10.6882 35.9359L10.1974 36.8072L10.5931 37.0301L11.084 36.1588ZM10.6882 35.9359L11.1791 35.0647C11.0173 34.9735 10.876 34.8579 10.7519 34.7136L9.99381 35.3657L9.23567 36.0178C9.50985 36.3365 9.83155 36.601 10.1974 36.8072L10.6882 35.9359ZM9.99381 35.3657L10.7519 34.7136L10.4532 34.3663L9.69511 35.0184L8.93697 35.6705L9.23567 36.0178L9.99381 35.3657ZM9.69511 35.0184L10.4532 34.3663L10.1546 34.019L9.39641 34.6711L8.63828 35.3232L8.93697 35.6705L9.69511 35.0184ZM9.39641 34.6711L10.1546 34.019C9.92529 33.7525 9.68 33.5046 9.41866 33.2759L8.76009 34.0284L8.10151 34.7809C8.29035 34.9462 8.46928 35.1268 8.63828 35.3232L9.39641 34.6711ZM8.76009 34.0284L9.41866 33.2759L9.08104 32.9804L8.42246 33.7329L7.76388 34.4854L8.10151 34.7809L8.76009 34.0284ZM8.42246 33.7329L9.08104 32.9804L8.74341 32.6849L8.08483 33.4374L7.42626 34.1899L7.76388 34.4854L8.42246 33.7329ZM8.08483 33.4374L8.74341 32.6849C8.57085 32.5339 8.41626 32.367 8.27884 32.1835L7.47832 32.7828L6.67781 33.3821C6.8989 33.6774 7.14864 33.947 7.42626 34.1899L8.08483 33.4374ZM7.47832 32.7828L8.27884 32.1835L8.00996 31.8243L7.20944 32.4236L6.40892 33.0229L6.67781 33.3821L7.47832 32.7828ZM7.20944 32.4236L8.00996 31.8243L7.74107 31.4652L6.94056 32.0645L6.14004 32.6638L6.40892 33.0229L7.20944 32.4236ZM6.94056 32.0645L7.74107 31.4652C7.55042 31.2105 7.35208 30.9607 7.14608 30.7158L6.38078 31.3595L5.61547 32.0031C5.79734 32.2194 5.97218 32.4396 6.14004 32.6638L6.94056 32.0645ZM6.38078 31.3595L7.14608 30.7158L6.85519 30.3699L6.08988 31.0136L5.32457 31.6572L5.61547 32.0031L6.38078 31.3595ZM6.08988 31.0136L6.85519 30.3699L6.56429 30.024L5.79898 30.6677L5.03367 31.3114L5.32457 31.6572L6.08988 31.0136ZM5.79898 30.6677L6.56429 30.024C6.43295 29.8679 6.32778 29.6977 6.24707 29.5108L5.32905 29.9074L4.41103 30.3039C4.56903 30.6697 4.77714 31.0064 5.03367 31.3114L5.79898 30.6677ZM5.32905 29.9074L6.24707 29.5108L6.06805 29.0964L5.15003 29.4929L4.23201 29.8894L4.41103 30.3039L5.32905 29.9074ZM5.15003 29.4929L6.06805 29.0964L5.88902 28.6819L4.97101 29.0784L4.05299 29.475L4.23201 29.8894L5.15003 29.4929ZM4.97101 29.0784L5.88902 28.6819C5.77122 28.4092 5.65549 28.1369 5.54183 27.865L4.6192 28.2506L3.69656 28.6363C3.81328 28.9155 3.93209 29.1951 4.05299 29.475L4.97101 29.0784ZM4.6192 28.2506L5.54183 27.865L5.36905 27.4516L4.44641 27.8373L3.52378 28.223L3.69656 28.6363L4.6192 28.2506ZM4.44641 27.8373L5.36905 27.4516L5.19626 27.0383L4.27363 27.4239L3.35099 27.8096L3.52378 28.223L4.44641 27.8373ZM4.27363 27.4239L5.19626 27.0383C5.09535 26.7969 5.00817 26.5507 4.93465 26.2997L3.97496 26.5807L3.01526 26.8617C3.10959 27.1839 3.22152 27.4999 3.35099 27.8096L4.27363 27.4239ZM3.97496 26.5807L4.93465 26.2997L4.80877 25.8698L3.84907 26.1508L2.88937 26.4319L3.01526 26.8617L3.97496 26.5807ZM3.84907 26.1508L4.80877 25.8698L4.68288 25.4399L3.72318 25.7209L2.76348 26.002L2.88937 26.4319L3.84907 26.1508ZM3.72318 25.7209L4.68288 25.4399C4.61379 25.2039 4.56385 24.9646 4.53293 24.7213L3.54091 24.8473L2.54889 24.9734C2.59315 25.3217 2.66473 25.6647 2.76348 26.002L3.72318 25.7209ZM3.54091 24.8473L4.53293 24.7213L4.47654 24.2775L3.48452 24.4036L2.4925 24.5297L2.54889 24.9734L3.54091 24.8473ZM3.48452 24.4036L4.47654 24.2775L4.42016 23.8338L3.42813 23.9599L2.43611 24.086L2.4925 24.5297L3.48452 24.4036ZM3.42813 23.9599L4.42016 23.8338C4.37962 23.5148 4.32787 23.1969 4.26494 22.8801L3.28411 23.075L2.30327 23.2698C2.3572 23.5413 2.40147 23.8133 2.43611 24.086L3.42813 23.9599ZM3.28411 23.075L4.26494 22.8801L4.1773 22.4389L3.19647 22.6338L2.21563 22.8286L2.30327 23.2698L3.28411 23.075ZM3.19647 22.6338L4.1773 22.4389L4.08966 21.9977L3.10882 22.1926L2.12799 22.3874L2.21563 22.8286L3.19647 22.6338ZM3.10882 22.1926L4.08966 21.9977C4.04821 21.789 4.03448 21.5798 4.04829 21.3678L3.05041 21.3028L2.05252 21.2378C2.02737 21.6239 2.05259 22.0078 2.12799 22.3874L3.10882 22.1926ZM3.05041 21.3028L4.04829 21.3678L4.07752 20.9192L3.07963 20.8542L2.08175 20.7892L2.05252 21.2378L3.05041 21.3028ZM3.07963 20.8542L4.07752 20.9192L4.10674 20.4706L3.10886 20.4056L2.11097 20.3406L2.08175 20.7892L3.07963 20.8542ZM3.10886 20.4056L4.10674 20.4706C4.1269 20.1613 4.14226 19.8515 4.15283 19.5414L3.15341 19.5073L2.15399 19.4733C2.14412 19.7628 2.12978 20.0519 2.11097 20.3406L3.10886 20.4056ZM3.15341 19.5073L4.15283 19.5414L4.16815 19.0917L3.16873 19.0576L2.16931 19.0236L2.15399 19.4733L3.15341 19.5073ZM3.16873 19.0576L4.16815 19.0917L4.18348 18.642L3.18406 18.6079L2.18464 18.5739L2.16931 19.0236L3.16873 19.0576ZM3.18406 18.6079L4.18348 18.642C4.19033 18.4409 4.22607 18.2462 4.29149 18.0547L3.34519 17.7315L2.39888 17.4082C2.26989 17.7857 2.19822 18.1754 2.18464 18.5739L3.18406 18.6079ZM3.34519 17.7315L4.29149 18.0547L4.43729 17.6279L3.49099 17.3047L2.54468 16.9814L2.39888 17.4082L3.34519 17.7315ZM3.49099 17.3047L4.43729 17.6279L4.58309 17.2011L3.63679 16.8779L2.69049 16.5546L2.54468 16.9814L3.49099 17.3047ZM3.63679 16.8779L4.58309 17.2011C4.68549 16.9014 4.7801 16.6008 4.86688 16.2995L3.90593 16.0228L2.94498 15.7461C2.86731 16.0158 2.78249 16.2853 2.69049 16.5546L3.63679 16.8779ZM3.90593 16.0228L4.86688 16.2995L4.99021 15.8712L4.02926 15.5945L3.06831 15.3178L2.94498 15.7461L3.90593 16.0228ZM4.02926 15.5945L4.99021 15.8712L5.11355 15.4429L4.1526 15.1662L3.19165 14.8895L3.06831 15.3178L4.02926 15.5945ZM4.1526 15.1662L5.11355 15.4429C5.1898 15.1781 5.27483 14.9151 5.36867 14.6537L4.4275 14.3158L3.48633 13.9778C3.37808 14.2793 3.27984 14.5832 3.19165 14.8895L4.1526 15.1662ZM4.4275 14.3158L5.36867 14.6537L5.52024 14.2316L4.57907 13.8936L3.63789 13.5557L3.48633 13.9778L4.4275 14.3158ZM4.57907 13.8936L5.52024 14.2316L5.67181 13.8094L4.73063 13.4715L3.78946 13.1336L3.63789 13.5557L4.57907 13.8936ZM4.73063 13.4715L5.67181 13.8094C5.76425 13.552 5.86694 13.2968 5.97994 13.044L5.06699 12.6359L4.15405 12.2279C4.02066 12.5263 3.89911 12.8282 3.78946 13.1336L4.73063 13.4715ZM5.06699 12.6359L5.97994 13.044L6.16473 12.6306L5.25179 12.2225L4.33884 11.8144L4.15405 12.2279L5.06699 12.6359ZM5.25179 12.2225L6.16473 12.6306L6.34953 12.2172L5.43658 11.8091L4.52363 11.401L4.33884 11.8144L5.25179 12.2225ZM5.43658 11.8091L6.34953 12.2172C6.45193 11.9881 6.57131 11.7678 6.70794 11.5559L5.8675 11.014L5.02706 10.4721C4.83552 10.7691 4.66763 11.0789 4.52363 11.401L5.43658 11.8091ZM5.8675 11.014L6.70794 11.5559L6.95406 11.1742L6.11362 10.6323L5.27318 10.0904L5.02706 10.4721L5.8675 11.014ZM6.11362 10.6323L6.95406 11.1742L7.20018 10.7925L6.35974 10.2506L5.5193 9.70865L5.27318 10.0904L6.11362 10.6323ZM6.35974 10.2506L7.20018 10.7925C7.31051 10.6213 7.44322 10.4701 7.60083 10.3366L6.95446 9.57353L6.30808 8.81052C6.0009 9.07074 5.73713 9.37081 5.5193 9.70865L6.35974 10.2506ZM6.95446 9.57353L7.60083 10.3366L7.94943 10.0412L7.30305 9.27823L6.65667 8.51521L6.30808 8.81052L6.95446 9.57353ZM7.30305 9.27823L7.94943 10.0412L8.29802 9.74594L7.65165 8.98292L7.00527 8.21991L6.65667 8.51521L7.30305 9.27823ZM7.65165 8.98292L8.29802 9.74594C8.56293 9.52153 8.81132 9.2821 9.04282 9.02768L8.30318 8.35468L7.56354 7.68168C7.39112 7.87117 7.20516 8.05058 7.00527 8.21991L7.65165 8.98292ZM8.30318 8.35468L9.04282 9.02768L9.34576 8.69474L8.60612 8.02174L7.86648 7.34874L7.56354 7.68168L8.30318 8.35468ZM8.60612 8.02174L9.34576 8.69474L9.6487 8.3618L8.90906 7.6888L8.16941 7.0158L7.86648 7.34874L8.60612 8.02174ZM8.90906 7.6888L9.6487 8.3618C9.81974 8.17383 10.0032 7.99815 10.1993 7.83458L9.55876 7.06664L8.91825 6.29869C8.652 6.52076 8.4023 6.75986 8.16941 7.0158L8.90906 7.6888ZM9.55876 7.06664L10.1993 7.83458L10.546 7.54536L9.90553 6.77741L9.26501 6.00947L8.91825 6.29869L9.55876 7.06664ZM9.90553 6.77741L10.546 7.54536L10.8928 7.25613L10.2523 6.48819L9.61177 5.72024L9.26501 6.00947L9.90553 6.77741ZM10.2523 6.48819L10.8928 7.25613C11.0775 7.10213 11.2742 6.9663 11.4835 6.84822L10.9923 5.97719L10.5011 5.10615C10.1861 5.28378 9.88948 5.48862 9.61177 5.72024L10.2523 6.48819ZM10.9923 5.97719L11.4835 6.84822L11.8768 6.62645L11.3856 5.75541L10.8944 4.88437L10.5011 5.10615L10.9923 5.97719ZM11.3856 5.75541L11.8768 6.62645L12.27 6.40467L11.7788 5.53363L11.2876 4.6626L10.8944 4.88437L11.3856 5.75541ZM11.7788 5.53363L12.27 6.40467C12.5492 6.24723 12.8244 6.08124 13.0957 5.90676L12.5547 5.06574L12.0137 4.22472C11.7748 4.37839 11.5328 4.52434 11.2876 4.6626L11.7788 5.53363ZM12.5547 5.06574L13.0957 5.90676L13.4783 5.66064L12.9373 4.81962L12.3963 3.9786L12.0137 4.22472L12.5547 5.06574ZM12.9373 4.81962L13.4783 5.66064L13.8609 5.41452L13.3199 4.5735L12.7789 3.73248L12.3963 3.9786L12.9373 4.81962ZM13.3199 4.5735L13.8609 5.41452C13.9959 5.32768 14.1414 5.27241 14.307 5.2474L14.1576 4.25862L14.0082 3.26985C13.567 3.33651 13.154 3.49117 12.7789 3.73248L13.3199 4.5735ZM14.1576 4.25862L14.307 5.2474L14.762 5.17864L14.6126 4.18986L14.4632 3.20108L14.0082 3.26985L14.1576 4.25862ZM14.6126 4.18986L14.762 5.17864L15.2171 5.10987L15.0677 4.1211L14.9183 3.13232L14.4632 3.20108L14.6126 4.18986ZM15.0677 4.1211L15.2171 5.10987C15.6222 5.04867 16.01 4.927 16.3768 4.74561L15.9336 3.84919L15.4904 2.95277C15.3095 3.04224 15.12 3.10185 14.9183 3.13232L15.0677 4.1211ZM15.9336 3.84919L16.3768 4.74561L16.7877 4.54246L16.3445 3.64604L15.9013 2.74963L15.4904 2.95277L15.9336 3.84919ZM16.3445 3.64604L16.7877 4.54246L17.1986 4.33932L16.7554 3.4429L16.3122 2.54648L15.9013 2.74963L16.3445 3.64604ZM16.7554 3.4429L17.1986 4.33932C17.3363 4.27125 17.4747 4.23889 17.6252 4.23846L17.6223 3.23846L17.6195 2.23847C17.1619 2.23976 16.7223 2.34369 16.3122 2.54648L16.7554 3.4429ZM17.6223 3.23846L17.6252 4.23846L18.0812 4.23717L18.0784 3.23718L18.0756 2.23718L17.6195 2.23847L17.6223 3.23846ZM18.0784 3.23718L18.0812 4.23717L18.5373 4.23589L18.5345 3.23589L18.5317 2.23589L18.0756 2.23718L18.0784 3.23718ZM18.5345 3.23589L18.5373 4.23589C18.8814 4.23491 19.2225 4.21336 19.5605 4.171L19.4361 3.17876L19.3118 2.18653C19.0557 2.21862 18.7957 2.23515 18.5317 2.23589L18.5345 3.23589ZM19.4361 3.17876L19.5605 4.171L20.006 4.11517L19.8817 3.12293L19.7573 2.13069L19.3118 2.18653L19.4361 3.17876ZM19.8817 3.12293L20.006 4.11517L20.4516 4.05933L20.3272 3.06709L20.2029 2.07485L19.7573 2.13069L19.8817 3.12293ZM20.3272 3.06709L20.4516 4.05933C20.6914 4.02928 20.932 4.02004 21.1742 4.03165L21.2221 3.03279L21.27 2.03394C20.913 2.01683 20.5571 2.03046 20.2029 2.07485L20.3272 3.06709ZM21.2221 3.03279L21.1742 4.03165L21.6236 4.05319L21.6715 3.05433L21.7194 2.05548L21.27 2.03394L21.2221 3.03279ZM21.6715 3.05433L21.6236 4.05319L22.073 4.07473L22.1209 3.07587L22.1687 2.07702L21.7194 2.05548L21.6715 3.05433ZM22.1209 3.07587L22.073 4.07473C22.3374 4.0874 22.5999 4.11394 22.8605 4.15434L23.0137 3.16613L23.1668 2.17792C22.8362 2.1267 22.5035 2.09307 22.1687 2.07702L22.1209 3.07587ZM23.0137 3.16613L22.8605 4.15434L23.304 4.22305L23.4571 3.23485L23.6103 2.24664L23.1668 2.17792L23.0137 3.16613ZM23.4571 3.23485L23.304 4.22305L23.7474 4.29177L23.9006 3.30356L24.0537 2.31536L23.6103 2.24664L23.4571 3.23485ZM23.9006 3.30356L23.7474 4.29177C24.0135 4.333 24.2769 4.38602 24.5377 4.45084L24.7789 3.48037L25.0201 2.50989C24.7011 2.4306 24.3789 2.36575 24.0537 2.31536L23.9006 3.30356ZM24.7789 3.48037L24.5377 4.45084L24.9726 4.55893L25.2138 3.58846L25.455 2.61798L25.0201 2.50989L24.7789 3.48037ZM25.2138 3.58846L24.9726 4.55893L25.4075 4.66702L25.6487 3.69655L25.8899 2.72607L25.455 2.61798L25.2138 3.58846ZM25.6487 3.69655L25.4075 4.66702C25.7141 4.74324 26.0248 4.81204 26.3396 4.87348L26.5312 3.89201L26.7228 2.91053C26.4407 2.85547 26.1631 2.79397 25.8899 2.72607L25.6487 3.69655ZM26.5312 3.89201L26.3396 4.87348L26.7871 4.96086L26.9787 3.97938L27.1703 2.99791L26.7228 2.91053L26.5312 3.89201ZM26.9787 3.97938L26.7871 4.96086L27.2347 5.04823L27.4263 4.06676L27.6179 3.08528L27.1703 2.99791L26.9787 3.97938ZM27.4263 4.06676L27.2347 5.04823C27.4533 5.09089 27.6618 5.15887 27.8622 5.25255L28.2857 4.34665L28.7092 3.44075C28.3605 3.27773 27.9961 3.15912 27.6179 3.08528L27.4263 4.06676ZM28.2857 4.34665L27.8622 5.25255L28.274 5.44506L28.6975 4.53916L29.121 3.63326L28.7092 3.44075L28.2857 4.34665ZM28.6975 4.53916L28.274 5.44506L28.6859 5.63758L29.1094 4.73168L29.5328 3.82578L29.121 3.63326L28.6975 4.53916ZM29.1094 4.73168L28.6859 5.63758C28.8923 5.73407 29.085 5.85218 29.2652 5.99273L29.8802 5.20419L30.4952 4.41565C30.1967 4.18287 29.8755 3.98598 29.5328 3.82578L29.1094 4.73168ZM29.8802 5.20419L29.2652 5.99273L29.6242 6.27272L30.2392 5.48418L30.8542 4.69564L30.4952 4.41565L29.8802 5.20419ZM30.2392 5.48418L29.6242 6.27272L29.9832 6.55271L30.5982 5.76417L31.2132 4.97563L30.8542 4.69564L30.2392 5.48418ZM30.5982 5.76417L29.9832 6.55271C30.2276 6.74328 30.4721 6.93025 30.7168 7.1136L31.3164 6.3133L31.916 5.513C31.6818 5.3375 31.4475 5.15837 31.2132 4.97563L30.5982 5.76417ZM31.3164 6.3133L30.7168 7.1136L31.0761 7.38275L31.6757 6.58244L32.2753 5.78214L31.916 5.513L31.3164 6.3133ZM31.6757 6.58244L31.0761 7.38275L31.4353 7.65189L32.0349 6.85159L32.6345 6.05128L32.2753 5.78214L31.6757 6.58244ZM32.0349 6.85159L31.4353 7.65189C31.6716 7.82896 31.9078 8.00809 32.1439 8.1893L32.7528 7.39609L33.3618 6.60287C33.1196 6.41694 32.8771 6.23307 32.6345 6.05128L32.0349 6.85159ZM32.7528 7.39609L32.1439 8.1893L32.5026 8.46466L33.1115 7.67145L33.7205 6.87823L33.3618 6.60287L32.7528 7.39609ZM33.1115 7.67145L32.5026 8.46466L32.8613 8.74002L33.4702 7.94681L34.0791 7.15359L33.7205 6.87823L33.1115 7.67145ZM33.4702 7.94681L32.8613 8.74002C33.0358 8.87401 33.1908 9.02639 33.3277 9.19841L34.1103 8.57587L34.8928 7.95333C34.6545 7.65374 34.3829 7.38674 34.0791 7.15359L33.4702 7.94681ZM34.1103 8.57587L33.3277 9.19841L33.609 9.55212L34.3916 8.92958L35.1742 8.30704L34.8928 7.95333L34.1103 8.57587ZM34.3916 8.92958L33.609 9.55212L33.8904 9.90583L34.673 9.28329L35.4556 8.66075L35.1742 8.30704L34.3916 8.92958ZM34.673 9.28329L33.8904 9.90583C34.0735 10.136 34.2536 10.3676 34.4309 10.6006L35.2268 9.99529L36.0228 9.38997C35.8368 9.1453 35.6477 8.90222 35.4556 8.66075L34.673 9.28329ZM35.2268 9.99529L34.4309 10.6006L34.7033 10.9589L35.4993 10.3536L36.2953 9.74827L36.0228 9.38997L35.2268 9.99529ZM35.4993 10.3536L34.7033 10.9589L34.9758 11.3172L35.7718 10.7119L36.5678 10.1066L36.2953 9.74827L35.4993 10.3536ZM35.7718 10.7119L34.9758 11.3172C35.1485 11.5443 35.3168 11.7761 35.4807 12.0124L36.3025 11.4426L37.1243 10.8728C36.9438 10.6126 36.7583 10.3572 36.5678 10.1066L35.7718 10.7119ZM36.3025 11.4426L35.4807 12.0124L35.7389 12.3849L36.5607 11.8151L37.3825 11.2453L37.1243 10.8728L36.3025 11.4426ZM36.5607 11.8151L35.7389 12.3849L35.9972 12.7573L36.819 12.1875L37.6408 11.6177L37.3825 11.2453L36.5607 11.8151ZM36.819 12.1875L35.9972 12.7573C36.1131 12.9246 36.2019 13.1041 36.2646 13.2989L37.2165 12.9924L38.1683 12.6859C38.0454 12.3042 37.8691 11.9471 37.6408 11.6177L36.819 12.1875ZM37.2165 12.9924L36.2646 13.2989L36.4039 13.7314L37.3557 13.4249L38.3076 13.1183L38.1683 12.6859L37.2165 12.9924ZM37.3557 13.4249L36.4039 13.7314L36.5431 14.1638L37.495 13.8573L38.4468 13.5508L38.3076 13.1183L37.3557 13.4249ZM37.495 13.8573L36.5431 14.1638C36.632 14.4397 36.7146 14.7149 36.7911 14.9893L37.7544 14.7208L38.7177 14.4523C38.634 14.152 38.5437 13.8514 38.4468 13.5508L37.495 13.8573ZM37.7544 14.7208L36.7911 14.9893L36.9113 15.4205L37.8746 15.1519L38.8379 14.8834L38.7177 14.4523L37.7544 14.7208ZM37.8746 15.1519L36.9113 15.4205L37.0315 15.8516L37.9948 15.5831L38.958 15.3145L38.8379 14.8834L37.8746 15.1519ZM37.9948 15.5831L37.0315 15.8516C37.1208 16.1719 37.2266 16.4882 37.3488 16.8005L38.28 16.436L39.2113 16.0715C39.1133 15.8213 39.029 15.5691 38.958 15.3145L37.9948 15.5831ZM38.28 16.436L37.3488 16.8005L37.514 17.2223L38.4452 16.8578L39.3764 16.4933L39.2113 16.0715L38.28 16.436ZM38.4452 16.8578L37.514 17.2223L37.6791 17.6441L38.6103 17.2796L39.5415 16.9151L39.3764 16.4933L38.4452 16.8578ZM38.6103 17.2796L37.6791 17.6441C37.7461 17.8154 37.7808 17.9898 37.7843 18.1727L38.7841 18.1534L39.7839 18.134C39.7758 17.7143 39.6945 17.3062 39.5415 16.9151L38.6103 17.2796ZM38.7841 18.1534L37.7843 18.1727L37.793 18.6246L38.7928 18.6053L39.7926 18.586L39.7839 18.134L38.7841 18.1534ZM38.7928 18.6053L37.793 18.6246L37.8017 19.0766L38.8016 19.0572L39.8014 19.0379L39.7926 18.586L38.7928 18.6053ZM38.8016 19.0572L37.8017 19.0766C37.8081 19.4055 37.8281 19.7153 37.8635 20.0038L38.8561 19.8819L39.8486 19.7599C39.823 19.5516 39.8067 19.3116 39.8014 19.0379L38.8016 19.0572ZM38.8561 19.8819L37.8635 20.0038L37.9093 20.3765L38.9019 20.2546L39.8944 20.1326L39.8486 19.7599L38.8561 19.8819ZM38.9019 20.2546L37.9093 20.3765L37.9551 20.7493L38.9477 20.6273L39.9402 20.5053L39.8944 20.1326L38.9019 20.2546ZM38.9477 20.6273L37.9551 20.7493C37.9704 20.8738 37.9822 20.9687 37.9904 21.0331C37.9945 21.0648 37.9979 21.0915 38.0006 21.1115C38.0019 21.1205 38.0036 21.1333 38.0056 21.1459C38.0063 21.1505 38.0086 21.1656 38.0121 21.1839C38.0131 21.1896 38.0181 21.2165 38.0268 21.2501C38.0297 21.2612 38.0423 21.3104 38.0662 21.3705C38.0758 21.3944 38.1074 21.4729 38.168 21.562C38.1979 21.606 38.2619 21.6934 38.3675 21.7785C38.4721 21.8629 38.6878 22 38.9951 22V21V20C39.3024 20 39.518 20.1371 39.6227 20.2215C39.7283 20.3066 39.7923 20.3939 39.8222 20.438C39.8827 20.5271 39.9143 20.6055 39.9238 20.6293C39.9478 20.6893 39.9603 20.7383 39.9631 20.7491C39.9716 20.7822 39.9765 20.8085 39.9774 20.8132C39.9805 20.8295 39.9823 20.8418 39.9824 20.8424C39.9832 20.8473 39.9833 20.8484 39.9824 20.8419C39.9809 20.8308 39.9783 20.811 39.9744 20.7806C39.9668 20.7207 39.9554 20.6293 39.9402 20.5053L38.9477 20.6273ZM38.9951 21V22H38.9967V21V20H38.9951V21ZM38.9967 21V22H38.9984V21V20H38.9967V21ZM38.9984 21V22C38.6097 22 38.3628 21.786 38.263 21.6776C38.1615 21.5675 38.1096 21.4609 38.0893 21.4166C38.0457 21.3216 38.0277 21.2414 38.0232 21.2212C38.0104 21.1648 38.0056 21.1196 38.0046 21.1107C38.0013 21.0814 38.0002 21.0585 38 21.0548C37.9995 21.0466 37.9993 21.0405 37.9992 21.0377C37.9991 21.0346 37.9991 21.0322 37.999 21.0312C37.999 21.0284 37.999 21.0296 37.9991 21.0379C37.9992 21.0529 37.9994 21.0782 37.9995 21.1153C37.9996 21.1887 37.9996 21.3001 37.9995 21.4503L38.9995 21.4515L39.9995 21.4527C39.9996 21.3019 39.9996 21.1876 39.9995 21.1104C39.9994 21.0723 39.9992 21.0411 39.999 21.0186C39.9989 21.0081 39.9987 20.9951 39.9985 20.9829C39.9983 20.9784 39.998 20.9649 39.9972 20.9488C39.9969 20.9438 39.9957 20.92 39.9924 20.8902C39.9913 20.8809 39.9865 20.8356 39.9737 20.779C39.9691 20.7588 39.9511 20.6785 39.9075 20.5834C39.8872 20.5392 39.8353 20.4325 39.7338 20.3224C39.6339 20.214 39.387 20 38.9984 20V21ZM38.9995 21.4515L37.9995 21.4503L37.9989 21.9018L38.9989 21.903L39.9989 21.9042L39.9995 21.4527L38.9995 21.4515Z" fill="#B8B8B8"/>
<path d="M20.6797 11.0703C21.139 10.9659 21.5993 11.0116 22.0283 11.208L22.4004 11.3789L22.7734 11.5498C23.0688 11.6851 23.3484 11.8437 23.6104 12.0264L24.2588 12.4795C24.5513 12.6835 24.8085 12.9287 25.0283 13.2119L25.2764 13.5322L25.5244 13.8516C25.7728 14.1716 25.942 14.5346 26.0273 14.9307L26.1133 15.3271L26.1982 15.7236C26.2604 16.012 26.3104 16.3028 26.3486 16.5957L26.4541 17.4023C26.4799 17.5998 26.4914 17.7969 26.4883 17.9883L26.6865 17.9971L27.0918 18.0137C27.4733 18.0294 27.8421 18.1139 28.1914 18.2676L28.5596 18.4297L28.9287 18.5928C29.3904 18.796 29.7355 19.1521 29.917 19.6279L30.0576 19.998L30.1992 20.3672C30.3445 20.7481 30.3948 21.1477 30.3545 21.5527L30.3145 21.957L30.2734 22.3623C30.2514 22.5839 30.2478 22.8052 30.2617 23.0264L30.3125 23.8369C30.3283 24.0869 30.3523 24.3375 30.3848 24.5879L30.4375 24.9922L30.4902 25.3975C30.5347 25.74 30.5376 26.0839 30.498 26.4268L30.4512 26.8311L30.4043 27.2363C30.3678 27.5526 30.308 27.8595 30.2227 28.1553L30.1162 28.5225L30.0107 28.8887C29.8864 29.3193 29.6357 29.6862 29.2666 29.9521L28.9678 30.168L28.6689 30.3828C28.341 30.6192 27.9682 30.7601 27.5723 30.8174L27.1729 30.875L26.7725 30.9326C26.4609 30.9777 26.1472 30.9993 25.832 30.9971L25.0215 30.9912C24.7436 30.9892 24.4654 30.984 24.1875 30.9746L23.7832 30.96L23.3779 30.9463C23.0865 30.9364 22.7951 30.9165 22.5039 30.8857L22.0986 30.8428L21.6943 30.7998C21.476 30.7768 21.2579 30.7732 21.04 30.7881L20.6348 30.8154L20.2295 30.8438C19.9217 30.8648 19.6135 30.8656 19.3057 30.8477L18.9014 30.8242L18.4961 30.8008C18.2888 30.7887 18.0811 30.7979 17.8721 30.8291L17.0615 30.9502C16.7235 31.0008 16.3836 31.0124 16.0439 30.9844L15.6396 30.9512L15.2344 30.918C14.9053 30.8908 14.5849 30.8319 14.2754 30.7393L13.9062 30.6279L13.5361 30.5176C13.0958 30.3858 12.7278 30.121 12.4678 29.7363L12.2568 29.4238L12.0449 29.1113C11.7923 28.7374 11.6787 28.3128 11.6895 27.8711L11.7002 27.4678L11.71 27.0654C11.7154 26.8444 11.7033 26.6219 11.6738 26.3975L11.6211 25.9922L11.5674 25.5869C11.5289 25.2936 11.5022 24.9999 11.4873 24.7061L11.4463 23.8955C11.4306 23.5843 11.4368 23.2728 11.4639 22.9619L11.499 22.5566L11.5342 22.1523C11.5563 21.8981 11.5719 21.6404 11.5811 21.3799L11.5957 20.9658L11.6104 20.5527C11.6294 20.0138 11.8667 19.5393 12.3037 19.209L12.627 18.9648L12.9492 18.7217C13.1689 18.5557 13.4492 18.3649 13.7383 18.2822L13.9092 18.2324L14.0811 18.1836C14.3312 18.1121 14.638 18.101 14.9131 18.1035L15.3184 18.1074L15.7031 18.1104L15.708 18.0615C15.7541 17.557 15.7808 17.1888 15.79 16.9482L15.8057 16.5508L15.8203 16.1533C15.8349 15.7734 15.9208 15.4069 16.0771 15.0605L16.2402 14.7012L16.4023 14.3408C16.5384 14.0395 16.7067 13.7563 16.9062 13.4932L17.1445 13.1797L17.3818 12.8662C17.6037 12.5737 17.8709 12.3254 18.1787 12.124L18.5137 11.9053L18.8477 11.6865C19.1629 11.4804 19.5082 11.3358 19.877 11.252L20.6797 11.0703ZM26.5127 19.9004H25.4678C25.3726 19.9004 25.2875 19.8863 25.2109 19.8643L25.1602 19.8721L24.7549 19.9307C24.4559 19.9743 24.1563 20.0028 23.8564 20.0166L23.4512 20.0352L23.0469 20.0547C22.7632 20.0678 22.4791 20.0743 22.1953 20.0742H21.3848C21.0818 20.0742 20.7789 20.0567 20.4766 20.0234L20.0713 19.9795L19.667 19.9346C19.4535 19.9111 19.2404 19.9086 19.0273 19.9258L18.2168 19.9902C17.9025 20.0155 17.5879 20.0177 17.2734 19.9961L16.8682 19.9678L16.4629 19.9404C16.2109 19.9231 15.9589 19.9134 15.707 19.9111L14.8965 19.9033C14.7785 19.9023 14.6907 19.9053 14.6289 19.9102C14.5608 19.9155 14.5514 19.9212 14.5762 19.9141L14.4043 19.9639L14.2607 20.0039C14.2547 20.0071 14.2467 20.0128 14.2354 20.0195C14.191 20.0458 14.1247 20.0898 14.0342 20.1582L13.7119 20.4014L13.4082 20.6309L13.3945 21.0293L13.3799 21.4434C13.3696 21.7343 13.352 22.0229 13.3271 22.3086L13.292 22.7129L13.2568 23.1182C13.2369 23.3472 13.2326 23.576 13.2441 23.8047L13.2646 24.21L13.2852 24.6143C13.2976 24.8601 13.3202 25.1071 13.3525 25.3535L13.4053 25.7578L13.458 26.1631C13.4994 26.4784 13.5165 26.794 13.5088 27.1094L13.499 27.5127L13.4893 27.915C13.487 28.0094 13.5076 28.0612 13.5361 28.1035L13.748 28.416L13.959 28.7285C13.9804 28.7602 13.9995 28.7773 14.0518 28.793L14.4219 28.9043L14.792 29.0146C14.9754 29.0695 15.172 29.1066 15.3828 29.124L15.7871 29.1572L16.1924 29.1904C16.3926 29.207 16.5931 29.2011 16.7949 29.1709L17.2002 29.1104L17.6055 29.0488C17.9361 28.9994 18.2682 28.9845 18.6006 29.0039L19.4111 29.0508C19.6431 29.0643 19.8754 29.0637 20.1074 29.0479L20.5117 29.0195L20.917 28.9922C21.2391 28.9701 21.5612 28.9758 21.8828 29.0098L22.6934 29.0957C22.9421 29.1219 23.1911 29.139 23.4395 29.1475L23.8438 29.1611L24.249 29.1748C24.511 29.1837 24.7732 29.1895 25.0352 29.1914L25.4404 29.1943L25.8447 29.1973C26.0695 29.1989 26.2929 29.1835 26.5146 29.1514L26.915 29.0938L27.3145 29.0361C27.4518 29.0163 27.5455 28.9738 27.6162 28.9229L27.915 28.707L28.2148 28.4922C28.2443 28.4709 28.2643 28.4484 28.2812 28.3896L28.3867 28.0225L28.4932 27.6553C28.549 27.4617 28.5904 27.2538 28.6162 27.0303L28.6631 26.625L28.71 26.2207C28.7327 26.0236 28.7307 25.8264 28.7051 25.6289L28.6523 25.2246L28.5996 24.8193C28.562 24.5299 28.5349 24.24 28.5166 23.9502L28.4902 23.5449L28.4648 23.1396C28.4448 22.8212 28.4508 22.5026 28.4824 22.1846L28.5225 21.7793L28.5635 21.374C28.5769 21.2391 28.5595 21.1212 28.5166 21.0088L28.2354 20.2686C28.2313 20.258 28.2273 20.2532 28.2266 20.252C28.2238 20.2501 28.2163 20.246 28.2031 20.2402L27.835 20.0781L27.4658 19.915C27.3237 19.8526 27.1759 19.819 27.0176 19.8125L26.6133 19.7959L26.4971 19.791L26.5127 19.9004ZM21.0791 12.8252L20.6777 12.916L20.2754 13.0078C20.1089 13.0457 19.9635 13.108 19.833 13.1934L19.499 13.4121L19.1641 13.6309C19.0262 13.721 18.9118 13.8283 18.8164 13.9541L18.3398 14.5811C18.2221 14.7363 18.1236 14.9034 18.043 15.082L17.8809 15.4414L17.7178 15.8018C17.6576 15.9351 17.6249 16.0732 17.6191 16.2227L17.6035 16.6201L17.5889 17.0176C17.5779 17.3025 17.5477 17.7007 17.502 18.2031C17.6923 18.2118 17.8829 18.2116 18.0732 18.1963L18.4775 18.1641L18.8828 18.1309C19.2097 18.1046 19.5368 18.1096 19.8633 18.1455L20.2686 18.1904L20.6729 18.2344C20.9103 18.2605 21.1479 18.2734 21.3848 18.2734H22.1953C22.4513 18.2735 22.7078 18.2677 22.9639 18.2559L23.3682 18.2373L23.7734 18.2188C24.0136 18.2077 24.2541 18.1846 24.4951 18.1494L24.6748 18.123L24.6846 18.0605C24.6945 17.992 24.698 17.8571 24.6689 17.6348L24.6172 17.2324L24.5645 16.8291C24.5326 16.585 24.4902 16.3427 24.4385 16.1025L24.3535 15.7061L24.2676 15.3096C24.239 15.177 24.1853 15.0616 24.1025 14.9551L23.8545 14.6357L23.6064 14.3154C23.4951 14.172 23.3696 14.0528 23.2295 13.9551L22.9053 13.7295L22.5801 13.5029C22.4096 13.384 22.2244 13.2785 22.0234 13.1865L21.6514 13.0156L21.2783 12.8447C21.211 12.814 21.155 12.808 21.0791 12.8252Z" fill="#B8B8B8"/>
<circle cx="34" cy="8" r="5" fill="black"/>
</svg>
