<svg width="20" height="19" viewBox="0 0 20 19" fill="none" xmlns="http://www.w3.org/2000/svg">
<path d="M1.57764 1.57129H17.5776V17.5713H1.57764V1.57129Z" fill="#FFFDF8"/>
<path d="M7.95264 1.38433L7.76565 2.36669L7.95264 1.38433ZM13.2026 1.0272L13.1669 2.02657L13.2026 1.0272ZM14.7026 1.18712L14.5735 2.17875L14.7026 1.18712ZM15.8276 1.42042L15.5888 2.39148L15.8276 1.42042ZM16.2026 1.51264L16.4415 0.541578L16.2026 1.51264ZM17.5694 2.44629L16.6533 2.04528L17.5694 2.44629ZM17.2411 3.19629L16.325 2.79528L17.2411 3.19629ZM17.1473 3.94629L16.1645 4.1308L17.1473 3.94629ZM17.2881 4.69629L18.2709 4.51178L17.2881 4.69629ZM17.4378 5.44629L16.4595 5.6532L17.4378 5.44629ZM17.5171 5.82129L18.4955 5.61438L17.5171 5.82129ZM17.5964 6.19629L16.6181 6.4032L17.5964 6.19629ZM17.6172 6.94629L16.6292 6.79208L17.6172 6.94629ZM17.4302 8.44629L18.4297 8.47684L17.4302 8.44629ZM17.4072 9.19629L16.4077 9.16574L17.4072 9.19629ZM17.6851 10.3213L16.7522 10.6812L17.6851 10.3213ZM17.8298 10.6963L18.7628 10.3363L17.8298 10.6963ZM17.6065 13.6963L16.6809 13.3178L17.6065 13.6963ZM17.5256 14.4463L18.5074 14.2566L17.5256 14.4463ZM17.6705 15.1963L16.6887 15.386L17.6705 15.1963ZM17.6185 15.9463L16.6694 15.6313L17.6185 15.9463ZM17.3696 16.6963L16.4205 16.3813L17.3696 16.6963ZM17.0783 17.2376L16.3724 16.5292L17.0783 17.2376ZM16.7445 17.5702L17.4504 18.2785L16.7445 17.5702ZM16.2026 17.5531L16.642 16.6547V16.6547L16.2026 17.5531ZM15.4526 17.1863L15.0133 18.0846V18.0846L15.4526 17.1863ZM14.7026 17.2126L15.1907 18.0854L14.7026 17.2126ZM13.9526 17.6319L14.4407 18.5047L13.9526 17.6319ZM13.2026 17.746L13.4497 16.777L13.2026 17.746ZM12.8276 17.6504L13.0747 16.6814L12.8276 17.6504ZM12.4526 17.5548L12.2056 18.5238L12.4526 17.5548ZM11.7026 17.4572L11.6973 18.4572L11.7026 17.4572ZM11.3276 17.4552L11.3223 18.4552L11.3276 17.4552ZM10.9526 17.4532L10.958 16.4532L10.9526 17.4532ZM10.2026 17.3792L10.0141 18.3612L10.2026 17.3792ZM9.82764 17.3072L10.0162 16.3251L9.82764 17.3072ZM8.70264 17.201L8.80307 18.1959L8.70264 17.201ZM7.95264 17.2767L7.8522 16.2818L7.95264 17.2767ZM7.20264 17.2591L7.05633 18.2483L7.20264 17.2591ZM6.82764 17.2036L6.97394 16.2144L6.82764 17.2036ZM6.45264 17.1482L6.30633 18.1374L6.45264 17.1482ZM5.70264 17.0933L5.70431 18.0933L5.70264 17.0933ZM4.95264 17.0946L4.95097 16.0946L4.95264 17.0946ZM4.20264 17.0904L4.18984 18.0903L4.20264 17.0904ZM3.45264 17.0808L3.46544 16.0809L3.45264 17.0808ZM2.70264 17.0666L2.67763 18.0663L2.70264 17.0666ZM1.95264 17.0479L1.97765 16.0482L1.95264 17.0479ZM1.45513 16.7967L2.34718 16.3447L1.45513 16.7967ZM1.33263 16.5549L0.440581 17.0068L1.33263 16.5549ZM1.21012 16.3131L2.10217 15.8611L1.21012 16.3131ZM1.29665 14.1963L0.315617 14.3901L1.29665 14.1963ZM1.0275 12.3213L0.0294428 12.3836L1.0275 12.3213ZM1.29656 9.32129L0.312487 9.49908L1.29656 9.32129ZM1.81501 4.82129L0.885617 5.19038L1.81501 4.82129ZM1.18531 2.94629L0.226168 3.22922L1.18531 2.94629ZM2.32764 1.82967L2.00191 2.77514L2.37691 2.90433L2.70264 1.95887L3.02836 1.0134L2.65336 0.884211L2.32764 1.82967ZM2.70264 1.95887L2.37691 2.90433C2.75019 3.03293 3.13838 3.08642 3.53334 3.05444L3.45264 2.0577L3.37193 1.06096C3.2669 1.06946 3.15508 1.05706 3.02836 1.0134L2.70264 1.95887ZM3.45264 2.0577L3.53334 3.05444L3.90834 3.02407L3.82764 2.02733L3.74693 1.0306L3.37193 1.06096L3.45264 2.0577ZM3.82764 2.02733L3.90834 3.02407L4.28334 2.99371L4.20264 1.99697L4.12193 1.00023L3.74693 1.0306L3.82764 2.02733ZM4.20264 1.99697L4.28334 2.99371C4.59407 2.96855 4.90244 2.91512 5.20786 2.8345L4.95264 1.86762L4.69742 0.900738C4.50283 0.952101 4.3112 0.984907 4.12193 1.00023L4.20264 1.99697ZM4.95264 1.86762L5.20786 2.8345L5.58286 2.73552L5.32764 1.76864L5.07242 0.801752L4.69742 0.900738L4.95264 1.86762ZM5.32764 1.76864L5.58286 2.73552L5.95786 2.63653L5.70264 1.66965L5.44742 0.702767L5.07242 0.801752L5.32764 1.76864ZM5.70264 1.66965L5.95786 2.63653C6.18006 2.57788 6.40141 2.52969 6.62196 2.4918L6.45264 1.50624L6.28331 0.520676C6.00387 0.568686 5.72521 0.629439 5.44742 0.702767L5.70264 1.66965ZM6.45264 1.50624L6.62196 2.4918L6.99696 2.42737L6.82764 1.44181L6.65831 0.456247L6.28331 0.520676L6.45264 1.50624ZM6.82764 1.44181L6.99696 2.42737L7.37196 2.36294L7.20264 1.37738L7.03331 0.391819L6.65831 0.456247L6.82764 1.44181ZM7.20264 1.37738L7.37196 2.36294C7.50357 2.34033 7.63288 2.34142 7.76565 2.36669L7.95264 1.38433L8.13962 0.401965C7.77239 0.332066 7.40171 0.328525 7.03331 0.391819L7.20264 1.37738ZM7.95264 1.38433L7.76565 2.36669L8.14065 2.43807L8.32764 1.45571L8.51462 0.473343L8.13962 0.401965L7.95264 1.38433ZM8.32764 1.45571L8.14065 2.43807L8.51565 2.50945L8.70264 1.52708L8.88962 0.544721L8.51462 0.473343L8.32764 1.45571ZM8.70264 1.52708L8.51565 2.50945C8.73632 2.55145 8.95784 2.60384 9.18027 2.66681L9.45264 1.70461L9.725 0.742416C9.44744 0.663848 9.16896 0.59789 8.88962 0.544721L8.70264 1.52708ZM9.45264 1.70461L9.18027 2.66681L9.55527 2.77295L9.82764 1.81076L10.1 0.848564L9.725 0.742416L9.45264 1.70461ZM9.82764 1.81076L9.55527 2.77295L9.93027 2.8791L10.2026 1.91691L10.475 0.954713L10.1 0.848564L9.82764 1.81076ZM10.2026 1.91691L9.93027 2.8791C10.5173 3.04528 11.0718 2.89706 11.5209 2.58687L10.9526 1.76405L10.3843 0.941233C10.3495 0.965267 10.348 0.958009 10.3779 0.951912C10.3926 0.948929 10.4104 0.947178 10.4297 0.947944C10.449 0.948707 10.4646 0.951759 10.475 0.954713L10.2026 1.91691ZM10.9526 1.76405L11.5209 2.58687L11.8959 2.32786L11.3276 1.50504L10.7593 0.682226L10.3843 0.941233L10.9526 1.76405ZM11.3276 1.50504L11.8959 2.32786L12.2709 2.06885L11.7026 1.24603L11.1343 0.423219L10.7593 0.682226L11.3276 1.50504ZM11.7026 1.24603L12.2709 2.06885C12.3288 2.02889 12.3681 2.01226 12.3889 2.00546C12.4078 1.99925 12.4155 1.99973 12.4169 1.99978L12.4526 1.00042L12.4883 0.00105667C11.9804 -0.0170838 11.5225 0.1551 11.1343 0.423219L11.7026 1.24603ZM12.4526 1.00042L12.4169 1.99978L12.7919 2.01317L12.8276 1.01381L12.8633 0.0144488L12.4883 0.00105667L12.4526 1.00042ZM12.8276 1.01381L12.7919 2.01317L13.1669 2.02657L13.2026 1.0272L13.2383 0.0278409L12.8633 0.0144488L12.8276 1.01381ZM13.2026 1.0272L13.1669 2.02657C13.3854 2.03437 13.6043 2.05251 13.8235 2.08106L13.9526 1.08944L14.0818 0.0978129C13.801 0.0612437 13.5198 0.0378939 13.2383 0.0278409L13.2026 1.0272ZM13.9526 1.08944L13.8235 2.08106L14.1985 2.1299L14.3276 1.13828L14.4568 0.146655L14.0818 0.0978129L13.9526 1.08944ZM14.3276 1.13828L14.1985 2.1299L14.5735 2.17875L14.7026 1.18712L14.8318 0.195496L14.4568 0.146655L14.3276 1.13828ZM14.7026 1.18712L14.5735 2.17875C14.7858 2.2064 14.9992 2.24647 15.2138 2.29925L15.4526 1.32819L15.6915 0.357125C15.4061 0.286939 15.1195 0.232965 14.8318 0.195496L14.7026 1.18712ZM15.4526 1.32819L15.2138 2.29925L15.5888 2.39148L15.8276 1.42042L16.0665 0.449351L15.6915 0.357125L15.4526 1.32819ZM15.8276 1.42042L15.5888 2.39148L15.9638 2.48371L16.2026 1.51264L16.4415 0.541578L16.0665 0.449351L15.8276 1.42042ZM16.2026 1.51264L15.9638 2.48371C16.1781 2.53641 16.3527 2.59246 16.4924 2.64882L16.8666 1.72147L17.2408 0.794126C16.9952 0.695013 16.7271 0.611839 16.4415 0.541578L16.2026 1.51264ZM16.8666 1.72147L16.4924 2.64882L16.7814 2.76543L17.1556 1.83808L17.5298 0.910731L17.2408 0.794126L16.8666 1.72147ZM17.1556 1.83808L16.7814 2.76543L17.0704 2.88203L17.4446 1.95468L17.8188 1.02734L17.5298 0.910731L17.1556 1.83808ZM17.4446 1.95468L17.0704 2.88203C17.0186 2.86115 16.9307 2.81587 16.8428 2.72524C16.7498 2.62934 16.6834 2.50954 16.651 2.38198C16.5924 2.15136 16.6696 2.00809 16.6533 2.04528L17.5694 2.44629L18.4854 2.8473C18.5786 2.63449 18.6896 2.28428 18.5895 1.8898C18.4721 1.42747 18.1349 1.15491 17.8188 1.02734L17.4446 1.95468ZM17.5694 2.44629L16.6533 2.04528L16.4891 2.42028L17.4052 2.82129L18.3213 3.2223L18.4854 2.8473L17.5694 2.44629ZM17.4052 2.82129L16.4891 2.42028L16.325 2.79528L17.2411 3.19629L18.1571 3.5973L18.3213 3.2223L17.4052 2.82129ZM17.2411 3.19629L16.325 2.79528C16.1412 3.21522 16.0777 3.66875 16.1645 4.1308L17.1473 3.94629L18.1301 3.76178C18.123 3.72383 18.1221 3.67736 18.1571 3.5973L17.2411 3.19629ZM17.1473 3.94629L16.1645 4.1308L16.2349 4.5058L17.2177 4.32129L18.2005 4.13678L18.1301 3.76178L17.1473 3.94629ZM17.2177 4.32129L16.2349 4.5058L16.3053 4.8808L17.2881 4.69629L18.2709 4.51178L18.2005 4.13678L17.2177 4.32129ZM17.2881 4.69629L16.3053 4.8808C16.3536 5.13832 16.405 5.39579 16.4595 5.6532L17.4378 5.44629L18.4162 5.23938C18.3649 4.99679 18.3165 4.75426 18.2709 4.51178L17.2881 4.69629ZM17.4378 5.44629L16.4595 5.6532L16.5388 6.0282L17.5171 5.82129L18.4955 5.61438L18.4162 5.23938L17.4378 5.44629ZM17.5171 5.82129L16.5388 6.0282L16.6181 6.4032L17.5964 6.19629L18.5748 5.98938L18.4955 5.61438L17.5171 5.82129ZM17.5964 6.19629L16.6181 6.4032C16.6461 6.53561 16.6493 6.66325 16.6292 6.79208L17.6172 6.94629L18.6052 7.1005C18.6632 6.72933 18.6525 6.35696 18.5748 5.98938L17.5964 6.19629ZM17.6172 6.94629L16.6292 6.79208L16.5706 7.16708L17.5587 7.32129L18.5467 7.4755L18.6052 7.1005L17.6172 6.94629ZM17.5587 7.32129L16.5706 7.16708L16.5121 7.54208L17.5001 7.69629L18.4882 7.8505L18.5467 7.4755L17.5587 7.32129ZM17.5001 7.69629L16.5121 7.54208C16.4668 7.83254 16.4395 8.12384 16.4306 8.41574L17.4302 8.44629L18.4297 8.47684C18.4361 8.26874 18.4555 8.06004 18.4882 7.8505L17.5001 7.69629ZM17.4302 8.44629L16.4306 8.41574L16.4192 8.79074L17.4187 8.82129L18.4182 8.85184L18.4297 8.47684L17.4302 8.44629ZM17.4187 8.82129L16.4192 8.79074L16.4077 9.16574L17.4072 9.19629L18.4068 9.22684L18.4182 8.85184L17.4187 8.82129ZM17.4072 9.19629L16.4077 9.16574C16.3957 9.55834 16.4665 9.9408 16.6075 10.3062L17.5405 9.94629L18.4734 9.58634C18.4215 9.45178 18.4035 9.33424 18.4068 9.22684L17.4072 9.19629ZM17.5405 9.94629L16.6075 10.3062L16.7522 10.6812L17.6851 10.3213L18.6181 9.96134L18.4734 9.58634L17.5405 9.94629ZM17.6851 10.3213L16.7522 10.6812L16.8968 11.0562L17.8298 10.6963L18.7628 10.3363L18.6181 9.96134L17.6851 10.3213ZM17.8298 10.6963L16.8968 11.0562C16.959 11.2173 16.9907 11.3667 16.9994 11.5075L17.9975 11.4463L18.9956 11.3851C18.9736 11.0258 18.8936 10.6753 18.7628 10.3363L17.8298 10.6963ZM17.9975 11.4463L16.9994 11.5075L17.0223 11.8825L18.0205 11.8213L19.0186 11.7601L18.9956 11.3851L17.9975 11.4463ZM18.0205 11.8213L17.0223 11.8825L17.0453 12.2575L18.0435 12.1963L19.0416 12.1351L19.0186 11.7601L18.0205 11.8213ZM18.0435 12.1963L17.0453 12.2575C17.0507 12.3458 17.0373 12.446 16.9875 12.5678L17.9131 12.9463L18.8387 13.3247C18.9933 12.9466 19.0668 12.5468 19.0416 12.1351L18.0435 12.1963ZM17.9131 12.9463L16.9875 12.5678L16.8342 12.9428L17.7598 13.3213L18.6854 13.6997L18.8387 13.3247L17.9131 12.9463ZM17.7598 13.3213L16.8342 12.9428L16.6809 13.3178L17.6065 13.6963L18.5321 14.0747L18.6854 13.6997L17.7598 13.3213ZM17.6065 13.6963L16.6809 13.3178C16.5098 13.7363 16.4563 14.1834 16.5438 14.636L17.5256 14.4463L18.5074 14.2566C18.4983 14.2092 18.4987 14.1563 18.5321 14.0747L17.6065 13.6963ZM17.5256 14.4463L16.5438 14.636L16.6162 15.011L17.5981 14.8213L18.5799 14.6316L18.5074 14.2566L17.5256 14.4463ZM17.5981 14.8213L16.6162 15.011L16.6887 15.386L17.6705 15.1963L18.6524 15.0066L18.5799 14.6316L17.5981 14.8213ZM17.6705 15.1963L16.6887 15.386C16.7033 15.4618 16.7004 15.5381 16.6694 15.6313L17.6185 15.9463L18.5676 16.2613C18.7026 15.8545 18.7343 15.4308 18.6524 15.0066L17.6705 15.1963ZM17.6185 15.9463L16.6694 15.6313L16.545 16.0063L17.4941 16.3213L18.4432 16.6363L18.5676 16.2613L17.6185 15.9463ZM17.4941 16.3213L16.545 16.0063L16.4205 16.3813L17.3696 16.6963L18.3187 17.0113L18.4432 16.6363L17.4941 16.3213ZM17.3696 16.6963L16.4205 16.3813C16.3924 16.4661 16.3687 16.5178 16.354 16.5452C16.3386 16.5738 16.3412 16.5603 16.3724 16.5292L17.0783 17.2376L17.7841 17.9459C18.057 17.674 18.2157 17.3217 18.3187 17.0113L17.3696 16.6963ZM17.0783 17.2376L16.3724 16.5292L16.2055 16.6955L16.9114 17.4039L17.6173 18.1122L17.7841 17.9459L17.0783 17.2376ZM16.9114 17.4039L16.2055 16.6955L16.0387 16.8618L16.7445 17.5702L17.4504 18.2785L17.6173 18.1122L16.9114 17.4039ZM16.7445 17.5702L16.0387 16.8618C16.1133 16.7874 16.206 16.7278 16.3091 16.6907C16.4092 16.6546 16.4967 16.6476 16.5572 16.6495C16.664 16.6529 16.7016 16.6839 16.642 16.6547L16.2026 17.5531L15.7633 18.4514C16.0706 18.6017 16.8423 18.8845 17.4504 18.2785L16.7445 17.5702ZM16.2026 17.5531L16.642 16.6547L16.267 16.4713L15.8276 17.3697L15.3883 18.268L15.7633 18.4514L16.2026 17.5531ZM15.8276 17.3697L16.267 16.4713L15.892 16.2879L15.4526 17.1863L15.0133 18.0846L15.3883 18.268L15.8276 17.3697ZM15.4526 17.1863L15.892 16.2879C15.3372 16.0166 14.7408 16.0455 14.2146 16.3397L14.7026 17.2126L15.1907 18.0854C15.1971 18.0818 15.1683 18.0986 15.1127 18.1005C15.0558 18.1025 15.0189 18.0873 15.0133 18.0846L15.4526 17.1863ZM14.7026 17.2126L14.2146 16.3397L13.8396 16.5494L14.3276 17.4222L14.8157 18.2951L15.1907 18.0854L14.7026 17.2126ZM14.3276 17.4222L13.8396 16.5494L13.4646 16.7591L13.9526 17.6319L14.4407 18.5047L14.8157 18.2951L14.3276 17.4222ZM13.9526 17.6319L13.4646 16.7591C13.4472 16.7688 13.4357 16.7735 13.4301 16.7755C13.4246 16.7775 13.4238 16.7772 13.4273 16.7767C13.4308 16.7761 13.4359 16.7758 13.4415 16.7761C13.447 16.7763 13.4501 16.7771 13.4497 16.777L13.2026 17.746L12.9556 18.715C13.4821 18.8493 13.9938 18.7546 14.4407 18.5047L13.9526 17.6319ZM13.2026 17.746L13.4497 16.777L13.0747 16.6814L12.8276 17.6504L12.5806 18.6194L12.9556 18.715L13.2026 17.746ZM12.8276 17.6504L13.0747 16.6814L12.6997 16.5858L12.4526 17.5548L12.2056 18.5238L12.5806 18.6194L12.8276 17.6504ZM12.4526 17.5548L12.6997 16.5858C12.3732 16.5026 12.0421 16.459 11.708 16.4572L11.7026 17.4572L11.6973 18.4572C11.8632 18.458 12.0321 18.4795 12.2056 18.5238L12.4526 17.5548ZM11.7026 17.4572L11.708 16.4572L11.333 16.4552L11.3276 17.4552L11.3223 18.4552L11.6973 18.4572L11.7026 17.4572ZM11.3276 17.4552L11.333 16.4552L10.958 16.4532L10.9526 17.4532L10.9473 18.4532L11.3223 18.4552L11.3276 17.4552ZM10.9526 17.4532L10.958 16.4532C10.7706 16.4522 10.5819 16.4337 10.3912 16.3971L10.2026 17.3792L10.0141 18.3612C10.3234 18.4206 10.6347 18.4515 10.9473 18.4532L10.9526 17.4532ZM10.2026 17.3792L10.3912 16.3971L10.0162 16.3251L9.82764 17.3072L9.63906 18.2892L10.0141 18.3612L10.2026 17.3792ZM9.82764 17.3072L10.0162 16.3251L9.64121 16.2531L9.45264 17.2351L9.26406 18.2172L9.63906 18.2892L9.82764 17.3072ZM9.45264 17.2351L9.64121 16.2531C9.29727 16.187 8.94993 16.1709 8.6022 16.206L8.70264 17.201L8.80307 18.1959C8.95535 18.1806 9.108 18.1872 9.26406 18.2172L9.45264 17.2351ZM8.70264 17.201L8.6022 16.206L8.2272 16.2439L8.32764 17.2388L8.42807 18.2338L8.80307 18.1959L8.70264 17.201ZM8.32764 17.2388L8.2272 16.2439L7.8522 16.2818L7.95264 17.2767L8.05307 18.2716L8.42807 18.2338L8.32764 17.2388ZM7.95264 17.2767L7.8522 16.2818C7.68484 16.2987 7.51772 16.2948 7.34894 16.2699L7.20264 17.2591L7.05633 18.2483C7.38755 18.2973 7.72043 18.3052 8.05307 18.2716L7.95264 17.2767ZM7.20264 17.2591L7.34894 16.2699L6.97394 16.2144L6.82764 17.2036L6.68133 18.1929L7.05633 18.2483L7.20264 17.2591ZM6.82764 17.2036L6.97394 16.2144L6.59894 16.1589L6.45264 17.1482L6.30633 18.1374L6.68133 18.1929L6.82764 17.2036ZM6.45264 17.1482L6.59894 16.1589C6.30049 16.1148 6.00103 16.0928 5.70097 16.0933L5.70264 17.0933L5.70431 18.0933C5.90425 18.093 6.10479 18.1076 6.30633 18.1374L6.45264 17.1482ZM5.70264 17.0933L5.70097 16.0933L5.32597 16.094L5.32764 17.094L5.3293 18.094L5.70431 18.0933L5.70264 17.0933ZM5.32764 17.094L5.32597 16.094L4.95097 16.0946L4.95264 17.0946L4.9543 18.0946L5.3293 18.094L5.32764 17.094ZM4.95264 17.0946L4.95097 16.0946C4.70579 16.095 4.46061 16.0936 4.21544 16.0905L4.20264 17.0904L4.18984 18.0903C4.44466 18.0936 4.69948 18.095 4.9543 18.0946L4.95264 17.0946ZM4.20264 17.0904L4.21544 16.0905L3.84044 16.0857L3.82764 17.0856L3.81484 18.0855L4.18984 18.0903L4.20264 17.0904ZM3.82764 17.0856L3.84044 16.0857L3.46544 16.0809L3.45264 17.0808L3.43984 18.0807L3.81484 18.0855L3.82764 17.0856ZM3.45264 17.0808L3.46544 16.0809C3.21951 16.0777 2.97358 16.0731 2.72765 16.0669L2.70264 17.0666L2.67763 18.0663C2.9317 18.0727 3.18577 18.0775 3.43984 18.0807L3.45264 17.0808ZM2.70264 17.0666L2.72765 16.0669L2.35265 16.0576L2.32764 17.0573L2.30263 18.0569L2.67763 18.0663L2.70264 17.0666ZM2.32764 17.0573L2.35265 16.0576L1.97765 16.0482L1.95264 17.0479L1.92763 18.0476L2.30263 18.0569L2.32764 17.0573ZM1.95264 17.0479L1.97765 16.0482C1.95205 16.0475 2.00467 16.0439 2.09146 16.0877C2.19316 16.1391 2.28879 16.2295 2.34718 16.3447L1.45513 16.7967L0.563086 17.2486C0.872817 17.86 1.47045 18.0361 1.92763 18.0476L1.95264 17.0479ZM1.45513 16.7967L2.34718 16.3447L2.22467 16.1029L1.33263 16.5549L0.440581 17.0068L0.563086 17.2486L1.45513 16.7967ZM1.33263 16.5549L2.22467 16.1029L2.10217 15.8611L1.21012 16.3131L0.318076 16.765L0.440581 17.0068L1.33263 16.5549ZM1.21012 16.3131L2.10217 15.8611C2.11428 15.8851 2.12188 15.9065 2.12646 15.9235C2.13098 15.9403 2.13217 15.9512 2.13244 15.9544C2.1327 15.9576 2.13212 15.9535 2.13293 15.9411C2.13375 15.9286 2.1359 15.9091 2.14105 15.8818L1.1584 15.6963L0.175751 15.5108C0.103959 15.8912 0.103261 16.341 0.318076 16.765L1.21012 16.3131ZM1.1584 15.6963L2.14105 15.8818L2.21183 15.5068L1.22918 15.3213L0.246533 15.1358L0.175751 15.5108L1.1584 15.6963ZM1.22918 15.3213L2.21183 15.5068L2.28261 15.1318L1.29996 14.9463L0.317316 14.7608L0.246533 15.1358L1.22918 15.3213ZM1.29996 14.9463L2.28261 15.1318C2.35351 14.7562 2.35177 14.3774 2.27768 14.0024L1.29665 14.1963L0.315617 14.3901C0.340323 14.5152 0.340797 14.6364 0.317316 14.7608L1.29996 14.9463ZM1.29665 14.1963L2.27768 14.0024L2.20358 13.6274L1.22255 13.8213L0.241519 14.0151L0.315617 14.3901L1.29665 14.1963ZM1.22255 13.8213L2.20358 13.6274L2.12948 13.2524L1.14845 13.4463L0.16742 13.6401L0.241519 14.0151L1.22255 13.8213ZM1.14845 13.4463L2.12948 13.2524C2.08851 13.0451 2.06179 12.839 2.04898 12.6339L1.05093 12.6963L0.0528711 12.7586C0.0712963 13.0536 0.109593 13.3475 0.16742 13.6401L1.14845 13.4463ZM1.05093 12.6963L2.04898 12.6339L2.02555 12.2589L1.0275 12.3213L0.0294428 12.3836L0.0528711 12.7586L1.05093 12.6963ZM1.0275 12.3213L2.02555 12.2589L2.00212 11.8839L1.00407 11.9463L0.00601435 12.0086L0.0294428 12.3836L1.0275 12.3213ZM1.00407 11.9463L2.00212 11.8839C1.99421 11.7572 2.00854 11.6258 2.05107 11.4845L1.09349 11.1963L0.135917 10.9081C0.0279806 11.2668 -0.0173067 11.6354 0.00601435 12.0086L1.00407 11.9463ZM1.09349 11.1963L2.05107 11.4845L2.16392 11.1095L1.20635 10.8213L0.24877 10.5331L0.135917 10.9081L1.09349 11.1963ZM1.20635 10.8213L2.16392 11.1095L2.27678 10.7345L1.3192 10.4463L0.361624 10.1581L0.24877 10.5331L1.20635 10.8213ZM1.3192 10.4463L2.27678 10.7345C2.39617 10.3377 2.42238 9.92813 2.34837 9.5185L1.36431 9.69629L0.380237 9.87408C0.396564 9.96445 0.392703 10.0548 0.361624 10.1581L1.3192 10.4463ZM1.36431 9.69629L2.34837 9.5185L2.28063 9.1435L1.29656 9.32129L0.312487 9.49908L0.380237 9.87408L1.36431 9.69629ZM1.29656 9.32129L2.28063 9.1435L2.21288 8.7685L1.22881 8.94629L0.244738 9.12408L0.312487 9.49908L1.29656 9.32129ZM1.22881 8.94629L2.21288 8.7685C2.18402 8.60878 2.17788 8.45195 2.19346 8.29532L1.19838 8.19629L0.203295 8.09725C0.169121 8.44063 0.183261 8.78379 0.244738 9.12408L1.22881 8.94629ZM1.19838 8.19629L2.19346 8.29532L2.23078 7.92032L1.2357 7.82129L0.240617 7.72225L0.203295 8.09725L1.19838 8.19629ZM1.2357 7.82129L2.23078 7.92032L2.26811 7.54532L1.27302 7.44629L0.277939 7.34725L0.240617 7.72225L1.2357 7.82129ZM1.27302 7.44629L2.26811 7.54532C2.27844 7.44152 2.31289 7.31723 2.39271 7.16803L1.51097 6.69629L0.629233 6.22455C0.441555 6.57535 0.31737 6.95106 0.277939 7.34725L1.27302 7.44629ZM1.51097 6.69629L2.39271 7.16803L2.59334 6.79303L1.7116 6.32129L0.829861 5.84955L0.629233 6.22455L1.51097 6.69629ZM1.7116 6.32129L2.59334 6.79303L2.79397 6.41803L1.91223 5.94629L1.03049 5.47455L0.829861 5.84955L1.7116 6.32129ZM1.91223 5.94629L2.79397 6.41803C3.05802 5.92447 3.10781 5.36729 2.89333 4.8272L1.96393 5.19629L1.03454 5.56538C1.03455 5.56542 1.03386 5.56367 1.03289 5.56021C1.03192 5.55674 1.03075 5.55186 1.02975 5.54572C1.02763 5.53283 1.02677 5.51792 1.02784 5.50251C1.03014 5.46908 1.03946 5.45779 1.03049 5.47455L1.91223 5.94629ZM1.96393 5.19629L2.89333 4.8272L2.74441 4.4522L1.81501 4.82129L0.885617 5.19038L1.03454 5.56538L1.96393 5.19629ZM1.81501 4.82129L2.74441 4.4522L2.59548 4.0772L1.66609 4.44629L0.736694 4.81538L0.885617 5.19038L1.81501 4.82129ZM1.66609 4.44629L2.59548 4.0772C2.50706 3.85455 2.43056 3.63329 2.36569 3.41336L1.40655 3.69629L0.447406 3.97922C0.530022 4.25929 0.626549 4.53802 0.736694 4.81538L1.66609 4.44629ZM1.40655 3.69629L2.36569 3.41336L2.25507 3.03836L1.29593 3.32129L0.336787 3.60422L0.447406 3.97922L1.40655 3.69629ZM1.29593 3.32129L2.25507 3.03836L2.14445 2.66336L1.18531 2.94629L0.226168 3.22922L0.336787 3.60422L1.29593 3.32129ZM1.18531 2.94629L2.14445 2.66336C2.13608 2.63498 2.14698 2.65508 2.14108 2.70975C2.13441 2.77168 2.10984 2.84157 2.0673 2.90132L1.2527 2.32129L0.43811 1.74126C0.0939898 2.22453 0.0915474 2.77285 0.226168 3.22922L1.18531 2.94629ZM1.2527 2.32129L2.0673 2.90132L2.24531 2.65132L1.43072 2.07129L0.616123 1.49126L0.43811 1.74126L1.2527 2.32129ZM1.43072 2.07129L2.24531 2.65132L2.42332 2.40132L1.60873 1.82129L0.794136 1.24126L0.616123 1.49126L1.43072 2.07129ZM1.60873 1.82129L2.42332 2.40132C2.48589 2.31345 2.56473 2.19806 2.62254 2.08311C2.63706 2.05425 2.72418 1.88923 2.74264 1.67135C2.75197 1.56123 2.75981 1.26237 2.54329 0.974333C2.29273 0.641 1.9384 0.571289 1.73447 0.571289V1.57129V2.57129C1.53924 2.57129 1.19123 2.50418 0.944585 2.17606C0.731983 1.89323 0.741334 1.60218 0.749782 1.50248C0.759831 1.38388 0.789672 1.29723 0.801467 1.26478C0.816106 1.22451 0.829863 1.19627 0.835798 1.18447C0.851702 1.15285 0.850241 1.16246 0.794136 1.24126L1.60873 1.82129ZM1.73447 1.57129V0.571289H1.68219V1.57129V2.57129H1.73447V1.57129ZM1.68219 1.57129V0.571289H1.62991V1.57129V2.57129H1.68219V1.57129ZM1.62991 1.57129V0.571289C1.60319 0.571289 1.47591 0.570217 1.32394 0.618204C1.24826 0.642099 1.07898 0.704506 0.919888 0.862203C0.727628 1.05277 0.604162 1.33246 0.625973 1.6433C0.644147 1.90231 0.756518 2.08077 0.811546 2.15746C0.873121 2.24326 0.93515 2.30085 0.968893 2.33021C1.03677 2.38927 1.09792 2.42618 1.12095 2.43982C1.20585 2.49009 1.29316 2.5241 1.31281 2.53196C1.3913 2.56338 1.50089 2.60253 1.62691 2.64595L1.95264 1.70048L2.27836 0.755018C2.15438 0.712304 2.08519 0.686857 2.0561 0.675213C2.02197 0.661547 2.07329 0.679401 2.14001 0.718911C2.15849 0.729855 2.21621 0.764407 2.28177 0.821451C2.31435 0.849804 2.3755 0.906463 2.43647 0.99143C2.49089 1.06727 2.60294 1.24498 2.62107 1.50331C2.64283 1.81348 2.5196 2.09258 2.32784 2.28265C2.16926 2.43984 2.00077 2.50182 1.92616 2.52538C1.77632 2.5727 1.65228 2.57129 1.62991 2.57129V1.57129ZM1.95264 1.70048L1.62691 2.64595L2.00191 2.77514L2.32764 1.82967L2.65336 0.884211L2.27836 0.755018L1.95264 1.70048Z" fill="#323232"/>
</svg>
