<svg width="139" height="169" viewBox="0 0 139 169" fill="none" xmlns="http://www.w3.org/2000/svg">
<path d="M12.9194 2.1258C14.8188 2.1258 18.1659 1.88927 19.9004 2.06487C22.2284 2.30055 29.8129 2.48416 36.7939 3.07905C40.9798 3.43576 44.0903 3.91763 46.8873 4.21508C53.849 4.9554 56.5041 3.91763 60.3261 3.62019C65.8161 3.19293 68.6886 3.91763 71.9193 4.21508C74.664 4.46778 78.2427 4.63437 84.5052 5.22926C91.603 5.9035 94.2546 4.99274 96.1145 4.33872C97.9349 3.69859 102.949 3.55927 106.149 3.85671C107.883 4.0359 108.958 4.39426 109.733 4.57345C110.152 4.63437 110.625 4.63437 111.112 4.63437" stroke="black" stroke-width="3.96435" stroke-linecap="round"/>
<path d="M112.546 4.27588C112.069 4.98903 110.174 8.3111 108.489 11.196C107.081 13.6072 106.103 15.2563 105.083 17.1108C104.296 18.543 102.289 21.6926 98.5266 26.5341C93.9373 32.4391 92.248 34.3644 90.0369 37.0558C87.7685 39.8168 86.2776 42.9581 81.6242 50.2401C79.7547 53.1656 78.2717 55.7447 76.8328 57.6673C76.1143 59.1026 75.3976 60.5325 74.2651 62.2652C73.9641 62.6863 73.7276 63.041 73.4839 63.4066" stroke="black" stroke-width="3.96435" stroke-linecap="round"/>
<path d="M12.2026 2.12599C13.5107 3.90708 15.1843 7.48718 17.8666 12.5599C19.0109 14.7237 19.843 16.4535 20.7408 17.8888C21.6059 19.2721 22.9465 20.754 24.6792 22.6049C25.6163 23.606 27.358 26.237 30.5152 30.4048C36.1995 37.9086 37.9836 42.3492 39.7934 45.4222C40.7457 47.0393 42.6496 49.8893 44.092 52.1703C46.0823 55.3176 48.0323 56.5907 49.5267 58.0851C51.2612 59.9379 53.1641 62.0809 54.5456 63.7008C54.8448 64.0018 55.1996 64.2383 55.9235 64.8404" stroke="black" stroke-width="3.96435" stroke-linecap="round"/>
<path d="M110.754 10.3683C112.65 9.89528 117.19 8.4618 121.43 8.27724C124.042 8.16352 125.562 11.0779 126.995 13.4055C127.925 14.9157 127.361 17.0483 126.646 19.0802C125.653 21.902 122.243 24.5597 119.781 26.3712C116.849 28.5288 114.23 28.8816 112.196 29.1217C108.91 29.5097 107.536 30.5516 105.803 31.5084C104.248 32.367 102.877 33.182 101.144 33.6013C99.6796 33.9557 98.2182 34.2571 96.7829 34.7355C96.068 34.9739 95.2294 35.3322 94.3352 35.8089C93.9142 36.049 93.5594 36.2855 93.1938 36.5292" stroke="black" stroke-width="3.96435" stroke-linecap="round"/>
<path d="M28.0191 66.2129C25.455 65.7936 20.9037 65.5571 15.7863 65.5571C14.6968 65.1987 13.9872 65.1987 13.3888 65.4424C12.7903 65.6861 12.3173 66.1591 12.0807 66.7003C11.8442 67.2414 11.8037 67.8396 11.9051 68.3111C12.0843 69.1443 12.6239 69.6757 13.2831 70.2804C13.998 70.9362 14.9534 71.5153 16.4582 71.5902C20.0938 71.7712 22.2303 72.2354 25.3135 72.3069C33.1169 72.4879 35.2468 72.508 37.7273 72.4252C43.1512 72.2442 44.8063 71.6856 48.74 71.7085C59.5143 71.7712 61.6514 72.1337 63.9366 72.3069C66.3233 72.4879 68.7397 72.5873 70.9821 73.0846C73.1394 73.563 76.7102 74.0612 81.4177 74.0988C88.8216 74.1579 94.152 73.9422 95.4747 73.8587C98.3399 73.6777 99.9887 73.2102 102.416 73.1419C108.854 72.961 111.387 72.9344 112.49 71.5848L112.503 71.5687C113.035 70.9172 113.62 70.2023 113.501 69.4938C113.381 68.7788 113.275 67.6691 112.481 67.1662C111.825 66.7504 108.904 66.8195 104.943 66.5713C100.196 66.2738 94.9519 65.989 87.2627 66.6931C85.306 66.8723 80.7938 67.363 74.5335 66.9296C70.2367 66.6322 67.3719 66.507 65.6531 66.2129C63.9151 65.9155 61.9912 64.8575 48.2472 65.618C42.8717 65.9155 39.0663 66.0392 36.3834 66.3347C33.6831 66.6322 30.8028 66.6681 28.0191 66.2129Z" stroke="black" stroke-width="3.96435" stroke-linecap="round"/>
<path d="M21.5202 74.8745C20.6888 75.1111 19.0188 75.8278 17.0478 77.7325C16.0685 78.6789 15.6716 79.8881 15.0732 80.6622C13.8007 82.308 18.6389 84.8945 20.3806 86.9928C21.464 88.298 22.5917 88.729 23.011 89.2648C24.2446 90.8411 21.2837 93.739 20.5078 95.2961C19.4501 97.419 18.0584 100.311 17.2234 102.103C16.2962 104.093 15.1914 105.924 14.3564 107.599C13.3262 109.666 12.8047 112.13 11.9661 114.526C11.4001 116.143 10.891 117.872 10.2352 119.9C9.12185 123.343 7.9094 126.58 7.24642 128.922C6.47077 131.662 5.5155 135.79 5.33452 137.523C5.16943 139.103 3.8455 140.922 2.88866 144.559C1.37054 150.33 2.16834 153.343 2.58405 155.144C3.1656 157.663 6.81996 159.328 10.9233 161.29C19.9193 165.591 21.8714 165.183 24.2581 165.778C26.2469 166.274 32.9306 166.258 37.4586 166.556C38.9421 166.653 40.27 166.735 44.2389 166.914C47.7318 167.072 54.2392 166.975 57.8856 166.916C63.2133 166.83 65.3486 166.38 72.8905 165.961C77.9235 165.681 87.037 165.9 91.9055 165.841C98.8011 165.757 102.382 165.305 108.163 165.124C110.782 165.042 112.18 164.467 116.59 162.92C117.92 162.454 118.753 161.725 119.588 160.474C121.444 157.694 121.146 148.763 120.79 143.808C120.675 142.214 120.193 140.348 119.061 136.471C117.94 132.633 117.685 131.145 116.792 127.933C114.67 120.291 113.628 117.542 113.085 114.902C112.293 111.05 111.714 108.934 110.876 106.836C110.262 105.3 110.037 103.551 109.383 102.116C108.747 100.721 108.367 99.2507 107.889 97.6972C107.164 95.3443 106.339 92.4489 105.5 90.3507C104.929 88.922 104.425 87.4246 103.649 85.5145C102.574 82.8684 101.916 80.6156 101.438 79.1803C101.2 78.4654 100.96 77.6268 100.721 76.7327C100.601 76.3116 100.483 75.9568 100.361 75.2329" stroke="black" stroke-width="3.96435" stroke-linecap="round"/>
<path d="M104.661 85.9836C105.851 85.2705 107.521 84.3137 115.262 84.2509C118.304 84.2263 119.942 85.3816 122.388 86.9889C127.553 90.383 128.306 92.4271 129.444 93.9215C130.741 95.6254 131.417 97.0859 132.193 98.5803C133.047 100.227 133.567 102.218 134.7 105.026C135.805 107.766 136.076 109.27 136.257 111.121C136.554 114.162 136.319 117.513 135.782 119.246C135.282 120.856 133.108 124.3 129.937 128.022C128.146 130.124 126.17 131.253 124.735 132.804C123.418 134.001 122.701 135.076 122.166 135.791C121.866 136.152 121.512 136.506 120.788 137.23" stroke="black" stroke-width="3.96435" stroke-linecap="round"/>
<path d="M6.11035 139.381C6.5834 139.381 10.6115 139.499 16.641 139.737C22.2227 139.958 28.666 139.624 30.8915 139.322C31.793 139.199 34.1634 138.786 43.5347 138.368C51.0086 138.035 64.0226 138.069 71.138 137.949C78.2534 137.829 79.0812 137.711 81.5773 138.005C88.2419 138.789 93.1866 139.976 97.573 140.511C101.235 140.959 107.872 141.165 111.462 141.171C115.405 140.821 116.48 140.456 117.733 140.397C118.276 140.338 118.631 140.219 118.996 140.097" stroke="black" stroke-width="3.96435" stroke-linecap="round"/>
</svg>
