<svg width="42" height="28" viewBox="0 0 42 28" fill="none" xmlns="http://www.w3.org/2000/svg">
<path d="M6.95996 12.9607L6.26401 12.2426L6.20216 12.3026L6.15147 12.3722L6.95996 12.9607ZM6.54185 13.5351L7.35033 14.1236L6.54185 13.5351ZM5.747 14.2596L5.37683 13.3307L5.747 14.2596ZM4.99354 14.5599L4.62337 13.6309L4.99354 14.5599ZM4.44665 15.0732L5.35223 15.4974L4.44665 15.0732ZM4.2765 15.4365L3.37092 15.0123L4.2765 15.4365ZM2.32633 17.7349L2.78325 18.6245L2.32633 17.7349ZM1.97768 17.914L1.52075 17.0245L1.97768 17.914ZM1.44614 18.3952L0.59071 17.8773L1.44614 18.3952ZM1.08037 18.9994L1.9358 19.5173L1.08037 18.9994ZM1.13113 19.589L0.355061 20.2196L1.13113 19.589ZM1.36478 19.8765L0.588713 20.5071L1.36478 19.8765ZM1.59843 20.164L2.3745 19.5334L1.59843 20.164ZM2.04216 20.7393L2.84986 20.1497L2.04216 20.7393ZM2.46232 21.3149L1.65462 21.9045L2.46232 21.3149ZM2.87962 21.9646L2.01182 22.4615L2.87962 21.9646ZM3.29408 22.6884L4.16189 22.1915L3.29408 22.6884ZM3.94556 23.0164L4.02182 24.0135L3.94556 23.0164ZM4.83406 22.9484L4.75781 21.9513L4.83406 22.9484ZM5.58686 23.1306L5.013 23.9496L5.58686 23.1306ZM6.20395 23.5631L6.77781 22.7441L6.20395 23.5631ZM6.89312 23.8101L6.97396 22.8134L6.89312 23.8101ZM7.27374 23.841L7.1929 24.8377L7.27374 23.841ZM7.65437 23.8719L7.73521 22.8752L7.65437 23.8719ZM8.34362 24.1773L7.67903 24.9245L8.34362 24.1773ZM8.96088 24.7263L9.62547 23.9791L8.96088 24.7263ZM9.64612 25.0402L9.75031 24.0457L9.64612 25.0402ZM10.3994 25.1191L10.2952 26.1137L10.3994 25.1191ZM11.152 25.183L11.2167 24.1851L11.152 25.183ZM11.5281 25.2073L11.4634 26.2052L11.5281 25.2073ZM12.6617 25.2229L12.5749 24.2267L12.6617 25.2229ZM13.4246 25.1564L13.5114 26.1527L13.4246 25.1564ZM14.1466 25.4252L13.4832 26.1734L14.1466 25.4252ZM14.4872 25.7271L13.8237 26.4753L14.4872 25.7271ZM14.8277 26.0291L15.4911 25.2809L14.8277 26.0291ZM15.5639 26.1072L15.0715 25.2369L15.5639 26.1072ZM16.3552 25.6596L16.8476 26.5299L16.3552 25.6596ZM17.1152 25.5949L17.5156 24.6786L17.1152 25.5949ZM17.844 25.9133L17.4436 26.8297L17.844 25.9133ZM18.584 26.0036L18.4036 25.02L18.584 26.0036ZM18.9597 25.9347L19.1401 26.9183L18.9597 25.9347ZM19.3354 25.8658L19.155 24.8822L19.3354 25.8658ZM20.0874 26.0064L20.5739 25.1327L20.0874 26.0064ZM20.8401 26.4255L20.3537 27.2992L20.8401 26.4255ZM21.5831 26.3519L20.9717 25.5606L21.5831 26.3519ZM23.8091 25.6662L23.953 24.6766L23.8091 25.6662ZM24.5595 25.7188L24.5542 24.7188L24.5595 25.7188ZM25.3093 25.7148L25.3146 26.7148L25.3093 25.7148ZM26.0515 25.6434L25.8657 24.6608L26.0515 25.6434ZM26.7859 25.5046L26.9717 26.4872L26.7859 25.5046ZM27.5532 25.5568L27.2623 26.5135L27.5532 25.5568ZM27.9532 25.6784L28.2441 24.7216L27.9532 25.6784ZM28.3531 25.8L28.6441 24.8433L28.3531 25.8ZM29.0976 25.7176L28.588 24.8572L29.0976 25.7176ZM29.442 25.5137L28.9324 24.6532L29.442 25.5137ZM29.7865 25.3097L29.2769 24.4492L29.7865 25.3097ZM30.4921 25.0077L30.7539 25.9728L30.4921 25.0077ZM31.2144 24.8117L30.9526 23.8466L31.2144 24.8117ZM31.9849 24.7677L31.8541 25.7591L31.9849 24.7677ZM32.8035 24.8757L32.9343 23.8843L32.8035 24.8757ZM33.4947 24.5966L32.7312 23.9507L33.4947 24.5966ZM33.7765 24.2634L34.54 24.9093L33.7765 24.2634ZM34.7096 23.5151L34.9263 24.4914L34.7096 23.5151ZM35.4482 23.3511L35.2315 22.3749L35.4482 23.3511ZM36.1894 23.1603L36.4703 24.12L36.1894 23.1603ZM36.5613 23.0514L36.8421 24.0112L36.5613 23.0514ZM36.9331 22.9426L36.6523 21.9829L36.9331 22.9426ZM37.5379 22.5157L36.731 21.925L37.5379 22.5157ZM37.7708 22.1975L38.5777 22.7882L37.7708 22.1975ZM38.0037 21.8793L37.1968 21.2886L38.0037 21.8793ZM38.469 21.2848L39.2344 21.9283L38.469 21.2848ZM38.7014 21.0084L37.936 20.3649L38.7014 21.0084ZM38.9337 20.7321L38.1683 20.0885L38.9337 20.7321ZM39.4888 20.1567L38.8091 19.4232L39.4888 20.1567ZM40.1341 19.5587L39.4544 18.8252L40.1341 19.5587ZM40.0294 19.0397L39.5717 19.9288L40.0294 19.0397ZM39.602 18.8197L40.0597 17.9306L39.602 18.8197ZM39.1746 18.5997L38.717 19.4888L39.1746 18.5997ZM38.6461 17.9453L39.62 17.7184L38.6461 17.9453ZM38.4437 17.0764L37.4698 17.3033L38.4437 17.0764ZM38.047 16.4081L38.6677 15.624L38.047 16.4081ZM37.7515 16.1742L37.1308 16.9582L37.7515 16.1742ZM37.456 15.9402L38.0767 15.1562L37.456 15.9402ZM36.7355 15.606L36.5058 16.5792L36.7355 15.606ZM36.3105 15.5057L36.5402 14.5324L36.3105 15.5057ZM35.8855 15.4054L35.6558 16.3786L35.8855 15.4054ZM35.1948 15.0403L34.489 15.7487L35.1948 15.0403ZM34.6635 14.5109L35.3694 13.8025L34.6635 14.5109ZM34.2974 13.8503L35.2666 13.6042L34.2974 13.8503ZM34.0964 13.0587L35.0656 12.8126L34.0964 13.0587ZM33.9406 12.7199L33.2225 12.024L33.9406 12.7199ZM33.8852 12.777L33.1672 12.081L32.9664 12.2881L32.9068 12.5703L33.8852 12.777ZM33.8464 12.9607L33.1505 13.6788L34.4506 14.9389L34.8248 13.1674L33.8464 12.9607ZM7.03177 12.8911L6.33581 12.173L6.26401 12.2426L6.95996 12.9607L7.65592 13.6788L7.72773 13.6092L7.03177 12.8911ZM6.95996 12.9607L6.15147 12.3722L5.73336 12.9466L6.54185 13.5351L7.35033 14.1236L7.76845 13.5492L6.95996 12.9607ZM6.54185 13.5351L5.73336 12.9466C5.62188 13.0997 5.53003 13.2009 5.46042 13.2644C5.38954 13.329 5.3608 13.3371 5.37683 13.3307L5.747 14.2596L6.11717 15.1886C6.63123 14.9838 7.03356 14.5588 7.35033 14.1236L6.54185 13.5351ZM5.747 14.2596L5.37683 13.3307L5.0001 13.4808L5.37027 14.4097L5.74044 15.3387L6.11717 15.1886L5.747 14.2596ZM5.37027 14.4097L5.0001 13.4808L4.62337 13.6309L4.99354 14.5599L5.36371 15.4888L5.74044 15.3387L5.37027 14.4097ZM4.99354 14.5599L4.62337 13.6309C4.13896 13.8239 3.76365 14.1739 3.54108 14.6491L4.44665 15.0732L5.35223 15.4974C5.35604 15.4893 5.35825 15.4863 5.35789 15.4868C5.35745 15.4875 5.35572 15.4897 5.35287 15.4924C5.35003 15.495 5.34815 15.4962 5.3485 15.496C5.34899 15.4957 5.35349 15.4929 5.36371 15.4888L4.99354 14.5599ZM4.44665 15.0732L3.54108 14.6491L3.37092 15.0123L4.2765 15.4365L5.18207 15.8607L5.35223 15.4974L4.44665 15.0732ZM4.2765 15.4365L3.37092 15.0123L3.20076 15.3756L4.10634 15.7998L5.01192 16.2239L5.18207 15.8607L4.2765 15.4365ZM4.10634 15.7998L3.20076 15.3756C3.11492 15.5588 3.01716 15.7213 2.90876 15.8655L3.70804 16.4665L4.50733 17.0674C4.70312 16.807 4.87088 16.525 5.01192 16.2239L4.10634 15.7998ZM3.70804 16.4665L2.90876 15.8655L2.68062 16.1689L3.4799 16.7699L4.27918 17.3708L4.50733 17.0674L3.70804 16.4665ZM3.4799 16.7699L2.68062 16.1689L2.45248 16.4724L3.25176 17.0733L4.05104 17.6743L4.27918 17.3708L3.4799 16.7699ZM3.25176 17.0733L2.45248 16.4724C2.39422 16.5499 2.32052 16.6137 2.21805 16.6663L2.67497 17.5559L3.1319 18.4454C3.49429 18.2592 3.80511 18.0014 4.05104 17.6743L3.25176 17.0733ZM2.67497 17.5559L2.21805 16.6663L1.8694 16.8454L2.32633 17.7349L2.78325 18.6245L3.1319 18.4454L2.67497 17.5559ZM2.32633 17.7349L1.8694 16.8454L1.52075 17.0245L1.97768 17.914L2.4346 18.8035L2.78325 18.6245L2.32633 17.7349ZM1.97768 17.914L1.52075 17.0245C1.14231 17.2189 0.818829 17.5005 0.59071 17.8773L1.44614 18.3952L2.30158 18.9131C2.31731 18.8871 2.34818 18.8479 2.4346 18.8035L1.97768 17.914ZM1.44614 18.3952L0.59071 17.8773L0.407821 18.1794L1.26325 18.6973L2.11869 19.2152L2.30158 18.9131L1.44614 18.3952ZM1.26325 18.6973L0.407821 18.1794L0.224933 18.4814L1.08037 18.9994L1.9358 19.5173L2.11869 19.2152L1.26325 18.6973ZM1.08037 18.9994L0.224933 18.4814C0.0760405 18.7274 -0.0246395 19.0359 0.00529855 19.3836C0.034828 19.7266 0.182796 20.0076 0.355061 20.2196L1.13113 19.589L1.9072 18.9583C1.9237 18.9786 1.98532 19.0656 1.99793 19.212C2.01094 19.3632 1.96277 19.4727 1.9358 19.5173L1.08037 18.9994ZM1.13113 19.589L0.355061 20.2196L0.588713 20.5071L1.36478 19.8765L2.14085 19.2458L1.9072 18.9583L1.13113 19.589ZM1.36478 19.8765L0.588713 20.5071L0.822364 20.7947L1.59843 20.164L2.3745 19.5334L2.14085 19.2458L1.36478 19.8765ZM1.59843 20.164L0.822364 20.7947C0.967665 20.9735 1.10499 21.1516 1.23446 21.3289L2.04216 20.7393L2.84986 20.1497C2.69923 19.9434 2.54074 19.7379 2.3745 19.5334L1.59843 20.164ZM2.04216 20.7393L1.23446 21.3289L1.44454 21.6167L2.25224 21.0271L3.05994 20.4375L2.84986 20.1497L2.04216 20.7393ZM2.25224 21.0271L1.44454 21.6167L1.65462 21.9045L2.46232 21.3149L3.27002 20.7253L3.05994 20.4375L2.25224 21.0271ZM2.46232 21.3149L1.65462 21.9045C1.76965 22.0621 1.88898 22.247 2.01182 22.4615L2.87962 21.9646L3.74743 21.4677C3.59396 21.1997 3.43508 20.9515 3.27002 20.7253L2.46232 21.3149ZM2.87962 21.9646L2.01182 22.4615L2.21905 22.8234L3.08685 22.3265L3.95466 21.8296L3.74743 21.4677L2.87962 21.9646ZM3.08685 22.3265L2.21905 22.8234L2.42628 23.1853L3.29408 22.6884L4.16189 22.1915L3.95466 21.8296L3.08685 22.3265ZM3.29408 22.6884L2.42628 23.1853C2.57845 23.4511 2.8029 23.6895 3.11095 23.8446C3.4147 23.9975 3.73247 24.0356 4.02182 24.0135L3.94556 23.0164L3.86931 22.0193C3.86249 22.0198 3.9236 22.0146 4.01019 22.0582C4.10108 22.1039 4.14787 22.1671 4.16189 22.1915L3.29408 22.6884ZM3.94556 23.0164L4.02182 24.0135L4.46607 23.9795L4.38981 22.9824L4.31356 21.9853L3.86931 22.0193L3.94556 23.0164ZM4.38981 22.9824L4.46607 23.9795L4.91032 23.9455L4.83406 22.9484L4.75781 21.9513L4.31356 21.9853L4.38981 22.9824ZM4.83406 22.9484L4.91032 23.9455C4.9693 23.941 4.99955 23.9466 5.00911 23.9489C5.014 23.9501 5.01549 23.9509 5.01474 23.9506C5.01449 23.9504 5.01408 23.9502 5.01362 23.95C5.01317 23.9497 5.01294 23.9496 5.013 23.9496L5.58686 23.1306L6.16072 22.3117C5.73219 22.0114 5.24073 21.9144 4.75781 21.9513L4.83406 22.9484ZM5.58686 23.1306L5.013 23.9496L5.32154 24.1658L5.8954 23.3469L6.46926 22.5279L6.16072 22.3117L5.58686 23.1306ZM5.8954 23.3469L5.32154 24.1658L5.63009 24.382L6.20395 23.5631L6.77781 22.7441L6.46926 22.5279L5.8954 23.3469ZM6.20395 23.5631L5.63009 24.382C5.98346 24.6296 6.38383 24.7721 6.81227 24.8069L6.89312 23.8101L6.97396 22.8134C6.8949 22.807 6.83582 22.7848 6.77781 22.7441L6.20395 23.5631ZM6.89312 23.8101L6.81227 24.8069L7.1929 24.8377L7.27374 23.841L7.35459 22.8443L6.97396 22.8134L6.89312 23.8101ZM7.27374 23.841L7.1929 24.8377L7.57352 24.8686L7.65437 23.8719L7.73521 22.8752L7.35459 22.8443L7.27374 23.841ZM7.65437 23.8719L7.57352 24.8686C7.59272 24.8702 7.62153 24.8733 7.67903 24.9245L8.34362 24.1773L9.00821 23.43C8.6542 23.1152 8.22351 22.9148 7.73521 22.8752L7.65437 23.8719ZM8.34362 24.1773L7.67903 24.9245L7.98766 25.199L8.65225 24.4518L9.31684 23.7046L9.00821 23.43L8.34362 24.1773ZM8.65225 24.4518L7.98766 25.199L8.29629 25.4735L8.96088 24.7263L9.62547 23.9791L9.31684 23.7046L8.65225 24.4518ZM8.96088 24.7263L8.29629 25.4735C8.64343 25.7822 9.06375 25.9847 9.54194 26.0348L9.64612 25.0402L9.75031 24.0457C9.72634 24.0432 9.68982 24.0363 9.62547 23.9791L8.96088 24.7263ZM9.64612 25.0402L9.54194 26.0348L9.91856 26.0742L10.0227 25.0797L10.1269 24.0851L9.75031 24.0457L9.64612 25.0402ZM10.0227 25.0797L9.91856 26.0742L10.2952 26.1137L10.3994 25.1191L10.5035 24.1246L10.1269 24.0851L10.0227 25.0797ZM10.3994 25.1191L10.2952 26.1137C10.5593 26.1414 10.8234 26.1638 11.0873 26.1809L11.152 25.183L11.2167 24.1851C10.9793 24.1697 10.7415 24.1495 10.5035 24.1246L10.3994 25.1191ZM11.152 25.183L11.0873 26.1809L11.4634 26.2052L11.5281 25.2073L11.5928 24.2094L11.2167 24.1851L11.152 25.183ZM11.5281 25.2073L11.4634 26.2052L11.8394 26.2296L11.9041 25.2317L11.9688 24.2338L11.5928 24.2094L11.5281 25.2073ZM11.9041 25.2317L11.8394 26.2296C12.1414 26.2492 12.4446 26.2456 12.7484 26.2191L12.6617 25.2229L12.5749 24.2267C12.3702 24.2445 12.1683 24.2468 11.9688 24.2338L11.9041 25.2317ZM12.6617 25.2229L12.7484 26.2191L13.1299 26.1859L13.0431 25.1897L12.9564 24.1934L12.5749 24.2267L12.6617 25.2229ZM13.0431 25.1897L13.1299 26.1859L13.5114 26.1527L13.4246 25.1564L13.3378 24.1602L12.9564 24.1934L13.0431 25.1897ZM13.4246 25.1564L13.5114 26.1527C13.5027 26.1534 13.491 26.1534 13.4778 26.1516C13.4646 26.1498 13.454 26.1468 13.447 26.1442C13.4328 26.1389 13.4455 26.14 13.4832 26.1734L14.1466 25.4252L14.8101 24.677C14.4196 24.3307 13.9169 24.1098 13.3378 24.1602L13.4246 25.1564ZM14.1466 25.4252L13.4832 26.1734L13.8237 26.4753L14.4872 25.7271L15.1506 24.9789L14.8101 24.677L14.1466 25.4252ZM14.4872 25.7271L13.8237 26.4753L14.1642 26.7773L14.8277 26.0291L15.4911 25.2809L15.1506 24.9789L14.4872 25.7271ZM14.8277 26.0291L14.1642 26.7773C14.3973 26.9839 14.7032 27.1544 15.0765 27.194C15.4499 27.2337 15.7849 27.1311 16.0563 26.9776L15.5639 26.1072L15.0715 25.2369C15.0791 25.2326 15.1595 25.1916 15.2875 25.2052C15.4154 25.2188 15.4851 25.2756 15.4911 25.2809L14.8277 26.0291ZM15.5639 26.1072L16.0563 26.9776L16.4519 26.7538L15.9595 25.8834L15.4671 25.013L15.0715 25.2369L15.5639 26.1072ZM15.9595 25.8834L16.4519 26.7538L16.8476 26.5299L16.3552 25.6596L15.8628 24.7892L15.4671 25.013L15.9595 25.8834ZM16.3552 25.6596L16.8476 26.5299C16.8779 26.5128 16.8693 26.5243 16.8278 26.5279C16.8076 26.5296 16.7854 26.5288 16.7631 26.525C16.741 26.5213 16.7245 26.5155 16.7149 26.5113L17.1152 25.5949L17.5156 24.6786C16.9403 24.4272 16.3556 24.5104 15.8628 24.7892L16.3552 25.6596ZM17.1152 25.5949L16.7149 26.5113L17.0792 26.6705L17.4796 25.7541L17.8799 24.8377L17.5156 24.6786L17.1152 25.5949ZM17.4796 25.7541L17.0792 26.6705L17.4436 26.8297L17.844 25.9133L18.2443 24.9969L17.8799 24.8377L17.4796 25.7541ZM17.844 25.9133L17.4436 26.8297C17.8612 27.0121 18.3097 27.0706 18.7644 26.9872L18.584 26.0036L18.4036 25.02C18.3575 25.0284 18.3126 25.0268 18.2443 24.9969L17.844 25.9133ZM18.584 26.0036L18.7644 26.9872L19.1401 26.9183L18.9597 25.9347L18.7793 24.9511L18.4036 25.02L18.584 26.0036ZM18.9597 25.9347L19.1401 26.9183L19.5158 26.8494L19.3354 25.8658L19.155 24.8822L18.7793 24.9511L18.9597 25.9347ZM19.3354 25.8658L19.5158 26.8494C19.5204 26.8485 19.5222 26.8485 19.5274 26.8494C19.5342 26.8507 19.5581 26.8562 19.6009 26.8801L20.0874 26.0064L20.5739 25.1327C20.1477 24.8954 19.6629 24.789 19.155 24.8822L19.3354 25.8658ZM20.0874 26.0064L19.6009 26.8801L19.9773 27.0897L20.4638 26.216L20.9503 25.3423L20.5739 25.1327L20.0874 26.0064ZM20.4638 26.216L19.9773 27.0897L20.3537 27.2992L20.8401 26.4255L21.3266 25.5519L20.9503 25.3423L20.4638 26.216ZM20.8401 26.4255L20.3537 27.2992C20.6289 27.4525 20.956 27.5424 21.3126 27.5071C21.6634 27.4723 21.9594 27.3248 22.1944 27.1433L21.5831 26.3519L20.9717 25.5606C20.9623 25.5679 21.0124 25.527 21.1155 25.5168C21.2245 25.506 21.3023 25.5383 21.3266 25.5519L20.8401 26.4255ZM21.5831 26.3519L22.1944 27.1433L22.5609 26.8602L21.9496 26.0688L21.3383 25.2774L20.9717 25.5606L21.5831 26.3519ZM21.9496 26.0688L22.5609 26.8602L22.9275 26.577L22.3162 25.7856L21.7049 24.9942L21.3383 25.2774L21.9496 26.0688ZM22.3162 25.7856L22.9275 26.577C22.9727 26.5421 22.9901 26.5393 22.9794 26.5426C22.9739 26.5443 22.964 26.5466 22.9508 26.5477C22.9374 26.5487 22.9248 26.5482 22.9144 26.5466L23.0582 25.557L23.2021 24.5674C22.6262 24.4837 22.113 24.679 21.7049 24.9942L22.3162 25.7856ZM23.0582 25.557L22.9144 26.5466L23.2898 26.6012L23.4337 25.6116L23.5775 24.622L23.2021 24.5674L23.0582 25.557ZM23.4337 25.6116L23.2898 26.6012L23.6653 26.6558L23.8091 25.6662L23.953 24.6766L23.5775 24.622L23.4337 25.6116ZM23.8091 25.6662L23.6653 26.6558C23.9644 26.6993 24.2643 26.7204 24.5648 26.7188L24.5595 25.7188L24.5542 24.7188C24.3548 24.7199 24.1545 24.7059 23.953 24.6766L23.8091 25.6662ZM24.5595 25.7188L24.5648 26.7188L24.9397 26.7168L24.9344 25.7168L24.9291 24.7168L24.5542 24.7188L24.5595 25.7188ZM24.9344 25.7168L24.9397 26.7168L25.3146 26.7148L25.3093 25.7148L25.304 24.7149L24.9291 24.7168L24.9344 25.7168ZM25.3093 25.7148L25.3146 26.7148C25.6249 26.7132 25.9327 26.6836 26.2372 26.626L26.0515 25.6434L25.8657 24.6608C25.6805 24.6958 25.4936 24.7139 25.304 24.7149L25.3093 25.7148ZM26.0515 25.6434L26.2372 26.626L26.6045 26.5566L26.4187 25.574L26.2329 24.5914L25.8657 24.6608L26.0515 25.6434ZM26.4187 25.574L26.6045 26.5566L26.9717 26.4872L26.7859 25.5046L26.6002 24.522L26.2329 24.5914L26.4187 25.574ZM26.7859 25.5046L26.9717 26.4872C27.0399 26.4743 27.1315 26.4738 27.2623 26.5135L27.5532 25.5568L27.8441 24.6C27.4415 24.4776 27.0217 24.4423 26.6002 24.522L26.7859 25.5046ZM27.5532 25.5568L27.2623 26.5135L27.6622 26.6351L27.9532 25.6784L28.2441 24.7216L27.8441 24.6L27.5532 25.5568ZM27.9532 25.6784L27.6622 26.6351L28.0622 26.7568L28.3531 25.8L28.6441 24.8433L28.2441 24.7216L27.9532 25.6784ZM28.3531 25.8L28.0622 26.7568C28.5839 26.9154 29.1242 26.8641 29.6071 26.5781L29.0976 25.7176L28.588 24.8572C28.5861 24.8583 28.5896 24.856 28.5982 24.8531C28.6069 24.8501 28.6177 24.8476 28.6293 24.8463C28.6407 24.845 28.6492 24.8454 28.6533 24.8458C28.6571 24.8462 28.6543 24.8464 28.6441 24.8433L28.3531 25.8ZM29.0976 25.7176L29.6071 26.5781L29.9516 26.3741L29.442 25.5137L28.9324 24.6532L28.588 24.8572L29.0976 25.7176ZM29.442 25.5137L29.9516 26.3741L30.296 26.1701L29.7865 25.3097L29.2769 24.4492L28.9324 24.6532L29.442 25.5137ZM29.7865 25.3097L30.296 26.1701C30.4535 26.0768 30.6059 26.013 30.7539 25.9728L30.4921 25.0077L30.2303 24.0426C29.8967 24.1331 29.5786 24.2705 29.2769 24.4492L29.7865 25.3097ZM30.4921 25.0077L30.7539 25.9728L31.1151 25.8748L30.8533 24.9097L30.5914 23.9446L30.2303 24.0426L30.4921 25.0077ZM30.8533 24.9097L31.1151 25.8748L31.4763 25.7768L31.2144 24.8117L30.9526 23.8466L30.5914 23.9446L30.8533 24.9097ZM31.2144 24.8117L31.4763 25.7768C31.5766 25.7496 31.699 25.7387 31.8541 25.7591L31.9849 24.7677L32.1157 23.7763C31.7251 23.7248 31.3338 23.7432 30.9526 23.8466L31.2144 24.8117ZM31.9849 24.7677L31.8541 25.7591L32.2634 25.8131L32.3942 24.8217L32.525 23.8303L32.1157 23.7763L31.9849 24.7677ZM32.3942 24.8217L32.2634 25.8131L32.6727 25.8671L32.8035 24.8757L32.9343 23.8843L32.525 23.8303L32.3942 24.8217ZM32.8035 24.8757L32.6727 25.8671C33.3055 25.9506 33.8654 25.7066 34.2581 25.2425L33.4947 24.5966L32.7312 23.9507C32.7242 23.959 32.7473 23.9296 32.8065 23.9057C32.8681 23.8808 32.9185 23.8822 32.9343 23.8843L32.8035 24.8757ZM33.4947 24.5966L34.2581 25.2425L34.54 24.9093L33.7765 24.2634L33.0131 23.6176L32.7312 23.9507L33.4947 24.5966ZM33.7765 24.2634L34.54 24.9093L34.8218 24.5762L34.0584 23.9303L33.2949 23.2844L33.0131 23.6176L33.7765 24.2634ZM34.0584 23.9303L34.8218 24.5762C34.8911 24.4943 34.9253 24.4916 34.9263 24.4914L34.7096 23.5151L34.4928 22.5389C34.0013 22.6481 33.6014 22.9221 33.2949 23.2844L34.0584 23.9303ZM34.7096 23.5151L34.9263 24.4914L35.2957 24.4093L35.0789 23.4331L34.8621 22.4569L34.4928 22.5389L34.7096 23.5151ZM35.0789 23.4331L35.2957 24.4093L35.665 24.3273L35.4482 23.3511L35.2315 22.3749L34.8621 22.4569L35.0789 23.4331ZM35.4482 23.3511L35.665 24.3273C35.9333 24.2677 36.2017 24.1986 36.4703 24.12L36.1894 23.1603L35.9086 22.2005C35.6813 22.267 35.4557 22.3251 35.2315 22.3749L35.4482 23.3511ZM36.1894 23.1603L36.4703 24.12L36.8421 24.0112L36.5613 23.0514L36.2804 22.0917L35.9086 22.2005L36.1894 23.1603ZM36.5613 23.0514L36.8421 24.0112L37.214 23.9024L36.9331 22.9426L36.6523 21.9829L36.2804 22.0917L36.5613 23.0514ZM36.9331 22.9426L37.214 23.9024C37.6771 23.7669 38.062 23.4926 38.3448 23.1064L37.5379 22.5157L36.731 21.925C36.7032 21.9629 36.685 21.9733 36.6523 21.9829L36.9331 22.9426ZM37.5379 22.5157L38.3448 23.1064L38.5777 22.7882L37.7708 22.1975L36.9639 21.6068L36.731 21.925L37.5379 22.5157ZM37.7708 22.1975L38.5777 22.7882L38.8106 22.47L38.0037 21.8793L37.1968 21.2886L36.9639 21.6068L37.7708 22.1975ZM38.0037 21.8793L38.8106 22.47C38.9538 22.2744 39.0952 22.094 39.2344 21.9283L38.469 21.2848L37.7036 20.6413C37.533 20.8441 37.3641 21.0601 37.1968 21.2886L38.0037 21.8793ZM38.469 21.2848L39.2344 21.9283L39.4668 21.652L38.7014 21.0084L37.936 20.3649L37.7036 20.6413L38.469 21.2848ZM38.7014 21.0084L39.4668 21.652L39.6992 21.3756L38.9337 20.7321L38.1683 20.0885L37.936 20.3649L38.7014 21.0084ZM38.9337 20.7321L39.6992 21.3756C39.8224 21.229 39.9775 21.0672 40.1685 20.8902L39.4888 20.1567L38.8091 19.4232C38.5698 19.6449 38.3549 19.8666 38.1683 20.0885L38.9337 20.7321ZM39.4888 20.1567L40.1685 20.8902L40.4911 20.5912L39.8114 19.8577L39.1317 19.1242L38.8091 19.4232L39.4888 20.1567ZM39.8114 19.8577L40.4911 20.5912L40.8138 20.2922L40.1341 19.5587L39.4544 18.8252L39.1317 19.1242L39.8114 19.8577ZM40.1341 19.5587L40.8138 20.2922C41.0029 20.1169 41.3724 19.6911 41.2495 19.0817C41.1374 18.5261 40.6921 18.2561 40.4871 18.1506L40.0294 19.0397L39.5717 19.9288C39.586 19.9362 39.5459 19.9186 39.4892 19.8619C39.4288 19.8015 39.3288 19.6746 39.289 19.4772C39.2474 19.2709 39.2927 19.0935 39.3484 18.9785C39.3978 18.8765 39.452 18.8274 39.4544 18.8252L40.1341 19.5587ZM40.0294 19.0397L40.4871 18.1506L40.0597 17.9306L39.602 18.8197L39.1443 19.7088L39.5717 19.9288L40.0294 19.0397ZM39.602 18.8197L40.0597 17.9306L39.6323 17.7106L39.1746 18.5997L38.717 19.4888L39.1443 19.7088L39.602 18.8197ZM39.1746 18.5997L39.6323 17.7106C39.6135 17.7009 39.6044 17.6941 39.6018 17.692C39.5995 17.6902 39.6021 17.6919 39.6068 17.6977C39.6116 17.7037 39.6157 17.7104 39.6186 17.7164C39.6214 17.7223 39.6213 17.7237 39.62 17.7184L38.6461 17.9453L37.6722 18.1721C37.8118 18.7718 38.1941 19.2197 38.717 19.4888L39.1746 18.5997ZM38.6461 17.9453L39.62 17.7184L39.5188 17.284L38.5449 17.5108L37.571 17.7377L37.6722 18.1721L38.6461 17.9453ZM38.5449 17.5108L39.5188 17.284L39.4176 16.8496L38.4437 17.0764L37.4698 17.3033L37.571 17.7377L38.5449 17.5108ZM38.4437 17.0764L39.4176 16.8496C39.3086 16.3817 39.0732 15.945 38.6677 15.624L38.047 16.4081L37.4263 17.1922C37.4271 17.1928 37.4274 17.1931 37.4279 17.1936C37.4284 17.1942 37.4306 17.1968 37.434 17.2025C37.4407 17.2139 37.4559 17.2438 37.4698 17.3033L38.4437 17.0764ZM38.047 16.4081L38.6677 15.624L38.3722 15.3901L37.7515 16.1742L37.1308 16.9582L37.4263 17.1922L38.047 16.4081ZM37.7515 16.1742L38.3722 15.3901L38.0767 15.1562L37.456 15.9402L36.8353 16.7243L37.1308 16.9582L37.7515 16.1742ZM37.456 15.9402L38.0767 15.1562C37.7479 14.8959 37.3686 14.728 36.9652 14.6327L36.7355 15.606L36.5058 16.5792C36.669 16.6178 36.7701 16.6726 36.8353 16.7243L37.456 15.9402ZM36.7355 15.606L36.9652 14.6327L36.5402 14.5324L36.3105 15.5057L36.0808 16.4789L36.5058 16.5792L36.7355 15.606ZM36.3105 15.5057L36.5402 14.5324L36.1152 14.4321L35.8855 15.4054L35.6558 16.3786L36.0808 16.4789L36.3105 15.5057ZM35.8855 15.4054L36.1152 14.4321C35.982 14.4007 35.9264 14.3576 35.9007 14.332L35.1948 15.0403L34.489 15.7487C34.8175 16.0761 35.2224 16.2763 35.6558 16.3786L35.8855 15.4054ZM35.1948 15.0403L35.9007 14.332L35.635 14.0673L34.9292 14.7756L34.2233 15.484L34.489 15.7487L35.1948 15.0403ZM34.9292 14.7756L35.635 14.0673L35.3694 13.8025L34.6635 14.5109L33.9577 15.2192L34.2233 15.484L34.9292 14.7756ZM34.6635 14.5109L35.3694 13.8025C35.3315 13.7648 35.2933 13.7092 35.2666 13.6042L34.2974 13.8503L33.3281 14.0964C33.4355 14.5193 33.6414 14.904 33.9577 15.2192L34.6635 14.5109ZM34.2974 13.8503L35.2666 13.6042L35.1661 13.2084L34.1969 13.4545L33.2276 13.7006L33.3281 14.0964L34.2974 13.8503ZM34.1969 13.4545L35.1661 13.2084L35.0656 12.8126L34.0964 13.0587L33.1271 13.3048L33.2276 13.7006L34.1969 13.4545ZM34.0964 13.0587L35.0656 12.8126C35.0305 12.6742 34.9826 12.5037 34.9157 12.3582C34.8957 12.3148 34.8082 12.1175 34.6156 11.9551C34.5048 11.8617 34.2756 11.7103 33.9476 11.7127C33.6 11.7153 33.3545 11.8877 33.2225 12.024L33.9406 12.7199L34.6586 13.4159C34.5358 13.5426 34.3 13.7102 33.9626 13.7127C33.6448 13.7151 33.4262 13.5683 33.3265 13.4842C33.2257 13.3993 33.1687 13.3152 33.1464 13.2803C33.1199 13.239 33.1046 13.2069 33.0987 13.1939C33.0837 13.1613 33.0953 13.1793 33.1271 13.3048L34.0964 13.0587ZM33.9406 12.7199L33.2225 12.024L33.1672 12.081L33.8852 12.777L34.6033 13.4729L34.6586 13.4159L33.9406 12.7199ZM33.8852 12.777L32.9068 12.5703L32.868 12.754L33.8464 12.9607L34.8248 13.1674L34.8637 12.9837L33.8852 12.777ZM33.8464 12.9607L34.5424 12.2426L34.4706 12.173L33.7746 12.8911L33.0787 13.6092L33.1505 13.6788L33.8464 12.9607Z" fill="black"/>
<path d="M6.91174 6.93264L5.91545 7.01867L5.91888 7.05838L5.92546 7.09769L6.91174 6.93264ZM6.68292 9.45801L5.75823 9.0773L6.68292 9.45801ZM6.8134 10.583L5.87856 10.9381L6.8134 10.583ZM7.2756 12.458L6.2878 12.6137L7.2756 12.458ZM7.32023 13.1928L6.32104 13.1526L7.32023 13.1928ZM7.5192 14.5599L8.2838 13.9154L7.5192 14.5599ZM8.00407 15.1351L8.76867 14.4906L8.00407 15.1351ZM8.60811 15.5463L8.93145 14.6L8.60811 15.5463ZM9.3313 15.7934L9.65464 14.8471L9.3313 15.7934ZM11.229 17.0027L11.9338 16.2932L11.229 17.0027ZM11.8183 17.5881L11.1135 18.2975L11.8183 17.5881ZM12.5388 17.7493L12.8339 18.7047L12.5388 17.7493ZM13.3904 17.4862L13.0953 16.5308L13.3904 17.4862ZM14.163 17.5061L13.7628 18.4225L14.163 17.5061ZM14.8564 17.8088L14.4563 18.7253L14.8564 17.8088ZM15.583 17.9197L15.6891 18.9141L15.583 17.9197ZM16.3428 17.8387L16.2367 16.8443L16.3428 17.8387ZM17.7841 18.4389L17.2673 19.295L17.7841 18.4389ZM18.5157 18.622L18.5961 19.6188L18.5157 18.622ZM18.8934 18.5915L18.813 17.5948L18.8934 18.5915ZM19.2712 18.561L19.1907 17.5643L19.2712 18.561ZM20.0227 18.4834L20.1479 19.4755L20.0227 18.4834ZM20.7701 18.389L20.6448 17.3969L20.7701 18.389ZM21.5096 18.2337L21.226 17.2747L21.5096 18.2337ZM22.2411 18.0174L22.5246 18.9763L22.2411 18.0174ZM23.0041 18.1318L23.4929 17.2595L23.0041 18.1318ZM23.4013 18.3544L22.9124 19.2268L23.4013 18.3544ZM23.7985 18.5771L24.2874 17.7047L23.7985 18.5771ZM24.5278 18.4903L25.2095 19.2219L24.5278 18.4903ZM25.1918 17.8715L24.51 17.14L25.1918 17.8715ZM26.6972 17.742L26.5457 18.7305L26.6972 17.742ZM27.425 17.6264L26.9624 16.7398L27.425 17.6264ZM28.0983 17.2751L28.5608 18.1617L28.0983 17.2751ZM28.8609 17.1669L28.7048 18.1546L28.8609 17.1669ZM29.7131 17.3016L29.8692 16.3139L29.7131 17.3016ZM30.3544 16.961L31.2388 17.4276L30.3544 16.961ZM30.5696 16.553L29.6851 16.0864L30.5696 16.553ZM31.3351 15.5978L31.719 16.5212L31.3351 15.5978ZM32.0052 15.3192L31.6213 14.3959L32.0052 15.3192ZM32.5975 14.932L33.2915 15.652L32.5975 14.932ZM32.8547 14.6841L32.1608 13.9641L32.8547 14.6841ZM33.112 14.4361L33.8059 15.1561L33.112 14.4361ZM33.4392 13.8517L32.4602 13.648L33.4392 13.8517ZM33.5793 13.1787L34.5583 13.3824L33.5793 13.1787ZM33.8316 12.4671L34.731 12.9043L33.8316 12.4671ZM34.1961 11.7171L33.2967 11.28L34.1961 11.7171ZM34.2443 10.9671L35.186 10.6305L34.2443 10.9671ZM34.1103 10.5921L33.1686 10.9287L34.1103 10.5921ZM33.9762 10.2171L33.0346 10.5537L33.9762 10.2171ZM33.831 9.46714L32.8314 9.49702L33.831 9.46714ZM33.8085 8.71714L34.8081 8.68725L33.8085 8.71714ZM34.1824 6.83757L34.1987 5.83771L34.0295 5.83494L33.8688 5.88802L34.1824 6.83757ZM33.8945 6.93264L32.8982 6.8466L32.7677 8.35789L34.2081 7.88219L33.8945 6.93264ZM6.90314 6.83301L5.90685 6.91904L5.91545 7.01867L6.91174 6.93264L7.90803 6.8466L7.89943 6.74697L6.90314 6.83301ZM6.91174 6.93264L5.92546 7.09769L6.04263 7.79788L7.02892 7.63282L8.0152 7.46777L7.89802 6.76758L6.91174 6.93264ZM7.02892 7.63282L6.04263 7.79788C6.07393 7.98491 6.08209 8.12202 6.0788 8.21712C6.07545 8.31398 6.06108 8.3417 6.06701 8.3273L6.99171 8.70801L7.9164 9.08871C8.12582 8.58005 8.10393 7.99792 8.0152 7.46777L7.02892 7.63282ZM6.99171 8.70801L6.06701 8.3273L5.91262 8.7023L6.83732 9.08301L7.76201 9.46371L7.9164 9.08871L6.99171 8.70801ZM6.83732 9.08301L5.91262 8.7023L5.75823 9.0773L6.68292 9.45801L7.60762 9.83871L7.76201 9.46371L6.83732 9.08301ZM6.68292 9.45801L5.75823 9.0773C5.55971 9.55949 5.54982 10.0726 5.73613 10.5631L6.67097 10.208L7.60581 9.85294C7.60262 9.84454 7.60204 9.8409 7.60215 9.84151C7.60229 9.84226 7.60268 9.84504 7.60261 9.84895C7.60255 9.85284 7.60209 9.85502 7.60218 9.85461C7.6023 9.85404 7.60343 9.84889 7.60762 9.83871L6.68292 9.45801ZM6.67097 10.208L5.73613 10.5631L5.87856 10.9381L6.8134 10.583L7.74824 10.2279L7.60581 9.85294L6.67097 10.208ZM6.8134 10.583L5.87856 10.9381L6.02099 11.3131L6.95583 10.958L7.89067 10.6029L7.74824 10.2279L6.8134 10.583ZM6.95583 10.958L6.02099 11.3131C6.09284 11.5023 6.14149 11.6856 6.16957 11.8637L7.15738 11.708L8.14518 11.5523C8.09445 11.2305 8.00873 10.9138 7.89067 10.6029L6.95583 10.958ZM7.15738 11.708L6.16957 11.8637L6.22869 12.2387L7.21649 12.083L8.20429 11.9273L8.14518 11.5523L7.15738 11.708ZM7.21649 12.083L6.22869 12.2387L6.2878 12.6137L7.2756 12.458L8.2634 12.3023L8.20429 11.9273L7.21649 12.083ZM7.2756 12.458L6.2878 12.6137C6.31755 12.8024 6.32792 12.9817 6.32104 13.1526L7.32023 13.1928L8.31942 13.2331C8.33185 12.9242 8.31248 12.6136 8.2634 12.3023L7.2756 12.458ZM7.32023 13.1928L6.32104 13.1526L6.30655 13.5124L7.30574 13.5527L8.30493 13.5929L8.31942 13.2331L7.32023 13.1928ZM7.30574 13.5527L6.30655 13.5124L6.29206 13.8723L7.29125 13.9125L8.29045 13.9527L8.30493 13.5929L7.30574 13.5527ZM7.29125 13.9125L6.29206 13.8723C6.27188 14.3736 6.43991 14.8311 6.75461 15.2044L7.5192 14.5599L8.2838 13.9154C8.27817 13.9087 8.2769 13.9061 8.27794 13.9079C8.27906 13.9099 8.28163 13.9147 8.28424 13.9222C8.28688 13.9296 8.28867 13.9372 8.28964 13.9439C8.2906 13.9504 8.2904 13.9537 8.29045 13.9527L7.29125 13.9125ZM7.5192 14.5599L6.75461 15.2044L6.99704 15.492L7.76164 14.8475L8.52623 14.203L8.2838 13.9154L7.5192 14.5599ZM7.76164 14.8475L6.99704 15.492L7.23948 15.7796L8.00407 15.1351L8.76867 14.4906L8.52623 14.203L7.76164 14.8475ZM8.00407 15.1351L7.23948 15.7796C7.52002 16.1124 7.87483 16.3525 8.28477 16.4926L8.60811 15.5463L8.93145 14.6C8.85925 14.5753 8.81138 14.5413 8.76867 14.4906L8.00407 15.1351ZM8.60811 15.5463L8.28477 16.4926L8.64636 16.6161L8.9697 15.6698L9.29304 14.7236L8.93145 14.6L8.60811 15.5463ZM8.9697 15.6698L8.64636 16.6161L9.00796 16.7397L9.3313 15.7934L9.65464 14.8471L9.29304 14.7236L8.9697 15.6698ZM9.3313 15.7934L9.00796 16.7397C9.17634 16.7972 9.32781 16.8703 9.46497 16.9579L10.0033 16.1152L10.5416 15.2724C10.2649 15.0957 9.96839 14.9543 9.65464 14.8471L9.3313 15.7934ZM10.0033 16.1152L9.46497 16.9579L9.77534 17.1562L10.3136 16.3134L10.8519 15.4707L10.5416 15.2724L10.0033 16.1152ZM10.3136 16.3134L9.77534 17.1562L10.0857 17.3544L10.624 16.5117L11.1623 15.6689L10.8519 15.4707L10.3136 16.3134ZM10.624 16.5117L10.0857 17.3544C10.2255 17.4437 10.3721 17.5609 10.5242 17.7121L11.229 17.0027L11.9338 16.2932C11.6931 16.0541 11.4364 15.844 11.1623 15.6689L10.624 16.5117ZM11.229 17.0027L10.5242 17.7121L10.8189 18.0048L11.5237 17.2954L12.2285 16.586L11.9338 16.2932L11.229 17.0027ZM11.5237 17.2954L10.8189 18.0048L11.1135 18.2975L11.8183 17.5881L12.5231 16.8787L12.2285 16.586L11.5237 17.2954ZM11.8183 17.5881L11.1135 18.2975C11.3283 18.5109 11.601 18.6776 11.9274 18.7506C12.2495 18.8227 12.56 18.7894 12.8339 18.7047L12.5388 17.7493L12.2436 16.7938C12.2337 16.7969 12.2821 16.7806 12.3641 16.7989C12.4504 16.8182 12.5048 16.8605 12.5231 16.8787L11.8183 17.5881ZM12.5388 17.7493L12.8339 18.7047L13.2597 18.5732L12.9646 17.6178L12.6695 16.6623L12.2436 16.7938L12.5388 17.7493ZM12.9646 17.6178L13.2597 18.5732L13.6856 18.4417L13.3904 17.4862L13.0953 16.5308L12.6695 16.6623L12.9646 17.6178ZM13.3904 17.4862L13.6856 18.4417C13.7393 18.4251 13.7659 18.4249 13.7708 18.4251C13.7734 18.4251 13.7727 18.4253 13.7697 18.4247C13.7667 18.424 13.7642 18.4231 13.7628 18.4225L14.163 17.5061L14.5631 16.5896C14.0744 16.3762 13.5652 16.3856 13.0953 16.5308L13.3904 17.4862ZM14.163 17.5061L13.7628 18.4225L14.1095 18.5739L14.5097 17.6574L14.9098 16.741L14.5631 16.5896L14.163 17.5061ZM14.5097 17.6574L14.1095 18.5739L14.4563 18.7253L14.8564 17.8088L15.2566 16.8924L14.9098 16.741L14.5097 17.6574ZM14.8564 17.8088L14.4563 18.7253C14.8481 18.8964 15.2649 18.9593 15.6891 18.9141L15.583 17.9197L15.4769 16.9253C15.3946 16.9341 15.327 16.9231 15.2566 16.8924L14.8564 17.8088ZM15.583 17.9197L15.6891 18.9141L16.0689 18.8736L15.9629 17.8792L15.8568 16.8848L15.4769 16.9253L15.583 17.9197ZM15.9629 17.8792L16.0689 18.8736L16.4488 18.833L16.3428 17.8387L16.2367 16.8443L15.8568 16.8848L15.9629 17.8792ZM16.3428 17.8387L16.4488 18.833C16.4668 18.8311 16.4945 18.8285 16.5596 18.8679L17.0764 18.0117L17.5932 17.1556C17.1867 16.9102 16.7252 16.7922 16.2367 16.8443L16.3428 17.8387ZM17.0764 18.0117L16.5596 18.8679L16.9135 19.0814L17.4303 18.2253L17.9471 17.3692L17.5932 17.1556L17.0764 18.0117ZM17.4303 18.2253L16.9135 19.0814L17.2673 19.295L17.7841 18.4389L18.3009 17.5828L17.9471 17.3692L17.4303 18.2253ZM17.7841 18.4389L17.2673 19.295C17.6655 19.5354 18.1163 19.6575 18.5961 19.6188L18.5157 18.622L18.4352 17.6253C18.4113 17.6272 18.3744 17.6272 18.3009 17.5828L17.7841 18.4389ZM18.5157 18.622L18.5961 19.6188L18.9739 19.5883L18.8934 18.5915L18.813 17.5948L18.4352 17.6253L18.5157 18.622ZM18.8934 18.5915L18.9739 19.5883L19.3517 19.5578L19.2712 18.561L19.1907 17.5643L18.813 17.5948L18.8934 18.5915ZM19.2712 18.561L19.3517 19.5578C19.6184 19.5363 19.8838 19.5088 20.1479 19.4755L20.0227 18.4834L19.8974 17.4912C19.6633 17.5208 19.4277 17.5452 19.1907 17.5643L19.2712 18.561ZM20.0227 18.4834L20.1479 19.4755L20.5217 19.4283L20.3964 18.4362L20.2711 17.4441L19.8974 17.4912L20.0227 18.4834ZM20.3964 18.4362L20.5217 19.4283L20.8954 19.3811L20.7701 18.389L20.6448 17.3969L20.2711 17.4441L20.3964 18.4362ZM20.7701 18.389L20.8954 19.3811C21.1987 19.3428 21.4981 19.2798 21.7931 19.1926L21.5096 18.2337L21.226 17.2747C21.0333 17.3317 20.8397 17.3723 20.6448 17.3969L20.7701 18.389ZM21.5096 18.2337L21.7931 19.1926L22.1589 19.0845L21.8753 18.1255L21.5918 17.1666L21.226 17.2747L21.5096 18.2337ZM21.8753 18.1255L22.1589 19.0845L22.5246 18.9763L22.2411 18.0174L21.9575 17.0584L21.5918 17.1666L21.8753 18.1255ZM22.2411 18.0174L22.5246 18.9763C22.5167 18.9787 22.506 18.9808 22.4939 18.9817C22.4818 18.9825 22.4722 18.9817 22.4663 18.9808C22.4544 18.9791 22.4697 18.9787 22.5152 19.0042L23.0041 18.1318L23.4929 17.2595C23.042 17.0067 22.5094 16.8952 21.9575 17.0584L22.2411 18.0174ZM23.0041 18.1318L22.5152 19.0042L22.9124 19.2268L23.4013 18.3544L23.8902 17.4821L23.4929 17.2595L23.0041 18.1318ZM23.4013 18.3544L22.9124 19.2268L23.3097 19.4494L23.7985 18.5771L24.2874 17.7047L23.8902 17.4821L23.4013 18.3544ZM23.7985 18.5771L23.3097 19.4494C23.5817 19.6018 23.9201 19.7046 24.2976 19.6597C24.6755 19.6147 24.9807 19.4351 25.2095 19.2219L24.5278 18.4903L23.846 17.7587C23.8535 17.7518 23.9265 17.6897 24.0613 17.6737C24.1957 17.6577 24.2803 17.7007 24.2874 17.7047L23.7985 18.5771ZM24.5278 18.4903L25.2095 19.2219L25.5415 18.9125L24.8598 18.1809L24.178 17.4493L23.846 17.7587L24.5278 18.4903ZM24.8598 18.1809L25.5415 18.9125L25.8735 18.6031L25.1918 17.8715L24.51 17.14L24.178 17.4493L24.8598 18.1809ZM25.1918 17.8715L25.8735 18.6031C25.9007 18.5778 25.8986 18.5881 25.8646 18.5999C25.8481 18.6055 25.8289 18.6098 25.8087 18.6116C25.7887 18.6133 25.7729 18.6121 25.7634 18.6106L25.9149 17.6221L26.0664 16.6337C25.4564 16.5402 24.9181 16.7597 24.51 17.14L25.1918 17.8715ZM25.9149 17.6221L25.7634 18.6106L26.1546 18.6705L26.3061 17.6821L26.4576 16.6936L26.0664 16.6337L25.9149 17.6221ZM26.3061 17.6821L26.1546 18.6705L26.5457 18.7305L26.6972 17.742L26.8487 16.7536L26.4576 16.6936L26.3061 17.6821ZM26.6972 17.742L26.5457 18.7305C27.0073 18.8013 27.4662 18.7328 27.8876 18.513L27.425 17.6264L26.9624 16.7398C26.935 16.7541 26.9087 16.7628 26.8487 16.7536L26.6972 17.742ZM27.425 17.6264L27.8876 18.513L28.2242 18.3373L27.7616 17.4507L27.2991 16.5642L26.9624 16.7398L27.425 17.6264ZM27.7616 17.4507L28.2242 18.3373L28.5608 18.1617L28.0983 17.2751L27.6357 16.3885L27.2991 16.5642L27.7616 17.4507ZM28.0983 17.2751L28.5608 18.1617C28.5698 18.157 28.6024 18.1384 28.7048 18.1546L28.8609 17.1669L29.0171 16.1791C28.5514 16.1055 28.0755 16.1591 27.6357 16.3885L28.0983 17.2751ZM28.8609 17.1669L28.7048 18.1546L29.1308 18.222L29.287 17.2342L29.4432 16.2465L29.0171 16.1791L28.8609 17.1669ZM29.287 17.2342L29.1308 18.222L29.5569 18.2893L29.7131 17.3016L29.8692 16.3139L29.4432 16.2465L29.287 17.2342ZM29.7131 17.3016L29.5569 18.2893C29.8715 18.3391 30.2229 18.3099 30.5555 18.1333C30.8819 17.9599 31.0988 17.6931 31.2388 17.4276L30.3544 16.961L29.4699 16.4944C29.4665 16.5009 29.5047 16.4268 29.6174 16.367C29.7362 16.3039 29.8386 16.309 29.8692 16.3139L29.7131 17.3016ZM30.3544 16.961L31.2388 17.4276L31.4541 17.0197L30.5696 16.553L29.6851 16.0864L29.4699 16.4944L30.3544 16.961ZM30.5696 16.553L31.4541 17.0197L31.6693 16.6117L30.7848 16.1451L29.9004 15.6784L29.6851 16.0864L30.5696 16.553ZM30.7848 16.1451L31.6693 16.6117C31.7025 16.5488 31.7272 16.5213 31.7352 16.5133C31.7412 16.5073 31.7355 16.5144 31.719 16.5212L31.3351 15.5978L30.9512 14.6744C30.4601 14.8786 30.1224 15.2577 29.9004 15.6784L30.7848 16.1451ZM31.3351 15.5978L31.719 16.5212L32.0541 16.3819L31.6702 15.4585L31.2863 14.5351L30.9512 14.6744L31.3351 15.5978ZM31.6702 15.4585L32.0541 16.3819L32.3891 16.2426L32.0052 15.3192L31.6213 14.3959L31.2863 14.5351L31.6702 15.4585ZM32.0052 15.3192L32.3891 16.2426C32.7258 16.1027 33.0288 15.9052 33.2915 15.652L32.5975 14.932L31.9035 14.212C31.8232 14.2894 31.7314 14.3501 31.6213 14.3959L32.0052 15.3192ZM32.5975 14.932L33.2915 15.652L33.5487 15.4041L32.8547 14.6841L32.1608 13.9641L31.9035 14.212L32.5975 14.932ZM32.8547 14.6841L33.5487 15.4041L33.8059 15.1561L33.112 14.4361L32.418 13.7161L32.1608 13.9641L32.8547 14.6841ZM33.112 14.4361L33.8059 15.1561C34.1161 14.8572 34.3289 14.4847 34.4183 14.0554L33.4392 13.8517L32.4602 13.648C32.4562 13.6674 32.4508 13.6845 32.418 13.7161L33.112 14.4361ZM33.4392 13.8517L34.4183 14.0554L34.4883 13.7189L33.5093 13.5152L32.5302 13.3114L32.4602 13.648L33.4392 13.8517ZM33.5093 13.5152L34.4883 13.7189L34.5583 13.3824L33.5793 13.1787L32.6003 12.9749L32.5302 13.3114L33.5093 13.5152ZM33.5793 13.1787L34.5583 13.3824C34.5851 13.2538 34.6382 13.0952 34.731 12.9043L33.8316 12.4671L32.9322 12.03C32.782 12.3391 32.6669 12.6548 32.6003 12.9749L33.5793 13.1787ZM33.8316 12.4671L34.731 12.9043L34.9132 12.5293L34.0138 12.0921L33.1145 11.655L32.9322 12.03L33.8316 12.4671ZM34.0138 12.0921L34.9132 12.5293L35.0955 12.1543L34.1961 11.7171L33.2967 11.28L33.1145 11.655L34.0138 12.0921ZM34.1961 11.7171L35.0955 12.1543C35.3284 11.6752 35.3705 11.1466 35.186 10.6305L34.2443 10.9671L33.3027 11.3037C33.3039 11.3073 33.303 11.3057 33.3022 11.2997C33.3013 11.2935 33.3009 11.2859 33.3014 11.278C33.3019 11.2701 33.3031 11.2653 33.3033 11.2643C33.3035 11.2636 33.3022 11.2687 33.2967 11.28L34.1961 11.7171ZM34.2443 10.9671L35.186 10.6305L35.0519 10.2555L34.1103 10.5921L33.1686 10.9287L33.3027 11.3037L34.2443 10.9671ZM34.1103 10.5921L35.0519 10.2555L34.9179 9.88052L33.9762 10.2171L33.0346 10.5537L33.1686 10.9287L34.1103 10.5921ZM33.9762 10.2171L34.9179 9.88052C34.8616 9.72302 34.8347 9.57634 34.8305 9.43725L33.831 9.46714L32.8314 9.49702C32.8422 9.85793 32.9121 10.2112 33.0346 10.5537L33.9762 10.2171ZM33.831 9.46714L34.8305 9.43725L34.8193 9.06225L33.8197 9.09214L32.8202 9.12202L32.8314 9.49702L33.831 9.46714ZM33.8197 9.09214L34.8193 9.06225L34.8081 8.68725L33.8085 8.71714L32.809 8.74702L32.8202 9.12202L33.8197 9.09214ZM33.8085 8.71714L34.8081 8.68725C34.8055 8.60025 34.8219 8.49826 34.8777 8.37208L33.9634 7.96714L33.0491 7.56219C32.8835 7.93602 32.7966 8.33402 32.809 8.74702L33.8085 8.71714ZM33.9634 7.96714L34.8777 8.37208L35.0438 7.99708L34.1295 7.59214L33.2151 7.18719L33.0491 7.56219L33.9634 7.96714ZM34.1295 7.59214L35.0438 7.99708L35.2099 7.62208L34.2956 7.21714L33.3812 6.81219L33.2151 7.18719L34.1295 7.59214ZM34.2956 7.21714L35.2099 7.62208C35.2703 7.48561 35.3653 7.25483 35.3828 7.00526C35.3912 6.88531 35.3954 6.5975 35.2065 6.31226C34.9728 5.95923 34.6089 5.84441 34.3384 5.83999L34.322 6.83985L34.3057 7.83972C34.0816 7.83606 33.7515 7.73752 33.5389 7.41631C33.3711 7.1629 33.3837 6.92244 33.3877 6.86537C33.3963 6.74156 33.4315 6.69866 33.3812 6.81219L34.2956 7.21714ZM34.322 6.83985L34.3384 5.83999L34.1987 5.83771L34.1824 6.83757L34.166 7.83744L34.3057 7.83972L34.322 6.83985ZM34.1824 6.83757L33.8688 5.88802L33.5809 5.98308L33.8945 6.93264L34.2081 7.88219L34.496 7.78713L34.1824 6.83757ZM33.8945 6.93264L34.8908 7.01867L34.8994 6.91904L33.9031 6.83301L32.9068 6.74697L32.8982 6.8466L33.8945 6.93264Z" fill="black"/>
<ellipse cx="20.4287" cy="6.833" rx="13.9124" ry="5.69189" fill="#FFFDF8"/>
<path d="M34.1703 7.9915L33.181 7.84558L34.1703 7.9915ZM33.7515 8.54972L33.3221 7.64664L33.7515 8.54972ZM33.3897 8.72178L33.8192 9.62485L33.3897 8.72178ZM32.439 9.38988L31.6202 8.81578L32.439 9.38988ZM32.2118 9.71387L33.0306 10.288L32.2118 9.71387ZM31.9846 10.0379L31.1659 9.46376L31.9846 10.0379ZM31.4367 10.5811L32.001 11.4067L31.4367 10.5811ZM31.1159 10.8004L30.5516 9.97479L31.1159 10.8004ZM30.7951 11.0196L30.2308 10.194L30.7951 11.0196ZM30.0788 11.2604L30.1332 12.2589L30.0788 11.2604ZM29.2879 11.3035L29.2336 10.305L29.2879 11.3035ZM28.5303 11.4196L28.2776 10.452L28.5303 11.4196ZM28.168 11.5142L28.4207 12.4818L28.168 11.5142ZM27.8058 11.6088L27.5532 10.6412L27.8058 11.6088ZM27.0955 11.8833L26.6362 10.9951L27.0955 11.8833ZM26.7475 12.0633L27.2068 12.9516L26.7475 12.0633ZM25.6705 12.4391L25.7119 13.4383L25.6705 12.4391ZM24.9087 12.4707L24.8673 11.4716L24.9087 12.4707ZM24.1391 12.3512L23.8104 13.2957L24.1391 12.3512ZM23.3616 12.0807L23.6903 11.1362L23.3616 12.0807ZM22.6115 12.2062L23.1967 13.0171L22.6115 12.2062ZM21.8887 12.7277L22.4739 13.5387L21.8887 12.7277ZM21.1475 12.9145L21.3387 11.933L21.1475 12.9145ZM20.3878 12.7665L20.1967 13.7481L20.3878 12.7665ZM19.626 12.7755L19.8381 13.7527L19.626 12.7755ZM19.244 12.8584L19.0318 11.8812L19.244 12.8584ZM18.8619 12.9413L18.6498 11.9641L18.8619 12.9413ZM18.1182 12.816L17.6192 13.6826L18.1182 12.816ZM17.3948 12.3995L17.8938 11.5329L17.3948 12.3995ZM16.6557 12.1913L16.6561 13.1913L16.6557 12.1913ZM15.901 12.1916L15.9007 11.1916L15.901 12.1916ZM15.1444 12.1708L15.1997 11.1723L15.1444 12.1708ZM14.3858 12.1287L14.3305 13.1272L14.3858 12.1287ZM13.6146 12.1058L13.6196 11.1058L13.6146 12.1058ZM12.8308 12.1019L12.8259 13.1019L12.8308 12.1019ZM12.1599 11.7385L11.3683 12.3496L12.1599 11.7385ZM11.6018 11.0156L12.3934 10.4045L11.6018 11.0156ZM10.8754 10.7448L11.074 11.7249L10.8754 10.7448ZM9.98065 10.9261L9.78207 9.94597L9.98065 10.9261ZM9.26796 10.7057L8.50715 11.3546L9.26796 10.7057ZM8.7373 10.0835L7.97649 10.7325L8.7373 10.0835ZM7.78419 9.38849L7.2967 10.2616L7.78419 9.38849ZM7.4403 9.19649L7.92779 8.32336L7.4403 9.19649ZM6.59654 6.58641L5.75493 7.1265L6.59654 6.58641ZM8.22038 3.9077L7.65344 3.08394L8.22038 3.9077ZM9.50767 3.07033L8.96981 2.2273L9.50767 3.07033ZM11.7998 2.73825L11.1966 1.94067L11.7998 2.73825ZM12.1144 2.5003L11.5112 1.70273L12.1144 2.5003ZM12.4291 2.26236L13.0323 3.05994L12.4291 2.26236ZM13.1072 1.92693L12.8482 0.961057L13.1072 1.92693ZM13.4707 1.82946L13.2117 0.86358L13.4707 1.82946ZM13.8342 1.73198L14.0932 2.69785L13.8342 1.73198ZM16.1226 1.76713L16.7319 2.56006L16.1226 1.76713ZM16.81 1.23891L16.2007 0.445986L16.81 1.23891ZM17.9164 1.0623L17.8024 2.05579L17.9164 1.0623ZM18.2977 1.10605L18.4117 0.112569L18.2977 1.10605ZM19.8067 1.3682L19.9969 0.386443L19.8067 1.3682ZM20.559 1.32797L20.2715 0.370204L20.559 1.32797ZM22.8194 1.02588L22.7867 2.02535L22.8194 1.02588ZM23.5462 1.27529L22.9851 2.10306L23.5462 1.27529ZM24.2457 1.74943L24.8068 0.921656L24.2457 1.74943ZM25.4181 1.57887L24.9741 0.682845L25.4181 1.57887ZM25.8294 1.37506L26.2734 2.27109L25.8294 1.37506ZM26.5559 1.48604L27.2625 0.778447L26.5559 1.48604ZM27.1863 2.11561L26.4797 2.8232L27.1863 2.11561ZM27.866 2.49479L27.6919 3.47954L27.866 2.49479ZM28.5948 2.62358L28.7688 1.63883L28.5948 2.62358ZM30.2555 2.45489L30.0786 1.47067L30.2555 2.45489ZM31.0362 2.55609L30.5795 3.44573L31.0362 2.55609ZM32.2676 3.48484L33.1712 3.05632L32.2676 3.48484ZM32.4536 3.87691L31.5501 4.30543L32.4536 3.87691ZM33.1205 4.8855L33.726 4.08964L33.1205 4.8855ZM33.7106 5.33441L33.1051 6.13027L33.7106 5.33441ZM34.1005 5.87739L33.142 6.16279L34.1005 5.87739ZM34.2902 6.51446L35.2486 6.22907L34.2902 6.51446ZM34.2272 7.60533L33.2379 7.45941L33.181 7.84558L34.1703 7.9915L35.1596 8.13742L35.2165 7.75125L34.2272 7.60533ZM34.1703 7.9915L33.181 7.84558C33.1834 7.82941 33.1956 7.77949 33.2372 7.72406C33.278 7.66957 33.3183 7.64845 33.3221 7.64664L33.7515 8.54972L34.181 9.4528C34.7139 9.19938 35.0714 8.73511 35.1596 8.13742L34.1703 7.9915ZM33.7515 8.54972L33.3221 7.64664L32.9603 7.8187L33.3897 8.72178L33.8192 9.62485L34.181 9.4528L33.7515 8.54972ZM33.3897 8.72178L32.9603 7.8187L32.5985 7.99076L33.028 8.89383L33.4574 9.79691L33.8192 9.62485L33.3897 8.72178ZM33.028 8.89383L32.5985 7.99076C32.2033 8.17868 31.8721 8.45651 31.6202 8.81578L32.439 9.38988L33.2578 9.96399C33.3088 9.89127 33.3702 9.83839 33.4574 9.79691L33.028 8.89383ZM32.439 9.38988L31.6202 8.81578L31.393 9.13977L32.2118 9.71387L33.0306 10.288L33.2578 9.96399L32.439 9.38988ZM32.2118 9.71387L31.393 9.13977L31.1659 9.46376L31.9846 10.0379L32.8034 10.612L33.0306 10.288L32.2118 9.71387ZM31.9846 10.0379L31.1659 9.46376C31.0822 9.58315 30.9852 9.67846 30.8724 9.75553L31.4367 10.5811L32.001 11.4067C32.3159 11.1914 32.5842 10.9246 32.8034 10.612L31.9846 10.0379ZM31.4367 10.5811L30.8724 9.75553L30.5516 9.97479L31.1159 10.8004L31.6802 11.626L32.001 11.4067L31.4367 10.5811ZM31.1159 10.8004L30.5516 9.97479L30.2308 10.194L30.7951 11.0196L31.3594 11.8452L31.6802 11.626L31.1159 10.8004ZM30.7951 11.0196L30.2308 10.194C30.1709 10.235 30.1092 10.2573 30.0245 10.2619L30.0788 11.2604L30.1332 12.2589C30.5757 12.2348 30.9915 12.0966 31.3594 11.8452L30.7951 11.0196ZM30.0788 11.2604L30.0245 10.2619L29.629 10.2834L29.6834 11.282L29.7378 12.2805L30.1332 12.2589L30.0788 11.2604ZM29.6834 11.282L29.629 10.2834L29.2336 10.305L29.2879 11.3035L29.3423 12.302L29.7378 12.2805L29.6834 11.282ZM29.2879 11.3035L29.2336 10.305C28.9068 10.3228 28.5876 10.3711 28.2776 10.452L28.5303 11.4196L28.7829 12.3872C28.9559 12.342 29.1418 12.3129 29.3423 12.302L29.2879 11.3035ZM28.5303 11.4196L28.2776 10.452L27.9154 10.5466L28.168 11.5142L28.4207 12.4818L28.7829 12.3872L28.5303 11.4196ZM28.168 11.5142L27.9154 10.5466L27.5532 10.6412L27.8058 11.6088L28.0584 12.5763L28.4207 12.4818L28.168 11.5142ZM27.8058 11.6088L27.5532 10.6412C27.2368 10.7238 26.9309 10.8427 26.6362 10.9951L27.0955 11.8833L27.5549 12.7716C27.7242 12.684 27.8918 12.6198 28.0584 12.5763L27.8058 11.6088ZM27.0955 11.8833L26.6362 10.9951L26.2881 11.1751L26.7475 12.0633L27.2068 12.9516L27.5549 12.7716L27.0955 11.8833ZM26.7475 12.0633L26.2881 11.1751L25.9401 11.3551L26.3994 12.2433L26.8588 13.1316L27.2068 12.9516L26.7475 12.0633ZM26.3994 12.2433L25.9401 11.3551C25.8339 11.41 25.7331 11.4357 25.6291 11.44L25.6705 12.4391L25.7119 13.4383C26.1157 13.4215 26.5009 13.3167 26.8588 13.1316L26.3994 12.2433ZM25.6705 12.4391L25.6291 11.44L25.2482 11.4558L25.2896 12.4549L25.331 13.4541L25.7119 13.4383L25.6705 12.4391ZM25.2896 12.4549L25.2482 11.4558L24.8673 11.4716L24.9087 12.4707L24.9501 13.4698L25.331 13.4541L25.2896 12.4549ZM24.9087 12.4707L24.8673 11.4716C24.7487 11.4765 24.6176 11.4589 24.4677 11.4068L24.1391 12.3512L23.8104 13.2957C24.1789 13.4239 24.5608 13.486 24.9501 13.4698L24.9087 12.4707ZM24.1391 12.3512L24.4677 11.4068L24.079 11.2715L23.7504 12.216L23.4217 13.1604L23.8104 13.2957L24.1391 12.3512ZM23.7504 12.216L24.079 11.2715L23.6903 11.1362L23.3616 12.0807L23.033 13.0251L23.4217 13.1604L23.7504 12.216ZM23.3616 12.0807L23.6903 11.1362C23.0942 10.9288 22.5062 11.0491 22.0264 11.3953L22.6115 12.2062L23.1967 13.0171C23.2138 13.0048 23.1954 13.0222 23.1448 13.0307C23.1208 13.0347 23.0966 13.0354 23.0745 13.0333C23.0527 13.0313 23.0384 13.027 23.033 13.0251L23.3616 12.0807ZM22.6115 12.2062L22.0264 11.3953L21.665 11.656L22.2501 12.467L22.8353 13.2779L23.1967 13.0171L22.6115 12.2062ZM22.2501 12.467L21.665 11.656L21.3036 11.9168L21.8887 12.7277L22.4739 13.5387L22.8353 13.2779L22.2501 12.467ZM21.8887 12.7277L21.3036 11.9168C21.2689 11.9418 21.2607 11.9396 21.2783 11.9351C21.2868 11.933 21.2979 11.9312 21.3104 11.9309C21.3229 11.9306 21.3327 11.9318 21.3387 11.933L21.1475 12.9145L20.9563 13.8961C21.5227 14.0064 22.0461 13.8473 22.4739 13.5387L21.8887 12.7277ZM21.1475 12.9145L21.3387 11.933L20.9589 11.859L20.7677 12.8405L20.5765 13.8221L20.9563 13.8961L21.1475 12.9145ZM20.7677 12.8405L20.9589 11.859L20.579 11.785L20.3878 12.7665L20.1967 13.7481L20.5765 13.8221L20.7677 12.8405ZM20.3878 12.7665L20.579 11.785C20.1911 11.7094 19.7999 11.7145 19.4139 11.7982L19.626 12.7755L19.8381 13.7527C19.9615 13.726 20.0782 13.725 20.1967 13.7481L20.3878 12.7665ZM19.626 12.7755L19.4139 11.7982L19.0318 11.8812L19.244 12.8584L19.4561 13.8357L19.8381 13.7527L19.626 12.7755ZM19.244 12.8584L19.0318 11.8812L18.6498 11.9641L18.8619 12.9413L19.0741 13.9186L19.4561 13.8357L19.244 12.8584ZM18.8619 12.9413L18.6498 11.9641C18.6448 11.9652 18.6436 11.965 18.6453 11.965C18.6471 11.9649 18.6494 11.9651 18.6512 11.9654C18.6529 11.9657 18.6516 11.9657 18.6468 11.9639C18.6418 11.962 18.632 11.9579 18.6172 11.9494L18.1182 12.816L17.6192 13.6826C18.0596 13.9362 18.5595 14.0303 19.0741 13.9186L18.8619 12.9413ZM18.1182 12.816L18.6172 11.9494L18.2555 11.7411L17.7565 12.6077L17.2575 13.4744L17.6192 13.6826L18.1182 12.816ZM17.7565 12.6077L18.2555 11.7411L17.8938 11.5329L17.3948 12.3995L16.8958 13.2661L17.2575 13.4744L17.7565 12.6077ZM17.3948 12.3995L17.8938 11.5329C17.5173 11.3161 17.1003 11.1912 16.6554 11.1913L16.6557 12.1913L16.6561 13.1913C16.7143 13.1913 16.79 13.2052 16.8958 13.2661L17.3948 12.3995ZM16.6557 12.1913L16.6554 11.1913L16.278 11.1915L16.2784 12.1915L16.2787 13.1915L16.6561 13.1913L16.6557 12.1913ZM16.2784 12.1915L16.278 11.1915L15.9007 11.1916L15.901 12.1916L15.9014 13.1916L16.2787 13.1915L16.2784 12.1915ZM15.901 12.1916L15.9007 11.1916C15.6678 11.1917 15.4341 11.1853 15.1997 11.1723L15.1444 12.1708L15.0891 13.1692C15.3603 13.1842 15.6311 13.1917 15.9014 13.1916L15.901 12.1916ZM15.1444 12.1708L15.1997 11.1723L14.8204 11.1513L14.7651 12.1497L14.7098 13.1482L15.0891 13.1692L15.1444 12.1708ZM14.7651 12.1497L14.8204 11.1513L14.4411 11.1303L14.3858 12.1287L14.3305 13.1272L14.7098 13.1482L14.7651 12.1497ZM14.3858 12.1287L14.4411 11.1303C14.171 11.1153 13.8971 11.1072 13.6196 11.1058L13.6146 12.1058L13.6097 13.1058C13.8547 13.107 14.095 13.1142 14.3305 13.1272L14.3858 12.1287ZM13.6146 12.1058L13.6196 11.1058L13.2277 11.1038L13.2227 12.1038L13.2178 13.1038L13.6097 13.1058L13.6146 12.1058ZM13.2227 12.1038L13.2277 11.1038L12.8358 11.1019L12.8308 12.1019L12.8259 13.1019L13.2178 13.1038L13.2227 12.1038ZM12.8308 12.1019L12.8358 11.1019C12.8477 11.102 12.8655 11.1035 12.8867 11.1089C12.9081 11.1143 12.9275 11.1221 12.9434 11.1308C12.9759 11.1484 12.9757 11.1588 12.9514 11.1274L12.1599 11.7385L11.3683 12.3496C11.7076 12.7891 12.2034 13.0988 12.8259 13.1019L12.8308 12.1019ZM12.1599 11.7385L12.9514 11.1274L12.6724 10.7659L11.8808 11.377L11.0893 11.9881L11.3683 12.3496L12.1599 11.7385ZM11.8808 11.377L12.6724 10.7659L12.3934 10.4045L11.6018 11.0156L10.8102 11.6267L11.0893 11.9881L11.8808 11.377ZM11.6018 11.0156L12.3934 10.4045C12.2068 10.1629 11.9551 9.95135 11.63 9.83014C11.3049 9.70893 10.976 9.70405 10.6768 9.76468L10.8754 10.7448L11.074 11.7249C11.0753 11.7246 11.0607 11.7277 11.0334 11.7262C11.0051 11.7246 10.9696 11.7184 10.9313 11.7042C10.8931 11.6899 10.8622 11.6713 10.8399 11.654C10.8183 11.6374 10.8094 11.6255 10.8102 11.6267L11.6018 11.0156ZM10.8754 10.7448L10.6768 9.76468L10.2294 9.85533L10.428 10.8354L10.6266 11.8155L11.074 11.7249L10.8754 10.7448ZM10.428 10.8354L10.2294 9.85533L9.78207 9.94597L9.98065 10.9261L10.1792 11.9061L10.6266 11.8155L10.428 10.8354ZM9.98065 10.9261L9.78207 9.94597C9.76073 9.9503 9.80097 9.93826 9.87425 9.96092C9.95371 9.9855 10.0065 10.0306 10.0288 10.0567L9.26796 10.7057L8.50715 11.3546C8.95154 11.8756 9.57526 12.0285 10.1792 11.9061L9.98065 10.9261ZM9.26796 10.7057L10.0288 10.0567L9.76344 9.74562L9.00263 10.3946L8.24182 11.0436L8.50715 11.3546L9.26796 10.7057ZM9.00263 10.3946L9.76344 9.74562L9.49811 9.43457L8.7373 10.0835L7.97649 10.7325L8.24182 11.0436L9.00263 10.3946ZM8.7373 10.0835L9.49811 9.43457C9.24712 9.14034 8.95245 8.89546 8.61557 8.70737L8.12808 9.5805L7.64059 10.4536C7.76223 10.5215 7.87371 10.612 7.97649 10.7325L8.7373 10.0835ZM8.12808 9.5805L8.61557 8.70737L8.27168 8.51536L7.78419 9.38849L7.2967 10.2616L7.64059 10.4536L8.12808 9.5805ZM7.78419 9.38849L8.27168 8.51536L7.92779 8.32336L7.4403 9.19649L6.95281 10.0696L7.2967 10.2616L7.78419 9.38849ZM7.4403 9.19649L7.92779 8.32336C7.95064 8.33612 8.00602 8.37598 8.05005 8.45298C8.09273 8.52763 8.0946 8.58447 8.09461 8.58757L7.09462 8.59191L6.09463 8.59625C6.0973 9.21098 6.39041 9.75562 6.95281 10.0696L7.4403 9.19649ZM7.09462 8.59191L8.09461 8.58757L8.09282 8.17499L7.09283 8.17933L6.09284 8.18367L6.09463 8.59625L7.09462 8.59191ZM7.09283 8.17933L8.09282 8.17499L8.09103 7.76241L7.09104 7.76675L6.09105 7.7711L6.09284 8.18367L7.09283 8.17933ZM7.09104 7.76675L8.09103 7.76241C8.08892 7.27762 7.94014 6.82856 7.6845 6.4302L6.84289 6.97029L6.00129 7.51039C6.07411 7.62387 6.09076 7.70579 6.09105 7.7711L7.09104 7.76675ZM6.84289 6.97029L7.6845 6.4302L7.43814 6.04632L6.59654 6.58641L5.75493 7.1265L6.00129 7.51039L6.84289 6.97029ZM6.59654 6.58641L7.43814 6.04632L7.19179 5.66243L6.35018 6.20253L5.50858 6.74262L5.75493 7.1265L6.59654 6.58641ZM6.35018 6.20253L7.19179 5.66243C7.18923 5.65845 7.24521 5.74501 7.23582 5.8978C7.22589 6.05945 7.15158 6.15863 7.12706 6.18514L6.39298 5.50607L5.65891 4.827C5.44161 5.0619 5.26379 5.38134 5.23959 5.77514C5.21593 6.16009 5.3469 6.49068 5.50858 6.74262L6.35018 6.20253ZM6.39298 5.50607L7.12706 6.18514L7.41621 5.87257L6.68213 5.1935L5.94806 4.51443L5.65891 4.827L6.39298 5.50607ZM6.68213 5.1935L7.41621 5.87257L7.70536 5.56L6.97128 4.88093L6.23721 4.20186L5.94806 4.51443L6.68213 5.1935ZM6.97128 4.88093L7.70536 5.56C7.85268 5.40073 8.00043 5.27302 8.14735 5.1719L7.58041 4.34814L7.01348 3.52437C6.73376 3.71688 6.47541 3.94436 6.23721 4.20186L6.97128 4.88093ZM7.58041 4.34814L8.14735 5.1719L8.46733 4.95168L7.9004 4.12792L7.33346 3.30416L7.01348 3.52437L7.58041 4.34814ZM7.9004 4.12792L8.46733 4.95168L8.78731 4.73147L8.22038 3.9077L7.65344 3.08394L7.33346 3.30416L7.9004 4.12792ZM8.22038 3.9077L8.78731 4.73147C8.9912 4.59114 9.19565 4.4556 9.40066 4.3248L8.8628 3.48177L8.32494 2.63873C8.10002 2.78223 7.87619 2.93064 7.65344 3.08394L8.22038 3.9077ZM8.8628 3.48177L9.40066 4.3248L9.72309 4.11908L9.18523 3.27605L8.64737 2.43302L8.32494 2.63873L8.8628 3.48177ZM9.18523 3.27605L9.72309 4.11908L10.0455 3.91337L9.50767 3.07033L8.96981 2.2273L8.64737 2.43302L9.18523 3.27605ZM9.50767 3.07033L10.0455 3.91337C10.0651 3.90091 10.0948 3.88473 10.1766 3.89025L10.2439 2.89251L10.3111 1.89478C9.84124 1.8631 9.3802 1.96547 8.96981 2.2273L9.50767 3.07033ZM10.2439 2.89251L10.1766 3.89025L10.5904 3.91814L10.6577 2.92041L10.7249 1.92267L10.3111 1.89478L10.2439 2.89251ZM10.6577 2.92041L10.5904 3.91814L11.0042 3.94604L11.0714 2.9483L11.1387 1.95057L10.7249 1.92267L10.6577 2.92041ZM11.0714 2.9483L11.0042 3.94604C11.5069 3.97993 11.9907 3.84767 12.403 3.53583L11.7998 2.73825L11.1966 1.94067C11.1902 1.94552 11.1865 1.9475 11.1854 1.94807C11.1843 1.9486 11.1839 1.94874 11.1833 1.94889C11.1827 1.94906 11.1798 1.94989 11.1735 1.95051C11.167 1.95116 11.1557 1.95172 11.1387 1.95057L11.0714 2.9483ZM11.7998 2.73825L12.403 3.53583L12.7177 3.29788L12.1144 2.5003L11.5112 1.70273L11.1966 1.94067L11.7998 2.73825ZM12.1144 2.5003L12.7177 3.29788L13.0323 3.05994L12.4291 2.26236L11.8258 1.46478L11.5112 1.70273L12.1144 2.5003ZM12.4291 2.26236L13.0323 3.05994C13.1442 2.97526 13.2543 2.92281 13.3662 2.89281L13.1072 1.92693L12.8482 0.961057C12.4754 1.06103 12.1334 1.23219 11.8258 1.46478L12.4291 2.26236ZM13.1072 1.92693L13.3662 2.89281L13.7297 2.79533L13.4707 1.82946L13.2117 0.86358L12.8482 0.961057L13.1072 1.92693ZM13.4707 1.82946L13.7297 2.79533L14.0932 2.69785L13.8342 1.73198L13.5752 0.766103L13.2117 0.86358L13.4707 1.82946ZM13.8342 1.73198L14.0932 2.69785C14.1577 2.68056 14.2371 2.67539 14.3496 2.70362L14.593 1.73369L14.8364 0.763753C14.4218 0.659741 13.9954 0.653426 13.5752 0.766103L13.8342 1.73198ZM14.593 1.73369L14.3496 2.70362L14.7449 2.80281L14.9883 1.83287L15.2317 0.862939L14.8364 0.763753L14.593 1.73369ZM14.9883 1.83287L14.7449 2.80281L15.1402 2.90199L15.3836 1.93206L15.627 0.962124L15.2317 0.862939L14.9883 1.83287ZM15.3836 1.93206L15.1402 2.90199C15.7212 3.04776 16.2783 2.90865 16.7319 2.56006L16.1226 1.76713L15.5133 0.974205C15.4976 0.986275 15.5098 0.972993 15.5482 0.964429C15.566 0.96044 15.5839 0.958833 15.5999 0.959183C15.6156 0.959526 15.6251 0.961649 15.627 0.962124L15.3836 1.93206ZM16.1226 1.76713L16.7319 2.56006L17.0756 2.29595L16.4663 1.50302L15.857 0.710096L15.5133 0.974205L16.1226 1.76713ZM16.4663 1.50302L17.0756 2.29595L17.4193 2.03184L16.81 1.23891L16.2007 0.445986L15.857 0.710096L16.4663 1.50302ZM16.81 1.23891L17.4193 2.03184C17.4359 2.01909 17.447 2.01256 17.4525 2.00968C17.4577 2.00689 17.4581 2.00728 17.4539 2.00856C17.4495 2.00988 17.4431 2.01129 17.4357 2.01196C17.4282 2.01262 17.423 2.01226 17.4211 2.01204L17.535 1.01855L17.649 0.0250703C17.1027 -0.037598 16.6068 0.133865 16.2007 0.445986L16.81 1.23891ZM17.535 1.01855L17.4211 2.01204L17.8024 2.05579L17.9164 1.0623L18.0304 0.0688199L17.649 0.0250703L17.535 1.01855ZM17.9164 1.0623L17.8024 2.05579L18.1838 2.09954L18.2977 1.10605L18.4117 0.112569L18.0304 0.0688199L17.9164 1.0623ZM18.2977 1.10605L18.1838 2.09954C18.4125 2.12578 18.6395 2.16072 18.8648 2.20436L19.055 1.2226L19.2451 0.240846C18.9692 0.187414 18.6914 0.144657 18.4117 0.112569L18.2977 1.10605ZM19.055 1.2226L18.8648 2.20436L19.2407 2.27716L19.4308 1.2954L19.621 0.313644L19.2451 0.240846L19.055 1.2226ZM19.4308 1.2954L19.2407 2.27716L19.6166 2.34995L19.8067 1.3682L19.9969 0.386443L19.621 0.313644L19.4308 1.2954ZM19.8067 1.3682L19.6166 2.34995C20.0303 2.43009 20.445 2.40632 20.8466 2.28573L20.559 1.32797L20.2715 0.370204C20.1712 0.400323 20.0843 0.403372 19.9969 0.386443L19.8067 1.3682ZM20.559 1.32797L20.8466 2.28573L21.2231 2.1727L20.9355 1.21493L20.6479 0.257172L20.2715 0.370204L20.559 1.32797ZM20.9355 1.21493L21.2231 2.1727L21.5995 2.05966L21.312 1.1019L21.0244 0.14414L20.6479 0.257172L20.9355 1.21493ZM21.312 1.1019L21.5995 2.05966C21.7511 2.01415 21.8942 1.99614 22.0327 2.00067L22.0654 1.00121L22.0981 0.00174165C21.734 -0.0101748 21.3748 0.0389458 21.0244 0.14414L21.312 1.1019ZM22.0654 1.00121L22.0327 2.00067L22.4097 2.01301L22.4424 1.01354L22.4751 0.0140786L22.0981 0.00174165L22.0654 1.00121ZM22.4424 1.01354L22.4097 2.01301L22.7867 2.02535L22.8194 1.02588L22.8521 0.0264155L22.4751 0.0140786L22.4424 1.01354ZM22.8194 1.02588L22.7867 2.02535C22.8272 2.02667 22.8889 2.03787 22.9851 2.10306L23.5462 1.27529L24.1073 0.447517C23.7371 0.196608 23.3144 0.0415415 22.8521 0.0264155L22.8194 1.02588ZM23.5462 1.27529L22.9851 2.10306L23.3349 2.34013L23.8959 1.51236L24.457 0.684587L24.1073 0.447517L23.5462 1.27529ZM23.8959 1.51236L23.3349 2.34013L23.6846 2.5772L24.2457 1.74943L24.8068 0.921656L24.457 0.684587L23.8959 1.51236ZM24.2457 1.74943L23.6846 2.5772C24.2463 2.95787 24.8878 2.95768 25.4508 2.67871L25.0068 1.78268L24.5628 0.886657C24.546 0.894956 24.5813 0.874031 24.6545 0.877229C24.7325 0.880635 24.7873 0.908489 24.8068 0.921656L24.2457 1.74943ZM25.0068 1.78268L25.4508 2.67871L25.8621 2.4749L25.4181 1.57887L24.9741 0.682845L24.5628 0.886657L25.0068 1.78268ZM25.4181 1.57887L25.8621 2.4749L26.2734 2.27109L25.8294 1.37506L25.3854 0.479033L24.9741 0.682845L25.4181 1.57887ZM25.8294 1.37506L26.2734 2.27109C26.2726 2.27148 26.1934 2.30893 26.0657 2.28943C25.9349 2.26945 25.8621 2.20644 25.8493 2.19362L26.5559 1.48604L27.2625 0.778447C27.0396 0.555771 26.7406 0.369332 26.3677 0.312363C25.9978 0.255868 25.6604 0.342762 25.3854 0.479033L25.8294 1.37506ZM26.5559 1.48604L25.8493 2.19362L26.1645 2.50841L26.8711 1.80082L27.5778 1.09324L27.2625 0.778447L26.5559 1.48604ZM26.8711 1.80082L26.1645 2.50841L26.4797 2.8232L27.1863 2.11561L27.893 1.40802L27.5778 1.09324L26.8711 1.80082ZM27.1863 2.11561L26.4797 2.8232C26.8047 3.14775 27.2091 3.39421 27.6919 3.47954L27.866 2.49479L28.04 1.51005C28.037 1.50952 27.9883 1.5032 27.893 1.40802L27.1863 2.11561ZM27.866 2.49479L27.6919 3.47954L28.0563 3.54393L28.2304 2.55918L28.4044 1.57444L28.04 1.51005L27.866 2.49479ZM28.2304 2.55918L28.0563 3.54393L28.4207 3.60832L28.5948 2.62358L28.7688 1.63883L28.4044 1.57444L28.2304 2.55918ZM28.5948 2.62358L28.4207 3.60832C28.7992 3.67519 29.1852 3.66336 29.5682 3.5945L29.3913 2.61028L29.2143 1.62606C29.0212 1.66079 28.8762 1.65781 28.7688 1.63883L28.5948 2.62358ZM29.3913 2.61028L29.5682 3.5945L30.0004 3.5168L29.8234 2.53259L29.6465 1.54837L29.2143 1.62606L29.3913 2.61028ZM29.8234 2.53259L30.0004 3.5168L30.4325 3.43911L30.2555 2.45489L30.0786 1.47067L29.6465 1.54837L29.8234 2.53259ZM30.2555 2.45489L30.4325 3.43911C30.5321 3.4212 30.5657 3.43865 30.5795 3.44573L31.0362 2.55609L31.4928 1.66645C31.042 1.43501 30.5551 1.385 30.0786 1.47067L30.2555 2.45489ZM31.0362 2.55609L30.5795 3.44573L30.928 3.62463L31.3847 2.73498L31.8413 1.84534L31.4928 1.66645L31.0362 2.55609ZM31.3847 2.73498L30.928 3.62463L31.2765 3.80352L31.7332 2.91388L32.1898 2.02423L31.8413 1.84534L31.3847 2.73498ZM31.7332 2.91388L31.2765 3.80352C31.2921 3.81152 31.3236 3.82803 31.3641 3.91336L32.2676 3.48484L33.1712 3.05632C32.9637 2.61888 32.6389 2.25475 32.1898 2.02423L31.7332 2.91388ZM32.2676 3.48484L31.3641 3.91336L31.5501 4.30543L32.4536 3.87691L33.3571 3.44839L33.1712 3.05632L32.2676 3.48484ZM32.4536 3.87691L31.5501 4.30543L31.736 4.6975L32.6395 4.26898L33.5431 3.84046L33.3571 3.44839L32.4536 3.87691ZM32.6395 4.26898L31.736 4.6975C31.9168 5.07876 32.171 5.41962 32.515 5.68137L33.1205 4.8855L33.726 4.08964C33.6767 4.05212 33.6102 3.98196 33.5431 3.84046L32.6395 4.26898ZM33.1205 4.8855L32.515 5.68137L32.8101 5.90582L33.4155 5.10995L34.021 4.31409L33.726 4.08964L33.1205 4.8855ZM33.4155 5.10995L32.8101 5.90582L33.1051 6.13027L33.7106 5.33441L34.3161 4.53854L34.021 4.31409L33.4155 5.10995ZM33.7106 5.33441L33.1051 6.13027C33.1329 6.15139 33.1422 6.16417 33.1433 6.16563C33.144 6.16662 33.1436 6.16627 33.1429 6.16486C33.1422 6.16343 33.142 6.16252 33.142 6.16279L34.1005 5.87739L35.0589 5.592C34.9282 5.15309 34.6611 4.80107 34.3161 4.53854L33.7106 5.33441ZM34.1005 5.87739L33.142 6.16279L33.2369 6.48132L34.1953 6.19593L35.1537 5.91054L35.0589 5.592L34.1005 5.87739ZM34.1953 6.19593L33.2369 6.48132L33.3318 6.79986L34.2902 6.51446L35.2486 6.22907L35.1537 5.91054L34.1953 6.19593ZM34.2902 6.51446L33.3318 6.79986C33.3627 6.90388 33.3818 6.971 33.3915 7.00804C33.3974 7.03028 33.3952 7.02424 33.3913 7.00402C33.3909 7.00182 33.3806 6.95206 33.3767 6.88475C33.3756 6.86482 33.3682 6.75485 33.3981 6.61824C33.4121 6.55386 33.4533 6.39027 33.582 6.22294C33.7399 6.0177 34.0159 5.833 34.3741 5.833V6.833V7.833C34.7326 7.833 35.009 7.64809 35.1672 7.44244C35.2963 7.27469 35.3377 7.11048 35.3519 7.04527C35.3822 6.907 35.3748 6.79454 35.3735 6.77129C35.3693 6.69735 35.3575 6.63764 35.3545 6.62216C35.3454 6.5754 35.3337 6.52954 35.3256 6.49869C35.3074 6.42955 35.2808 6.33741 35.2486 6.22907L34.2902 6.51446ZM34.3741 6.833V5.833H34.3631V6.833V7.833H34.3741V6.833ZM34.3631 6.833V5.833H34.3521V6.833V7.833H34.3631V6.833ZM34.3521 6.833V5.833C33.9754 5.833 33.7369 6.03601 33.654 6.11668C33.5593 6.20883 33.5052 6.2985 33.4831 6.33708C33.4357 6.4197 33.4109 6.49098 33.4037 6.51184C33.3847 6.56662 33.3737 6.61374 33.3698 6.63051C33.3597 6.67401 33.3512 6.71992 33.3448 6.75631C33.331 6.83478 33.3142 6.94245 33.2949 7.07325L34.2842 7.21917L35.2735 7.36509C35.2922 7.23844 35.3057 7.15303 35.3145 7.10277C35.3195 7.0748 35.3204 7.07244 35.3177 7.08376C35.3176 7.08444 35.3098 7.11949 35.2936 7.16623C35.2878 7.18307 35.2643 7.25133 35.2181 7.33194C35.1965 7.36951 35.143 7.45843 35.0488 7.55008C34.9664 7.63024 34.7283 7.833 34.3521 7.833V6.833ZM34.2842 7.21917L33.2949 7.07325L33.2379 7.45941L34.2272 7.60533L35.2165 7.75125L35.2735 7.36509L34.2842 7.21917Z" fill="black"/>
</svg>
