<svg width="21" height="18" viewBox="0 0 21 18" fill="none" xmlns="http://www.w3.org/2000/svg">
<path d="M4.87573 3.42786C4.87573 3.84932 4.87573 4.27078 4.87573 4.69863C4.87573 5.12648 4.87573 5.54794 4.92842 5.92311C4.9811 6.29827 5.08646 6.61437 5.19502 7.89791" stroke="black" stroke-width="2" stroke-linecap="round"/>
<path d="M10.9421 1.51208C11.1529 2.03891 11.3636 2.56574 11.5775 3.20592C11.7914 3.84609 12.0022 4.58365 12.2193 5.66285" stroke="black" stroke-width="2" stroke-linecap="round"/>
<path d="M1.04419 12.3679C1.99248 12.7862 4.76072 14.9158 6.5695 15.5065C8.37767 16.097 11.667 15.034 14.7529 14.025C16.2615 12.3711 16.9001 11.0971 17.2737 9.39533C17.328 8.86211 17.328 8.22992 17.6473 7.25928" stroke="black" stroke-width="2" stroke-linecap="round"/>
<path d="M17.3279 12.0487C18.3816 13.1024 19.0298 14.3827 19.1367 15.6583C19.1817 16.1944 19.0329 16.5124 18.6626 16.4118C18.2922 16.3112 17.66 15.7844 17.1763 15.4076C16.6926 15.0309 16.3765 14.8201 16.0508 14.603" stroke="black" stroke-width="2" stroke-linecap="round"/>
</svg>
