<svg width="27" height="21" viewBox="0 0 27 21" fill="none" xmlns="http://www.w3.org/2000/svg">
<path d="M4.88166 8.38165C4.49758 8.38165 3.33953 8.38165 1.78866 7.90155C1.06153 7.67645 1.00595 6.46125 1.48314 5.58253C4.11457 0.736855 11.2713 1.59625 13.602 1.97742C14.8097 2.17493 15.9327 2.75431 16.9016 3.33333C17.3749 3.6162 17.4864 4.29644 17.3933 4.88129C16.9303 7.78998 11.4925 8.18379 8.28891 8.86466C7.41309 8.96359 6.4529 8.96359 5.67019 8.86757C4.88748 8.77155 4.31136 8.57951 3.71779 8.38165" stroke="black" stroke-width="2" stroke-linecap="round"/>
<path d="M18.8481 5.47192C19.2322 7.39232 19.4301 10.302 19.046 13.7878C18.7227 16.7219 16.5262 17.8847 15.1732 18.4637C13.3472 19.2452 11.2946 20.0204 9.2607 19.9244C6.49604 19.7938 4.31132 17.5064 2.75172 15.3736C2.55386 14.2126 2.36182 13.0429 2.07085 11.6899C1.97192 10.913 1.97192 9.95285 1.97192 8.96355" stroke="black" stroke-width="2" stroke-linecap="round"/>
<path d="M20.0121 7.79968C21.9325 8.18376 23.69 9.14978 24.7578 10.6017C25.507 11.6204 24.4756 13.0313 23.8005 14.0963C23.3175 14.5851 22.5494 14.9692 21.8656 15.263C21.1818 15.5569 20.6057 15.749 19.4302 15.9468" stroke="black" stroke-width="2" stroke-linecap="round"/>
</svg>
