<svg width="27" height="21" viewBox="0 0 27 21" fill="none" xmlns="http://www.w3.org/2000/svg">
<path d="M1.19922 4.05383C2.3631 6.37577 2.74717 8.6977 3.42804 11.6045C3.52697 12.7655 3.52697 14.4938 3.62299 15.6722C3.71901 16.8507 3.91105 17.4268 4.10891 18.0204" stroke="black" stroke-width="2" stroke-linecap="round"/>
<path d="M2.36328 2.30812C5.83745 2.30812 10.4988 2.6922 13.3125 2.98608C16.1523 3.28269 19.2279 3.08792 21.5585 2.31103C22.1434 2.11608 22.7195 1.92404 23.3043 1.82511C23.8892 1.72618 24.4653 1.72618 24.8581 2.3023C26.853 5.22817 25.0589 10.6124 24.2907 16.1408C23.5652 21.3623 15.9574 18.6024 12.5618 19.0854C10.1496 19.1843 8.18848 18.9923 6.9315 18.6053C6.25063 18.4104 5.48247 18.2183 3.52716 17.4385" stroke="black" stroke-width="2" stroke-linecap="round"/>
<path d="M2.94507 4.05392C7.59476 7.34769 9.91669 9.66381 12.2474 11.1303C12.8002 11.4782 13.4083 11.8053 13.9932 11.9072C16.3829 12.3233 18.6458 9.303 20.7844 7.45535C21.3692 6.39331 21.7591 5.22362 22.3382 4.15867C22.7252 3.66984 23.3013 3.28576 25.0587 2.30811" stroke="black" stroke-width="2" stroke-linecap="round"/>
</svg>
