<svg width="32" height="32" viewBox="0 0 32 32" fill="none" xmlns="http://www.w3.org/2000/svg">
<path d="M15.9971 3.26859C16.1459 3.25084 16.2956 3.2573 16.4424 3.28714L16.8847 3.37796L17.3281 3.46781C17.464 3.49551 17.5951 3.54115 17.7187 3.60452L18.1191 3.81058L18.5195 4.01566C18.6288 4.07173 18.7325 4.13909 18.8281 4.21585L19.1826 4.50101L19.5381 4.78617C19.6621 4.88579 19.7661 5.00579 19.8476 5.14163L20.084 5.53519L20.3193 5.92874C20.3888 6.04464 20.4439 6.16852 20.4824 6.29788L20.7441 7.1807C20.7681 7.26141 20.8257 7.46411 20.7803 7.68363L20.7383 7.88773L20.6982 8.08011L20.6943 8.14163L20.6767 8.59671L20.6582 9.05179C20.6511 9.22666 20.6071 9.3956 20.5293 9.55179L20.3252 9.96097L20.1211 10.3692C20.0545 10.5026 19.968 10.6246 19.8623 10.7315L19.5459 11.0518L19.2295 11.3711C19.1287 11.473 19.0135 11.5596 18.8857 11.628L18.749 11.7002C18.7595 11.721 18.7699 11.7378 18.7754 11.752C18.8193 11.8655 18.8232 11.9648 18.8242 11.9942C18.8268 12.07 18.8181 12.1387 18.8135 12.1719L18.7715 12.4688L18.7295 12.7647C18.7307 12.7558 18.7306 12.7542 18.7305 12.7618C18.7303 12.77 18.731 12.7851 18.7324 12.8067L18.7627 13.2549L18.792 13.7032C18.7981 13.7948 18.8014 13.8868 18.8008 13.9785L18.7949 14.875C18.7941 14.9825 18.7853 15.0899 18.7695 15.1963L18.7031 15.6446L18.6357 16.0928C18.6301 16.1304 18.6284 16.1677 18.6289 16.2041L18.6406 17.1006C18.6411 17.1395 18.6429 17.1789 18.6445 17.2178L18.706 17.1993C18.8218 17.1712 18.932 17.1652 19.0215 17.166L19.4697 17.17L19.918 17.1748C20.0258 17.1759 20.1335 17.184 20.2402 17.2002L21.1367 17.3369C21.166 17.3414 21.1948 17.3422 21.2226 17.3409L21.6699 17.3203L22.1181 17.2989C22.2316 17.2935 22.3453 17.3021 22.457 17.3252L22.5683 17.3535L22.9863 17.4776L23.4043 17.6026C23.6358 17.6717 23.8217 17.8201 23.9414 18.0166L23.9892 18.1035L24.1826 18.5088L24.376 18.9131C24.414 18.9927 24.4501 19.0736 24.4834 19.1553L24.6523 19.5703L24.8222 19.9854C24.8431 20.0365 24.8656 20.0873 24.8906 20.1368L25.2969 20.9375C25.3447 21.0319 25.3869 21.1297 25.4219 21.2295L25.5693 21.6534L25.7178 22.0772C25.7378 22.1347 25.7598 22.1921 25.7832 22.2481L25.956 22.6612L26.1279 23.0743C26.1452 23.1156 26.1665 23.1575 26.1904 23.1993L26.418 23.5987L26.6465 23.9971C26.7662 24.2063 26.8065 24.4428 26.7666 24.6768L26.6875 25.1358L26.6094 25.5948C26.6019 25.6381 26.5975 25.6793 26.5967 25.7178L26.5879 26.166L26.5781 26.6143C26.5761 26.7125 26.5697 26.8111 26.5576 26.9082L26.4482 27.7871C26.4293 27.9395 26.3659 28.1243 26.2129 28.2793C26.0611 28.433 25.8801 28.497 25.7344 28.5196L25.2861 28.5889L24.8389 28.6582C24.711 28.678 24.5814 28.6831 24.4521 28.6729L24.0039 28.6377L23.5556 28.6016C23.5087 28.5979 23.4618 28.5969 23.415 28.5987L22.5185 28.6338C22.4631 28.636 22.4074 28.6408 22.3515 28.6475L21.9033 28.7012L21.4551 28.7559C21.3152 28.7727 21.1748 28.7695 21.0361 28.7471L20.5879 28.6748L20.1611 28.6045L19.7305 28.7002L19.2822 28.7989C19.1386 28.8305 18.9915 28.8398 18.8437 28.8262L17.9472 28.7442C17.8903 28.7389 17.8331 28.7363 17.7764 28.7354L17.3291 28.7276L16.8808 28.7207C16.8319 28.72 16.7826 28.7219 16.7334 28.7266L16.2851 28.7696L15.8369 28.8116C15.7278 28.8218 15.6182 28.8245 15.5088 28.8184L14.6123 28.7676C14.5508 28.7642 14.4891 28.7627 14.4277 28.7627H13.9795L13.5322 28.7637C13.4438 28.7638 13.3549 28.761 13.2666 28.7559L12.8183 28.7295L12.3711 28.7032C12.3134 28.6998 12.2548 28.6994 12.1972 28.7002L11.75 28.7061L11.3017 28.7129C11.1977 28.7144 11.0937 28.7098 10.9902 28.6983L10.0937 28.5987C10.0453 28.5933 9.99712 28.5898 9.9492 28.5899L9.05272 28.5918C8.98163 28.592 8.90994 28.5926 8.83885 28.5938L8.39159 28.6016L7.94334 28.6094C7.86172 28.6108 7.78058 28.6105 7.70018 28.6094L7.26073 28.6035L6.82225 28.5977C6.57722 28.5943 6.34196 28.5027 6.15819 28.3243L5.85448 28.0293L5.54979 27.7334C5.36452 27.5534 5.26899 27.3213 5.25584 27.083L5.23143 26.6328L5.20604 26.1817C5.19879 26.0496 5.20786 25.9177 5.23241 25.7881L5.40233 24.8916C5.4108 24.8468 5.41656 24.8025 5.41893 24.7598L5.46776 23.8692L5.48143 23.7432C5.50113 23.6187 5.54027 23.4984 5.59666 23.3848L5.79588 22.9825L5.9951 22.5811C6.01488 22.5412 6.03233 22.4993 6.04686 22.4571L6.19334 22.0323L6.33983 21.6084C6.37869 21.4957 6.42786 21.3866 6.48729 21.2832L6.7119 20.8916L6.93748 20.501C6.95956 20.4626 6.9786 20.4229 6.9951 20.3828L7.166 19.9678L7.33592 19.5537C7.37201 19.466 7.41243 19.3794 7.45604 19.295L7.66209 18.8955L7.86815 18.4971L7.92967 18.3907C7.99727 18.2862 8.08341 18.1877 8.19139 18.1045L8.50096 17.8662L8.80955 17.628L8.92186 17.5528C9.03661 17.485 9.15771 17.4408 9.27733 17.4151L10.1601 17.2256L10.292 17.2051C10.3794 17.1962 10.467 17.1971 10.5537 17.2071L10.6836 17.2285L11.1308 17.3291L11.5713 17.4287L12.0068 17.3711L12.4551 17.3125C12.5816 17.296 12.7281 17.2929 12.876 17.2959L13.2187 17.3028L13.2431 16.9864L13.2773 16.5391C13.2797 16.5079 13.2798 16.476 13.2764 16.4444L13.2265 15.9961L13.1777 15.5479C13.162 15.4033 13.1681 15.2583 13.1953 15.1162L13.3672 14.2198C13.3744 14.182 13.3789 14.1451 13.3799 14.1094L13.3916 13.6612L13.4033 13.2139C13.404 13.1846 13.4017 13.1139 13.3887 12.9883L13.3037 12.1729L13.2998 12.1368V12C13.2998 11.9139 13.3172 11.8321 13.3457 11.7559L13.3164 11.7393C13.1857 11.665 13.0692 11.5701 12.9697 11.4571L12.3935 10.8028C12.3188 10.7178 12.2513 10.6268 12.1924 10.5303L11.9648 10.1563L11.7363 9.78226C11.6597 9.65669 11.6042 9.52112 11.5703 9.37894L11.3652 8.51566C11.3295 8.36504 11.3194 8.21047 11.3369 8.05667L11.3867 7.61624L11.4375 7.17581C11.4483 7.08046 11.4636 6.98447 11.4834 6.88968L11.5762 6.44437L11.6699 5.99808L11.7168 5.83695C11.7761 5.68175 11.8718 5.54319 11.998 5.4307L12.6797 4.82327C12.7459 4.76427 12.8132 4.70805 12.8808 4.65433L13.2217 4.38284L13.5625 4.11234C13.6558 4.03832 13.7558 3.97425 13.8613 3.91995L14.2578 3.71585L14.6533 3.51273L14.7607 3.46292C14.87 3.41863 14.9844 3.38998 15.1015 3.37601L15.5498 3.3223L15.9971 3.26859ZM18.8096 18.6485L18.7529 18.669L18.7705 18.8282L18.8174 19.2754C18.831 19.4033 18.8302 19.5326 18.8144 19.6602L18.7588 20.1075L18.7031 20.5557C18.6922 20.6435 18.6789 20.7313 18.6631 20.8174L18.5029 21.6885C18.4773 21.8282 18.4134 21.9946 18.2754 22.1368C18.1356 22.2807 17.9673 22.3512 17.8174 22.3789L17.3984 22.4561L16.9805 22.5332C16.9069 22.5468 16.831 22.5602 16.7529 22.5733L16.3047 22.6485L15.8574 22.7237C15.7176 22.7471 15.5757 22.7511 15.4346 22.7344L14.9863 22.6817L14.5381 22.628C14.2388 22.5924 13.9561 22.4139 13.8222 22.0938L13.5019 21.3262C13.4402 21.1784 13.4095 21.0246 13.4043 20.8721L13.373 19.9756C13.371 19.9149 13.367 19.8538 13.3613 19.793L13.3203 19.3448L13.2783 18.8965C13.2723 18.8324 13.2679 18.7683 13.2637 18.7041L12.8476 18.6963C12.7239 18.6938 12.6595 18.6982 12.6367 18.7012L12.1885 18.7588L11.7402 18.8174C11.5829 18.8379 11.4258 18.8304 11.2724 18.7959L10.8242 18.6953L10.414 18.6026L10.0127 18.6895L9.61522 18.7744L9.35448 18.9756L9.09178 19.1778L8.90526 19.5381L8.6992 19.9375C8.6742 19.9859 8.65145 20.0359 8.63084 20.086L8.46092 20.5L8.29002 20.9141C8.24987 21.0118 8.20308 21.1076 8.15037 21.1993L7.92576 21.5899L7.70116 21.9815C7.6859 22.008 7.67285 22.0352 7.66307 22.0635L7.51659 22.4883L7.37108 22.9131C7.33692 23.0123 7.29564 23.1092 7.24901 23.2032L7.04979 23.6055L6.86424 23.9785L6.84178 24.3916L6.81639 24.8379C6.81053 24.9433 6.79797 25.0484 6.7783 25.1524L6.60838 26.0489C6.60472 26.0682 6.60352 26.0867 6.60448 26.1045L6.62889 26.5557L6.64451 26.8457L6.82909 27.0244L7.00975 27.2002L7.28026 27.2041L7.71971 27.21C7.78537 27.2109 7.85244 27.2111 7.91991 27.21L8.36717 27.2022L8.81541 27.1944C8.89347 27.193 8.97173 27.1926 9.04979 27.1924L9.94627 27.1905C10.0473 27.1903 10.1485 27.1959 10.249 27.2071L10.6963 27.2569L11.1445 27.3067C11.1903 27.3118 11.236 27.3132 11.2812 27.3125L11.7295 27.3067L12.1767 27.2998C12.2684 27.2985 12.3606 27.3004 12.4521 27.3057L13.3486 27.3584C13.4094 27.362 13.4705 27.3634 13.5312 27.3633H13.9785L14.4267 27.3623C14.5145 27.3623 14.6027 27.3652 14.6904 27.3701L15.1387 27.3955L15.5869 27.42C15.6263 27.4221 15.6663 27.4218 15.706 27.418L16.1533 27.376L16.6015 27.333C16.7015 27.3236 16.802 27.3198 16.9023 27.3213L17.3506 27.3282L17.7978 27.335C17.8902 27.3364 17.983 27.3412 18.0752 27.3496L18.5234 27.3916L18.9717 27.4326C18.973 27.4328 18.9753 27.4328 18.9805 27.4317L19.8769 27.2344L19.9971 27.2129C20.0779 27.2029 20.1596 27.2007 20.2412 27.2061L20.3633 27.2198L20.8115 27.292L21.2588 27.3653C21.2691 27.3669 21.2788 27.3664 21.2881 27.3653L21.7353 27.3116L22.1836 27.2578C22.2768 27.2466 22.3703 27.239 22.4639 27.2354L23.3603 27.2002C23.4625 27.1963 23.565 27.198 23.667 27.2061L24.1152 27.2422L24.5625 27.2774C24.5823 27.279 24.6027 27.2787 24.624 27.2754L25.0722 27.2061L25.1094 27.2002L25.1133 27.1748L25.168 26.7354C25.174 26.6863 25.1776 26.6358 25.1787 26.585L25.1885 26.1368L25.1972 25.6885C25.1996 25.5781 25.2108 25.4675 25.2295 25.3584L25.3076 24.8994L25.3633 24.5733L25.2031 24.294L24.9746 23.8955C24.9226 23.8047 24.8761 23.7105 24.8359 23.6143L24.664 23.2002L24.4912 22.7871C24.4572 22.7056 24.4257 22.6226 24.3965 22.5391L24.0996 21.6914C24.0852 21.6504 24.0684 21.6101 24.0488 21.5713L23.8457 21.1709L23.6426 20.7696V20.7705C23.6001 20.6869 23.5608 20.6005 23.5254 20.5137L23.3564 20.0987L23.1875 19.6846C23.1646 19.6285 23.1394 19.5723 23.1133 19.5176L22.9199 19.1123L22.8115 18.8868L22.5859 18.8194L22.1777 18.6973L21.7363 18.7188L21.2881 18.7393C21.1671 18.745 21.0463 18.7389 20.9267 18.7207L20.4785 18.6524L20.0303 18.585C19.9879 18.5786 19.9455 18.5746 19.9043 18.5743L19.457 18.5703L19.0264 18.5664L18.8096 18.6485ZM14.0674 24.2256L14.5146 24.2871L14.9629 24.3487C14.9933 24.3528 15.0233 24.3542 15.0527 24.3526L15.501 24.3272L15.9482 24.3018C16.0462 24.2963 16.1451 24.2955 16.2431 24.2998L16.6904 24.3203L17.1387 24.3399C17.1791 24.3417 17.2199 24.3401 17.2607 24.336L17.709 24.2901L18.1572 24.2451C18.2828 24.2324 18.4089 24.2333 18.5342 24.2481L18.9824 24.3008L19.4297 24.3535C19.4674 24.358 19.505 24.359 19.542 24.3575L19.9902 24.3389L20.4385 24.3194C20.5262 24.3157 20.6115 24.3151 20.6924 24.3174L21.0596 24.3282L21.3965 24.3379L21.4004 24.2998H21.5C21.6031 24.2998 21.6999 24.3252 21.7881 24.3653L22.2002 24.4483V25.0362C22.2002 25.4041 21.9376 25.5876 21.874 25.628C21.7886 25.682 21.7121 25.7051 21.6875 25.7119C21.6278 25.7287 21.5784 25.7332 21.5664 25.7344C21.5313 25.738 21.5008 25.7391 21.4883 25.7393C21.4569 25.7398 21.4206 25.7383 21.3877 25.7373L21.0205 25.7276L20.6523 25.7168C20.6107 25.7156 20.5593 25.7162 20.498 25.7188L20.0498 25.7373L19.6015 25.7569C19.4894 25.7616 19.377 25.7573 19.2656 25.7442L18.8183 25.6905L18.3701 25.6377C18.3462 25.6349 18.3224 25.6353 18.2988 25.6377L17.8515 25.6836L17.4033 25.7285C17.2949 25.7396 17.1859 25.7431 17.0771 25.7383L16.6289 25.7188L16.1806 25.6983C16.1296 25.696 16.0784 25.6964 16.0273 25.6993L15.5791 25.7246L15.1318 25.75C15.0119 25.7568 14.8913 25.7517 14.7724 25.7354L14.3252 25.6739L13.8769 25.6133C13.8498 25.6096 13.823 25.6085 13.7969 25.6104L13.3496 25.6416L12.9014 25.6729C12.8068 25.6795 12.7119 25.6822 12.6172 25.6807L11.7207 25.667C11.6636 25.6661 11.5721 25.6674 11.4404 25.6719L10.624 25.6993L10.6123 25.7002H10.5C10.1134 25.7002 9.79979 25.3866 9.79979 25C9.8 24.6137 10.1136 24.2999 10.5 24.2998H10.5996V24.3008L11.3916 24.2725C11.5314 24.2677 11.651 24.2652 11.7431 24.2666L12.1914 24.2744L12.6387 24.2813C12.6931 24.2821 12.7481 24.2802 12.8027 24.2764L13.6992 24.2139C13.8221 24.2053 13.9454 24.2089 14.0674 24.2256ZM21.3096 24.3633C21.2859 24.3699 21.2098 24.3917 21.125 24.4453C21.0631 24.4845 20.8084 24.6635 20.8008 25.0205H21.3281L21.3955 24.3477C21.3748 24.3507 21.344 24.3537 21.3096 24.3633ZM14.7812 12.8438C14.7964 12.9894 14.8059 13.1308 14.8027 13.251L14.791 13.6983L14.7793 14.1465C14.7763 14.2596 14.7634 14.3723 14.7422 14.4834L14.5703 15.3799C14.569 15.3865 14.5689 15.3913 14.5693 15.3955L14.6191 15.8438L14.668 16.292C14.6808 16.4094 14.6828 16.5278 14.6738 16.6455L14.6396 17.0938L14.6055 17.541C14.6022 17.5841 14.601 17.628 14.6035 17.6709L14.6308 18.1182L14.6572 18.5664C14.6612 18.6331 14.6657 18.7009 14.6719 18.7676L14.7139 19.2149L14.7558 19.6631C14.764 19.7511 14.7694 19.8396 14.7724 19.9278L14.7881 20.376L14.8017 20.8076L14.9541 21.17L14.9961 21.2725L15.1514 21.291L15.5996 21.3438C15.6077 21.3447 15.6156 21.3453 15.625 21.3438L16.0732 21.2686L16.5215 21.1924C16.5925 21.1805 16.6609 21.1684 16.7265 21.1563L17.1445 21.0801L17.1924 21.0703L17.206 21L17.2861 20.5645C17.2969 20.5056 17.3059 20.4451 17.3135 20.3838L17.4248 19.4873C17.4274 19.466 17.428 19.4449 17.4258 19.4239L17.3301 18.5274C17.3212 18.4436 17.314 18.3593 17.3086 18.2754L17.2793 17.8272L17.251 17.3789C17.2454 17.2925 17.2414 17.2057 17.2402 17.1192L17.2285 16.2227C17.227 16.1103 17.2344 15.9979 17.251 15.8868L17.3183 15.4385L17.3847 14.9903C17.391 14.9482 17.3942 14.9063 17.3945 14.8653L17.3974 14.417V14.3028L17.2998 14.4541V12.5196L17.1572 12.6055C16.968 12.718 16.7533 12.7681 16.5332 12.751L16.0781 12.7159L15.624 12.6807C15.4915 12.6704 15.3604 12.6439 15.2334 12.6006L14.8144 12.458L14.7383 12.4317L14.7812 12.8438ZM15.7148 4.71292L15.2812 4.7637L14.8974 4.96097L14.5019 5.16507C14.4759 5.17847 14.4527 5.19306 14.4326 5.20902L13.751 5.75003C13.7052 5.78638 13.6585 5.8261 13.6113 5.8682L13.2705 6.17191L13.0156 6.39847L12.9472 6.7305L12.8535 7.17679C12.8423 7.23026 12.8339 7.28293 12.8281 7.33402L12.7783 7.77445L12.7295 8.20316L12.8291 8.62308L12.9316 9.05472L13.1592 9.42679L13.3877 9.80081C13.4045 9.8284 13.4235 9.85421 13.4443 9.87796L13.7324 10.2051L14.0156 10.5264L14.3877 10.7383L14.7676 10.9541C14.7922 10.9681 14.8189 10.9805 14.8476 10.9903L15.6855 11.2754C15.6981 11.2797 15.7135 11.2837 15.7324 11.2852L16.1865 11.3203L16.5322 11.3467L16.834 11.168L17.2275 10.9346C17.3017 10.8905 17.3759 10.8483 17.4502 10.8086L17.8379 10.6016L18.2256 10.3936C18.227 10.3928 18.2299 10.3912 18.2344 10.3868L18.5508 10.0664L18.8672 9.7471C18.8675 9.7467 18.8685 9.74546 18.8691 9.74417L19.0722 9.33597L19.2597 8.95902L19.2773 8.54007L19.2959 8.08499C19.2991 8.00504 19.3056 7.90083 19.3252 7.80667L19.3681 7.60257L19.3847 7.52054L19.2715 7.13773L19.1396 6.6973C19.1345 6.67997 19.1281 6.66344 19.1191 6.64847L18.8828 6.25492L18.6533 5.8721L18.3066 5.59281L17.9512 5.30667C17.9286 5.28858 17.9048 5.27407 17.8808 5.26175L17.4805 5.0557L17.0791 4.85062C17.0695 4.84576 17.0599 4.84216 17.0488 4.83988L16.6055 4.74906L16.1631 4.65921L15.7148 4.71292Z" fill="black"/>
</svg>
